<?xml version="1.0" encoding="UTF-8" standalone="no"?>
<!DOCTYPE svg PUBLIC "-//W3C//DTD SVG 1.1//EN"
 "http://www.w3.org/Graphics/SVG/1.1/DTD/svg11.dtd">
<!-- Generated by graphviz version 2.50.0 (0)
 -->
<!-- Title: ERD_ChristianAdvocateAndJournal1847 Pages: 1 -->
<svg width="1660pt" height="1581pt"
 viewBox="0.00 0.00 1660.00 1581.00" xmlns="http://www.w3.org/2000/svg" xmlns:xlink="http://www.w3.org/1999/xlink">
<g id="graph0" class="graph" transform="scale(1 1) rotate(0) translate(4 1577)">
<title>ERD_ChristianAdvocateAndJournal1847</title>
<polygon fill="white" stroke="transparent" points="-4,4 -4,-1577 1656,-1577 1656,4 -4,4"/>
<text text-anchor="middle" x="826" y="-1557.8" font-family="Arial Bold" font-size="14.00">Entity Relationships for ChristianAdvocateAndJournal1847</text>
<text text-anchor="middle" x="826" y="-1542.8" font-family="Arial Bold" font-size="14.00">(Reprint Type: direct)</text>
<!-- Article -->
<g id="node1" class="node">
<title>Article</title>
<polygon fill="#b4d7e5" stroke="transparent" points="10,-1142.5 10,-1169.5 362,-1169.5 362,-1142.5 10,-1142.5"/>
<polygon fill="none" stroke="black" points="10,-1142.5 10,-1169.5 362,-1169.5 362,-1142.5 10,-1142.5"/>
<text text-anchor="start" x="168.5" y="-1153.9" font-family="Times,serif" font-weight="bold" font-size="12.00">Article</text>
<polygon fill="none" stroke="black" points="10,-1113.5 10,-1142.5 44,-1142.5 44,-1113.5 10,-1113.5"/>
<text text-anchor="start" x="17" y="-1125.3" font-family="Times,serif" font-weight="bold" font-size="14.00">PK</text>
<polygon fill="none" stroke="black" points="44,-1113.5 44,-1142.5 362,-1142.5 362,-1113.5 44,-1113.5"/>
<text text-anchor="start" x="51" y="-1125.3" font-family="Times,serif" font-weight="bold" font-size="14.00">article_id:</text>
<text text-anchor="start" x="111" y="-1125.3" font-family="Times,serif" font-size="14.00"> ChristianAdvocateAndJournal1847</text>
<polygon fill="none" stroke="black" points="10,-1084.5 10,-1113.5 44,-1113.5 44,-1084.5 10,-1084.5"/>
<polygon fill="none" stroke="black" points="44,-1084.5 44,-1113.5 362,-1113.5 362,-1084.5 44,-1084.5"/>
<text text-anchor="start" x="51" y="-1096.3" font-family="Times,serif" font-weight="bold" font-size="14.00">title:</text>
<text text-anchor="start" x="79" y="-1096.3" font-family="Times,serif" font-size="14.00"> &quot;A Female Crusoe&quot;</text>
<polygon fill="none" stroke="black" points="10,-1055.5 10,-1084.5 44,-1084.5 44,-1055.5 10,-1055.5"/>
<polygon fill="none" stroke="black" points="44,-1055.5 44,-1084.5 362,-1084.5 362,-1055.5 44,-1055.5"/>
<text text-anchor="start" x="51" y="-1067.3" font-family="Times,serif" font-weight="bold" font-size="14.00">author:</text>
<text text-anchor="start" x="95" y="-1067.3" font-family="Times,serif" font-size="14.00"> </text>
<polygon fill="none" stroke="black" points="10,-1026.5 10,-1055.5 44,-1055.5 44,-1026.5 10,-1026.5"/>
<polygon fill="none" stroke="black" points="44,-1026.5 44,-1055.5 362,-1055.5 362,-1026.5 44,-1026.5"/>
<text text-anchor="start" x="51" y="-1038.3" font-family="Times,serif" font-weight="bold" font-size="14.00">date:</text>
<text text-anchor="start" x="81" y="-1038.3" font-family="Times,serif" font-size="14.00"> 1847&#45;03&#45;03</text>
<polygon fill="none" stroke="black" points="10,-997.5 10,-1026.5 44,-1026.5 44,-997.5 10,-997.5"/>
<polygon fill="none" stroke="black" points="44,-997.5 44,-1026.5 362,-1026.5 362,-997.5 44,-997.5"/>
<text text-anchor="start" x="51" y="-1009.3" font-family="Times,serif" font-weight="bold" font-size="14.00">monograph_publishers:</text>
<text text-anchor="start" x="190" y="-1009.3" font-family="Times,serif" font-size="14.00"> </text>
<polygon fill="none" stroke="black" points="10,-968.5 10,-997.5 44,-997.5 44,-968.5 10,-968.5"/>
<polygon fill="none" stroke="black" points="44,-968.5 44,-997.5 362,-997.5 362,-968.5 44,-968.5"/>
<text text-anchor="start" x="51" y="-980.3" font-family="Times,serif" font-weight="bold" font-size="14.00">volume_number:</text>
<text text-anchor="start" x="152" y="-980.3" font-family="Times,serif" font-size="14.00"> 22</text>
<polygon fill="none" stroke="black" points="10,-939.5 10,-968.5 44,-968.5 44,-939.5 10,-939.5"/>
<polygon fill="none" stroke="black" points="44,-939.5 44,-968.5 362,-968.5 362,-939.5 44,-939.5"/>
<text text-anchor="start" x="51" y="-951.3" font-family="Times,serif" font-weight="bold" font-size="14.00">issue_number:</text>
<text text-anchor="start" x="137" y="-951.3" font-family="Times,serif" font-size="14.00"> no. 9</text>
<polygon fill="none" stroke="black" points="10,-910.5 10,-939.5 44,-939.5 44,-910.5 10,-910.5"/>
<polygon fill="none" stroke="black" points="44,-910.5 44,-939.5 362,-939.5 362,-910.5 44,-910.5"/>
<text text-anchor="start" x="51" y="-922.3" font-family="Times,serif" font-weight="bold" font-size="14.00">pages:</text>
<text text-anchor="start" x="88" y="-922.3" font-family="Times,serif" font-size="14.00"> 36</text>
<polygon fill="none" stroke="black" points="10,-881.5 10,-910.5 44,-910.5 44,-881.5 10,-881.5"/>
<polygon fill="none" stroke="black" points="44,-881.5 44,-910.5 362,-910.5 362,-881.5 44,-881.5"/>
<text text-anchor="start" x="51" y="-893.3" font-family="Times,serif" font-weight="bold" font-size="14.00">archival_holding:</text>
<text text-anchor="start" x="154" y="-893.3" font-family="Times,serif" font-size="14.00"> </text>
<polygon fill="none" stroke="black" points="10,-852.5 10,-881.5 44,-881.5 44,-852.5 10,-852.5"/>
<polygon fill="none" stroke="black" points="44,-852.5 44,-881.5 362,-881.5 362,-852.5 44,-852.5"/>
<text text-anchor="start" x="51" y="-864.3" font-family="Times,serif" font-weight="bold" font-size="14.00">archival_location:</text>
<text text-anchor="start" x="156" y="-864.3" font-family="Times,serif" font-size="14.00"> </text>
<polygon fill="none" stroke="black" points="10,-823.5 10,-852.5 44,-852.5 44,-823.5 10,-823.5"/>
<polygon fill="none" stroke="black" points="44,-823.5 44,-852.5 362,-852.5 362,-823.5 44,-823.5"/>
<text text-anchor="start" x="51" y="-835.3" font-family="Times,serif" font-weight="bold" font-size="14.00">cost:</text>
<text text-anchor="start" x="79" y="-835.3" font-family="Times,serif" font-size="14.00"> </text>
<polygon fill="none" stroke="black" points="10,-794.5 10,-823.5 44,-823.5 44,-794.5 10,-794.5"/>
<polygon fill="none" stroke="black" points="44,-794.5 44,-823.5 362,-823.5 362,-794.5 44,-794.5"/>
<text text-anchor="start" x="51" y="-806.3" font-family="Times,serif" font-weight="bold" font-size="14.00">permission:</text>
<text text-anchor="start" x="120" y="-806.3" font-family="Times,serif" font-size="14.00"> Public domain</text>
<polygon fill="none" stroke="black" points="10,-765.5 10,-794.5 44,-794.5 44,-765.5 10,-765.5"/>
<polygon fill="none" stroke="black" points="44,-765.5 44,-794.5 362,-794.5 362,-765.5 44,-765.5"/>
<text text-anchor="start" x="51" y="-777.3" font-family="Times,serif" font-weight="bold" font-size="14.00">permission_acknowledgement:</text>
<text text-anchor="start" x="231" y="-777.3" font-family="Times,serif" font-size="14.00"> </text>
<polygon fill="none" stroke="black" points="10,-736.5 10,-765.5 44,-765.5 44,-736.5 10,-736.5"/>
<polygon fill="none" stroke="black" points="44,-736.5 44,-765.5 362,-765.5 362,-736.5 44,-736.5"/>
<text text-anchor="start" x="51" y="-748.3" font-family="Times,serif" font-weight="bold" font-size="14.00">permission_statements:</text>
<text text-anchor="start" x="189" y="-748.3" font-family="Times,serif" font-size="14.00"> </text>
<polygon fill="none" stroke="black" points="10,-707.5 10,-736.5 44,-736.5 44,-707.5 10,-707.5"/>
<polygon fill="none" stroke="black" points="44,-707.5 44,-736.5 362,-736.5 362,-707.5 44,-707.5"/>
<text text-anchor="start" x="51" y="-719.3" font-family="Times,serif" font-weight="bold" font-size="14.00">acquisitions:</text>
<text text-anchor="start" x="124" y="-719.3" font-family="Times,serif" font-size="14.00"> </text>
<polygon fill="none" stroke="black" points="10,-678.5 10,-707.5 44,-707.5 44,-678.5 10,-678.5"/>
<polygon fill="none" stroke="black" points="44,-678.5 44,-707.5 362,-707.5 362,-678.5 44,-678.5"/>
<text text-anchor="start" x="51" y="-690.3" font-family="Times,serif" font-weight="bold" font-size="14.00">document_intro:</text>
<text text-anchor="start" x="149" y="-690.3" font-family="Times,serif" font-size="14.00"> </text>
<polygon fill="none" stroke="black" points="10,-649.5 10,-678.5 44,-678.5 44,-649.5 10,-649.5"/>
<polygon fill="none" stroke="black" points="44,-649.5 44,-678.5 362,-678.5 362,-649.5 44,-649.5"/>
<text text-anchor="start" x="51" y="-661.3" font-family="Times,serif" font-weight="bold" font-size="14.00">transcripts:</text>
<text text-anchor="start" x="119" y="-661.3" font-family="Times,serif" font-size="14.00"> </text>
<polygon fill="none" stroke="black" points="10,-620.5 10,-649.5 44,-649.5 44,-620.5 10,-620.5"/>
<text text-anchor="start" x="17" y="-632.3" font-family="Times,serif" font-weight="bold" font-size="14.00">FK</text>
<polygon fill="none" stroke="black" points="44,-620.5 44,-649.5 362,-649.5 362,-620.5 44,-620.5"/>
<text text-anchor="start" x="51" y="-632.3" font-family="Times,serif" font-weight="bold" font-size="14.00">publisher_location:</text>
<text text-anchor="start" x="163" y="-632.3" font-family="Times,serif" font-size="14.00"> New York, New York</text>
<polygon fill="none" stroke="black" points="10,-591.5 10,-620.5 44,-620.5 44,-591.5 10,-591.5"/>
<text text-anchor="start" x="17" y="-603.3" font-family="Times,serif" font-weight="bold" font-size="14.00">FK</text>
<polygon fill="none" stroke="black" points="44,-591.5 44,-620.5 362,-620.5 362,-591.5 44,-591.5"/>
<text text-anchor="start" x="51" y="-603.3" font-family="Times,serif" font-weight="bold" font-size="14.00">publication:</text>
<text text-anchor="start" x="121" y="-603.3" font-family="Times,serif" font-size="14.00"> New York Christian Advocate and Journal</text>
<polygon fill="none" stroke="black" stroke-width="2" points="9,-590.5 9,-1170.5 363,-1170.5 363,-590.5 9,-590.5"/>
</g>
<!-- Publication -->
<g id="node2" class="node">
<title>Publication</title>
<polygon fill="#f4d9b0" stroke="transparent" points="685.5,-1501.5 685.5,-1528.5 1037.5,-1528.5 1037.5,-1501.5 685.5,-1501.5"/>
<polygon fill="none" stroke="black" points="685.5,-1501.5 685.5,-1528.5 1037.5,-1528.5 1037.5,-1501.5 685.5,-1501.5"/>
<text text-anchor="start" x="832.5" y="-1512.9" font-family="Times,serif" font-weight="bold" font-size="12.00">Publication</text>
<polygon fill="none" stroke="black" points="685.5,-1472.5 685.5,-1501.5 719.5,-1501.5 719.5,-1472.5 685.5,-1472.5"/>
<text text-anchor="start" x="692.5" y="-1484.3" font-family="Times,serif" font-weight="bold" font-size="14.00">PK</text>
<polygon fill="none" stroke="black" points="719.5,-1472.5 719.5,-1501.5 1037.5,-1501.5 1037.5,-1472.5 719.5,-1472.5"/>
<text text-anchor="start" x="726.5" y="-1484.3" font-family="Times,serif" font-weight="bold" font-size="14.00">publication:</text>
<text text-anchor="start" x="796.5" y="-1484.3" font-family="Times,serif" font-size="14.00"> New York Christian Advocate and Journal</text>
<polygon fill="none" stroke="black" points="685.5,-1443.5 685.5,-1472.5 719.5,-1472.5 719.5,-1443.5 685.5,-1443.5"/>
<text text-anchor="start" x="692.5" y="-1455.3" font-family="Times,serif" font-weight="bold" font-size="14.00">FK</text>
<polygon fill="none" stroke="black" points="719.5,-1443.5 719.5,-1472.5 1037.5,-1472.5 1037.5,-1443.5 719.5,-1443.5"/>
<text text-anchor="start" x="726.5" y="-1455.3" font-family="Times,serif" font-weight="bold" font-size="14.00">publisher_location:</text>
<text text-anchor="start" x="838.5" y="-1455.3" font-family="Times,serif" font-size="14.00"> New York, New York</text>
<polygon fill="none" stroke="black" stroke-width="2" points="684.5,-1443 684.5,-1530 1038.5,-1530 1038.5,-1443 684.5,-1443"/>
</g>
<!-- Article&#45;&gt;Publication -->
<g id="edge1" class="edge">
<title>Article&#45;&gt;Publication</title>
<path fill="none" stroke="black" stroke-width="1.5" d="M377.25,-1184.29C443.69,-1290.39 502,-1383.5 502,-1383.5 502,-1383.5 598.58,-1411.25 691.49,-1437.94"/>
<polygon fill="black" stroke="black" stroke-width="1.5" points="377.14,-1184.12 375.65,-1173.25 374.49,-1179.88 371.83,-1175.64 371.83,-1175.64 371.83,-1175.64 374.49,-1179.88 368.02,-1178.03 377.14,-1184.12 377.14,-1184.12"/>
<text text-anchor="middle" x="469.94" y="-1360.24" font-family="Times,serif" font-size="9.00">published in</text>
<text text-anchor="middle" x="469.94" y="-1350.24" font-family="Times,serif" font-size="9.00">(N:1)</text>
</g>
<!-- Location -->
<g id="node3" class="node">
<title>Location</title>
<polygon fill="#c8e6c9" stroke="transparent" points="1361.5,-1408.5 1361.5,-1435.5 1642.5,-1435.5 1642.5,-1408.5 1361.5,-1408.5"/>
<polygon fill="none" stroke="black" points="1361.5,-1408.5 1361.5,-1435.5 1642.5,-1435.5 1642.5,-1408.5 1361.5,-1408.5"/>
<text text-anchor="start" x="1479" y="-1419.9" font-family="Times,serif" font-weight="bold" font-size="12.00">Location</text>
<polygon fill="none" stroke="black" points="1361.5,-1379.5 1361.5,-1408.5 1395.5,-1408.5 1395.5,-1379.5 1361.5,-1379.5"/>
<text text-anchor="start" x="1368.5" y="-1391.3" font-family="Times,serif" font-weight="bold" font-size="14.00">PK</text>
<polygon fill="none" stroke="black" points="1395.5,-1379.5 1395.5,-1408.5 1642.5,-1408.5 1642.5,-1379.5 1395.5,-1379.5"/>
<text text-anchor="start" x="1402.5" y="-1391.3" font-family="Times,serif" font-weight="bold" font-size="14.00">publisher_location:</text>
<text text-anchor="start" x="1514.5" y="-1391.3" font-family="Times,serif" font-size="14.00"> New York, New York</text>
<polygon fill="none" stroke="black" stroke-width="2" points="1360,-1378.5 1360,-1436.5 1643,-1436.5 1643,-1378.5 1360,-1378.5"/>
</g>
<!-- Article&#45;&gt;Location -->
<g id="edge2" class="edge">
<title>Article&#45;&gt;Location</title>
<path fill="none" stroke="black" stroke-width="1.5" d="M378.86,-1108.3C444.63,-1186.39 502,-1254.5 502,-1254.5 502,-1254.5 1072.1,-1341.86 1350.74,-1384.55"/>
<polygon fill="black" stroke="black" stroke-width="1.5" points="378.5,-1107.87 375.5,-1097.32 375.28,-1104.04 372.06,-1100.22 372.06,-1100.22 372.06,-1100.22 375.28,-1104.04 368.62,-1103.12 378.5,-1107.87 378.5,-1107.87"/>
<text text-anchor="middle" x="810.4" y="-1297.85" font-family="Times,serif" font-size="9.00">published at</text>
<text text-anchor="middle" x="810.4" y="-1287.85" font-family="Times,serif" font-size="9.00">(N:1)</text>
</g>
<!-- Images -->
<g id="node4" class="node">
<title>Images</title>
<polygon fill="#e1bee7" stroke="transparent" points="512.5,-1185.5 512.5,-1212.5 1211.5,-1212.5 1211.5,-1185.5 512.5,-1185.5"/>
<polygon fill="none" stroke="black" points="512.5,-1185.5 512.5,-1212.5 1211.5,-1212.5 1211.5,-1185.5 512.5,-1185.5"/>
<text text-anchor="start" x="819.5" y="-1196.9" font-family="Times,serif" font-weight="bold" font-size="12.00">Images (10 total)</text>
<polygon fill="none" stroke="black" points="512.5,-1156.5 512.5,-1185.5 546.5,-1185.5 546.5,-1156.5 512.5,-1156.5"/>
<text text-anchor="start" x="519.5" y="-1168.3" font-family="Times,serif" font-weight="bold" font-size="14.00">PK</text>
<polygon fill="none" stroke="black" points="546.5,-1156.5 546.5,-1185.5 1211.5,-1185.5 1211.5,-1156.5 546.5,-1156.5"/>
<text text-anchor="start" x="553.5" y="-1168.3" font-family="Times,serif" font-weight="bold" font-size="14.00">object_id:</text>
<text text-anchor="start" x="611.5" y="-1168.3" font-family="Times,serif" font-size="14.00"> ChristianAdvocateAndJournal1847_Original</text>
<polygon fill="none" stroke="black" points="512.5,-1127.5 512.5,-1156.5 546.5,-1156.5 546.5,-1127.5 512.5,-1127.5"/>
<polygon fill="none" stroke="black" points="546.5,-1127.5 546.5,-1156.5 1211.5,-1156.5 1211.5,-1127.5 546.5,-1127.5"/>
<text text-anchor="start" x="553.5" y="-1139.3" font-family="Times,serif" font-weight="bold" font-size="14.00">image_file:</text>
<text text-anchor="start" x="618.5" y="-1139.3" font-family="Times,serif" font-size="14.00"> ChristianAdvocateAndJournal1847_DigSur_1.png</text>
<polygon fill="none" stroke="black" points="512.5,-1098.5 512.5,-1127.5 546.5,-1127.5 546.5,-1098.5 512.5,-1098.5"/>
<polygon fill="none" stroke="black" points="546.5,-1098.5 546.5,-1127.5 1211.5,-1127.5 1211.5,-1098.5 546.5,-1098.5"/>
<text text-anchor="start" x="553.5" y="-1110.3" font-family="Times,serif" font-weight="bold" font-size="14.00">image_parent_id:</text>
<text text-anchor="start" x="656.5" y="-1110.3" font-family="Times,serif" font-size="14.00"> </text>
<polygon fill="none" stroke="black" points="512.5,-1069.5 512.5,-1098.5 546.5,-1098.5 546.5,-1069.5 512.5,-1069.5"/>
<polygon fill="none" stroke="black" points="546.5,-1069.5 546.5,-1098.5 1211.5,-1098.5 1211.5,-1069.5 546.5,-1069.5"/>
<text text-anchor="start" x="553.5" y="-1081.3" font-family="Times,serif" font-weight="bold" font-size="14.00">image_object_location:</text>
<text text-anchor="start" x="688.5" y="-1081.3" font-family="Times,serif" font-size="14.00"> objects/ChristianAdvocateAndJournal1847/ChristianAdvocateAndJournal1847_DigSur_1.png</text>
<polygon fill="none" stroke="black" points="512.5,-1040.5 512.5,-1069.5 546.5,-1069.5 546.5,-1040.5 512.5,-1040.5"/>
<polygon fill="none" stroke="black" points="546.5,-1040.5 546.5,-1069.5 1211.5,-1069.5 1211.5,-1040.5 546.5,-1040.5"/>
<text text-anchor="start" x="553.5" y="-1052.3" font-family="Times,serif" font-weight="bold" font-size="14.00">image_display_template:</text>
<text text-anchor="start" x="699.5" y="-1052.3" font-family="Times,serif" font-size="14.00"> compound_object</text>
<polygon fill="none" stroke="black" points="512.5,-1011.5 512.5,-1040.5 546.5,-1040.5 546.5,-1011.5 512.5,-1011.5"/>
<polygon fill="none" stroke="black" points="546.5,-1011.5 546.5,-1040.5 1211.5,-1040.5 1211.5,-1011.5 546.5,-1011.5"/>
<text text-anchor="start" x="553.5" y="-1023.3" font-family="Times,serif" font-weight="bold" font-size="14.00">image_description:</text>
<text text-anchor="start" x="665.5" y="-1023.3" font-family="Times,serif" font-size="14.00"> </text>
<polygon fill="#f0f0f0" stroke="transparent" points="512.5,-982.5 512.5,-1011.5 1211.5,-1011.5 1211.5,-982.5 512.5,-982.5"/>
<polygon fill="none" stroke="black" points="512.5,-982.5 512.5,-1011.5 1211.5,-1011.5 1211.5,-982.5 512.5,-982.5"/>
<text text-anchor="start" x="855" y="-993.3" font-family="Times,serif" font-size="14.00">&#45;&#45;&#45;</text>
<polygon fill="none" stroke="black" points="512.5,-953.5 512.5,-982.5 546.5,-982.5 546.5,-953.5 512.5,-953.5"/>
<text text-anchor="start" x="519.5" y="-965.3" font-family="Times,serif" font-weight="bold" font-size="14.00">PK</text>
<polygon fill="none" stroke="black" points="546.5,-953.5 546.5,-982.5 1211.5,-982.5 1211.5,-953.5 546.5,-953.5"/>
<text text-anchor="start" x="553.5" y="-965.3" font-family="Times,serif" font-weight="bold" font-size="14.00">object_id:</text>
<text text-anchor="start" x="611.5" y="-965.3" font-family="Times,serif" font-size="14.00"> ChristianAdvocateAndJournal1847_img1</text>
<polygon fill="none" stroke="black" points="512.5,-924.5 512.5,-953.5 546.5,-953.5 546.5,-924.5 512.5,-924.5"/>
<polygon fill="none" stroke="black" points="546.5,-924.5 546.5,-953.5 1211.5,-953.5 1211.5,-924.5 546.5,-924.5"/>
<text text-anchor="start" x="553.5" y="-936.3" font-family="Times,serif" font-weight="bold" font-size="14.00">image_file:</text>
<text text-anchor="start" x="618.5" y="-936.3" font-family="Times,serif" font-size="14.00"> ChristianAdvocateAndJournal1847_DigSur_1.png</text>
<polygon fill="none" stroke="black" points="512.5,-895.5 512.5,-924.5 546.5,-924.5 546.5,-895.5 512.5,-895.5"/>
<polygon fill="none" stroke="black" points="546.5,-895.5 546.5,-924.5 1211.5,-924.5 1211.5,-895.5 546.5,-895.5"/>
<text text-anchor="start" x="553.5" y="-907.3" font-family="Times,serif" font-weight="bold" font-size="14.00">image_parent_id:</text>
<text text-anchor="start" x="656.5" y="-907.3" font-family="Times,serif" font-size="14.00"> ChristianAdvocateAndJournal1847_Original</text>
<polygon fill="none" stroke="black" points="512.5,-866.5 512.5,-895.5 546.5,-895.5 546.5,-866.5 512.5,-866.5"/>
<polygon fill="none" stroke="black" points="546.5,-866.5 546.5,-895.5 1211.5,-895.5 1211.5,-866.5 546.5,-866.5"/>
<text text-anchor="start" x="553.5" y="-878.3" font-family="Times,serif" font-weight="bold" font-size="14.00">image_object_location:</text>
<text text-anchor="start" x="688.5" y="-878.3" font-family="Times,serif" font-size="14.00"> objects/ChristianAdvocateAndJournal1847/ChristianAdvocateAndJournal1847_DigSur_1.png</text>
<polygon fill="none" stroke="black" points="512.5,-837.5 512.5,-866.5 546.5,-866.5 546.5,-837.5 512.5,-837.5"/>
<polygon fill="none" stroke="black" points="546.5,-837.5 546.5,-866.5 1211.5,-866.5 1211.5,-837.5 546.5,-837.5"/>
<text text-anchor="start" x="553.5" y="-849.3" font-family="Times,serif" font-weight="bold" font-size="14.00">image_display_template:</text>
<text text-anchor="start" x="699.5" y="-849.3" font-family="Times,serif" font-size="14.00"> image</text>
<polygon fill="none" stroke="black" points="512.5,-808.5 512.5,-837.5 546.5,-837.5 546.5,-808.5 512.5,-808.5"/>
<polygon fill="none" stroke="black" points="546.5,-808.5 546.5,-837.5 1211.5,-837.5 1211.5,-808.5 546.5,-808.5"/>
<text text-anchor="start" x="553.5" y="-820.3" font-family="Times,serif" font-weight="bold" font-size="14.00">image_description:</text>
<text text-anchor="start" x="665.5" y="-820.3" font-family="Times,serif" font-size="14.00"> </text>
<polygon fill="#f0f0f0" stroke="transparent" points="512.5,-779.5 512.5,-808.5 1211.5,-808.5 1211.5,-779.5 512.5,-779.5"/>
<polygon fill="none" stroke="black" points="512.5,-779.5 512.5,-808.5 1211.5,-808.5 1211.5,-779.5 512.5,-779.5"/>
<text text-anchor="start" x="855" y="-790.3" font-family="Times,serif" font-size="14.00">&#45;&#45;&#45;</text>
<polygon fill="none" stroke="black" points="512.5,-750.5 512.5,-779.5 546.5,-779.5 546.5,-750.5 512.5,-750.5"/>
<text text-anchor="start" x="519.5" y="-762.3" font-family="Times,serif" font-weight="bold" font-size="14.00">PK</text>
<polygon fill="none" stroke="black" points="546.5,-750.5 546.5,-779.5 1211.5,-779.5 1211.5,-750.5 546.5,-750.5"/>
<text text-anchor="start" x="553.5" y="-762.3" font-family="Times,serif" font-weight="bold" font-size="14.00">object_id:</text>
<text text-anchor="start" x="611.5" y="-762.3" font-family="Times,serif" font-size="14.00"> ChristianAdvocateAndJournal1847_img2</text>
<polygon fill="none" stroke="black" points="512.5,-721.5 512.5,-750.5 546.5,-750.5 546.5,-721.5 512.5,-721.5"/>
<polygon fill="none" stroke="black" points="546.5,-721.5 546.5,-750.5 1211.5,-750.5 1211.5,-721.5 546.5,-721.5"/>
<text text-anchor="start" x="553.5" y="-733.3" font-family="Times,serif" font-weight="bold" font-size="14.00">image_file:</text>
<text text-anchor="start" x="618.5" y="-733.3" font-family="Times,serif" font-size="14.00"> ChristianAdvocateAndJournal1847_DigSur_2.png</text>
<polygon fill="none" stroke="black" points="512.5,-692.5 512.5,-721.5 546.5,-721.5 546.5,-692.5 512.5,-692.5"/>
<polygon fill="none" stroke="black" points="546.5,-692.5 546.5,-721.5 1211.5,-721.5 1211.5,-692.5 546.5,-692.5"/>
<text text-anchor="start" x="553.5" y="-704.3" font-family="Times,serif" font-weight="bold" font-size="14.00">image_parent_id:</text>
<text text-anchor="start" x="656.5" y="-704.3" font-family="Times,serif" font-size="14.00"> ChristianAdvocateAndJournal1847_Original</text>
<polygon fill="none" stroke="black" points="512.5,-663.5 512.5,-692.5 546.5,-692.5 546.5,-663.5 512.5,-663.5"/>
<polygon fill="none" stroke="black" points="546.5,-663.5 546.5,-692.5 1211.5,-692.5 1211.5,-663.5 546.5,-663.5"/>
<text text-anchor="start" x="553.5" y="-675.3" font-family="Times,serif" font-weight="bold" font-size="14.00">image_object_location:</text>
<text text-anchor="start" x="688.5" y="-675.3" font-family="Times,serif" font-size="14.00"> objects/ChristianAdvocateAndJournal1847/ChristianAdvocateAndJournal1847_DigSur_2.png</text>
<polygon fill="none" stroke="black" points="512.5,-634.5 512.5,-663.5 546.5,-663.5 546.5,-634.5 512.5,-634.5"/>
<polygon fill="none" stroke="black" points="546.5,-634.5 546.5,-663.5 1211.5,-663.5 1211.5,-634.5 546.5,-634.5"/>
<text text-anchor="start" x="553.5" y="-646.3" font-family="Times,serif" font-weight="bold" font-size="14.00">image_display_template:</text>
<text text-anchor="start" x="699.5" y="-646.3" font-family="Times,serif" font-size="14.00"> image</text>
<polygon fill="none" stroke="black" points="512.5,-605.5 512.5,-634.5 546.5,-634.5 546.5,-605.5 512.5,-605.5"/>
<polygon fill="none" stroke="black" points="546.5,-605.5 546.5,-634.5 1211.5,-634.5 1211.5,-605.5 546.5,-605.5"/>
<text text-anchor="start" x="553.5" y="-617.3" font-family="Times,serif" font-weight="bold" font-size="14.00">image_description:</text>
<text text-anchor="start" x="665.5" y="-617.3" font-family="Times,serif" font-size="14.00"> </text>
<polygon fill="none" stroke="black" points="512.5,-576.5 512.5,-605.5 1211.5,-605.5 1211.5,-576.5 512.5,-576.5"/>
<text text-anchor="start" x="802" y="-588.3" font-family="Times,serif" font-style="italic" font-size="14.00">... and 7 more images</text>
<polygon fill="none" stroke="black" points="512.5,-547.5 512.5,-576.5 546.5,-576.5 546.5,-547.5 512.5,-547.5"/>
<text text-anchor="start" x="519.5" y="-559.3" font-family="Times,serif" font-weight="bold" font-size="14.00">FK</text>
<polygon fill="none" stroke="black" points="546.5,-547.5 546.5,-576.5 1211.5,-576.5 1211.5,-547.5 546.5,-547.5"/>
<text text-anchor="start" x="553.5" y="-559.3" font-family="Times,serif" font-weight="bold" font-size="14.00">article_id:</text>
<text text-anchor="start" x="613.5" y="-559.3" font-family="Times,serif" font-size="14.00"> ChristianAdvocateAndJournal1847</text>
<polygon fill="none" stroke="black" stroke-width="2" points="511,-547 511,-1214 1212,-1214 1212,-547 511,-547"/>
</g>
<!-- Article&#45;&gt;Images -->
<g id="edge4" class="edge">
<title>Article&#45;&gt;Images</title>
<path fill="none" stroke="black" stroke-width="1.5" d="M372.37,-880.5C409.79,-880.5 450.35,-880.5 491.55,-880.5"/>
<polygon fill="black" stroke="black" stroke-width="1.5" points="491.76,-880.5 501.76,-885 496.76,-880.5 501.76,-880.5 501.76,-880.5 501.76,-880.5 496.76,-880.5 501.76,-876 491.76,-880.5 491.76,-880.5"/>
<text text-anchor="middle" x="421.96" y="-873.3" font-family="Times,serif" font-size="9.00">has</text>
<text text-anchor="middle" x="421.96" y="-863.3" font-family="Times,serif" font-size="9.00">(1:N)</text>
</g>
<!-- Reprints -->
<g id="node5" class="node">
<title>Reprints</title>
<polygon fill="#ffecb3" stroke="transparent" points="704.5,-436.5 704.5,-463.5 1019.5,-463.5 1019.5,-436.5 704.5,-436.5"/>
<polygon fill="none" stroke="black" points="704.5,-436.5 704.5,-463.5 1019.5,-463.5 1019.5,-436.5 704.5,-436.5"/>
<text text-anchor="start" x="788" y="-447.9" font-family="Times,serif" font-weight="bold" font-size="12.00">Reprints / Document Groups</text>
<polygon fill="none" stroke="black" points="704.5,-407.5 704.5,-436.5 738.5,-436.5 738.5,-407.5 704.5,-407.5"/>
<text text-anchor="start" x="711.5" y="-419.3" font-family="Times,serif" font-weight="bold" font-size="14.00">PK</text>
<polygon fill="none" stroke="black" points="738.5,-407.5 738.5,-436.5 1019.5,-436.5 1019.5,-407.5 738.5,-407.5"/>
<text text-anchor="start" x="745.5" y="-419.3" font-family="Times,serif" font-weight="bold" font-size="14.00">group_reprint_id:</text>
<text text-anchor="start" x="851.5" y="-419.3" font-family="Times,serif" font-size="14.00"> TheBostonAtlas1847_reprint</text>
<polygon fill="none" stroke="black" points="704.5,-378.5 704.5,-407.5 738.5,-407.5 738.5,-378.5 704.5,-378.5"/>
<polygon fill="none" stroke="black" points="738.5,-378.5 738.5,-407.5 1019.5,-407.5 1019.5,-378.5 738.5,-378.5"/>
<text text-anchor="start" x="745.5" y="-390.3" font-family="Times,serif" font-weight="bold" font-size="14.00">reprint_type:</text>
<text text-anchor="start" x="823.5" y="-390.3" font-family="Times,serif" font-size="14.00"> direct</text>
<polygon fill="none" stroke="black" points="704.5,-349.5 704.5,-378.5 738.5,-378.5 738.5,-349.5 704.5,-349.5"/>
<polygon fill="none" stroke="black" points="738.5,-349.5 738.5,-378.5 1019.5,-378.5 1019.5,-349.5 738.5,-349.5"/>
<text text-anchor="start" x="745.5" y="-361.3" font-family="Times,serif" font-weight="bold" font-size="14.00">reprint_order:</text>
<text text-anchor="start" x="830.5" y="-361.3" font-family="Times,serif" font-size="14.00"> </text>
<polygon fill="none" stroke="black" stroke-width="2" points="703,-348.5 703,-464.5 1020,-464.5 1020,-348.5 703,-348.5"/>
</g>
<!-- Article&#45;&gt;Reprints -->
<g id="edge5" class="edge">
<title>Article&#45;&gt;Reprints</title>
<path fill="none" stroke="black" stroke-width="1.5" d="M378.86,-652.09C444.63,-573.79 502,-505.5 502,-505.5 502,-505.5 593.44,-480.25 683.96,-455.25"/>
<polygon fill="black" stroke="black" stroke-width="1.5" points="378.49,-652.53 368.61,-657.3 375.27,-656.36 372.06,-660.19 372.06,-660.19 372.06,-660.19 375.27,-656.36 375.5,-663.09 378.49,-652.53 378.49,-652.53"/>
<polygon fill="black" stroke="black" stroke-width="1.5" points="684.21,-455.18 695.04,-456.86 689.02,-453.85 693.84,-452.52 693.84,-452.52 693.84,-452.52 689.02,-453.85 692.65,-448.18 684.21,-455.18 684.21,-455.18"/>
<text text-anchor="middle" x="482.64" y="-499.33" font-family="Times,serif" font-size="9.00">belongs to</text>
<text text-anchor="middle" x="482.64" y="-489.33" font-family="Times,serif" font-size="9.00">(N:M)</text>
</g>
<!-- Article_Trope -->
<g id="node6" class="node">
<title>Article_Trope</title>
<polygon fill="#ffe0e0" stroke="transparent" points="698.5,-237.5 698.5,-264.5 1025.5,-264.5 1025.5,-237.5 698.5,-237.5"/>
<polygon fill="none" stroke="black" points="698.5,-237.5 698.5,-264.5 1025.5,-264.5 1025.5,-237.5 698.5,-237.5"/>
<text text-anchor="start" x="829.5" y="-248.9" font-family="Times,serif" font-weight="bold" font-size="12.00">article_trope</text>
<polygon fill="none" stroke="black" points="698.5,-208.5 698.5,-237.5 755.5,-237.5 755.5,-208.5 698.5,-208.5"/>
<text text-anchor="start" x="705.5" y="-220.3" font-family="Times,serif" font-weight="bold" font-size="14.00">PK,FK</text>
<polygon fill="none" stroke="black" points="755.5,-208.5 755.5,-237.5 1025.5,-237.5 1025.5,-208.5 755.5,-208.5"/>
<text text-anchor="start" x="762.5" y="-220.3" font-family="Times,serif" font-weight="bold" font-size="14.00">article_id:</text>
<text text-anchor="start" x="822.5" y="-220.3" font-family="Times,serif" font-size="14.00"> ChristianAdvocateAndJournal1847</text>
<polygon fill="none" stroke="black" points="698.5,-179.5 698.5,-208.5 755.5,-208.5 755.5,-179.5 698.5,-179.5"/>
<text text-anchor="start" x="705.5" y="-191.3" font-family="Times,serif" font-weight="bold" font-size="14.00">PK,FK</text>
<polygon fill="none" stroke="black" points="755.5,-179.5 755.5,-208.5 1025.5,-208.5 1025.5,-179.5 755.5,-179.5"/>
<text text-anchor="start" x="762.5" y="-191.3" font-family="Times,serif" font-weight="bold" font-size="14.00">trope_id:</text>
<polygon fill="none" stroke="black" points="698.5,-150.5 698.5,-179.5 1025.5,-179.5 1025.5,-150.5 698.5,-150.5"/>
<text text-anchor="start" x="829" y="-161.3" font-family="Times,serif" font-size="14.00">Lazy Indian</text>
<polygon fill="none" stroke="black" points="698.5,-121.5 698.5,-150.5 1025.5,-150.5 1025.5,-121.5 698.5,-121.5"/>
<text text-anchor="start" x="824" y="-132.3" font-family="Times,serif" font-size="14.00">Noble Savage</text>
<polygon fill="none" stroke="black" points="698.5,-92.5 698.5,-121.5 1025.5,-121.5 1025.5,-92.5 698.5,-92.5"/>
<text text-anchor="start" x="816" y="-103.3" font-family="Times,serif" font-size="14.00">Jump Overboard</text>
<polygon fill="none" stroke="black" points="698.5,-63.5 698.5,-92.5 1025.5,-92.5 1025.5,-63.5 698.5,-63.5"/>
<text text-anchor="start" x="825" y="-74.3" font-family="Times,serif" font-size="14.00">Indian Queen</text>
<polygon fill="none" stroke="black" points="698.5,-34.5 698.5,-63.5 1025.5,-63.5 1025.5,-34.5 698.5,-34.5"/>
<text text-anchor="start" x="830" y="-45.3" font-family="Times,serif" font-size="14.00">Girl Crusoe</text>
<polygon fill="none" stroke="black" points="698.5,-5.5 698.5,-34.5 1025.5,-34.5 1025.5,-5.5 698.5,-5.5"/>
<text text-anchor="start" x="831.5" y="-16.3" font-family="Times,serif" font-size="14.00">Wild Child</text>
<polygon fill="none" stroke="black" stroke-width="2" points="697,-5 697,-266 1026,-266 1026,-5 697,-5"/>
</g>
<!-- Article&#45;&gt;Article_Trope -->
<g id="edge6" class="edge">
<title>Article&#45;&gt;Article_Trope</title>
<path fill="none" stroke="black" stroke-width="1.5" d="M349.34,-585.19C426.45,-444.93 502,-307.5 502,-307.5 502,-307.5 589.91,-265.32 678.67,-222.74"/>
<polygon fill="black" stroke="black" stroke-width="1.5" points="678.8,-222.68 689.76,-222.41 683.31,-220.51 687.81,-218.35 687.81,-218.35 687.81,-218.35 683.31,-220.51 685.87,-214.29 678.8,-222.68 678.8,-222.68"/>
<text text-anchor="middle" x="462.87" y="-353.29" font-family="Times,serif" font-size="9.00">(1:N)</text>
</g>
<!-- Publication&#45;&gt;Location -->
<g id="edge3" class="edge">
<title>Publication&#45;&gt;Location</title>
<path fill="none" stroke="black" stroke-width="1.5" d="M1057.84,-1462.31C1152.1,-1450.64 1263.42,-1436.86 1350.84,-1426.03"/>
<polygon fill="black" stroke="black" stroke-width="1.5" points="1057.82,-1462.31 1047.34,-1459.08 1052.86,-1462.93 1047.89,-1463.54 1047.89,-1463.54 1047.89,-1463.54 1052.86,-1462.93 1048.45,-1468.01 1057.82,-1462.31 1057.82,-1462.31"/>
<text text-anchor="middle" x="1187.34" y="-1436.97" font-family="Times,serif" font-size="9.00">located at</text>
<text text-anchor="middle" x="1187.34" y="-1426.97" font-family="Times,serif" font-size="9.00">(N:1)</text>
</g>
<!-- Trope -->
<g id="node7" class="node">
<title>Trope</title>
<polygon fill="#ffcdd2" stroke="transparent" points="127,-237.5 127,-264.5 245,-264.5 245,-237.5 127,-237.5"/>
<polygon fill="none" stroke="black" points="127,-237.5 127,-264.5 245,-264.5 245,-237.5 127,-237.5"/>
<text text-anchor="start" x="172" y="-248.9" font-family="Times,serif" font-weight="bold" font-size="12.00">trope</text>
<polygon fill="none" stroke="black" points="127,-208.5 127,-237.5 161,-237.5 161,-208.5 127,-208.5"/>
<text text-anchor="start" x="134" y="-220.3" font-family="Times,serif" font-weight="bold" font-size="14.00">PK</text>
<polygon fill="none" stroke="black" points="161,-208.5 161,-237.5 245,-237.5 245,-208.5 161,-208.5"/>
<text text-anchor="start" x="168" y="-220.3" font-family="Times,serif" font-weight="bold" font-size="14.00">trope_id:</text>
<polygon fill="none" stroke="black" points="127,-179.5 127,-208.5 161,-208.5 161,-179.5 127,-179.5"/>
<polygon fill="none" stroke="black" points="161,-179.5 161,-208.5 245,-208.5 245,-179.5 161,-179.5"/>
<text text-anchor="start" x="168" y="-191.3" font-family="Times,serif" font-weight="bold" font-size="14.00">trope_label:</text>
<polygon fill="none" stroke="black" points="127,-150.5 127,-179.5 245,-179.5 245,-150.5 127,-150.5"/>
<text text-anchor="start" x="153" y="-161.3" font-family="Times,serif" font-size="14.00">Lazy Indian</text>
<polygon fill="none" stroke="black" points="127,-121.5 127,-150.5 245,-150.5 245,-121.5 127,-121.5"/>
<text text-anchor="start" x="148" y="-132.3" font-family="Times,serif" font-size="14.00">Noble Savage</text>
<polygon fill="none" stroke="black" points="127,-92.5 127,-121.5 245,-121.5 245,-92.5 127,-92.5"/>
<text text-anchor="start" x="140" y="-103.3" font-family="Times,serif" font-size="14.00">Jump Overboard</text>
<polygon fill="none" stroke="black" points="127,-63.5 127,-92.5 245,-92.5 245,-63.5 127,-63.5"/>
<text text-anchor="start" x="149" y="-74.3" font-family="Times,serif" font-size="14.00">Indian Queen</text>
<polygon fill="none" stroke="black" points="127,-34.5 127,-63.5 245,-63.5 245,-34.5 127,-34.5"/>
<text text-anchor="start" x="154" y="-45.3" font-family="Times,serif" font-size="14.00">Girl Crusoe</text>
<polygon fill="none" stroke="black" points="127,-5.5 127,-34.5 245,-34.5 245,-5.5 127,-5.5"/>
<text text-anchor="start" x="155.5" y="-16.3" font-family="Times,serif" font-size="14.00">Wild Child</text>
<polygon fill="none" stroke="black" stroke-width="2" points="126,-5 126,-266 246,-266 246,-5 126,-5"/>
</g>
<!-- Trope&#45;&gt;Article_Trope -->
<g id="edge7" class="edge">
<title>Trope&#45;&gt;Article_Trope</title>
<path fill="none" stroke="black" stroke-width="1.5" d="M255.29,-135.5C353.41,-135.5 537.82,-135.5 677.4,-135.5"/>
<polygon fill="black" stroke="black" stroke-width="1.5" points="677.8,-135.5 687.8,-140 682.8,-135.5 687.8,-135.5 687.8,-135.5 687.8,-135.5 682.8,-135.5 687.8,-131 677.8,-135.5 677.8,-135.5"/>
<text text-anchor="middle" x="456.34" y="-128.3" font-family="Times,serif" font-size="9.00">(1:N)</text>
</g>
</g>
</svg>
