<?xml version="1.0" encoding="UTF-8" standalone="no"?>
<!DOCTYPE svg PUBLIC "-//W3C//DTD SVG 1.1//EN"
 "http://www.w3.org/Graphics/SVG/1.1/DTD/svg11.dtd">
<!-- Generated by graphviz version 2.50.0 (0)
 -->
<!-- Title: ERD_EdgefieldAdvertiser1847 Pages: 1 -->
<svg width="1841pt" height="1581pt"
 viewBox="0.00 0.00 1841.00 1581.00" xmlns="http://www.w3.org/2000/svg" xmlns:xlink="http://www.w3.org/1999/xlink">
<g id="graph0" class="graph" transform="scale(1 1) rotate(0) translate(4 1577)">
<title>ERD_EdgefieldAdvertiser1847</title>
<polygon fill="white" stroke="transparent" points="-4,4 -4,-1577 1837,-1577 1837,4 -4,4"/>
<text text-anchor="middle" x="916.5" y="-1557.8" font-family="Arial Bold" font-size="14.00">Entity Relationships for EdgefieldAdvertiser1847</text>
<text text-anchor="middle" x="916.5" y="-1542.8" font-family="Arial Bold" font-size="14.00">(Reprint Type: direct)</text>
<!-- Article -->
<g id="node1" class="node">
<title>Article</title>
<polygon fill="#b4d7e5" stroke="transparent" points="10,-1142.5 10,-1169.5 628,-1169.5 628,-1142.5 10,-1142.5"/>
<polygon fill="none" stroke="black" points="10,-1142.5 10,-1169.5 628,-1169.5 628,-1142.5 10,-1142.5"/>
<text text-anchor="start" x="301.5" y="-1153.9" font-family="Times,serif" font-weight="bold" font-size="12.00">Article</text>
<polygon fill="none" stroke="black" points="10,-1113.5 10,-1142.5 44,-1142.5 44,-1113.5 10,-1113.5"/>
<text text-anchor="start" x="17" y="-1125.3" font-family="Times,serif" font-weight="bold" font-size="14.00">PK</text>
<polygon fill="none" stroke="black" points="44,-1113.5 44,-1142.5 628,-1142.5 628,-1113.5 44,-1113.5"/>
<text text-anchor="start" x="51" y="-1125.3" font-family="Times,serif" font-weight="bold" font-size="14.00">article_id:</text>
<text text-anchor="start" x="111" y="-1125.3" font-family="Times,serif" font-size="14.00"> EdgefieldAdvertiser1847</text>
<polygon fill="none" stroke="black" points="10,-1084.5 10,-1113.5 44,-1113.5 44,-1084.5 10,-1084.5"/>
<polygon fill="none" stroke="black" points="44,-1084.5 44,-1113.5 628,-1113.5 628,-1084.5 44,-1084.5"/>
<text text-anchor="start" x="51" y="-1096.3" font-family="Times,serif" font-weight="bold" font-size="14.00">title:</text>
<text text-anchor="start" x="79" y="-1096.3" font-family="Times,serif" font-size="14.00"> &quot;A Female Crusoe&quot;</text>
<polygon fill="none" stroke="black" points="10,-1055.5 10,-1084.5 44,-1084.5 44,-1055.5 10,-1055.5"/>
<polygon fill="none" stroke="black" points="44,-1055.5 44,-1084.5 628,-1084.5 628,-1055.5 44,-1055.5"/>
<text text-anchor="start" x="51" y="-1067.3" font-family="Times,serif" font-weight="bold" font-size="14.00">author:</text>
<text text-anchor="start" x="95" y="-1067.3" font-family="Times,serif" font-size="14.00"> </text>
<polygon fill="none" stroke="black" points="10,-1026.5 10,-1055.5 44,-1055.5 44,-1026.5 10,-1026.5"/>
<polygon fill="none" stroke="black" points="44,-1026.5 44,-1055.5 628,-1055.5 628,-1026.5 44,-1026.5"/>
<text text-anchor="start" x="51" y="-1038.3" font-family="Times,serif" font-weight="bold" font-size="14.00">date:</text>
<text text-anchor="start" x="81" y="-1038.3" font-family="Times,serif" font-size="14.00"> 1847&#45;02&#45;10</text>
<polygon fill="none" stroke="black" points="10,-997.5 10,-1026.5 44,-1026.5 44,-997.5 10,-997.5"/>
<polygon fill="none" stroke="black" points="44,-997.5 44,-1026.5 628,-1026.5 628,-997.5 44,-997.5"/>
<text text-anchor="start" x="51" y="-1009.3" font-family="Times,serif" font-weight="bold" font-size="14.00">monograph_publishers:</text>
<text text-anchor="start" x="190" y="-1009.3" font-family="Times,serif" font-size="14.00"> </text>
<polygon fill="none" stroke="black" points="10,-968.5 10,-997.5 44,-997.5 44,-968.5 10,-968.5"/>
<polygon fill="none" stroke="black" points="44,-968.5 44,-997.5 628,-997.5 628,-968.5 44,-968.5"/>
<text text-anchor="start" x="51" y="-980.3" font-family="Times,serif" font-weight="bold" font-size="14.00">volume_number:</text>
<text text-anchor="start" x="152" y="-980.3" font-family="Times,serif" font-size="14.00"> 12</text>
<polygon fill="none" stroke="black" points="10,-939.5 10,-968.5 44,-968.5 44,-939.5 10,-939.5"/>
<polygon fill="none" stroke="black" points="44,-939.5 44,-968.5 628,-968.5 628,-939.5 44,-939.5"/>
<text text-anchor="start" x="51" y="-951.3" font-family="Times,serif" font-weight="bold" font-size="14.00">issue_number:</text>
<text text-anchor="start" x="137" y="-951.3" font-family="Times,serif" font-size="14.00"> no. 3</text>
<polygon fill="none" stroke="black" points="10,-910.5 10,-939.5 44,-939.5 44,-910.5 10,-910.5"/>
<polygon fill="none" stroke="black" points="44,-910.5 44,-939.5 628,-939.5 628,-910.5 44,-910.5"/>
<text text-anchor="start" x="51" y="-922.3" font-family="Times,serif" font-weight="bold" font-size="14.00">pages:</text>
<text text-anchor="start" x="88" y="-922.3" font-family="Times,serif" font-size="14.00"> 1</text>
<polygon fill="none" stroke="black" points="10,-881.5 10,-910.5 44,-910.5 44,-881.5 10,-881.5"/>
<polygon fill="none" stroke="black" points="44,-881.5 44,-910.5 628,-910.5 628,-881.5 44,-881.5"/>
<text text-anchor="start" x="51" y="-893.3" font-family="Times,serif" font-weight="bold" font-size="14.00">archival_holding:</text>
<text text-anchor="start" x="154" y="-893.3" font-family="Times,serif" font-size="14.00"> </text>
<polygon fill="none" stroke="black" points="10,-852.5 10,-881.5 44,-881.5 44,-852.5 10,-852.5"/>
<polygon fill="none" stroke="black" points="44,-852.5 44,-881.5 628,-881.5 628,-852.5 44,-852.5"/>
<text text-anchor="start" x="51" y="-864.3" font-family="Times,serif" font-weight="bold" font-size="14.00">archival_location:</text>
<text text-anchor="start" x="156" y="-864.3" font-family="Times,serif" font-size="14.00"> </text>
<polygon fill="none" stroke="black" points="10,-823.5 10,-852.5 44,-852.5 44,-823.5 10,-823.5"/>
<polygon fill="none" stroke="black" points="44,-823.5 44,-852.5 628,-852.5 628,-823.5 44,-823.5"/>
<text text-anchor="start" x="51" y="-835.3" font-family="Times,serif" font-weight="bold" font-size="14.00">cost:</text>
<text text-anchor="start" x="79" y="-835.3" font-family="Times,serif" font-size="14.00"> </text>
<polygon fill="none" stroke="black" points="10,-794.5 10,-823.5 44,-823.5 44,-794.5 10,-794.5"/>
<polygon fill="none" stroke="black" points="44,-794.5 44,-823.5 628,-823.5 628,-794.5 44,-794.5"/>
<text text-anchor="start" x="51" y="-806.3" font-family="Times,serif" font-weight="bold" font-size="14.00">permission:</text>
<text text-anchor="start" x="120" y="-806.3" font-family="Times,serif" font-size="14.00"> Public domain</text>
<polygon fill="none" stroke="black" points="10,-765.5 10,-794.5 44,-794.5 44,-765.5 10,-765.5"/>
<polygon fill="none" stroke="black" points="44,-765.5 44,-794.5 628,-794.5 628,-765.5 44,-765.5"/>
<text text-anchor="start" x="51" y="-777.3" font-family="Times,serif" font-weight="bold" font-size="14.00">permission_acknowledgement:</text>
<text text-anchor="start" x="231" y="-777.3" font-family="Times,serif" font-size="14.00"> </text>
<polygon fill="none" stroke="black" points="10,-736.5 10,-765.5 44,-765.5 44,-736.5 10,-736.5"/>
<polygon fill="none" stroke="black" points="44,-736.5 44,-765.5 628,-765.5 628,-736.5 44,-736.5"/>
<text text-anchor="start" x="51" y="-748.3" font-family="Times,serif" font-weight="bold" font-size="14.00">permission_statements:</text>
<text text-anchor="start" x="189" y="-748.3" font-family="Times,serif" font-size="14.00"> </text>
<polygon fill="none" stroke="black" points="10,-707.5 10,-736.5 44,-736.5 44,-707.5 10,-707.5"/>
<polygon fill="none" stroke="black" points="44,-707.5 44,-736.5 628,-736.5 628,-707.5 44,-707.5"/>
<text text-anchor="start" x="51" y="-719.3" font-family="Times,serif" font-weight="bold" font-size="14.00">acquisitions:</text>
<text text-anchor="start" x="124" y="-719.3" font-family="Times,serif" font-size="14.00"> </text>
<polygon fill="none" stroke="black" points="10,-678.5 10,-707.5 44,-707.5 44,-678.5 10,-678.5"/>
<polygon fill="none" stroke="black" points="44,-678.5 44,-707.5 628,-707.5 628,-678.5 44,-678.5"/>
<text text-anchor="start" x="51" y="-690.3" font-family="Times,serif" font-weight="bold" font-size="14.00">document_intro:</text>
<text text-anchor="start" x="149" y="-690.3" font-family="Times,serif" font-size="14.00"> </text>
<polygon fill="none" stroke="black" points="10,-649.5 10,-678.5 44,-678.5 44,-649.5 10,-649.5"/>
<polygon fill="none" stroke="black" points="44,-649.5 44,-678.5 628,-678.5 628,-649.5 44,-649.5"/>
<text text-anchor="start" x="51" y="-661.3" font-family="Times,serif" font-weight="bold" font-size="14.00">transcripts:</text>
<text text-anchor="start" x="119" y="-661.3" font-family="Times,serif" font-size="14.00"> &lt;hi rend=&quot;bold&quot;&gt;MISCELLANEOUS&lt;/hi&gt; A Female Crusoe. Off the coast of Alta Cali...</text>
<polygon fill="none" stroke="black" points="10,-620.5 10,-649.5 44,-649.5 44,-620.5 10,-620.5"/>
<text text-anchor="start" x="17" y="-632.3" font-family="Times,serif" font-weight="bold" font-size="14.00">FK</text>
<polygon fill="none" stroke="black" points="44,-620.5 44,-649.5 628,-649.5 628,-620.5 44,-620.5"/>
<text text-anchor="start" x="51" y="-632.3" font-family="Times,serif" font-weight="bold" font-size="14.00">publisher_location:</text>
<text text-anchor="start" x="163" y="-632.3" font-family="Times,serif" font-size="14.00"> Edgefield, South Carolina</text>
<polygon fill="none" stroke="black" points="10,-591.5 10,-620.5 44,-620.5 44,-591.5 10,-591.5"/>
<text text-anchor="start" x="17" y="-603.3" font-family="Times,serif" font-weight="bold" font-size="14.00">FK</text>
<polygon fill="none" stroke="black" points="44,-591.5 44,-620.5 628,-620.5 628,-591.5 44,-591.5"/>
<text text-anchor="start" x="51" y="-603.3" font-family="Times,serif" font-weight="bold" font-size="14.00">publication:</text>
<text text-anchor="start" x="121" y="-603.3" font-family="Times,serif" font-size="14.00"> Edgefield (SC) Advertiser</text>
<polygon fill="none" stroke="black" stroke-width="2" points="9,-590.5 9,-1170.5 629,-1170.5 629,-590.5 9,-590.5"/>
</g>
<!-- Publication -->
<g id="node2" class="node">
<title>Publication</title>
<polygon fill="#f4d9b0" stroke="transparent" points="919.5,-1501.5 919.5,-1528.5 1225.5,-1528.5 1225.5,-1501.5 919.5,-1501.5"/>
<polygon fill="none" stroke="black" points="919.5,-1501.5 919.5,-1528.5 1225.5,-1528.5 1225.5,-1501.5 919.5,-1501.5"/>
<text text-anchor="start" x="1043.5" y="-1512.9" font-family="Times,serif" font-weight="bold" font-size="12.00">Publication</text>
<polygon fill="none" stroke="black" points="919.5,-1472.5 919.5,-1501.5 953.5,-1501.5 953.5,-1472.5 919.5,-1472.5"/>
<text text-anchor="start" x="926.5" y="-1484.3" font-family="Times,serif" font-weight="bold" font-size="14.00">PK</text>
<polygon fill="none" stroke="black" points="953.5,-1472.5 953.5,-1501.5 1225.5,-1501.5 1225.5,-1472.5 953.5,-1472.5"/>
<text text-anchor="start" x="960.5" y="-1484.3" font-family="Times,serif" font-weight="bold" font-size="14.00">publication:</text>
<text text-anchor="start" x="1030.5" y="-1484.3" font-family="Times,serif" font-size="14.00"> Edgefield (SC) Advertiser</text>
<polygon fill="none" stroke="black" points="919.5,-1443.5 919.5,-1472.5 953.5,-1472.5 953.5,-1443.5 919.5,-1443.5"/>
<text text-anchor="start" x="926.5" y="-1455.3" font-family="Times,serif" font-weight="bold" font-size="14.00">FK</text>
<polygon fill="none" stroke="black" points="953.5,-1443.5 953.5,-1472.5 1225.5,-1472.5 1225.5,-1443.5 953.5,-1443.5"/>
<text text-anchor="start" x="960.5" y="-1455.3" font-family="Times,serif" font-weight="bold" font-size="14.00">publisher_location:</text>
<text text-anchor="start" x="1072.5" y="-1455.3" font-family="Times,serif" font-size="14.00"> Edgefield, South Carolina</text>
<polygon fill="none" stroke="black" stroke-width="2" points="918.5,-1443 918.5,-1530 1226.5,-1530 1226.5,-1443 918.5,-1443"/>
</g>
<!-- Article&#45;&gt;Publication -->
<g id="edge1" class="edge">
<title>Article&#45;&gt;Publication</title>
<path fill="none" stroke="black" stroke-width="1.5" d="M589.72,-1183.33C684.57,-1289.83 768,-1383.5 768,-1383.5 768,-1383.5 849.61,-1411.2 928.19,-1437.87"/>
<polygon fill="black" stroke="black" stroke-width="1.5" points="589.52,-1183.11 586.23,-1172.65 586.2,-1179.38 582.87,-1175.64 582.87,-1175.64 582.87,-1175.64 586.2,-1179.38 579.51,-1178.64 589.52,-1183.11 589.52,-1183.11"/>
<text text-anchor="middle" x="713.12" y="-1339.38" font-family="Times,serif" font-size="9.00">published in</text>
<text text-anchor="middle" x="713.12" y="-1329.38" font-family="Times,serif" font-size="9.00">(N:1)</text>
</g>
<!-- Location -->
<g id="node3" class="node">
<title>Location</title>
<polygon fill="#c8e6c9" stroke="transparent" points="1517,-1408.5 1517,-1435.5 1823,-1435.5 1823,-1408.5 1517,-1408.5"/>
<polygon fill="none" stroke="black" points="1517,-1408.5 1517,-1435.5 1823,-1435.5 1823,-1408.5 1517,-1408.5"/>
<text text-anchor="start" x="1647" y="-1419.9" font-family="Times,serif" font-weight="bold" font-size="12.00">Location</text>
<polygon fill="none" stroke="black" points="1517,-1379.5 1517,-1408.5 1551,-1408.5 1551,-1379.5 1517,-1379.5"/>
<text text-anchor="start" x="1524" y="-1391.3" font-family="Times,serif" font-weight="bold" font-size="14.00">PK</text>
<polygon fill="none" stroke="black" points="1551,-1379.5 1551,-1408.5 1823,-1408.5 1823,-1379.5 1551,-1379.5"/>
<text text-anchor="start" x="1558" y="-1391.3" font-family="Times,serif" font-weight="bold" font-size="14.00">publisher_location:</text>
<text text-anchor="start" x="1670" y="-1391.3" font-family="Times,serif" font-size="14.00"> Edgefield, South Carolina</text>
<polygon fill="none" stroke="black" stroke-width="2" points="1516,-1378.5 1516,-1436.5 1824,-1436.5 1824,-1378.5 1516,-1378.5"/>
</g>
<!-- Article&#45;&gt;Location -->
<g id="edge2" class="edge">
<title>Article&#45;&gt;Location</title>
<path fill="none" stroke="black" stroke-width="1.5" d="M646.19,-1152.81C715.37,-1210.56 768,-1254.5 768,-1254.5 768,-1254.5 1247.48,-1335.92 1506.88,-1379.97"/>
<polygon fill="black" stroke="black" stroke-width="1.5" points="645.8,-1152.48 641,-1142.62 641.96,-1149.28 638.12,-1146.07 638.12,-1146.07 638.12,-1146.07 641.96,-1149.28 635.24,-1149.53 645.8,-1152.48 645.8,-1152.48"/>
<text text-anchor="middle" x="1037.72" y="-1296.75" font-family="Times,serif" font-size="9.00">published at</text>
<text text-anchor="middle" x="1037.72" y="-1286.75" font-family="Times,serif" font-size="9.00">(N:1)</text>
</g>
<!-- Images -->
<g id="node4" class="node">
<title>Images</title>
<polygon fill="#e1bee7" stroke="transparent" points="778.5,-1185.5 778.5,-1212.5 1367.5,-1212.5 1367.5,-1185.5 778.5,-1185.5"/>
<polygon fill="none" stroke="black" points="778.5,-1185.5 778.5,-1212.5 1367.5,-1212.5 1367.5,-1185.5 778.5,-1185.5"/>
<text text-anchor="start" x="1033.5" y="-1196.9" font-family="Times,serif" font-weight="bold" font-size="12.00">Images (9 total)</text>
<polygon fill="none" stroke="black" points="778.5,-1156.5 778.5,-1185.5 812.5,-1185.5 812.5,-1156.5 778.5,-1156.5"/>
<text text-anchor="start" x="785.5" y="-1168.3" font-family="Times,serif" font-weight="bold" font-size="14.00">PK</text>
<polygon fill="none" stroke="black" points="812.5,-1156.5 812.5,-1185.5 1367.5,-1185.5 1367.5,-1156.5 812.5,-1156.5"/>
<text text-anchor="start" x="819.5" y="-1168.3" font-family="Times,serif" font-weight="bold" font-size="14.00">object_id:</text>
<text text-anchor="start" x="877.5" y="-1168.3" font-family="Times,serif" font-size="14.00"> EdgefieldAdvertiser1847_Original</text>
<polygon fill="none" stroke="black" points="778.5,-1127.5 778.5,-1156.5 812.5,-1156.5 812.5,-1127.5 778.5,-1127.5"/>
<polygon fill="none" stroke="black" points="812.5,-1127.5 812.5,-1156.5 1367.5,-1156.5 1367.5,-1127.5 812.5,-1127.5"/>
<text text-anchor="start" x="819.5" y="-1139.3" font-family="Times,serif" font-weight="bold" font-size="14.00">image_file:</text>
<text text-anchor="start" x="884.5" y="-1139.3" font-family="Times,serif" font-size="14.00"> EdgefieldAdvertiser1847_DigSur_1.png</text>
<polygon fill="none" stroke="black" points="778.5,-1098.5 778.5,-1127.5 812.5,-1127.5 812.5,-1098.5 778.5,-1098.5"/>
<polygon fill="none" stroke="black" points="812.5,-1098.5 812.5,-1127.5 1367.5,-1127.5 1367.5,-1098.5 812.5,-1098.5"/>
<text text-anchor="start" x="819.5" y="-1110.3" font-family="Times,serif" font-weight="bold" font-size="14.00">image_parent_id:</text>
<text text-anchor="start" x="922.5" y="-1110.3" font-family="Times,serif" font-size="14.00"> </text>
<polygon fill="none" stroke="black" points="778.5,-1069.5 778.5,-1098.5 812.5,-1098.5 812.5,-1069.5 778.5,-1069.5"/>
<polygon fill="none" stroke="black" points="812.5,-1069.5 812.5,-1098.5 1367.5,-1098.5 1367.5,-1069.5 812.5,-1069.5"/>
<text text-anchor="start" x="819.5" y="-1081.3" font-family="Times,serif" font-weight="bold" font-size="14.00">image_object_location:</text>
<text text-anchor="start" x="954.5" y="-1081.3" font-family="Times,serif" font-size="14.00"> objects/EdgefieldAdvertiser1847/EdgefieldAdvertiser1847_DigSur_1.png</text>
<polygon fill="none" stroke="black" points="778.5,-1040.5 778.5,-1069.5 812.5,-1069.5 812.5,-1040.5 778.5,-1040.5"/>
<polygon fill="none" stroke="black" points="812.5,-1040.5 812.5,-1069.5 1367.5,-1069.5 1367.5,-1040.5 812.5,-1040.5"/>
<text text-anchor="start" x="819.5" y="-1052.3" font-family="Times,serif" font-weight="bold" font-size="14.00">image_display_template:</text>
<text text-anchor="start" x="965.5" y="-1052.3" font-family="Times,serif" font-size="14.00"> compound_object</text>
<polygon fill="none" stroke="black" points="778.5,-1011.5 778.5,-1040.5 812.5,-1040.5 812.5,-1011.5 778.5,-1011.5"/>
<polygon fill="none" stroke="black" points="812.5,-1011.5 812.5,-1040.5 1367.5,-1040.5 1367.5,-1011.5 812.5,-1011.5"/>
<text text-anchor="start" x="819.5" y="-1023.3" font-family="Times,serif" font-weight="bold" font-size="14.00">image_description:</text>
<text text-anchor="start" x="931.5" y="-1023.3" font-family="Times,serif" font-size="14.00"> </text>
<polygon fill="#f0f0f0" stroke="transparent" points="778.5,-982.5 778.5,-1011.5 1367.5,-1011.5 1367.5,-982.5 778.5,-982.5"/>
<polygon fill="none" stroke="black" points="778.5,-982.5 778.5,-1011.5 1367.5,-1011.5 1367.5,-982.5 778.5,-982.5"/>
<text text-anchor="start" x="1066" y="-993.3" font-family="Times,serif" font-size="14.00">&#45;&#45;&#45;</text>
<polygon fill="none" stroke="black" points="778.5,-953.5 778.5,-982.5 812.5,-982.5 812.5,-953.5 778.5,-953.5"/>
<text text-anchor="start" x="785.5" y="-965.3" font-family="Times,serif" font-weight="bold" font-size="14.00">PK</text>
<polygon fill="none" stroke="black" points="812.5,-953.5 812.5,-982.5 1367.5,-982.5 1367.5,-953.5 812.5,-953.5"/>
<text text-anchor="start" x="819.5" y="-965.3" font-family="Times,serif" font-weight="bold" font-size="14.00">object_id:</text>
<text text-anchor="start" x="877.5" y="-965.3" font-family="Times,serif" font-size="14.00"> EdgefieldAdvertiser1847_img1</text>
<polygon fill="none" stroke="black" points="778.5,-924.5 778.5,-953.5 812.5,-953.5 812.5,-924.5 778.5,-924.5"/>
<polygon fill="none" stroke="black" points="812.5,-924.5 812.5,-953.5 1367.5,-953.5 1367.5,-924.5 812.5,-924.5"/>
<text text-anchor="start" x="819.5" y="-936.3" font-family="Times,serif" font-weight="bold" font-size="14.00">image_file:</text>
<text text-anchor="start" x="884.5" y="-936.3" font-family="Times,serif" font-size="14.00"> EdgefieldAdvertiser1847_DigSur_1.png</text>
<polygon fill="none" stroke="black" points="778.5,-895.5 778.5,-924.5 812.5,-924.5 812.5,-895.5 778.5,-895.5"/>
<polygon fill="none" stroke="black" points="812.5,-895.5 812.5,-924.5 1367.5,-924.5 1367.5,-895.5 812.5,-895.5"/>
<text text-anchor="start" x="819.5" y="-907.3" font-family="Times,serif" font-weight="bold" font-size="14.00">image_parent_id:</text>
<text text-anchor="start" x="922.5" y="-907.3" font-family="Times,serif" font-size="14.00"> EdgefieldAdvertiser1847_Original</text>
<polygon fill="none" stroke="black" points="778.5,-866.5 778.5,-895.5 812.5,-895.5 812.5,-866.5 778.5,-866.5"/>
<polygon fill="none" stroke="black" points="812.5,-866.5 812.5,-895.5 1367.5,-895.5 1367.5,-866.5 812.5,-866.5"/>
<text text-anchor="start" x="819.5" y="-878.3" font-family="Times,serif" font-weight="bold" font-size="14.00">image_object_location:</text>
<text text-anchor="start" x="954.5" y="-878.3" font-family="Times,serif" font-size="14.00"> objects/EdgefieldAdvertiser1847/EdgefieldAdvertiser1847_DigSur_1.png</text>
<polygon fill="none" stroke="black" points="778.5,-837.5 778.5,-866.5 812.5,-866.5 812.5,-837.5 778.5,-837.5"/>
<polygon fill="none" stroke="black" points="812.5,-837.5 812.5,-866.5 1367.5,-866.5 1367.5,-837.5 812.5,-837.5"/>
<text text-anchor="start" x="819.5" y="-849.3" font-family="Times,serif" font-weight="bold" font-size="14.00">image_display_template:</text>
<text text-anchor="start" x="965.5" y="-849.3" font-family="Times,serif" font-size="14.00"> image</text>
<polygon fill="none" stroke="black" points="778.5,-808.5 778.5,-837.5 812.5,-837.5 812.5,-808.5 778.5,-808.5"/>
<polygon fill="none" stroke="black" points="812.5,-808.5 812.5,-837.5 1367.5,-837.5 1367.5,-808.5 812.5,-808.5"/>
<text text-anchor="start" x="819.5" y="-820.3" font-family="Times,serif" font-weight="bold" font-size="14.00">image_description:</text>
<text text-anchor="start" x="931.5" y="-820.3" font-family="Times,serif" font-size="14.00"> </text>
<polygon fill="#f0f0f0" stroke="transparent" points="778.5,-779.5 778.5,-808.5 1367.5,-808.5 1367.5,-779.5 778.5,-779.5"/>
<polygon fill="none" stroke="black" points="778.5,-779.5 778.5,-808.5 1367.5,-808.5 1367.5,-779.5 778.5,-779.5"/>
<text text-anchor="start" x="1066" y="-790.3" font-family="Times,serif" font-size="14.00">&#45;&#45;&#45;</text>
<polygon fill="none" stroke="black" points="778.5,-750.5 778.5,-779.5 812.5,-779.5 812.5,-750.5 778.5,-750.5"/>
<text text-anchor="start" x="785.5" y="-762.3" font-family="Times,serif" font-weight="bold" font-size="14.00">PK</text>
<polygon fill="none" stroke="black" points="812.5,-750.5 812.5,-779.5 1367.5,-779.5 1367.5,-750.5 812.5,-750.5"/>
<text text-anchor="start" x="819.5" y="-762.3" font-family="Times,serif" font-weight="bold" font-size="14.00">object_id:</text>
<text text-anchor="start" x="877.5" y="-762.3" font-family="Times,serif" font-size="14.00"> EdgefieldAdvertiser1847_img2</text>
<polygon fill="none" stroke="black" points="778.5,-721.5 778.5,-750.5 812.5,-750.5 812.5,-721.5 778.5,-721.5"/>
<polygon fill="none" stroke="black" points="812.5,-721.5 812.5,-750.5 1367.5,-750.5 1367.5,-721.5 812.5,-721.5"/>
<text text-anchor="start" x="819.5" y="-733.3" font-family="Times,serif" font-weight="bold" font-size="14.00">image_file:</text>
<text text-anchor="start" x="884.5" y="-733.3" font-family="Times,serif" font-size="14.00"> EdgefieldAdvertiser1847_DigSur_2.png</text>
<polygon fill="none" stroke="black" points="778.5,-692.5 778.5,-721.5 812.5,-721.5 812.5,-692.5 778.5,-692.5"/>
<polygon fill="none" stroke="black" points="812.5,-692.5 812.5,-721.5 1367.5,-721.5 1367.5,-692.5 812.5,-692.5"/>
<text text-anchor="start" x="819.5" y="-704.3" font-family="Times,serif" font-weight="bold" font-size="14.00">image_parent_id:</text>
<text text-anchor="start" x="922.5" y="-704.3" font-family="Times,serif" font-size="14.00"> EdgefieldAdvertiser1847_Original</text>
<polygon fill="none" stroke="black" points="778.5,-663.5 778.5,-692.5 812.5,-692.5 812.5,-663.5 778.5,-663.5"/>
<polygon fill="none" stroke="black" points="812.5,-663.5 812.5,-692.5 1367.5,-692.5 1367.5,-663.5 812.5,-663.5"/>
<text text-anchor="start" x="819.5" y="-675.3" font-family="Times,serif" font-weight="bold" font-size="14.00">image_object_location:</text>
<text text-anchor="start" x="954.5" y="-675.3" font-family="Times,serif" font-size="14.00"> objects/EdgefieldAdvertiser1847/EdgefieldAdvertiser1847_DigSur_2.png</text>
<polygon fill="none" stroke="black" points="778.5,-634.5 778.5,-663.5 812.5,-663.5 812.5,-634.5 778.5,-634.5"/>
<polygon fill="none" stroke="black" points="812.5,-634.5 812.5,-663.5 1367.5,-663.5 1367.5,-634.5 812.5,-634.5"/>
<text text-anchor="start" x="819.5" y="-646.3" font-family="Times,serif" font-weight="bold" font-size="14.00">image_display_template:</text>
<text text-anchor="start" x="965.5" y="-646.3" font-family="Times,serif" font-size="14.00"> image</text>
<polygon fill="none" stroke="black" points="778.5,-605.5 778.5,-634.5 812.5,-634.5 812.5,-605.5 778.5,-605.5"/>
<polygon fill="none" stroke="black" points="812.5,-605.5 812.5,-634.5 1367.5,-634.5 1367.5,-605.5 812.5,-605.5"/>
<text text-anchor="start" x="819.5" y="-617.3" font-family="Times,serif" font-weight="bold" font-size="14.00">image_description:</text>
<text text-anchor="start" x="931.5" y="-617.3" font-family="Times,serif" font-size="14.00"> </text>
<polygon fill="none" stroke="black" points="778.5,-576.5 778.5,-605.5 1367.5,-605.5 1367.5,-576.5 778.5,-576.5"/>
<text text-anchor="start" x="1013" y="-588.3" font-family="Times,serif" font-style="italic" font-size="14.00">... and 6 more images</text>
<polygon fill="none" stroke="black" points="778.5,-547.5 778.5,-576.5 812.5,-576.5 812.5,-547.5 778.5,-547.5"/>
<text text-anchor="start" x="785.5" y="-559.3" font-family="Times,serif" font-weight="bold" font-size="14.00">FK</text>
<polygon fill="none" stroke="black" points="812.5,-547.5 812.5,-576.5 1367.5,-576.5 1367.5,-547.5 812.5,-547.5"/>
<text text-anchor="start" x="819.5" y="-559.3" font-family="Times,serif" font-weight="bold" font-size="14.00">article_id:</text>
<text text-anchor="start" x="879.5" y="-559.3" font-family="Times,serif" font-size="14.00"> EdgefieldAdvertiser1847</text>
<polygon fill="none" stroke="black" stroke-width="2" points="777,-547 777,-1214 1368,-1214 1368,-547 777,-547"/>
</g>
<!-- Article&#45;&gt;Images -->
<g id="edge4" class="edge">
<title>Article&#45;&gt;Images</title>
<path fill="none" stroke="black" stroke-width="1.5" d="M638.16,-880.5C677.74,-880.5 718.19,-880.5 757.7,-880.5"/>
<polygon fill="black" stroke="black" stroke-width="1.5" points="757.73,-880.5 767.73,-885 762.73,-880.5 767.73,-880.5 767.73,-880.5 767.73,-880.5 762.73,-880.5 767.73,-876 757.73,-880.5 757.73,-880.5"/>
<text text-anchor="middle" x="687.93" y="-873.3" font-family="Times,serif" font-size="9.00">has</text>
<text text-anchor="middle" x="687.93" y="-863.3" font-family="Times,serif" font-size="9.00">(1:N)</text>
</g>
<!-- Reprints -->
<g id="node5" class="node">
<title>Reprints</title>
<polygon fill="#ffecb3" stroke="transparent" points="915.5,-436.5 915.5,-463.5 1230.5,-463.5 1230.5,-436.5 915.5,-436.5"/>
<polygon fill="none" stroke="black" points="915.5,-436.5 915.5,-463.5 1230.5,-463.5 1230.5,-436.5 915.5,-436.5"/>
<text text-anchor="start" x="999" y="-447.9" font-family="Times,serif" font-weight="bold" font-size="12.00">Reprints / Document Groups</text>
<polygon fill="none" stroke="black" points="915.5,-407.5 915.5,-436.5 949.5,-436.5 949.5,-407.5 915.5,-407.5"/>
<text text-anchor="start" x="922.5" y="-419.3" font-family="Times,serif" font-weight="bold" font-size="14.00">PK</text>
<polygon fill="none" stroke="black" points="949.5,-407.5 949.5,-436.5 1230.5,-436.5 1230.5,-407.5 949.5,-407.5"/>
<text text-anchor="start" x="956.5" y="-419.3" font-family="Times,serif" font-weight="bold" font-size="14.00">group_reprint_id:</text>
<text text-anchor="start" x="1062.5" y="-419.3" font-family="Times,serif" font-size="14.00"> TheBostonAtlas1847_reprint</text>
<polygon fill="none" stroke="black" points="915.5,-378.5 915.5,-407.5 949.5,-407.5 949.5,-378.5 915.5,-378.5"/>
<polygon fill="none" stroke="black" points="949.5,-378.5 949.5,-407.5 1230.5,-407.5 1230.5,-378.5 949.5,-378.5"/>
<text text-anchor="start" x="956.5" y="-390.3" font-family="Times,serif" font-weight="bold" font-size="14.00">reprint_type:</text>
<text text-anchor="start" x="1034.5" y="-390.3" font-family="Times,serif" font-size="14.00"> direct</text>
<polygon fill="none" stroke="black" points="915.5,-349.5 915.5,-378.5 949.5,-378.5 949.5,-349.5 915.5,-349.5"/>
<polygon fill="none" stroke="black" points="949.5,-349.5 949.5,-378.5 1230.5,-378.5 1230.5,-349.5 949.5,-349.5"/>
<text text-anchor="start" x="956.5" y="-361.3" font-family="Times,serif" font-weight="bold" font-size="14.00">reprint_order:</text>
<text text-anchor="start" x="1041.5" y="-361.3" font-family="Times,serif" font-size="14.00"> </text>
<polygon fill="none" stroke="black" stroke-width="2" points="914,-348.5 914,-464.5 1231,-464.5 1231,-348.5 914,-348.5"/>
</g>
<!-- Article&#45;&gt;Reprints -->
<g id="edge5" class="edge">
<title>Article&#45;&gt;Reprints</title>
<path fill="none" stroke="black" stroke-width="1.5" d="M646.19,-607.46C715.37,-549.55 768,-505.5 768,-505.5 768,-505.5 828.08,-485.9 894.77,-464.15"/>
<polygon fill="black" stroke="black" stroke-width="1.5" points="645.79,-607.8 635.23,-610.77 641.95,-611.01 638.12,-614.22 638.12,-614.22 638.12,-614.22 641.95,-611.01 641.01,-617.67 645.79,-607.8 645.79,-607.8"/>
<polygon fill="black" stroke="black" stroke-width="1.5" points="895.15,-464.02 906.05,-465.2 899.9,-462.47 904.66,-460.92 904.66,-460.92 904.66,-460.92 899.9,-462.47 903.26,-456.65 895.15,-464.02 895.15,-464.02"/>
<text text-anchor="middle" x="739.72" y="-506.49" font-family="Times,serif" font-size="9.00">belongs to</text>
<text text-anchor="middle" x="739.72" y="-496.49" font-family="Times,serif" font-size="9.00">(N:M)</text>
</g>
<!-- Article_Trope -->
<g id="node6" class="node">
<title>Article_Trope</title>
<polygon fill="#ffe0e0" stroke="transparent" points="936.5,-237.5 936.5,-264.5 1208.5,-264.5 1208.5,-237.5 936.5,-237.5"/>
<polygon fill="none" stroke="black" points="936.5,-237.5 936.5,-264.5 1208.5,-264.5 1208.5,-237.5 936.5,-237.5"/>
<text text-anchor="start" x="1040" y="-248.9" font-family="Times,serif" font-weight="bold" font-size="12.00">article_trope</text>
<polygon fill="none" stroke="black" points="936.5,-208.5 936.5,-237.5 993.5,-237.5 993.5,-208.5 936.5,-208.5"/>
<text text-anchor="start" x="943.5" y="-220.3" font-family="Times,serif" font-weight="bold" font-size="14.00">PK,FK</text>
<polygon fill="none" stroke="black" points="993.5,-208.5 993.5,-237.5 1208.5,-237.5 1208.5,-208.5 993.5,-208.5"/>
<text text-anchor="start" x="1000.5" y="-220.3" font-family="Times,serif" font-weight="bold" font-size="14.00">article_id:</text>
<text text-anchor="start" x="1060.5" y="-220.3" font-family="Times,serif" font-size="14.00"> EdgefieldAdvertiser1847</text>
<polygon fill="none" stroke="black" points="936.5,-179.5 936.5,-208.5 993.5,-208.5 993.5,-179.5 936.5,-179.5"/>
<text text-anchor="start" x="943.5" y="-191.3" font-family="Times,serif" font-weight="bold" font-size="14.00">PK,FK</text>
<polygon fill="none" stroke="black" points="993.5,-179.5 993.5,-208.5 1208.5,-208.5 1208.5,-179.5 993.5,-179.5"/>
<text text-anchor="start" x="1000.5" y="-191.3" font-family="Times,serif" font-weight="bold" font-size="14.00">trope_id:</text>
<polygon fill="none" stroke="black" points="936.5,-150.5 936.5,-179.5 1208.5,-179.5 1208.5,-150.5 936.5,-150.5"/>
<text text-anchor="start" x="1034.5" y="-161.3" font-family="Times,serif" font-size="14.00">Noble Savage</text>
<polygon fill="none" stroke="black" points="936.5,-121.5 936.5,-150.5 1208.5,-150.5 1208.5,-121.5 936.5,-121.5"/>
<text text-anchor="start" x="1039.5" y="-132.3" font-family="Times,serif" font-size="14.00">Lazy Indian</text>
<polygon fill="none" stroke="black" points="936.5,-92.5 936.5,-121.5 1208.5,-121.5 1208.5,-92.5 936.5,-92.5"/>
<text text-anchor="start" x="1026.5" y="-103.3" font-family="Times,serif" font-size="14.00">Jump Overboard</text>
<polygon fill="none" stroke="black" points="936.5,-63.5 936.5,-92.5 1208.5,-92.5 1208.5,-63.5 936.5,-63.5"/>
<text text-anchor="start" x="1035.5" y="-74.3" font-family="Times,serif" font-size="14.00">Indian Queen</text>
<polygon fill="none" stroke="black" points="936.5,-34.5 936.5,-63.5 1208.5,-63.5 1208.5,-34.5 936.5,-34.5"/>
<text text-anchor="start" x="1040.5" y="-45.3" font-family="Times,serif" font-size="14.00">Girl Crusoe</text>
<polygon fill="none" stroke="black" points="936.5,-5.5 936.5,-34.5 1208.5,-34.5 1208.5,-5.5 936.5,-5.5"/>
<text text-anchor="start" x="1042" y="-16.3" font-family="Times,serif" font-size="14.00">Wild Child</text>
<polygon fill="none" stroke="black" stroke-width="2" points="935.5,-5 935.5,-266 1209.5,-266 1209.5,-5 935.5,-5"/>
</g>
<!-- Article&#45;&gt;Article_Trope -->
<g id="edge6" class="edge">
<title>Article&#45;&gt;Article_Trope</title>
<path fill="none" stroke="black" stroke-width="1.5" d="M550.89,-585.19C660.55,-444.93 768,-307.5 768,-307.5 768,-307.5 842.23,-265.43 917.27,-222.91"/>
<polygon fill="black" stroke="black" stroke-width="1.5" points="917.72,-222.65 928.64,-221.64 922.07,-220.19 926.42,-217.72 926.42,-217.72 926.42,-217.72 922.07,-220.19 924.2,-213.81 917.72,-222.65 917.72,-222.65"/>
<text text-anchor="middle" x="702.28" y="-371.56" font-family="Times,serif" font-size="9.00">(1:N)</text>
</g>
<!-- Publication&#45;&gt;Location -->
<g id="edge3" class="edge">
<title>Publication&#45;&gt;Location</title>
<path fill="none" stroke="black" stroke-width="1.5" d="M1245.78,-1463.65C1328.02,-1452.74 1425.89,-1439.75 1506.78,-1429.02"/>
<polygon fill="black" stroke="black" stroke-width="1.5" points="1245.74,-1463.65 1235.24,-1460.5 1240.79,-1464.31 1235.83,-1464.97 1235.83,-1464.97 1235.83,-1464.97 1240.79,-1464.31 1236.42,-1469.43 1245.74,-1463.65 1245.74,-1463.65"/>
<text text-anchor="middle" x="1359.28" y="-1439.13" font-family="Times,serif" font-size="9.00">located at</text>
<text text-anchor="middle" x="1359.28" y="-1429.13" font-family="Times,serif" font-size="9.00">(N:1)</text>
</g>
<!-- Trope -->
<g id="node7" class="node">
<title>Trope</title>
<polygon fill="#ffcdd2" stroke="transparent" points="260,-237.5 260,-264.5 378,-264.5 378,-237.5 260,-237.5"/>
<polygon fill="none" stroke="black" points="260,-237.5 260,-264.5 378,-264.5 378,-237.5 260,-237.5"/>
<text text-anchor="start" x="305" y="-248.9" font-family="Times,serif" font-weight="bold" font-size="12.00">trope</text>
<polygon fill="none" stroke="black" points="260,-208.5 260,-237.5 294,-237.5 294,-208.5 260,-208.5"/>
<text text-anchor="start" x="267" y="-220.3" font-family="Times,serif" font-weight="bold" font-size="14.00">PK</text>
<polygon fill="none" stroke="black" points="294,-208.5 294,-237.5 378,-237.5 378,-208.5 294,-208.5"/>
<text text-anchor="start" x="301" y="-220.3" font-family="Times,serif" font-weight="bold" font-size="14.00">trope_id:</text>
<polygon fill="none" stroke="black" points="260,-179.5 260,-208.5 294,-208.5 294,-179.5 260,-179.5"/>
<polygon fill="none" stroke="black" points="294,-179.5 294,-208.5 378,-208.5 378,-179.5 294,-179.5"/>
<text text-anchor="start" x="301" y="-191.3" font-family="Times,serif" font-weight="bold" font-size="14.00">trope_label:</text>
<polygon fill="none" stroke="black" points="260,-150.5 260,-179.5 378,-179.5 378,-150.5 260,-150.5"/>
<text text-anchor="start" x="281" y="-161.3" font-family="Times,serif" font-size="14.00">Noble Savage</text>
<polygon fill="none" stroke="black" points="260,-121.5 260,-150.5 378,-150.5 378,-121.5 260,-121.5"/>
<text text-anchor="start" x="286" y="-132.3" font-family="Times,serif" font-size="14.00">Lazy Indian</text>
<polygon fill="none" stroke="black" points="260,-92.5 260,-121.5 378,-121.5 378,-92.5 260,-92.5"/>
<text text-anchor="start" x="273" y="-103.3" font-family="Times,serif" font-size="14.00">Jump Overboard</text>
<polygon fill="none" stroke="black" points="260,-63.5 260,-92.5 378,-92.5 378,-63.5 260,-63.5"/>
<text text-anchor="start" x="282" y="-74.3" font-family="Times,serif" font-size="14.00">Indian Queen</text>
<polygon fill="none" stroke="black" points="260,-34.5 260,-63.5 378,-63.5 378,-34.5 260,-34.5"/>
<text text-anchor="start" x="287" y="-45.3" font-family="Times,serif" font-size="14.00">Girl Crusoe</text>
<polygon fill="none" stroke="black" points="260,-5.5 260,-34.5 378,-34.5 378,-5.5 260,-5.5"/>
<text text-anchor="start" x="288.5" y="-16.3" font-family="Times,serif" font-size="14.00">Wild Child</text>
<polygon fill="none" stroke="black" stroke-width="2" points="259,-5 259,-266 379,-266 379,-5 259,-5"/>
</g>
<!-- Trope&#45;&gt;Article_Trope -->
<g id="edge7" class="edge">
<title>Trope&#45;&gt;Article_Trope</title>
<path fill="none" stroke="black" stroke-width="1.5" d="M388.02,-135.5C506.57,-135.5 753.89,-135.5 916.24,-135.5"/>
<polygon fill="black" stroke="black" stroke-width="1.5" points="916.32,-135.5 926.32,-140 921.32,-135.5 926.32,-135.5 926.32,-135.5 926.32,-135.5 921.32,-135.5 926.32,-131 916.32,-135.5 916.32,-135.5"/>
<text text-anchor="middle" x="642.13" y="-128.3" font-family="Times,serif" font-size="9.00">(1:N)</text>
</g>
</g>
</svg>
