<?xml version="1.0" encoding="UTF-8" standalone="no"?>
<!DOCTYPE svg PUBLIC "-//W3C//DTD SVG 1.1//EN"
 "http://www.w3.org/Graphics/SVG/1.1/DTD/svg11.dtd">
<!-- Generated by graphviz version 2.50.0 (0)
 -->
<!-- Title: ERD_LongIslander1848 Pages: 1 -->
<svg width="1430pt" height="1581pt"
 viewBox="0.00 0.00 1430.00 1581.00" xmlns="http://www.w3.org/2000/svg" xmlns:xlink="http://www.w3.org/1999/xlink">
<g id="graph0" class="graph" transform="scale(1 1) rotate(0) translate(4 1577)">
<title>ERD_LongIslander1848</title>
<polygon fill="white" stroke="transparent" points="-4,4 -4,-1577 1426,-1577 1426,4 -4,4"/>
<text text-anchor="middle" x="711" y="-1557.8" font-family="Arial Bold" font-size="14.00">Entity Relationships for LongIslander1848</text>
<text text-anchor="middle" x="711" y="-1542.8" font-family="Arial Bold" font-size="14.00">(Reprint Type: direct)</text>
<!-- Article -->
<g id="node1" class="node">
<title>Article</title>
<polygon fill="#b4d7e5" stroke="transparent" points="10,-1142.5 10,-1169.5 310,-1169.5 310,-1142.5 10,-1142.5"/>
<polygon fill="none" stroke="black" points="10,-1142.5 10,-1169.5 310,-1169.5 310,-1142.5 10,-1142.5"/>
<text text-anchor="start" x="142.5" y="-1153.9" font-family="Times,serif" font-weight="bold" font-size="12.00">Article</text>
<polygon fill="none" stroke="black" points="10,-1113.5 10,-1142.5 44,-1142.5 44,-1113.5 10,-1113.5"/>
<text text-anchor="start" x="17" y="-1125.3" font-family="Times,serif" font-weight="bold" font-size="14.00">PK</text>
<polygon fill="none" stroke="black" points="44,-1113.5 44,-1142.5 310,-1142.5 310,-1113.5 44,-1113.5"/>
<text text-anchor="start" x="51" y="-1125.3" font-family="Times,serif" font-weight="bold" font-size="14.00">article_id:</text>
<text text-anchor="start" x="111" y="-1125.3" font-family="Times,serif" font-size="14.00"> LongIslander1848</text>
<polygon fill="none" stroke="black" points="10,-1084.5 10,-1113.5 44,-1113.5 44,-1084.5 10,-1084.5"/>
<polygon fill="none" stroke="black" points="44,-1084.5 44,-1113.5 310,-1113.5 310,-1084.5 44,-1084.5"/>
<text text-anchor="start" x="51" y="-1096.3" font-family="Times,serif" font-weight="bold" font-size="14.00">title:</text>
<text text-anchor="start" x="79" y="-1096.3" font-family="Times,serif" font-size="14.00"> &quot;A Female Crusoe&quot;</text>
<polygon fill="none" stroke="black" points="10,-1055.5 10,-1084.5 44,-1084.5 44,-1055.5 10,-1055.5"/>
<polygon fill="none" stroke="black" points="44,-1055.5 44,-1084.5 310,-1084.5 310,-1055.5 44,-1055.5"/>
<text text-anchor="start" x="51" y="-1067.3" font-family="Times,serif" font-weight="bold" font-size="14.00">author:</text>
<text text-anchor="start" x="95" y="-1067.3" font-family="Times,serif" font-size="14.00"> </text>
<polygon fill="none" stroke="black" points="10,-1026.5 10,-1055.5 44,-1055.5 44,-1026.5 10,-1026.5"/>
<polygon fill="none" stroke="black" points="44,-1026.5 44,-1055.5 310,-1055.5 310,-1026.5 44,-1026.5"/>
<text text-anchor="start" x="51" y="-1038.3" font-family="Times,serif" font-weight="bold" font-size="14.00">date:</text>
<text text-anchor="start" x="81" y="-1038.3" font-family="Times,serif" font-size="14.00"> 1848&#45;01&#45;21</text>
<polygon fill="none" stroke="black" points="10,-997.5 10,-1026.5 44,-1026.5 44,-997.5 10,-997.5"/>
<polygon fill="none" stroke="black" points="44,-997.5 44,-1026.5 310,-1026.5 310,-997.5 44,-997.5"/>
<text text-anchor="start" x="51" y="-1009.3" font-family="Times,serif" font-weight="bold" font-size="14.00">monograph_publishers:</text>
<text text-anchor="start" x="190" y="-1009.3" font-family="Times,serif" font-size="14.00"> </text>
<polygon fill="none" stroke="black" points="10,-968.5 10,-997.5 44,-997.5 44,-968.5 10,-968.5"/>
<polygon fill="none" stroke="black" points="44,-968.5 44,-997.5 310,-997.5 310,-968.5 44,-968.5"/>
<text text-anchor="start" x="51" y="-980.3" font-family="Times,serif" font-weight="bold" font-size="14.00">volume_number:</text>
<text text-anchor="start" x="152" y="-980.3" font-family="Times,serif" font-size="14.00"> 9</text>
<polygon fill="none" stroke="black" points="10,-939.5 10,-968.5 44,-968.5 44,-939.5 10,-939.5"/>
<polygon fill="none" stroke="black" points="44,-939.5 44,-968.5 310,-968.5 310,-939.5 44,-939.5"/>
<text text-anchor="start" x="51" y="-951.3" font-family="Times,serif" font-weight="bold" font-size="14.00">issue_number:</text>
<text text-anchor="start" x="137" y="-951.3" font-family="Times,serif" font-size="14.00"> no. 24</text>
<polygon fill="none" stroke="black" points="10,-910.5 10,-939.5 44,-939.5 44,-910.5 10,-910.5"/>
<polygon fill="none" stroke="black" points="44,-910.5 44,-939.5 310,-939.5 310,-910.5 44,-910.5"/>
<text text-anchor="start" x="51" y="-922.3" font-family="Times,serif" font-weight="bold" font-size="14.00">pages:</text>
<text text-anchor="start" x="88" y="-922.3" font-family="Times,serif" font-size="14.00"> 1</text>
<polygon fill="none" stroke="black" points="10,-881.5 10,-910.5 44,-910.5 44,-881.5 10,-881.5"/>
<polygon fill="none" stroke="black" points="44,-881.5 44,-910.5 310,-910.5 310,-881.5 44,-881.5"/>
<text text-anchor="start" x="51" y="-893.3" font-family="Times,serif" font-weight="bold" font-size="14.00">archival_holding:</text>
<text text-anchor="start" x="154" y="-893.3" font-family="Times,serif" font-size="14.00"> </text>
<polygon fill="none" stroke="black" points="10,-852.5 10,-881.5 44,-881.5 44,-852.5 10,-852.5"/>
<polygon fill="none" stroke="black" points="44,-852.5 44,-881.5 310,-881.5 310,-852.5 44,-852.5"/>
<text text-anchor="start" x="51" y="-864.3" font-family="Times,serif" font-weight="bold" font-size="14.00">archival_location:</text>
<text text-anchor="start" x="156" y="-864.3" font-family="Times,serif" font-size="14.00"> </text>
<polygon fill="none" stroke="black" points="10,-823.5 10,-852.5 44,-852.5 44,-823.5 10,-823.5"/>
<polygon fill="none" stroke="black" points="44,-823.5 44,-852.5 310,-852.5 310,-823.5 44,-823.5"/>
<text text-anchor="start" x="51" y="-835.3" font-family="Times,serif" font-weight="bold" font-size="14.00">cost:</text>
<text text-anchor="start" x="79" y="-835.3" font-family="Times,serif" font-size="14.00"> </text>
<polygon fill="none" stroke="black" points="10,-794.5 10,-823.5 44,-823.5 44,-794.5 10,-794.5"/>
<polygon fill="none" stroke="black" points="44,-794.5 44,-823.5 310,-823.5 310,-794.5 44,-794.5"/>
<text text-anchor="start" x="51" y="-806.3" font-family="Times,serif" font-weight="bold" font-size="14.00">permission:</text>
<text text-anchor="start" x="120" y="-806.3" font-family="Times,serif" font-size="14.00"> Public domain</text>
<polygon fill="none" stroke="black" points="10,-765.5 10,-794.5 44,-794.5 44,-765.5 10,-765.5"/>
<polygon fill="none" stroke="black" points="44,-765.5 44,-794.5 310,-794.5 310,-765.5 44,-765.5"/>
<text text-anchor="start" x="51" y="-777.3" font-family="Times,serif" font-weight="bold" font-size="14.00">permission_acknowledgement:</text>
<text text-anchor="start" x="231" y="-777.3" font-family="Times,serif" font-size="14.00"> </text>
<polygon fill="none" stroke="black" points="10,-736.5 10,-765.5 44,-765.5 44,-736.5 10,-736.5"/>
<polygon fill="none" stroke="black" points="44,-736.5 44,-765.5 310,-765.5 310,-736.5 44,-736.5"/>
<text text-anchor="start" x="51" y="-748.3" font-family="Times,serif" font-weight="bold" font-size="14.00">permission_statements:</text>
<text text-anchor="start" x="189" y="-748.3" font-family="Times,serif" font-size="14.00"> </text>
<polygon fill="none" stroke="black" points="10,-707.5 10,-736.5 44,-736.5 44,-707.5 10,-707.5"/>
<polygon fill="none" stroke="black" points="44,-707.5 44,-736.5 310,-736.5 310,-707.5 44,-707.5"/>
<text text-anchor="start" x="51" y="-719.3" font-family="Times,serif" font-weight="bold" font-size="14.00">acquisitions:</text>
<text text-anchor="start" x="124" y="-719.3" font-family="Times,serif" font-size="14.00"> </text>
<polygon fill="none" stroke="black" points="10,-678.5 10,-707.5 44,-707.5 44,-678.5 10,-678.5"/>
<polygon fill="none" stroke="black" points="44,-678.5 44,-707.5 310,-707.5 310,-678.5 44,-678.5"/>
<text text-anchor="start" x="51" y="-690.3" font-family="Times,serif" font-weight="bold" font-size="14.00">document_intro:</text>
<text text-anchor="start" x="149" y="-690.3" font-family="Times,serif" font-size="14.00"> </text>
<polygon fill="none" stroke="black" points="10,-649.5 10,-678.5 44,-678.5 44,-649.5 10,-649.5"/>
<polygon fill="none" stroke="black" points="44,-649.5 44,-678.5 310,-678.5 310,-649.5 44,-649.5"/>
<text text-anchor="start" x="51" y="-661.3" font-family="Times,serif" font-weight="bold" font-size="14.00">transcripts:</text>
<text text-anchor="start" x="119" y="-661.3" font-family="Times,serif" font-size="14.00"> </text>
<polygon fill="none" stroke="black" points="10,-620.5 10,-649.5 44,-649.5 44,-620.5 10,-620.5"/>
<text text-anchor="start" x="17" y="-632.3" font-family="Times,serif" font-weight="bold" font-size="14.00">FK</text>
<polygon fill="none" stroke="black" points="44,-620.5 44,-649.5 310,-649.5 310,-620.5 44,-620.5"/>
<text text-anchor="start" x="51" y="-632.3" font-family="Times,serif" font-weight="bold" font-size="14.00">publisher_location:</text>
<text text-anchor="start" x="163" y="-632.3" font-family="Times,serif" font-size="14.00"> Huntington, New York</text>
<polygon fill="none" stroke="black" points="10,-591.5 10,-620.5 44,-620.5 44,-591.5 10,-591.5"/>
<text text-anchor="start" x="17" y="-603.3" font-family="Times,serif" font-weight="bold" font-size="14.00">FK</text>
<polygon fill="none" stroke="black" points="44,-591.5 44,-620.5 310,-620.5 310,-591.5 44,-591.5"/>
<text text-anchor="start" x="51" y="-603.3" font-family="Times,serif" font-weight="bold" font-size="14.00">publication:</text>
<text text-anchor="start" x="121" y="-603.3" font-family="Times,serif" font-size="14.00"> Long&#45;Islander (Huntington, NY)</text>
<polygon fill="none" stroke="black" stroke-width="2" points="9,-590.5 9,-1170.5 311,-1170.5 311,-590.5 9,-590.5"/>
</g>
<!-- Publication -->
<g id="node2" class="node">
<title>Publication</title>
<polygon fill="#f4d9b0" stroke="transparent" points="567,-1501.5 567,-1528.5 867,-1528.5 867,-1501.5 567,-1501.5"/>
<polygon fill="none" stroke="black" points="567,-1501.5 567,-1528.5 867,-1528.5 867,-1501.5 567,-1501.5"/>
<text text-anchor="start" x="688" y="-1512.9" font-family="Times,serif" font-weight="bold" font-size="12.00">Publication</text>
<polygon fill="none" stroke="black" points="567,-1472.5 567,-1501.5 601,-1501.5 601,-1472.5 567,-1472.5"/>
<text text-anchor="start" x="574" y="-1484.3" font-family="Times,serif" font-weight="bold" font-size="14.00">PK</text>
<polygon fill="none" stroke="black" points="601,-1472.5 601,-1501.5 867,-1501.5 867,-1472.5 601,-1472.5"/>
<text text-anchor="start" x="608" y="-1484.3" font-family="Times,serif" font-weight="bold" font-size="14.00">publication:</text>
<text text-anchor="start" x="678" y="-1484.3" font-family="Times,serif" font-size="14.00"> Long&#45;Islander (Huntington, NY)</text>
<polygon fill="none" stroke="black" points="567,-1443.5 567,-1472.5 601,-1472.5 601,-1443.5 567,-1443.5"/>
<text text-anchor="start" x="574" y="-1455.3" font-family="Times,serif" font-weight="bold" font-size="14.00">FK</text>
<polygon fill="none" stroke="black" points="601,-1443.5 601,-1472.5 867,-1472.5 867,-1443.5 601,-1443.5"/>
<text text-anchor="start" x="608" y="-1455.3" font-family="Times,serif" font-weight="bold" font-size="14.00">publisher_location:</text>
<text text-anchor="start" x="720" y="-1455.3" font-family="Times,serif" font-size="14.00"> Huntington, New York</text>
<polygon fill="none" stroke="black" stroke-width="2" points="566,-1443 566,-1530 868,-1530 868,-1443 566,-1443"/>
</g>
<!-- Article&#45;&gt;Publication -->
<g id="edge1" class="edge">
<title>Article&#45;&gt;Publication</title>
<path fill="none" stroke="black" stroke-width="1.5" d="M325.18,-1166.26C390.31,-1279.61 450,-1383.5 450,-1383.5 450,-1383.5 521.53,-1411.2 590.4,-1437.87"/>
<polygon fill="black" stroke="black" stroke-width="1.5" points="325.06,-1166.05 323.98,-1155.14 322.57,-1161.72 320.08,-1157.38 320.08,-1157.38 320.08,-1157.38 322.57,-1161.72 316.18,-1159.62 325.06,-1166.05 325.06,-1166.05"/>
<text text-anchor="middle" x="403.09" y="-1332.95" font-family="Times,serif" font-size="9.00">published in</text>
<text text-anchor="middle" x="403.09" y="-1322.95" font-family="Times,serif" font-size="9.00">(N:1)</text>
</g>
<!-- Location -->
<g id="node3" class="node">
<title>Location</title>
<polygon fill="#c8e6c9" stroke="transparent" points="1124,-1408.5 1124,-1435.5 1412,-1435.5 1412,-1408.5 1124,-1408.5"/>
<polygon fill="none" stroke="black" points="1124,-1408.5 1124,-1435.5 1412,-1435.5 1412,-1408.5 1124,-1408.5"/>
<text text-anchor="start" x="1245" y="-1419.9" font-family="Times,serif" font-weight="bold" font-size="12.00">Location</text>
<polygon fill="none" stroke="black" points="1124,-1379.5 1124,-1408.5 1158,-1408.5 1158,-1379.5 1124,-1379.5"/>
<text text-anchor="start" x="1131" y="-1391.3" font-family="Times,serif" font-weight="bold" font-size="14.00">PK</text>
<polygon fill="none" stroke="black" points="1158,-1379.5 1158,-1408.5 1412,-1408.5 1412,-1379.5 1158,-1379.5"/>
<text text-anchor="start" x="1165" y="-1391.3" font-family="Times,serif" font-weight="bold" font-size="14.00">publisher_location:</text>
<text text-anchor="start" x="1277" y="-1391.3" font-family="Times,serif" font-size="14.00"> Huntington, New York</text>
<polygon fill="none" stroke="black" stroke-width="2" points="1123,-1378.5 1123,-1436.5 1413,-1436.5 1413,-1378.5 1123,-1378.5"/>
</g>
<!-- Article&#45;&gt;Location -->
<g id="edge2" class="edge">
<title>Article&#45;&gt;Location</title>
<path fill="none" stroke="black" stroke-width="1.5" d="M326.36,-1094.49C391.02,-1178.18 450,-1254.5 450,-1254.5 450,-1254.5 877.24,-1334.51 1113.81,-1378.81"/>
<polygon fill="black" stroke="black" stroke-width="1.5" points="326.2,-1094.29 323.64,-1083.62 323.14,-1090.33 320.08,-1086.37 320.08,-1086.37 320.08,-1086.37 323.14,-1090.33 316.52,-1089.12 326.2,-1094.29 326.2,-1094.29"/>
<text text-anchor="middle" x="661.03" y="-1290.85" font-family="Times,serif" font-size="9.00">published at</text>
<text text-anchor="middle" x="661.03" y="-1280.85" font-family="Times,serif" font-size="9.00">(N:1)</text>
</g>
<!-- Images -->
<g id="node4" class="node">
<title>Images</title>
<polygon fill="#e1bee7" stroke="transparent" points="460,-1185.5 460,-1212.5 974,-1212.5 974,-1185.5 460,-1185.5"/>
<polygon fill="none" stroke="black" points="460,-1185.5 460,-1212.5 974,-1212.5 974,-1185.5 460,-1185.5"/>
<text text-anchor="start" x="677.5" y="-1196.9" font-family="Times,serif" font-weight="bold" font-size="12.00">Images (7 total)</text>
<polygon fill="none" stroke="black" points="460,-1156.5 460,-1185.5 494,-1185.5 494,-1156.5 460,-1156.5"/>
<text text-anchor="start" x="467" y="-1168.3" font-family="Times,serif" font-weight="bold" font-size="14.00">PK</text>
<polygon fill="none" stroke="black" points="494,-1156.5 494,-1185.5 974,-1185.5 974,-1156.5 494,-1156.5"/>
<text text-anchor="start" x="501" y="-1168.3" font-family="Times,serif" font-weight="bold" font-size="14.00">object_id:</text>
<text text-anchor="start" x="559" y="-1168.3" font-family="Times,serif" font-size="14.00"> LongIslander1848_Original</text>
<polygon fill="none" stroke="black" points="460,-1127.5 460,-1156.5 494,-1156.5 494,-1127.5 460,-1127.5"/>
<polygon fill="none" stroke="black" points="494,-1127.5 494,-1156.5 974,-1156.5 974,-1127.5 494,-1127.5"/>
<text text-anchor="start" x="501" y="-1139.3" font-family="Times,serif" font-weight="bold" font-size="14.00">image_file:</text>
<text text-anchor="start" x="566" y="-1139.3" font-family="Times,serif" font-size="14.00"> LongIslander1848_DigSur_1.png</text>
<polygon fill="none" stroke="black" points="460,-1098.5 460,-1127.5 494,-1127.5 494,-1098.5 460,-1098.5"/>
<polygon fill="none" stroke="black" points="494,-1098.5 494,-1127.5 974,-1127.5 974,-1098.5 494,-1098.5"/>
<text text-anchor="start" x="501" y="-1110.3" font-family="Times,serif" font-weight="bold" font-size="14.00">image_parent_id:</text>
<text text-anchor="start" x="604" y="-1110.3" font-family="Times,serif" font-size="14.00"> </text>
<polygon fill="none" stroke="black" points="460,-1069.5 460,-1098.5 494,-1098.5 494,-1069.5 460,-1069.5"/>
<polygon fill="none" stroke="black" points="494,-1069.5 494,-1098.5 974,-1098.5 974,-1069.5 494,-1069.5"/>
<text text-anchor="start" x="501" y="-1081.3" font-family="Times,serif" font-weight="bold" font-size="14.00">image_object_location:</text>
<text text-anchor="start" x="636" y="-1081.3" font-family="Times,serif" font-size="14.00"> objects/LongIslander1848/LongIslander1848_DigSur_1.png</text>
<polygon fill="none" stroke="black" points="460,-1040.5 460,-1069.5 494,-1069.5 494,-1040.5 460,-1040.5"/>
<polygon fill="none" stroke="black" points="494,-1040.5 494,-1069.5 974,-1069.5 974,-1040.5 494,-1040.5"/>
<text text-anchor="start" x="501" y="-1052.3" font-family="Times,serif" font-weight="bold" font-size="14.00">image_display_template:</text>
<text text-anchor="start" x="647" y="-1052.3" font-family="Times,serif" font-size="14.00"> compound_object</text>
<polygon fill="none" stroke="black" points="460,-1011.5 460,-1040.5 494,-1040.5 494,-1011.5 460,-1011.5"/>
<polygon fill="none" stroke="black" points="494,-1011.5 494,-1040.5 974,-1040.5 974,-1011.5 494,-1011.5"/>
<text text-anchor="start" x="501" y="-1023.3" font-family="Times,serif" font-weight="bold" font-size="14.00">image_description:</text>
<text text-anchor="start" x="613" y="-1023.3" font-family="Times,serif" font-size="14.00"> </text>
<polygon fill="#f0f0f0" stroke="transparent" points="460,-982.5 460,-1011.5 974,-1011.5 974,-982.5 460,-982.5"/>
<polygon fill="none" stroke="black" points="460,-982.5 460,-1011.5 974,-1011.5 974,-982.5 460,-982.5"/>
<text text-anchor="start" x="710" y="-993.3" font-family="Times,serif" font-size="14.00">&#45;&#45;&#45;</text>
<polygon fill="none" stroke="black" points="460,-953.5 460,-982.5 494,-982.5 494,-953.5 460,-953.5"/>
<text text-anchor="start" x="467" y="-965.3" font-family="Times,serif" font-weight="bold" font-size="14.00">PK</text>
<polygon fill="none" stroke="black" points="494,-953.5 494,-982.5 974,-982.5 974,-953.5 494,-953.5"/>
<text text-anchor="start" x="501" y="-965.3" font-family="Times,serif" font-weight="bold" font-size="14.00">object_id:</text>
<text text-anchor="start" x="559" y="-965.3" font-family="Times,serif" font-size="14.00"> LongIslander1848_img1</text>
<polygon fill="none" stroke="black" points="460,-924.5 460,-953.5 494,-953.5 494,-924.5 460,-924.5"/>
<polygon fill="none" stroke="black" points="494,-924.5 494,-953.5 974,-953.5 974,-924.5 494,-924.5"/>
<text text-anchor="start" x="501" y="-936.3" font-family="Times,serif" font-weight="bold" font-size="14.00">image_file:</text>
<text text-anchor="start" x="566" y="-936.3" font-family="Times,serif" font-size="14.00"> LongIslander1848_DigSur_1.png</text>
<polygon fill="none" stroke="black" points="460,-895.5 460,-924.5 494,-924.5 494,-895.5 460,-895.5"/>
<polygon fill="none" stroke="black" points="494,-895.5 494,-924.5 974,-924.5 974,-895.5 494,-895.5"/>
<text text-anchor="start" x="501" y="-907.3" font-family="Times,serif" font-weight="bold" font-size="14.00">image_parent_id:</text>
<text text-anchor="start" x="604" y="-907.3" font-family="Times,serif" font-size="14.00"> LongIslander1848_Original</text>
<polygon fill="none" stroke="black" points="460,-866.5 460,-895.5 494,-895.5 494,-866.5 460,-866.5"/>
<polygon fill="none" stroke="black" points="494,-866.5 494,-895.5 974,-895.5 974,-866.5 494,-866.5"/>
<text text-anchor="start" x="501" y="-878.3" font-family="Times,serif" font-weight="bold" font-size="14.00">image_object_location:</text>
<text text-anchor="start" x="636" y="-878.3" font-family="Times,serif" font-size="14.00"> objects/LongIslander1848/LongIslander1848_DigSur_1.png</text>
<polygon fill="none" stroke="black" points="460,-837.5 460,-866.5 494,-866.5 494,-837.5 460,-837.5"/>
<polygon fill="none" stroke="black" points="494,-837.5 494,-866.5 974,-866.5 974,-837.5 494,-837.5"/>
<text text-anchor="start" x="501" y="-849.3" font-family="Times,serif" font-weight="bold" font-size="14.00">image_display_template:</text>
<text text-anchor="start" x="647" y="-849.3" font-family="Times,serif" font-size="14.00"> image</text>
<polygon fill="none" stroke="black" points="460,-808.5 460,-837.5 494,-837.5 494,-808.5 460,-808.5"/>
<polygon fill="none" stroke="black" points="494,-808.5 494,-837.5 974,-837.5 974,-808.5 494,-808.5"/>
<text text-anchor="start" x="501" y="-820.3" font-family="Times,serif" font-weight="bold" font-size="14.00">image_description:</text>
<text text-anchor="start" x="613" y="-820.3" font-family="Times,serif" font-size="14.00"> </text>
<polygon fill="#f0f0f0" stroke="transparent" points="460,-779.5 460,-808.5 974,-808.5 974,-779.5 460,-779.5"/>
<polygon fill="none" stroke="black" points="460,-779.5 460,-808.5 974,-808.5 974,-779.5 460,-779.5"/>
<text text-anchor="start" x="710" y="-790.3" font-family="Times,serif" font-size="14.00">&#45;&#45;&#45;</text>
<polygon fill="none" stroke="black" points="460,-750.5 460,-779.5 494,-779.5 494,-750.5 460,-750.5"/>
<text text-anchor="start" x="467" y="-762.3" font-family="Times,serif" font-weight="bold" font-size="14.00">PK</text>
<polygon fill="none" stroke="black" points="494,-750.5 494,-779.5 974,-779.5 974,-750.5 494,-750.5"/>
<text text-anchor="start" x="501" y="-762.3" font-family="Times,serif" font-weight="bold" font-size="14.00">object_id:</text>
<text text-anchor="start" x="559" y="-762.3" font-family="Times,serif" font-size="14.00"> LongIslander1848_img2</text>
<polygon fill="none" stroke="black" points="460,-721.5 460,-750.5 494,-750.5 494,-721.5 460,-721.5"/>
<polygon fill="none" stroke="black" points="494,-721.5 494,-750.5 974,-750.5 974,-721.5 494,-721.5"/>
<text text-anchor="start" x="501" y="-733.3" font-family="Times,serif" font-weight="bold" font-size="14.00">image_file:</text>
<text text-anchor="start" x="566" y="-733.3" font-family="Times,serif" font-size="14.00"> LongIslander1848_DigSur_2.png</text>
<polygon fill="none" stroke="black" points="460,-692.5 460,-721.5 494,-721.5 494,-692.5 460,-692.5"/>
<polygon fill="none" stroke="black" points="494,-692.5 494,-721.5 974,-721.5 974,-692.5 494,-692.5"/>
<text text-anchor="start" x="501" y="-704.3" font-family="Times,serif" font-weight="bold" font-size="14.00">image_parent_id:</text>
<text text-anchor="start" x="604" y="-704.3" font-family="Times,serif" font-size="14.00"> LongIslander1848_Original</text>
<polygon fill="none" stroke="black" points="460,-663.5 460,-692.5 494,-692.5 494,-663.5 460,-663.5"/>
<polygon fill="none" stroke="black" points="494,-663.5 494,-692.5 974,-692.5 974,-663.5 494,-663.5"/>
<text text-anchor="start" x="501" y="-675.3" font-family="Times,serif" font-weight="bold" font-size="14.00">image_object_location:</text>
<text text-anchor="start" x="636" y="-675.3" font-family="Times,serif" font-size="14.00"> objects/LongIslander1848/LongIslander1848_DigSur_2.png</text>
<polygon fill="none" stroke="black" points="460,-634.5 460,-663.5 494,-663.5 494,-634.5 460,-634.5"/>
<polygon fill="none" stroke="black" points="494,-634.5 494,-663.5 974,-663.5 974,-634.5 494,-634.5"/>
<text text-anchor="start" x="501" y="-646.3" font-family="Times,serif" font-weight="bold" font-size="14.00">image_display_template:</text>
<text text-anchor="start" x="647" y="-646.3" font-family="Times,serif" font-size="14.00"> image</text>
<polygon fill="none" stroke="black" points="460,-605.5 460,-634.5 494,-634.5 494,-605.5 460,-605.5"/>
<polygon fill="none" stroke="black" points="494,-605.5 494,-634.5 974,-634.5 974,-605.5 494,-605.5"/>
<text text-anchor="start" x="501" y="-617.3" font-family="Times,serif" font-weight="bold" font-size="14.00">image_description:</text>
<text text-anchor="start" x="613" y="-617.3" font-family="Times,serif" font-size="14.00"> </text>
<polygon fill="none" stroke="black" points="460,-576.5 460,-605.5 974,-605.5 974,-576.5 460,-576.5"/>
<text text-anchor="start" x="657" y="-588.3" font-family="Times,serif" font-style="italic" font-size="14.00">... and 4 more images</text>
<polygon fill="none" stroke="black" points="460,-547.5 460,-576.5 494,-576.5 494,-547.5 460,-547.5"/>
<text text-anchor="start" x="467" y="-559.3" font-family="Times,serif" font-weight="bold" font-size="14.00">FK</text>
<polygon fill="none" stroke="black" points="494,-547.5 494,-576.5 974,-576.5 974,-547.5 494,-547.5"/>
<text text-anchor="start" x="501" y="-559.3" font-family="Times,serif" font-weight="bold" font-size="14.00">article_id:</text>
<text text-anchor="start" x="561" y="-559.3" font-family="Times,serif" font-size="14.00"> LongIslander1848</text>
<polygon fill="none" stroke="black" stroke-width="2" points="459,-547 459,-1214 975,-1214 975,-547 459,-547"/>
</g>
<!-- Article&#45;&gt;Images -->
<g id="edge4" class="edge">
<title>Article&#45;&gt;Images</title>
<path fill="none" stroke="black" stroke-width="1.5" d="M320.04,-880.5C357.55,-880.5 398.61,-880.5 439.64,-880.5"/>
<polygon fill="black" stroke="black" stroke-width="1.5" points="439.78,-880.5 449.78,-885 444.78,-880.5 449.78,-880.5 449.78,-880.5 449.78,-880.5 444.78,-880.5 449.78,-876 439.78,-880.5 439.78,-880.5"/>
<text text-anchor="middle" x="369.84" y="-873.3" font-family="Times,serif" font-size="9.00">has</text>
<text text-anchor="middle" x="369.84" y="-863.3" font-family="Times,serif" font-size="9.00">(1:N)</text>
</g>
<!-- Reprints -->
<g id="node5" class="node">
<title>Reprints</title>
<polygon fill="#ffecb3" stroke="transparent" points="560,-436.5 560,-463.5 875,-463.5 875,-436.5 560,-436.5"/>
<polygon fill="none" stroke="black" points="560,-436.5 560,-463.5 875,-463.5 875,-436.5 560,-436.5"/>
<text text-anchor="start" x="643.5" y="-447.9" font-family="Times,serif" font-weight="bold" font-size="12.00">Reprints / Document Groups</text>
<polygon fill="none" stroke="black" points="560,-407.5 560,-436.5 594,-436.5 594,-407.5 560,-407.5"/>
<text text-anchor="start" x="567" y="-419.3" font-family="Times,serif" font-weight="bold" font-size="14.00">PK</text>
<polygon fill="none" stroke="black" points="594,-407.5 594,-436.5 875,-436.5 875,-407.5 594,-407.5"/>
<text text-anchor="start" x="601" y="-419.3" font-family="Times,serif" font-weight="bold" font-size="14.00">group_reprint_id:</text>
<text text-anchor="start" x="707" y="-419.3" font-family="Times,serif" font-size="14.00"> TheBostonAtlas1847_reprint</text>
<polygon fill="none" stroke="black" points="560,-378.5 560,-407.5 594,-407.5 594,-378.5 560,-378.5"/>
<polygon fill="none" stroke="black" points="594,-378.5 594,-407.5 875,-407.5 875,-378.5 594,-378.5"/>
<text text-anchor="start" x="601" y="-390.3" font-family="Times,serif" font-weight="bold" font-size="14.00">reprint_type:</text>
<text text-anchor="start" x="679" y="-390.3" font-family="Times,serif" font-size="14.00"> direct</text>
<polygon fill="none" stroke="black" points="560,-349.5 560,-378.5 594,-378.5 594,-349.5 560,-349.5"/>
<polygon fill="none" stroke="black" points="594,-349.5 594,-378.5 875,-378.5 875,-349.5 594,-349.5"/>
<text text-anchor="start" x="601" y="-361.3" font-family="Times,serif" font-weight="bold" font-size="14.00">reprint_order:</text>
<text text-anchor="start" x="686" y="-361.3" font-family="Times,serif" font-size="14.00"> </text>
<polygon fill="none" stroke="black" stroke-width="2" points="558.5,-348.5 558.5,-464.5 875.5,-464.5 875.5,-348.5 558.5,-348.5"/>
</g>
<!-- Article&#45;&gt;Reprints -->
<g id="edge5" class="edge">
<title>Article&#45;&gt;Reprints</title>
<path fill="none" stroke="black" stroke-width="1.5" d="M326.36,-665.94C391.02,-582.02 450,-505.5 450,-505.5 450,-505.5 490.44,-490.45 539.78,-472.08"/>
<polygon fill="black" stroke="black" stroke-width="1.5" points="326.19,-666.16 316.52,-671.33 323.14,-670.12 320.08,-674.08 320.08,-674.08 320.08,-674.08 323.14,-670.12 323.65,-676.82 326.19,-666.16 326.19,-666.16"/>
<polygon fill="black" stroke="black" stroke-width="1.5" points="540.05,-471.98 551,-472.71 544.74,-470.24 549.43,-468.5 549.43,-468.5 549.43,-468.5 544.74,-470.24 547.86,-464.28 540.05,-471.98 540.05,-471.98"/>
<text text-anchor="middle" x="398.92" y="-540.58" font-family="Times,serif" font-size="9.00">belongs to</text>
<text text-anchor="middle" x="398.92" y="-530.58" font-family="Times,serif" font-size="9.00">(N:M)</text>
</g>
<!-- Article_Trope -->
<g id="node6" class="node">
<title>Article_Trope</title>
<polygon fill="#ffe0e0" stroke="transparent" points="600,-237.5 600,-264.5 834,-264.5 834,-237.5 600,-237.5"/>
<polygon fill="none" stroke="black" points="600,-237.5 600,-264.5 834,-264.5 834,-237.5 600,-237.5"/>
<text text-anchor="start" x="684.5" y="-248.9" font-family="Times,serif" font-weight="bold" font-size="12.00">article_trope</text>
<polygon fill="none" stroke="black" points="600,-208.5 600,-237.5 657,-237.5 657,-208.5 600,-208.5"/>
<text text-anchor="start" x="607" y="-220.3" font-family="Times,serif" font-weight="bold" font-size="14.00">PK,FK</text>
<polygon fill="none" stroke="black" points="657,-208.5 657,-237.5 834,-237.5 834,-208.5 657,-208.5"/>
<text text-anchor="start" x="664" y="-220.3" font-family="Times,serif" font-weight="bold" font-size="14.00">article_id:</text>
<text text-anchor="start" x="724" y="-220.3" font-family="Times,serif" font-size="14.00"> LongIslander1848</text>
<polygon fill="none" stroke="black" points="600,-179.5 600,-208.5 657,-208.5 657,-179.5 600,-179.5"/>
<text text-anchor="start" x="607" y="-191.3" font-family="Times,serif" font-weight="bold" font-size="14.00">PK,FK</text>
<polygon fill="none" stroke="black" points="657,-179.5 657,-208.5 834,-208.5 834,-179.5 657,-179.5"/>
<text text-anchor="start" x="664" y="-191.3" font-family="Times,serif" font-weight="bold" font-size="14.00">trope_id:</text>
<polygon fill="none" stroke="black" points="600,-150.5 600,-179.5 834,-179.5 834,-150.5 600,-150.5"/>
<text text-anchor="start" x="684" y="-161.3" font-family="Times,serif" font-size="14.00">Lazy Indian</text>
<polygon fill="none" stroke="black" points="600,-121.5 600,-150.5 834,-150.5 834,-121.5 600,-121.5"/>
<text text-anchor="start" x="679" y="-132.3" font-family="Times,serif" font-size="14.00">Noble Savage</text>
<polygon fill="none" stroke="black" points="600,-92.5 600,-121.5 834,-121.5 834,-92.5 600,-92.5"/>
<text text-anchor="start" x="671" y="-103.3" font-family="Times,serif" font-size="14.00">Jump Overboard</text>
<polygon fill="none" stroke="black" points="600,-63.5 600,-92.5 834,-92.5 834,-63.5 600,-63.5"/>
<text text-anchor="start" x="680" y="-74.3" font-family="Times,serif" font-size="14.00">Indian Queen</text>
<polygon fill="none" stroke="black" points="600,-34.5 600,-63.5 834,-63.5 834,-34.5 600,-34.5"/>
<text text-anchor="start" x="685" y="-45.3" font-family="Times,serif" font-size="14.00">Girl Crusoe</text>
<polygon fill="none" stroke="black" points="600,-5.5 600,-34.5 834,-34.5 834,-5.5 600,-5.5"/>
<text text-anchor="start" x="686.5" y="-16.3" font-family="Times,serif" font-size="14.00">Wild Child</text>
<polygon fill="none" stroke="black" stroke-width="2" points="599,-5 599,-266 835,-266 835,-5 599,-5"/>
</g>
<!-- Article&#45;&gt;Article_Trope -->
<g id="edge6" class="edge">
<title>Article&#45;&gt;Article_Trope</title>
<path fill="none" stroke="black" stroke-width="1.5" d="M309.94,-585.19C380.68,-444.93 450,-307.5 450,-307.5 450,-307.5 515.29,-265.29 581.17,-222.68"/>
<polygon fill="black" stroke="black" stroke-width="1.5" points="581.22,-222.65 592.07,-221 585.42,-219.93 589.62,-217.22 589.62,-217.22 589.62,-217.22 585.42,-219.93 587.18,-213.44 581.22,-222.65 581.22,-222.65"/>
<text text-anchor="middle" x="405.14" y="-369.41" font-family="Times,serif" font-size="9.00">(1:N)</text>
</g>
<!-- Publication&#45;&gt;Location -->
<g id="edge3" class="edge">
<title>Publication&#45;&gt;Location</title>
<path fill="none" stroke="black" stroke-width="1.5" d="M887.29,-1462.14C959.65,-1451.73 1043.49,-1439.66 1113.96,-1429.52"/>
<polygon fill="black" stroke="black" stroke-width="1.5" points="887.06,-1462.17 876.52,-1459.14 882.11,-1462.88 877.16,-1463.6 877.16,-1463.6 877.16,-1463.6 882.11,-1462.88 877.8,-1468.05 887.06,-1462.17 887.06,-1462.17"/>
<text text-anchor="middle" x="983.63" y="-1438.63" font-family="Times,serif" font-size="9.00">located at</text>
<text text-anchor="middle" x="983.63" y="-1428.63" font-family="Times,serif" font-size="9.00">(N:1)</text>
</g>
<!-- Trope -->
<g id="node7" class="node">
<title>Trope</title>
<polygon fill="#ffcdd2" stroke="transparent" points="101,-237.5 101,-264.5 219,-264.5 219,-237.5 101,-237.5"/>
<polygon fill="none" stroke="black" points="101,-237.5 101,-264.5 219,-264.5 219,-237.5 101,-237.5"/>
<text text-anchor="start" x="146" y="-248.9" font-family="Times,serif" font-weight="bold" font-size="12.00">trope</text>
<polygon fill="none" stroke="black" points="101,-208.5 101,-237.5 135,-237.5 135,-208.5 101,-208.5"/>
<text text-anchor="start" x="108" y="-220.3" font-family="Times,serif" font-weight="bold" font-size="14.00">PK</text>
<polygon fill="none" stroke="black" points="135,-208.5 135,-237.5 219,-237.5 219,-208.5 135,-208.5"/>
<text text-anchor="start" x="142" y="-220.3" font-family="Times,serif" font-weight="bold" font-size="14.00">trope_id:</text>
<polygon fill="none" stroke="black" points="101,-179.5 101,-208.5 135,-208.5 135,-179.5 101,-179.5"/>
<polygon fill="none" stroke="black" points="135,-179.5 135,-208.5 219,-208.5 219,-179.5 135,-179.5"/>
<text text-anchor="start" x="142" y="-191.3" font-family="Times,serif" font-weight="bold" font-size="14.00">trope_label:</text>
<polygon fill="none" stroke="black" points="101,-150.5 101,-179.5 219,-179.5 219,-150.5 101,-150.5"/>
<text text-anchor="start" x="127" y="-161.3" font-family="Times,serif" font-size="14.00">Lazy Indian</text>
<polygon fill="none" stroke="black" points="101,-121.5 101,-150.5 219,-150.5 219,-121.5 101,-121.5"/>
<text text-anchor="start" x="122" y="-132.3" font-family="Times,serif" font-size="14.00">Noble Savage</text>
<polygon fill="none" stroke="black" points="101,-92.5 101,-121.5 219,-121.5 219,-92.5 101,-92.5"/>
<text text-anchor="start" x="114" y="-103.3" font-family="Times,serif" font-size="14.00">Jump Overboard</text>
<polygon fill="none" stroke="black" points="101,-63.5 101,-92.5 219,-92.5 219,-63.5 101,-63.5"/>
<text text-anchor="start" x="123" y="-74.3" font-family="Times,serif" font-size="14.00">Indian Queen</text>
<polygon fill="none" stroke="black" points="101,-34.5 101,-63.5 219,-63.5 219,-34.5 101,-34.5"/>
<text text-anchor="start" x="128" y="-45.3" font-family="Times,serif" font-size="14.00">Girl Crusoe</text>
<polygon fill="none" stroke="black" points="101,-5.5 101,-34.5 219,-34.5 219,-5.5 101,-5.5"/>
<text text-anchor="start" x="129.5" y="-16.3" font-family="Times,serif" font-size="14.00">Wild Child</text>
<polygon fill="none" stroke="black" stroke-width="2" points="100,-5 100,-266 220,-266 220,-5 100,-5"/>
</g>
<!-- Trope&#45;&gt;Article_Trope -->
<g id="edge7" class="edge">
<title>Trope&#45;&gt;Article_Trope</title>
<path fill="none" stroke="black" stroke-width="1.5" d="M229.05,-135.5C315.93,-135.5 468.28,-135.5 579.49,-135.5"/>
<polygon fill="black" stroke="black" stroke-width="1.5" points="579.78,-135.5 589.78,-140 584.78,-135.5 589.78,-135.5 589.78,-135.5 589.78,-135.5 584.78,-135.5 589.78,-131 579.78,-135.5 579.78,-135.5"/>
<text text-anchor="middle" x="394.27" y="-128.3" font-family="Times,serif" font-size="9.00">(1:N)</text>
</g>
</g>
</svg>
