<?xml version="1.0" encoding="UTF-8" standalone="no"?>
<!DOCTYPE svg PUBLIC "-//W3C//DTD SVG 1.1//EN"
 "http://www.w3.org/Graphics/SVG/1.1/DTD/svg11.dtd">
<!-- Generated by graphviz version 2.50.0 (0)
 -->
<!-- Title: ERD_LongIslander1848 Pages: 1 -->
<svg width="1445pt" height="1581pt"
 viewBox="0.00 0.00 1445.00 1581.00" xmlns="http://www.w3.org/2000/svg" xmlns:xlink="http://www.w3.org/1999/xlink">
<g id="graph0" class="graph" transform="scale(1 1) rotate(0) translate(4 1577)">
<title>ERD_LongIslander1848</title>
<polygon fill="white" stroke="transparent" points="-4,4 -4,-1577 1441,-1577 1441,4 -4,4"/>
<text text-anchor="middle" x="718.5" y="-1557.8" font-family="Arial Bold" font-size="14.00">Entity Relationships for LongIslander1848</text>
<text text-anchor="middle" x="718.5" y="-1542.8" font-family="Arial Bold" font-size="14.00">(Reprint Type: direct)</text>
<!-- Article -->
<g id="node1" class="node">
<title>Article</title>
<polygon fill="#b4d7e5" stroke="transparent" points="10.5,-1156.5 10.5,-1183.5 325.5,-1183.5 325.5,-1156.5 10.5,-1156.5"/>
<polygon fill="none" stroke="black" points="10.5,-1156.5 10.5,-1183.5 325.5,-1183.5 325.5,-1156.5 10.5,-1156.5"/>
<text text-anchor="start" x="150.5" y="-1167.9" font-family="Times,serif" font-weight="bold" font-size="12.00">Article</text>
<polygon fill="none" stroke="black" points="10.5,-1127.5 10.5,-1156.5 44.5,-1156.5 44.5,-1127.5 10.5,-1127.5"/>
<text text-anchor="start" x="17.5" y="-1139.3" font-family="Times,serif" font-weight="bold" font-size="14.00">PK</text>
<polygon fill="none" stroke="black" points="44.5,-1127.5 44.5,-1156.5 325.5,-1156.5 325.5,-1127.5 44.5,-1127.5"/>
<text text-anchor="start" x="51.5" y="-1139.3" font-family="Times,serif" font-weight="bold" font-size="14.00">article_id:</text>
<text text-anchor="start" x="111.5" y="-1139.3" font-family="Times,serif" font-size="14.00"> LongIslander1848</text>
<polygon fill="none" stroke="black" points="10.5,-1098.5 10.5,-1127.5 44.5,-1127.5 44.5,-1098.5 10.5,-1098.5"/>
<polygon fill="none" stroke="black" points="44.5,-1098.5 44.5,-1127.5 325.5,-1127.5 325.5,-1098.5 44.5,-1098.5"/>
<text text-anchor="start" x="51.5" y="-1110.3" font-family="Times,serif" font-weight="bold" font-size="14.00">title:</text>
<text text-anchor="start" x="79.5" y="-1110.3" font-family="Times,serif" font-size="14.00"> &quot;A Female Crusoe&quot;</text>
<polygon fill="none" stroke="black" points="10.5,-1069.5 10.5,-1098.5 44.5,-1098.5 44.5,-1069.5 10.5,-1069.5"/>
<polygon fill="none" stroke="black" points="44.5,-1069.5 44.5,-1098.5 325.5,-1098.5 325.5,-1069.5 44.5,-1069.5"/>
<text text-anchor="start" x="51.5" y="-1081.3" font-family="Times,serif" font-weight="bold" font-size="14.00">author:</text>
<text text-anchor="start" x="95.5" y="-1081.3" font-family="Times,serif" font-size="14.00"> </text>
<polygon fill="none" stroke="black" points="10.5,-1040.5 10.5,-1069.5 44.5,-1069.5 44.5,-1040.5 10.5,-1040.5"/>
<polygon fill="none" stroke="black" points="44.5,-1040.5 44.5,-1069.5 325.5,-1069.5 325.5,-1040.5 44.5,-1040.5"/>
<text text-anchor="start" x="51.5" y="-1052.3" font-family="Times,serif" font-weight="bold" font-size="14.00">date:</text>
<text text-anchor="start" x="81.5" y="-1052.3" font-family="Times,serif" font-size="14.00"> 1848&#45;01&#45;21</text>
<polygon fill="none" stroke="black" points="10.5,-1011.5 10.5,-1040.5 44.5,-1040.5 44.5,-1011.5 10.5,-1011.5"/>
<polygon fill="none" stroke="black" points="44.5,-1011.5 44.5,-1040.5 325.5,-1040.5 325.5,-1011.5 44.5,-1011.5"/>
<text text-anchor="start" x="51.5" y="-1023.3" font-family="Times,serif" font-weight="bold" font-size="14.00">monograph_publishers:</text>
<text text-anchor="start" x="190.5" y="-1023.3" font-family="Times,serif" font-size="14.00"> </text>
<polygon fill="none" stroke="black" points="10.5,-982.5 10.5,-1011.5 44.5,-1011.5 44.5,-982.5 10.5,-982.5"/>
<polygon fill="none" stroke="black" points="44.5,-982.5 44.5,-1011.5 325.5,-1011.5 325.5,-982.5 44.5,-982.5"/>
<text text-anchor="start" x="51.5" y="-994.3" font-family="Times,serif" font-weight="bold" font-size="14.00">volume_number:</text>
<text text-anchor="start" x="152.5" y="-994.3" font-family="Times,serif" font-size="14.00"> 9</text>
<polygon fill="none" stroke="black" points="10.5,-953.5 10.5,-982.5 44.5,-982.5 44.5,-953.5 10.5,-953.5"/>
<polygon fill="none" stroke="black" points="44.5,-953.5 44.5,-982.5 325.5,-982.5 325.5,-953.5 44.5,-953.5"/>
<text text-anchor="start" x="51.5" y="-965.3" font-family="Times,serif" font-weight="bold" font-size="14.00">issue_number:</text>
<text text-anchor="start" x="137.5" y="-965.3" font-family="Times,serif" font-size="14.00"> no. 24</text>
<polygon fill="none" stroke="black" points="10.5,-924.5 10.5,-953.5 44.5,-953.5 44.5,-924.5 10.5,-924.5"/>
<polygon fill="none" stroke="black" points="44.5,-924.5 44.5,-953.5 325.5,-953.5 325.5,-924.5 44.5,-924.5"/>
<text text-anchor="start" x="51.5" y="-936.3" font-family="Times,serif" font-weight="bold" font-size="14.00">pages:</text>
<text text-anchor="start" x="88.5" y="-936.3" font-family="Times,serif" font-size="14.00"> 1</text>
<polygon fill="none" stroke="black" points="10.5,-895.5 10.5,-924.5 44.5,-924.5 44.5,-895.5 10.5,-895.5"/>
<polygon fill="none" stroke="black" points="44.5,-895.5 44.5,-924.5 325.5,-924.5 325.5,-895.5 44.5,-895.5"/>
<text text-anchor="start" x="51.5" y="-907.3" font-family="Times,serif" font-weight="bold" font-size="14.00">archival_holding:</text>
<text text-anchor="start" x="154.5" y="-907.3" font-family="Times,serif" font-size="14.00"> </text>
<polygon fill="none" stroke="black" points="10.5,-866.5 10.5,-895.5 44.5,-895.5 44.5,-866.5 10.5,-866.5"/>
<polygon fill="none" stroke="black" points="44.5,-866.5 44.5,-895.5 325.5,-895.5 325.5,-866.5 44.5,-866.5"/>
<text text-anchor="start" x="51.5" y="-878.3" font-family="Times,serif" font-weight="bold" font-size="14.00">archival_location:</text>
<text text-anchor="start" x="156.5" y="-878.3" font-family="Times,serif" font-size="14.00"> </text>
<polygon fill="none" stroke="black" points="10.5,-837.5 10.5,-866.5 44.5,-866.5 44.5,-837.5 10.5,-837.5"/>
<polygon fill="none" stroke="black" points="44.5,-837.5 44.5,-866.5 325.5,-866.5 325.5,-837.5 44.5,-837.5"/>
<text text-anchor="start" x="51.5" y="-849.3" font-family="Times,serif" font-weight="bold" font-size="14.00">cost:</text>
<text text-anchor="start" x="79.5" y="-849.3" font-family="Times,serif" font-size="14.00"> </text>
<polygon fill="none" stroke="black" points="10.5,-808.5 10.5,-837.5 44.5,-837.5 44.5,-808.5 10.5,-808.5"/>
<polygon fill="none" stroke="black" points="44.5,-808.5 44.5,-837.5 325.5,-837.5 325.5,-808.5 44.5,-808.5"/>
<text text-anchor="start" x="51.5" y="-820.3" font-family="Times,serif" font-weight="bold" font-size="14.00">permission:</text>
<text text-anchor="start" x="120.5" y="-820.3" font-family="Times,serif" font-size="14.00"> Public domain</text>
<polygon fill="none" stroke="black" points="10.5,-779.5 10.5,-808.5 44.5,-808.5 44.5,-779.5 10.5,-779.5"/>
<polygon fill="none" stroke="black" points="44.5,-779.5 44.5,-808.5 325.5,-808.5 325.5,-779.5 44.5,-779.5"/>
<text text-anchor="start" x="51.5" y="-791.3" font-family="Times,serif" font-weight="bold" font-size="14.00">permission_acknowledgement:</text>
<text text-anchor="start" x="231.5" y="-791.3" font-family="Times,serif" font-size="14.00"> </text>
<polygon fill="none" stroke="black" points="10.5,-750.5 10.5,-779.5 44.5,-779.5 44.5,-750.5 10.5,-750.5"/>
<polygon fill="none" stroke="black" points="44.5,-750.5 44.5,-779.5 325.5,-779.5 325.5,-750.5 44.5,-750.5"/>
<text text-anchor="start" x="51.5" y="-762.3" font-family="Times,serif" font-weight="bold" font-size="14.00">permission_statements:</text>
<text text-anchor="start" x="189.5" y="-762.3" font-family="Times,serif" font-size="14.00"> </text>
<polygon fill="none" stroke="black" points="10.5,-721.5 10.5,-750.5 44.5,-750.5 44.5,-721.5 10.5,-721.5"/>
<polygon fill="none" stroke="black" points="44.5,-721.5 44.5,-750.5 325.5,-750.5 325.5,-721.5 44.5,-721.5"/>
<text text-anchor="start" x="51.5" y="-733.3" font-family="Times,serif" font-weight="bold" font-size="14.00">acquisitions:</text>
<text text-anchor="start" x="124.5" y="-733.3" font-family="Times,serif" font-size="14.00"> </text>
<polygon fill="none" stroke="black" points="10.5,-692.5 10.5,-721.5 44.5,-721.5 44.5,-692.5 10.5,-692.5"/>
<polygon fill="none" stroke="black" points="44.5,-692.5 44.5,-721.5 325.5,-721.5 325.5,-692.5 44.5,-692.5"/>
<text text-anchor="start" x="51.5" y="-704.3" font-family="Times,serif" font-weight="bold" font-size="14.00">document_intro:</text>
<text text-anchor="start" x="149.5" y="-704.3" font-family="Times,serif" font-size="14.00"> </text>
<polygon fill="none" stroke="black" points="10.5,-663.5 10.5,-692.5 44.5,-692.5 44.5,-663.5 10.5,-663.5"/>
<polygon fill="none" stroke="black" points="44.5,-663.5 44.5,-692.5 325.5,-692.5 325.5,-663.5 44.5,-663.5"/>
<text text-anchor="start" x="51.5" y="-675.3" font-family="Times,serif" font-weight="bold" font-size="14.00">transcripts:</text>
<text text-anchor="start" x="119.5" y="-675.3" font-family="Times,serif" font-size="14.00"> </text>
<polygon fill="none" stroke="black" points="10.5,-634.5 10.5,-663.5 44.5,-663.5 44.5,-634.5 10.5,-634.5"/>
<text text-anchor="start" x="17.5" y="-646.3" font-family="Times,serif" font-weight="bold" font-size="14.00">FK</text>
<polygon fill="none" stroke="black" points="44.5,-634.5 44.5,-663.5 325.5,-663.5 325.5,-634.5 44.5,-634.5"/>
<text text-anchor="start" x="51.5" y="-646.3" font-family="Times,serif" font-weight="bold" font-size="14.00">group_reprint_id:</text>
<text text-anchor="start" x="157.5" y="-646.3" font-family="Times,serif" font-size="14.00"> TheBostonAtlas1847_reprint</text>
<polygon fill="none" stroke="black" points="10.5,-605.5 10.5,-634.5 44.5,-634.5 44.5,-605.5 10.5,-605.5"/>
<text text-anchor="start" x="17.5" y="-617.3" font-family="Times,serif" font-weight="bold" font-size="14.00">FK</text>
<polygon fill="none" stroke="black" points="44.5,-605.5 44.5,-634.5 325.5,-634.5 325.5,-605.5 44.5,-605.5"/>
<text text-anchor="start" x="51.5" y="-617.3" font-family="Times,serif" font-weight="bold" font-size="14.00">publisher_location:</text>
<text text-anchor="start" x="163.5" y="-617.3" font-family="Times,serif" font-size="14.00"> Huntington, New York</text>
<polygon fill="none" stroke="black" points="10.5,-576.5 10.5,-605.5 44.5,-605.5 44.5,-576.5 10.5,-576.5"/>
<text text-anchor="start" x="17.5" y="-588.3" font-family="Times,serif" font-weight="bold" font-size="14.00">FK</text>
<polygon fill="none" stroke="black" points="44.5,-576.5 44.5,-605.5 325.5,-605.5 325.5,-576.5 44.5,-576.5"/>
<text text-anchor="start" x="51.5" y="-588.3" font-family="Times,serif" font-weight="bold" font-size="14.00">publication:</text>
<text text-anchor="start" x="121.5" y="-588.3" font-family="Times,serif" font-size="14.00"> Long&#45;Islander (Huntington, NY)</text>
<polygon fill="none" stroke="black" stroke-width="2" points="9,-576 9,-1185 326,-1185 326,-576 9,-576"/>
</g>
<!-- Publication -->
<g id="node2" class="node">
<title>Publication</title>
<polygon fill="#f4d9b0" stroke="transparent" points="582,-1501.5 582,-1528.5 882,-1528.5 882,-1501.5 582,-1501.5"/>
<polygon fill="none" stroke="black" points="582,-1501.5 582,-1528.5 882,-1528.5 882,-1501.5 582,-1501.5"/>
<text text-anchor="start" x="703" y="-1512.9" font-family="Times,serif" font-weight="bold" font-size="12.00">Publication</text>
<polygon fill="none" stroke="black" points="582,-1472.5 582,-1501.5 616,-1501.5 616,-1472.5 582,-1472.5"/>
<text text-anchor="start" x="589" y="-1484.3" font-family="Times,serif" font-weight="bold" font-size="14.00">PK</text>
<polygon fill="none" stroke="black" points="616,-1472.5 616,-1501.5 882,-1501.5 882,-1472.5 616,-1472.5"/>
<text text-anchor="start" x="623" y="-1484.3" font-family="Times,serif" font-weight="bold" font-size="14.00">publication:</text>
<text text-anchor="start" x="693" y="-1484.3" font-family="Times,serif" font-size="14.00"> Long&#45;Islander (Huntington, NY)</text>
<polygon fill="none" stroke="black" points="582,-1443.5 582,-1472.5 616,-1472.5 616,-1443.5 582,-1443.5"/>
<text text-anchor="start" x="589" y="-1455.3" font-family="Times,serif" font-weight="bold" font-size="14.00">FK</text>
<polygon fill="none" stroke="black" points="616,-1443.5 616,-1472.5 882,-1472.5 882,-1443.5 616,-1443.5"/>
<text text-anchor="start" x="623" y="-1455.3" font-family="Times,serif" font-weight="bold" font-size="14.00">publisher_location:</text>
<text text-anchor="start" x="735" y="-1455.3" font-family="Times,serif" font-size="14.00"> Huntington, New York</text>
<polygon fill="none" stroke="black" stroke-width="2" points="581,-1443 581,-1530 883,-1530 883,-1443 581,-1443"/>
</g>
<!-- Article&#45;&gt;Publication -->
<g id="edge1" class="edge">
<title>Article&#45;&gt;Publication</title>
<path fill="none" stroke="black" stroke-width="1.5" d="M340.3,-1171.95C405.8,-1283.06 465,-1383.5 465,-1383.5 465,-1383.5 536.53,-1411.2 605.4,-1437.87"/>
<polygon fill="black" stroke="black" stroke-width="1.5" points="340.24,-1171.86 339.04,-1160.96 337.71,-1167.55 335.17,-1163.24 335.17,-1163.24 335.17,-1163.24 337.71,-1167.55 331.29,-1165.53 340.24,-1171.86 340.24,-1171.86"/>
<text text-anchor="middle" x="418.88" y="-1335.37" font-family="Times,serif" font-size="9.00">published in</text>
<text text-anchor="middle" x="418.88" y="-1325.37" font-family="Times,serif" font-size="9.00">(N:1)</text>
</g>
<!-- Location -->
<g id="node3" class="node">
<title>Location</title>
<polygon fill="#c8e6c9" stroke="transparent" points="1139,-1408.5 1139,-1435.5 1427,-1435.5 1427,-1408.5 1139,-1408.5"/>
<polygon fill="none" stroke="black" points="1139,-1408.5 1139,-1435.5 1427,-1435.5 1427,-1408.5 1139,-1408.5"/>
<text text-anchor="start" x="1260" y="-1419.9" font-family="Times,serif" font-weight="bold" font-size="12.00">Location</text>
<polygon fill="none" stroke="black" points="1139,-1379.5 1139,-1408.5 1173,-1408.5 1173,-1379.5 1139,-1379.5"/>
<text text-anchor="start" x="1146" y="-1391.3" font-family="Times,serif" font-weight="bold" font-size="14.00">PK</text>
<polygon fill="none" stroke="black" points="1173,-1379.5 1173,-1408.5 1427,-1408.5 1427,-1379.5 1173,-1379.5"/>
<text text-anchor="start" x="1180" y="-1391.3" font-family="Times,serif" font-weight="bold" font-size="14.00">publisher_location:</text>
<text text-anchor="start" x="1292" y="-1391.3" font-family="Times,serif" font-size="14.00"> Huntington, New York</text>
<polygon fill="none" stroke="black" stroke-width="2" points="1138,-1378.5 1138,-1436.5 1428,-1436.5 1428,-1378.5 1138,-1378.5"/>
</g>
<!-- Article&#45;&gt;Location -->
<g id="edge2" class="edge">
<title>Article&#45;&gt;Location</title>
<path fill="none" stroke="black" stroke-width="1.5" d="M341.48,-1098.69C406.5,-1180.72 465,-1254.5 465,-1254.5 465,-1254.5 892.24,-1334.51 1128.81,-1378.81"/>
<polygon fill="black" stroke="black" stroke-width="1.5" points="341.38,-1098.57 338.69,-1087.93 338.27,-1094.65 335.17,-1090.73 335.17,-1090.73 335.17,-1090.73 338.27,-1094.65 331.64,-1093.53 341.38,-1098.57 341.38,-1098.57"/>
<text text-anchor="middle" x="677.69" y="-1291.16" font-family="Times,serif" font-size="9.00">published at</text>
<text text-anchor="middle" x="677.69" y="-1281.16" font-family="Times,serif" font-size="9.00">(N:1)</text>
</g>
<!-- Images -->
<g id="node4" class="node">
<title>Images</title>
<polygon fill="#e1bee7" stroke="transparent" points="475,-1185.5 475,-1212.5 989,-1212.5 989,-1185.5 475,-1185.5"/>
<polygon fill="none" stroke="black" points="475,-1185.5 475,-1212.5 989,-1212.5 989,-1185.5 475,-1185.5"/>
<text text-anchor="start" x="692.5" y="-1196.9" font-family="Times,serif" font-weight="bold" font-size="12.00">Images (7 total)</text>
<polygon fill="none" stroke="black" points="475,-1156.5 475,-1185.5 509,-1185.5 509,-1156.5 475,-1156.5"/>
<text text-anchor="start" x="482" y="-1168.3" font-family="Times,serif" font-weight="bold" font-size="14.00">PK</text>
<polygon fill="none" stroke="black" points="509,-1156.5 509,-1185.5 989,-1185.5 989,-1156.5 509,-1156.5"/>
<text text-anchor="start" x="516" y="-1168.3" font-family="Times,serif" font-weight="bold" font-size="14.00">object_id:</text>
<text text-anchor="start" x="574" y="-1168.3" font-family="Times,serif" font-size="14.00"> LongIslander1848_Original</text>
<polygon fill="none" stroke="black" points="475,-1127.5 475,-1156.5 509,-1156.5 509,-1127.5 475,-1127.5"/>
<polygon fill="none" stroke="black" points="509,-1127.5 509,-1156.5 989,-1156.5 989,-1127.5 509,-1127.5"/>
<text text-anchor="start" x="516" y="-1139.3" font-family="Times,serif" font-weight="bold" font-size="14.00">image_file:</text>
<text text-anchor="start" x="581" y="-1139.3" font-family="Times,serif" font-size="14.00"> LongIslander1848_DigSur_1.png</text>
<polygon fill="none" stroke="black" points="475,-1098.5 475,-1127.5 509,-1127.5 509,-1098.5 475,-1098.5"/>
<polygon fill="none" stroke="black" points="509,-1098.5 509,-1127.5 989,-1127.5 989,-1098.5 509,-1098.5"/>
<text text-anchor="start" x="516" y="-1110.3" font-family="Times,serif" font-weight="bold" font-size="14.00">image_parent_id:</text>
<text text-anchor="start" x="619" y="-1110.3" font-family="Times,serif" font-size="14.00"> </text>
<polygon fill="none" stroke="black" points="475,-1069.5 475,-1098.5 509,-1098.5 509,-1069.5 475,-1069.5"/>
<polygon fill="none" stroke="black" points="509,-1069.5 509,-1098.5 989,-1098.5 989,-1069.5 509,-1069.5"/>
<text text-anchor="start" x="516" y="-1081.3" font-family="Times,serif" font-weight="bold" font-size="14.00">image_object_location:</text>
<text text-anchor="start" x="651" y="-1081.3" font-family="Times,serif" font-size="14.00"> objects/LongIslander1848/LongIslander1848_DigSur_1.png</text>
<polygon fill="none" stroke="black" points="475,-1040.5 475,-1069.5 509,-1069.5 509,-1040.5 475,-1040.5"/>
<polygon fill="none" stroke="black" points="509,-1040.5 509,-1069.5 989,-1069.5 989,-1040.5 509,-1040.5"/>
<text text-anchor="start" x="516" y="-1052.3" font-family="Times,serif" font-weight="bold" font-size="14.00">image_display_template:</text>
<text text-anchor="start" x="662" y="-1052.3" font-family="Times,serif" font-size="14.00"> compound_object</text>
<polygon fill="none" stroke="black" points="475,-1011.5 475,-1040.5 509,-1040.5 509,-1011.5 475,-1011.5"/>
<polygon fill="none" stroke="black" points="509,-1011.5 509,-1040.5 989,-1040.5 989,-1011.5 509,-1011.5"/>
<text text-anchor="start" x="516" y="-1023.3" font-family="Times,serif" font-weight="bold" font-size="14.00">image_description:</text>
<text text-anchor="start" x="628" y="-1023.3" font-family="Times,serif" font-size="14.00"> </text>
<polygon fill="#f0f0f0" stroke="transparent" points="475,-982.5 475,-1011.5 989,-1011.5 989,-982.5 475,-982.5"/>
<polygon fill="none" stroke="black" points="475,-982.5 475,-1011.5 989,-1011.5 989,-982.5 475,-982.5"/>
<text text-anchor="start" x="725" y="-993.3" font-family="Times,serif" font-size="14.00">&#45;&#45;&#45;</text>
<polygon fill="none" stroke="black" points="475,-953.5 475,-982.5 509,-982.5 509,-953.5 475,-953.5"/>
<text text-anchor="start" x="482" y="-965.3" font-family="Times,serif" font-weight="bold" font-size="14.00">PK</text>
<polygon fill="none" stroke="black" points="509,-953.5 509,-982.5 989,-982.5 989,-953.5 509,-953.5"/>
<text text-anchor="start" x="516" y="-965.3" font-family="Times,serif" font-weight="bold" font-size="14.00">object_id:</text>
<text text-anchor="start" x="574" y="-965.3" font-family="Times,serif" font-size="14.00"> LongIslander1848_img1</text>
<polygon fill="none" stroke="black" points="475,-924.5 475,-953.5 509,-953.5 509,-924.5 475,-924.5"/>
<polygon fill="none" stroke="black" points="509,-924.5 509,-953.5 989,-953.5 989,-924.5 509,-924.5"/>
<text text-anchor="start" x="516" y="-936.3" font-family="Times,serif" font-weight="bold" font-size="14.00">image_file:</text>
<text text-anchor="start" x="581" y="-936.3" font-family="Times,serif" font-size="14.00"> LongIslander1848_DigSur_1.png</text>
<polygon fill="none" stroke="black" points="475,-895.5 475,-924.5 509,-924.5 509,-895.5 475,-895.5"/>
<polygon fill="none" stroke="black" points="509,-895.5 509,-924.5 989,-924.5 989,-895.5 509,-895.5"/>
<text text-anchor="start" x="516" y="-907.3" font-family="Times,serif" font-weight="bold" font-size="14.00">image_parent_id:</text>
<text text-anchor="start" x="619" y="-907.3" font-family="Times,serif" font-size="14.00"> LongIslander1848_Original</text>
<polygon fill="none" stroke="black" points="475,-866.5 475,-895.5 509,-895.5 509,-866.5 475,-866.5"/>
<polygon fill="none" stroke="black" points="509,-866.5 509,-895.5 989,-895.5 989,-866.5 509,-866.5"/>
<text text-anchor="start" x="516" y="-878.3" font-family="Times,serif" font-weight="bold" font-size="14.00">image_object_location:</text>
<text text-anchor="start" x="651" y="-878.3" font-family="Times,serif" font-size="14.00"> objects/LongIslander1848/LongIslander1848_DigSur_1.png</text>
<polygon fill="none" stroke="black" points="475,-837.5 475,-866.5 509,-866.5 509,-837.5 475,-837.5"/>
<polygon fill="none" stroke="black" points="509,-837.5 509,-866.5 989,-866.5 989,-837.5 509,-837.5"/>
<text text-anchor="start" x="516" y="-849.3" font-family="Times,serif" font-weight="bold" font-size="14.00">image_display_template:</text>
<text text-anchor="start" x="662" y="-849.3" font-family="Times,serif" font-size="14.00"> image</text>
<polygon fill="none" stroke="black" points="475,-808.5 475,-837.5 509,-837.5 509,-808.5 475,-808.5"/>
<polygon fill="none" stroke="black" points="509,-808.5 509,-837.5 989,-837.5 989,-808.5 509,-808.5"/>
<text text-anchor="start" x="516" y="-820.3" font-family="Times,serif" font-weight="bold" font-size="14.00">image_description:</text>
<text text-anchor="start" x="628" y="-820.3" font-family="Times,serif" font-size="14.00"> </text>
<polygon fill="#f0f0f0" stroke="transparent" points="475,-779.5 475,-808.5 989,-808.5 989,-779.5 475,-779.5"/>
<polygon fill="none" stroke="black" points="475,-779.5 475,-808.5 989,-808.5 989,-779.5 475,-779.5"/>
<text text-anchor="start" x="725" y="-790.3" font-family="Times,serif" font-size="14.00">&#45;&#45;&#45;</text>
<polygon fill="none" stroke="black" points="475,-750.5 475,-779.5 509,-779.5 509,-750.5 475,-750.5"/>
<text text-anchor="start" x="482" y="-762.3" font-family="Times,serif" font-weight="bold" font-size="14.00">PK</text>
<polygon fill="none" stroke="black" points="509,-750.5 509,-779.5 989,-779.5 989,-750.5 509,-750.5"/>
<text text-anchor="start" x="516" y="-762.3" font-family="Times,serif" font-weight="bold" font-size="14.00">object_id:</text>
<text text-anchor="start" x="574" y="-762.3" font-family="Times,serif" font-size="14.00"> LongIslander1848_img2</text>
<polygon fill="none" stroke="black" points="475,-721.5 475,-750.5 509,-750.5 509,-721.5 475,-721.5"/>
<polygon fill="none" stroke="black" points="509,-721.5 509,-750.5 989,-750.5 989,-721.5 509,-721.5"/>
<text text-anchor="start" x="516" y="-733.3" font-family="Times,serif" font-weight="bold" font-size="14.00">image_file:</text>
<text text-anchor="start" x="581" y="-733.3" font-family="Times,serif" font-size="14.00"> LongIslander1848_DigSur_2.png</text>
<polygon fill="none" stroke="black" points="475,-692.5 475,-721.5 509,-721.5 509,-692.5 475,-692.5"/>
<polygon fill="none" stroke="black" points="509,-692.5 509,-721.5 989,-721.5 989,-692.5 509,-692.5"/>
<text text-anchor="start" x="516" y="-704.3" font-family="Times,serif" font-weight="bold" font-size="14.00">image_parent_id:</text>
<text text-anchor="start" x="619" y="-704.3" font-family="Times,serif" font-size="14.00"> LongIslander1848_Original</text>
<polygon fill="none" stroke="black" points="475,-663.5 475,-692.5 509,-692.5 509,-663.5 475,-663.5"/>
<polygon fill="none" stroke="black" points="509,-663.5 509,-692.5 989,-692.5 989,-663.5 509,-663.5"/>
<text text-anchor="start" x="516" y="-675.3" font-family="Times,serif" font-weight="bold" font-size="14.00">image_object_location:</text>
<text text-anchor="start" x="651" y="-675.3" font-family="Times,serif" font-size="14.00"> objects/LongIslander1848/LongIslander1848_DigSur_2.png</text>
<polygon fill="none" stroke="black" points="475,-634.5 475,-663.5 509,-663.5 509,-634.5 475,-634.5"/>
<polygon fill="none" stroke="black" points="509,-634.5 509,-663.5 989,-663.5 989,-634.5 509,-634.5"/>
<text text-anchor="start" x="516" y="-646.3" font-family="Times,serif" font-weight="bold" font-size="14.00">image_display_template:</text>
<text text-anchor="start" x="662" y="-646.3" font-family="Times,serif" font-size="14.00"> image</text>
<polygon fill="none" stroke="black" points="475,-605.5 475,-634.5 509,-634.5 509,-605.5 475,-605.5"/>
<polygon fill="none" stroke="black" points="509,-605.5 509,-634.5 989,-634.5 989,-605.5 509,-605.5"/>
<text text-anchor="start" x="516" y="-617.3" font-family="Times,serif" font-weight="bold" font-size="14.00">image_description:</text>
<text text-anchor="start" x="628" y="-617.3" font-family="Times,serif" font-size="14.00"> </text>
<polygon fill="none" stroke="black" points="475,-576.5 475,-605.5 989,-605.5 989,-576.5 475,-576.5"/>
<text text-anchor="start" x="672" y="-588.3" font-family="Times,serif" font-style="italic" font-size="14.00">... and 4 more images</text>
<polygon fill="none" stroke="black" points="475,-547.5 475,-576.5 509,-576.5 509,-547.5 475,-547.5"/>
<text text-anchor="start" x="482" y="-559.3" font-family="Times,serif" font-weight="bold" font-size="14.00">FK</text>
<polygon fill="none" stroke="black" points="509,-547.5 509,-576.5 989,-576.5 989,-547.5 509,-547.5"/>
<text text-anchor="start" x="516" y="-559.3" font-family="Times,serif" font-weight="bold" font-size="14.00">article_id:</text>
<text text-anchor="start" x="576" y="-559.3" font-family="Times,serif" font-size="14.00"> LongIslander1848</text>
<polygon fill="none" stroke="black" stroke-width="2" points="474,-547 474,-1214 990,-1214 990,-547 474,-547"/>
</g>
<!-- Article&#45;&gt;Images -->
<g id="edge4" class="edge">
<title>Article&#45;&gt;Images</title>
<path fill="none" stroke="black" stroke-width="1.5" d="M335.37,-880.5C372.99,-880.5 413.91,-880.5 454.7,-880.5"/>
<polygon fill="black" stroke="black" stroke-width="1.5" points="454.78,-880.5 464.78,-885 459.78,-880.5 464.78,-880.5 464.78,-880.5 464.78,-880.5 459.78,-880.5 464.78,-876 454.78,-880.5 454.78,-880.5"/>
<text text-anchor="middle" x="385.03" y="-873.3" font-family="Times,serif" font-size="9.00">has</text>
<text text-anchor="middle" x="385.03" y="-863.3" font-family="Times,serif" font-size="9.00">(1:N)</text>
</g>
<!-- Reprints -->
<g id="node5" class="node">
<title>Reprints</title>
<polygon fill="#ffecb3" stroke="transparent" points="575,-436.5 575,-463.5 890,-463.5 890,-436.5 575,-436.5"/>
<polygon fill="none" stroke="black" points="575,-436.5 575,-463.5 890,-463.5 890,-436.5 575,-436.5"/>
<text text-anchor="start" x="661" y="-447.9" font-family="Times,serif" font-weight="bold" font-size="12.00">Reprints / Document Group</text>
<polygon fill="none" stroke="black" points="575,-407.5 575,-436.5 609,-436.5 609,-407.5 575,-407.5"/>
<text text-anchor="start" x="582" y="-419.3" font-family="Times,serif" font-weight="bold" font-size="14.00">PK</text>
<polygon fill="none" stroke="black" points="609,-407.5 609,-436.5 890,-436.5 890,-407.5 609,-407.5"/>
<text text-anchor="start" x="616" y="-419.3" font-family="Times,serif" font-weight="bold" font-size="14.00">group_reprint_id:</text>
<text text-anchor="start" x="722" y="-419.3" font-family="Times,serif" font-size="14.00"> TheBostonAtlas1847_reprint</text>
<polygon fill="none" stroke="black" points="575,-378.5 575,-407.5 609,-407.5 609,-378.5 575,-378.5"/>
<polygon fill="none" stroke="black" points="609,-378.5 609,-407.5 890,-407.5 890,-378.5 609,-378.5"/>
<text text-anchor="start" x="616" y="-390.3" font-family="Times,serif" font-weight="bold" font-size="14.00">reprint_type:</text>
<text text-anchor="start" x="694" y="-390.3" font-family="Times,serif" font-size="14.00"> direct</text>
<polygon fill="none" stroke="black" points="575,-349.5 575,-378.5 609,-378.5 609,-349.5 575,-349.5"/>
<polygon fill="none" stroke="black" points="609,-349.5 609,-378.5 890,-378.5 890,-349.5 609,-349.5"/>
<text text-anchor="start" x="616" y="-361.3" font-family="Times,serif" font-weight="bold" font-size="14.00">reprint_order:</text>
<text text-anchor="start" x="701" y="-361.3" font-family="Times,serif" font-size="14.00"> </text>
<polygon fill="none" stroke="black" stroke-width="2" points="573.5,-348.5 573.5,-464.5 890.5,-464.5 890.5,-348.5 573.5,-348.5"/>
</g>
<!-- Article&#45;&gt;Reprints -->
<g id="edge5" class="edge">
<title>Article&#45;&gt;Reprints</title>
<path fill="none" stroke="black" stroke-width="1.5" d="M341.48,-661.73C406.5,-579.48 465,-505.5 465,-505.5 465,-505.5 510.82,-488.45 564.43,-468.5"/>
<polygon fill="black" stroke="black" stroke-width="1.5" points="341.37,-661.86 331.64,-666.92 338.27,-665.79 335.17,-669.71 335.17,-669.71 335.17,-669.71 338.27,-665.79 338.7,-672.5 341.37,-661.86 341.37,-661.86"/>
<text text-anchor="middle" x="417.64" y="-534.8" font-family="Times,serif" font-size="9.00">belongs to</text>
<text text-anchor="middle" x="417.64" y="-524.8" font-family="Times,serif" font-size="9.00">(N:1)</text>
</g>
<!-- Article_Trope -->
<g id="node6" class="node">
<title>Article_Trope</title>
<polygon fill="#ffe0e0" stroke="transparent" points="615,-237.5 615,-264.5 849,-264.5 849,-237.5 615,-237.5"/>
<polygon fill="none" stroke="black" points="615,-237.5 615,-264.5 849,-264.5 849,-237.5 615,-237.5"/>
<text text-anchor="start" x="699.5" y="-248.9" font-family="Times,serif" font-weight="bold" font-size="12.00">article_trope</text>
<polygon fill="none" stroke="black" points="615,-208.5 615,-237.5 672,-237.5 672,-208.5 615,-208.5"/>
<text text-anchor="start" x="622" y="-220.3" font-family="Times,serif" font-weight="bold" font-size="14.00">PK,FK</text>
<polygon fill="none" stroke="black" points="672,-208.5 672,-237.5 849,-237.5 849,-208.5 672,-208.5"/>
<text text-anchor="start" x="679" y="-220.3" font-family="Times,serif" font-weight="bold" font-size="14.00">article_id:</text>
<text text-anchor="start" x="739" y="-220.3" font-family="Times,serif" font-size="14.00"> LongIslander1848</text>
<polygon fill="none" stroke="black" points="615,-179.5 615,-208.5 672,-208.5 672,-179.5 615,-179.5"/>
<text text-anchor="start" x="622" y="-191.3" font-family="Times,serif" font-weight="bold" font-size="14.00">PK,FK</text>
<polygon fill="none" stroke="black" points="672,-179.5 672,-208.5 849,-208.5 849,-179.5 672,-179.5"/>
<text text-anchor="start" x="679" y="-191.3" font-family="Times,serif" font-weight="bold" font-size="14.00">trope_id:</text>
<polygon fill="none" stroke="black" points="615,-150.5 615,-179.5 849,-179.5 849,-150.5 615,-150.5"/>
<text text-anchor="start" x="699" y="-161.3" font-family="Times,serif" font-size="14.00">Lazy Indian</text>
<polygon fill="none" stroke="black" points="615,-121.5 615,-150.5 849,-150.5 849,-121.5 615,-121.5"/>
<text text-anchor="start" x="694" y="-132.3" font-family="Times,serif" font-size="14.00">Noble Savage</text>
<polygon fill="none" stroke="black" points="615,-92.5 615,-121.5 849,-121.5 849,-92.5 615,-92.5"/>
<text text-anchor="start" x="686" y="-103.3" font-family="Times,serif" font-size="14.00">Jump Overboard</text>
<polygon fill="none" stroke="black" points="615,-63.5 615,-92.5 849,-92.5 849,-63.5 615,-63.5"/>
<text text-anchor="start" x="695" y="-74.3" font-family="Times,serif" font-size="14.00">Indian Queen</text>
<polygon fill="none" stroke="black" points="615,-34.5 615,-63.5 849,-63.5 849,-34.5 615,-34.5"/>
<text text-anchor="start" x="700" y="-45.3" font-family="Times,serif" font-size="14.00">Girl Crusoe</text>
<polygon fill="none" stroke="black" points="615,-5.5 615,-34.5 849,-34.5 849,-5.5 615,-5.5"/>
<text text-anchor="start" x="701.5" y="-16.3" font-family="Times,serif" font-size="14.00">Wild Child</text>
<polygon fill="none" stroke="black" stroke-width="2" points="614,-5 614,-266 850,-266 850,-5 614,-5"/>
</g>
<!-- Article&#45;&gt;Article_Trope -->
<g id="edge6" class="edge">
<title>Article&#45;&gt;Article_Trope</title>
<path fill="none" stroke="black" stroke-width="1.5" d="M328.68,-570.94C398.62,-435.78 465,-307.5 465,-307.5 465,-307.5 530.29,-265.29 596.17,-222.68"/>
<polygon fill="black" stroke="black" stroke-width="1.5" points="596.22,-222.65 607.07,-221 600.42,-219.93 604.62,-217.22 604.62,-217.22 604.62,-217.22 600.42,-219.93 602.18,-213.44 596.22,-222.65 596.22,-222.65"/>
<text text-anchor="middle" x="422.73" y="-362.65" font-family="Times,serif" font-size="9.00">(1:N)</text>
</g>
<!-- Publication&#45;&gt;Location -->
<g id="edge3" class="edge">
<title>Publication&#45;&gt;Location</title>
<path fill="none" stroke="black" stroke-width="1.5" d="M902.29,-1462.14C974.65,-1451.73 1058.49,-1439.66 1128.96,-1429.52"/>
<polygon fill="black" stroke="black" stroke-width="1.5" points="902.06,-1462.17 891.52,-1459.14 897.11,-1462.88 892.16,-1463.6 892.16,-1463.6 892.16,-1463.6 897.11,-1462.88 892.8,-1468.05 902.06,-1462.17 902.06,-1462.17"/>
<text text-anchor="middle" x="998.63" y="-1438.63" font-family="Times,serif" font-size="9.00">located at</text>
<text text-anchor="middle" x="998.63" y="-1428.63" font-family="Times,serif" font-size="9.00">(N:1)</text>
</g>
<!-- Trope -->
<g id="node7" class="node">
<title>Trope</title>
<polygon fill="#ffcdd2" stroke="transparent" points="108.5,-237.5 108.5,-264.5 226.5,-264.5 226.5,-237.5 108.5,-237.5"/>
<polygon fill="none" stroke="black" points="108.5,-237.5 108.5,-264.5 226.5,-264.5 226.5,-237.5 108.5,-237.5"/>
<text text-anchor="start" x="153.5" y="-248.9" font-family="Times,serif" font-weight="bold" font-size="12.00">trope</text>
<polygon fill="none" stroke="black" points="108.5,-208.5 108.5,-237.5 142.5,-237.5 142.5,-208.5 108.5,-208.5"/>
<text text-anchor="start" x="115.5" y="-220.3" font-family="Times,serif" font-weight="bold" font-size="14.00">PK</text>
<polygon fill="none" stroke="black" points="142.5,-208.5 142.5,-237.5 226.5,-237.5 226.5,-208.5 142.5,-208.5"/>
<text text-anchor="start" x="149.5" y="-220.3" font-family="Times,serif" font-weight="bold" font-size="14.00">trope_id:</text>
<polygon fill="none" stroke="black" points="108.5,-179.5 108.5,-208.5 142.5,-208.5 142.5,-179.5 108.5,-179.5"/>
<polygon fill="none" stroke="black" points="142.5,-179.5 142.5,-208.5 226.5,-208.5 226.5,-179.5 142.5,-179.5"/>
<text text-anchor="start" x="149.5" y="-191.3" font-family="Times,serif" font-weight="bold" font-size="14.00">trope_label:</text>
<polygon fill="none" stroke="black" points="108.5,-150.5 108.5,-179.5 226.5,-179.5 226.5,-150.5 108.5,-150.5"/>
<text text-anchor="start" x="134.5" y="-161.3" font-family="Times,serif" font-size="14.00">Lazy Indian</text>
<polygon fill="none" stroke="black" points="108.5,-121.5 108.5,-150.5 226.5,-150.5 226.5,-121.5 108.5,-121.5"/>
<text text-anchor="start" x="129.5" y="-132.3" font-family="Times,serif" font-size="14.00">Noble Savage</text>
<polygon fill="none" stroke="black" points="108.5,-92.5 108.5,-121.5 226.5,-121.5 226.5,-92.5 108.5,-92.5"/>
<text text-anchor="start" x="121.5" y="-103.3" font-family="Times,serif" font-size="14.00">Jump Overboard</text>
<polygon fill="none" stroke="black" points="108.5,-63.5 108.5,-92.5 226.5,-92.5 226.5,-63.5 108.5,-63.5"/>
<text text-anchor="start" x="130.5" y="-74.3" font-family="Times,serif" font-size="14.00">Indian Queen</text>
<polygon fill="none" stroke="black" points="108.5,-34.5 108.5,-63.5 226.5,-63.5 226.5,-34.5 108.5,-34.5"/>
<text text-anchor="start" x="135.5" y="-45.3" font-family="Times,serif" font-size="14.00">Girl Crusoe</text>
<polygon fill="none" stroke="black" points="108.5,-5.5 108.5,-34.5 226.5,-34.5 226.5,-5.5 108.5,-5.5"/>
<text text-anchor="start" x="137" y="-16.3" font-family="Times,serif" font-size="14.00">Wild Child</text>
<polygon fill="none" stroke="black" stroke-width="2" points="107.5,-5 107.5,-266 227.5,-266 227.5,-5 107.5,-5"/>
</g>
<!-- Trope&#45;&gt;Article_Trope -->
<g id="edge7" class="edge">
<title>Trope&#45;&gt;Article_Trope</title>
<path fill="none" stroke="black" stroke-width="1.5" d="M236.63,-135.5C325.07,-135.5 481.48,-135.5 594.72,-135.5"/>
<polygon fill="black" stroke="black" stroke-width="1.5" points="594.86,-135.5 604.86,-140 599.86,-135.5 604.86,-135.5 604.86,-135.5 604.86,-135.5 599.86,-135.5 604.86,-131 594.86,-135.5 594.86,-135.5"/>
<text text-anchor="middle" x="405.68" y="-128.3" font-family="Times,serif" font-size="9.00">(1:N)</text>
</g>
</g>
</svg>
