<?xml version="1.0" encoding="UTF-8" standalone="no"?>
<!DOCTYPE svg PUBLIC "-//W3C//DTD SVG 1.1//EN"
 "http://www.w3.org/Graphics/SVG/1.1/DTD/svg11.dtd">
<!-- Generated by graphviz version 2.50.0 (0)
 -->
<!-- Title: ERD_NewBedfordMercury1847 Pages: 1 -->
<svg width="1522pt" height="1581pt"
 viewBox="0.00 0.00 1522.00 1581.00" xmlns="http://www.w3.org/2000/svg" xmlns:xlink="http://www.w3.org/1999/xlink">
<g id="graph0" class="graph" transform="scale(1 1) rotate(0) translate(4 1577)">
<title>ERD_NewBedfordMercury1847</title>
<polygon fill="white" stroke="transparent" points="-4,4 -4,-1577 1518,-1577 1518,4 -4,4"/>
<text text-anchor="middle" x="757" y="-1557.8" font-family="Arial Bold" font-size="14.00">Entity Relationships for NewBedfordMercury1847</text>
<text text-anchor="middle" x="757" y="-1542.8" font-family="Arial Bold" font-size="14.00">(Reprint Type: direct)</text>
<!-- Article -->
<g id="node1" class="node">
<title>Article</title>
<polygon fill="#b4d7e5" stroke="transparent" points="10.5,-1142.5 10.5,-1169.5 305.5,-1169.5 305.5,-1142.5 10.5,-1142.5"/>
<polygon fill="none" stroke="black" points="10.5,-1142.5 10.5,-1169.5 305.5,-1169.5 305.5,-1142.5 10.5,-1142.5"/>
<text text-anchor="start" x="140.5" y="-1153.9" font-family="Times,serif" font-weight="bold" font-size="12.00">Article</text>
<polygon fill="none" stroke="black" points="10.5,-1113.5 10.5,-1142.5 44.5,-1142.5 44.5,-1113.5 10.5,-1113.5"/>
<text text-anchor="start" x="17.5" y="-1125.3" font-family="Times,serif" font-weight="bold" font-size="14.00">PK</text>
<polygon fill="none" stroke="black" points="44.5,-1113.5 44.5,-1142.5 305.5,-1142.5 305.5,-1113.5 44.5,-1113.5"/>
<text text-anchor="start" x="51.5" y="-1125.3" font-family="Times,serif" font-weight="bold" font-size="14.00">article_id:</text>
<text text-anchor="start" x="111.5" y="-1125.3" font-family="Times,serif" font-size="14.00"> NewBedfordMercury1847</text>
<polygon fill="none" stroke="black" points="10.5,-1084.5 10.5,-1113.5 44.5,-1113.5 44.5,-1084.5 10.5,-1084.5"/>
<polygon fill="none" stroke="black" points="44.5,-1084.5 44.5,-1113.5 305.5,-1113.5 305.5,-1084.5 44.5,-1084.5"/>
<text text-anchor="start" x="51.5" y="-1096.3" font-family="Times,serif" font-weight="bold" font-size="14.00">title:</text>
<text text-anchor="start" x="79.5" y="-1096.3" font-family="Times,serif" font-size="14.00"> &quot;A Female Crusoe&quot;</text>
<polygon fill="none" stroke="black" points="10.5,-1055.5 10.5,-1084.5 44.5,-1084.5 44.5,-1055.5 10.5,-1055.5"/>
<polygon fill="none" stroke="black" points="44.5,-1055.5 44.5,-1084.5 305.5,-1084.5 305.5,-1055.5 44.5,-1055.5"/>
<text text-anchor="start" x="51.5" y="-1067.3" font-family="Times,serif" font-weight="bold" font-size="14.00">author:</text>
<text text-anchor="start" x="95.5" y="-1067.3" font-family="Times,serif" font-size="14.00"> </text>
<polygon fill="none" stroke="black" points="10.5,-1026.5 10.5,-1055.5 44.5,-1055.5 44.5,-1026.5 10.5,-1026.5"/>
<polygon fill="none" stroke="black" points="44.5,-1026.5 44.5,-1055.5 305.5,-1055.5 305.5,-1026.5 44.5,-1026.5"/>
<text text-anchor="start" x="51.5" y="-1038.3" font-family="Times,serif" font-weight="bold" font-size="14.00">date:</text>
<text text-anchor="start" x="81.5" y="-1038.3" font-family="Times,serif" font-size="14.00"> 1847&#45;01&#45;15</text>
<polygon fill="none" stroke="black" points="10.5,-997.5 10.5,-1026.5 44.5,-1026.5 44.5,-997.5 10.5,-997.5"/>
<polygon fill="none" stroke="black" points="44.5,-997.5 44.5,-1026.5 305.5,-1026.5 305.5,-997.5 44.5,-997.5"/>
<text text-anchor="start" x="51.5" y="-1009.3" font-family="Times,serif" font-weight="bold" font-size="14.00">monograph_publishers:</text>
<text text-anchor="start" x="190.5" y="-1009.3" font-family="Times,serif" font-size="14.00"> </text>
<polygon fill="none" stroke="black" points="10.5,-968.5 10.5,-997.5 44.5,-997.5 44.5,-968.5 10.5,-968.5"/>
<polygon fill="none" stroke="black" points="44.5,-968.5 44.5,-997.5 305.5,-997.5 305.5,-968.5 44.5,-968.5"/>
<text text-anchor="start" x="51.5" y="-980.3" font-family="Times,serif" font-weight="bold" font-size="14.00">volume_number:</text>
<text text-anchor="start" x="152.5" y="-980.3" font-family="Times,serif" font-size="14.00"> 40</text>
<polygon fill="none" stroke="black" points="10.5,-939.5 10.5,-968.5 44.5,-968.5 44.5,-939.5 10.5,-939.5"/>
<polygon fill="none" stroke="black" points="44.5,-939.5 44.5,-968.5 305.5,-968.5 305.5,-939.5 44.5,-939.5"/>
<text text-anchor="start" x="51.5" y="-951.3" font-family="Times,serif" font-weight="bold" font-size="14.00">issue_number:</text>
<text text-anchor="start" x="137.5" y="-951.3" font-family="Times,serif" font-size="14.00"> no. 4</text>
<polygon fill="none" stroke="black" points="10.5,-910.5 10.5,-939.5 44.5,-939.5 44.5,-910.5 10.5,-910.5"/>
<polygon fill="none" stroke="black" points="44.5,-910.5 44.5,-939.5 305.5,-939.5 305.5,-910.5 44.5,-910.5"/>
<text text-anchor="start" x="51.5" y="-922.3" font-family="Times,serif" font-weight="bold" font-size="14.00">pages:</text>
<text text-anchor="start" x="88.5" y="-922.3" font-family="Times,serif" font-size="14.00"> 4</text>
<polygon fill="none" stroke="black" points="10.5,-881.5 10.5,-910.5 44.5,-910.5 44.5,-881.5 10.5,-881.5"/>
<polygon fill="none" stroke="black" points="44.5,-881.5 44.5,-910.5 305.5,-910.5 305.5,-881.5 44.5,-881.5"/>
<text text-anchor="start" x="51.5" y="-893.3" font-family="Times,serif" font-weight="bold" font-size="14.00">archival_holding:</text>
<text text-anchor="start" x="154.5" y="-893.3" font-family="Times,serif" font-size="14.00"> </text>
<polygon fill="none" stroke="black" points="10.5,-852.5 10.5,-881.5 44.5,-881.5 44.5,-852.5 10.5,-852.5"/>
<polygon fill="none" stroke="black" points="44.5,-852.5 44.5,-881.5 305.5,-881.5 305.5,-852.5 44.5,-852.5"/>
<text text-anchor="start" x="51.5" y="-864.3" font-family="Times,serif" font-weight="bold" font-size="14.00">archival_location:</text>
<text text-anchor="start" x="156.5" y="-864.3" font-family="Times,serif" font-size="14.00"> </text>
<polygon fill="none" stroke="black" points="10.5,-823.5 10.5,-852.5 44.5,-852.5 44.5,-823.5 10.5,-823.5"/>
<polygon fill="none" stroke="black" points="44.5,-823.5 44.5,-852.5 305.5,-852.5 305.5,-823.5 44.5,-823.5"/>
<text text-anchor="start" x="51.5" y="-835.3" font-family="Times,serif" font-weight="bold" font-size="14.00">cost:</text>
<text text-anchor="start" x="79.5" y="-835.3" font-family="Times,serif" font-size="14.00"> </text>
<polygon fill="none" stroke="black" points="10.5,-794.5 10.5,-823.5 44.5,-823.5 44.5,-794.5 10.5,-794.5"/>
<polygon fill="none" stroke="black" points="44.5,-794.5 44.5,-823.5 305.5,-823.5 305.5,-794.5 44.5,-794.5"/>
<text text-anchor="start" x="51.5" y="-806.3" font-family="Times,serif" font-weight="bold" font-size="14.00">permission:</text>
<text text-anchor="start" x="120.5" y="-806.3" font-family="Times,serif" font-size="14.00"> Public domain</text>
<polygon fill="none" stroke="black" points="10.5,-765.5 10.5,-794.5 44.5,-794.5 44.5,-765.5 10.5,-765.5"/>
<polygon fill="none" stroke="black" points="44.5,-765.5 44.5,-794.5 305.5,-794.5 305.5,-765.5 44.5,-765.5"/>
<text text-anchor="start" x="51.5" y="-777.3" font-family="Times,serif" font-weight="bold" font-size="14.00">permission_acknowledgement:</text>
<text text-anchor="start" x="231.5" y="-777.3" font-family="Times,serif" font-size="14.00"> </text>
<polygon fill="none" stroke="black" points="10.5,-736.5 10.5,-765.5 44.5,-765.5 44.5,-736.5 10.5,-736.5"/>
<polygon fill="none" stroke="black" points="44.5,-736.5 44.5,-765.5 305.5,-765.5 305.5,-736.5 44.5,-736.5"/>
<text text-anchor="start" x="51.5" y="-748.3" font-family="Times,serif" font-weight="bold" font-size="14.00">permission_statements:</text>
<text text-anchor="start" x="189.5" y="-748.3" font-family="Times,serif" font-size="14.00"> </text>
<polygon fill="none" stroke="black" points="10.5,-707.5 10.5,-736.5 44.5,-736.5 44.5,-707.5 10.5,-707.5"/>
<polygon fill="none" stroke="black" points="44.5,-707.5 44.5,-736.5 305.5,-736.5 305.5,-707.5 44.5,-707.5"/>
<text text-anchor="start" x="51.5" y="-719.3" font-family="Times,serif" font-weight="bold" font-size="14.00">acquisitions:</text>
<text text-anchor="start" x="124.5" y="-719.3" font-family="Times,serif" font-size="14.00"> </text>
<polygon fill="none" stroke="black" points="10.5,-678.5 10.5,-707.5 44.5,-707.5 44.5,-678.5 10.5,-678.5"/>
<polygon fill="none" stroke="black" points="44.5,-678.5 44.5,-707.5 305.5,-707.5 305.5,-678.5 44.5,-678.5"/>
<text text-anchor="start" x="51.5" y="-690.3" font-family="Times,serif" font-weight="bold" font-size="14.00">document_intro:</text>
<text text-anchor="start" x="149.5" y="-690.3" font-family="Times,serif" font-size="14.00"> </text>
<polygon fill="none" stroke="black" points="10.5,-649.5 10.5,-678.5 44.5,-678.5 44.5,-649.5 10.5,-649.5"/>
<polygon fill="none" stroke="black" points="44.5,-649.5 44.5,-678.5 305.5,-678.5 305.5,-649.5 44.5,-649.5"/>
<text text-anchor="start" x="51.5" y="-661.3" font-family="Times,serif" font-weight="bold" font-size="14.00">transcripts:</text>
<text text-anchor="start" x="119.5" y="-661.3" font-family="Times,serif" font-size="14.00"> </text>
<polygon fill="none" stroke="black" points="10.5,-620.5 10.5,-649.5 44.5,-649.5 44.5,-620.5 10.5,-620.5"/>
<text text-anchor="start" x="17.5" y="-632.3" font-family="Times,serif" font-weight="bold" font-size="14.00">FK</text>
<polygon fill="none" stroke="black" points="44.5,-620.5 44.5,-649.5 305.5,-649.5 305.5,-620.5 44.5,-620.5"/>
<text text-anchor="start" x="51.5" y="-632.3" font-family="Times,serif" font-weight="bold" font-size="14.00">publisher_location:</text>
<text text-anchor="start" x="163.5" y="-632.3" font-family="Times,serif" font-size="14.00"> Bedford, Massachusetts</text>
<polygon fill="none" stroke="black" points="10.5,-591.5 10.5,-620.5 44.5,-620.5 44.5,-591.5 10.5,-591.5"/>
<text text-anchor="start" x="17.5" y="-603.3" font-family="Times,serif" font-weight="bold" font-size="14.00">FK</text>
<polygon fill="none" stroke="black" points="44.5,-591.5 44.5,-620.5 305.5,-620.5 305.5,-591.5 44.5,-591.5"/>
<text text-anchor="start" x="51.5" y="-603.3" font-family="Times,serif" font-weight="bold" font-size="14.00">publication:</text>
<text text-anchor="start" x="121.5" y="-603.3" font-family="Times,serif" font-size="14.00"> New&#45;Bedford (MA) Mercury</text>
<polygon fill="none" stroke="black" stroke-width="2" points="9,-590.5 9,-1170.5 306,-1170.5 306,-590.5 9,-590.5"/>
</g>
<!-- Publication -->
<g id="node2" class="node">
<title>Publication</title>
<polygon fill="#f4d9b0" stroke="transparent" points="610,-1501.5 610,-1528.5 905,-1528.5 905,-1501.5 610,-1501.5"/>
<polygon fill="none" stroke="black" points="610,-1501.5 610,-1528.5 905,-1528.5 905,-1501.5 610,-1501.5"/>
<text text-anchor="start" x="728.5" y="-1512.9" font-family="Times,serif" font-weight="bold" font-size="12.00">Publication</text>
<polygon fill="none" stroke="black" points="610,-1472.5 610,-1501.5 644,-1501.5 644,-1472.5 610,-1472.5"/>
<text text-anchor="start" x="617" y="-1484.3" font-family="Times,serif" font-weight="bold" font-size="14.00">PK</text>
<polygon fill="none" stroke="black" points="644,-1472.5 644,-1501.5 905,-1501.5 905,-1472.5 644,-1472.5"/>
<text text-anchor="start" x="651" y="-1484.3" font-family="Times,serif" font-weight="bold" font-size="14.00">publication:</text>
<text text-anchor="start" x="721" y="-1484.3" font-family="Times,serif" font-size="14.00"> New&#45;Bedford (MA) Mercury</text>
<polygon fill="none" stroke="black" points="610,-1443.5 610,-1472.5 644,-1472.5 644,-1443.5 610,-1443.5"/>
<text text-anchor="start" x="617" y="-1455.3" font-family="Times,serif" font-weight="bold" font-size="14.00">FK</text>
<polygon fill="none" stroke="black" points="644,-1443.5 644,-1472.5 905,-1472.5 905,-1443.5 644,-1443.5"/>
<text text-anchor="start" x="651" y="-1455.3" font-family="Times,serif" font-weight="bold" font-size="14.00">publisher_location:</text>
<text text-anchor="start" x="763" y="-1455.3" font-family="Times,serif" font-size="14.00"> Bedford, Massachusetts</text>
<polygon fill="none" stroke="black" stroke-width="2" points="608.5,-1443 608.5,-1530 905.5,-1530 905.5,-1443 608.5,-1443"/>
</g>
<!-- Article&#45;&gt;Publication -->
<g id="edge1" class="edge">
<title>Article&#45;&gt;Publication</title>
<path fill="none" stroke="black" stroke-width="1.5" d="M320.25,-1164.48C385.2,-1278.52 445,-1383.5 445,-1383.5 445,-1383.5 528.63,-1411.2 609.15,-1437.87"/>
<polygon fill="black" stroke="black" stroke-width="1.5" points="320.11,-1164.24 319.07,-1153.32 317.64,-1159.89 315.16,-1155.55 315.16,-1155.55 315.16,-1155.55 317.64,-1159.89 311.25,-1157.77 320.11,-1164.24 320.11,-1164.24"/>
<text text-anchor="middle" x="403.42" y="-1341.92" font-family="Times,serif" font-size="9.00">published in</text>
<text text-anchor="middle" x="403.42" y="-1331.92" font-family="Times,serif" font-size="9.00">(N:1)</text>
</g>
<!-- Location -->
<g id="node3" class="node">
<title>Location</title>
<polygon fill="#c8e6c9" stroke="transparent" points="1209.5,-1408.5 1209.5,-1435.5 1504.5,-1435.5 1504.5,-1408.5 1209.5,-1408.5"/>
<polygon fill="none" stroke="black" points="1209.5,-1408.5 1209.5,-1435.5 1504.5,-1435.5 1504.5,-1408.5 1209.5,-1408.5"/>
<text text-anchor="start" x="1334" y="-1419.9" font-family="Times,serif" font-weight="bold" font-size="12.00">Location</text>
<polygon fill="none" stroke="black" points="1209.5,-1379.5 1209.5,-1408.5 1243.5,-1408.5 1243.5,-1379.5 1209.5,-1379.5"/>
<text text-anchor="start" x="1216.5" y="-1391.3" font-family="Times,serif" font-weight="bold" font-size="14.00">PK</text>
<polygon fill="none" stroke="black" points="1243.5,-1379.5 1243.5,-1408.5 1504.5,-1408.5 1504.5,-1379.5 1243.5,-1379.5"/>
<text text-anchor="start" x="1250.5" y="-1391.3" font-family="Times,serif" font-weight="bold" font-size="14.00">publisher_location:</text>
<text text-anchor="start" x="1362.5" y="-1391.3" font-family="Times,serif" font-size="14.00"> Bedford, Massachusetts</text>
<polygon fill="none" stroke="black" stroke-width="2" points="1208,-1378.5 1208,-1436.5 1505,-1436.5 1505,-1378.5 1208,-1378.5"/>
</g>
<!-- Article&#45;&gt;Location -->
<g id="edge2" class="edge">
<title>Article&#45;&gt;Location</title>
<path fill="none" stroke="black" stroke-width="1.5" d="M321.42,-1093.18C385.92,-1177.38 445,-1254.5 445,-1254.5 445,-1254.5 938.65,-1337.45 1198.98,-1381.2"/>
<polygon fill="black" stroke="black" stroke-width="1.5" points="321.24,-1092.95 318.73,-1082.27 318.2,-1088.98 315.16,-1085.01 315.16,-1085.01 315.16,-1085.01 318.2,-1088.98 311.59,-1087.74 321.24,-1092.95 321.24,-1092.95"/>
<text text-anchor="middle" x="700.29" y="-1293.81" font-family="Times,serif" font-size="9.00">published at</text>
<text text-anchor="middle" x="700.29" y="-1283.81" font-family="Times,serif" font-size="9.00">(N:1)</text>
</g>
<!-- Images -->
<g id="node4" class="node">
<title>Images</title>
<polygon fill="#e1bee7" stroke="transparent" points="455,-1185.5 455,-1212.5 1059,-1212.5 1059,-1185.5 455,-1185.5"/>
<polygon fill="none" stroke="black" points="455,-1185.5 455,-1212.5 1059,-1212.5 1059,-1185.5 455,-1185.5"/>
<text text-anchor="start" x="717.5" y="-1196.9" font-family="Times,serif" font-weight="bold" font-size="12.00">Images (9 total)</text>
<polygon fill="none" stroke="black" points="455,-1156.5 455,-1185.5 489,-1185.5 489,-1156.5 455,-1156.5"/>
<text text-anchor="start" x="462" y="-1168.3" font-family="Times,serif" font-weight="bold" font-size="14.00">PK</text>
<polygon fill="none" stroke="black" points="489,-1156.5 489,-1185.5 1059,-1185.5 1059,-1156.5 489,-1156.5"/>
<text text-anchor="start" x="496" y="-1168.3" font-family="Times,serif" font-weight="bold" font-size="14.00">object_id:</text>
<text text-anchor="start" x="554" y="-1168.3" font-family="Times,serif" font-size="14.00"> NewBedfordMercury1847_Original</text>
<polygon fill="none" stroke="black" points="455,-1127.5 455,-1156.5 489,-1156.5 489,-1127.5 455,-1127.5"/>
<polygon fill="none" stroke="black" points="489,-1127.5 489,-1156.5 1059,-1156.5 1059,-1127.5 489,-1127.5"/>
<text text-anchor="start" x="496" y="-1139.3" font-family="Times,serif" font-weight="bold" font-size="14.00">image_file:</text>
<text text-anchor="start" x="561" y="-1139.3" font-family="Times,serif" font-size="14.00"> NewBedfordMercury1847_DigSur_1.png</text>
<polygon fill="none" stroke="black" points="455,-1098.5 455,-1127.5 489,-1127.5 489,-1098.5 455,-1098.5"/>
<polygon fill="none" stroke="black" points="489,-1098.5 489,-1127.5 1059,-1127.5 1059,-1098.5 489,-1098.5"/>
<text text-anchor="start" x="496" y="-1110.3" font-family="Times,serif" font-weight="bold" font-size="14.00">image_parent_id:</text>
<text text-anchor="start" x="599" y="-1110.3" font-family="Times,serif" font-size="14.00"> </text>
<polygon fill="none" stroke="black" points="455,-1069.5 455,-1098.5 489,-1098.5 489,-1069.5 455,-1069.5"/>
<polygon fill="none" stroke="black" points="489,-1069.5 489,-1098.5 1059,-1098.5 1059,-1069.5 489,-1069.5"/>
<text text-anchor="start" x="496" y="-1081.3" font-family="Times,serif" font-weight="bold" font-size="14.00">image_object_location:</text>
<text text-anchor="start" x="631" y="-1081.3" font-family="Times,serif" font-size="14.00"> objects/NewBedfordMercury1847/NewBedfordMercury1847_DigSur_1.png</text>
<polygon fill="none" stroke="black" points="455,-1040.5 455,-1069.5 489,-1069.5 489,-1040.5 455,-1040.5"/>
<polygon fill="none" stroke="black" points="489,-1040.5 489,-1069.5 1059,-1069.5 1059,-1040.5 489,-1040.5"/>
<text text-anchor="start" x="496" y="-1052.3" font-family="Times,serif" font-weight="bold" font-size="14.00">image_display_template:</text>
<text text-anchor="start" x="642" y="-1052.3" font-family="Times,serif" font-size="14.00"> compound_object</text>
<polygon fill="none" stroke="black" points="455,-1011.5 455,-1040.5 489,-1040.5 489,-1011.5 455,-1011.5"/>
<polygon fill="none" stroke="black" points="489,-1011.5 489,-1040.5 1059,-1040.5 1059,-1011.5 489,-1011.5"/>
<text text-anchor="start" x="496" y="-1023.3" font-family="Times,serif" font-weight="bold" font-size="14.00">image_description:</text>
<text text-anchor="start" x="608" y="-1023.3" font-family="Times,serif" font-size="14.00"> </text>
<polygon fill="#f0f0f0" stroke="transparent" points="455,-982.5 455,-1011.5 1059,-1011.5 1059,-982.5 455,-982.5"/>
<polygon fill="none" stroke="black" points="455,-982.5 455,-1011.5 1059,-1011.5 1059,-982.5 455,-982.5"/>
<text text-anchor="start" x="750" y="-993.3" font-family="Times,serif" font-size="14.00">&#45;&#45;&#45;</text>
<polygon fill="none" stroke="black" points="455,-953.5 455,-982.5 489,-982.5 489,-953.5 455,-953.5"/>
<text text-anchor="start" x="462" y="-965.3" font-family="Times,serif" font-weight="bold" font-size="14.00">PK</text>
<polygon fill="none" stroke="black" points="489,-953.5 489,-982.5 1059,-982.5 1059,-953.5 489,-953.5"/>
<text text-anchor="start" x="496" y="-965.3" font-family="Times,serif" font-weight="bold" font-size="14.00">object_id:</text>
<text text-anchor="start" x="554" y="-965.3" font-family="Times,serif" font-size="14.00"> NewBedfordMercury1847_img1</text>
<polygon fill="none" stroke="black" points="455,-924.5 455,-953.5 489,-953.5 489,-924.5 455,-924.5"/>
<polygon fill="none" stroke="black" points="489,-924.5 489,-953.5 1059,-953.5 1059,-924.5 489,-924.5"/>
<text text-anchor="start" x="496" y="-936.3" font-family="Times,serif" font-weight="bold" font-size="14.00">image_file:</text>
<text text-anchor="start" x="561" y="-936.3" font-family="Times,serif" font-size="14.00"> NewBedfordMercury1847_DigSur_1.png</text>
<polygon fill="none" stroke="black" points="455,-895.5 455,-924.5 489,-924.5 489,-895.5 455,-895.5"/>
<polygon fill="none" stroke="black" points="489,-895.5 489,-924.5 1059,-924.5 1059,-895.5 489,-895.5"/>
<text text-anchor="start" x="496" y="-907.3" font-family="Times,serif" font-weight="bold" font-size="14.00">image_parent_id:</text>
<text text-anchor="start" x="599" y="-907.3" font-family="Times,serif" font-size="14.00"> NewBedfordMercury1847_Original</text>
<polygon fill="none" stroke="black" points="455,-866.5 455,-895.5 489,-895.5 489,-866.5 455,-866.5"/>
<polygon fill="none" stroke="black" points="489,-866.5 489,-895.5 1059,-895.5 1059,-866.5 489,-866.5"/>
<text text-anchor="start" x="496" y="-878.3" font-family="Times,serif" font-weight="bold" font-size="14.00">image_object_location:</text>
<text text-anchor="start" x="631" y="-878.3" font-family="Times,serif" font-size="14.00"> objects/NewBedfordMercury1847/NewBedfordMercury1847_DigSur_1.png</text>
<polygon fill="none" stroke="black" points="455,-837.5 455,-866.5 489,-866.5 489,-837.5 455,-837.5"/>
<polygon fill="none" stroke="black" points="489,-837.5 489,-866.5 1059,-866.5 1059,-837.5 489,-837.5"/>
<text text-anchor="start" x="496" y="-849.3" font-family="Times,serif" font-weight="bold" font-size="14.00">image_display_template:</text>
<text text-anchor="start" x="642" y="-849.3" font-family="Times,serif" font-size="14.00"> image</text>
<polygon fill="none" stroke="black" points="455,-808.5 455,-837.5 489,-837.5 489,-808.5 455,-808.5"/>
<polygon fill="none" stroke="black" points="489,-808.5 489,-837.5 1059,-837.5 1059,-808.5 489,-808.5"/>
<text text-anchor="start" x="496" y="-820.3" font-family="Times,serif" font-weight="bold" font-size="14.00">image_description:</text>
<text text-anchor="start" x="608" y="-820.3" font-family="Times,serif" font-size="14.00"> </text>
<polygon fill="#f0f0f0" stroke="transparent" points="455,-779.5 455,-808.5 1059,-808.5 1059,-779.5 455,-779.5"/>
<polygon fill="none" stroke="black" points="455,-779.5 455,-808.5 1059,-808.5 1059,-779.5 455,-779.5"/>
<text text-anchor="start" x="750" y="-790.3" font-family="Times,serif" font-size="14.00">&#45;&#45;&#45;</text>
<polygon fill="none" stroke="black" points="455,-750.5 455,-779.5 489,-779.5 489,-750.5 455,-750.5"/>
<text text-anchor="start" x="462" y="-762.3" font-family="Times,serif" font-weight="bold" font-size="14.00">PK</text>
<polygon fill="none" stroke="black" points="489,-750.5 489,-779.5 1059,-779.5 1059,-750.5 489,-750.5"/>
<text text-anchor="start" x="496" y="-762.3" font-family="Times,serif" font-weight="bold" font-size="14.00">object_id:</text>
<text text-anchor="start" x="554" y="-762.3" font-family="Times,serif" font-size="14.00"> NewBedfordMercury1847_img2</text>
<polygon fill="none" stroke="black" points="455,-721.5 455,-750.5 489,-750.5 489,-721.5 455,-721.5"/>
<polygon fill="none" stroke="black" points="489,-721.5 489,-750.5 1059,-750.5 1059,-721.5 489,-721.5"/>
<text text-anchor="start" x="496" y="-733.3" font-family="Times,serif" font-weight="bold" font-size="14.00">image_file:</text>
<text text-anchor="start" x="561" y="-733.3" font-family="Times,serif" font-size="14.00"> NewBedfordMercury1847_DigSur_2.png</text>
<polygon fill="none" stroke="black" points="455,-692.5 455,-721.5 489,-721.5 489,-692.5 455,-692.5"/>
<polygon fill="none" stroke="black" points="489,-692.5 489,-721.5 1059,-721.5 1059,-692.5 489,-692.5"/>
<text text-anchor="start" x="496" y="-704.3" font-family="Times,serif" font-weight="bold" font-size="14.00">image_parent_id:</text>
<text text-anchor="start" x="599" y="-704.3" font-family="Times,serif" font-size="14.00"> NewBedfordMercury1847_Original</text>
<polygon fill="none" stroke="black" points="455,-663.5 455,-692.5 489,-692.5 489,-663.5 455,-663.5"/>
<polygon fill="none" stroke="black" points="489,-663.5 489,-692.5 1059,-692.5 1059,-663.5 489,-663.5"/>
<text text-anchor="start" x="496" y="-675.3" font-family="Times,serif" font-weight="bold" font-size="14.00">image_object_location:</text>
<text text-anchor="start" x="631" y="-675.3" font-family="Times,serif" font-size="14.00"> objects/NewBedfordMercury1847/NewBedfordMercury1847_DigSur_2.png</text>
<polygon fill="none" stroke="black" points="455,-634.5 455,-663.5 489,-663.5 489,-634.5 455,-634.5"/>
<polygon fill="none" stroke="black" points="489,-634.5 489,-663.5 1059,-663.5 1059,-634.5 489,-634.5"/>
<text text-anchor="start" x="496" y="-646.3" font-family="Times,serif" font-weight="bold" font-size="14.00">image_display_template:</text>
<text text-anchor="start" x="642" y="-646.3" font-family="Times,serif" font-size="14.00"> image</text>
<polygon fill="none" stroke="black" points="455,-605.5 455,-634.5 489,-634.5 489,-605.5 455,-605.5"/>
<polygon fill="none" stroke="black" points="489,-605.5 489,-634.5 1059,-634.5 1059,-605.5 489,-605.5"/>
<text text-anchor="start" x="496" y="-617.3" font-family="Times,serif" font-weight="bold" font-size="14.00">image_description:</text>
<text text-anchor="start" x="608" y="-617.3" font-family="Times,serif" font-size="14.00"> </text>
<polygon fill="none" stroke="black" points="455,-576.5 455,-605.5 1059,-605.5 1059,-576.5 455,-576.5"/>
<text text-anchor="start" x="697" y="-588.3" font-family="Times,serif" font-style="italic" font-size="14.00">... and 6 more images</text>
<polygon fill="none" stroke="black" points="455,-547.5 455,-576.5 489,-576.5 489,-547.5 455,-547.5"/>
<text text-anchor="start" x="462" y="-559.3" font-family="Times,serif" font-weight="bold" font-size="14.00">FK</text>
<polygon fill="none" stroke="black" points="489,-547.5 489,-576.5 1059,-576.5 1059,-547.5 489,-547.5"/>
<text text-anchor="start" x="496" y="-559.3" font-family="Times,serif" font-weight="bold" font-size="14.00">article_id:</text>
<text text-anchor="start" x="556" y="-559.3" font-family="Times,serif" font-size="14.00"> NewBedfordMercury1847</text>
<polygon fill="none" stroke="black" stroke-width="2" points="454,-547 454,-1214 1060,-1214 1060,-547 454,-547"/>
</g>
<!-- Article&#45;&gt;Images -->
<g id="edge4" class="edge">
<title>Article&#45;&gt;Images</title>
<path fill="none" stroke="black" stroke-width="1.5" d="M315.1,-880.5C352.15,-880.5 393.01,-880.5 434.45,-880.5"/>
<polygon fill="black" stroke="black" stroke-width="1.5" points="434.72,-880.5 444.72,-885 439.72,-880.5 444.72,-880.5 444.72,-880.5 444.72,-880.5 439.72,-880.5 444.72,-876 434.72,-880.5 434.72,-880.5"/>
<text text-anchor="middle" x="364.77" y="-873.3" font-family="Times,serif" font-size="9.00">has</text>
<text text-anchor="middle" x="364.77" y="-863.3" font-family="Times,serif" font-size="9.00">(1:N)</text>
</g>
<!-- Reprints -->
<g id="node5" class="node">
<title>Reprints</title>
<polygon fill="#ffecb3" stroke="transparent" points="600,-436.5 600,-463.5 915,-463.5 915,-436.5 600,-436.5"/>
<polygon fill="none" stroke="black" points="600,-436.5 600,-463.5 915,-463.5 915,-436.5 600,-436.5"/>
<text text-anchor="start" x="683.5" y="-447.9" font-family="Times,serif" font-weight="bold" font-size="12.00">Reprints / Document Groups</text>
<polygon fill="none" stroke="black" points="600,-407.5 600,-436.5 634,-436.5 634,-407.5 600,-407.5"/>
<text text-anchor="start" x="607" y="-419.3" font-family="Times,serif" font-weight="bold" font-size="14.00">PK</text>
<polygon fill="none" stroke="black" points="634,-407.5 634,-436.5 915,-436.5 915,-407.5 634,-407.5"/>
<text text-anchor="start" x="641" y="-419.3" font-family="Times,serif" font-weight="bold" font-size="14.00">group_reprint_id:</text>
<text text-anchor="start" x="747" y="-419.3" font-family="Times,serif" font-size="14.00"> TheBostonAtlas1847_reprint</text>
<polygon fill="none" stroke="black" points="600,-378.5 600,-407.5 634,-407.5 634,-378.5 600,-378.5"/>
<polygon fill="none" stroke="black" points="634,-378.5 634,-407.5 915,-407.5 915,-378.5 634,-378.5"/>
<text text-anchor="start" x="641" y="-390.3" font-family="Times,serif" font-weight="bold" font-size="14.00">reprint_type:</text>
<text text-anchor="start" x="719" y="-390.3" font-family="Times,serif" font-size="14.00"> direct</text>
<polygon fill="none" stroke="black" points="600,-349.5 600,-378.5 634,-378.5 634,-349.5 600,-349.5"/>
<polygon fill="none" stroke="black" points="634,-349.5 634,-378.5 915,-378.5 915,-349.5 634,-349.5"/>
<text text-anchor="start" x="641" y="-361.3" font-family="Times,serif" font-weight="bold" font-size="14.00">reprint_order:</text>
<text text-anchor="start" x="726" y="-361.3" font-family="Times,serif" font-size="14.00"> </text>
<polygon fill="none" stroke="black" stroke-width="2" points="598.5,-348.5 598.5,-464.5 915.5,-464.5 915.5,-348.5 598.5,-348.5"/>
</g>
<!-- Article&#45;&gt;Reprints -->
<g id="edge5" class="edge">
<title>Article&#45;&gt;Reprints</title>
<path fill="none" stroke="black" stroke-width="1.5" d="M321.42,-667.25C385.92,-582.83 445,-505.5 445,-505.5 445,-505.5 509.16,-485.07 579.2,-462.78"/>
<polygon fill="black" stroke="black" stroke-width="1.5" points="321.23,-667.5 311.59,-672.71 318.2,-671.47 315.16,-675.44 315.16,-675.44 315.16,-675.44 318.2,-671.47 318.74,-678.18 321.23,-667.5 321.23,-667.5"/>
<polygon fill="black" stroke="black" stroke-width="1.5" points="579.59,-462.66 590.48,-463.91 584.36,-461.14 589.12,-459.62 589.12,-459.62 589.12,-459.62 584.36,-461.14 587.75,-455.33 579.59,-462.66 579.59,-462.66"/>
<text text-anchor="middle" x="407.46" y="-523.22" font-family="Times,serif" font-size="9.00">belongs to</text>
<text text-anchor="middle" x="407.46" y="-513.22" font-family="Times,serif" font-size="9.00">(N:M)</text>
</g>
<!-- Article_Trope -->
<g id="node6" class="node">
<title>Article_Trope</title>
<polygon fill="#ffe0e0" stroke="transparent" points="618,-237.5 618,-264.5 897,-264.5 897,-237.5 618,-237.5"/>
<polygon fill="none" stroke="black" points="618,-237.5 618,-264.5 897,-264.5 897,-237.5 618,-237.5"/>
<text text-anchor="start" x="725" y="-248.9" font-family="Times,serif" font-weight="bold" font-size="12.00">article_trope</text>
<polygon fill="none" stroke="black" points="618,-208.5 618,-237.5 675,-237.5 675,-208.5 618,-208.5"/>
<text text-anchor="start" x="625" y="-220.3" font-family="Times,serif" font-weight="bold" font-size="14.00">PK,FK</text>
<polygon fill="none" stroke="black" points="675,-208.5 675,-237.5 897,-237.5 897,-208.5 675,-208.5"/>
<text text-anchor="start" x="682" y="-220.3" font-family="Times,serif" font-weight="bold" font-size="14.00">article_id:</text>
<text text-anchor="start" x="742" y="-220.3" font-family="Times,serif" font-size="14.00"> NewBedfordMercury1847</text>
<polygon fill="none" stroke="black" points="618,-179.5 618,-208.5 675,-208.5 675,-179.5 618,-179.5"/>
<text text-anchor="start" x="625" y="-191.3" font-family="Times,serif" font-weight="bold" font-size="14.00">PK,FK</text>
<polygon fill="none" stroke="black" points="675,-179.5 675,-208.5 897,-208.5 897,-179.5 675,-179.5"/>
<text text-anchor="start" x="682" y="-191.3" font-family="Times,serif" font-weight="bold" font-size="14.00">trope_id:</text>
<polygon fill="none" stroke="black" points="618,-150.5 618,-179.5 897,-179.5 897,-150.5 618,-150.5"/>
<text text-anchor="start" x="724.5" y="-161.3" font-family="Times,serif" font-size="14.00">Lazy Indian</text>
<polygon fill="none" stroke="black" points="618,-121.5 618,-150.5 897,-150.5 897,-121.5 618,-121.5"/>
<text text-anchor="start" x="719.5" y="-132.3" font-family="Times,serif" font-size="14.00">Noble Savage</text>
<polygon fill="none" stroke="black" points="618,-92.5 618,-121.5 897,-121.5 897,-92.5 618,-92.5"/>
<text text-anchor="start" x="711.5" y="-103.3" font-family="Times,serif" font-size="14.00">Jump Overboard</text>
<polygon fill="none" stroke="black" points="618,-63.5 618,-92.5 897,-92.5 897,-63.5 618,-63.5"/>
<text text-anchor="start" x="720.5" y="-74.3" font-family="Times,serif" font-size="14.00">Indian Queen</text>
<polygon fill="none" stroke="black" points="618,-34.5 618,-63.5 897,-63.5 897,-34.5 618,-34.5"/>
<text text-anchor="start" x="725.5" y="-45.3" font-family="Times,serif" font-size="14.00">Girl Crusoe</text>
<polygon fill="none" stroke="black" points="618,-5.5 618,-34.5 897,-34.5 897,-5.5 618,-5.5"/>
<text text-anchor="start" x="727" y="-16.3" font-family="Times,serif" font-size="14.00">Wild Child</text>
<polygon fill="none" stroke="black" stroke-width="2" points="616.5,-5 616.5,-266 897.5,-266 897.5,-5 616.5,-5"/>
</g>
<!-- Article&#45;&gt;Article_Trope -->
<g id="edge6" class="edge">
<title>Article&#45;&gt;Article_Trope</title>
<path fill="none" stroke="black" stroke-width="1.5" d="M306.16,-585.19C376.28,-444.93 445,-307.5 445,-307.5 445,-307.5 521.37,-265.26 598.42,-222.65"/>
<polygon fill="black" stroke="black" stroke-width="1.5" points="598.58,-222.56 609.51,-221.66 602.96,-220.14 607.33,-217.72 607.33,-217.72 607.33,-217.72 602.96,-220.14 605.15,-213.78 598.58,-222.56 598.58,-222.56"/>
<text text-anchor="middle" x="404.78" y="-360.74" font-family="Times,serif" font-size="9.00">(1:N)</text>
</g>
<!-- Publication&#45;&gt;Location -->
<g id="edge3" class="edge">
<title>Publication&#45;&gt;Location</title>
<path fill="none" stroke="black" stroke-width="1.5" d="M924.7,-1464.46C1010.51,-1453.11 1114.53,-1439.36 1198.85,-1428.21"/>
<polygon fill="black" stroke="black" stroke-width="1.5" points="924.51,-1464.48 914.01,-1461.33 919.55,-1465.14 914.6,-1465.8 914.6,-1465.8 914.6,-1465.8 919.55,-1465.14 915.19,-1470.26 924.51,-1464.48 924.51,-1464.48"/>
<text text-anchor="middle" x="1044.77" y="-1439.14" font-family="Times,serif" font-size="9.00">located at</text>
<text text-anchor="middle" x="1044.77" y="-1429.14" font-family="Times,serif" font-size="9.00">(N:1)</text>
</g>
<!-- Trope -->
<g id="node7" class="node">
<title>Trope</title>
<polygon fill="#ffcdd2" stroke="transparent" points="98.5,-237.5 98.5,-264.5 216.5,-264.5 216.5,-237.5 98.5,-237.5"/>
<polygon fill="none" stroke="black" points="98.5,-237.5 98.5,-264.5 216.5,-264.5 216.5,-237.5 98.5,-237.5"/>
<text text-anchor="start" x="143.5" y="-248.9" font-family="Times,serif" font-weight="bold" font-size="12.00">trope</text>
<polygon fill="none" stroke="black" points="98.5,-208.5 98.5,-237.5 132.5,-237.5 132.5,-208.5 98.5,-208.5"/>
<text text-anchor="start" x="105.5" y="-220.3" font-family="Times,serif" font-weight="bold" font-size="14.00">PK</text>
<polygon fill="none" stroke="black" points="132.5,-208.5 132.5,-237.5 216.5,-237.5 216.5,-208.5 132.5,-208.5"/>
<text text-anchor="start" x="139.5" y="-220.3" font-family="Times,serif" font-weight="bold" font-size="14.00">trope_id:</text>
<polygon fill="none" stroke="black" points="98.5,-179.5 98.5,-208.5 132.5,-208.5 132.5,-179.5 98.5,-179.5"/>
<polygon fill="none" stroke="black" points="132.5,-179.5 132.5,-208.5 216.5,-208.5 216.5,-179.5 132.5,-179.5"/>
<text text-anchor="start" x="139.5" y="-191.3" font-family="Times,serif" font-weight="bold" font-size="14.00">trope_label:</text>
<polygon fill="none" stroke="black" points="98.5,-150.5 98.5,-179.5 216.5,-179.5 216.5,-150.5 98.5,-150.5"/>
<text text-anchor="start" x="124.5" y="-161.3" font-family="Times,serif" font-size="14.00">Lazy Indian</text>
<polygon fill="none" stroke="black" points="98.5,-121.5 98.5,-150.5 216.5,-150.5 216.5,-121.5 98.5,-121.5"/>
<text text-anchor="start" x="119.5" y="-132.3" font-family="Times,serif" font-size="14.00">Noble Savage</text>
<polygon fill="none" stroke="black" points="98.5,-92.5 98.5,-121.5 216.5,-121.5 216.5,-92.5 98.5,-92.5"/>
<text text-anchor="start" x="111.5" y="-103.3" font-family="Times,serif" font-size="14.00">Jump Overboard</text>
<polygon fill="none" stroke="black" points="98.5,-63.5 98.5,-92.5 216.5,-92.5 216.5,-63.5 98.5,-63.5"/>
<text text-anchor="start" x="120.5" y="-74.3" font-family="Times,serif" font-size="14.00">Indian Queen</text>
<polygon fill="none" stroke="black" points="98.5,-34.5 98.5,-63.5 216.5,-63.5 216.5,-34.5 98.5,-34.5"/>
<text text-anchor="start" x="125.5" y="-45.3" font-family="Times,serif" font-size="14.00">Girl Crusoe</text>
<polygon fill="none" stroke="black" points="98.5,-5.5 98.5,-34.5 216.5,-34.5 216.5,-5.5 98.5,-5.5"/>
<text text-anchor="start" x="127" y="-16.3" font-family="Times,serif" font-size="14.00">Wild Child</text>
<polygon fill="none" stroke="black" stroke-width="2" points="97.5,-5 97.5,-266 217.5,-266 217.5,-5 97.5,-5"/>
</g>
<!-- Trope&#45;&gt;Article_Trope -->
<g id="edge7" class="edge">
<title>Trope&#45;&gt;Article_Trope</title>
<path fill="none" stroke="black" stroke-width="1.5" d="M226.75,-135.5C316.4,-135.5 476.57,-135.5 597.3,-135.5"/>
<polygon fill="black" stroke="black" stroke-width="1.5" points="597.39,-135.5 607.39,-140 602.39,-135.5 607.39,-135.5 607.39,-135.5 607.39,-135.5 602.39,-135.5 607.39,-131 597.39,-135.5 597.39,-135.5"/>
<text text-anchor="middle" x="402.03" y="-128.3" font-family="Times,serif" font-size="9.00">(1:N)</text>
</g>
</g>
</svg>
