<?xml version="1.0" encoding="UTF-8" standalone="no"?>
<!DOCTYPE svg PUBLIC "-//W3C//DTD SVG 1.1//EN"
 "http://www.w3.org/Graphics/SVG/1.1/DTD/svg11.dtd">
<!-- Generated by graphviz version 2.50.0 (0)
 -->
<!-- Title: ERD_NewBedfordMercury1847 Pages: 1 -->
<svg width="1542pt" height="1581pt"
 viewBox="0.00 0.00 1542.00 1581.00" xmlns="http://www.w3.org/2000/svg" xmlns:xlink="http://www.w3.org/1999/xlink">
<g id="graph0" class="graph" transform="scale(1 1) rotate(0) translate(4 1577)">
<title>ERD_NewBedfordMercury1847</title>
<polygon fill="white" stroke="transparent" points="-4,4 -4,-1577 1538,-1577 1538,4 -4,4"/>
<text text-anchor="middle" x="767" y="-1557.8" font-family="Arial Bold" font-size="14.00">Entity Relationships for NewBedfordMercury1847</text>
<text text-anchor="middle" x="767" y="-1542.8" font-family="Arial Bold" font-size="14.00">(Reprint Type: direct)</text>
<!-- Article -->
<g id="node1" class="node">
<title>Article</title>
<polygon fill="#b4d7e5" stroke="transparent" points="10.5,-1156.5 10.5,-1183.5 325.5,-1183.5 325.5,-1156.5 10.5,-1156.5"/>
<polygon fill="none" stroke="black" points="10.5,-1156.5 10.5,-1183.5 325.5,-1183.5 325.5,-1156.5 10.5,-1156.5"/>
<text text-anchor="start" x="150.5" y="-1167.9" font-family="Times,serif" font-weight="bold" font-size="12.00">Article</text>
<polygon fill="none" stroke="black" points="10.5,-1127.5 10.5,-1156.5 44.5,-1156.5 44.5,-1127.5 10.5,-1127.5"/>
<text text-anchor="start" x="17.5" y="-1139.3" font-family="Times,serif" font-weight="bold" font-size="14.00">PK</text>
<polygon fill="none" stroke="black" points="44.5,-1127.5 44.5,-1156.5 325.5,-1156.5 325.5,-1127.5 44.5,-1127.5"/>
<text text-anchor="start" x="51.5" y="-1139.3" font-family="Times,serif" font-weight="bold" font-size="14.00">article_id:</text>
<text text-anchor="start" x="111.5" y="-1139.3" font-family="Times,serif" font-size="14.00"> NewBedfordMercury1847</text>
<polygon fill="none" stroke="black" points="10.5,-1098.5 10.5,-1127.5 44.5,-1127.5 44.5,-1098.5 10.5,-1098.5"/>
<polygon fill="none" stroke="black" points="44.5,-1098.5 44.5,-1127.5 325.5,-1127.5 325.5,-1098.5 44.5,-1098.5"/>
<text text-anchor="start" x="51.5" y="-1110.3" font-family="Times,serif" font-weight="bold" font-size="14.00">title:</text>
<text text-anchor="start" x="79.5" y="-1110.3" font-family="Times,serif" font-size="14.00"> &quot;A Female Crusoe&quot;</text>
<polygon fill="none" stroke="black" points="10.5,-1069.5 10.5,-1098.5 44.5,-1098.5 44.5,-1069.5 10.5,-1069.5"/>
<polygon fill="none" stroke="black" points="44.5,-1069.5 44.5,-1098.5 325.5,-1098.5 325.5,-1069.5 44.5,-1069.5"/>
<text text-anchor="start" x="51.5" y="-1081.3" font-family="Times,serif" font-weight="bold" font-size="14.00">author:</text>
<text text-anchor="start" x="95.5" y="-1081.3" font-family="Times,serif" font-size="14.00"> </text>
<polygon fill="none" stroke="black" points="10.5,-1040.5 10.5,-1069.5 44.5,-1069.5 44.5,-1040.5 10.5,-1040.5"/>
<polygon fill="none" stroke="black" points="44.5,-1040.5 44.5,-1069.5 325.5,-1069.5 325.5,-1040.5 44.5,-1040.5"/>
<text text-anchor="start" x="51.5" y="-1052.3" font-family="Times,serif" font-weight="bold" font-size="14.00">date:</text>
<text text-anchor="start" x="81.5" y="-1052.3" font-family="Times,serif" font-size="14.00"> 1847&#45;01&#45;15</text>
<polygon fill="none" stroke="black" points="10.5,-1011.5 10.5,-1040.5 44.5,-1040.5 44.5,-1011.5 10.5,-1011.5"/>
<polygon fill="none" stroke="black" points="44.5,-1011.5 44.5,-1040.5 325.5,-1040.5 325.5,-1011.5 44.5,-1011.5"/>
<text text-anchor="start" x="51.5" y="-1023.3" font-family="Times,serif" font-weight="bold" font-size="14.00">monograph_publishers:</text>
<text text-anchor="start" x="190.5" y="-1023.3" font-family="Times,serif" font-size="14.00"> </text>
<polygon fill="none" stroke="black" points="10.5,-982.5 10.5,-1011.5 44.5,-1011.5 44.5,-982.5 10.5,-982.5"/>
<polygon fill="none" stroke="black" points="44.5,-982.5 44.5,-1011.5 325.5,-1011.5 325.5,-982.5 44.5,-982.5"/>
<text text-anchor="start" x="51.5" y="-994.3" font-family="Times,serif" font-weight="bold" font-size="14.00">volume_number:</text>
<text text-anchor="start" x="152.5" y="-994.3" font-family="Times,serif" font-size="14.00"> 40</text>
<polygon fill="none" stroke="black" points="10.5,-953.5 10.5,-982.5 44.5,-982.5 44.5,-953.5 10.5,-953.5"/>
<polygon fill="none" stroke="black" points="44.5,-953.5 44.5,-982.5 325.5,-982.5 325.5,-953.5 44.5,-953.5"/>
<text text-anchor="start" x="51.5" y="-965.3" font-family="Times,serif" font-weight="bold" font-size="14.00">issue_number:</text>
<text text-anchor="start" x="137.5" y="-965.3" font-family="Times,serif" font-size="14.00"> no. 4</text>
<polygon fill="none" stroke="black" points="10.5,-924.5 10.5,-953.5 44.5,-953.5 44.5,-924.5 10.5,-924.5"/>
<polygon fill="none" stroke="black" points="44.5,-924.5 44.5,-953.5 325.5,-953.5 325.5,-924.5 44.5,-924.5"/>
<text text-anchor="start" x="51.5" y="-936.3" font-family="Times,serif" font-weight="bold" font-size="14.00">pages:</text>
<text text-anchor="start" x="88.5" y="-936.3" font-family="Times,serif" font-size="14.00"> 4</text>
<polygon fill="none" stroke="black" points="10.5,-895.5 10.5,-924.5 44.5,-924.5 44.5,-895.5 10.5,-895.5"/>
<polygon fill="none" stroke="black" points="44.5,-895.5 44.5,-924.5 325.5,-924.5 325.5,-895.5 44.5,-895.5"/>
<text text-anchor="start" x="51.5" y="-907.3" font-family="Times,serif" font-weight="bold" font-size="14.00">archival_holding:</text>
<text text-anchor="start" x="154.5" y="-907.3" font-family="Times,serif" font-size="14.00"> </text>
<polygon fill="none" stroke="black" points="10.5,-866.5 10.5,-895.5 44.5,-895.5 44.5,-866.5 10.5,-866.5"/>
<polygon fill="none" stroke="black" points="44.5,-866.5 44.5,-895.5 325.5,-895.5 325.5,-866.5 44.5,-866.5"/>
<text text-anchor="start" x="51.5" y="-878.3" font-family="Times,serif" font-weight="bold" font-size="14.00">archival_location:</text>
<text text-anchor="start" x="156.5" y="-878.3" font-family="Times,serif" font-size="14.00"> </text>
<polygon fill="none" stroke="black" points="10.5,-837.5 10.5,-866.5 44.5,-866.5 44.5,-837.5 10.5,-837.5"/>
<polygon fill="none" stroke="black" points="44.5,-837.5 44.5,-866.5 325.5,-866.5 325.5,-837.5 44.5,-837.5"/>
<text text-anchor="start" x="51.5" y="-849.3" font-family="Times,serif" font-weight="bold" font-size="14.00">cost:</text>
<text text-anchor="start" x="79.5" y="-849.3" font-family="Times,serif" font-size="14.00"> </text>
<polygon fill="none" stroke="black" points="10.5,-808.5 10.5,-837.5 44.5,-837.5 44.5,-808.5 10.5,-808.5"/>
<polygon fill="none" stroke="black" points="44.5,-808.5 44.5,-837.5 325.5,-837.5 325.5,-808.5 44.5,-808.5"/>
<text text-anchor="start" x="51.5" y="-820.3" font-family="Times,serif" font-weight="bold" font-size="14.00">permission:</text>
<text text-anchor="start" x="120.5" y="-820.3" font-family="Times,serif" font-size="14.00"> Public domain</text>
<polygon fill="none" stroke="black" points="10.5,-779.5 10.5,-808.5 44.5,-808.5 44.5,-779.5 10.5,-779.5"/>
<polygon fill="none" stroke="black" points="44.5,-779.5 44.5,-808.5 325.5,-808.5 325.5,-779.5 44.5,-779.5"/>
<text text-anchor="start" x="51.5" y="-791.3" font-family="Times,serif" font-weight="bold" font-size="14.00">permission_acknowledgement:</text>
<text text-anchor="start" x="231.5" y="-791.3" font-family="Times,serif" font-size="14.00"> </text>
<polygon fill="none" stroke="black" points="10.5,-750.5 10.5,-779.5 44.5,-779.5 44.5,-750.5 10.5,-750.5"/>
<polygon fill="none" stroke="black" points="44.5,-750.5 44.5,-779.5 325.5,-779.5 325.5,-750.5 44.5,-750.5"/>
<text text-anchor="start" x="51.5" y="-762.3" font-family="Times,serif" font-weight="bold" font-size="14.00">permission_statements:</text>
<text text-anchor="start" x="189.5" y="-762.3" font-family="Times,serif" font-size="14.00"> </text>
<polygon fill="none" stroke="black" points="10.5,-721.5 10.5,-750.5 44.5,-750.5 44.5,-721.5 10.5,-721.5"/>
<polygon fill="none" stroke="black" points="44.5,-721.5 44.5,-750.5 325.5,-750.5 325.5,-721.5 44.5,-721.5"/>
<text text-anchor="start" x="51.5" y="-733.3" font-family="Times,serif" font-weight="bold" font-size="14.00">acquisitions:</text>
<text text-anchor="start" x="124.5" y="-733.3" font-family="Times,serif" font-size="14.00"> </text>
<polygon fill="none" stroke="black" points="10.5,-692.5 10.5,-721.5 44.5,-721.5 44.5,-692.5 10.5,-692.5"/>
<polygon fill="none" stroke="black" points="44.5,-692.5 44.5,-721.5 325.5,-721.5 325.5,-692.5 44.5,-692.5"/>
<text text-anchor="start" x="51.5" y="-704.3" font-family="Times,serif" font-weight="bold" font-size="14.00">document_intro:</text>
<text text-anchor="start" x="149.5" y="-704.3" font-family="Times,serif" font-size="14.00"> </text>
<polygon fill="none" stroke="black" points="10.5,-663.5 10.5,-692.5 44.5,-692.5 44.5,-663.5 10.5,-663.5"/>
<polygon fill="none" stroke="black" points="44.5,-663.5 44.5,-692.5 325.5,-692.5 325.5,-663.5 44.5,-663.5"/>
<text text-anchor="start" x="51.5" y="-675.3" font-family="Times,serif" font-weight="bold" font-size="14.00">transcripts:</text>
<text text-anchor="start" x="119.5" y="-675.3" font-family="Times,serif" font-size="14.00"> </text>
<polygon fill="none" stroke="black" points="10.5,-634.5 10.5,-663.5 44.5,-663.5 44.5,-634.5 10.5,-634.5"/>
<text text-anchor="start" x="17.5" y="-646.3" font-family="Times,serif" font-weight="bold" font-size="14.00">FK</text>
<polygon fill="none" stroke="black" points="44.5,-634.5 44.5,-663.5 325.5,-663.5 325.5,-634.5 44.5,-634.5"/>
<text text-anchor="start" x="51.5" y="-646.3" font-family="Times,serif" font-weight="bold" font-size="14.00">group_reprint_id:</text>
<text text-anchor="start" x="157.5" y="-646.3" font-family="Times,serif" font-size="14.00"> TheBostonAtlas1847_reprint</text>
<polygon fill="none" stroke="black" points="10.5,-605.5 10.5,-634.5 44.5,-634.5 44.5,-605.5 10.5,-605.5"/>
<text text-anchor="start" x="17.5" y="-617.3" font-family="Times,serif" font-weight="bold" font-size="14.00">FK</text>
<polygon fill="none" stroke="black" points="44.5,-605.5 44.5,-634.5 325.5,-634.5 325.5,-605.5 44.5,-605.5"/>
<text text-anchor="start" x="51.5" y="-617.3" font-family="Times,serif" font-weight="bold" font-size="14.00">publisher_location:</text>
<text text-anchor="start" x="163.5" y="-617.3" font-family="Times,serif" font-size="14.00"> Bedford, Massachusetts</text>
<polygon fill="none" stroke="black" points="10.5,-576.5 10.5,-605.5 44.5,-605.5 44.5,-576.5 10.5,-576.5"/>
<text text-anchor="start" x="17.5" y="-588.3" font-family="Times,serif" font-weight="bold" font-size="14.00">FK</text>
<polygon fill="none" stroke="black" points="44.5,-576.5 44.5,-605.5 325.5,-605.5 325.5,-576.5 44.5,-576.5"/>
<text text-anchor="start" x="51.5" y="-588.3" font-family="Times,serif" font-weight="bold" font-size="14.00">publication:</text>
<text text-anchor="start" x="121.5" y="-588.3" font-family="Times,serif" font-size="14.00"> New&#45;Bedford (MA) Mercury</text>
<polygon fill="none" stroke="black" stroke-width="2" points="9,-576 9,-1185 326,-1185 326,-576 9,-576"/>
</g>
<!-- Publication -->
<g id="node2" class="node">
<title>Publication</title>
<polygon fill="#f4d9b0" stroke="transparent" points="630,-1501.5 630,-1528.5 925,-1528.5 925,-1501.5 630,-1501.5"/>
<polygon fill="none" stroke="black" points="630,-1501.5 630,-1528.5 925,-1528.5 925,-1501.5 630,-1501.5"/>
<text text-anchor="start" x="748.5" y="-1512.9" font-family="Times,serif" font-weight="bold" font-size="12.00">Publication</text>
<polygon fill="none" stroke="black" points="630,-1472.5 630,-1501.5 664,-1501.5 664,-1472.5 630,-1472.5"/>
<text text-anchor="start" x="637" y="-1484.3" font-family="Times,serif" font-weight="bold" font-size="14.00">PK</text>
<polygon fill="none" stroke="black" points="664,-1472.5 664,-1501.5 925,-1501.5 925,-1472.5 664,-1472.5"/>
<text text-anchor="start" x="671" y="-1484.3" font-family="Times,serif" font-weight="bold" font-size="14.00">publication:</text>
<text text-anchor="start" x="741" y="-1484.3" font-family="Times,serif" font-size="14.00"> New&#45;Bedford (MA) Mercury</text>
<polygon fill="none" stroke="black" points="630,-1443.5 630,-1472.5 664,-1472.5 664,-1443.5 630,-1443.5"/>
<text text-anchor="start" x="637" y="-1455.3" font-family="Times,serif" font-weight="bold" font-size="14.00">FK</text>
<polygon fill="none" stroke="black" points="664,-1443.5 664,-1472.5 925,-1472.5 925,-1443.5 664,-1443.5"/>
<text text-anchor="start" x="671" y="-1455.3" font-family="Times,serif" font-weight="bold" font-size="14.00">publisher_location:</text>
<text text-anchor="start" x="783" y="-1455.3" font-family="Times,serif" font-size="14.00"> Bedford, Massachusetts</text>
<polygon fill="none" stroke="black" stroke-width="2" points="628.5,-1443 628.5,-1530 925.5,-1530 925.5,-1443 628.5,-1443"/>
</g>
<!-- Article&#45;&gt;Publication -->
<g id="edge1" class="edge">
<title>Article&#45;&gt;Publication</title>
<path fill="none" stroke="black" stroke-width="1.5" d="M340.3,-1171.95C405.8,-1283.06 465,-1383.5 465,-1383.5 465,-1383.5 548.63,-1411.2 629.15,-1437.87"/>
<polygon fill="black" stroke="black" stroke-width="1.5" points="340.24,-1171.86 339.04,-1160.96 337.71,-1167.55 335.17,-1163.24 335.17,-1163.24 335.17,-1163.24 337.71,-1167.55 331.29,-1165.53 340.24,-1171.86 340.24,-1171.86"/>
<text text-anchor="middle" x="424.55" y="-1345.01" font-family="Times,serif" font-size="9.00">published in</text>
<text text-anchor="middle" x="424.55" y="-1335.01" font-family="Times,serif" font-size="9.00">(N:1)</text>
</g>
<!-- Location -->
<g id="node3" class="node">
<title>Location</title>
<polygon fill="#c8e6c9" stroke="transparent" points="1229.5,-1408.5 1229.5,-1435.5 1524.5,-1435.5 1524.5,-1408.5 1229.5,-1408.5"/>
<polygon fill="none" stroke="black" points="1229.5,-1408.5 1229.5,-1435.5 1524.5,-1435.5 1524.5,-1408.5 1229.5,-1408.5"/>
<text text-anchor="start" x="1354" y="-1419.9" font-family="Times,serif" font-weight="bold" font-size="12.00">Location</text>
<polygon fill="none" stroke="black" points="1229.5,-1379.5 1229.5,-1408.5 1263.5,-1408.5 1263.5,-1379.5 1229.5,-1379.5"/>
<text text-anchor="start" x="1236.5" y="-1391.3" font-family="Times,serif" font-weight="bold" font-size="14.00">PK</text>
<polygon fill="none" stroke="black" points="1263.5,-1379.5 1263.5,-1408.5 1524.5,-1408.5 1524.5,-1379.5 1263.5,-1379.5"/>
<text text-anchor="start" x="1270.5" y="-1391.3" font-family="Times,serif" font-weight="bold" font-size="14.00">publisher_location:</text>
<text text-anchor="start" x="1382.5" y="-1391.3" font-family="Times,serif" font-size="14.00"> Bedford, Massachusetts</text>
<polygon fill="none" stroke="black" stroke-width="2" points="1228,-1378.5 1228,-1436.5 1525,-1436.5 1525,-1378.5 1228,-1378.5"/>
</g>
<!-- Article&#45;&gt;Location -->
<g id="edge2" class="edge">
<title>Article&#45;&gt;Location</title>
<path fill="none" stroke="black" stroke-width="1.5" d="M341.48,-1098.69C406.5,-1180.72 465,-1254.5 465,-1254.5 465,-1254.5 958.65,-1337.45 1218.98,-1381.2"/>
<polygon fill="black" stroke="black" stroke-width="1.5" points="341.38,-1098.57 338.69,-1087.93 338.27,-1094.65 335.17,-1090.73 335.17,-1090.73 335.17,-1090.73 338.27,-1094.65 331.64,-1093.53 341.38,-1098.57 341.38,-1098.57"/>
<text text-anchor="middle" x="722.45" y="-1294.17" font-family="Times,serif" font-size="9.00">published at</text>
<text text-anchor="middle" x="722.45" y="-1284.17" font-family="Times,serif" font-size="9.00">(N:1)</text>
</g>
<!-- Images -->
<g id="node4" class="node">
<title>Images</title>
<polygon fill="#e1bee7" stroke="transparent" points="475,-1185.5 475,-1212.5 1079,-1212.5 1079,-1185.5 475,-1185.5"/>
<polygon fill="none" stroke="black" points="475,-1185.5 475,-1212.5 1079,-1212.5 1079,-1185.5 475,-1185.5"/>
<text text-anchor="start" x="737.5" y="-1196.9" font-family="Times,serif" font-weight="bold" font-size="12.00">Images (9 total)</text>
<polygon fill="none" stroke="black" points="475,-1156.5 475,-1185.5 509,-1185.5 509,-1156.5 475,-1156.5"/>
<text text-anchor="start" x="482" y="-1168.3" font-family="Times,serif" font-weight="bold" font-size="14.00">PK</text>
<polygon fill="none" stroke="black" points="509,-1156.5 509,-1185.5 1079,-1185.5 1079,-1156.5 509,-1156.5"/>
<text text-anchor="start" x="516" y="-1168.3" font-family="Times,serif" font-weight="bold" font-size="14.00">object_id:</text>
<text text-anchor="start" x="574" y="-1168.3" font-family="Times,serif" font-size="14.00"> NewBedfordMercury1847_Original</text>
<polygon fill="none" stroke="black" points="475,-1127.5 475,-1156.5 509,-1156.5 509,-1127.5 475,-1127.5"/>
<polygon fill="none" stroke="black" points="509,-1127.5 509,-1156.5 1079,-1156.5 1079,-1127.5 509,-1127.5"/>
<text text-anchor="start" x="516" y="-1139.3" font-family="Times,serif" font-weight="bold" font-size="14.00">image_file:</text>
<text text-anchor="start" x="581" y="-1139.3" font-family="Times,serif" font-size="14.00"> NewBedfordMercury1847_DigSur_1.png</text>
<polygon fill="none" stroke="black" points="475,-1098.5 475,-1127.5 509,-1127.5 509,-1098.5 475,-1098.5"/>
<polygon fill="none" stroke="black" points="509,-1098.5 509,-1127.5 1079,-1127.5 1079,-1098.5 509,-1098.5"/>
<text text-anchor="start" x="516" y="-1110.3" font-family="Times,serif" font-weight="bold" font-size="14.00">image_parent_id:</text>
<text text-anchor="start" x="619" y="-1110.3" font-family="Times,serif" font-size="14.00"> </text>
<polygon fill="none" stroke="black" points="475,-1069.5 475,-1098.5 509,-1098.5 509,-1069.5 475,-1069.5"/>
<polygon fill="none" stroke="black" points="509,-1069.5 509,-1098.5 1079,-1098.5 1079,-1069.5 509,-1069.5"/>
<text text-anchor="start" x="516" y="-1081.3" font-family="Times,serif" font-weight="bold" font-size="14.00">image_object_location:</text>
<text text-anchor="start" x="651" y="-1081.3" font-family="Times,serif" font-size="14.00"> objects/NewBedfordMercury1847/NewBedfordMercury1847_DigSur_1.png</text>
<polygon fill="none" stroke="black" points="475,-1040.5 475,-1069.5 509,-1069.5 509,-1040.5 475,-1040.5"/>
<polygon fill="none" stroke="black" points="509,-1040.5 509,-1069.5 1079,-1069.5 1079,-1040.5 509,-1040.5"/>
<text text-anchor="start" x="516" y="-1052.3" font-family="Times,serif" font-weight="bold" font-size="14.00">image_display_template:</text>
<text text-anchor="start" x="662" y="-1052.3" font-family="Times,serif" font-size="14.00"> compound_object</text>
<polygon fill="none" stroke="black" points="475,-1011.5 475,-1040.5 509,-1040.5 509,-1011.5 475,-1011.5"/>
<polygon fill="none" stroke="black" points="509,-1011.5 509,-1040.5 1079,-1040.5 1079,-1011.5 509,-1011.5"/>
<text text-anchor="start" x="516" y="-1023.3" font-family="Times,serif" font-weight="bold" font-size="14.00">image_description:</text>
<text text-anchor="start" x="628" y="-1023.3" font-family="Times,serif" font-size="14.00"> </text>
<polygon fill="#f0f0f0" stroke="transparent" points="475,-982.5 475,-1011.5 1079,-1011.5 1079,-982.5 475,-982.5"/>
<polygon fill="none" stroke="black" points="475,-982.5 475,-1011.5 1079,-1011.5 1079,-982.5 475,-982.5"/>
<text text-anchor="start" x="770" y="-993.3" font-family="Times,serif" font-size="14.00">&#45;&#45;&#45;</text>
<polygon fill="none" stroke="black" points="475,-953.5 475,-982.5 509,-982.5 509,-953.5 475,-953.5"/>
<text text-anchor="start" x="482" y="-965.3" font-family="Times,serif" font-weight="bold" font-size="14.00">PK</text>
<polygon fill="none" stroke="black" points="509,-953.5 509,-982.5 1079,-982.5 1079,-953.5 509,-953.5"/>
<text text-anchor="start" x="516" y="-965.3" font-family="Times,serif" font-weight="bold" font-size="14.00">object_id:</text>
<text text-anchor="start" x="574" y="-965.3" font-family="Times,serif" font-size="14.00"> NewBedfordMercury1847_img1</text>
<polygon fill="none" stroke="black" points="475,-924.5 475,-953.5 509,-953.5 509,-924.5 475,-924.5"/>
<polygon fill="none" stroke="black" points="509,-924.5 509,-953.5 1079,-953.5 1079,-924.5 509,-924.5"/>
<text text-anchor="start" x="516" y="-936.3" font-family="Times,serif" font-weight="bold" font-size="14.00">image_file:</text>
<text text-anchor="start" x="581" y="-936.3" font-family="Times,serif" font-size="14.00"> NewBedfordMercury1847_DigSur_1.png</text>
<polygon fill="none" stroke="black" points="475,-895.5 475,-924.5 509,-924.5 509,-895.5 475,-895.5"/>
<polygon fill="none" stroke="black" points="509,-895.5 509,-924.5 1079,-924.5 1079,-895.5 509,-895.5"/>
<text text-anchor="start" x="516" y="-907.3" font-family="Times,serif" font-weight="bold" font-size="14.00">image_parent_id:</text>
<text text-anchor="start" x="619" y="-907.3" font-family="Times,serif" font-size="14.00"> NewBedfordMercury1847_Original</text>
<polygon fill="none" stroke="black" points="475,-866.5 475,-895.5 509,-895.5 509,-866.5 475,-866.5"/>
<polygon fill="none" stroke="black" points="509,-866.5 509,-895.5 1079,-895.5 1079,-866.5 509,-866.5"/>
<text text-anchor="start" x="516" y="-878.3" font-family="Times,serif" font-weight="bold" font-size="14.00">image_object_location:</text>
<text text-anchor="start" x="651" y="-878.3" font-family="Times,serif" font-size="14.00"> objects/NewBedfordMercury1847/NewBedfordMercury1847_DigSur_1.png</text>
<polygon fill="none" stroke="black" points="475,-837.5 475,-866.5 509,-866.5 509,-837.5 475,-837.5"/>
<polygon fill="none" stroke="black" points="509,-837.5 509,-866.5 1079,-866.5 1079,-837.5 509,-837.5"/>
<text text-anchor="start" x="516" y="-849.3" font-family="Times,serif" font-weight="bold" font-size="14.00">image_display_template:</text>
<text text-anchor="start" x="662" y="-849.3" font-family="Times,serif" font-size="14.00"> image</text>
<polygon fill="none" stroke="black" points="475,-808.5 475,-837.5 509,-837.5 509,-808.5 475,-808.5"/>
<polygon fill="none" stroke="black" points="509,-808.5 509,-837.5 1079,-837.5 1079,-808.5 509,-808.5"/>
<text text-anchor="start" x="516" y="-820.3" font-family="Times,serif" font-weight="bold" font-size="14.00">image_description:</text>
<text text-anchor="start" x="628" y="-820.3" font-family="Times,serif" font-size="14.00"> </text>
<polygon fill="#f0f0f0" stroke="transparent" points="475,-779.5 475,-808.5 1079,-808.5 1079,-779.5 475,-779.5"/>
<polygon fill="none" stroke="black" points="475,-779.5 475,-808.5 1079,-808.5 1079,-779.5 475,-779.5"/>
<text text-anchor="start" x="770" y="-790.3" font-family="Times,serif" font-size="14.00">&#45;&#45;&#45;</text>
<polygon fill="none" stroke="black" points="475,-750.5 475,-779.5 509,-779.5 509,-750.5 475,-750.5"/>
<text text-anchor="start" x="482" y="-762.3" font-family="Times,serif" font-weight="bold" font-size="14.00">PK</text>
<polygon fill="none" stroke="black" points="509,-750.5 509,-779.5 1079,-779.5 1079,-750.5 509,-750.5"/>
<text text-anchor="start" x="516" y="-762.3" font-family="Times,serif" font-weight="bold" font-size="14.00">object_id:</text>
<text text-anchor="start" x="574" y="-762.3" font-family="Times,serif" font-size="14.00"> NewBedfordMercury1847_img2</text>
<polygon fill="none" stroke="black" points="475,-721.5 475,-750.5 509,-750.5 509,-721.5 475,-721.5"/>
<polygon fill="none" stroke="black" points="509,-721.5 509,-750.5 1079,-750.5 1079,-721.5 509,-721.5"/>
<text text-anchor="start" x="516" y="-733.3" font-family="Times,serif" font-weight="bold" font-size="14.00">image_file:</text>
<text text-anchor="start" x="581" y="-733.3" font-family="Times,serif" font-size="14.00"> NewBedfordMercury1847_DigSur_2.png</text>
<polygon fill="none" stroke="black" points="475,-692.5 475,-721.5 509,-721.5 509,-692.5 475,-692.5"/>
<polygon fill="none" stroke="black" points="509,-692.5 509,-721.5 1079,-721.5 1079,-692.5 509,-692.5"/>
<text text-anchor="start" x="516" y="-704.3" font-family="Times,serif" font-weight="bold" font-size="14.00">image_parent_id:</text>
<text text-anchor="start" x="619" y="-704.3" font-family="Times,serif" font-size="14.00"> NewBedfordMercury1847_Original</text>
<polygon fill="none" stroke="black" points="475,-663.5 475,-692.5 509,-692.5 509,-663.5 475,-663.5"/>
<polygon fill="none" stroke="black" points="509,-663.5 509,-692.5 1079,-692.5 1079,-663.5 509,-663.5"/>
<text text-anchor="start" x="516" y="-675.3" font-family="Times,serif" font-weight="bold" font-size="14.00">image_object_location:</text>
<text text-anchor="start" x="651" y="-675.3" font-family="Times,serif" font-size="14.00"> objects/NewBedfordMercury1847/NewBedfordMercury1847_DigSur_2.png</text>
<polygon fill="none" stroke="black" points="475,-634.5 475,-663.5 509,-663.5 509,-634.5 475,-634.5"/>
<polygon fill="none" stroke="black" points="509,-634.5 509,-663.5 1079,-663.5 1079,-634.5 509,-634.5"/>
<text text-anchor="start" x="516" y="-646.3" font-family="Times,serif" font-weight="bold" font-size="14.00">image_display_template:</text>
<text text-anchor="start" x="662" y="-646.3" font-family="Times,serif" font-size="14.00"> image</text>
<polygon fill="none" stroke="black" points="475,-605.5 475,-634.5 509,-634.5 509,-605.5 475,-605.5"/>
<polygon fill="none" stroke="black" points="509,-605.5 509,-634.5 1079,-634.5 1079,-605.5 509,-605.5"/>
<text text-anchor="start" x="516" y="-617.3" font-family="Times,serif" font-weight="bold" font-size="14.00">image_description:</text>
<text text-anchor="start" x="628" y="-617.3" font-family="Times,serif" font-size="14.00"> </text>
<polygon fill="none" stroke="black" points="475,-576.5 475,-605.5 1079,-605.5 1079,-576.5 475,-576.5"/>
<text text-anchor="start" x="717" y="-588.3" font-family="Times,serif" font-style="italic" font-size="14.00">... and 6 more images</text>
<polygon fill="none" stroke="black" points="475,-547.5 475,-576.5 509,-576.5 509,-547.5 475,-547.5"/>
<text text-anchor="start" x="482" y="-559.3" font-family="Times,serif" font-weight="bold" font-size="14.00">FK</text>
<polygon fill="none" stroke="black" points="509,-547.5 509,-576.5 1079,-576.5 1079,-547.5 509,-547.5"/>
<text text-anchor="start" x="516" y="-559.3" font-family="Times,serif" font-weight="bold" font-size="14.00">article_id:</text>
<text text-anchor="start" x="576" y="-559.3" font-family="Times,serif" font-size="14.00"> NewBedfordMercury1847</text>
<polygon fill="none" stroke="black" stroke-width="2" points="474,-547 474,-1214 1080,-1214 1080,-547 474,-547"/>
</g>
<!-- Article&#45;&gt;Images -->
<g id="edge4" class="edge">
<title>Article&#45;&gt;Images</title>
<path fill="none" stroke="black" stroke-width="1.5" d="M335.31,-880.5C372.62,-880.5 413.43,-880.5 454.67,-880.5"/>
<polygon fill="black" stroke="black" stroke-width="1.5" points="454.88,-880.5 464.88,-885 459.88,-880.5 464.88,-880.5 464.88,-880.5 464.88,-880.5 459.88,-880.5 464.88,-876 454.88,-880.5 454.88,-880.5"/>
<text text-anchor="middle" x="384.99" y="-873.3" font-family="Times,serif" font-size="9.00">has</text>
<text text-anchor="middle" x="384.99" y="-863.3" font-family="Times,serif" font-size="9.00">(1:N)</text>
</g>
<!-- Reprints -->
<g id="node5" class="node">
<title>Reprints</title>
<polygon fill="#ffecb3" stroke="transparent" points="620,-436.5 620,-463.5 935,-463.5 935,-436.5 620,-436.5"/>
<polygon fill="none" stroke="black" points="620,-436.5 620,-463.5 935,-463.5 935,-436.5 620,-436.5"/>
<text text-anchor="start" x="706" y="-447.9" font-family="Times,serif" font-weight="bold" font-size="12.00">Reprints / Document Group</text>
<polygon fill="none" stroke="black" points="620,-407.5 620,-436.5 654,-436.5 654,-407.5 620,-407.5"/>
<text text-anchor="start" x="627" y="-419.3" font-family="Times,serif" font-weight="bold" font-size="14.00">PK</text>
<polygon fill="none" stroke="black" points="654,-407.5 654,-436.5 935,-436.5 935,-407.5 654,-407.5"/>
<text text-anchor="start" x="661" y="-419.3" font-family="Times,serif" font-weight="bold" font-size="14.00">group_reprint_id:</text>
<text text-anchor="start" x="767" y="-419.3" font-family="Times,serif" font-size="14.00"> TheBostonAtlas1847_reprint</text>
<polygon fill="none" stroke="black" points="620,-378.5 620,-407.5 654,-407.5 654,-378.5 620,-378.5"/>
<polygon fill="none" stroke="black" points="654,-378.5 654,-407.5 935,-407.5 935,-378.5 654,-378.5"/>
<text text-anchor="start" x="661" y="-390.3" font-family="Times,serif" font-weight="bold" font-size="14.00">reprint_type:</text>
<text text-anchor="start" x="739" y="-390.3" font-family="Times,serif" font-size="14.00"> direct</text>
<polygon fill="none" stroke="black" points="620,-349.5 620,-378.5 654,-378.5 654,-349.5 620,-349.5"/>
<polygon fill="none" stroke="black" points="654,-349.5 654,-378.5 935,-378.5 935,-349.5 654,-349.5"/>
<text text-anchor="start" x="661" y="-361.3" font-family="Times,serif" font-weight="bold" font-size="14.00">reprint_order:</text>
<text text-anchor="start" x="746" y="-361.3" font-family="Times,serif" font-size="14.00"> </text>
<polygon fill="none" stroke="black" stroke-width="2" points="618.5,-348.5 618.5,-464.5 935.5,-464.5 935.5,-348.5 618.5,-348.5"/>
</g>
<!-- Article&#45;&gt;Reprints -->
<g id="edge5" class="edge">
<title>Article&#45;&gt;Reprints</title>
<path fill="none" stroke="black" stroke-width="1.5" d="M341.48,-661.73C406.5,-579.48 465,-505.5 465,-505.5 465,-505.5 535.34,-483.11 609.12,-459.62"/>
<polygon fill="black" stroke="black" stroke-width="1.5" points="341.37,-661.86 331.64,-666.92 338.27,-665.79 335.17,-669.71 335.17,-669.71 335.17,-669.71 338.27,-665.79 338.7,-672.5 341.37,-661.86 341.37,-661.86"/>
<text text-anchor="middle" x="431.64" y="-517.09" font-family="Times,serif" font-size="9.00">belongs to</text>
<text text-anchor="middle" x="431.64" y="-507.09" font-family="Times,serif" font-size="9.00">(N:1)</text>
</g>
<!-- Article_Trope -->
<g id="node6" class="node">
<title>Article_Trope</title>
<polygon fill="#ffe0e0" stroke="transparent" points="638,-237.5 638,-264.5 917,-264.5 917,-237.5 638,-237.5"/>
<polygon fill="none" stroke="black" points="638,-237.5 638,-264.5 917,-264.5 917,-237.5 638,-237.5"/>
<text text-anchor="start" x="745" y="-248.9" font-family="Times,serif" font-weight="bold" font-size="12.00">article_trope</text>
<polygon fill="none" stroke="black" points="638,-208.5 638,-237.5 695,-237.5 695,-208.5 638,-208.5"/>
<text text-anchor="start" x="645" y="-220.3" font-family="Times,serif" font-weight="bold" font-size="14.00">PK,FK</text>
<polygon fill="none" stroke="black" points="695,-208.5 695,-237.5 917,-237.5 917,-208.5 695,-208.5"/>
<text text-anchor="start" x="702" y="-220.3" font-family="Times,serif" font-weight="bold" font-size="14.00">article_id:</text>
<text text-anchor="start" x="762" y="-220.3" font-family="Times,serif" font-size="14.00"> NewBedfordMercury1847</text>
<polygon fill="none" stroke="black" points="638,-179.5 638,-208.5 695,-208.5 695,-179.5 638,-179.5"/>
<text text-anchor="start" x="645" y="-191.3" font-family="Times,serif" font-weight="bold" font-size="14.00">PK,FK</text>
<polygon fill="none" stroke="black" points="695,-179.5 695,-208.5 917,-208.5 917,-179.5 695,-179.5"/>
<text text-anchor="start" x="702" y="-191.3" font-family="Times,serif" font-weight="bold" font-size="14.00">trope_id:</text>
<polygon fill="none" stroke="black" points="638,-150.5 638,-179.5 917,-179.5 917,-150.5 638,-150.5"/>
<text text-anchor="start" x="744.5" y="-161.3" font-family="Times,serif" font-size="14.00">Lazy Indian</text>
<polygon fill="none" stroke="black" points="638,-121.5 638,-150.5 917,-150.5 917,-121.5 638,-121.5"/>
<text text-anchor="start" x="739.5" y="-132.3" font-family="Times,serif" font-size="14.00">Noble Savage</text>
<polygon fill="none" stroke="black" points="638,-92.5 638,-121.5 917,-121.5 917,-92.5 638,-92.5"/>
<text text-anchor="start" x="731.5" y="-103.3" font-family="Times,serif" font-size="14.00">Jump Overboard</text>
<polygon fill="none" stroke="black" points="638,-63.5 638,-92.5 917,-92.5 917,-63.5 638,-63.5"/>
<text text-anchor="start" x="740.5" y="-74.3" font-family="Times,serif" font-size="14.00">Indian Queen</text>
<polygon fill="none" stroke="black" points="638,-34.5 638,-63.5 917,-63.5 917,-34.5 638,-34.5"/>
<text text-anchor="start" x="745.5" y="-45.3" font-family="Times,serif" font-size="14.00">Girl Crusoe</text>
<polygon fill="none" stroke="black" points="638,-5.5 638,-34.5 917,-34.5 917,-5.5 638,-5.5"/>
<text text-anchor="start" x="747" y="-16.3" font-family="Times,serif" font-size="14.00">Wild Child</text>
<polygon fill="none" stroke="black" stroke-width="2" points="636.5,-5 636.5,-266 917.5,-266 917.5,-5 636.5,-5"/>
</g>
<!-- Article&#45;&gt;Article_Trope -->
<g id="edge6" class="edge">
<title>Article&#45;&gt;Article_Trope</title>
<path fill="none" stroke="black" stroke-width="1.5" d="M328.68,-570.94C398.62,-435.78 465,-307.5 465,-307.5 465,-307.5 541.37,-265.26 618.42,-222.65"/>
<polygon fill="black" stroke="black" stroke-width="1.5" points="618.58,-222.56 629.51,-221.66 622.96,-220.14 627.33,-217.72 627.33,-217.72 627.33,-217.72 622.96,-220.14 625.15,-213.78 618.58,-222.56 618.58,-222.56"/>
<text text-anchor="middle" x="427.13" y="-354.16" font-family="Times,serif" font-size="9.00">(1:N)</text>
</g>
<!-- Publication&#45;&gt;Location -->
<g id="edge3" class="edge">
<title>Publication&#45;&gt;Location</title>
<path fill="none" stroke="black" stroke-width="1.5" d="M944.7,-1464.46C1030.51,-1453.11 1134.53,-1439.36 1218.85,-1428.21"/>
<polygon fill="black" stroke="black" stroke-width="1.5" points="944.51,-1464.48 934.01,-1461.33 939.55,-1465.14 934.6,-1465.8 934.6,-1465.8 934.6,-1465.8 939.55,-1465.14 935.19,-1470.26 944.51,-1464.48 944.51,-1464.48"/>
<text text-anchor="middle" x="1064.77" y="-1439.14" font-family="Times,serif" font-size="9.00">located at</text>
<text text-anchor="middle" x="1064.77" y="-1429.14" font-family="Times,serif" font-size="9.00">(N:1)</text>
</g>
<!-- Trope -->
<g id="node7" class="node">
<title>Trope</title>
<polygon fill="#ffcdd2" stroke="transparent" points="108.5,-237.5 108.5,-264.5 226.5,-264.5 226.5,-237.5 108.5,-237.5"/>
<polygon fill="none" stroke="black" points="108.5,-237.5 108.5,-264.5 226.5,-264.5 226.5,-237.5 108.5,-237.5"/>
<text text-anchor="start" x="153.5" y="-248.9" font-family="Times,serif" font-weight="bold" font-size="12.00">trope</text>
<polygon fill="none" stroke="black" points="108.5,-208.5 108.5,-237.5 142.5,-237.5 142.5,-208.5 108.5,-208.5"/>
<text text-anchor="start" x="115.5" y="-220.3" font-family="Times,serif" font-weight="bold" font-size="14.00">PK</text>
<polygon fill="none" stroke="black" points="142.5,-208.5 142.5,-237.5 226.5,-237.5 226.5,-208.5 142.5,-208.5"/>
<text text-anchor="start" x="149.5" y="-220.3" font-family="Times,serif" font-weight="bold" font-size="14.00">trope_id:</text>
<polygon fill="none" stroke="black" points="108.5,-179.5 108.5,-208.5 142.5,-208.5 142.5,-179.5 108.5,-179.5"/>
<polygon fill="none" stroke="black" points="142.5,-179.5 142.5,-208.5 226.5,-208.5 226.5,-179.5 142.5,-179.5"/>
<text text-anchor="start" x="149.5" y="-191.3" font-family="Times,serif" font-weight="bold" font-size="14.00">trope_label:</text>
<polygon fill="none" stroke="black" points="108.5,-150.5 108.5,-179.5 226.5,-179.5 226.5,-150.5 108.5,-150.5"/>
<text text-anchor="start" x="134.5" y="-161.3" font-family="Times,serif" font-size="14.00">Lazy Indian</text>
<polygon fill="none" stroke="black" points="108.5,-121.5 108.5,-150.5 226.5,-150.5 226.5,-121.5 108.5,-121.5"/>
<text text-anchor="start" x="129.5" y="-132.3" font-family="Times,serif" font-size="14.00">Noble Savage</text>
<polygon fill="none" stroke="black" points="108.5,-92.5 108.5,-121.5 226.5,-121.5 226.5,-92.5 108.5,-92.5"/>
<text text-anchor="start" x="121.5" y="-103.3" font-family="Times,serif" font-size="14.00">Jump Overboard</text>
<polygon fill="none" stroke="black" points="108.5,-63.5 108.5,-92.5 226.5,-92.5 226.5,-63.5 108.5,-63.5"/>
<text text-anchor="start" x="130.5" y="-74.3" font-family="Times,serif" font-size="14.00">Indian Queen</text>
<polygon fill="none" stroke="black" points="108.5,-34.5 108.5,-63.5 226.5,-63.5 226.5,-34.5 108.5,-34.5"/>
<text text-anchor="start" x="135.5" y="-45.3" font-family="Times,serif" font-size="14.00">Girl Crusoe</text>
<polygon fill="none" stroke="black" points="108.5,-5.5 108.5,-34.5 226.5,-34.5 226.5,-5.5 108.5,-5.5"/>
<text text-anchor="start" x="137" y="-16.3" font-family="Times,serif" font-size="14.00">Wild Child</text>
<polygon fill="none" stroke="black" stroke-width="2" points="107.5,-5 107.5,-266 227.5,-266 227.5,-5 107.5,-5"/>
</g>
<!-- Trope&#45;&gt;Article_Trope -->
<g id="edge7" class="edge">
<title>Trope&#45;&gt;Article_Trope</title>
<path fill="none" stroke="black" stroke-width="1.5" d="M236.71,-135.5C328.21,-135.5 493.48,-135.5 617.03,-135.5"/>
<polygon fill="black" stroke="black" stroke-width="1.5" points="617.34,-135.5 627.34,-140 622.34,-135.5 627.34,-135.5 627.34,-135.5 627.34,-135.5 622.34,-135.5 627.34,-131 617.34,-135.5 617.34,-135.5"/>
<text text-anchor="middle" x="416.87" y="-128.3" font-family="Times,serif" font-size="9.00">(1:N)</text>
</g>
</g>
</svg>
