<?xml version="1.0" encoding="UTF-8" standalone="no"?>
<!DOCTYPE svg PUBLIC "-//W3C//DTD SVG 1.1//EN"
 "http://www.w3.org/Graphics/SVG/1.1/DTD/svg11.dtd">
<!-- Generated by graphviz version 2.50.0 (0)
 -->
<!-- Title: ERD_NewYorkEveningExpress1847 Pages: 1 -->
<svg width="1541pt" height="1581pt"
 viewBox="0.00 0.00 1541.00 1581.00" xmlns="http://www.w3.org/2000/svg" xmlns:xlink="http://www.w3.org/1999/xlink">
<g id="graph0" class="graph" transform="scale(1 1) rotate(0) translate(4 1577)">
<title>ERD_NewYorkEveningExpress1847</title>
<polygon fill="white" stroke="transparent" points="-4,4 -4,-1577 1537,-1577 1537,4 -4,4"/>
<text text-anchor="middle" x="766.5" y="-1557.8" font-family="Arial Bold" font-size="14.00">Entity Relationships for NewYorkEveningExpress1847</text>
<text text-anchor="middle" x="766.5" y="-1542.8" font-family="Arial Bold" font-size="14.00">(Reprint Type: direct)</text>
<!-- Article -->
<g id="node1" class="node">
<title>Article</title>
<polygon fill="#b4d7e5" stroke="transparent" points="10.5,-1142.5 10.5,-1169.5 291.5,-1169.5 291.5,-1142.5 10.5,-1142.5"/>
<polygon fill="none" stroke="black" points="10.5,-1142.5 10.5,-1169.5 291.5,-1169.5 291.5,-1142.5 10.5,-1142.5"/>
<text text-anchor="start" x="133.5" y="-1153.9" font-family="Times,serif" font-weight="bold" font-size="12.00">Article</text>
<polygon fill="none" stroke="black" points="10.5,-1113.5 10.5,-1142.5 44.5,-1142.5 44.5,-1113.5 10.5,-1113.5"/>
<text text-anchor="start" x="17.5" y="-1125.3" font-family="Times,serif" font-weight="bold" font-size="14.00">PK</text>
<polygon fill="none" stroke="black" points="44.5,-1113.5 44.5,-1142.5 291.5,-1142.5 291.5,-1113.5 44.5,-1113.5"/>
<text text-anchor="start" x="51.5" y="-1125.3" font-family="Times,serif" font-weight="bold" font-size="14.00">article_id:</text>
<text text-anchor="start" x="111.5" y="-1125.3" font-family="Times,serif" font-size="14.00"> NewYorkEveningExpress1847</text>
<polygon fill="none" stroke="black" points="10.5,-1084.5 10.5,-1113.5 44.5,-1113.5 44.5,-1084.5 10.5,-1084.5"/>
<polygon fill="none" stroke="black" points="44.5,-1084.5 44.5,-1113.5 291.5,-1113.5 291.5,-1084.5 44.5,-1084.5"/>
<text text-anchor="start" x="51.5" y="-1096.3" font-family="Times,serif" font-weight="bold" font-size="14.00">title:</text>
<text text-anchor="start" x="79.5" y="-1096.3" font-family="Times,serif" font-size="14.00"> &quot;A Female Crusoe&quot;</text>
<polygon fill="none" stroke="black" points="10.5,-1055.5 10.5,-1084.5 44.5,-1084.5 44.5,-1055.5 10.5,-1055.5"/>
<polygon fill="none" stroke="black" points="44.5,-1055.5 44.5,-1084.5 291.5,-1084.5 291.5,-1055.5 44.5,-1055.5"/>
<text text-anchor="start" x="51.5" y="-1067.3" font-family="Times,serif" font-weight="bold" font-size="14.00">author:</text>
<text text-anchor="start" x="95.5" y="-1067.3" font-family="Times,serif" font-size="14.00"> </text>
<polygon fill="none" stroke="black" points="10.5,-1026.5 10.5,-1055.5 44.5,-1055.5 44.5,-1026.5 10.5,-1026.5"/>
<polygon fill="none" stroke="black" points="44.5,-1026.5 44.5,-1055.5 291.5,-1055.5 291.5,-1026.5 44.5,-1026.5"/>
<text text-anchor="start" x="51.5" y="-1038.3" font-family="Times,serif" font-weight="bold" font-size="14.00">date:</text>
<text text-anchor="start" x="81.5" y="-1038.3" font-family="Times,serif" font-size="14.00"> 1847&#45;01&#45;08</text>
<polygon fill="none" stroke="black" points="10.5,-997.5 10.5,-1026.5 44.5,-1026.5 44.5,-997.5 10.5,-997.5"/>
<polygon fill="none" stroke="black" points="44.5,-997.5 44.5,-1026.5 291.5,-1026.5 291.5,-997.5 44.5,-997.5"/>
<text text-anchor="start" x="51.5" y="-1009.3" font-family="Times,serif" font-weight="bold" font-size="14.00">monograph_publishers:</text>
<text text-anchor="start" x="190.5" y="-1009.3" font-family="Times,serif" font-size="14.00"> </text>
<polygon fill="none" stroke="black" points="10.5,-968.5 10.5,-997.5 44.5,-997.5 44.5,-968.5 10.5,-968.5"/>
<polygon fill="none" stroke="black" points="44.5,-968.5 44.5,-997.5 291.5,-997.5 291.5,-968.5 44.5,-968.5"/>
<text text-anchor="start" x="51.5" y="-980.3" font-family="Times,serif" font-weight="bold" font-size="14.00">volume_number:</text>
<text text-anchor="start" x="152.5" y="-980.3" font-family="Times,serif" font-size="14.00"> </text>
<polygon fill="none" stroke="black" points="10.5,-939.5 10.5,-968.5 44.5,-968.5 44.5,-939.5 10.5,-939.5"/>
<polygon fill="none" stroke="black" points="44.5,-939.5 44.5,-968.5 291.5,-968.5 291.5,-939.5 44.5,-939.5"/>
<text text-anchor="start" x="51.5" y="-951.3" font-family="Times,serif" font-weight="bold" font-size="14.00">issue_number:</text>
<text text-anchor="start" x="137.5" y="-951.3" font-family="Times,serif" font-size="14.00"> </text>
<polygon fill="none" stroke="black" points="10.5,-910.5 10.5,-939.5 44.5,-939.5 44.5,-910.5 10.5,-910.5"/>
<polygon fill="none" stroke="black" points="44.5,-910.5 44.5,-939.5 291.5,-939.5 291.5,-910.5 44.5,-910.5"/>
<text text-anchor="start" x="51.5" y="-922.3" font-family="Times,serif" font-weight="bold" font-size="14.00">pages:</text>
<text text-anchor="start" x="88.5" y="-922.3" font-family="Times,serif" font-size="14.00"> 2&#45;3</text>
<polygon fill="none" stroke="black" points="10.5,-881.5 10.5,-910.5 44.5,-910.5 44.5,-881.5 10.5,-881.5"/>
<polygon fill="none" stroke="black" points="44.5,-881.5 44.5,-910.5 291.5,-910.5 291.5,-881.5 44.5,-881.5"/>
<text text-anchor="start" x="51.5" y="-893.3" font-family="Times,serif" font-weight="bold" font-size="14.00">archival_holding:</text>
<text text-anchor="start" x="154.5" y="-893.3" font-family="Times,serif" font-size="14.00"> </text>
<polygon fill="none" stroke="black" points="10.5,-852.5 10.5,-881.5 44.5,-881.5 44.5,-852.5 10.5,-852.5"/>
<polygon fill="none" stroke="black" points="44.5,-852.5 44.5,-881.5 291.5,-881.5 291.5,-852.5 44.5,-852.5"/>
<text text-anchor="start" x="51.5" y="-864.3" font-family="Times,serif" font-weight="bold" font-size="14.00">archival_location:</text>
<text text-anchor="start" x="156.5" y="-864.3" font-family="Times,serif" font-size="14.00"> </text>
<polygon fill="none" stroke="black" points="10.5,-823.5 10.5,-852.5 44.5,-852.5 44.5,-823.5 10.5,-823.5"/>
<polygon fill="none" stroke="black" points="44.5,-823.5 44.5,-852.5 291.5,-852.5 291.5,-823.5 44.5,-823.5"/>
<text text-anchor="start" x="51.5" y="-835.3" font-family="Times,serif" font-weight="bold" font-size="14.00">cost:</text>
<text text-anchor="start" x="79.5" y="-835.3" font-family="Times,serif" font-size="14.00"> </text>
<polygon fill="none" stroke="black" points="10.5,-794.5 10.5,-823.5 44.5,-823.5 44.5,-794.5 10.5,-794.5"/>
<polygon fill="none" stroke="black" points="44.5,-794.5 44.5,-823.5 291.5,-823.5 291.5,-794.5 44.5,-794.5"/>
<text text-anchor="start" x="51.5" y="-806.3" font-family="Times,serif" font-weight="bold" font-size="14.00">permission:</text>
<text text-anchor="start" x="120.5" y="-806.3" font-family="Times,serif" font-size="14.00"> Public domain</text>
<polygon fill="none" stroke="black" points="10.5,-765.5 10.5,-794.5 44.5,-794.5 44.5,-765.5 10.5,-765.5"/>
<polygon fill="none" stroke="black" points="44.5,-765.5 44.5,-794.5 291.5,-794.5 291.5,-765.5 44.5,-765.5"/>
<text text-anchor="start" x="51.5" y="-777.3" font-family="Times,serif" font-weight="bold" font-size="14.00">permission_acknowledgement:</text>
<text text-anchor="start" x="231.5" y="-777.3" font-family="Times,serif" font-size="14.00"> </text>
<polygon fill="none" stroke="black" points="10.5,-736.5 10.5,-765.5 44.5,-765.5 44.5,-736.5 10.5,-736.5"/>
<polygon fill="none" stroke="black" points="44.5,-736.5 44.5,-765.5 291.5,-765.5 291.5,-736.5 44.5,-736.5"/>
<text text-anchor="start" x="51.5" y="-748.3" font-family="Times,serif" font-weight="bold" font-size="14.00">permission_statements:</text>
<text text-anchor="start" x="189.5" y="-748.3" font-family="Times,serif" font-size="14.00"> </text>
<polygon fill="none" stroke="black" points="10.5,-707.5 10.5,-736.5 44.5,-736.5 44.5,-707.5 10.5,-707.5"/>
<polygon fill="none" stroke="black" points="44.5,-707.5 44.5,-736.5 291.5,-736.5 291.5,-707.5 44.5,-707.5"/>
<text text-anchor="start" x="51.5" y="-719.3" font-family="Times,serif" font-weight="bold" font-size="14.00">acquisitions:</text>
<text text-anchor="start" x="124.5" y="-719.3" font-family="Times,serif" font-size="14.00"> </text>
<polygon fill="none" stroke="black" points="10.5,-678.5 10.5,-707.5 44.5,-707.5 44.5,-678.5 10.5,-678.5"/>
<polygon fill="none" stroke="black" points="44.5,-678.5 44.5,-707.5 291.5,-707.5 291.5,-678.5 44.5,-678.5"/>
<text text-anchor="start" x="51.5" y="-690.3" font-family="Times,serif" font-weight="bold" font-size="14.00">document_intro:</text>
<text text-anchor="start" x="149.5" y="-690.3" font-family="Times,serif" font-size="14.00"> </text>
<polygon fill="none" stroke="black" points="10.5,-649.5 10.5,-678.5 44.5,-678.5 44.5,-649.5 10.5,-649.5"/>
<polygon fill="none" stroke="black" points="44.5,-649.5 44.5,-678.5 291.5,-678.5 291.5,-649.5 44.5,-649.5"/>
<text text-anchor="start" x="51.5" y="-661.3" font-family="Times,serif" font-weight="bold" font-size="14.00">transcripts:</text>
<text text-anchor="start" x="119.5" y="-661.3" font-family="Times,serif" font-size="14.00"> </text>
<polygon fill="none" stroke="black" points="10.5,-620.5 10.5,-649.5 44.5,-649.5 44.5,-620.5 10.5,-620.5"/>
<text text-anchor="start" x="17.5" y="-632.3" font-family="Times,serif" font-weight="bold" font-size="14.00">FK</text>
<polygon fill="none" stroke="black" points="44.5,-620.5 44.5,-649.5 291.5,-649.5 291.5,-620.5 44.5,-620.5"/>
<text text-anchor="start" x="51.5" y="-632.3" font-family="Times,serif" font-weight="bold" font-size="14.00">publisher_location:</text>
<text text-anchor="start" x="163.5" y="-632.3" font-family="Times,serif" font-size="14.00"> New York, New York</text>
<polygon fill="none" stroke="black" points="10.5,-591.5 10.5,-620.5 44.5,-620.5 44.5,-591.5 10.5,-591.5"/>
<text text-anchor="start" x="17.5" y="-603.3" font-family="Times,serif" font-weight="bold" font-size="14.00">FK</text>
<polygon fill="none" stroke="black" points="44.5,-591.5 44.5,-620.5 291.5,-620.5 291.5,-591.5 44.5,-591.5"/>
<text text-anchor="start" x="51.5" y="-603.3" font-family="Times,serif" font-weight="bold" font-size="14.00">publication:</text>
<text text-anchor="start" x="121.5" y="-603.3" font-family="Times,serif" font-size="14.00"> New York Evening Express</text>
<polygon fill="none" stroke="black" stroke-width="2" points="9,-590.5 9,-1170.5 292,-1170.5 292,-590.5 9,-590.5"/>
</g>
<!-- Publication -->
<g id="node2" class="node">
<title>Publication</title>
<polygon fill="#f4d9b0" stroke="transparent" points="626.5,-1501.5 626.5,-1528.5 907.5,-1528.5 907.5,-1501.5 626.5,-1501.5"/>
<polygon fill="none" stroke="black" points="626.5,-1501.5 626.5,-1528.5 907.5,-1528.5 907.5,-1501.5 626.5,-1501.5"/>
<text text-anchor="start" x="738" y="-1512.9" font-family="Times,serif" font-weight="bold" font-size="12.00">Publication</text>
<polygon fill="none" stroke="black" points="626.5,-1472.5 626.5,-1501.5 660.5,-1501.5 660.5,-1472.5 626.5,-1472.5"/>
<text text-anchor="start" x="633.5" y="-1484.3" font-family="Times,serif" font-weight="bold" font-size="14.00">PK</text>
<polygon fill="none" stroke="black" points="660.5,-1472.5 660.5,-1501.5 907.5,-1501.5 907.5,-1472.5 660.5,-1472.5"/>
<text text-anchor="start" x="667.5" y="-1484.3" font-family="Times,serif" font-weight="bold" font-size="14.00">publication:</text>
<text text-anchor="start" x="737.5" y="-1484.3" font-family="Times,serif" font-size="14.00"> New York Evening Express</text>
<polygon fill="none" stroke="black" points="626.5,-1443.5 626.5,-1472.5 660.5,-1472.5 660.5,-1443.5 626.5,-1443.5"/>
<text text-anchor="start" x="633.5" y="-1455.3" font-family="Times,serif" font-weight="bold" font-size="14.00">FK</text>
<polygon fill="none" stroke="black" points="660.5,-1443.5 660.5,-1472.5 907.5,-1472.5 907.5,-1443.5 660.5,-1443.5"/>
<text text-anchor="start" x="667.5" y="-1455.3" font-family="Times,serif" font-weight="bold" font-size="14.00">publisher_location:</text>
<text text-anchor="start" x="779.5" y="-1455.3" font-family="Times,serif" font-size="14.00"> New York, New York</text>
<polygon fill="none" stroke="black" stroke-width="2" points="625,-1443 625,-1530 908,-1530 908,-1443 625,-1443"/>
</g>
<!-- Article&#45;&gt;Publication -->
<g id="edge1" class="edge">
<title>Article&#45;&gt;Publication</title>
<path fill="none" stroke="black" stroke-width="1.5" d="M305.93,-1158.42C370.58,-1274.77 431,-1383.5 431,-1383.5 431,-1383.5 526.8,-1413 615.86,-1440.42"/>
<polygon fill="black" stroke="black" stroke-width="1.5" points="305.93,-1158.41 305,-1147.48 303.5,-1154.04 301.07,-1149.67 301.07,-1149.67 301.07,-1149.67 303.5,-1154.04 297.14,-1151.86 305.93,-1158.41 305.93,-1158.41"/>
<text text-anchor="middle" x="393.44" y="-1348.3" font-family="Times,serif" font-size="9.00">published in</text>
<text text-anchor="middle" x="393.44" y="-1338.3" font-family="Times,serif" font-size="9.00">(N:1)</text>
</g>
<!-- Location -->
<g id="node3" class="node">
<title>Location</title>
<polygon fill="#c8e6c9" stroke="transparent" points="1242.5,-1408.5 1242.5,-1435.5 1523.5,-1435.5 1523.5,-1408.5 1242.5,-1408.5"/>
<polygon fill="none" stroke="black" points="1242.5,-1408.5 1242.5,-1435.5 1523.5,-1435.5 1523.5,-1408.5 1242.5,-1408.5"/>
<text text-anchor="start" x="1360" y="-1419.9" font-family="Times,serif" font-weight="bold" font-size="12.00">Location</text>
<polygon fill="none" stroke="black" points="1242.5,-1379.5 1242.5,-1408.5 1276.5,-1408.5 1276.5,-1379.5 1242.5,-1379.5"/>
<text text-anchor="start" x="1249.5" y="-1391.3" font-family="Times,serif" font-weight="bold" font-size="14.00">PK</text>
<polygon fill="none" stroke="black" points="1276.5,-1379.5 1276.5,-1408.5 1523.5,-1408.5 1523.5,-1379.5 1276.5,-1379.5"/>
<text text-anchor="start" x="1283.5" y="-1391.3" font-family="Times,serif" font-weight="bold" font-size="14.00">publisher_location:</text>
<text text-anchor="start" x="1395.5" y="-1391.3" font-family="Times,serif" font-size="14.00"> New York, New York</text>
<polygon fill="none" stroke="black" stroke-width="2" points="1241,-1378.5 1241,-1436.5 1524,-1436.5 1524,-1378.5 1241,-1378.5"/>
</g>
<!-- Article&#45;&gt;Location -->
<g id="edge2" class="edge">
<title>Article&#45;&gt;Location</title>
<path fill="none" stroke="black" stroke-width="1.5" d="M307.09,-1088.7C371.31,-1174.63 431,-1254.5 431,-1254.5 431,-1254.5 964.26,-1340.34 1231.94,-1383.43"/>
<polygon fill="black" stroke="black" stroke-width="1.5" points="307.06,-1088.65 304.67,-1077.94 304.06,-1084.64 301.07,-1080.64 301.07,-1080.64 301.07,-1080.64 304.06,-1084.64 297.46,-1083.33 307.06,-1088.65 307.06,-1088.65"/>
<text text-anchor="middle" x="707.79" y="-1295.32" font-family="Times,serif" font-size="9.00">published at</text>
<text text-anchor="middle" x="707.79" y="-1285.32" font-family="Times,serif" font-size="9.00">(N:1)</text>
</g>
<!-- Images -->
<g id="node4" class="node">
<title>Images</title>
<polygon fill="#e1bee7" stroke="transparent" points="441.5,-1185.5 441.5,-1212.5 1092.5,-1212.5 1092.5,-1185.5 441.5,-1185.5"/>
<polygon fill="none" stroke="black" points="441.5,-1185.5 441.5,-1212.5 1092.5,-1212.5 1092.5,-1185.5 441.5,-1185.5"/>
<text text-anchor="start" x="727.5" y="-1196.9" font-family="Times,serif" font-weight="bold" font-size="12.00">Images (9 total)</text>
<polygon fill="none" stroke="black" points="441.5,-1156.5 441.5,-1185.5 475.5,-1185.5 475.5,-1156.5 441.5,-1156.5"/>
<text text-anchor="start" x="448.5" y="-1168.3" font-family="Times,serif" font-weight="bold" font-size="14.00">PK</text>
<polygon fill="none" stroke="black" points="475.5,-1156.5 475.5,-1185.5 1092.5,-1185.5 1092.5,-1156.5 475.5,-1156.5"/>
<text text-anchor="start" x="482.5" y="-1168.3" font-family="Times,serif" font-weight="bold" font-size="14.00">object_id:</text>
<text text-anchor="start" x="540.5" y="-1168.3" font-family="Times,serif" font-size="14.00"> NewYorkEveningExpress1847_Original</text>
<polygon fill="none" stroke="black" points="441.5,-1127.5 441.5,-1156.5 475.5,-1156.5 475.5,-1127.5 441.5,-1127.5"/>
<polygon fill="none" stroke="black" points="475.5,-1127.5 475.5,-1156.5 1092.5,-1156.5 1092.5,-1127.5 475.5,-1127.5"/>
<text text-anchor="start" x="482.5" y="-1139.3" font-family="Times,serif" font-weight="bold" font-size="14.00">image_file:</text>
<text text-anchor="start" x="547.5" y="-1139.3" font-family="Times,serif" font-size="14.00"> NewYorkEveningExpress1847_DigSur_1.png</text>
<polygon fill="none" stroke="black" points="441.5,-1098.5 441.5,-1127.5 475.5,-1127.5 475.5,-1098.5 441.5,-1098.5"/>
<polygon fill="none" stroke="black" points="475.5,-1098.5 475.5,-1127.5 1092.5,-1127.5 1092.5,-1098.5 475.5,-1098.5"/>
<text text-anchor="start" x="482.5" y="-1110.3" font-family="Times,serif" font-weight="bold" font-size="14.00">image_parent_id:</text>
<text text-anchor="start" x="585.5" y="-1110.3" font-family="Times,serif" font-size="14.00"> </text>
<polygon fill="none" stroke="black" points="441.5,-1069.5 441.5,-1098.5 475.5,-1098.5 475.5,-1069.5 441.5,-1069.5"/>
<polygon fill="none" stroke="black" points="475.5,-1069.5 475.5,-1098.5 1092.5,-1098.5 1092.5,-1069.5 475.5,-1069.5"/>
<text text-anchor="start" x="482.5" y="-1081.3" font-family="Times,serif" font-weight="bold" font-size="14.00">image_object_location:</text>
<text text-anchor="start" x="617.5" y="-1081.3" font-family="Times,serif" font-size="14.00"> objects/NewYorkEveningExpress1847/NewYorkEveningExpress1847_DigSur_1.png</text>
<polygon fill="none" stroke="black" points="441.5,-1040.5 441.5,-1069.5 475.5,-1069.5 475.5,-1040.5 441.5,-1040.5"/>
<polygon fill="none" stroke="black" points="475.5,-1040.5 475.5,-1069.5 1092.5,-1069.5 1092.5,-1040.5 475.5,-1040.5"/>
<text text-anchor="start" x="482.5" y="-1052.3" font-family="Times,serif" font-weight="bold" font-size="14.00">image_display_template:</text>
<text text-anchor="start" x="628.5" y="-1052.3" font-family="Times,serif" font-size="14.00"> compound_object</text>
<polygon fill="none" stroke="black" points="441.5,-1011.5 441.5,-1040.5 475.5,-1040.5 475.5,-1011.5 441.5,-1011.5"/>
<polygon fill="none" stroke="black" points="475.5,-1011.5 475.5,-1040.5 1092.5,-1040.5 1092.5,-1011.5 475.5,-1011.5"/>
<text text-anchor="start" x="482.5" y="-1023.3" font-family="Times,serif" font-weight="bold" font-size="14.00">image_description:</text>
<text text-anchor="start" x="594.5" y="-1023.3" font-family="Times,serif" font-size="14.00"> </text>
<polygon fill="#f0f0f0" stroke="transparent" points="441.5,-982.5 441.5,-1011.5 1092.5,-1011.5 1092.5,-982.5 441.5,-982.5"/>
<polygon fill="none" stroke="black" points="441.5,-982.5 441.5,-1011.5 1092.5,-1011.5 1092.5,-982.5 441.5,-982.5"/>
<text text-anchor="start" x="760" y="-993.3" font-family="Times,serif" font-size="14.00">&#45;&#45;&#45;</text>
<polygon fill="none" stroke="black" points="441.5,-953.5 441.5,-982.5 475.5,-982.5 475.5,-953.5 441.5,-953.5"/>
<text text-anchor="start" x="448.5" y="-965.3" font-family="Times,serif" font-weight="bold" font-size="14.00">PK</text>
<polygon fill="none" stroke="black" points="475.5,-953.5 475.5,-982.5 1092.5,-982.5 1092.5,-953.5 475.5,-953.5"/>
<text text-anchor="start" x="482.5" y="-965.3" font-family="Times,serif" font-weight="bold" font-size="14.00">object_id:</text>
<text text-anchor="start" x="540.5" y="-965.3" font-family="Times,serif" font-size="14.00"> NewYorkEveningExpress1847_img1</text>
<polygon fill="none" stroke="black" points="441.5,-924.5 441.5,-953.5 475.5,-953.5 475.5,-924.5 441.5,-924.5"/>
<polygon fill="none" stroke="black" points="475.5,-924.5 475.5,-953.5 1092.5,-953.5 1092.5,-924.5 475.5,-924.5"/>
<text text-anchor="start" x="482.5" y="-936.3" font-family="Times,serif" font-weight="bold" font-size="14.00">image_file:</text>
<text text-anchor="start" x="547.5" y="-936.3" font-family="Times,serif" font-size="14.00"> NewYorkEveningExpress1847_DigSur_1.png</text>
<polygon fill="none" stroke="black" points="441.5,-895.5 441.5,-924.5 475.5,-924.5 475.5,-895.5 441.5,-895.5"/>
<polygon fill="none" stroke="black" points="475.5,-895.5 475.5,-924.5 1092.5,-924.5 1092.5,-895.5 475.5,-895.5"/>
<text text-anchor="start" x="482.5" y="-907.3" font-family="Times,serif" font-weight="bold" font-size="14.00">image_parent_id:</text>
<text text-anchor="start" x="585.5" y="-907.3" font-family="Times,serif" font-size="14.00"> NewYorkEveningExpress1847_Original</text>
<polygon fill="none" stroke="black" points="441.5,-866.5 441.5,-895.5 475.5,-895.5 475.5,-866.5 441.5,-866.5"/>
<polygon fill="none" stroke="black" points="475.5,-866.5 475.5,-895.5 1092.5,-895.5 1092.5,-866.5 475.5,-866.5"/>
<text text-anchor="start" x="482.5" y="-878.3" font-family="Times,serif" font-weight="bold" font-size="14.00">image_object_location:</text>
<text text-anchor="start" x="617.5" y="-878.3" font-family="Times,serif" font-size="14.00"> objects/NewYorkEveningExpress1847/NewYorkEveningExpress1847_DigSur_1.png</text>
<polygon fill="none" stroke="black" points="441.5,-837.5 441.5,-866.5 475.5,-866.5 475.5,-837.5 441.5,-837.5"/>
<polygon fill="none" stroke="black" points="475.5,-837.5 475.5,-866.5 1092.5,-866.5 1092.5,-837.5 475.5,-837.5"/>
<text text-anchor="start" x="482.5" y="-849.3" font-family="Times,serif" font-weight="bold" font-size="14.00">image_display_template:</text>
<text text-anchor="start" x="628.5" y="-849.3" font-family="Times,serif" font-size="14.00"> image</text>
<polygon fill="none" stroke="black" points="441.5,-808.5 441.5,-837.5 475.5,-837.5 475.5,-808.5 441.5,-808.5"/>
<polygon fill="none" stroke="black" points="475.5,-808.5 475.5,-837.5 1092.5,-837.5 1092.5,-808.5 475.5,-808.5"/>
<text text-anchor="start" x="482.5" y="-820.3" font-family="Times,serif" font-weight="bold" font-size="14.00">image_description:</text>
<text text-anchor="start" x="594.5" y="-820.3" font-family="Times,serif" font-size="14.00"> </text>
<polygon fill="#f0f0f0" stroke="transparent" points="441.5,-779.5 441.5,-808.5 1092.5,-808.5 1092.5,-779.5 441.5,-779.5"/>
<polygon fill="none" stroke="black" points="441.5,-779.5 441.5,-808.5 1092.5,-808.5 1092.5,-779.5 441.5,-779.5"/>
<text text-anchor="start" x="760" y="-790.3" font-family="Times,serif" font-size="14.00">&#45;&#45;&#45;</text>
<polygon fill="none" stroke="black" points="441.5,-750.5 441.5,-779.5 475.5,-779.5 475.5,-750.5 441.5,-750.5"/>
<text text-anchor="start" x="448.5" y="-762.3" font-family="Times,serif" font-weight="bold" font-size="14.00">PK</text>
<polygon fill="none" stroke="black" points="475.5,-750.5 475.5,-779.5 1092.5,-779.5 1092.5,-750.5 475.5,-750.5"/>
<text text-anchor="start" x="482.5" y="-762.3" font-family="Times,serif" font-weight="bold" font-size="14.00">object_id:</text>
<text text-anchor="start" x="540.5" y="-762.3" font-family="Times,serif" font-size="14.00"> NewYorkEveningExpress1847_img2</text>
<polygon fill="none" stroke="black" points="441.5,-721.5 441.5,-750.5 475.5,-750.5 475.5,-721.5 441.5,-721.5"/>
<polygon fill="none" stroke="black" points="475.5,-721.5 475.5,-750.5 1092.5,-750.5 1092.5,-721.5 475.5,-721.5"/>
<text text-anchor="start" x="482.5" y="-733.3" font-family="Times,serif" font-weight="bold" font-size="14.00">image_file:</text>
<text text-anchor="start" x="547.5" y="-733.3" font-family="Times,serif" font-size="14.00"> NewYorkEveningExpress1847_DigSur_2.png</text>
<polygon fill="none" stroke="black" points="441.5,-692.5 441.5,-721.5 475.5,-721.5 475.5,-692.5 441.5,-692.5"/>
<polygon fill="none" stroke="black" points="475.5,-692.5 475.5,-721.5 1092.5,-721.5 1092.5,-692.5 475.5,-692.5"/>
<text text-anchor="start" x="482.5" y="-704.3" font-family="Times,serif" font-weight="bold" font-size="14.00">image_parent_id:</text>
<text text-anchor="start" x="585.5" y="-704.3" font-family="Times,serif" font-size="14.00"> NewYorkEveningExpress1847_Original</text>
<polygon fill="none" stroke="black" points="441.5,-663.5 441.5,-692.5 475.5,-692.5 475.5,-663.5 441.5,-663.5"/>
<polygon fill="none" stroke="black" points="475.5,-663.5 475.5,-692.5 1092.5,-692.5 1092.5,-663.5 475.5,-663.5"/>
<text text-anchor="start" x="482.5" y="-675.3" font-family="Times,serif" font-weight="bold" font-size="14.00">image_object_location:</text>
<text text-anchor="start" x="617.5" y="-675.3" font-family="Times,serif" font-size="14.00"> objects/NewYorkEveningExpress1847/NewYorkEveningExpress1847_DigSur_2.png</text>
<polygon fill="none" stroke="black" points="441.5,-634.5 441.5,-663.5 475.5,-663.5 475.5,-634.5 441.5,-634.5"/>
<polygon fill="none" stroke="black" points="475.5,-634.5 475.5,-663.5 1092.5,-663.5 1092.5,-634.5 475.5,-634.5"/>
<text text-anchor="start" x="482.5" y="-646.3" font-family="Times,serif" font-weight="bold" font-size="14.00">image_display_template:</text>
<text text-anchor="start" x="628.5" y="-646.3" font-family="Times,serif" font-size="14.00"> image</text>
<polygon fill="none" stroke="black" points="441.5,-605.5 441.5,-634.5 475.5,-634.5 475.5,-605.5 441.5,-605.5"/>
<polygon fill="none" stroke="black" points="475.5,-605.5 475.5,-634.5 1092.5,-634.5 1092.5,-605.5 475.5,-605.5"/>
<text text-anchor="start" x="482.5" y="-617.3" font-family="Times,serif" font-weight="bold" font-size="14.00">image_description:</text>
<text text-anchor="start" x="594.5" y="-617.3" font-family="Times,serif" font-size="14.00"> </text>
<polygon fill="none" stroke="black" points="441.5,-576.5 441.5,-605.5 1092.5,-605.5 1092.5,-576.5 441.5,-576.5"/>
<text text-anchor="start" x="707" y="-588.3" font-family="Times,serif" font-style="italic" font-size="14.00">... and 6 more images</text>
<polygon fill="none" stroke="black" points="441.5,-547.5 441.5,-576.5 475.5,-576.5 475.5,-547.5 441.5,-547.5"/>
<text text-anchor="start" x="448.5" y="-559.3" font-family="Times,serif" font-weight="bold" font-size="14.00">FK</text>
<polygon fill="none" stroke="black" points="475.5,-547.5 475.5,-576.5 1092.5,-576.5 1092.5,-547.5 475.5,-547.5"/>
<text text-anchor="start" x="482.5" y="-559.3" font-family="Times,serif" font-weight="bold" font-size="14.00">article_id:</text>
<text text-anchor="start" x="542.5" y="-559.3" font-family="Times,serif" font-size="14.00"> NewYorkEveningExpress1847</text>
<polygon fill="none" stroke="black" stroke-width="2" points="440,-547 440,-1214 1093,-1214 1093,-547 440,-547"/>
</g>
<!-- Article&#45;&gt;Images -->
<g id="edge4" class="edge">
<title>Article&#45;&gt;Images</title>
<path fill="none" stroke="black" stroke-width="1.5" d="M301.31,-880.5C338.04,-880.5 378.87,-880.5 420.66,-880.5"/>
<polygon fill="black" stroke="black" stroke-width="1.5" points="420.73,-880.5 430.73,-885 425.73,-880.5 430.73,-880.5 430.73,-880.5 430.73,-880.5 425.73,-880.5 430.73,-876 420.73,-880.5 420.73,-880.5"/>
<text text-anchor="middle" x="350.98" y="-873.3" font-family="Times,serif" font-size="9.00">has</text>
<text text-anchor="middle" x="350.98" y="-863.3" font-family="Times,serif" font-size="9.00">(1:N)</text>
</g>
<!-- Reprints -->
<g id="node5" class="node">
<title>Reprints</title>
<polygon fill="#ffecb3" stroke="transparent" points="609.5,-436.5 609.5,-463.5 924.5,-463.5 924.5,-436.5 609.5,-436.5"/>
<polygon fill="none" stroke="black" points="609.5,-436.5 609.5,-463.5 924.5,-463.5 924.5,-436.5 609.5,-436.5"/>
<text text-anchor="start" x="693" y="-447.9" font-family="Times,serif" font-weight="bold" font-size="12.00">Reprints / Document Groups</text>
<polygon fill="none" stroke="black" points="609.5,-407.5 609.5,-436.5 643.5,-436.5 643.5,-407.5 609.5,-407.5"/>
<text text-anchor="start" x="616.5" y="-419.3" font-family="Times,serif" font-weight="bold" font-size="14.00">PK</text>
<polygon fill="none" stroke="black" points="643.5,-407.5 643.5,-436.5 924.5,-436.5 924.5,-407.5 643.5,-407.5"/>
<text text-anchor="start" x="650.5" y="-419.3" font-family="Times,serif" font-weight="bold" font-size="14.00">group_reprint_id:</text>
<text text-anchor="start" x="756.5" y="-419.3" font-family="Times,serif" font-size="14.00"> TheBostonAtlas1847_reprint</text>
<polygon fill="none" stroke="black" points="609.5,-378.5 609.5,-407.5 643.5,-407.5 643.5,-378.5 609.5,-378.5"/>
<polygon fill="none" stroke="black" points="643.5,-378.5 643.5,-407.5 924.5,-407.5 924.5,-378.5 643.5,-378.5"/>
<text text-anchor="start" x="650.5" y="-390.3" font-family="Times,serif" font-weight="bold" font-size="14.00">reprint_type:</text>
<text text-anchor="start" x="728.5" y="-390.3" font-family="Times,serif" font-size="14.00"> direct</text>
<polygon fill="none" stroke="black" points="609.5,-349.5 609.5,-378.5 643.5,-378.5 643.5,-349.5 609.5,-349.5"/>
<polygon fill="none" stroke="black" points="643.5,-349.5 643.5,-378.5 924.5,-378.5 924.5,-349.5 643.5,-349.5"/>
<text text-anchor="start" x="650.5" y="-361.3" font-family="Times,serif" font-weight="bold" font-size="14.00">reprint_order:</text>
<text text-anchor="start" x="735.5" y="-361.3" font-family="Times,serif" font-size="14.00"> </text>
<polygon fill="none" stroke="black" stroke-width="2" points="608,-348.5 608,-464.5 925,-464.5 925,-348.5 608,-348.5"/>
</g>
<!-- Article&#45;&gt;Reprints -->
<g id="edge5" class="edge">
<title>Article&#45;&gt;Reprints</title>
<path fill="none" stroke="black" stroke-width="1.5" d="M307.09,-671.74C371.31,-585.59 431,-505.5 431,-505.5 431,-505.5 508.52,-482.56 588.93,-458.76"/>
<polygon fill="black" stroke="black" stroke-width="1.5" points="307.05,-671.81 297.46,-677.14 304.06,-675.82 301.07,-679.83 301.07,-679.83 301.07,-679.83 304.06,-675.82 304.68,-682.52 307.05,-671.81 307.05,-671.81"/>
<polygon fill="black" stroke="black" stroke-width="1.5" points="589.15,-458.69 600.02,-460.17 593.95,-457.27 598.74,-455.85 598.74,-455.85 598.74,-455.85 593.95,-457.27 597.46,-451.54 589.15,-458.69 589.15,-458.69"/>
<text text-anchor="middle" x="399.76" y="-515.39" font-family="Times,serif" font-size="9.00">belongs to</text>
<text text-anchor="middle" x="399.76" y="-505.39" font-family="Times,serif" font-size="9.00">(N:M)</text>
</g>
<!-- Article_Trope -->
<g id="node6" class="node">
<title>Article_Trope</title>
<polygon fill="#ffe0e0" stroke="transparent" points="615.5,-237.5 615.5,-264.5 918.5,-264.5 918.5,-237.5 615.5,-237.5"/>
<polygon fill="none" stroke="black" points="615.5,-237.5 615.5,-264.5 918.5,-264.5 918.5,-237.5 615.5,-237.5"/>
<text text-anchor="start" x="734.5" y="-248.9" font-family="Times,serif" font-weight="bold" font-size="12.00">article_trope</text>
<polygon fill="none" stroke="black" points="615.5,-208.5 615.5,-237.5 672.5,-237.5 672.5,-208.5 615.5,-208.5"/>
<text text-anchor="start" x="622.5" y="-220.3" font-family="Times,serif" font-weight="bold" font-size="14.00">PK,FK</text>
<polygon fill="none" stroke="black" points="672.5,-208.5 672.5,-237.5 918.5,-237.5 918.5,-208.5 672.5,-208.5"/>
<text text-anchor="start" x="679.5" y="-220.3" font-family="Times,serif" font-weight="bold" font-size="14.00">article_id:</text>
<text text-anchor="start" x="739.5" y="-220.3" font-family="Times,serif" font-size="14.00"> NewYorkEveningExpress1847</text>
<polygon fill="none" stroke="black" points="615.5,-179.5 615.5,-208.5 672.5,-208.5 672.5,-179.5 615.5,-179.5"/>
<text text-anchor="start" x="622.5" y="-191.3" font-family="Times,serif" font-weight="bold" font-size="14.00">PK,FK</text>
<polygon fill="none" stroke="black" points="672.5,-179.5 672.5,-208.5 918.5,-208.5 918.5,-179.5 672.5,-179.5"/>
<text text-anchor="start" x="679.5" y="-191.3" font-family="Times,serif" font-weight="bold" font-size="14.00">trope_id:</text>
<polygon fill="none" stroke="black" points="615.5,-150.5 615.5,-179.5 918.5,-179.5 918.5,-150.5 615.5,-150.5"/>
<text text-anchor="start" x="734" y="-161.3" font-family="Times,serif" font-size="14.00">Lazy Indian</text>
<polygon fill="none" stroke="black" points="615.5,-121.5 615.5,-150.5 918.5,-150.5 918.5,-121.5 615.5,-121.5"/>
<text text-anchor="start" x="729" y="-132.3" font-family="Times,serif" font-size="14.00">Noble Savage</text>
<polygon fill="none" stroke="black" points="615.5,-92.5 615.5,-121.5 918.5,-121.5 918.5,-92.5 615.5,-92.5"/>
<text text-anchor="start" x="721" y="-103.3" font-family="Times,serif" font-size="14.00">Jump Overboard</text>
<polygon fill="none" stroke="black" points="615.5,-63.5 615.5,-92.5 918.5,-92.5 918.5,-63.5 615.5,-63.5"/>
<text text-anchor="start" x="730" y="-74.3" font-family="Times,serif" font-size="14.00">Indian Queen</text>
<polygon fill="none" stroke="black" points="615.5,-34.5 615.5,-63.5 918.5,-63.5 918.5,-34.5 615.5,-34.5"/>
<text text-anchor="start" x="735" y="-45.3" font-family="Times,serif" font-size="14.00">Girl Crusoe</text>
<polygon fill="none" stroke="black" points="615.5,-5.5 615.5,-34.5 918.5,-34.5 918.5,-5.5 615.5,-5.5"/>
<text text-anchor="start" x="736.5" y="-16.3" font-family="Times,serif" font-size="14.00">Wild Child</text>
<polygon fill="none" stroke="black" stroke-width="2" points="614,-5 614,-266 919,-266 919,-5 614,-5"/>
</g>
<!-- Article&#45;&gt;Article_Trope -->
<g id="edge6" class="edge">
<title>Article&#45;&gt;Article_Trope</title>
<path fill="none" stroke="black" stroke-width="1.5" d="M295.55,-585.19C363.96,-444.93 431,-307.5 431,-307.5 431,-307.5 512.85,-265.41 595.58,-222.87"/>
<polygon fill="black" stroke="black" stroke-width="1.5" points="595.73,-222.8 606.68,-222.23 600.17,-220.51 604.62,-218.23 604.62,-218.23 604.62,-218.23 600.17,-220.51 602.56,-214.22 595.73,-222.8 595.73,-222.8"/>
<text text-anchor="middle" x="393.84" y="-355.98" font-family="Times,serif" font-size="9.00">(1:N)</text>
</g>
<!-- Publication&#45;&gt;Location -->
<g id="edge3" class="edge">
<title>Publication&#45;&gt;Location</title>
<path fill="none" stroke="black" stroke-width="1.5" d="M927.49,-1465.91C1021.54,-1453.81 1139.68,-1438.61 1231.87,-1426.75"/>
<polygon fill="black" stroke="black" stroke-width="1.5" points="927.23,-1465.95 916.73,-1462.76 922.27,-1466.59 917.31,-1467.22 917.31,-1467.22 917.31,-1467.22 922.27,-1466.59 917.88,-1471.69 927.23,-1465.95 927.23,-1465.95"/>
<text text-anchor="middle" x="1062.68" y="-1439.13" font-family="Times,serif" font-size="9.00">located at</text>
<text text-anchor="middle" x="1062.68" y="-1429.13" font-family="Times,serif" font-size="9.00">(N:1)</text>
</g>
<!-- Trope -->
<g id="node7" class="node">
<title>Trope</title>
<polygon fill="#ffcdd2" stroke="transparent" points="91.5,-237.5 91.5,-264.5 209.5,-264.5 209.5,-237.5 91.5,-237.5"/>
<polygon fill="none" stroke="black" points="91.5,-237.5 91.5,-264.5 209.5,-264.5 209.5,-237.5 91.5,-237.5"/>
<text text-anchor="start" x="136.5" y="-248.9" font-family="Times,serif" font-weight="bold" font-size="12.00">trope</text>
<polygon fill="none" stroke="black" points="91.5,-208.5 91.5,-237.5 125.5,-237.5 125.5,-208.5 91.5,-208.5"/>
<text text-anchor="start" x="98.5" y="-220.3" font-family="Times,serif" font-weight="bold" font-size="14.00">PK</text>
<polygon fill="none" stroke="black" points="125.5,-208.5 125.5,-237.5 209.5,-237.5 209.5,-208.5 125.5,-208.5"/>
<text text-anchor="start" x="132.5" y="-220.3" font-family="Times,serif" font-weight="bold" font-size="14.00">trope_id:</text>
<polygon fill="none" stroke="black" points="91.5,-179.5 91.5,-208.5 125.5,-208.5 125.5,-179.5 91.5,-179.5"/>
<polygon fill="none" stroke="black" points="125.5,-179.5 125.5,-208.5 209.5,-208.5 209.5,-179.5 125.5,-179.5"/>
<text text-anchor="start" x="132.5" y="-191.3" font-family="Times,serif" font-weight="bold" font-size="14.00">trope_label:</text>
<polygon fill="none" stroke="black" points="91.5,-150.5 91.5,-179.5 209.5,-179.5 209.5,-150.5 91.5,-150.5"/>
<text text-anchor="start" x="117.5" y="-161.3" font-family="Times,serif" font-size="14.00">Lazy Indian</text>
<polygon fill="none" stroke="black" points="91.5,-121.5 91.5,-150.5 209.5,-150.5 209.5,-121.5 91.5,-121.5"/>
<text text-anchor="start" x="112.5" y="-132.3" font-family="Times,serif" font-size="14.00">Noble Savage</text>
<polygon fill="none" stroke="black" points="91.5,-92.5 91.5,-121.5 209.5,-121.5 209.5,-92.5 91.5,-92.5"/>
<text text-anchor="start" x="104.5" y="-103.3" font-family="Times,serif" font-size="14.00">Jump Overboard</text>
<polygon fill="none" stroke="black" points="91.5,-63.5 91.5,-92.5 209.5,-92.5 209.5,-63.5 91.5,-63.5"/>
<text text-anchor="start" x="113.5" y="-74.3" font-family="Times,serif" font-size="14.00">Indian Queen</text>
<polygon fill="none" stroke="black" points="91.5,-34.5 91.5,-63.5 209.5,-63.5 209.5,-34.5 91.5,-34.5"/>
<text text-anchor="start" x="118.5" y="-45.3" font-family="Times,serif" font-size="14.00">Girl Crusoe</text>
<polygon fill="none" stroke="black" points="91.5,-5.5 91.5,-34.5 209.5,-34.5 209.5,-5.5 91.5,-5.5"/>
<text text-anchor="start" x="120" y="-16.3" font-family="Times,serif" font-size="14.00">Wild Child</text>
<polygon fill="none" stroke="black" stroke-width="2" points="90.5,-5 90.5,-266 210.5,-266 210.5,-5 90.5,-5"/>
</g>
<!-- Trope&#45;&gt;Article_Trope -->
<g id="edge7" class="edge">
<title>Trope&#45;&gt;Article_Trope</title>
<path fill="none" stroke="black" stroke-width="1.5" d="M219.55,-135.5C309.3,-135.5 470.33,-135.5 594.33,-135.5"/>
<polygon fill="black" stroke="black" stroke-width="1.5" points="594.7,-135.5 604.7,-140 599.7,-135.5 604.7,-135.5 604.7,-135.5 604.7,-135.5 599.7,-135.5 604.7,-131 594.7,-135.5 594.7,-135.5"/>
<text text-anchor="middle" x="396.94" y="-128.3" font-family="Times,serif" font-size="9.00">(1:N)</text>
</g>
</g>
</svg>
