<?xml version="1.0" encoding="UTF-8" standalone="no"?>
<!DOCTYPE svg PUBLIC "-//W3C//DTD SVG 1.1//EN"
 "http://www.w3.org/Graphics/SVG/1.1/DTD/svg11.dtd">
<!-- Generated by graphviz version 2.50.0 (0)
 -->
<!-- Title: ERD_NewYorkDailyTribune1847 Pages: 1 -->
<svg width="1914pt" height="1581pt"
 viewBox="0.00 0.00 1914.00 1581.00" xmlns="http://www.w3.org/2000/svg" xmlns:xlink="http://www.w3.org/1999/xlink">
<g id="graph0" class="graph" transform="scale(1 1) rotate(0) translate(4 1577)">
<title>ERD_NewYorkDailyTribune1847</title>
<polygon fill="white" stroke="transparent" points="-4,4 -4,-1577 1910,-1577 1910,4 -4,4"/>
<text text-anchor="middle" x="953" y="-1557.8" font-family="Arial Bold" font-size="14.00">Entity Relationships for NewYorkDailyTribune1847</text>
<text text-anchor="middle" x="953" y="-1542.8" font-family="Arial Bold" font-size="14.00">(Reprint Type: direct)</text>
<!-- Article -->
<g id="node1" class="node">
<title>Article</title>
<polygon fill="#b4d7e5" stroke="transparent" points="10,-1142.5 10,-1169.5 694,-1169.5 694,-1142.5 10,-1142.5"/>
<polygon fill="none" stroke="black" points="10,-1142.5 10,-1169.5 694,-1169.5 694,-1142.5 10,-1142.5"/>
<text text-anchor="start" x="334.5" y="-1153.9" font-family="Times,serif" font-weight="bold" font-size="12.00">Article</text>
<polygon fill="none" stroke="black" points="10,-1113.5 10,-1142.5 44,-1142.5 44,-1113.5 10,-1113.5"/>
<text text-anchor="start" x="17" y="-1125.3" font-family="Times,serif" font-weight="bold" font-size="14.00">PK</text>
<polygon fill="none" stroke="black" points="44,-1113.5 44,-1142.5 694,-1142.5 694,-1113.5 44,-1113.5"/>
<text text-anchor="start" x="51" y="-1125.3" font-family="Times,serif" font-weight="bold" font-size="14.00">article_id:</text>
<text text-anchor="start" x="111" y="-1125.3" font-family="Times,serif" font-size="14.00"> NewYorkDailyTribune1847</text>
<polygon fill="none" stroke="black" points="10,-1084.5 10,-1113.5 44,-1113.5 44,-1084.5 10,-1084.5"/>
<polygon fill="none" stroke="black" points="44,-1084.5 44,-1113.5 694,-1113.5 694,-1084.5 44,-1084.5"/>
<text text-anchor="start" x="51" y="-1096.3" font-family="Times,serif" font-weight="bold" font-size="14.00">title:</text>
<text text-anchor="start" x="79" y="-1096.3" font-family="Times,serif" font-size="14.00"> &quot;A Female Crusoe&quot;</text>
<polygon fill="none" stroke="black" points="10,-1055.5 10,-1084.5 44,-1084.5 44,-1055.5 10,-1055.5"/>
<polygon fill="none" stroke="black" points="44,-1055.5 44,-1084.5 694,-1084.5 694,-1055.5 44,-1055.5"/>
<text text-anchor="start" x="51" y="-1067.3" font-family="Times,serif" font-weight="bold" font-size="14.00">author:</text>
<text text-anchor="start" x="95" y="-1067.3" font-family="Times,serif" font-size="14.00"> </text>
<polygon fill="none" stroke="black" points="10,-1026.5 10,-1055.5 44,-1055.5 44,-1026.5 10,-1026.5"/>
<polygon fill="none" stroke="black" points="44,-1026.5 44,-1055.5 694,-1055.5 694,-1026.5 44,-1026.5"/>
<text text-anchor="start" x="51" y="-1038.3" font-family="Times,serif" font-weight="bold" font-size="14.00">date:</text>
<text text-anchor="start" x="81" y="-1038.3" font-family="Times,serif" font-size="14.00"> 1847&#45;01&#45;18</text>
<polygon fill="none" stroke="black" points="10,-997.5 10,-1026.5 44,-1026.5 44,-997.5 10,-997.5"/>
<polygon fill="none" stroke="black" points="44,-997.5 44,-1026.5 694,-1026.5 694,-997.5 44,-997.5"/>
<text text-anchor="start" x="51" y="-1009.3" font-family="Times,serif" font-weight="bold" font-size="14.00">monograph_publishers:</text>
<text text-anchor="start" x="190" y="-1009.3" font-family="Times,serif" font-size="14.00"> Greeley &amp; McElrath</text>
<polygon fill="none" stroke="black" points="10,-968.5 10,-997.5 44,-997.5 44,-968.5 10,-968.5"/>
<polygon fill="none" stroke="black" points="44,-968.5 44,-997.5 694,-997.5 694,-968.5 44,-968.5"/>
<text text-anchor="start" x="51" y="-980.3" font-family="Times,serif" font-weight="bold" font-size="14.00">volume_number:</text>
<text text-anchor="start" x="152" y="-980.3" font-family="Times,serif" font-size="14.00"> 6</text>
<polygon fill="none" stroke="black" points="10,-939.5 10,-968.5 44,-968.5 44,-939.5 10,-939.5"/>
<polygon fill="none" stroke="black" points="44,-939.5 44,-968.5 694,-968.5 694,-939.5 44,-939.5"/>
<text text-anchor="start" x="51" y="-951.3" font-family="Times,serif" font-weight="bold" font-size="14.00">issue_number:</text>
<text text-anchor="start" x="137" y="-951.3" font-family="Times,serif" font-size="14.00"> no. 243</text>
<polygon fill="none" stroke="black" points="10,-910.5 10,-939.5 44,-939.5 44,-910.5 10,-910.5"/>
<polygon fill="none" stroke="black" points="44,-910.5 44,-939.5 694,-939.5 694,-910.5 44,-910.5"/>
<text text-anchor="start" x="51" y="-922.3" font-family="Times,serif" font-weight="bold" font-size="14.00">pages:</text>
<text text-anchor="start" x="88" y="-922.3" font-family="Times,serif" font-size="14.00"> 4</text>
<polygon fill="none" stroke="black" points="10,-881.5 10,-910.5 44,-910.5 44,-881.5 10,-881.5"/>
<polygon fill="none" stroke="black" points="44,-881.5 44,-910.5 694,-910.5 694,-881.5 44,-881.5"/>
<text text-anchor="start" x="51" y="-893.3" font-family="Times,serif" font-weight="bold" font-size="14.00">archival_holding:</text>
<text text-anchor="start" x="154" y="-893.3" font-family="Times,serif" font-size="14.00"> </text>
<polygon fill="none" stroke="black" points="10,-852.5 10,-881.5 44,-881.5 44,-852.5 10,-852.5"/>
<polygon fill="none" stroke="black" points="44,-852.5 44,-881.5 694,-881.5 694,-852.5 44,-852.5"/>
<text text-anchor="start" x="51" y="-864.3" font-family="Times,serif" font-weight="bold" font-size="14.00">archival_location:</text>
<text text-anchor="start" x="156" y="-864.3" font-family="Times,serif" font-size="14.00"> </text>
<polygon fill="none" stroke="black" points="10,-823.5 10,-852.5 44,-852.5 44,-823.5 10,-823.5"/>
<polygon fill="none" stroke="black" points="44,-823.5 44,-852.5 694,-852.5 694,-823.5 44,-823.5"/>
<text text-anchor="start" x="51" y="-835.3" font-family="Times,serif" font-weight="bold" font-size="14.00">cost:</text>
<text text-anchor="start" x="79" y="-835.3" font-family="Times,serif" font-size="14.00"> </text>
<polygon fill="none" stroke="black" points="10,-794.5 10,-823.5 44,-823.5 44,-794.5 10,-794.5"/>
<polygon fill="none" stroke="black" points="44,-794.5 44,-823.5 694,-823.5 694,-794.5 44,-794.5"/>
<text text-anchor="start" x="51" y="-806.3" font-family="Times,serif" font-weight="bold" font-size="14.00">permission:</text>
<text text-anchor="start" x="120" y="-806.3" font-family="Times,serif" font-size="14.00"> Public domain</text>
<polygon fill="none" stroke="black" points="10,-765.5 10,-794.5 44,-794.5 44,-765.5 10,-765.5"/>
<polygon fill="none" stroke="black" points="44,-765.5 44,-794.5 694,-794.5 694,-765.5 44,-765.5"/>
<text text-anchor="start" x="51" y="-777.3" font-family="Times,serif" font-weight="bold" font-size="14.00">permission_acknowledgement:</text>
<text text-anchor="start" x="231" y="-777.3" font-family="Times,serif" font-size="14.00"> </text>
<polygon fill="none" stroke="black" points="10,-736.5 10,-765.5 44,-765.5 44,-736.5 10,-736.5"/>
<polygon fill="none" stroke="black" points="44,-736.5 44,-765.5 694,-765.5 694,-736.5 44,-736.5"/>
<text text-anchor="start" x="51" y="-748.3" font-family="Times,serif" font-weight="bold" font-size="14.00">permission_statements:</text>
<text text-anchor="start" x="189" y="-748.3" font-family="Times,serif" font-size="14.00"> </text>
<polygon fill="none" stroke="black" points="10,-707.5 10,-736.5 44,-736.5 44,-707.5 10,-707.5"/>
<polygon fill="none" stroke="black" points="44,-707.5 44,-736.5 694,-736.5 694,-707.5 44,-707.5"/>
<text text-anchor="start" x="51" y="-719.3" font-family="Times,serif" font-weight="bold" font-size="14.00">acquisitions:</text>
<text text-anchor="start" x="124" y="-719.3" font-family="Times,serif" font-size="14.00"> </text>
<polygon fill="none" stroke="black" points="10,-678.5 10,-707.5 44,-707.5 44,-678.5 10,-678.5"/>
<polygon fill="none" stroke="black" points="44,-678.5 44,-707.5 694,-707.5 694,-678.5 44,-678.5"/>
<text text-anchor="start" x="51" y="-690.3" font-family="Times,serif" font-weight="bold" font-size="14.00">document_intro:</text>
<text text-anchor="start" x="149" y="-690.3" font-family="Times,serif" font-size="14.00"> </text>
<polygon fill="none" stroke="black" points="10,-649.5 10,-678.5 44,-678.5 44,-649.5 10,-649.5"/>
<polygon fill="none" stroke="black" points="44,-649.5 44,-678.5 694,-678.5 694,-649.5 44,-649.5"/>
<text text-anchor="start" x="51" y="-661.3" font-family="Times,serif" font-weight="bold" font-size="14.00">transcripts:</text>
<text text-anchor="start" x="119" y="-661.3" font-family="Times,serif" font-size="14.00"> From the Boston Atlas. A Female Crusoe. Off the coast of Alta California, about two degrees distant,...</text>
<polygon fill="none" stroke="black" points="10,-620.5 10,-649.5 44,-649.5 44,-620.5 10,-620.5"/>
<text text-anchor="start" x="17" y="-632.3" font-family="Times,serif" font-weight="bold" font-size="14.00">FK</text>
<polygon fill="none" stroke="black" points="44,-620.5 44,-649.5 694,-649.5 694,-620.5 44,-620.5"/>
<text text-anchor="start" x="51" y="-632.3" font-family="Times,serif" font-weight="bold" font-size="14.00">publisher_location:</text>
<text text-anchor="start" x="163" y="-632.3" font-family="Times,serif" font-size="14.00"> New York, New York</text>
<polygon fill="none" stroke="black" points="10,-591.5 10,-620.5 44,-620.5 44,-591.5 10,-591.5"/>
<text text-anchor="start" x="17" y="-603.3" font-family="Times,serif" font-weight="bold" font-size="14.00">FK</text>
<polygon fill="none" stroke="black" points="44,-591.5 44,-620.5 694,-620.5 694,-591.5 44,-591.5"/>
<text text-anchor="start" x="51" y="-603.3" font-family="Times,serif" font-weight="bold" font-size="14.00">publication:</text>
<text text-anchor="start" x="121" y="-603.3" font-family="Times,serif" font-size="14.00"> New York Daily Tribune</text>
<polygon fill="none" stroke="black" stroke-width="2" points="9,-590.5 9,-1170.5 695,-1170.5 695,-590.5 9,-590.5"/>
</g>
<!-- Publication -->
<g id="node2" class="node">
<title>Publication</title>
<polygon fill="#f4d9b0" stroke="transparent" points="1014.5,-1501.5 1014.5,-1528.5 1295.5,-1528.5 1295.5,-1501.5 1014.5,-1501.5"/>
<polygon fill="none" stroke="black" points="1014.5,-1501.5 1014.5,-1528.5 1295.5,-1528.5 1295.5,-1501.5 1014.5,-1501.5"/>
<text text-anchor="start" x="1126" y="-1512.9" font-family="Times,serif" font-weight="bold" font-size="12.00">Publication</text>
<polygon fill="none" stroke="black" points="1014.5,-1472.5 1014.5,-1501.5 1048.5,-1501.5 1048.5,-1472.5 1014.5,-1472.5"/>
<text text-anchor="start" x="1021.5" y="-1484.3" font-family="Times,serif" font-weight="bold" font-size="14.00">PK</text>
<polygon fill="none" stroke="black" points="1048.5,-1472.5 1048.5,-1501.5 1295.5,-1501.5 1295.5,-1472.5 1048.5,-1472.5"/>
<text text-anchor="start" x="1055.5" y="-1484.3" font-family="Times,serif" font-weight="bold" font-size="14.00">publication:</text>
<text text-anchor="start" x="1125.5" y="-1484.3" font-family="Times,serif" font-size="14.00"> New York Daily Tribune</text>
<polygon fill="none" stroke="black" points="1014.5,-1443.5 1014.5,-1472.5 1048.5,-1472.5 1048.5,-1443.5 1014.5,-1443.5"/>
<text text-anchor="start" x="1021.5" y="-1455.3" font-family="Times,serif" font-weight="bold" font-size="14.00">FK</text>
<polygon fill="none" stroke="black" points="1048.5,-1443.5 1048.5,-1472.5 1295.5,-1472.5 1295.5,-1443.5 1048.5,-1443.5"/>
<text text-anchor="start" x="1055.5" y="-1455.3" font-family="Times,serif" font-weight="bold" font-size="14.00">publisher_location:</text>
<text text-anchor="start" x="1167.5" y="-1455.3" font-family="Times,serif" font-size="14.00"> New York, New York</text>
<polygon fill="none" stroke="black" stroke-width="2" points="1013,-1443 1013,-1530 1296,-1530 1296,-1443 1013,-1443"/>
</g>
<!-- Article&#45;&gt;Publication -->
<g id="edge1" class="edge">
<title>Article&#45;&gt;Publication</title>
<path fill="none" stroke="black" stroke-width="1.5" d="M642.28,-1183.01C744.25,-1289.64 834,-1383.5 834,-1383.5 834,-1383.5 920.56,-1411.41 1003.57,-1438.17"/>
<polygon fill="black" stroke="black" stroke-width="1.5" points="642.15,-1182.87 638.49,-1172.53 638.69,-1179.26 635.23,-1175.64 635.23,-1175.64 635.23,-1175.64 638.69,-1179.26 631.98,-1178.75 642.15,-1182.87 642.15,-1182.87"/>
<text text-anchor="middle" x="777.71" y="-1340.44" font-family="Times,serif" font-size="9.00">published in</text>
<text text-anchor="middle" x="777.71" y="-1330.44" font-family="Times,serif" font-size="9.00">(N:1)</text>
</g>
<!-- Location -->
<g id="node3" class="node">
<title>Location</title>
<polygon fill="#c8e6c9" stroke="transparent" points="1615.5,-1408.5 1615.5,-1435.5 1896.5,-1435.5 1896.5,-1408.5 1615.5,-1408.5"/>
<polygon fill="none" stroke="black" points="1615.5,-1408.5 1615.5,-1435.5 1896.5,-1435.5 1896.5,-1408.5 1615.5,-1408.5"/>
<text text-anchor="start" x="1733" y="-1419.9" font-family="Times,serif" font-weight="bold" font-size="12.00">Location</text>
<polygon fill="none" stroke="black" points="1615.5,-1379.5 1615.5,-1408.5 1649.5,-1408.5 1649.5,-1379.5 1615.5,-1379.5"/>
<text text-anchor="start" x="1622.5" y="-1391.3" font-family="Times,serif" font-weight="bold" font-size="14.00">PK</text>
<polygon fill="none" stroke="black" points="1649.5,-1379.5 1649.5,-1408.5 1896.5,-1408.5 1896.5,-1379.5 1649.5,-1379.5"/>
<text text-anchor="start" x="1656.5" y="-1391.3" font-family="Times,serif" font-weight="bold" font-size="14.00">publisher_location:</text>
<text text-anchor="start" x="1768.5" y="-1391.3" font-family="Times,serif" font-size="14.00"> New York, New York</text>
<polygon fill="none" stroke="black" stroke-width="2" points="1614,-1378.5 1614,-1436.5 1897,-1436.5 1897,-1378.5 1614,-1378.5"/>
</g>
<!-- Article&#45;&gt;Location -->
<g id="edge2" class="edge">
<title>Article&#45;&gt;Location</title>
<path fill="none" stroke="black" stroke-width="1.5" d="M712.29,-1159.87C782.05,-1214.11 834,-1254.5 834,-1254.5 834,-1254.5 1344.06,-1339.28 1604.81,-1382.62"/>
<polygon fill="black" stroke="black" stroke-width="1.5" points="712.05,-1159.67 706.91,-1149.98 708.1,-1156.61 704.15,-1153.54 704.15,-1153.54 704.15,-1153.54 708.1,-1156.61 701.39,-1157.09 712.05,-1159.67 712.05,-1159.67"/>
<text text-anchor="middle" x="1121.87" y="-1298.72" font-family="Times,serif" font-size="9.00">published at</text>
<text text-anchor="middle" x="1121.87" y="-1288.72" font-family="Times,serif" font-size="9.00">(N:1)</text>
</g>
<!-- Images -->
<g id="node4" class="node">
<title>Images</title>
<polygon fill="#e1bee7" stroke="transparent" points="844.5,-1185.5 844.5,-1212.5 1465.5,-1212.5 1465.5,-1185.5 844.5,-1185.5"/>
<polygon fill="none" stroke="black" points="844.5,-1185.5 844.5,-1212.5 1465.5,-1212.5 1465.5,-1185.5 844.5,-1185.5"/>
<text text-anchor="start" x="1115.5" y="-1196.9" font-family="Times,serif" font-weight="bold" font-size="12.00">Images (9 total)</text>
<polygon fill="none" stroke="black" points="844.5,-1156.5 844.5,-1185.5 878.5,-1185.5 878.5,-1156.5 844.5,-1156.5"/>
<text text-anchor="start" x="851.5" y="-1168.3" font-family="Times,serif" font-weight="bold" font-size="14.00">PK</text>
<polygon fill="none" stroke="black" points="878.5,-1156.5 878.5,-1185.5 1465.5,-1185.5 1465.5,-1156.5 878.5,-1156.5"/>
<text text-anchor="start" x="885.5" y="-1168.3" font-family="Times,serif" font-weight="bold" font-size="14.00">object_id:</text>
<text text-anchor="start" x="943.5" y="-1168.3" font-family="Times,serif" font-size="14.00"> NewYorkDailyTribune1847_Original</text>
<polygon fill="none" stroke="black" points="844.5,-1127.5 844.5,-1156.5 878.5,-1156.5 878.5,-1127.5 844.5,-1127.5"/>
<polygon fill="none" stroke="black" points="878.5,-1127.5 878.5,-1156.5 1465.5,-1156.5 1465.5,-1127.5 878.5,-1127.5"/>
<text text-anchor="start" x="885.5" y="-1139.3" font-family="Times,serif" font-weight="bold" font-size="14.00">image_file:</text>
<text text-anchor="start" x="950.5" y="-1139.3" font-family="Times,serif" font-size="14.00"> NewYorkDailyTribune1847_DigSur_1.png</text>
<polygon fill="none" stroke="black" points="844.5,-1098.5 844.5,-1127.5 878.5,-1127.5 878.5,-1098.5 844.5,-1098.5"/>
<polygon fill="none" stroke="black" points="878.5,-1098.5 878.5,-1127.5 1465.5,-1127.5 1465.5,-1098.5 878.5,-1098.5"/>
<text text-anchor="start" x="885.5" y="-1110.3" font-family="Times,serif" font-weight="bold" font-size="14.00">image_parent_id:</text>
<text text-anchor="start" x="988.5" y="-1110.3" font-family="Times,serif" font-size="14.00"> </text>
<polygon fill="none" stroke="black" points="844.5,-1069.5 844.5,-1098.5 878.5,-1098.5 878.5,-1069.5 844.5,-1069.5"/>
<polygon fill="none" stroke="black" points="878.5,-1069.5 878.5,-1098.5 1465.5,-1098.5 1465.5,-1069.5 878.5,-1069.5"/>
<text text-anchor="start" x="885.5" y="-1081.3" font-family="Times,serif" font-weight="bold" font-size="14.00">image_object_location:</text>
<text text-anchor="start" x="1020.5" y="-1081.3" font-family="Times,serif" font-size="14.00"> objects/NewYorkDailyTribune1847/NewYorkDailyTribune1847_DigSur_1.png</text>
<polygon fill="none" stroke="black" points="844.5,-1040.5 844.5,-1069.5 878.5,-1069.5 878.5,-1040.5 844.5,-1040.5"/>
<polygon fill="none" stroke="black" points="878.5,-1040.5 878.5,-1069.5 1465.5,-1069.5 1465.5,-1040.5 878.5,-1040.5"/>
<text text-anchor="start" x="885.5" y="-1052.3" font-family="Times,serif" font-weight="bold" font-size="14.00">image_display_template:</text>
<text text-anchor="start" x="1031.5" y="-1052.3" font-family="Times,serif" font-size="14.00"> compound_object</text>
<polygon fill="none" stroke="black" points="844.5,-1011.5 844.5,-1040.5 878.5,-1040.5 878.5,-1011.5 844.5,-1011.5"/>
<polygon fill="none" stroke="black" points="878.5,-1011.5 878.5,-1040.5 1465.5,-1040.5 1465.5,-1011.5 878.5,-1011.5"/>
<text text-anchor="start" x="885.5" y="-1023.3" font-family="Times,serif" font-weight="bold" font-size="14.00">image_description:</text>
<text text-anchor="start" x="997.5" y="-1023.3" font-family="Times,serif" font-size="14.00"> </text>
<polygon fill="#f0f0f0" stroke="transparent" points="844.5,-982.5 844.5,-1011.5 1465.5,-1011.5 1465.5,-982.5 844.5,-982.5"/>
<polygon fill="none" stroke="black" points="844.5,-982.5 844.5,-1011.5 1465.5,-1011.5 1465.5,-982.5 844.5,-982.5"/>
<text text-anchor="start" x="1148" y="-993.3" font-family="Times,serif" font-size="14.00">&#45;&#45;&#45;</text>
<polygon fill="none" stroke="black" points="844.5,-953.5 844.5,-982.5 878.5,-982.5 878.5,-953.5 844.5,-953.5"/>
<text text-anchor="start" x="851.5" y="-965.3" font-family="Times,serif" font-weight="bold" font-size="14.00">PK</text>
<polygon fill="none" stroke="black" points="878.5,-953.5 878.5,-982.5 1465.5,-982.5 1465.5,-953.5 878.5,-953.5"/>
<text text-anchor="start" x="885.5" y="-965.3" font-family="Times,serif" font-weight="bold" font-size="14.00">object_id:</text>
<text text-anchor="start" x="943.5" y="-965.3" font-family="Times,serif" font-size="14.00"> NewYorkDailyTribune1847_img1</text>
<polygon fill="none" stroke="black" points="844.5,-924.5 844.5,-953.5 878.5,-953.5 878.5,-924.5 844.5,-924.5"/>
<polygon fill="none" stroke="black" points="878.5,-924.5 878.5,-953.5 1465.5,-953.5 1465.5,-924.5 878.5,-924.5"/>
<text text-anchor="start" x="885.5" y="-936.3" font-family="Times,serif" font-weight="bold" font-size="14.00">image_file:</text>
<text text-anchor="start" x="950.5" y="-936.3" font-family="Times,serif" font-size="14.00"> NewYorkDailyTribune1847_DigSur_1.png</text>
<polygon fill="none" stroke="black" points="844.5,-895.5 844.5,-924.5 878.5,-924.5 878.5,-895.5 844.5,-895.5"/>
<polygon fill="none" stroke="black" points="878.5,-895.5 878.5,-924.5 1465.5,-924.5 1465.5,-895.5 878.5,-895.5"/>
<text text-anchor="start" x="885.5" y="-907.3" font-family="Times,serif" font-weight="bold" font-size="14.00">image_parent_id:</text>
<text text-anchor="start" x="988.5" y="-907.3" font-family="Times,serif" font-size="14.00"> NewYorkDailyTribune1847_Original</text>
<polygon fill="none" stroke="black" points="844.5,-866.5 844.5,-895.5 878.5,-895.5 878.5,-866.5 844.5,-866.5"/>
<polygon fill="none" stroke="black" points="878.5,-866.5 878.5,-895.5 1465.5,-895.5 1465.5,-866.5 878.5,-866.5"/>
<text text-anchor="start" x="885.5" y="-878.3" font-family="Times,serif" font-weight="bold" font-size="14.00">image_object_location:</text>
<text text-anchor="start" x="1020.5" y="-878.3" font-family="Times,serif" font-size="14.00"> objects/NewYorkDailyTribune1847/NewYorkDailyTribune1847_DigSur_1.png</text>
<polygon fill="none" stroke="black" points="844.5,-837.5 844.5,-866.5 878.5,-866.5 878.5,-837.5 844.5,-837.5"/>
<polygon fill="none" stroke="black" points="878.5,-837.5 878.5,-866.5 1465.5,-866.5 1465.5,-837.5 878.5,-837.5"/>
<text text-anchor="start" x="885.5" y="-849.3" font-family="Times,serif" font-weight="bold" font-size="14.00">image_display_template:</text>
<text text-anchor="start" x="1031.5" y="-849.3" font-family="Times,serif" font-size="14.00"> image</text>
<polygon fill="none" stroke="black" points="844.5,-808.5 844.5,-837.5 878.5,-837.5 878.5,-808.5 844.5,-808.5"/>
<polygon fill="none" stroke="black" points="878.5,-808.5 878.5,-837.5 1465.5,-837.5 1465.5,-808.5 878.5,-808.5"/>
<text text-anchor="start" x="885.5" y="-820.3" font-family="Times,serif" font-weight="bold" font-size="14.00">image_description:</text>
<text text-anchor="start" x="997.5" y="-820.3" font-family="Times,serif" font-size="14.00"> </text>
<polygon fill="#f0f0f0" stroke="transparent" points="844.5,-779.5 844.5,-808.5 1465.5,-808.5 1465.5,-779.5 844.5,-779.5"/>
<polygon fill="none" stroke="black" points="844.5,-779.5 844.5,-808.5 1465.5,-808.5 1465.5,-779.5 844.5,-779.5"/>
<text text-anchor="start" x="1148" y="-790.3" font-family="Times,serif" font-size="14.00">&#45;&#45;&#45;</text>
<polygon fill="none" stroke="black" points="844.5,-750.5 844.5,-779.5 878.5,-779.5 878.5,-750.5 844.5,-750.5"/>
<text text-anchor="start" x="851.5" y="-762.3" font-family="Times,serif" font-weight="bold" font-size="14.00">PK</text>
<polygon fill="none" stroke="black" points="878.5,-750.5 878.5,-779.5 1465.5,-779.5 1465.5,-750.5 878.5,-750.5"/>
<text text-anchor="start" x="885.5" y="-762.3" font-family="Times,serif" font-weight="bold" font-size="14.00">object_id:</text>
<text text-anchor="start" x="943.5" y="-762.3" font-family="Times,serif" font-size="14.00"> NewYorkDailyTribune1847_img2</text>
<polygon fill="none" stroke="black" points="844.5,-721.5 844.5,-750.5 878.5,-750.5 878.5,-721.5 844.5,-721.5"/>
<polygon fill="none" stroke="black" points="878.5,-721.5 878.5,-750.5 1465.5,-750.5 1465.5,-721.5 878.5,-721.5"/>
<text text-anchor="start" x="885.5" y="-733.3" font-family="Times,serif" font-weight="bold" font-size="14.00">image_file:</text>
<text text-anchor="start" x="950.5" y="-733.3" font-family="Times,serif" font-size="14.00"> NewYorkDailyTribune1847_DigSur_2.png</text>
<polygon fill="none" stroke="black" points="844.5,-692.5 844.5,-721.5 878.5,-721.5 878.5,-692.5 844.5,-692.5"/>
<polygon fill="none" stroke="black" points="878.5,-692.5 878.5,-721.5 1465.5,-721.5 1465.5,-692.5 878.5,-692.5"/>
<text text-anchor="start" x="885.5" y="-704.3" font-family="Times,serif" font-weight="bold" font-size="14.00">image_parent_id:</text>
<text text-anchor="start" x="988.5" y="-704.3" font-family="Times,serif" font-size="14.00"> NewYorkDailyTribune1847_Original</text>
<polygon fill="none" stroke="black" points="844.5,-663.5 844.5,-692.5 878.5,-692.5 878.5,-663.5 844.5,-663.5"/>
<polygon fill="none" stroke="black" points="878.5,-663.5 878.5,-692.5 1465.5,-692.5 1465.5,-663.5 878.5,-663.5"/>
<text text-anchor="start" x="885.5" y="-675.3" font-family="Times,serif" font-weight="bold" font-size="14.00">image_object_location:</text>
<text text-anchor="start" x="1020.5" y="-675.3" font-family="Times,serif" font-size="14.00"> objects/NewYorkDailyTribune1847/NewYorkDailyTribune1847_DigSur_2.png</text>
<polygon fill="none" stroke="black" points="844.5,-634.5 844.5,-663.5 878.5,-663.5 878.5,-634.5 844.5,-634.5"/>
<polygon fill="none" stroke="black" points="878.5,-634.5 878.5,-663.5 1465.5,-663.5 1465.5,-634.5 878.5,-634.5"/>
<text text-anchor="start" x="885.5" y="-646.3" font-family="Times,serif" font-weight="bold" font-size="14.00">image_display_template:</text>
<text text-anchor="start" x="1031.5" y="-646.3" font-family="Times,serif" font-size="14.00"> image</text>
<polygon fill="none" stroke="black" points="844.5,-605.5 844.5,-634.5 878.5,-634.5 878.5,-605.5 844.5,-605.5"/>
<polygon fill="none" stroke="black" points="878.5,-605.5 878.5,-634.5 1465.5,-634.5 1465.5,-605.5 878.5,-605.5"/>
<text text-anchor="start" x="885.5" y="-617.3" font-family="Times,serif" font-weight="bold" font-size="14.00">image_description:</text>
<text text-anchor="start" x="997.5" y="-617.3" font-family="Times,serif" font-size="14.00"> </text>
<polygon fill="none" stroke="black" points="844.5,-576.5 844.5,-605.5 1465.5,-605.5 1465.5,-576.5 844.5,-576.5"/>
<text text-anchor="start" x="1095" y="-588.3" font-family="Times,serif" font-style="italic" font-size="14.00">... and 6 more images</text>
<polygon fill="none" stroke="black" points="844.5,-547.5 844.5,-576.5 878.5,-576.5 878.5,-547.5 844.5,-547.5"/>
<text text-anchor="start" x="851.5" y="-559.3" font-family="Times,serif" font-weight="bold" font-size="14.00">FK</text>
<polygon fill="none" stroke="black" points="878.5,-547.5 878.5,-576.5 1465.5,-576.5 1465.5,-547.5 878.5,-547.5"/>
<text text-anchor="start" x="885.5" y="-559.3" font-family="Times,serif" font-weight="bold" font-size="14.00">article_id:</text>
<text text-anchor="start" x="945.5" y="-559.3" font-family="Times,serif" font-size="14.00"> NewYorkDailyTribune1847</text>
<polygon fill="none" stroke="black" stroke-width="2" points="843,-547 843,-1214 1466,-1214 1466,-547 843,-547"/>
</g>
<!-- Article&#45;&gt;Images -->
<g id="edge4" class="edge">
<title>Article&#45;&gt;Images</title>
<path fill="none" stroke="black" stroke-width="1.5" d="M704.11,-880.5C743.9,-880.5 784.35,-880.5 823.85,-880.5"/>
<polygon fill="black" stroke="black" stroke-width="1.5" points="823.88,-880.5 833.88,-885 828.88,-880.5 833.88,-880.5 833.88,-880.5 833.88,-880.5 828.88,-880.5 833.88,-876 823.88,-880.5 823.88,-880.5"/>
<text text-anchor="middle" x="753.98" y="-873.3" font-family="Times,serif" font-size="9.00">has</text>
<text text-anchor="middle" x="753.98" y="-863.3" font-family="Times,serif" font-size="9.00">(1:N)</text>
</g>
<!-- Reprints -->
<g id="node5" class="node">
<title>Reprints</title>
<polygon fill="#ffecb3" stroke="transparent" points="997.5,-436.5 997.5,-463.5 1312.5,-463.5 1312.5,-436.5 997.5,-436.5"/>
<polygon fill="none" stroke="black" points="997.5,-436.5 997.5,-463.5 1312.5,-463.5 1312.5,-436.5 997.5,-436.5"/>
<text text-anchor="start" x="1081" y="-447.9" font-family="Times,serif" font-weight="bold" font-size="12.00">Reprints / Document Groups</text>
<polygon fill="none" stroke="black" points="997.5,-407.5 997.5,-436.5 1031.5,-436.5 1031.5,-407.5 997.5,-407.5"/>
<text text-anchor="start" x="1004.5" y="-419.3" font-family="Times,serif" font-weight="bold" font-size="14.00">PK</text>
<polygon fill="none" stroke="black" points="1031.5,-407.5 1031.5,-436.5 1312.5,-436.5 1312.5,-407.5 1031.5,-407.5"/>
<text text-anchor="start" x="1038.5" y="-419.3" font-family="Times,serif" font-weight="bold" font-size="14.00">group_reprint_id:</text>
<text text-anchor="start" x="1144.5" y="-419.3" font-family="Times,serif" font-size="14.00"> TheBostonAtlas1847_reprint</text>
<polygon fill="none" stroke="black" points="997.5,-378.5 997.5,-407.5 1031.5,-407.5 1031.5,-378.5 997.5,-378.5"/>
<polygon fill="none" stroke="black" points="1031.5,-378.5 1031.5,-407.5 1312.5,-407.5 1312.5,-378.5 1031.5,-378.5"/>
<text text-anchor="start" x="1038.5" y="-390.3" font-family="Times,serif" font-weight="bold" font-size="14.00">reprint_type:</text>
<text text-anchor="start" x="1116.5" y="-390.3" font-family="Times,serif" font-size="14.00"> direct</text>
<polygon fill="none" stroke="black" points="997.5,-349.5 997.5,-378.5 1031.5,-378.5 1031.5,-349.5 997.5,-349.5"/>
<polygon fill="none" stroke="black" points="1031.5,-349.5 1031.5,-378.5 1312.5,-378.5 1312.5,-349.5 1031.5,-349.5"/>
<text text-anchor="start" x="1038.5" y="-361.3" font-family="Times,serif" font-weight="bold" font-size="14.00">reprint_order:</text>
<text text-anchor="start" x="1123.5" y="-361.3" font-family="Times,serif" font-size="14.00"> </text>
<polygon fill="none" stroke="black" stroke-width="2" points="996,-348.5 996,-464.5 1313,-464.5 1313,-348.5 996,-348.5"/>
</g>
<!-- Article&#45;&gt;Reprints -->
<g id="edge5" class="edge">
<title>Article&#45;&gt;Reprints</title>
<path fill="none" stroke="black" stroke-width="1.5" d="M712.29,-600.39C782.05,-546 834,-505.5 834,-505.5 834,-505.5 902.93,-484.14 976.76,-461.26"/>
<polygon fill="black" stroke="black" stroke-width="1.5" points="712.04,-600.58 701.38,-603.18 708.09,-603.66 704.15,-606.73 704.15,-606.73 704.15,-606.73 708.09,-603.66 706.92,-610.28 712.04,-600.58 712.04,-600.58"/>
<polygon fill="black" stroke="black" stroke-width="1.5" points="977.18,-461.13 988.06,-462.47 981.96,-459.65 986.73,-458.17 986.73,-458.17 986.73,-458.17 981.96,-459.65 985.4,-453.88 977.18,-461.13 977.18,-461.13"/>
<text text-anchor="middle" x="813.58" y="-499.8" font-family="Times,serif" font-size="9.00">belongs to</text>
<text text-anchor="middle" x="813.58" y="-489.8" font-family="Times,serif" font-size="9.00">(N:M)</text>
</g>
<!-- Article_Trope -->
<g id="node6" class="node">
<title>Article_Trope</title>
<polygon fill="#ffe0e0" stroke="transparent" points="1010.5,-237.5 1010.5,-264.5 1298.5,-264.5 1298.5,-237.5 1010.5,-237.5"/>
<polygon fill="none" stroke="black" points="1010.5,-237.5 1010.5,-264.5 1298.5,-264.5 1298.5,-237.5 1010.5,-237.5"/>
<text text-anchor="start" x="1122" y="-248.9" font-family="Times,serif" font-weight="bold" font-size="12.00">article_trope</text>
<polygon fill="none" stroke="black" points="1010.5,-208.5 1010.5,-237.5 1067.5,-237.5 1067.5,-208.5 1010.5,-208.5"/>
<text text-anchor="start" x="1017.5" y="-220.3" font-family="Times,serif" font-weight="bold" font-size="14.00">PK,FK</text>
<polygon fill="none" stroke="black" points="1067.5,-208.5 1067.5,-237.5 1298.5,-237.5 1298.5,-208.5 1067.5,-208.5"/>
<text text-anchor="start" x="1074.5" y="-220.3" font-family="Times,serif" font-weight="bold" font-size="14.00">article_id:</text>
<text text-anchor="start" x="1134.5" y="-220.3" font-family="Times,serif" font-size="14.00"> NewYorkDailyTribune1847</text>
<polygon fill="none" stroke="black" points="1010.5,-179.5 1010.5,-208.5 1067.5,-208.5 1067.5,-179.5 1010.5,-179.5"/>
<text text-anchor="start" x="1017.5" y="-191.3" font-family="Times,serif" font-weight="bold" font-size="14.00">PK,FK</text>
<polygon fill="none" stroke="black" points="1067.5,-179.5 1067.5,-208.5 1298.5,-208.5 1298.5,-179.5 1067.5,-179.5"/>
<text text-anchor="start" x="1074.5" y="-191.3" font-family="Times,serif" font-weight="bold" font-size="14.00">trope_id:</text>
<polygon fill="none" stroke="black" points="1010.5,-150.5 1010.5,-179.5 1298.5,-179.5 1298.5,-150.5 1010.5,-150.5"/>
<text text-anchor="start" x="1121.5" y="-161.3" font-family="Times,serif" font-size="14.00">Lazy Indian</text>
<polygon fill="none" stroke="black" points="1010.5,-121.5 1010.5,-150.5 1298.5,-150.5 1298.5,-121.5 1010.5,-121.5"/>
<text text-anchor="start" x="1116.5" y="-132.3" font-family="Times,serif" font-size="14.00">Noble Savage</text>
<polygon fill="none" stroke="black" points="1010.5,-92.5 1010.5,-121.5 1298.5,-121.5 1298.5,-92.5 1010.5,-92.5"/>
<text text-anchor="start" x="1108.5" y="-103.3" font-family="Times,serif" font-size="14.00">Jump Overboard</text>
<polygon fill="none" stroke="black" points="1010.5,-63.5 1010.5,-92.5 1298.5,-92.5 1298.5,-63.5 1010.5,-63.5"/>
<text text-anchor="start" x="1117.5" y="-74.3" font-family="Times,serif" font-size="14.00">Indian Queen</text>
<polygon fill="none" stroke="black" points="1010.5,-34.5 1010.5,-63.5 1298.5,-63.5 1298.5,-34.5 1010.5,-34.5"/>
<text text-anchor="start" x="1122.5" y="-45.3" font-family="Times,serif" font-size="14.00">Girl Crusoe</text>
<polygon fill="none" stroke="black" points="1010.5,-5.5 1010.5,-34.5 1298.5,-34.5 1298.5,-5.5 1010.5,-5.5"/>
<text text-anchor="start" x="1124" y="-16.3" font-family="Times,serif" font-size="14.00">Wild Child</text>
<polygon fill="none" stroke="black" stroke-width="2" points="1009.5,-5 1009.5,-266 1299.5,-266 1299.5,-5 1009.5,-5"/>
</g>
<!-- Article&#45;&gt;Article_Trope -->
<g id="edge6" class="edge">
<title>Article&#45;&gt;Article_Trope</title>
<path fill="none" stroke="black" stroke-width="1.5" d="M600.9,-585.19C718.63,-444.93 834,-307.5 834,-307.5 834,-307.5 912.16,-265.42 991.17,-222.89"/>
<polygon fill="black" stroke="black" stroke-width="1.5" points="991.5,-222.71 1002.43,-221.94 995.9,-220.34 1000.3,-217.97 1000.3,-217.97 1000.3,-217.97 995.9,-220.34 998.17,-214.01 991.5,-222.71 991.5,-222.71"/>
<text text-anchor="middle" x="764.83" y="-370.79" font-family="Times,serif" font-size="9.00">(1:N)</text>
</g>
<!-- Publication&#45;&gt;Location -->
<g id="edge3" class="edge">
<title>Publication&#45;&gt;Location</title>
<path fill="none" stroke="black" stroke-width="1.5" d="M1315.13,-1465.45C1405.08,-1453.58 1516.74,-1438.86 1604.98,-1427.22"/>
<polygon fill="black" stroke="black" stroke-width="1.5" points="1315.02,-1465.46 1304.52,-1462.31 1310.06,-1466.11 1305.11,-1466.77 1305.11,-1466.77 1305.11,-1466.77 1310.06,-1466.11 1305.7,-1471.23 1315.02,-1465.46 1315.02,-1465.46"/>
<text text-anchor="middle" x="1443.06" y="-1439.13" font-family="Times,serif" font-size="9.00">located at</text>
<text text-anchor="middle" x="1443.06" y="-1429.13" font-family="Times,serif" font-size="9.00">(N:1)</text>
</g>
<!-- Trope -->
<g id="node7" class="node">
<title>Trope</title>
<polygon fill="#ffcdd2" stroke="transparent" points="293,-237.5 293,-264.5 411,-264.5 411,-237.5 293,-237.5"/>
<polygon fill="none" stroke="black" points="293,-237.5 293,-264.5 411,-264.5 411,-237.5 293,-237.5"/>
<text text-anchor="start" x="338" y="-248.9" font-family="Times,serif" font-weight="bold" font-size="12.00">trope</text>
<polygon fill="none" stroke="black" points="293,-208.5 293,-237.5 327,-237.5 327,-208.5 293,-208.5"/>
<text text-anchor="start" x="300" y="-220.3" font-family="Times,serif" font-weight="bold" font-size="14.00">PK</text>
<polygon fill="none" stroke="black" points="327,-208.5 327,-237.5 411,-237.5 411,-208.5 327,-208.5"/>
<text text-anchor="start" x="334" y="-220.3" font-family="Times,serif" font-weight="bold" font-size="14.00">trope_id:</text>
<polygon fill="none" stroke="black" points="293,-179.5 293,-208.5 327,-208.5 327,-179.5 293,-179.5"/>
<polygon fill="none" stroke="black" points="327,-179.5 327,-208.5 411,-208.5 411,-179.5 327,-179.5"/>
<text text-anchor="start" x="334" y="-191.3" font-family="Times,serif" font-weight="bold" font-size="14.00">trope_label:</text>
<polygon fill="none" stroke="black" points="293,-150.5 293,-179.5 411,-179.5 411,-150.5 293,-150.5"/>
<text text-anchor="start" x="319" y="-161.3" font-family="Times,serif" font-size="14.00">Lazy Indian</text>
<polygon fill="none" stroke="black" points="293,-121.5 293,-150.5 411,-150.5 411,-121.5 293,-121.5"/>
<text text-anchor="start" x="314" y="-132.3" font-family="Times,serif" font-size="14.00">Noble Savage</text>
<polygon fill="none" stroke="black" points="293,-92.5 293,-121.5 411,-121.5 411,-92.5 293,-92.5"/>
<text text-anchor="start" x="306" y="-103.3" font-family="Times,serif" font-size="14.00">Jump Overboard</text>
<polygon fill="none" stroke="black" points="293,-63.5 293,-92.5 411,-92.5 411,-63.5 293,-63.5"/>
<text text-anchor="start" x="315" y="-74.3" font-family="Times,serif" font-size="14.00">Indian Queen</text>
<polygon fill="none" stroke="black" points="293,-34.5 293,-63.5 411,-63.5 411,-34.5 293,-34.5"/>
<text text-anchor="start" x="320" y="-45.3" font-family="Times,serif" font-size="14.00">Girl Crusoe</text>
<polygon fill="none" stroke="black" points="293,-5.5 293,-34.5 411,-34.5 411,-5.5 293,-5.5"/>
<text text-anchor="start" x="321.5" y="-16.3" font-family="Times,serif" font-size="14.00">Wild Child</text>
<polygon fill="none" stroke="black" stroke-width="2" points="292,-5 292,-266 412,-266 412,-5 292,-5"/>
</g>
<!-- Trope&#45;&gt;Article_Trope -->
<g id="edge7" class="edge">
<title>Trope&#45;&gt;Article_Trope</title>
<path fill="none" stroke="black" stroke-width="1.5" d="M421.25,-135.5C546.33,-135.5 815.49,-135.5 990.31,-135.5"/>
<polygon fill="black" stroke="black" stroke-width="1.5" points="990.39,-135.5 1000.39,-140 995.39,-135.5 1000.39,-135.5 1000.39,-135.5 1000.39,-135.5 995.39,-135.5 1000.39,-131 990.39,-135.5 990.39,-135.5"/>
<text text-anchor="middle" x="695.78" y="-128.3" font-family="Times,serif" font-size="9.00">(1:N)</text>
</g>
</g>
</svg>
