<?xml version="1.0" encoding="UTF-8" standalone="no"?>
<!DOCTYPE svg PUBLIC "-//W3C//DTD SVG 1.1//EN"
 "http://www.w3.org/Graphics/SVG/1.1/DTD/svg11.dtd">
<!-- Generated by graphviz version 2.50.0 (0)
 -->
<!-- Title: ERD_NewYorkEveningExpress1847 Pages: 1 -->
<svg width="1575pt" height="1581pt"
 viewBox="0.00 0.00 1575.00 1581.00" xmlns="http://www.w3.org/2000/svg" xmlns:xlink="http://www.w3.org/1999/xlink">
<g id="graph0" class="graph" transform="scale(1 1) rotate(0) translate(4 1577)">
<title>ERD_NewYorkEveningExpress1847</title>
<polygon fill="white" stroke="transparent" points="-4,4 -4,-1577 1571,-1577 1571,4 -4,4"/>
<text text-anchor="middle" x="783.5" y="-1557.8" font-family="Arial Bold" font-size="14.00">Entity Relationships for NewYorkEveningExpress1847</text>
<text text-anchor="middle" x="783.5" y="-1542.8" font-family="Arial Bold" font-size="14.00">(Reprint Type: direct)</text>
<!-- Article -->
<g id="node1" class="node">
<title>Article</title>
<polygon fill="#b4d7e5" stroke="transparent" points="10.5,-1156.5 10.5,-1183.5 325.5,-1183.5 325.5,-1156.5 10.5,-1156.5"/>
<polygon fill="none" stroke="black" points="10.5,-1156.5 10.5,-1183.5 325.5,-1183.5 325.5,-1156.5 10.5,-1156.5"/>
<text text-anchor="start" x="150.5" y="-1167.9" font-family="Times,serif" font-weight="bold" font-size="12.00">Article</text>
<polygon fill="none" stroke="black" points="10.5,-1127.5 10.5,-1156.5 44.5,-1156.5 44.5,-1127.5 10.5,-1127.5"/>
<text text-anchor="start" x="17.5" y="-1139.3" font-family="Times,serif" font-weight="bold" font-size="14.00">PK</text>
<polygon fill="none" stroke="black" points="44.5,-1127.5 44.5,-1156.5 325.5,-1156.5 325.5,-1127.5 44.5,-1127.5"/>
<text text-anchor="start" x="51.5" y="-1139.3" font-family="Times,serif" font-weight="bold" font-size="14.00">article_id:</text>
<text text-anchor="start" x="111.5" y="-1139.3" font-family="Times,serif" font-size="14.00"> NewYorkEveningExpress1847</text>
<polygon fill="none" stroke="black" points="10.5,-1098.5 10.5,-1127.5 44.5,-1127.5 44.5,-1098.5 10.5,-1098.5"/>
<polygon fill="none" stroke="black" points="44.5,-1098.5 44.5,-1127.5 325.5,-1127.5 325.5,-1098.5 44.5,-1098.5"/>
<text text-anchor="start" x="51.5" y="-1110.3" font-family="Times,serif" font-weight="bold" font-size="14.00">title:</text>
<text text-anchor="start" x="79.5" y="-1110.3" font-family="Times,serif" font-size="14.00"> &quot;A Female Crusoe&quot;</text>
<polygon fill="none" stroke="black" points="10.5,-1069.5 10.5,-1098.5 44.5,-1098.5 44.5,-1069.5 10.5,-1069.5"/>
<polygon fill="none" stroke="black" points="44.5,-1069.5 44.5,-1098.5 325.5,-1098.5 325.5,-1069.5 44.5,-1069.5"/>
<text text-anchor="start" x="51.5" y="-1081.3" font-family="Times,serif" font-weight="bold" font-size="14.00">author:</text>
<text text-anchor="start" x="95.5" y="-1081.3" font-family="Times,serif" font-size="14.00"> </text>
<polygon fill="none" stroke="black" points="10.5,-1040.5 10.5,-1069.5 44.5,-1069.5 44.5,-1040.5 10.5,-1040.5"/>
<polygon fill="none" stroke="black" points="44.5,-1040.5 44.5,-1069.5 325.5,-1069.5 325.5,-1040.5 44.5,-1040.5"/>
<text text-anchor="start" x="51.5" y="-1052.3" font-family="Times,serif" font-weight="bold" font-size="14.00">date:</text>
<text text-anchor="start" x="81.5" y="-1052.3" font-family="Times,serif" font-size="14.00"> 1847&#45;01&#45;08</text>
<polygon fill="none" stroke="black" points="10.5,-1011.5 10.5,-1040.5 44.5,-1040.5 44.5,-1011.5 10.5,-1011.5"/>
<polygon fill="none" stroke="black" points="44.5,-1011.5 44.5,-1040.5 325.5,-1040.5 325.5,-1011.5 44.5,-1011.5"/>
<text text-anchor="start" x="51.5" y="-1023.3" font-family="Times,serif" font-weight="bold" font-size="14.00">monograph_publishers:</text>
<text text-anchor="start" x="190.5" y="-1023.3" font-family="Times,serif" font-size="14.00"> </text>
<polygon fill="none" stroke="black" points="10.5,-982.5 10.5,-1011.5 44.5,-1011.5 44.5,-982.5 10.5,-982.5"/>
<polygon fill="none" stroke="black" points="44.5,-982.5 44.5,-1011.5 325.5,-1011.5 325.5,-982.5 44.5,-982.5"/>
<text text-anchor="start" x="51.5" y="-994.3" font-family="Times,serif" font-weight="bold" font-size="14.00">volume_number:</text>
<text text-anchor="start" x="152.5" y="-994.3" font-family="Times,serif" font-size="14.00"> </text>
<polygon fill="none" stroke="black" points="10.5,-953.5 10.5,-982.5 44.5,-982.5 44.5,-953.5 10.5,-953.5"/>
<polygon fill="none" stroke="black" points="44.5,-953.5 44.5,-982.5 325.5,-982.5 325.5,-953.5 44.5,-953.5"/>
<text text-anchor="start" x="51.5" y="-965.3" font-family="Times,serif" font-weight="bold" font-size="14.00">issue_number:</text>
<text text-anchor="start" x="137.5" y="-965.3" font-family="Times,serif" font-size="14.00"> </text>
<polygon fill="none" stroke="black" points="10.5,-924.5 10.5,-953.5 44.5,-953.5 44.5,-924.5 10.5,-924.5"/>
<polygon fill="none" stroke="black" points="44.5,-924.5 44.5,-953.5 325.5,-953.5 325.5,-924.5 44.5,-924.5"/>
<text text-anchor="start" x="51.5" y="-936.3" font-family="Times,serif" font-weight="bold" font-size="14.00">pages:</text>
<text text-anchor="start" x="88.5" y="-936.3" font-family="Times,serif" font-size="14.00"> 2&#45;3</text>
<polygon fill="none" stroke="black" points="10.5,-895.5 10.5,-924.5 44.5,-924.5 44.5,-895.5 10.5,-895.5"/>
<polygon fill="none" stroke="black" points="44.5,-895.5 44.5,-924.5 325.5,-924.5 325.5,-895.5 44.5,-895.5"/>
<text text-anchor="start" x="51.5" y="-907.3" font-family="Times,serif" font-weight="bold" font-size="14.00">archival_holding:</text>
<text text-anchor="start" x="154.5" y="-907.3" font-family="Times,serif" font-size="14.00"> </text>
<polygon fill="none" stroke="black" points="10.5,-866.5 10.5,-895.5 44.5,-895.5 44.5,-866.5 10.5,-866.5"/>
<polygon fill="none" stroke="black" points="44.5,-866.5 44.5,-895.5 325.5,-895.5 325.5,-866.5 44.5,-866.5"/>
<text text-anchor="start" x="51.5" y="-878.3" font-family="Times,serif" font-weight="bold" font-size="14.00">archival_location:</text>
<text text-anchor="start" x="156.5" y="-878.3" font-family="Times,serif" font-size="14.00"> </text>
<polygon fill="none" stroke="black" points="10.5,-837.5 10.5,-866.5 44.5,-866.5 44.5,-837.5 10.5,-837.5"/>
<polygon fill="none" stroke="black" points="44.5,-837.5 44.5,-866.5 325.5,-866.5 325.5,-837.5 44.5,-837.5"/>
<text text-anchor="start" x="51.5" y="-849.3" font-family="Times,serif" font-weight="bold" font-size="14.00">cost:</text>
<text text-anchor="start" x="79.5" y="-849.3" font-family="Times,serif" font-size="14.00"> </text>
<polygon fill="none" stroke="black" points="10.5,-808.5 10.5,-837.5 44.5,-837.5 44.5,-808.5 10.5,-808.5"/>
<polygon fill="none" stroke="black" points="44.5,-808.5 44.5,-837.5 325.5,-837.5 325.5,-808.5 44.5,-808.5"/>
<text text-anchor="start" x="51.5" y="-820.3" font-family="Times,serif" font-weight="bold" font-size="14.00">permission:</text>
<text text-anchor="start" x="120.5" y="-820.3" font-family="Times,serif" font-size="14.00"> Public domain</text>
<polygon fill="none" stroke="black" points="10.5,-779.5 10.5,-808.5 44.5,-808.5 44.5,-779.5 10.5,-779.5"/>
<polygon fill="none" stroke="black" points="44.5,-779.5 44.5,-808.5 325.5,-808.5 325.5,-779.5 44.5,-779.5"/>
<text text-anchor="start" x="51.5" y="-791.3" font-family="Times,serif" font-weight="bold" font-size="14.00">permission_acknowledgement:</text>
<text text-anchor="start" x="231.5" y="-791.3" font-family="Times,serif" font-size="14.00"> </text>
<polygon fill="none" stroke="black" points="10.5,-750.5 10.5,-779.5 44.5,-779.5 44.5,-750.5 10.5,-750.5"/>
<polygon fill="none" stroke="black" points="44.5,-750.5 44.5,-779.5 325.5,-779.5 325.5,-750.5 44.5,-750.5"/>
<text text-anchor="start" x="51.5" y="-762.3" font-family="Times,serif" font-weight="bold" font-size="14.00">permission_statements:</text>
<text text-anchor="start" x="189.5" y="-762.3" font-family="Times,serif" font-size="14.00"> </text>
<polygon fill="none" stroke="black" points="10.5,-721.5 10.5,-750.5 44.5,-750.5 44.5,-721.5 10.5,-721.5"/>
<polygon fill="none" stroke="black" points="44.5,-721.5 44.5,-750.5 325.5,-750.5 325.5,-721.5 44.5,-721.5"/>
<text text-anchor="start" x="51.5" y="-733.3" font-family="Times,serif" font-weight="bold" font-size="14.00">acquisitions:</text>
<text text-anchor="start" x="124.5" y="-733.3" font-family="Times,serif" font-size="14.00"> </text>
<polygon fill="none" stroke="black" points="10.5,-692.5 10.5,-721.5 44.5,-721.5 44.5,-692.5 10.5,-692.5"/>
<polygon fill="none" stroke="black" points="44.5,-692.5 44.5,-721.5 325.5,-721.5 325.5,-692.5 44.5,-692.5"/>
<text text-anchor="start" x="51.5" y="-704.3" font-family="Times,serif" font-weight="bold" font-size="14.00">document_intro:</text>
<text text-anchor="start" x="149.5" y="-704.3" font-family="Times,serif" font-size="14.00"> </text>
<polygon fill="none" stroke="black" points="10.5,-663.5 10.5,-692.5 44.5,-692.5 44.5,-663.5 10.5,-663.5"/>
<polygon fill="none" stroke="black" points="44.5,-663.5 44.5,-692.5 325.5,-692.5 325.5,-663.5 44.5,-663.5"/>
<text text-anchor="start" x="51.5" y="-675.3" font-family="Times,serif" font-weight="bold" font-size="14.00">transcripts:</text>
<text text-anchor="start" x="119.5" y="-675.3" font-family="Times,serif" font-size="14.00"> </text>
<polygon fill="none" stroke="black" points="10.5,-634.5 10.5,-663.5 44.5,-663.5 44.5,-634.5 10.5,-634.5"/>
<text text-anchor="start" x="17.5" y="-646.3" font-family="Times,serif" font-weight="bold" font-size="14.00">FK</text>
<polygon fill="none" stroke="black" points="44.5,-634.5 44.5,-663.5 325.5,-663.5 325.5,-634.5 44.5,-634.5"/>
<text text-anchor="start" x="51.5" y="-646.3" font-family="Times,serif" font-weight="bold" font-size="14.00">group_reprint_id:</text>
<text text-anchor="start" x="157.5" y="-646.3" font-family="Times,serif" font-size="14.00"> TheBostonAtlas1847_reprint</text>
<polygon fill="none" stroke="black" points="10.5,-605.5 10.5,-634.5 44.5,-634.5 44.5,-605.5 10.5,-605.5"/>
<text text-anchor="start" x="17.5" y="-617.3" font-family="Times,serif" font-weight="bold" font-size="14.00">FK</text>
<polygon fill="none" stroke="black" points="44.5,-605.5 44.5,-634.5 325.5,-634.5 325.5,-605.5 44.5,-605.5"/>
<text text-anchor="start" x="51.5" y="-617.3" font-family="Times,serif" font-weight="bold" font-size="14.00">publisher_location:</text>
<text text-anchor="start" x="163.5" y="-617.3" font-family="Times,serif" font-size="14.00"> New York, New York</text>
<polygon fill="none" stroke="black" points="10.5,-576.5 10.5,-605.5 44.5,-605.5 44.5,-576.5 10.5,-576.5"/>
<text text-anchor="start" x="17.5" y="-588.3" font-family="Times,serif" font-weight="bold" font-size="14.00">FK</text>
<polygon fill="none" stroke="black" points="44.5,-576.5 44.5,-605.5 325.5,-605.5 325.5,-576.5 44.5,-576.5"/>
<text text-anchor="start" x="51.5" y="-588.3" font-family="Times,serif" font-weight="bold" font-size="14.00">publication:</text>
<text text-anchor="start" x="121.5" y="-588.3" font-family="Times,serif" font-size="14.00"> New York Evening Express</text>
<polygon fill="none" stroke="black" stroke-width="2" points="9,-576 9,-1185 326,-1185 326,-576 9,-576"/>
</g>
<!-- Publication -->
<g id="node2" class="node">
<title>Publication</title>
<polygon fill="#f4d9b0" stroke="transparent" points="660.5,-1501.5 660.5,-1528.5 941.5,-1528.5 941.5,-1501.5 660.5,-1501.5"/>
<polygon fill="none" stroke="black" points="660.5,-1501.5 660.5,-1528.5 941.5,-1528.5 941.5,-1501.5 660.5,-1501.5"/>
<text text-anchor="start" x="772" y="-1512.9" font-family="Times,serif" font-weight="bold" font-size="12.00">Publication</text>
<polygon fill="none" stroke="black" points="660.5,-1472.5 660.5,-1501.5 694.5,-1501.5 694.5,-1472.5 660.5,-1472.5"/>
<text text-anchor="start" x="667.5" y="-1484.3" font-family="Times,serif" font-weight="bold" font-size="14.00">PK</text>
<polygon fill="none" stroke="black" points="694.5,-1472.5 694.5,-1501.5 941.5,-1501.5 941.5,-1472.5 694.5,-1472.5"/>
<text text-anchor="start" x="701.5" y="-1484.3" font-family="Times,serif" font-weight="bold" font-size="14.00">publication:</text>
<text text-anchor="start" x="771.5" y="-1484.3" font-family="Times,serif" font-size="14.00"> New York Evening Express</text>
<polygon fill="none" stroke="black" points="660.5,-1443.5 660.5,-1472.5 694.5,-1472.5 694.5,-1443.5 660.5,-1443.5"/>
<text text-anchor="start" x="667.5" y="-1455.3" font-family="Times,serif" font-weight="bold" font-size="14.00">FK</text>
<polygon fill="none" stroke="black" points="694.5,-1443.5 694.5,-1472.5 941.5,-1472.5 941.5,-1443.5 694.5,-1443.5"/>
<text text-anchor="start" x="701.5" y="-1455.3" font-family="Times,serif" font-weight="bold" font-size="14.00">publisher_location:</text>
<text text-anchor="start" x="813.5" y="-1455.3" font-family="Times,serif" font-size="14.00"> New York, New York</text>
<polygon fill="none" stroke="black" stroke-width="2" points="659,-1443 659,-1530 942,-1530 942,-1443 659,-1443"/>
</g>
<!-- Article&#45;&gt;Publication -->
<g id="edge1" class="edge">
<title>Article&#45;&gt;Publication</title>
<path fill="none" stroke="black" stroke-width="1.5" d="M340.3,-1171.95C405.8,-1283.06 465,-1383.5 465,-1383.5 465,-1383.5 560.8,-1413 649.86,-1440.42"/>
<polygon fill="black" stroke="black" stroke-width="1.5" points="340.24,-1171.86 339.04,-1160.96 337.71,-1167.55 335.17,-1163.24 335.17,-1163.24 335.17,-1163.24 337.71,-1167.55 331.29,-1165.53 340.24,-1171.86 340.24,-1171.86"/>
<text text-anchor="middle" x="429.76" y="-1353.84" font-family="Times,serif" font-size="9.00">published in</text>
<text text-anchor="middle" x="429.76" y="-1343.84" font-family="Times,serif" font-size="9.00">(N:1)</text>
</g>
<!-- Location -->
<g id="node3" class="node">
<title>Location</title>
<polygon fill="#c8e6c9" stroke="transparent" points="1276.5,-1408.5 1276.5,-1435.5 1557.5,-1435.5 1557.5,-1408.5 1276.5,-1408.5"/>
<polygon fill="none" stroke="black" points="1276.5,-1408.5 1276.5,-1435.5 1557.5,-1435.5 1557.5,-1408.5 1276.5,-1408.5"/>
<text text-anchor="start" x="1394" y="-1419.9" font-family="Times,serif" font-weight="bold" font-size="12.00">Location</text>
<polygon fill="none" stroke="black" points="1276.5,-1379.5 1276.5,-1408.5 1310.5,-1408.5 1310.5,-1379.5 1276.5,-1379.5"/>
<text text-anchor="start" x="1283.5" y="-1391.3" font-family="Times,serif" font-weight="bold" font-size="14.00">PK</text>
<polygon fill="none" stroke="black" points="1310.5,-1379.5 1310.5,-1408.5 1557.5,-1408.5 1557.5,-1379.5 1310.5,-1379.5"/>
<text text-anchor="start" x="1317.5" y="-1391.3" font-family="Times,serif" font-weight="bold" font-size="14.00">publisher_location:</text>
<text text-anchor="start" x="1429.5" y="-1391.3" font-family="Times,serif" font-size="14.00"> New York, New York</text>
<polygon fill="none" stroke="black" stroke-width="2" points="1275,-1378.5 1275,-1436.5 1558,-1436.5 1558,-1378.5 1275,-1378.5"/>
</g>
<!-- Article&#45;&gt;Location -->
<g id="edge2" class="edge">
<title>Article&#45;&gt;Location</title>
<path fill="none" stroke="black" stroke-width="1.5" d="M341.48,-1098.69C406.5,-1180.72 465,-1254.5 465,-1254.5 465,-1254.5 998.26,-1340.34 1265.94,-1383.43"/>
<polygon fill="black" stroke="black" stroke-width="1.5" points="341.38,-1098.57 338.69,-1087.93 338.27,-1094.65 335.17,-1090.73 335.17,-1090.73 335.17,-1090.73 338.27,-1094.65 331.64,-1093.53 341.38,-1098.57 341.38,-1098.57"/>
<text text-anchor="middle" x="745.82" y="-1295.96" font-family="Times,serif" font-size="9.00">published at</text>
<text text-anchor="middle" x="745.82" y="-1285.96" font-family="Times,serif" font-size="9.00">(N:1)</text>
</g>
<!-- Images -->
<g id="node4" class="node">
<title>Images</title>
<polygon fill="#e1bee7" stroke="transparent" points="475.5,-1185.5 475.5,-1212.5 1126.5,-1212.5 1126.5,-1185.5 475.5,-1185.5"/>
<polygon fill="none" stroke="black" points="475.5,-1185.5 475.5,-1212.5 1126.5,-1212.5 1126.5,-1185.5 475.5,-1185.5"/>
<text text-anchor="start" x="761.5" y="-1196.9" font-family="Times,serif" font-weight="bold" font-size="12.00">Images (9 total)</text>
<polygon fill="none" stroke="black" points="475.5,-1156.5 475.5,-1185.5 509.5,-1185.5 509.5,-1156.5 475.5,-1156.5"/>
<text text-anchor="start" x="482.5" y="-1168.3" font-family="Times,serif" font-weight="bold" font-size="14.00">PK</text>
<polygon fill="none" stroke="black" points="509.5,-1156.5 509.5,-1185.5 1126.5,-1185.5 1126.5,-1156.5 509.5,-1156.5"/>
<text text-anchor="start" x="516.5" y="-1168.3" font-family="Times,serif" font-weight="bold" font-size="14.00">object_id:</text>
<text text-anchor="start" x="574.5" y="-1168.3" font-family="Times,serif" font-size="14.00"> NewYorkEveningExpress1847_Original</text>
<polygon fill="none" stroke="black" points="475.5,-1127.5 475.5,-1156.5 509.5,-1156.5 509.5,-1127.5 475.5,-1127.5"/>
<polygon fill="none" stroke="black" points="509.5,-1127.5 509.5,-1156.5 1126.5,-1156.5 1126.5,-1127.5 509.5,-1127.5"/>
<text text-anchor="start" x="516.5" y="-1139.3" font-family="Times,serif" font-weight="bold" font-size="14.00">image_file:</text>
<text text-anchor="start" x="581.5" y="-1139.3" font-family="Times,serif" font-size="14.00"> NewYorkEveningExpress1847_DigSur_1.png</text>
<polygon fill="none" stroke="black" points="475.5,-1098.5 475.5,-1127.5 509.5,-1127.5 509.5,-1098.5 475.5,-1098.5"/>
<polygon fill="none" stroke="black" points="509.5,-1098.5 509.5,-1127.5 1126.5,-1127.5 1126.5,-1098.5 509.5,-1098.5"/>
<text text-anchor="start" x="516.5" y="-1110.3" font-family="Times,serif" font-weight="bold" font-size="14.00">image_parent_id:</text>
<text text-anchor="start" x="619.5" y="-1110.3" font-family="Times,serif" font-size="14.00"> </text>
<polygon fill="none" stroke="black" points="475.5,-1069.5 475.5,-1098.5 509.5,-1098.5 509.5,-1069.5 475.5,-1069.5"/>
<polygon fill="none" stroke="black" points="509.5,-1069.5 509.5,-1098.5 1126.5,-1098.5 1126.5,-1069.5 509.5,-1069.5"/>
<text text-anchor="start" x="516.5" y="-1081.3" font-family="Times,serif" font-weight="bold" font-size="14.00">image_object_location:</text>
<text text-anchor="start" x="651.5" y="-1081.3" font-family="Times,serif" font-size="14.00"> objects/NewYorkEveningExpress1847/NewYorkEveningExpress1847_DigSur_1.png</text>
<polygon fill="none" stroke="black" points="475.5,-1040.5 475.5,-1069.5 509.5,-1069.5 509.5,-1040.5 475.5,-1040.5"/>
<polygon fill="none" stroke="black" points="509.5,-1040.5 509.5,-1069.5 1126.5,-1069.5 1126.5,-1040.5 509.5,-1040.5"/>
<text text-anchor="start" x="516.5" y="-1052.3" font-family="Times,serif" font-weight="bold" font-size="14.00">image_display_template:</text>
<text text-anchor="start" x="662.5" y="-1052.3" font-family="Times,serif" font-size="14.00"> compound_object</text>
<polygon fill="none" stroke="black" points="475.5,-1011.5 475.5,-1040.5 509.5,-1040.5 509.5,-1011.5 475.5,-1011.5"/>
<polygon fill="none" stroke="black" points="509.5,-1011.5 509.5,-1040.5 1126.5,-1040.5 1126.5,-1011.5 509.5,-1011.5"/>
<text text-anchor="start" x="516.5" y="-1023.3" font-family="Times,serif" font-weight="bold" font-size="14.00">image_description:</text>
<text text-anchor="start" x="628.5" y="-1023.3" font-family="Times,serif" font-size="14.00"> </text>
<polygon fill="#f0f0f0" stroke="transparent" points="475.5,-982.5 475.5,-1011.5 1126.5,-1011.5 1126.5,-982.5 475.5,-982.5"/>
<polygon fill="none" stroke="black" points="475.5,-982.5 475.5,-1011.5 1126.5,-1011.5 1126.5,-982.5 475.5,-982.5"/>
<text text-anchor="start" x="794" y="-993.3" font-family="Times,serif" font-size="14.00">&#45;&#45;&#45;</text>
<polygon fill="none" stroke="black" points="475.5,-953.5 475.5,-982.5 509.5,-982.5 509.5,-953.5 475.5,-953.5"/>
<text text-anchor="start" x="482.5" y="-965.3" font-family="Times,serif" font-weight="bold" font-size="14.00">PK</text>
<polygon fill="none" stroke="black" points="509.5,-953.5 509.5,-982.5 1126.5,-982.5 1126.5,-953.5 509.5,-953.5"/>
<text text-anchor="start" x="516.5" y="-965.3" font-family="Times,serif" font-weight="bold" font-size="14.00">object_id:</text>
<text text-anchor="start" x="574.5" y="-965.3" font-family="Times,serif" font-size="14.00"> NewYorkEveningExpress1847_img1</text>
<polygon fill="none" stroke="black" points="475.5,-924.5 475.5,-953.5 509.5,-953.5 509.5,-924.5 475.5,-924.5"/>
<polygon fill="none" stroke="black" points="509.5,-924.5 509.5,-953.5 1126.5,-953.5 1126.5,-924.5 509.5,-924.5"/>
<text text-anchor="start" x="516.5" y="-936.3" font-family="Times,serif" font-weight="bold" font-size="14.00">image_file:</text>
<text text-anchor="start" x="581.5" y="-936.3" font-family="Times,serif" font-size="14.00"> NewYorkEveningExpress1847_DigSur_1.png</text>
<polygon fill="none" stroke="black" points="475.5,-895.5 475.5,-924.5 509.5,-924.5 509.5,-895.5 475.5,-895.5"/>
<polygon fill="none" stroke="black" points="509.5,-895.5 509.5,-924.5 1126.5,-924.5 1126.5,-895.5 509.5,-895.5"/>
<text text-anchor="start" x="516.5" y="-907.3" font-family="Times,serif" font-weight="bold" font-size="14.00">image_parent_id:</text>
<text text-anchor="start" x="619.5" y="-907.3" font-family="Times,serif" font-size="14.00"> NewYorkEveningExpress1847_Original</text>
<polygon fill="none" stroke="black" points="475.5,-866.5 475.5,-895.5 509.5,-895.5 509.5,-866.5 475.5,-866.5"/>
<polygon fill="none" stroke="black" points="509.5,-866.5 509.5,-895.5 1126.5,-895.5 1126.5,-866.5 509.5,-866.5"/>
<text text-anchor="start" x="516.5" y="-878.3" font-family="Times,serif" font-weight="bold" font-size="14.00">image_object_location:</text>
<text text-anchor="start" x="651.5" y="-878.3" font-family="Times,serif" font-size="14.00"> objects/NewYorkEveningExpress1847/NewYorkEveningExpress1847_DigSur_1.png</text>
<polygon fill="none" stroke="black" points="475.5,-837.5 475.5,-866.5 509.5,-866.5 509.5,-837.5 475.5,-837.5"/>
<polygon fill="none" stroke="black" points="509.5,-837.5 509.5,-866.5 1126.5,-866.5 1126.5,-837.5 509.5,-837.5"/>
<text text-anchor="start" x="516.5" y="-849.3" font-family="Times,serif" font-weight="bold" font-size="14.00">image_display_template:</text>
<text text-anchor="start" x="662.5" y="-849.3" font-family="Times,serif" font-size="14.00"> image</text>
<polygon fill="none" stroke="black" points="475.5,-808.5 475.5,-837.5 509.5,-837.5 509.5,-808.5 475.5,-808.5"/>
<polygon fill="none" stroke="black" points="509.5,-808.5 509.5,-837.5 1126.5,-837.5 1126.5,-808.5 509.5,-808.5"/>
<text text-anchor="start" x="516.5" y="-820.3" font-family="Times,serif" font-weight="bold" font-size="14.00">image_description:</text>
<text text-anchor="start" x="628.5" y="-820.3" font-family="Times,serif" font-size="14.00"> </text>
<polygon fill="#f0f0f0" stroke="transparent" points="475.5,-779.5 475.5,-808.5 1126.5,-808.5 1126.5,-779.5 475.5,-779.5"/>
<polygon fill="none" stroke="black" points="475.5,-779.5 475.5,-808.5 1126.5,-808.5 1126.5,-779.5 475.5,-779.5"/>
<text text-anchor="start" x="794" y="-790.3" font-family="Times,serif" font-size="14.00">&#45;&#45;&#45;</text>
<polygon fill="none" stroke="black" points="475.5,-750.5 475.5,-779.5 509.5,-779.5 509.5,-750.5 475.5,-750.5"/>
<text text-anchor="start" x="482.5" y="-762.3" font-family="Times,serif" font-weight="bold" font-size="14.00">PK</text>
<polygon fill="none" stroke="black" points="509.5,-750.5 509.5,-779.5 1126.5,-779.5 1126.5,-750.5 509.5,-750.5"/>
<text text-anchor="start" x="516.5" y="-762.3" font-family="Times,serif" font-weight="bold" font-size="14.00">object_id:</text>
<text text-anchor="start" x="574.5" y="-762.3" font-family="Times,serif" font-size="14.00"> NewYorkEveningExpress1847_img2</text>
<polygon fill="none" stroke="black" points="475.5,-721.5 475.5,-750.5 509.5,-750.5 509.5,-721.5 475.5,-721.5"/>
<polygon fill="none" stroke="black" points="509.5,-721.5 509.5,-750.5 1126.5,-750.5 1126.5,-721.5 509.5,-721.5"/>
<text text-anchor="start" x="516.5" y="-733.3" font-family="Times,serif" font-weight="bold" font-size="14.00">image_file:</text>
<text text-anchor="start" x="581.5" y="-733.3" font-family="Times,serif" font-size="14.00"> NewYorkEveningExpress1847_DigSur_2.png</text>
<polygon fill="none" stroke="black" points="475.5,-692.5 475.5,-721.5 509.5,-721.5 509.5,-692.5 475.5,-692.5"/>
<polygon fill="none" stroke="black" points="509.5,-692.5 509.5,-721.5 1126.5,-721.5 1126.5,-692.5 509.5,-692.5"/>
<text text-anchor="start" x="516.5" y="-704.3" font-family="Times,serif" font-weight="bold" font-size="14.00">image_parent_id:</text>
<text text-anchor="start" x="619.5" y="-704.3" font-family="Times,serif" font-size="14.00"> NewYorkEveningExpress1847_Original</text>
<polygon fill="none" stroke="black" points="475.5,-663.5 475.5,-692.5 509.5,-692.5 509.5,-663.5 475.5,-663.5"/>
<polygon fill="none" stroke="black" points="509.5,-663.5 509.5,-692.5 1126.5,-692.5 1126.5,-663.5 509.5,-663.5"/>
<text text-anchor="start" x="516.5" y="-675.3" font-family="Times,serif" font-weight="bold" font-size="14.00">image_object_location:</text>
<text text-anchor="start" x="651.5" y="-675.3" font-family="Times,serif" font-size="14.00"> objects/NewYorkEveningExpress1847/NewYorkEveningExpress1847_DigSur_2.png</text>
<polygon fill="none" stroke="black" points="475.5,-634.5 475.5,-663.5 509.5,-663.5 509.5,-634.5 475.5,-634.5"/>
<polygon fill="none" stroke="black" points="509.5,-634.5 509.5,-663.5 1126.5,-663.5 1126.5,-634.5 509.5,-634.5"/>
<text text-anchor="start" x="516.5" y="-646.3" font-family="Times,serif" font-weight="bold" font-size="14.00">image_display_template:</text>
<text text-anchor="start" x="662.5" y="-646.3" font-family="Times,serif" font-size="14.00"> image</text>
<polygon fill="none" stroke="black" points="475.5,-605.5 475.5,-634.5 509.5,-634.5 509.5,-605.5 475.5,-605.5"/>
<polygon fill="none" stroke="black" points="509.5,-605.5 509.5,-634.5 1126.5,-634.5 1126.5,-605.5 509.5,-605.5"/>
<text text-anchor="start" x="516.5" y="-617.3" font-family="Times,serif" font-weight="bold" font-size="14.00">image_description:</text>
<text text-anchor="start" x="628.5" y="-617.3" font-family="Times,serif" font-size="14.00"> </text>
<polygon fill="none" stroke="black" points="475.5,-576.5 475.5,-605.5 1126.5,-605.5 1126.5,-576.5 475.5,-576.5"/>
<text text-anchor="start" x="741" y="-588.3" font-family="Times,serif" font-style="italic" font-size="14.00">... and 6 more images</text>
<polygon fill="none" stroke="black" points="475.5,-547.5 475.5,-576.5 509.5,-576.5 509.5,-547.5 475.5,-547.5"/>
<text text-anchor="start" x="482.5" y="-559.3" font-family="Times,serif" font-weight="bold" font-size="14.00">FK</text>
<polygon fill="none" stroke="black" points="509.5,-547.5 509.5,-576.5 1126.5,-576.5 1126.5,-547.5 509.5,-547.5"/>
<text text-anchor="start" x="516.5" y="-559.3" font-family="Times,serif" font-weight="bold" font-size="14.00">article_id:</text>
<text text-anchor="start" x="576.5" y="-559.3" font-family="Times,serif" font-size="14.00"> NewYorkEveningExpress1847</text>
<polygon fill="none" stroke="black" stroke-width="2" points="474,-547 474,-1214 1127,-1214 1127,-547 474,-547"/>
</g>
<!-- Article&#45;&gt;Images -->
<g id="edge4" class="edge">
<title>Article&#45;&gt;Images</title>
<path fill="none" stroke="black" stroke-width="1.5" d="M335.11,-880.5C372.38,-880.5 413.25,-880.5 454.79,-880.5"/>
<polygon fill="black" stroke="black" stroke-width="1.5" points="454.79,-880.5 464.79,-885 459.79,-880.5 464.79,-880.5 464.79,-880.5 464.79,-880.5 459.79,-880.5 464.79,-876 454.79,-880.5 454.79,-880.5"/>
<text text-anchor="middle" x="384.95" y="-873.3" font-family="Times,serif" font-size="9.00">has</text>
<text text-anchor="middle" x="384.95" y="-863.3" font-family="Times,serif" font-size="9.00">(1:N)</text>
</g>
<!-- Reprints -->
<g id="node5" class="node">
<title>Reprints</title>
<polygon fill="#ffecb3" stroke="transparent" points="643.5,-436.5 643.5,-463.5 958.5,-463.5 958.5,-436.5 643.5,-436.5"/>
<polygon fill="none" stroke="black" points="643.5,-436.5 643.5,-463.5 958.5,-463.5 958.5,-436.5 643.5,-436.5"/>
<text text-anchor="start" x="729.5" y="-447.9" font-family="Times,serif" font-weight="bold" font-size="12.00">Reprints / Document Group</text>
<polygon fill="none" stroke="black" points="643.5,-407.5 643.5,-436.5 677.5,-436.5 677.5,-407.5 643.5,-407.5"/>
<text text-anchor="start" x="650.5" y="-419.3" font-family="Times,serif" font-weight="bold" font-size="14.00">PK</text>
<polygon fill="none" stroke="black" points="677.5,-407.5 677.5,-436.5 958.5,-436.5 958.5,-407.5 677.5,-407.5"/>
<text text-anchor="start" x="684.5" y="-419.3" font-family="Times,serif" font-weight="bold" font-size="14.00">group_reprint_id:</text>
<text text-anchor="start" x="790.5" y="-419.3" font-family="Times,serif" font-size="14.00"> TheBostonAtlas1847_reprint</text>
<polygon fill="none" stroke="black" points="643.5,-378.5 643.5,-407.5 677.5,-407.5 677.5,-378.5 643.5,-378.5"/>
<polygon fill="none" stroke="black" points="677.5,-378.5 677.5,-407.5 958.5,-407.5 958.5,-378.5 677.5,-378.5"/>
<text text-anchor="start" x="684.5" y="-390.3" font-family="Times,serif" font-weight="bold" font-size="14.00">reprint_type:</text>
<text text-anchor="start" x="762.5" y="-390.3" font-family="Times,serif" font-size="14.00"> direct</text>
<polygon fill="none" stroke="black" points="643.5,-349.5 643.5,-378.5 677.5,-378.5 677.5,-349.5 643.5,-349.5"/>
<polygon fill="none" stroke="black" points="677.5,-349.5 677.5,-378.5 958.5,-378.5 958.5,-349.5 677.5,-349.5"/>
<text text-anchor="start" x="684.5" y="-361.3" font-family="Times,serif" font-weight="bold" font-size="14.00">reprint_order:</text>
<text text-anchor="start" x="769.5" y="-361.3" font-family="Times,serif" font-size="14.00"> </text>
<polygon fill="none" stroke="black" stroke-width="2" points="642,-348.5 642,-464.5 959,-464.5 959,-348.5 642,-348.5"/>
</g>
<!-- Article&#45;&gt;Reprints -->
<g id="edge5" class="edge">
<title>Article&#45;&gt;Reprints</title>
<path fill="none" stroke="black" stroke-width="1.5" d="M341.48,-661.73C406.5,-579.48 465,-505.5 465,-505.5 465,-505.5 548.95,-480.65 632.74,-455.85"/>
<polygon fill="black" stroke="black" stroke-width="1.5" points="341.37,-661.86 331.64,-666.92 338.27,-665.79 335.17,-669.71 335.17,-669.71 335.17,-669.71 338.27,-665.79 338.7,-672.5 341.37,-661.86 341.37,-661.86"/>
<text text-anchor="middle" x="438.99" y="-507.8" font-family="Times,serif" font-size="9.00">belongs to</text>
<text text-anchor="middle" x="438.99" y="-497.8" font-family="Times,serif" font-size="9.00">(N:1)</text>
</g>
<!-- Article_Trope -->
<g id="node6" class="node">
<title>Article_Trope</title>
<polygon fill="#ffe0e0" stroke="transparent" points="649.5,-237.5 649.5,-264.5 952.5,-264.5 952.5,-237.5 649.5,-237.5"/>
<polygon fill="none" stroke="black" points="649.5,-237.5 649.5,-264.5 952.5,-264.5 952.5,-237.5 649.5,-237.5"/>
<text text-anchor="start" x="768.5" y="-248.9" font-family="Times,serif" font-weight="bold" font-size="12.00">article_trope</text>
<polygon fill="none" stroke="black" points="649.5,-208.5 649.5,-237.5 706.5,-237.5 706.5,-208.5 649.5,-208.5"/>
<text text-anchor="start" x="656.5" y="-220.3" font-family="Times,serif" font-weight="bold" font-size="14.00">PK,FK</text>
<polygon fill="none" stroke="black" points="706.5,-208.5 706.5,-237.5 952.5,-237.5 952.5,-208.5 706.5,-208.5"/>
<text text-anchor="start" x="713.5" y="-220.3" font-family="Times,serif" font-weight="bold" font-size="14.00">article_id:</text>
<text text-anchor="start" x="773.5" y="-220.3" font-family="Times,serif" font-size="14.00"> NewYorkEveningExpress1847</text>
<polygon fill="none" stroke="black" points="649.5,-179.5 649.5,-208.5 706.5,-208.5 706.5,-179.5 649.5,-179.5"/>
<text text-anchor="start" x="656.5" y="-191.3" font-family="Times,serif" font-weight="bold" font-size="14.00">PK,FK</text>
<polygon fill="none" stroke="black" points="706.5,-179.5 706.5,-208.5 952.5,-208.5 952.5,-179.5 706.5,-179.5"/>
<text text-anchor="start" x="713.5" y="-191.3" font-family="Times,serif" font-weight="bold" font-size="14.00">trope_id:</text>
<polygon fill="none" stroke="black" points="649.5,-150.5 649.5,-179.5 952.5,-179.5 952.5,-150.5 649.5,-150.5"/>
<text text-anchor="start" x="768" y="-161.3" font-family="Times,serif" font-size="14.00">Lazy Indian</text>
<polygon fill="none" stroke="black" points="649.5,-121.5 649.5,-150.5 952.5,-150.5 952.5,-121.5 649.5,-121.5"/>
<text text-anchor="start" x="763" y="-132.3" font-family="Times,serif" font-size="14.00">Noble Savage</text>
<polygon fill="none" stroke="black" points="649.5,-92.5 649.5,-121.5 952.5,-121.5 952.5,-92.5 649.5,-92.5"/>
<text text-anchor="start" x="755" y="-103.3" font-family="Times,serif" font-size="14.00">Jump Overboard</text>
<polygon fill="none" stroke="black" points="649.5,-63.5 649.5,-92.5 952.5,-92.5 952.5,-63.5 649.5,-63.5"/>
<text text-anchor="start" x="764" y="-74.3" font-family="Times,serif" font-size="14.00">Indian Queen</text>
<polygon fill="none" stroke="black" points="649.5,-34.5 649.5,-63.5 952.5,-63.5 952.5,-34.5 649.5,-34.5"/>
<text text-anchor="start" x="769" y="-45.3" font-family="Times,serif" font-size="14.00">Girl Crusoe</text>
<polygon fill="none" stroke="black" points="649.5,-5.5 649.5,-34.5 952.5,-34.5 952.5,-5.5 649.5,-5.5"/>
<text text-anchor="start" x="770.5" y="-16.3" font-family="Times,serif" font-size="14.00">Wild Child</text>
<polygon fill="none" stroke="black" stroke-width="2" points="648,-5 648,-266 953,-266 953,-5 648,-5"/>
</g>
<!-- Article&#45;&gt;Article_Trope -->
<g id="edge6" class="edge">
<title>Article&#45;&gt;Article_Trope</title>
<path fill="none" stroke="black" stroke-width="1.5" d="M328.68,-570.94C398.62,-435.78 465,-307.5 465,-307.5 465,-307.5 546.85,-265.41 629.58,-222.87"/>
<polygon fill="black" stroke="black" stroke-width="1.5" points="629.73,-222.8 640.68,-222.23 634.17,-220.51 638.62,-218.23 638.62,-218.23 638.62,-218.23 634.17,-220.51 636.56,-214.22 629.73,-222.8 629.73,-222.8"/>
<text text-anchor="middle" x="429.37" y="-349.84" font-family="Times,serif" font-size="9.00">(1:N)</text>
</g>
<!-- Publication&#45;&gt;Location -->
<g id="edge3" class="edge">
<title>Publication&#45;&gt;Location</title>
<path fill="none" stroke="black" stroke-width="1.5" d="M961.49,-1465.91C1055.54,-1453.81 1173.68,-1438.61 1265.87,-1426.75"/>
<polygon fill="black" stroke="black" stroke-width="1.5" points="961.23,-1465.95 950.73,-1462.76 956.27,-1466.59 951.31,-1467.22 951.31,-1467.22 951.31,-1467.22 956.27,-1466.59 951.88,-1471.69 961.23,-1465.95 961.23,-1465.95"/>
<text text-anchor="middle" x="1096.68" y="-1439.13" font-family="Times,serif" font-size="9.00">located at</text>
<text text-anchor="middle" x="1096.68" y="-1429.13" font-family="Times,serif" font-size="9.00">(N:1)</text>
</g>
<!-- Trope -->
<g id="node7" class="node">
<title>Trope</title>
<polygon fill="#ffcdd2" stroke="transparent" points="108.5,-237.5 108.5,-264.5 226.5,-264.5 226.5,-237.5 108.5,-237.5"/>
<polygon fill="none" stroke="black" points="108.5,-237.5 108.5,-264.5 226.5,-264.5 226.5,-237.5 108.5,-237.5"/>
<text text-anchor="start" x="153.5" y="-248.9" font-family="Times,serif" font-weight="bold" font-size="12.00">trope</text>
<polygon fill="none" stroke="black" points="108.5,-208.5 108.5,-237.5 142.5,-237.5 142.5,-208.5 108.5,-208.5"/>
<text text-anchor="start" x="115.5" y="-220.3" font-family="Times,serif" font-weight="bold" font-size="14.00">PK</text>
<polygon fill="none" stroke="black" points="142.5,-208.5 142.5,-237.5 226.5,-237.5 226.5,-208.5 142.5,-208.5"/>
<text text-anchor="start" x="149.5" y="-220.3" font-family="Times,serif" font-weight="bold" font-size="14.00">trope_id:</text>
<polygon fill="none" stroke="black" points="108.5,-179.5 108.5,-208.5 142.5,-208.5 142.5,-179.5 108.5,-179.5"/>
<polygon fill="none" stroke="black" points="142.5,-179.5 142.5,-208.5 226.5,-208.5 226.5,-179.5 142.5,-179.5"/>
<text text-anchor="start" x="149.5" y="-191.3" font-family="Times,serif" font-weight="bold" font-size="14.00">trope_label:</text>
<polygon fill="none" stroke="black" points="108.5,-150.5 108.5,-179.5 226.5,-179.5 226.5,-150.5 108.5,-150.5"/>
<text text-anchor="start" x="134.5" y="-161.3" font-family="Times,serif" font-size="14.00">Lazy Indian</text>
<polygon fill="none" stroke="black" points="108.5,-121.5 108.5,-150.5 226.5,-150.5 226.5,-121.5 108.5,-121.5"/>
<text text-anchor="start" x="129.5" y="-132.3" font-family="Times,serif" font-size="14.00">Noble Savage</text>
<polygon fill="none" stroke="black" points="108.5,-92.5 108.5,-121.5 226.5,-121.5 226.5,-92.5 108.5,-92.5"/>
<text text-anchor="start" x="121.5" y="-103.3" font-family="Times,serif" font-size="14.00">Jump Overboard</text>
<polygon fill="none" stroke="black" points="108.5,-63.5 108.5,-92.5 226.5,-92.5 226.5,-63.5 108.5,-63.5"/>
<text text-anchor="start" x="130.5" y="-74.3" font-family="Times,serif" font-size="14.00">Indian Queen</text>
<polygon fill="none" stroke="black" points="108.5,-34.5 108.5,-63.5 226.5,-63.5 226.5,-34.5 108.5,-34.5"/>
<text text-anchor="start" x="135.5" y="-45.3" font-family="Times,serif" font-size="14.00">Girl Crusoe</text>
<polygon fill="none" stroke="black" points="108.5,-5.5 108.5,-34.5 226.5,-34.5 226.5,-5.5 108.5,-5.5"/>
<text text-anchor="start" x="137" y="-16.3" font-family="Times,serif" font-size="14.00">Wild Child</text>
<polygon fill="none" stroke="black" stroke-width="2" points="107.5,-5 107.5,-266 227.5,-266 227.5,-5 107.5,-5"/>
</g>
<!-- Trope&#45;&gt;Article_Trope -->
<g id="edge7" class="edge">
<title>Trope&#45;&gt;Article_Trope</title>
<path fill="none" stroke="black" stroke-width="1.5" d="M236.63,-135.5C329.63,-135.5 499.49,-135.5 628.38,-135.5"/>
<polygon fill="black" stroke="black" stroke-width="1.5" points="628.75,-135.5 638.75,-140 633.75,-135.5 638.75,-135.5 638.75,-135.5 638.75,-135.5 633.75,-135.5 638.75,-131 628.75,-135.5 628.75,-135.5"/>
<text text-anchor="middle" x="422.5" y="-128.3" font-family="Times,serif" font-size="9.00">(1:N)</text>
</g>
</g>
</svg>
