<?xml version="1.0" encoding="UTF-8" standalone="no"?>
<!DOCTYPE svg PUBLIC "-//W3C//DTD SVG 1.1//EN"
 "http://www.w3.org/Graphics/SVG/1.1/DTD/svg11.dtd">
<!-- Generated by graphviz version 2.50.0 (0)
 -->
<!-- Title: ERD_PublicLedger1847 Pages: 1 -->
<svg width="1830pt" height="1581pt"
 viewBox="0.00 0.00 1830.00 1581.00" xmlns="http://www.w3.org/2000/svg" xmlns:xlink="http://www.w3.org/1999/xlink">
<g id="graph0" class="graph" transform="scale(1 1) rotate(0) translate(4 1577)">
<title>ERD_PublicLedger1847</title>
<polygon fill="white" stroke="transparent" points="-4,4 -4,-1577 1826,-1577 1826,4 -4,4"/>
<text text-anchor="middle" x="911" y="-1557.8" font-family="Arial Bold" font-size="14.00">Entity Relationships for PublicLedger1847</text>
<text text-anchor="middle" x="911" y="-1542.8" font-family="Arial Bold" font-size="14.00">(Reprint Type: direct)</text>
<!-- Article -->
<g id="node1" class="node">
<title>Article</title>
<polygon fill="#b4d7e5" stroke="transparent" points="10.5,-1142.5 10.5,-1169.5 685.5,-1169.5 685.5,-1142.5 10.5,-1142.5"/>
<polygon fill="none" stroke="black" points="10.5,-1142.5 10.5,-1169.5 685.5,-1169.5 685.5,-1142.5 10.5,-1142.5"/>
<text text-anchor="start" x="330.5" y="-1153.9" font-family="Times,serif" font-weight="bold" font-size="12.00">Article</text>
<polygon fill="none" stroke="black" points="10.5,-1113.5 10.5,-1142.5 44.5,-1142.5 44.5,-1113.5 10.5,-1113.5"/>
<text text-anchor="start" x="17.5" y="-1125.3" font-family="Times,serif" font-weight="bold" font-size="14.00">PK</text>
<polygon fill="none" stroke="black" points="44.5,-1113.5 44.5,-1142.5 685.5,-1142.5 685.5,-1113.5 44.5,-1113.5"/>
<text text-anchor="start" x="51.5" y="-1125.3" font-family="Times,serif" font-weight="bold" font-size="14.00">article_id:</text>
<text text-anchor="start" x="111.5" y="-1125.3" font-family="Times,serif" font-size="14.00"> PublicLedger1847</text>
<polygon fill="none" stroke="black" points="10.5,-1084.5 10.5,-1113.5 44.5,-1113.5 44.5,-1084.5 10.5,-1084.5"/>
<polygon fill="none" stroke="black" points="44.5,-1084.5 44.5,-1113.5 685.5,-1113.5 685.5,-1084.5 44.5,-1084.5"/>
<text text-anchor="start" x="51.5" y="-1096.3" font-family="Times,serif" font-weight="bold" font-size="14.00">title:</text>
<text text-anchor="start" x="79.5" y="-1096.3" font-family="Times,serif" font-size="14.00"> &quot;A Female Crusoe&quot;</text>
<polygon fill="none" stroke="black" points="10.5,-1055.5 10.5,-1084.5 44.5,-1084.5 44.5,-1055.5 10.5,-1055.5"/>
<polygon fill="none" stroke="black" points="44.5,-1055.5 44.5,-1084.5 685.5,-1084.5 685.5,-1055.5 44.5,-1055.5"/>
<text text-anchor="start" x="51.5" y="-1067.3" font-family="Times,serif" font-weight="bold" font-size="14.00">author:</text>
<text text-anchor="start" x="95.5" y="-1067.3" font-family="Times,serif" font-size="14.00"> </text>
<polygon fill="none" stroke="black" points="10.5,-1026.5 10.5,-1055.5 44.5,-1055.5 44.5,-1026.5 10.5,-1026.5"/>
<polygon fill="none" stroke="black" points="44.5,-1026.5 44.5,-1055.5 685.5,-1055.5 685.5,-1026.5 44.5,-1026.5"/>
<text text-anchor="start" x="51.5" y="-1038.3" font-family="Times,serif" font-weight="bold" font-size="14.00">date:</text>
<text text-anchor="start" x="81.5" y="-1038.3" font-family="Times,serif" font-size="14.00"> 1847&#45;01&#45;16</text>
<polygon fill="none" stroke="black" points="10.5,-997.5 10.5,-1026.5 44.5,-1026.5 44.5,-997.5 10.5,-997.5"/>
<polygon fill="none" stroke="black" points="44.5,-997.5 44.5,-1026.5 685.5,-1026.5 685.5,-997.5 44.5,-997.5"/>
<text text-anchor="start" x="51.5" y="-1009.3" font-family="Times,serif" font-weight="bold" font-size="14.00">monograph_publishers:</text>
<text text-anchor="start" x="190.5" y="-1009.3" font-family="Times,serif" font-size="14.00"> </text>
<polygon fill="none" stroke="black" points="10.5,-968.5 10.5,-997.5 44.5,-997.5 44.5,-968.5 10.5,-968.5"/>
<polygon fill="none" stroke="black" points="44.5,-968.5 44.5,-997.5 685.5,-997.5 685.5,-968.5 44.5,-968.5"/>
<text text-anchor="start" x="51.5" y="-980.3" font-family="Times,serif" font-weight="bold" font-size="14.00">volume_number:</text>
<text text-anchor="start" x="152.5" y="-980.3" font-family="Times,serif" font-size="14.00"> 22</text>
<polygon fill="none" stroke="black" points="10.5,-939.5 10.5,-968.5 44.5,-968.5 44.5,-939.5 10.5,-939.5"/>
<polygon fill="none" stroke="black" points="44.5,-939.5 44.5,-968.5 685.5,-968.5 685.5,-939.5 44.5,-939.5"/>
<text text-anchor="start" x="51.5" y="-951.3" font-family="Times,serif" font-weight="bold" font-size="14.00">issue_number:</text>
<text text-anchor="start" x="137.5" y="-951.3" font-family="Times,serif" font-size="14.00"> no. 98</text>
<polygon fill="none" stroke="black" points="10.5,-910.5 10.5,-939.5 44.5,-939.5 44.5,-910.5 10.5,-910.5"/>
<polygon fill="none" stroke="black" points="44.5,-910.5 44.5,-939.5 685.5,-939.5 685.5,-910.5 44.5,-910.5"/>
<text text-anchor="start" x="51.5" y="-922.3" font-family="Times,serif" font-weight="bold" font-size="14.00">pages:</text>
<text text-anchor="start" x="88.5" y="-922.3" font-family="Times,serif" font-size="14.00"> 1</text>
<polygon fill="none" stroke="black" points="10.5,-881.5 10.5,-910.5 44.5,-910.5 44.5,-881.5 10.5,-881.5"/>
<polygon fill="none" stroke="black" points="44.5,-881.5 44.5,-910.5 685.5,-910.5 685.5,-881.5 44.5,-881.5"/>
<text text-anchor="start" x="51.5" y="-893.3" font-family="Times,serif" font-weight="bold" font-size="14.00">archival_holding:</text>
<text text-anchor="start" x="154.5" y="-893.3" font-family="Times,serif" font-size="14.00"> </text>
<polygon fill="none" stroke="black" points="10.5,-852.5 10.5,-881.5 44.5,-881.5 44.5,-852.5 10.5,-852.5"/>
<polygon fill="none" stroke="black" points="44.5,-852.5 44.5,-881.5 685.5,-881.5 685.5,-852.5 44.5,-852.5"/>
<text text-anchor="start" x="51.5" y="-864.3" font-family="Times,serif" font-weight="bold" font-size="14.00">archival_location:</text>
<text text-anchor="start" x="156.5" y="-864.3" font-family="Times,serif" font-size="14.00"> </text>
<polygon fill="none" stroke="black" points="10.5,-823.5 10.5,-852.5 44.5,-852.5 44.5,-823.5 10.5,-823.5"/>
<polygon fill="none" stroke="black" points="44.5,-823.5 44.5,-852.5 685.5,-852.5 685.5,-823.5 44.5,-823.5"/>
<text text-anchor="start" x="51.5" y="-835.3" font-family="Times,serif" font-weight="bold" font-size="14.00">cost:</text>
<text text-anchor="start" x="79.5" y="-835.3" font-family="Times,serif" font-size="14.00"> </text>
<polygon fill="none" stroke="black" points="10.5,-794.5 10.5,-823.5 44.5,-823.5 44.5,-794.5 10.5,-794.5"/>
<polygon fill="none" stroke="black" points="44.5,-794.5 44.5,-823.5 685.5,-823.5 685.5,-794.5 44.5,-794.5"/>
<text text-anchor="start" x="51.5" y="-806.3" font-family="Times,serif" font-weight="bold" font-size="14.00">permission:</text>
<text text-anchor="start" x="120.5" y="-806.3" font-family="Times,serif" font-size="14.00"> Public domain</text>
<polygon fill="none" stroke="black" points="10.5,-765.5 10.5,-794.5 44.5,-794.5 44.5,-765.5 10.5,-765.5"/>
<polygon fill="none" stroke="black" points="44.5,-765.5 44.5,-794.5 685.5,-794.5 685.5,-765.5 44.5,-765.5"/>
<text text-anchor="start" x="51.5" y="-777.3" font-family="Times,serif" font-weight="bold" font-size="14.00">permission_acknowledgement:</text>
<text text-anchor="start" x="231.5" y="-777.3" font-family="Times,serif" font-size="14.00"> </text>
<polygon fill="none" stroke="black" points="10.5,-736.5 10.5,-765.5 44.5,-765.5 44.5,-736.5 10.5,-736.5"/>
<polygon fill="none" stroke="black" points="44.5,-736.5 44.5,-765.5 685.5,-765.5 685.5,-736.5 44.5,-736.5"/>
<text text-anchor="start" x="51.5" y="-748.3" font-family="Times,serif" font-weight="bold" font-size="14.00">permission_statements:</text>
<text text-anchor="start" x="189.5" y="-748.3" font-family="Times,serif" font-size="14.00"> </text>
<polygon fill="none" stroke="black" points="10.5,-707.5 10.5,-736.5 44.5,-736.5 44.5,-707.5 10.5,-707.5"/>
<polygon fill="none" stroke="black" points="44.5,-707.5 44.5,-736.5 685.5,-736.5 685.5,-707.5 44.5,-707.5"/>
<text text-anchor="start" x="51.5" y="-719.3" font-family="Times,serif" font-weight="bold" font-size="14.00">acquisitions:</text>
<text text-anchor="start" x="124.5" y="-719.3" font-family="Times,serif" font-size="14.00"> </text>
<polygon fill="none" stroke="black" points="10.5,-678.5 10.5,-707.5 44.5,-707.5 44.5,-678.5 10.5,-678.5"/>
<polygon fill="none" stroke="black" points="44.5,-678.5 44.5,-707.5 685.5,-707.5 685.5,-678.5 44.5,-678.5"/>
<text text-anchor="start" x="51.5" y="-690.3" font-family="Times,serif" font-weight="bold" font-size="14.00">document_intro:</text>
<text text-anchor="start" x="149.5" y="-690.3" font-family="Times,serif" font-size="14.00"> </text>
<polygon fill="none" stroke="black" points="10.5,-649.5 10.5,-678.5 44.5,-678.5 44.5,-649.5 10.5,-649.5"/>
<polygon fill="none" stroke="black" points="44.5,-649.5 44.5,-678.5 685.5,-678.5 685.5,-649.5 44.5,-649.5"/>
<text text-anchor="start" x="51.5" y="-661.3" font-family="Times,serif" font-weight="bold" font-size="14.00">transcripts:</text>
<text text-anchor="start" x="119.5" y="-661.3" font-family="Times,serif" font-size="14.00"> A Female Crusoe. Off the coast of Alta California, about two degrees distant, bearing nearly west fr...</text>
<polygon fill="none" stroke="black" points="10.5,-620.5 10.5,-649.5 44.5,-649.5 44.5,-620.5 10.5,-620.5"/>
<text text-anchor="start" x="17.5" y="-632.3" font-family="Times,serif" font-weight="bold" font-size="14.00">FK</text>
<polygon fill="none" stroke="black" points="44.5,-620.5 44.5,-649.5 685.5,-649.5 685.5,-620.5 44.5,-620.5"/>
<text text-anchor="start" x="51.5" y="-632.3" font-family="Times,serif" font-weight="bold" font-size="14.00">publisher_location:</text>
<text text-anchor="start" x="163.5" y="-632.3" font-family="Times,serif" font-size="14.00"> Philadelphia, Pennsylvania</text>
<polygon fill="none" stroke="black" points="10.5,-591.5 10.5,-620.5 44.5,-620.5 44.5,-591.5 10.5,-591.5"/>
<text text-anchor="start" x="17.5" y="-603.3" font-family="Times,serif" font-weight="bold" font-size="14.00">FK</text>
<polygon fill="none" stroke="black" points="44.5,-591.5 44.5,-620.5 685.5,-620.5 685.5,-591.5 44.5,-591.5"/>
<text text-anchor="start" x="51.5" y="-603.3" font-family="Times,serif" font-weight="bold" font-size="14.00">publication:</text>
<text text-anchor="start" x="121.5" y="-603.3" font-family="Times,serif" font-size="14.00"> Philadelphia Public Ledger</text>
<polygon fill="none" stroke="black" stroke-width="2" points="9,-590.5 9,-1170.5 686,-1170.5 686,-590.5 9,-590.5"/>
</g>
<!-- Publication -->
<g id="node2" class="node">
<title>Publication</title>
<polygon fill="#f4d9b0" stroke="transparent" points="938,-1501.5 938,-1528.5 1249,-1528.5 1249,-1501.5 938,-1501.5"/>
<polygon fill="none" stroke="black" points="938,-1501.5 938,-1528.5 1249,-1528.5 1249,-1501.5 938,-1501.5"/>
<text text-anchor="start" x="1064.5" y="-1512.9" font-family="Times,serif" font-weight="bold" font-size="12.00">Publication</text>
<polygon fill="none" stroke="black" points="938,-1472.5 938,-1501.5 972,-1501.5 972,-1472.5 938,-1472.5"/>
<text text-anchor="start" x="945" y="-1484.3" font-family="Times,serif" font-weight="bold" font-size="14.00">PK</text>
<polygon fill="none" stroke="black" points="972,-1472.5 972,-1501.5 1249,-1501.5 1249,-1472.5 972,-1472.5"/>
<text text-anchor="start" x="979" y="-1484.3" font-family="Times,serif" font-weight="bold" font-size="14.00">publication:</text>
<text text-anchor="start" x="1049" y="-1484.3" font-family="Times,serif" font-size="14.00"> Philadelphia Public Ledger</text>
<polygon fill="none" stroke="black" points="938,-1443.5 938,-1472.5 972,-1472.5 972,-1443.5 938,-1443.5"/>
<text text-anchor="start" x="945" y="-1455.3" font-family="Times,serif" font-weight="bold" font-size="14.00">FK</text>
<polygon fill="none" stroke="black" points="972,-1443.5 972,-1472.5 1249,-1472.5 1249,-1443.5 972,-1443.5"/>
<text text-anchor="start" x="979" y="-1455.3" font-family="Times,serif" font-weight="bold" font-size="14.00">publisher_location:</text>
<text text-anchor="start" x="1091" y="-1455.3" font-family="Times,serif" font-size="14.00"> Philadelphia, Pennsylvania</text>
<polygon fill="none" stroke="black" stroke-width="2" points="936.5,-1443 936.5,-1530 1249.5,-1530 1249.5,-1443 936.5,-1443"/>
</g>
<!-- Article&#45;&gt;Publication -->
<g id="edge1" class="edge">
<title>Article&#45;&gt;Publication</title>
<path fill="none" stroke="black" stroke-width="1.5" d="M635.07,-1183.01C736.09,-1289.64 825,-1383.5 825,-1383.5 825,-1383.5 896.8,-1411.2 965.93,-1437.87"/>
<polygon fill="black" stroke="black" stroke-width="1.5" points="634.97,-1182.9 631.36,-1172.55 631.53,-1179.27 628.09,-1175.64 628.09,-1175.64 628.09,-1175.64 631.53,-1179.27 624.83,-1178.74 634.97,-1182.9 634.97,-1182.9"/>
<text text-anchor="middle" x="759.98" y="-1330.89" font-family="Times,serif" font-size="9.00">published in</text>
<text text-anchor="middle" x="759.98" y="-1320.89" font-family="Times,serif" font-size="9.00">(N:1)</text>
</g>
<!-- Location -->
<g id="node3" class="node">
<title>Location</title>
<polygon fill="#c8e6c9" stroke="transparent" points="1501.5,-1408.5 1501.5,-1435.5 1812.5,-1435.5 1812.5,-1408.5 1501.5,-1408.5"/>
<polygon fill="none" stroke="black" points="1501.5,-1408.5 1501.5,-1435.5 1812.5,-1435.5 1812.5,-1408.5 1501.5,-1408.5"/>
<text text-anchor="start" x="1634" y="-1419.9" font-family="Times,serif" font-weight="bold" font-size="12.00">Location</text>
<polygon fill="none" stroke="black" points="1501.5,-1379.5 1501.5,-1408.5 1535.5,-1408.5 1535.5,-1379.5 1501.5,-1379.5"/>
<text text-anchor="start" x="1508.5" y="-1391.3" font-family="Times,serif" font-weight="bold" font-size="14.00">PK</text>
<polygon fill="none" stroke="black" points="1535.5,-1379.5 1535.5,-1408.5 1812.5,-1408.5 1812.5,-1379.5 1535.5,-1379.5"/>
<text text-anchor="start" x="1542.5" y="-1391.3" font-family="Times,serif" font-weight="bold" font-size="14.00">publisher_location:</text>
<text text-anchor="start" x="1654.5" y="-1391.3" font-family="Times,serif" font-size="14.00"> Philadelphia, Pennsylvania</text>
<polygon fill="none" stroke="black" stroke-width="2" points="1500,-1378.5 1500,-1436.5 1813,-1436.5 1813,-1378.5 1500,-1378.5"/>
</g>
<!-- Article&#45;&gt;Location -->
<g id="edge2" class="edge">
<title>Article&#45;&gt;Location</title>
<path fill="none" stroke="black" stroke-width="1.5" d="M703.24,-1158.94C772.94,-1213.64 825,-1254.5 825,-1254.5 825,-1254.5 1248.81,-1332.58 1490.92,-1377.18"/>
<polygon fill="black" stroke="black" stroke-width="1.5" points="702.98,-1158.72 697.89,-1149.01 699.04,-1155.64 695.11,-1152.55 695.11,-1152.55 695.11,-1152.55 699.04,-1155.64 692.33,-1156.09 702.98,-1158.72 702.98,-1158.72"/>
<text text-anchor="middle" x="1060.35" y="-1294.62" font-family="Times,serif" font-size="9.00">published at</text>
<text text-anchor="middle" x="1060.35" y="-1284.62" font-family="Times,serif" font-size="9.00">(N:1)</text>
</g>
<!-- Images -->
<g id="node4" class="node">
<title>Images</title>
<polygon fill="#e1bee7" stroke="transparent" points="835,-1185.5 835,-1212.5 1351,-1212.5 1351,-1185.5 835,-1185.5"/>
<polygon fill="none" stroke="black" points="835,-1185.5 835,-1212.5 1351,-1212.5 1351,-1185.5 835,-1185.5"/>
<text text-anchor="start" x="1053.5" y="-1196.9" font-family="Times,serif" font-weight="bold" font-size="12.00">Images (7 total)</text>
<polygon fill="none" stroke="black" points="835,-1156.5 835,-1185.5 869,-1185.5 869,-1156.5 835,-1156.5"/>
<text text-anchor="start" x="842" y="-1168.3" font-family="Times,serif" font-weight="bold" font-size="14.00">PK</text>
<polygon fill="none" stroke="black" points="869,-1156.5 869,-1185.5 1351,-1185.5 1351,-1156.5 869,-1156.5"/>
<text text-anchor="start" x="876" y="-1168.3" font-family="Times,serif" font-weight="bold" font-size="14.00">object_id:</text>
<text text-anchor="start" x="934" y="-1168.3" font-family="Times,serif" font-size="14.00"> PublicLedger1847_Original</text>
<polygon fill="none" stroke="black" points="835,-1127.5 835,-1156.5 869,-1156.5 869,-1127.5 835,-1127.5"/>
<polygon fill="none" stroke="black" points="869,-1127.5 869,-1156.5 1351,-1156.5 1351,-1127.5 869,-1127.5"/>
<text text-anchor="start" x="876" y="-1139.3" font-family="Times,serif" font-weight="bold" font-size="14.00">image_file:</text>
<text text-anchor="start" x="941" y="-1139.3" font-family="Times,serif" font-size="14.00"> PublicLedger1847_DigSur_1.png</text>
<polygon fill="none" stroke="black" points="835,-1098.5 835,-1127.5 869,-1127.5 869,-1098.5 835,-1098.5"/>
<polygon fill="none" stroke="black" points="869,-1098.5 869,-1127.5 1351,-1127.5 1351,-1098.5 869,-1098.5"/>
<text text-anchor="start" x="876" y="-1110.3" font-family="Times,serif" font-weight="bold" font-size="14.00">image_parent_id:</text>
<text text-anchor="start" x="979" y="-1110.3" font-family="Times,serif" font-size="14.00"> </text>
<polygon fill="none" stroke="black" points="835,-1069.5 835,-1098.5 869,-1098.5 869,-1069.5 835,-1069.5"/>
<polygon fill="none" stroke="black" points="869,-1069.5 869,-1098.5 1351,-1098.5 1351,-1069.5 869,-1069.5"/>
<text text-anchor="start" x="876" y="-1081.3" font-family="Times,serif" font-weight="bold" font-size="14.00">image_object_location:</text>
<text text-anchor="start" x="1011" y="-1081.3" font-family="Times,serif" font-size="14.00"> objects/PublicLedger1847/PublicLedger1847_DigSur_1.png</text>
<polygon fill="none" stroke="black" points="835,-1040.5 835,-1069.5 869,-1069.5 869,-1040.5 835,-1040.5"/>
<polygon fill="none" stroke="black" points="869,-1040.5 869,-1069.5 1351,-1069.5 1351,-1040.5 869,-1040.5"/>
<text text-anchor="start" x="876" y="-1052.3" font-family="Times,serif" font-weight="bold" font-size="14.00">image_display_template:</text>
<text text-anchor="start" x="1022" y="-1052.3" font-family="Times,serif" font-size="14.00"> compound_object</text>
<polygon fill="none" stroke="black" points="835,-1011.5 835,-1040.5 869,-1040.5 869,-1011.5 835,-1011.5"/>
<polygon fill="none" stroke="black" points="869,-1011.5 869,-1040.5 1351,-1040.5 1351,-1011.5 869,-1011.5"/>
<text text-anchor="start" x="876" y="-1023.3" font-family="Times,serif" font-weight="bold" font-size="14.00">image_description:</text>
<text text-anchor="start" x="988" y="-1023.3" font-family="Times,serif" font-size="14.00"> </text>
<polygon fill="#f0f0f0" stroke="transparent" points="835,-982.5 835,-1011.5 1351,-1011.5 1351,-982.5 835,-982.5"/>
<polygon fill="none" stroke="black" points="835,-982.5 835,-1011.5 1351,-1011.5 1351,-982.5 835,-982.5"/>
<text text-anchor="start" x="1086" y="-993.3" font-family="Times,serif" font-size="14.00">&#45;&#45;&#45;</text>
<polygon fill="none" stroke="black" points="835,-953.5 835,-982.5 869,-982.5 869,-953.5 835,-953.5"/>
<text text-anchor="start" x="842" y="-965.3" font-family="Times,serif" font-weight="bold" font-size="14.00">PK</text>
<polygon fill="none" stroke="black" points="869,-953.5 869,-982.5 1351,-982.5 1351,-953.5 869,-953.5"/>
<text text-anchor="start" x="876" y="-965.3" font-family="Times,serif" font-weight="bold" font-size="14.00">object_id:</text>
<text text-anchor="start" x="934" y="-965.3" font-family="Times,serif" font-size="14.00"> PublicLedger1847_img1</text>
<polygon fill="none" stroke="black" points="835,-924.5 835,-953.5 869,-953.5 869,-924.5 835,-924.5"/>
<polygon fill="none" stroke="black" points="869,-924.5 869,-953.5 1351,-953.5 1351,-924.5 869,-924.5"/>
<text text-anchor="start" x="876" y="-936.3" font-family="Times,serif" font-weight="bold" font-size="14.00">image_file:</text>
<text text-anchor="start" x="941" y="-936.3" font-family="Times,serif" font-size="14.00"> PublicLedger1847_DigSur_1.png</text>
<polygon fill="none" stroke="black" points="835,-895.5 835,-924.5 869,-924.5 869,-895.5 835,-895.5"/>
<polygon fill="none" stroke="black" points="869,-895.5 869,-924.5 1351,-924.5 1351,-895.5 869,-895.5"/>
<text text-anchor="start" x="876" y="-907.3" font-family="Times,serif" font-weight="bold" font-size="14.00">image_parent_id:</text>
<text text-anchor="start" x="979" y="-907.3" font-family="Times,serif" font-size="14.00"> PublicLedger1847_Original</text>
<polygon fill="none" stroke="black" points="835,-866.5 835,-895.5 869,-895.5 869,-866.5 835,-866.5"/>
<polygon fill="none" stroke="black" points="869,-866.5 869,-895.5 1351,-895.5 1351,-866.5 869,-866.5"/>
<text text-anchor="start" x="876" y="-878.3" font-family="Times,serif" font-weight="bold" font-size="14.00">image_object_location:</text>
<text text-anchor="start" x="1011" y="-878.3" font-family="Times,serif" font-size="14.00"> objects/PublicLedger1847/PublicLedger1847_DigSur_1.png</text>
<polygon fill="none" stroke="black" points="835,-837.5 835,-866.5 869,-866.5 869,-837.5 835,-837.5"/>
<polygon fill="none" stroke="black" points="869,-837.5 869,-866.5 1351,-866.5 1351,-837.5 869,-837.5"/>
<text text-anchor="start" x="876" y="-849.3" font-family="Times,serif" font-weight="bold" font-size="14.00">image_display_template:</text>
<text text-anchor="start" x="1022" y="-849.3" font-family="Times,serif" font-size="14.00"> image</text>
<polygon fill="none" stroke="black" points="835,-808.5 835,-837.5 869,-837.5 869,-808.5 835,-808.5"/>
<polygon fill="none" stroke="black" points="869,-808.5 869,-837.5 1351,-837.5 1351,-808.5 869,-808.5"/>
<text text-anchor="start" x="876" y="-820.3" font-family="Times,serif" font-weight="bold" font-size="14.00">image_description:</text>
<text text-anchor="start" x="988" y="-820.3" font-family="Times,serif" font-size="14.00"> </text>
<polygon fill="#f0f0f0" stroke="transparent" points="835,-779.5 835,-808.5 1351,-808.5 1351,-779.5 835,-779.5"/>
<polygon fill="none" stroke="black" points="835,-779.5 835,-808.5 1351,-808.5 1351,-779.5 835,-779.5"/>
<text text-anchor="start" x="1086" y="-790.3" font-family="Times,serif" font-size="14.00">&#45;&#45;&#45;</text>
<polygon fill="none" stroke="black" points="835,-750.5 835,-779.5 869,-779.5 869,-750.5 835,-750.5"/>
<text text-anchor="start" x="842" y="-762.3" font-family="Times,serif" font-weight="bold" font-size="14.00">PK</text>
<polygon fill="none" stroke="black" points="869,-750.5 869,-779.5 1351,-779.5 1351,-750.5 869,-750.5"/>
<text text-anchor="start" x="876" y="-762.3" font-family="Times,serif" font-weight="bold" font-size="14.00">object_id:</text>
<text text-anchor="start" x="934" y="-762.3" font-family="Times,serif" font-size="14.00"> PublicLedger1847_img2</text>
<polygon fill="none" stroke="black" points="835,-721.5 835,-750.5 869,-750.5 869,-721.5 835,-721.5"/>
<polygon fill="none" stroke="black" points="869,-721.5 869,-750.5 1351,-750.5 1351,-721.5 869,-721.5"/>
<text text-anchor="start" x="876" y="-733.3" font-family="Times,serif" font-weight="bold" font-size="14.00">image_file:</text>
<text text-anchor="start" x="941" y="-733.3" font-family="Times,serif" font-size="14.00"> PublicLedger1847_DigSur_2.png</text>
<polygon fill="none" stroke="black" points="835,-692.5 835,-721.5 869,-721.5 869,-692.5 835,-692.5"/>
<polygon fill="none" stroke="black" points="869,-692.5 869,-721.5 1351,-721.5 1351,-692.5 869,-692.5"/>
<text text-anchor="start" x="876" y="-704.3" font-family="Times,serif" font-weight="bold" font-size="14.00">image_parent_id:</text>
<text text-anchor="start" x="979" y="-704.3" font-family="Times,serif" font-size="14.00"> PublicLedger1847_Original</text>
<polygon fill="none" stroke="black" points="835,-663.5 835,-692.5 869,-692.5 869,-663.5 835,-663.5"/>
<polygon fill="none" stroke="black" points="869,-663.5 869,-692.5 1351,-692.5 1351,-663.5 869,-663.5"/>
<text text-anchor="start" x="876" y="-675.3" font-family="Times,serif" font-weight="bold" font-size="14.00">image_object_location:</text>
<text text-anchor="start" x="1011" y="-675.3" font-family="Times,serif" font-size="14.00"> objects/PublicLedger1847/PublicLedger1847_DigSur_2.png</text>
<polygon fill="none" stroke="black" points="835,-634.5 835,-663.5 869,-663.5 869,-634.5 835,-634.5"/>
<polygon fill="none" stroke="black" points="869,-634.5 869,-663.5 1351,-663.5 1351,-634.5 869,-634.5"/>
<text text-anchor="start" x="876" y="-646.3" font-family="Times,serif" font-weight="bold" font-size="14.00">image_display_template:</text>
<text text-anchor="start" x="1022" y="-646.3" font-family="Times,serif" font-size="14.00"> image</text>
<polygon fill="none" stroke="black" points="835,-605.5 835,-634.5 869,-634.5 869,-605.5 835,-605.5"/>
<polygon fill="none" stroke="black" points="869,-605.5 869,-634.5 1351,-634.5 1351,-605.5 869,-605.5"/>
<text text-anchor="start" x="876" y="-617.3" font-family="Times,serif" font-weight="bold" font-size="14.00">image_description:</text>
<text text-anchor="start" x="988" y="-617.3" font-family="Times,serif" font-size="14.00"> </text>
<polygon fill="none" stroke="black" points="835,-576.5 835,-605.5 1351,-605.5 1351,-576.5 835,-576.5"/>
<text text-anchor="start" x="1033" y="-588.3" font-family="Times,serif" font-style="italic" font-size="14.00">... and 4 more images</text>
<polygon fill="none" stroke="black" points="835,-547.5 835,-576.5 869,-576.5 869,-547.5 835,-547.5"/>
<text text-anchor="start" x="842" y="-559.3" font-family="Times,serif" font-weight="bold" font-size="14.00">FK</text>
<polygon fill="none" stroke="black" points="869,-547.5 869,-576.5 1351,-576.5 1351,-547.5 869,-547.5"/>
<text text-anchor="start" x="876" y="-559.3" font-family="Times,serif" font-weight="bold" font-size="14.00">article_id:</text>
<text text-anchor="start" x="936" y="-559.3" font-family="Times,serif" font-size="14.00"> PublicLedger1847</text>
<polygon fill="none" stroke="black" stroke-width="2" points="834,-547 834,-1214 1352,-1214 1352,-547 834,-547"/>
</g>
<!-- Article&#45;&gt;Images -->
<g id="edge4" class="edge">
<title>Article&#45;&gt;Images</title>
<path fill="none" stroke="black" stroke-width="1.5" d="M695.22,-880.5C735.18,-880.5 775.54,-880.5 814.42,-880.5"/>
<polygon fill="black" stroke="black" stroke-width="1.5" points="814.8,-880.5 824.8,-885 819.8,-880.5 824.8,-880.5 824.8,-880.5 824.8,-880.5 819.8,-880.5 824.8,-876 814.8,-880.5 814.8,-880.5"/>
<text text-anchor="middle" x="744.82" y="-873.3" font-family="Times,serif" font-size="9.00">has</text>
<text text-anchor="middle" x="744.82" y="-863.3" font-family="Times,serif" font-size="9.00">(1:N)</text>
</g>
<!-- Reprints -->
<g id="node5" class="node">
<title>Reprints</title>
<polygon fill="#ffecb3" stroke="transparent" points="936,-436.5 936,-463.5 1251,-463.5 1251,-436.5 936,-436.5"/>
<polygon fill="none" stroke="black" points="936,-436.5 936,-463.5 1251,-463.5 1251,-436.5 936,-436.5"/>
<text text-anchor="start" x="1019.5" y="-447.9" font-family="Times,serif" font-weight="bold" font-size="12.00">Reprints / Document Groups</text>
<polygon fill="none" stroke="black" points="936,-407.5 936,-436.5 970,-436.5 970,-407.5 936,-407.5"/>
<text text-anchor="start" x="943" y="-419.3" font-family="Times,serif" font-weight="bold" font-size="14.00">PK</text>
<polygon fill="none" stroke="black" points="970,-407.5 970,-436.5 1251,-436.5 1251,-407.5 970,-407.5"/>
<text text-anchor="start" x="977" y="-419.3" font-family="Times,serif" font-weight="bold" font-size="14.00">group_reprint_id:</text>
<text text-anchor="start" x="1083" y="-419.3" font-family="Times,serif" font-size="14.00"> TheBostonAtlas1847_reprint</text>
<polygon fill="none" stroke="black" points="936,-378.5 936,-407.5 970,-407.5 970,-378.5 936,-378.5"/>
<polygon fill="none" stroke="black" points="970,-378.5 970,-407.5 1251,-407.5 1251,-378.5 970,-378.5"/>
<text text-anchor="start" x="977" y="-390.3" font-family="Times,serif" font-weight="bold" font-size="14.00">reprint_type:</text>
<text text-anchor="start" x="1055" y="-390.3" font-family="Times,serif" font-size="14.00"> direct</text>
<polygon fill="none" stroke="black" points="936,-349.5 936,-378.5 970,-378.5 970,-349.5 936,-349.5"/>
<polygon fill="none" stroke="black" points="970,-349.5 970,-378.5 1251,-378.5 1251,-349.5 970,-349.5"/>
<text text-anchor="start" x="977" y="-361.3" font-family="Times,serif" font-weight="bold" font-size="14.00">reprint_order:</text>
<text text-anchor="start" x="1062" y="-361.3" font-family="Times,serif" font-size="14.00"> </text>
<polygon fill="none" stroke="black" stroke-width="2" points="934.5,-348.5 934.5,-464.5 1251.5,-464.5 1251.5,-348.5 934.5,-348.5"/>
</g>
<!-- Article&#45;&gt;Reprints -->
<g id="edge5" class="edge">
<title>Article&#45;&gt;Reprints</title>
<path fill="none" stroke="black" stroke-width="1.5" d="M703.24,-601.32C772.94,-546.47 825,-505.5 825,-505.5 825,-505.5 865.95,-490.32 915.78,-471.84"/>
<polygon fill="black" stroke="black" stroke-width="1.5" points="702.97,-601.54 692.33,-604.19 699.04,-604.63 695.11,-607.72 695.11,-607.72 695.11,-607.72 699.04,-604.63 697.89,-611.26 702.97,-601.54 702.97,-601.54"/>
<polygon fill="black" stroke="black" stroke-width="1.5" points="915.8,-471.83 926.75,-472.57 920.49,-470.09 925.18,-468.35 925.18,-468.35 925.18,-468.35 920.49,-470.09 923.62,-464.14 915.8,-471.83 915.8,-471.83"/>
<text text-anchor="middle" x="783.66" y="-516.27" font-family="Times,serif" font-size="9.00">belongs to</text>
<text text-anchor="middle" x="783.66" y="-506.27" font-family="Times,serif" font-size="9.00">(N:M)</text>
</g>
<!-- Article_Trope -->
<g id="node6" class="node">
<title>Article_Trope</title>
<polygon fill="#ffe0e0" stroke="transparent" points="976,-237.5 976,-264.5 1211,-264.5 1211,-237.5 976,-237.5"/>
<polygon fill="none" stroke="black" points="976,-237.5 976,-264.5 1211,-264.5 1211,-237.5 976,-237.5"/>
<text text-anchor="start" x="1061" y="-248.9" font-family="Times,serif" font-weight="bold" font-size="12.00">article_trope</text>
<polygon fill="none" stroke="black" points="976,-208.5 976,-237.5 1033,-237.5 1033,-208.5 976,-208.5"/>
<text text-anchor="start" x="983" y="-220.3" font-family="Times,serif" font-weight="bold" font-size="14.00">PK,FK</text>
<polygon fill="none" stroke="black" points="1033,-208.5 1033,-237.5 1211,-237.5 1211,-208.5 1033,-208.5"/>
<text text-anchor="start" x="1040" y="-220.3" font-family="Times,serif" font-weight="bold" font-size="14.00">article_id:</text>
<text text-anchor="start" x="1100" y="-220.3" font-family="Times,serif" font-size="14.00"> PublicLedger1847</text>
<polygon fill="none" stroke="black" points="976,-179.5 976,-208.5 1033,-208.5 1033,-179.5 976,-179.5"/>
<text text-anchor="start" x="983" y="-191.3" font-family="Times,serif" font-weight="bold" font-size="14.00">PK,FK</text>
<polygon fill="none" stroke="black" points="1033,-179.5 1033,-208.5 1211,-208.5 1211,-179.5 1033,-179.5"/>
<text text-anchor="start" x="1040" y="-191.3" font-family="Times,serif" font-weight="bold" font-size="14.00">trope_id:</text>
<polygon fill="none" stroke="black" points="976,-150.5 976,-179.5 1211,-179.5 1211,-150.5 976,-150.5"/>
<text text-anchor="start" x="1060.5" y="-161.3" font-family="Times,serif" font-size="14.00">Lazy Indian</text>
<polygon fill="none" stroke="black" points="976,-121.5 976,-150.5 1211,-150.5 1211,-121.5 976,-121.5"/>
<text text-anchor="start" x="1055.5" y="-132.3" font-family="Times,serif" font-size="14.00">Noble Savage</text>
<polygon fill="none" stroke="black" points="976,-92.5 976,-121.5 1211,-121.5 1211,-92.5 976,-92.5"/>
<text text-anchor="start" x="1047.5" y="-103.3" font-family="Times,serif" font-size="14.00">Jump Overboard</text>
<polygon fill="none" stroke="black" points="976,-63.5 976,-92.5 1211,-92.5 1211,-63.5 976,-63.5"/>
<text text-anchor="start" x="1056.5" y="-74.3" font-family="Times,serif" font-size="14.00">Indian Queen</text>
<polygon fill="none" stroke="black" points="976,-34.5 976,-63.5 1211,-63.5 1211,-34.5 976,-34.5"/>
<text text-anchor="start" x="1061.5" y="-45.3" font-family="Times,serif" font-size="14.00">Girl Crusoe</text>
<polygon fill="none" stroke="black" points="976,-5.5 976,-34.5 1211,-34.5 1211,-5.5 976,-5.5"/>
<text text-anchor="start" x="1063" y="-16.3" font-family="Times,serif" font-size="14.00">Wild Child</text>
<polygon fill="none" stroke="black" stroke-width="2" points="974.5,-5 974.5,-266 1211.5,-266 1211.5,-5 974.5,-5"/>
</g>
<!-- Article&#45;&gt;Article_Trope -->
<g id="edge6" class="edge">
<title>Article&#45;&gt;Article_Trope</title>
<path fill="none" stroke="black" stroke-width="1.5" d="M594.08,-585.19C710.71,-444.93 825,-307.5 825,-307.5 825,-307.5 890.53,-265.29 956.66,-222.68"/>
<polygon fill="black" stroke="black" stroke-width="1.5" points="956.74,-222.63 967.58,-221 960.94,-219.93 965.15,-217.22 965.15,-217.22 965.15,-217.22 960.94,-219.93 962.71,-213.44 956.74,-222.63 956.74,-222.63"/>
<text text-anchor="middle" x="749.61" y="-378.93" font-family="Times,serif" font-size="9.00">(1:N)</text>
</g>
<!-- Publication&#45;&gt;Location -->
<g id="edge3" class="edge">
<title>Publication&#45;&gt;Location</title>
<path fill="none" stroke="black" stroke-width="1.5" d="M1268.61,-1461.93C1339.5,-1451.96 1420.98,-1440.5 1490.83,-1430.67"/>
<polygon fill="black" stroke="black" stroke-width="1.5" points="1268.58,-1461.94 1258.05,-1458.88 1263.63,-1462.63 1258.67,-1463.33 1258.67,-1463.33 1258.67,-1463.33 1263.63,-1462.63 1259.3,-1467.79 1268.58,-1461.94 1268.58,-1461.94"/>
<text text-anchor="middle" x="1362.72" y="-1439.1" font-family="Times,serif" font-size="9.00">located at</text>
<text text-anchor="middle" x="1362.72" y="-1429.1" font-family="Times,serif" font-size="9.00">(N:1)</text>
</g>
<!-- Trope -->
<g id="node7" class="node">
<title>Trope</title>
<polygon fill="#ffcdd2" stroke="transparent" points="288.5,-237.5 288.5,-264.5 406.5,-264.5 406.5,-237.5 288.5,-237.5"/>
<polygon fill="none" stroke="black" points="288.5,-237.5 288.5,-264.5 406.5,-264.5 406.5,-237.5 288.5,-237.5"/>
<text text-anchor="start" x="333.5" y="-248.9" font-family="Times,serif" font-weight="bold" font-size="12.00">trope</text>
<polygon fill="none" stroke="black" points="288.5,-208.5 288.5,-237.5 322.5,-237.5 322.5,-208.5 288.5,-208.5"/>
<text text-anchor="start" x="295.5" y="-220.3" font-family="Times,serif" font-weight="bold" font-size="14.00">PK</text>
<polygon fill="none" stroke="black" points="322.5,-208.5 322.5,-237.5 406.5,-237.5 406.5,-208.5 322.5,-208.5"/>
<text text-anchor="start" x="329.5" y="-220.3" font-family="Times,serif" font-weight="bold" font-size="14.00">trope_id:</text>
<polygon fill="none" stroke="black" points="288.5,-179.5 288.5,-208.5 322.5,-208.5 322.5,-179.5 288.5,-179.5"/>
<polygon fill="none" stroke="black" points="322.5,-179.5 322.5,-208.5 406.5,-208.5 406.5,-179.5 322.5,-179.5"/>
<text text-anchor="start" x="329.5" y="-191.3" font-family="Times,serif" font-weight="bold" font-size="14.00">trope_label:</text>
<polygon fill="none" stroke="black" points="288.5,-150.5 288.5,-179.5 406.5,-179.5 406.5,-150.5 288.5,-150.5"/>
<text text-anchor="start" x="314.5" y="-161.3" font-family="Times,serif" font-size="14.00">Lazy Indian</text>
<polygon fill="none" stroke="black" points="288.5,-121.5 288.5,-150.5 406.5,-150.5 406.5,-121.5 288.5,-121.5"/>
<text text-anchor="start" x="309.5" y="-132.3" font-family="Times,serif" font-size="14.00">Noble Savage</text>
<polygon fill="none" stroke="black" points="288.5,-92.5 288.5,-121.5 406.5,-121.5 406.5,-92.5 288.5,-92.5"/>
<text text-anchor="start" x="301.5" y="-103.3" font-family="Times,serif" font-size="14.00">Jump Overboard</text>
<polygon fill="none" stroke="black" points="288.5,-63.5 288.5,-92.5 406.5,-92.5 406.5,-63.5 288.5,-63.5"/>
<text text-anchor="start" x="310.5" y="-74.3" font-family="Times,serif" font-size="14.00">Indian Queen</text>
<polygon fill="none" stroke="black" points="288.5,-34.5 288.5,-63.5 406.5,-63.5 406.5,-34.5 288.5,-34.5"/>
<text text-anchor="start" x="315.5" y="-45.3" font-family="Times,serif" font-size="14.00">Girl Crusoe</text>
<polygon fill="none" stroke="black" points="288.5,-5.5 288.5,-34.5 406.5,-34.5 406.5,-5.5 288.5,-5.5"/>
<text text-anchor="start" x="317" y="-16.3" font-family="Times,serif" font-size="14.00">Wild Child</text>
<polygon fill="none" stroke="black" stroke-width="2" points="287.5,-5 287.5,-266 407.5,-266 407.5,-5 287.5,-5"/>
</g>
<!-- Trope&#45;&gt;Article_Trope -->
<g id="edge7" class="edge">
<title>Trope&#45;&gt;Article_Trope</title>
<path fill="none" stroke="black" stroke-width="1.5" d="M416.78,-135.5C538.59,-135.5 795.49,-135.5 954.93,-135.5"/>
<polygon fill="black" stroke="black" stroke-width="1.5" points="955.29,-135.5 965.29,-140 960.29,-135.5 965.29,-135.5 965.29,-135.5 965.29,-135.5 960.29,-135.5 965.29,-131 955.29,-135.5 955.29,-135.5"/>
<text text-anchor="middle" x="675.86" y="-128.3" font-family="Times,serif" font-size="9.00">(1:N)</text>
</g>
</g>
</svg>
