<?xml version="1.0" encoding="UTF-8" standalone="no"?>
<!DOCTYPE svg PUBLIC "-//W3C//DTD SVG 1.1//EN"
 "http://www.w3.org/Graphics/SVG/1.1/DTD/svg11.dtd">
<!-- Generated by graphviz version 2.50.0 (0)
 -->
<!-- Title: ERD_SpiritOfTheTimes1847 Pages: 1 -->
<svg width="1481pt" height="1581pt"
 viewBox="0.00 0.00 1481.00 1581.00" xmlns="http://www.w3.org/2000/svg" xmlns:xlink="http://www.w3.org/1999/xlink">
<g id="graph0" class="graph" transform="scale(1 1) rotate(0) translate(4 1577)">
<title>ERD_SpiritOfTheTimes1847</title>
<polygon fill="white" stroke="transparent" points="-4,4 -4,-1577 1477,-1577 1477,4 -4,4"/>
<text text-anchor="middle" x="736.5" y="-1557.8" font-family="Arial Bold" font-size="14.00">Entity Relationships for SpiritOfTheTimes1847</text>
<text text-anchor="middle" x="736.5" y="-1542.8" font-family="Arial Bold" font-size="14.00">(Reprint Type: direct)</text>
<!-- Article -->
<g id="node1" class="node">
<title>Article</title>
<polygon fill="#b4d7e5" stroke="transparent" points="10.5,-1156.5 10.5,-1183.5 325.5,-1183.5 325.5,-1156.5 10.5,-1156.5"/>
<polygon fill="none" stroke="black" points="10.5,-1156.5 10.5,-1183.5 325.5,-1183.5 325.5,-1156.5 10.5,-1156.5"/>
<text text-anchor="start" x="150.5" y="-1167.9" font-family="Times,serif" font-weight="bold" font-size="12.00">Article</text>
<polygon fill="none" stroke="black" points="10.5,-1127.5 10.5,-1156.5 44.5,-1156.5 44.5,-1127.5 10.5,-1127.5"/>
<text text-anchor="start" x="17.5" y="-1139.3" font-family="Times,serif" font-weight="bold" font-size="14.00">PK</text>
<polygon fill="none" stroke="black" points="44.5,-1127.5 44.5,-1156.5 325.5,-1156.5 325.5,-1127.5 44.5,-1127.5"/>
<text text-anchor="start" x="51.5" y="-1139.3" font-family="Times,serif" font-weight="bold" font-size="14.00">article_id:</text>
<text text-anchor="start" x="111.5" y="-1139.3" font-family="Times,serif" font-size="14.00"> SpiritOfTheTimes1847</text>
<polygon fill="none" stroke="black" points="10.5,-1098.5 10.5,-1127.5 44.5,-1127.5 44.5,-1098.5 10.5,-1098.5"/>
<polygon fill="none" stroke="black" points="44.5,-1098.5 44.5,-1127.5 325.5,-1127.5 325.5,-1098.5 44.5,-1098.5"/>
<text text-anchor="start" x="51.5" y="-1110.3" font-family="Times,serif" font-weight="bold" font-size="14.00">title:</text>
<text text-anchor="start" x="79.5" y="-1110.3" font-family="Times,serif" font-size="14.00"> &quot;A Female Crusoe&quot;</text>
<polygon fill="none" stroke="black" points="10.5,-1069.5 10.5,-1098.5 44.5,-1098.5 44.5,-1069.5 10.5,-1069.5"/>
<polygon fill="none" stroke="black" points="44.5,-1069.5 44.5,-1098.5 325.5,-1098.5 325.5,-1069.5 44.5,-1069.5"/>
<text text-anchor="start" x="51.5" y="-1081.3" font-family="Times,serif" font-weight="bold" font-size="14.00">author:</text>
<text text-anchor="start" x="95.5" y="-1081.3" font-family="Times,serif" font-size="14.00"> </text>
<polygon fill="none" stroke="black" points="10.5,-1040.5 10.5,-1069.5 44.5,-1069.5 44.5,-1040.5 10.5,-1040.5"/>
<polygon fill="none" stroke="black" points="44.5,-1040.5 44.5,-1069.5 325.5,-1069.5 325.5,-1040.5 44.5,-1040.5"/>
<text text-anchor="start" x="51.5" y="-1052.3" font-family="Times,serif" font-weight="bold" font-size="14.00">date:</text>
<text text-anchor="start" x="81.5" y="-1052.3" font-family="Times,serif" font-size="14.00"> 1847&#45;01&#45;19</text>
<polygon fill="none" stroke="black" points="10.5,-1011.5 10.5,-1040.5 44.5,-1040.5 44.5,-1011.5 10.5,-1011.5"/>
<polygon fill="none" stroke="black" points="44.5,-1011.5 44.5,-1040.5 325.5,-1040.5 325.5,-1011.5 44.5,-1011.5"/>
<text text-anchor="start" x="51.5" y="-1023.3" font-family="Times,serif" font-weight="bold" font-size="14.00">monograph_publishers:</text>
<text text-anchor="start" x="190.5" y="-1023.3" font-family="Times,serif" font-size="14.00"> </text>
<polygon fill="none" stroke="black" points="10.5,-982.5 10.5,-1011.5 44.5,-1011.5 44.5,-982.5 10.5,-982.5"/>
<polygon fill="none" stroke="black" points="44.5,-982.5 44.5,-1011.5 325.5,-1011.5 325.5,-982.5 44.5,-982.5"/>
<text text-anchor="start" x="51.5" y="-994.3" font-family="Times,serif" font-weight="bold" font-size="14.00">volume_number:</text>
<text text-anchor="start" x="152.5" y="-994.3" font-family="Times,serif" font-size="14.00"> 28</text>
<polygon fill="none" stroke="black" points="10.5,-953.5 10.5,-982.5 44.5,-982.5 44.5,-953.5 10.5,-953.5"/>
<polygon fill="none" stroke="black" points="44.5,-953.5 44.5,-982.5 325.5,-982.5 325.5,-953.5 44.5,-953.5"/>
<text text-anchor="start" x="51.5" y="-965.3" font-family="Times,serif" font-weight="bold" font-size="14.00">issue_number:</text>
<text text-anchor="start" x="137.5" y="-965.3" font-family="Times,serif" font-size="14.00"> no. 31</text>
<polygon fill="none" stroke="black" points="10.5,-924.5 10.5,-953.5 44.5,-953.5 44.5,-924.5 10.5,-924.5"/>
<polygon fill="none" stroke="black" points="44.5,-924.5 44.5,-953.5 325.5,-953.5 325.5,-924.5 44.5,-924.5"/>
<text text-anchor="start" x="51.5" y="-936.3" font-family="Times,serif" font-weight="bold" font-size="14.00">pages:</text>
<text text-anchor="start" x="88.5" y="-936.3" font-family="Times,serif" font-size="14.00"> 1</text>
<polygon fill="none" stroke="black" points="10.5,-895.5 10.5,-924.5 44.5,-924.5 44.5,-895.5 10.5,-895.5"/>
<polygon fill="none" stroke="black" points="44.5,-895.5 44.5,-924.5 325.5,-924.5 325.5,-895.5 44.5,-895.5"/>
<text text-anchor="start" x="51.5" y="-907.3" font-family="Times,serif" font-weight="bold" font-size="14.00">archival_holding:</text>
<text text-anchor="start" x="154.5" y="-907.3" font-family="Times,serif" font-size="14.00"> </text>
<polygon fill="none" stroke="black" points="10.5,-866.5 10.5,-895.5 44.5,-895.5 44.5,-866.5 10.5,-866.5"/>
<polygon fill="none" stroke="black" points="44.5,-866.5 44.5,-895.5 325.5,-895.5 325.5,-866.5 44.5,-866.5"/>
<text text-anchor="start" x="51.5" y="-878.3" font-family="Times,serif" font-weight="bold" font-size="14.00">archival_location:</text>
<text text-anchor="start" x="156.5" y="-878.3" font-family="Times,serif" font-size="14.00"> </text>
<polygon fill="none" stroke="black" points="10.5,-837.5 10.5,-866.5 44.5,-866.5 44.5,-837.5 10.5,-837.5"/>
<polygon fill="none" stroke="black" points="44.5,-837.5 44.5,-866.5 325.5,-866.5 325.5,-837.5 44.5,-837.5"/>
<text text-anchor="start" x="51.5" y="-849.3" font-family="Times,serif" font-weight="bold" font-size="14.00">cost:</text>
<text text-anchor="start" x="79.5" y="-849.3" font-family="Times,serif" font-size="14.00"> </text>
<polygon fill="none" stroke="black" points="10.5,-808.5 10.5,-837.5 44.5,-837.5 44.5,-808.5 10.5,-808.5"/>
<polygon fill="none" stroke="black" points="44.5,-808.5 44.5,-837.5 325.5,-837.5 325.5,-808.5 44.5,-808.5"/>
<text text-anchor="start" x="51.5" y="-820.3" font-family="Times,serif" font-weight="bold" font-size="14.00">permission:</text>
<text text-anchor="start" x="120.5" y="-820.3" font-family="Times,serif" font-size="14.00"> Public domain</text>
<polygon fill="none" stroke="black" points="10.5,-779.5 10.5,-808.5 44.5,-808.5 44.5,-779.5 10.5,-779.5"/>
<polygon fill="none" stroke="black" points="44.5,-779.5 44.5,-808.5 325.5,-808.5 325.5,-779.5 44.5,-779.5"/>
<text text-anchor="start" x="51.5" y="-791.3" font-family="Times,serif" font-weight="bold" font-size="14.00">permission_acknowledgement:</text>
<text text-anchor="start" x="231.5" y="-791.3" font-family="Times,serif" font-size="14.00"> </text>
<polygon fill="none" stroke="black" points="10.5,-750.5 10.5,-779.5 44.5,-779.5 44.5,-750.5 10.5,-750.5"/>
<polygon fill="none" stroke="black" points="44.5,-750.5 44.5,-779.5 325.5,-779.5 325.5,-750.5 44.5,-750.5"/>
<text text-anchor="start" x="51.5" y="-762.3" font-family="Times,serif" font-weight="bold" font-size="14.00">permission_statements:</text>
<text text-anchor="start" x="189.5" y="-762.3" font-family="Times,serif" font-size="14.00"> </text>
<polygon fill="none" stroke="black" points="10.5,-721.5 10.5,-750.5 44.5,-750.5 44.5,-721.5 10.5,-721.5"/>
<polygon fill="none" stroke="black" points="44.5,-721.5 44.5,-750.5 325.5,-750.5 325.5,-721.5 44.5,-721.5"/>
<text text-anchor="start" x="51.5" y="-733.3" font-family="Times,serif" font-weight="bold" font-size="14.00">acquisitions:</text>
<text text-anchor="start" x="124.5" y="-733.3" font-family="Times,serif" font-size="14.00"> </text>
<polygon fill="none" stroke="black" points="10.5,-692.5 10.5,-721.5 44.5,-721.5 44.5,-692.5 10.5,-692.5"/>
<polygon fill="none" stroke="black" points="44.5,-692.5 44.5,-721.5 325.5,-721.5 325.5,-692.5 44.5,-692.5"/>
<text text-anchor="start" x="51.5" y="-704.3" font-family="Times,serif" font-weight="bold" font-size="14.00">document_intro:</text>
<text text-anchor="start" x="149.5" y="-704.3" font-family="Times,serif" font-size="14.00"> </text>
<polygon fill="none" stroke="black" points="10.5,-663.5 10.5,-692.5 44.5,-692.5 44.5,-663.5 10.5,-663.5"/>
<polygon fill="none" stroke="black" points="44.5,-663.5 44.5,-692.5 325.5,-692.5 325.5,-663.5 44.5,-663.5"/>
<text text-anchor="start" x="51.5" y="-675.3" font-family="Times,serif" font-weight="bold" font-size="14.00">transcripts:</text>
<text text-anchor="start" x="119.5" y="-675.3" font-family="Times,serif" font-size="14.00"> </text>
<polygon fill="none" stroke="black" points="10.5,-634.5 10.5,-663.5 44.5,-663.5 44.5,-634.5 10.5,-634.5"/>
<text text-anchor="start" x="17.5" y="-646.3" font-family="Times,serif" font-weight="bold" font-size="14.00">FK</text>
<polygon fill="none" stroke="black" points="44.5,-634.5 44.5,-663.5 325.5,-663.5 325.5,-634.5 44.5,-634.5"/>
<text text-anchor="start" x="51.5" y="-646.3" font-family="Times,serif" font-weight="bold" font-size="14.00">group_reprint_id:</text>
<text text-anchor="start" x="157.5" y="-646.3" font-family="Times,serif" font-size="14.00"> TheBostonAtlas1847_reprint</text>
<polygon fill="none" stroke="black" points="10.5,-605.5 10.5,-634.5 44.5,-634.5 44.5,-605.5 10.5,-605.5"/>
<text text-anchor="start" x="17.5" y="-617.3" font-family="Times,serif" font-weight="bold" font-size="14.00">FK</text>
<polygon fill="none" stroke="black" points="44.5,-605.5 44.5,-634.5 325.5,-634.5 325.5,-605.5 44.5,-605.5"/>
<text text-anchor="start" x="51.5" y="-617.3" font-family="Times,serif" font-weight="bold" font-size="14.00">publisher_location:</text>
<text text-anchor="start" x="163.5" y="-617.3" font-family="Times,serif" font-size="14.00"> Batavia, New York</text>
<polygon fill="none" stroke="black" points="10.5,-576.5 10.5,-605.5 44.5,-605.5 44.5,-576.5 10.5,-576.5"/>
<text text-anchor="start" x="17.5" y="-588.3" font-family="Times,serif" font-weight="bold" font-size="14.00">FK</text>
<polygon fill="none" stroke="black" points="44.5,-576.5 44.5,-605.5 325.5,-605.5 325.5,-576.5 44.5,-576.5"/>
<text text-anchor="start" x="51.5" y="-588.3" font-family="Times,serif" font-weight="bold" font-size="14.00">publication:</text>
<text text-anchor="start" x="121.5" y="-588.3" font-family="Times,serif" font-size="14.00"> Batavia (NY) Spirit of the Times</text>
<polygon fill="none" stroke="black" stroke-width="2" points="9,-576 9,-1185 326,-1185 326,-576 9,-576"/>
</g>
<!-- Publication -->
<g id="node2" class="node">
<title>Publication</title>
<polygon fill="#f4d9b0" stroke="transparent" points="609,-1501.5 609,-1528.5 911,-1528.5 911,-1501.5 609,-1501.5"/>
<polygon fill="none" stroke="black" points="609,-1501.5 609,-1528.5 911,-1528.5 911,-1501.5 609,-1501.5"/>
<text text-anchor="start" x="731" y="-1512.9" font-family="Times,serif" font-weight="bold" font-size="12.00">Publication</text>
<polygon fill="none" stroke="black" points="609,-1472.5 609,-1501.5 643,-1501.5 643,-1472.5 609,-1472.5"/>
<text text-anchor="start" x="616" y="-1484.3" font-family="Times,serif" font-weight="bold" font-size="14.00">PK</text>
<polygon fill="none" stroke="black" points="643,-1472.5 643,-1501.5 911,-1501.5 911,-1472.5 643,-1472.5"/>
<text text-anchor="start" x="650" y="-1484.3" font-family="Times,serif" font-weight="bold" font-size="14.00">publication:</text>
<text text-anchor="start" x="720" y="-1484.3" font-family="Times,serif" font-size="14.00"> Batavia (NY) Spirit of the Times</text>
<polygon fill="none" stroke="black" points="609,-1443.5 609,-1472.5 643,-1472.5 643,-1443.5 609,-1443.5"/>
<text text-anchor="start" x="616" y="-1455.3" font-family="Times,serif" font-weight="bold" font-size="14.00">FK</text>
<polygon fill="none" stroke="black" points="643,-1443.5 643,-1472.5 911,-1472.5 911,-1443.5 643,-1443.5"/>
<text text-anchor="start" x="650" y="-1455.3" font-family="Times,serif" font-weight="bold" font-size="14.00">publisher_location:</text>
<text text-anchor="start" x="762" y="-1455.3" font-family="Times,serif" font-size="14.00"> Batavia, New York</text>
<polygon fill="none" stroke="black" stroke-width="2" points="608,-1443 608,-1530 912,-1530 912,-1443 608,-1443"/>
</g>
<!-- Article&#45;&gt;Publication -->
<g id="edge1" class="edge">
<title>Article&#45;&gt;Publication</title>
<path fill="none" stroke="black" stroke-width="1.5" d="M340.3,-1171.95C405.8,-1283.06 465,-1383.5 465,-1383.5 465,-1383.5 544.06,-1411.2 620.18,-1437.87"/>
<polygon fill="black" stroke="black" stroke-width="1.5" points="340.24,-1171.86 339.04,-1160.96 337.71,-1167.55 335.17,-1163.24 335.17,-1163.24 335.17,-1163.24 337.71,-1167.55 331.29,-1165.53 340.24,-1171.86 340.24,-1171.86"/>
<text text-anchor="middle" x="422.4" y="-1341.35" font-family="Times,serif" font-size="9.00">published in</text>
<text text-anchor="middle" x="422.4" y="-1331.35" font-family="Times,serif" font-size="9.00">(N:1)</text>
</g>
<!-- Location -->
<g id="node3" class="node">
<title>Location</title>
<polygon fill="#c8e6c9" stroke="transparent" points="1195,-1408.5 1195,-1435.5 1463,-1435.5 1463,-1408.5 1195,-1408.5"/>
<polygon fill="none" stroke="black" points="1195,-1408.5 1195,-1435.5 1463,-1435.5 1463,-1408.5 1195,-1408.5"/>
<text text-anchor="start" x="1306" y="-1419.9" font-family="Times,serif" font-weight="bold" font-size="12.00">Location</text>
<polygon fill="none" stroke="black" points="1195,-1379.5 1195,-1408.5 1229,-1408.5 1229,-1379.5 1195,-1379.5"/>
<text text-anchor="start" x="1202" y="-1391.3" font-family="Times,serif" font-weight="bold" font-size="14.00">PK</text>
<polygon fill="none" stroke="black" points="1229,-1379.5 1229,-1408.5 1463,-1408.5 1463,-1379.5 1229,-1379.5"/>
<text text-anchor="start" x="1236" y="-1391.3" font-family="Times,serif" font-weight="bold" font-size="14.00">publisher_location:</text>
<text text-anchor="start" x="1348" y="-1391.3" font-family="Times,serif" font-size="14.00"> Batavia, New York</text>
<polygon fill="none" stroke="black" stroke-width="2" points="1194,-1378.5 1194,-1436.5 1464,-1436.5 1464,-1378.5 1194,-1378.5"/>
</g>
<!-- Article&#45;&gt;Location -->
<g id="edge2" class="edge">
<title>Article&#45;&gt;Location</title>
<path fill="none" stroke="black" stroke-width="1.5" d="M341.48,-1098.69C406.5,-1180.72 465,-1254.5 465,-1254.5 465,-1254.5 939.13,-1338.56 1184.52,-1382.06"/>
<polygon fill="black" stroke="black" stroke-width="1.5" points="341.38,-1098.57 338.69,-1087.93 338.27,-1094.65 335.17,-1090.73 335.17,-1090.73 335.17,-1090.73 338.27,-1094.65 331.64,-1093.53 341.38,-1098.57 341.38,-1098.57"/>
<text text-anchor="middle" x="705.37" y="-1293.73" font-family="Times,serif" font-size="9.00">published at</text>
<text text-anchor="middle" x="705.37" y="-1283.73" font-family="Times,serif" font-size="9.00">(N:1)</text>
</g>
<!-- Images -->
<g id="node4" class="node">
<title>Images</title>
<polygon fill="#e1bee7" stroke="transparent" points="475,-1185.5 475,-1212.5 1045,-1212.5 1045,-1185.5 475,-1185.5"/>
<polygon fill="none" stroke="black" points="475,-1185.5 475,-1212.5 1045,-1212.5 1045,-1185.5 475,-1185.5"/>
<text text-anchor="start" x="720.5" y="-1196.9" font-family="Times,serif" font-weight="bold" font-size="12.00">Images (8 total)</text>
<polygon fill="none" stroke="black" points="475,-1156.5 475,-1185.5 509,-1185.5 509,-1156.5 475,-1156.5"/>
<text text-anchor="start" x="482" y="-1168.3" font-family="Times,serif" font-weight="bold" font-size="14.00">PK</text>
<polygon fill="none" stroke="black" points="509,-1156.5 509,-1185.5 1045,-1185.5 1045,-1156.5 509,-1156.5"/>
<text text-anchor="start" x="516" y="-1168.3" font-family="Times,serif" font-weight="bold" font-size="14.00">object_id:</text>
<text text-anchor="start" x="574" y="-1168.3" font-family="Times,serif" font-size="14.00"> SpiritOfTheTimes1847_Original</text>
<polygon fill="none" stroke="black" points="475,-1127.5 475,-1156.5 509,-1156.5 509,-1127.5 475,-1127.5"/>
<polygon fill="none" stroke="black" points="509,-1127.5 509,-1156.5 1045,-1156.5 1045,-1127.5 509,-1127.5"/>
<text text-anchor="start" x="516" y="-1139.3" font-family="Times,serif" font-weight="bold" font-size="14.00">image_file:</text>
<text text-anchor="start" x="581" y="-1139.3" font-family="Times,serif" font-size="14.00"> SpiritOfTheTimes1847_DigSur_1.png</text>
<polygon fill="none" stroke="black" points="475,-1098.5 475,-1127.5 509,-1127.5 509,-1098.5 475,-1098.5"/>
<polygon fill="none" stroke="black" points="509,-1098.5 509,-1127.5 1045,-1127.5 1045,-1098.5 509,-1098.5"/>
<text text-anchor="start" x="516" y="-1110.3" font-family="Times,serif" font-weight="bold" font-size="14.00">image_parent_id:</text>
<text text-anchor="start" x="619" y="-1110.3" font-family="Times,serif" font-size="14.00"> </text>
<polygon fill="none" stroke="black" points="475,-1069.5 475,-1098.5 509,-1098.5 509,-1069.5 475,-1069.5"/>
<polygon fill="none" stroke="black" points="509,-1069.5 509,-1098.5 1045,-1098.5 1045,-1069.5 509,-1069.5"/>
<text text-anchor="start" x="516" y="-1081.3" font-family="Times,serif" font-weight="bold" font-size="14.00">image_object_location:</text>
<text text-anchor="start" x="651" y="-1081.3" font-family="Times,serif" font-size="14.00"> objects/SpiritOfTheTimes1847/SpiritOfTheTimes1847_DigSur_1.png</text>
<polygon fill="none" stroke="black" points="475,-1040.5 475,-1069.5 509,-1069.5 509,-1040.5 475,-1040.5"/>
<polygon fill="none" stroke="black" points="509,-1040.5 509,-1069.5 1045,-1069.5 1045,-1040.5 509,-1040.5"/>
<text text-anchor="start" x="516" y="-1052.3" font-family="Times,serif" font-weight="bold" font-size="14.00">image_display_template:</text>
<text text-anchor="start" x="662" y="-1052.3" font-family="Times,serif" font-size="14.00"> compound_object</text>
<polygon fill="none" stroke="black" points="475,-1011.5 475,-1040.5 509,-1040.5 509,-1011.5 475,-1011.5"/>
<polygon fill="none" stroke="black" points="509,-1011.5 509,-1040.5 1045,-1040.5 1045,-1011.5 509,-1011.5"/>
<text text-anchor="start" x="516" y="-1023.3" font-family="Times,serif" font-weight="bold" font-size="14.00">image_description:</text>
<text text-anchor="start" x="628" y="-1023.3" font-family="Times,serif" font-size="14.00"> </text>
<polygon fill="#f0f0f0" stroke="transparent" points="475,-982.5 475,-1011.5 1045,-1011.5 1045,-982.5 475,-982.5"/>
<polygon fill="none" stroke="black" points="475,-982.5 475,-1011.5 1045,-1011.5 1045,-982.5 475,-982.5"/>
<text text-anchor="start" x="753" y="-993.3" font-family="Times,serif" font-size="14.00">&#45;&#45;&#45;</text>
<polygon fill="none" stroke="black" points="475,-953.5 475,-982.5 509,-982.5 509,-953.5 475,-953.5"/>
<text text-anchor="start" x="482" y="-965.3" font-family="Times,serif" font-weight="bold" font-size="14.00">PK</text>
<polygon fill="none" stroke="black" points="509,-953.5 509,-982.5 1045,-982.5 1045,-953.5 509,-953.5"/>
<text text-anchor="start" x="516" y="-965.3" font-family="Times,serif" font-weight="bold" font-size="14.00">object_id:</text>
<text text-anchor="start" x="574" y="-965.3" font-family="Times,serif" font-size="14.00"> SpiritOfTheTimes1847_img1</text>
<polygon fill="none" stroke="black" points="475,-924.5 475,-953.5 509,-953.5 509,-924.5 475,-924.5"/>
<polygon fill="none" stroke="black" points="509,-924.5 509,-953.5 1045,-953.5 1045,-924.5 509,-924.5"/>
<text text-anchor="start" x="516" y="-936.3" font-family="Times,serif" font-weight="bold" font-size="14.00">image_file:</text>
<text text-anchor="start" x="581" y="-936.3" font-family="Times,serif" font-size="14.00"> SpiritOfTheTimes1847_DigSur_1.png</text>
<polygon fill="none" stroke="black" points="475,-895.5 475,-924.5 509,-924.5 509,-895.5 475,-895.5"/>
<polygon fill="none" stroke="black" points="509,-895.5 509,-924.5 1045,-924.5 1045,-895.5 509,-895.5"/>
<text text-anchor="start" x="516" y="-907.3" font-family="Times,serif" font-weight="bold" font-size="14.00">image_parent_id:</text>
<text text-anchor="start" x="619" y="-907.3" font-family="Times,serif" font-size="14.00"> SpiritOfTheTimes1847_Original</text>
<polygon fill="none" stroke="black" points="475,-866.5 475,-895.5 509,-895.5 509,-866.5 475,-866.5"/>
<polygon fill="none" stroke="black" points="509,-866.5 509,-895.5 1045,-895.5 1045,-866.5 509,-866.5"/>
<text text-anchor="start" x="516" y="-878.3" font-family="Times,serif" font-weight="bold" font-size="14.00">image_object_location:</text>
<text text-anchor="start" x="651" y="-878.3" font-family="Times,serif" font-size="14.00"> objects/SpiritOfTheTimes1847/SpiritOfTheTimes1847_DigSur_1.png</text>
<polygon fill="none" stroke="black" points="475,-837.5 475,-866.5 509,-866.5 509,-837.5 475,-837.5"/>
<polygon fill="none" stroke="black" points="509,-837.5 509,-866.5 1045,-866.5 1045,-837.5 509,-837.5"/>
<text text-anchor="start" x="516" y="-849.3" font-family="Times,serif" font-weight="bold" font-size="14.00">image_display_template:</text>
<text text-anchor="start" x="662" y="-849.3" font-family="Times,serif" font-size="14.00"> image</text>
<polygon fill="none" stroke="black" points="475,-808.5 475,-837.5 509,-837.5 509,-808.5 475,-808.5"/>
<polygon fill="none" stroke="black" points="509,-808.5 509,-837.5 1045,-837.5 1045,-808.5 509,-808.5"/>
<text text-anchor="start" x="516" y="-820.3" font-family="Times,serif" font-weight="bold" font-size="14.00">image_description:</text>
<text text-anchor="start" x="628" y="-820.3" font-family="Times,serif" font-size="14.00"> </text>
<polygon fill="#f0f0f0" stroke="transparent" points="475,-779.5 475,-808.5 1045,-808.5 1045,-779.5 475,-779.5"/>
<polygon fill="none" stroke="black" points="475,-779.5 475,-808.5 1045,-808.5 1045,-779.5 475,-779.5"/>
<text text-anchor="start" x="753" y="-790.3" font-family="Times,serif" font-size="14.00">&#45;&#45;&#45;</text>
<polygon fill="none" stroke="black" points="475,-750.5 475,-779.5 509,-779.5 509,-750.5 475,-750.5"/>
<text text-anchor="start" x="482" y="-762.3" font-family="Times,serif" font-weight="bold" font-size="14.00">PK</text>
<polygon fill="none" stroke="black" points="509,-750.5 509,-779.5 1045,-779.5 1045,-750.5 509,-750.5"/>
<text text-anchor="start" x="516" y="-762.3" font-family="Times,serif" font-weight="bold" font-size="14.00">object_id:</text>
<text text-anchor="start" x="574" y="-762.3" font-family="Times,serif" font-size="14.00"> SpiritOfTheTimes1847_img2</text>
<polygon fill="none" stroke="black" points="475,-721.5 475,-750.5 509,-750.5 509,-721.5 475,-721.5"/>
<polygon fill="none" stroke="black" points="509,-721.5 509,-750.5 1045,-750.5 1045,-721.5 509,-721.5"/>
<text text-anchor="start" x="516" y="-733.3" font-family="Times,serif" font-weight="bold" font-size="14.00">image_file:</text>
<text text-anchor="start" x="581" y="-733.3" font-family="Times,serif" font-size="14.00"> SpiritOfTheTimes1847_DigSur_2.png</text>
<polygon fill="none" stroke="black" points="475,-692.5 475,-721.5 509,-721.5 509,-692.5 475,-692.5"/>
<polygon fill="none" stroke="black" points="509,-692.5 509,-721.5 1045,-721.5 1045,-692.5 509,-692.5"/>
<text text-anchor="start" x="516" y="-704.3" font-family="Times,serif" font-weight="bold" font-size="14.00">image_parent_id:</text>
<text text-anchor="start" x="619" y="-704.3" font-family="Times,serif" font-size="14.00"> SpiritOfTheTimes1847_Original</text>
<polygon fill="none" stroke="black" points="475,-663.5 475,-692.5 509,-692.5 509,-663.5 475,-663.5"/>
<polygon fill="none" stroke="black" points="509,-663.5 509,-692.5 1045,-692.5 1045,-663.5 509,-663.5"/>
<text text-anchor="start" x="516" y="-675.3" font-family="Times,serif" font-weight="bold" font-size="14.00">image_object_location:</text>
<text text-anchor="start" x="651" y="-675.3" font-family="Times,serif" font-size="14.00"> objects/SpiritOfTheTimes1847/SpiritOfTheTimes1847_DigSur_2.png</text>
<polygon fill="none" stroke="black" points="475,-634.5 475,-663.5 509,-663.5 509,-634.5 475,-634.5"/>
<polygon fill="none" stroke="black" points="509,-634.5 509,-663.5 1045,-663.5 1045,-634.5 509,-634.5"/>
<text text-anchor="start" x="516" y="-646.3" font-family="Times,serif" font-weight="bold" font-size="14.00">image_display_template:</text>
<text text-anchor="start" x="662" y="-646.3" font-family="Times,serif" font-size="14.00"> image</text>
<polygon fill="none" stroke="black" points="475,-605.5 475,-634.5 509,-634.5 509,-605.5 475,-605.5"/>
<polygon fill="none" stroke="black" points="509,-605.5 509,-634.5 1045,-634.5 1045,-605.5 509,-605.5"/>
<text text-anchor="start" x="516" y="-617.3" font-family="Times,serif" font-weight="bold" font-size="14.00">image_description:</text>
<text text-anchor="start" x="628" y="-617.3" font-family="Times,serif" font-size="14.00"> </text>
<polygon fill="none" stroke="black" points="475,-576.5 475,-605.5 1045,-605.5 1045,-576.5 475,-576.5"/>
<text text-anchor="start" x="700" y="-588.3" font-family="Times,serif" font-style="italic" font-size="14.00">... and 5 more images</text>
<polygon fill="none" stroke="black" points="475,-547.5 475,-576.5 509,-576.5 509,-547.5 475,-547.5"/>
<text text-anchor="start" x="482" y="-559.3" font-family="Times,serif" font-weight="bold" font-size="14.00">FK</text>
<polygon fill="none" stroke="black" points="509,-547.5 509,-576.5 1045,-576.5 1045,-547.5 509,-547.5"/>
<text text-anchor="start" x="516" y="-559.3" font-family="Times,serif" font-weight="bold" font-size="14.00">article_id:</text>
<text text-anchor="start" x="576" y="-559.3" font-family="Times,serif" font-size="14.00"> SpiritOfTheTimes1847</text>
<polygon fill="none" stroke="black" stroke-width="2" points="474,-547 474,-1214 1046,-1214 1046,-547 474,-547"/>
</g>
<!-- Article&#45;&gt;Images -->
<g id="edge4" class="edge">
<title>Article&#45;&gt;Images</title>
<path fill="none" stroke="black" stroke-width="1.5" d="M335.35,-880.5C372.76,-880.5 413.59,-880.5 454.66,-880.5"/>
<polygon fill="black" stroke="black" stroke-width="1.5" points="454.82,-880.5 464.82,-885 459.82,-880.5 464.82,-880.5 464.82,-880.5 464.82,-880.5 459.82,-880.5 464.82,-876 454.82,-880.5 454.82,-880.5"/>
<text text-anchor="middle" x="385" y="-873.3" font-family="Times,serif" font-size="9.00">has</text>
<text text-anchor="middle" x="385" y="-863.3" font-family="Times,serif" font-size="9.00">(1:N)</text>
</g>
<!-- Reprints -->
<g id="node5" class="node">
<title>Reprints</title>
<polygon fill="#ffecb3" stroke="transparent" points="603,-436.5 603,-463.5 918,-463.5 918,-436.5 603,-436.5"/>
<polygon fill="none" stroke="black" points="603,-436.5 603,-463.5 918,-463.5 918,-436.5 603,-436.5"/>
<text text-anchor="start" x="689" y="-447.9" font-family="Times,serif" font-weight="bold" font-size="12.00">Reprints / Document Group</text>
<polygon fill="none" stroke="black" points="603,-407.5 603,-436.5 637,-436.5 637,-407.5 603,-407.5"/>
<text text-anchor="start" x="610" y="-419.3" font-family="Times,serif" font-weight="bold" font-size="14.00">PK</text>
<polygon fill="none" stroke="black" points="637,-407.5 637,-436.5 918,-436.5 918,-407.5 637,-407.5"/>
<text text-anchor="start" x="644" y="-419.3" font-family="Times,serif" font-weight="bold" font-size="14.00">group_reprint_id:</text>
<text text-anchor="start" x="750" y="-419.3" font-family="Times,serif" font-size="14.00"> TheBostonAtlas1847_reprint</text>
<polygon fill="none" stroke="black" points="603,-378.5 603,-407.5 637,-407.5 637,-378.5 603,-378.5"/>
<polygon fill="none" stroke="black" points="637,-378.5 637,-407.5 918,-407.5 918,-378.5 637,-378.5"/>
<text text-anchor="start" x="644" y="-390.3" font-family="Times,serif" font-weight="bold" font-size="14.00">reprint_type:</text>
<text text-anchor="start" x="722" y="-390.3" font-family="Times,serif" font-size="14.00"> direct</text>
<polygon fill="none" stroke="black" points="603,-349.5 603,-378.5 637,-378.5 637,-349.5 603,-349.5"/>
<polygon fill="none" stroke="black" points="637,-349.5 637,-378.5 918,-378.5 918,-349.5 637,-349.5"/>
<text text-anchor="start" x="644" y="-361.3" font-family="Times,serif" font-weight="bold" font-size="14.00">reprint_order:</text>
<text text-anchor="start" x="729" y="-361.3" font-family="Times,serif" font-size="14.00"> </text>
<polygon fill="none" stroke="black" stroke-width="2" points="601.5,-348.5 601.5,-464.5 918.5,-464.5 918.5,-348.5 601.5,-348.5"/>
</g>
<!-- Article&#45;&gt;Reprints -->
<g id="edge5" class="edge">
<title>Article&#45;&gt;Reprints</title>
<path fill="none" stroke="black" stroke-width="1.5" d="M341.48,-661.73C406.5,-579.48 465,-505.5 465,-505.5 465,-505.5 525.89,-485 592.24,-462.65"/>
<polygon fill="black" stroke="black" stroke-width="1.5" points="341.37,-661.86 331.64,-666.92 338.27,-665.79 335.17,-669.71 335.17,-669.71 335.17,-669.71 338.27,-665.79 338.7,-672.5 341.37,-661.86 341.37,-661.86"/>
<text text-anchor="middle" x="426.38" y="-523.75" font-family="Times,serif" font-size="9.00">belongs to</text>
<text text-anchor="middle" x="426.38" y="-513.75" font-family="Times,serif" font-size="9.00">(N:1)</text>
</g>
<!-- Article_Trope -->
<g id="node6" class="node">
<title>Article_Trope</title>
<polygon fill="#ffe0e0" stroke="transparent" points="629,-237.5 629,-264.5 891,-264.5 891,-237.5 629,-237.5"/>
<polygon fill="none" stroke="black" points="629,-237.5 629,-264.5 891,-264.5 891,-237.5 629,-237.5"/>
<text text-anchor="start" x="727.5" y="-248.9" font-family="Times,serif" font-weight="bold" font-size="12.00">article_trope</text>
<polygon fill="none" stroke="black" points="629,-208.5 629,-237.5 686,-237.5 686,-208.5 629,-208.5"/>
<text text-anchor="start" x="636" y="-220.3" font-family="Times,serif" font-weight="bold" font-size="14.00">PK,FK</text>
<polygon fill="none" stroke="black" points="686,-208.5 686,-237.5 891,-237.5 891,-208.5 686,-208.5"/>
<text text-anchor="start" x="693" y="-220.3" font-family="Times,serif" font-weight="bold" font-size="14.00">article_id:</text>
<text text-anchor="start" x="753" y="-220.3" font-family="Times,serif" font-size="14.00"> SpiritOfTheTimes1847</text>
<polygon fill="none" stroke="black" points="629,-179.5 629,-208.5 686,-208.5 686,-179.5 629,-179.5"/>
<text text-anchor="start" x="636" y="-191.3" font-family="Times,serif" font-weight="bold" font-size="14.00">PK,FK</text>
<polygon fill="none" stroke="black" points="686,-179.5 686,-208.5 891,-208.5 891,-179.5 686,-179.5"/>
<text text-anchor="start" x="693" y="-191.3" font-family="Times,serif" font-weight="bold" font-size="14.00">trope_id:</text>
<polygon fill="none" stroke="black" points="629,-150.5 629,-179.5 891,-179.5 891,-150.5 629,-150.5"/>
<text text-anchor="start" x="727" y="-161.3" font-family="Times,serif" font-size="14.00">Lazy Indian</text>
<polygon fill="none" stroke="black" points="629,-121.5 629,-150.5 891,-150.5 891,-121.5 629,-121.5"/>
<text text-anchor="start" x="722" y="-132.3" font-family="Times,serif" font-size="14.00">Noble Savage</text>
<polygon fill="none" stroke="black" points="629,-92.5 629,-121.5 891,-121.5 891,-92.5 629,-92.5"/>
<text text-anchor="start" x="714" y="-103.3" font-family="Times,serif" font-size="14.00">Jump Overboard</text>
<polygon fill="none" stroke="black" points="629,-63.5 629,-92.5 891,-92.5 891,-63.5 629,-63.5"/>
<text text-anchor="start" x="723" y="-74.3" font-family="Times,serif" font-size="14.00">Indian Queen</text>
<polygon fill="none" stroke="black" points="629,-34.5 629,-63.5 891,-63.5 891,-34.5 629,-34.5"/>
<text text-anchor="start" x="728" y="-45.3" font-family="Times,serif" font-size="14.00">Girl Crusoe</text>
<polygon fill="none" stroke="black" points="629,-5.5 629,-34.5 891,-34.5 891,-5.5 629,-5.5"/>
<text text-anchor="start" x="729.5" y="-16.3" font-family="Times,serif" font-size="14.00">Wild Child</text>
<polygon fill="none" stroke="black" stroke-width="2" points="628,-5 628,-266 892,-266 892,-5 628,-5"/>
</g>
<!-- Article&#45;&gt;Article_Trope -->
<g id="edge6" class="edge">
<title>Article&#45;&gt;Article_Trope</title>
<path fill="none" stroke="black" stroke-width="1.5" d="M328.68,-570.94C398.62,-435.78 465,-307.5 465,-307.5 465,-307.5 537.18,-265.27 610.01,-222.67"/>
<polygon fill="black" stroke="black" stroke-width="1.5" points="610.26,-222.52 621.16,-221.35 614.57,-219.99 618.89,-217.47 618.89,-217.47 618.89,-217.47 614.57,-219.99 616.62,-213.59 610.26,-222.52 610.26,-222.52"/>
<text text-anchor="middle" x="425.45" y="-357.42" font-family="Times,serif" font-size="9.00">(1:N)</text>
</g>
<!-- Publication&#45;&gt;Location -->
<g id="edge3" class="edge">
<title>Publication&#45;&gt;Location</title>
<path fill="none" stroke="black" stroke-width="1.5" d="M931.49,-1462.75C1012.25,-1451.49 1107.65,-1438.2 1184.63,-1427.48"/>
<polygon fill="black" stroke="black" stroke-width="1.5" points="931.11,-1462.8 920.58,-1459.72 926.16,-1463.49 921.21,-1464.18 921.21,-1464.18 921.21,-1464.18 926.16,-1463.49 921.83,-1468.64 931.11,-1462.8 931.11,-1462.8"/>
<text text-anchor="middle" x="1041.06" y="-1437.91" font-family="Times,serif" font-size="9.00">located at</text>
<text text-anchor="middle" x="1041.06" y="-1427.91" font-family="Times,serif" font-size="9.00">(N:1)</text>
</g>
<!-- Trope -->
<g id="node7" class="node">
<title>Trope</title>
<polygon fill="#ffcdd2" stroke="transparent" points="108.5,-237.5 108.5,-264.5 226.5,-264.5 226.5,-237.5 108.5,-237.5"/>
<polygon fill="none" stroke="black" points="108.5,-237.5 108.5,-264.5 226.5,-264.5 226.5,-237.5 108.5,-237.5"/>
<text text-anchor="start" x="153.5" y="-248.9" font-family="Times,serif" font-weight="bold" font-size="12.00">trope</text>
<polygon fill="none" stroke="black" points="108.5,-208.5 108.5,-237.5 142.5,-237.5 142.5,-208.5 108.5,-208.5"/>
<text text-anchor="start" x="115.5" y="-220.3" font-family="Times,serif" font-weight="bold" font-size="14.00">PK</text>
<polygon fill="none" stroke="black" points="142.5,-208.5 142.5,-237.5 226.5,-237.5 226.5,-208.5 142.5,-208.5"/>
<text text-anchor="start" x="149.5" y="-220.3" font-family="Times,serif" font-weight="bold" font-size="14.00">trope_id:</text>
<polygon fill="none" stroke="black" points="108.5,-179.5 108.5,-208.5 142.5,-208.5 142.5,-179.5 108.5,-179.5"/>
<polygon fill="none" stroke="black" points="142.5,-179.5 142.5,-208.5 226.5,-208.5 226.5,-179.5 142.5,-179.5"/>
<text text-anchor="start" x="149.5" y="-191.3" font-family="Times,serif" font-weight="bold" font-size="14.00">trope_label:</text>
<polygon fill="none" stroke="black" points="108.5,-150.5 108.5,-179.5 226.5,-179.5 226.5,-150.5 108.5,-150.5"/>
<text text-anchor="start" x="134.5" y="-161.3" font-family="Times,serif" font-size="14.00">Lazy Indian</text>
<polygon fill="none" stroke="black" points="108.5,-121.5 108.5,-150.5 226.5,-150.5 226.5,-121.5 108.5,-121.5"/>
<text text-anchor="start" x="129.5" y="-132.3" font-family="Times,serif" font-size="14.00">Noble Savage</text>
<polygon fill="none" stroke="black" points="108.5,-92.5 108.5,-121.5 226.5,-121.5 226.5,-92.5 108.5,-92.5"/>
<text text-anchor="start" x="121.5" y="-103.3" font-family="Times,serif" font-size="14.00">Jump Overboard</text>
<polygon fill="none" stroke="black" points="108.5,-63.5 108.5,-92.5 226.5,-92.5 226.5,-63.5 108.5,-63.5"/>
<text text-anchor="start" x="130.5" y="-74.3" font-family="Times,serif" font-size="14.00">Indian Queen</text>
<polygon fill="none" stroke="black" points="108.5,-34.5 108.5,-63.5 226.5,-63.5 226.5,-34.5 108.5,-34.5"/>
<text text-anchor="start" x="135.5" y="-45.3" font-family="Times,serif" font-size="14.00">Girl Crusoe</text>
<polygon fill="none" stroke="black" points="108.5,-5.5 108.5,-34.5 226.5,-34.5 226.5,-5.5 108.5,-5.5"/>
<text text-anchor="start" x="137" y="-16.3" font-family="Times,serif" font-size="14.00">Wild Child</text>
<polygon fill="none" stroke="black" stroke-width="2" points="107.5,-5 107.5,-266 227.5,-266 227.5,-5 107.5,-5"/>
</g>
<!-- Trope&#45;&gt;Article_Trope -->
<g id="edge7" class="edge">
<title>Trope&#45;&gt;Article_Trope</title>
<path fill="none" stroke="black" stroke-width="1.5" d="M236.53,-135.5C326.84,-135.5 488.87,-135.5 608.62,-135.5"/>
<polygon fill="black" stroke="black" stroke-width="1.5" points="608.98,-135.5 618.98,-140 613.98,-135.5 618.98,-135.5 618.98,-135.5 618.98,-135.5 613.98,-135.5 618.98,-131 608.98,-135.5 608.98,-135.5"/>
<text text-anchor="middle" x="412.57" y="-128.3" font-family="Times,serif" font-size="9.00">(1:N)</text>
</g>
</g>
</svg>
