<?xml version="1.0" encoding="UTF-8" standalone="no"?>
<!DOCTYPE svg PUBLIC "-//W3C//DTD SVG 1.1//EN"
 "http://www.w3.org/Graphics/SVG/1.1/DTD/svg11.dtd">
<!-- Generated by graphviz version 2.50.0 (0)
 -->
<!-- Title: ERD_SpiritOfTheTimes1847 Pages: 1 -->
<svg width="1468pt" height="1581pt"
 viewBox="0.00 0.00 1468.00 1581.00" xmlns="http://www.w3.org/2000/svg" xmlns:xlink="http://www.w3.org/1999/xlink">
<g id="graph0" class="graph" transform="scale(1 1) rotate(0) translate(4 1577)">
<title>ERD_SpiritOfTheTimes1847</title>
<polygon fill="white" stroke="transparent" points="-4,4 -4,-1577 1464,-1577 1464,4 -4,4"/>
<text text-anchor="middle" x="730" y="-1557.8" font-family="Arial Bold" font-size="14.00">Entity Relationships for SpiritOfTheTimes1847</text>
<text text-anchor="middle" x="730" y="-1542.8" font-family="Arial Bold" font-size="14.00">(Reprint Type: direct)</text>
<!-- Article -->
<g id="node1" class="node">
<title>Article</title>
<polygon fill="#b4d7e5" stroke="transparent" points="10,-1142.5 10,-1169.5 312,-1169.5 312,-1142.5 10,-1142.5"/>
<polygon fill="none" stroke="black" points="10,-1142.5 10,-1169.5 312,-1169.5 312,-1142.5 10,-1142.5"/>
<text text-anchor="start" x="143.5" y="-1153.9" font-family="Times,serif" font-weight="bold" font-size="12.00">Article</text>
<polygon fill="none" stroke="black" points="10,-1113.5 10,-1142.5 44,-1142.5 44,-1113.5 10,-1113.5"/>
<text text-anchor="start" x="17" y="-1125.3" font-family="Times,serif" font-weight="bold" font-size="14.00">PK</text>
<polygon fill="none" stroke="black" points="44,-1113.5 44,-1142.5 312,-1142.5 312,-1113.5 44,-1113.5"/>
<text text-anchor="start" x="51" y="-1125.3" font-family="Times,serif" font-weight="bold" font-size="14.00">article_id:</text>
<text text-anchor="start" x="111" y="-1125.3" font-family="Times,serif" font-size="14.00"> SpiritOfTheTimes1847</text>
<polygon fill="none" stroke="black" points="10,-1084.5 10,-1113.5 44,-1113.5 44,-1084.5 10,-1084.5"/>
<polygon fill="none" stroke="black" points="44,-1084.5 44,-1113.5 312,-1113.5 312,-1084.5 44,-1084.5"/>
<text text-anchor="start" x="51" y="-1096.3" font-family="Times,serif" font-weight="bold" font-size="14.00">title:</text>
<text text-anchor="start" x="79" y="-1096.3" font-family="Times,serif" font-size="14.00"> &quot;A Female Crusoe&quot;</text>
<polygon fill="none" stroke="black" points="10,-1055.5 10,-1084.5 44,-1084.5 44,-1055.5 10,-1055.5"/>
<polygon fill="none" stroke="black" points="44,-1055.5 44,-1084.5 312,-1084.5 312,-1055.5 44,-1055.5"/>
<text text-anchor="start" x="51" y="-1067.3" font-family="Times,serif" font-weight="bold" font-size="14.00">author:</text>
<text text-anchor="start" x="95" y="-1067.3" font-family="Times,serif" font-size="14.00"> </text>
<polygon fill="none" stroke="black" points="10,-1026.5 10,-1055.5 44,-1055.5 44,-1026.5 10,-1026.5"/>
<polygon fill="none" stroke="black" points="44,-1026.5 44,-1055.5 312,-1055.5 312,-1026.5 44,-1026.5"/>
<text text-anchor="start" x="51" y="-1038.3" font-family="Times,serif" font-weight="bold" font-size="14.00">date:</text>
<text text-anchor="start" x="81" y="-1038.3" font-family="Times,serif" font-size="14.00"> 1847&#45;01&#45;19</text>
<polygon fill="none" stroke="black" points="10,-997.5 10,-1026.5 44,-1026.5 44,-997.5 10,-997.5"/>
<polygon fill="none" stroke="black" points="44,-997.5 44,-1026.5 312,-1026.5 312,-997.5 44,-997.5"/>
<text text-anchor="start" x="51" y="-1009.3" font-family="Times,serif" font-weight="bold" font-size="14.00">monograph_publishers:</text>
<text text-anchor="start" x="190" y="-1009.3" font-family="Times,serif" font-size="14.00"> </text>
<polygon fill="none" stroke="black" points="10,-968.5 10,-997.5 44,-997.5 44,-968.5 10,-968.5"/>
<polygon fill="none" stroke="black" points="44,-968.5 44,-997.5 312,-997.5 312,-968.5 44,-968.5"/>
<text text-anchor="start" x="51" y="-980.3" font-family="Times,serif" font-weight="bold" font-size="14.00">volume_number:</text>
<text text-anchor="start" x="152" y="-980.3" font-family="Times,serif" font-size="14.00"> 28</text>
<polygon fill="none" stroke="black" points="10,-939.5 10,-968.5 44,-968.5 44,-939.5 10,-939.5"/>
<polygon fill="none" stroke="black" points="44,-939.5 44,-968.5 312,-968.5 312,-939.5 44,-939.5"/>
<text text-anchor="start" x="51" y="-951.3" font-family="Times,serif" font-weight="bold" font-size="14.00">issue_number:</text>
<text text-anchor="start" x="137" y="-951.3" font-family="Times,serif" font-size="14.00"> no. 31</text>
<polygon fill="none" stroke="black" points="10,-910.5 10,-939.5 44,-939.5 44,-910.5 10,-910.5"/>
<polygon fill="none" stroke="black" points="44,-910.5 44,-939.5 312,-939.5 312,-910.5 44,-910.5"/>
<text text-anchor="start" x="51" y="-922.3" font-family="Times,serif" font-weight="bold" font-size="14.00">pages:</text>
<text text-anchor="start" x="88" y="-922.3" font-family="Times,serif" font-size="14.00"> 1</text>
<polygon fill="none" stroke="black" points="10,-881.5 10,-910.5 44,-910.5 44,-881.5 10,-881.5"/>
<polygon fill="none" stroke="black" points="44,-881.5 44,-910.5 312,-910.5 312,-881.5 44,-881.5"/>
<text text-anchor="start" x="51" y="-893.3" font-family="Times,serif" font-weight="bold" font-size="14.00">archival_holding:</text>
<text text-anchor="start" x="154" y="-893.3" font-family="Times,serif" font-size="14.00"> </text>
<polygon fill="none" stroke="black" points="10,-852.5 10,-881.5 44,-881.5 44,-852.5 10,-852.5"/>
<polygon fill="none" stroke="black" points="44,-852.5 44,-881.5 312,-881.5 312,-852.5 44,-852.5"/>
<text text-anchor="start" x="51" y="-864.3" font-family="Times,serif" font-weight="bold" font-size="14.00">archival_location:</text>
<text text-anchor="start" x="156" y="-864.3" font-family="Times,serif" font-size="14.00"> </text>
<polygon fill="none" stroke="black" points="10,-823.5 10,-852.5 44,-852.5 44,-823.5 10,-823.5"/>
<polygon fill="none" stroke="black" points="44,-823.5 44,-852.5 312,-852.5 312,-823.5 44,-823.5"/>
<text text-anchor="start" x="51" y="-835.3" font-family="Times,serif" font-weight="bold" font-size="14.00">cost:</text>
<text text-anchor="start" x="79" y="-835.3" font-family="Times,serif" font-size="14.00"> </text>
<polygon fill="none" stroke="black" points="10,-794.5 10,-823.5 44,-823.5 44,-794.5 10,-794.5"/>
<polygon fill="none" stroke="black" points="44,-794.5 44,-823.5 312,-823.5 312,-794.5 44,-794.5"/>
<text text-anchor="start" x="51" y="-806.3" font-family="Times,serif" font-weight="bold" font-size="14.00">permission:</text>
<text text-anchor="start" x="120" y="-806.3" font-family="Times,serif" font-size="14.00"> Public domain</text>
<polygon fill="none" stroke="black" points="10,-765.5 10,-794.5 44,-794.5 44,-765.5 10,-765.5"/>
<polygon fill="none" stroke="black" points="44,-765.5 44,-794.5 312,-794.5 312,-765.5 44,-765.5"/>
<text text-anchor="start" x="51" y="-777.3" font-family="Times,serif" font-weight="bold" font-size="14.00">permission_acknowledgement:</text>
<text text-anchor="start" x="231" y="-777.3" font-family="Times,serif" font-size="14.00"> </text>
<polygon fill="none" stroke="black" points="10,-736.5 10,-765.5 44,-765.5 44,-736.5 10,-736.5"/>
<polygon fill="none" stroke="black" points="44,-736.5 44,-765.5 312,-765.5 312,-736.5 44,-736.5"/>
<text text-anchor="start" x="51" y="-748.3" font-family="Times,serif" font-weight="bold" font-size="14.00">permission_statements:</text>
<text text-anchor="start" x="189" y="-748.3" font-family="Times,serif" font-size="14.00"> </text>
<polygon fill="none" stroke="black" points="10,-707.5 10,-736.5 44,-736.5 44,-707.5 10,-707.5"/>
<polygon fill="none" stroke="black" points="44,-707.5 44,-736.5 312,-736.5 312,-707.5 44,-707.5"/>
<text text-anchor="start" x="51" y="-719.3" font-family="Times,serif" font-weight="bold" font-size="14.00">acquisitions:</text>
<text text-anchor="start" x="124" y="-719.3" font-family="Times,serif" font-size="14.00"> </text>
<polygon fill="none" stroke="black" points="10,-678.5 10,-707.5 44,-707.5 44,-678.5 10,-678.5"/>
<polygon fill="none" stroke="black" points="44,-678.5 44,-707.5 312,-707.5 312,-678.5 44,-678.5"/>
<text text-anchor="start" x="51" y="-690.3" font-family="Times,serif" font-weight="bold" font-size="14.00">document_intro:</text>
<text text-anchor="start" x="149" y="-690.3" font-family="Times,serif" font-size="14.00"> </text>
<polygon fill="none" stroke="black" points="10,-649.5 10,-678.5 44,-678.5 44,-649.5 10,-649.5"/>
<polygon fill="none" stroke="black" points="44,-649.5 44,-678.5 312,-678.5 312,-649.5 44,-649.5"/>
<text text-anchor="start" x="51" y="-661.3" font-family="Times,serif" font-weight="bold" font-size="14.00">transcripts:</text>
<text text-anchor="start" x="119" y="-661.3" font-family="Times,serif" font-size="14.00"> </text>
<polygon fill="none" stroke="black" points="10,-620.5 10,-649.5 44,-649.5 44,-620.5 10,-620.5"/>
<text text-anchor="start" x="17" y="-632.3" font-family="Times,serif" font-weight="bold" font-size="14.00">FK</text>
<polygon fill="none" stroke="black" points="44,-620.5 44,-649.5 312,-649.5 312,-620.5 44,-620.5"/>
<text text-anchor="start" x="51" y="-632.3" font-family="Times,serif" font-weight="bold" font-size="14.00">publisher_location:</text>
<text text-anchor="start" x="163" y="-632.3" font-family="Times,serif" font-size="14.00"> Batavia, New York</text>
<polygon fill="none" stroke="black" points="10,-591.5 10,-620.5 44,-620.5 44,-591.5 10,-591.5"/>
<text text-anchor="start" x="17" y="-603.3" font-family="Times,serif" font-weight="bold" font-size="14.00">FK</text>
<polygon fill="none" stroke="black" points="44,-591.5 44,-620.5 312,-620.5 312,-591.5 44,-591.5"/>
<text text-anchor="start" x="51" y="-603.3" font-family="Times,serif" font-weight="bold" font-size="14.00">publication:</text>
<text text-anchor="start" x="121" y="-603.3" font-family="Times,serif" font-size="14.00"> Batavia (NY) Spirit of the Times</text>
<polygon fill="none" stroke="black" stroke-width="2" points="9,-590.5 9,-1170.5 313,-1170.5 313,-590.5 9,-590.5"/>
</g>
<!-- Publication -->
<g id="node2" class="node">
<title>Publication</title>
<polygon fill="#f4d9b0" stroke="transparent" points="596,-1501.5 596,-1528.5 898,-1528.5 898,-1501.5 596,-1501.5"/>
<polygon fill="none" stroke="black" points="596,-1501.5 596,-1528.5 898,-1528.5 898,-1501.5 596,-1501.5"/>
<text text-anchor="start" x="718" y="-1512.9" font-family="Times,serif" font-weight="bold" font-size="12.00">Publication</text>
<polygon fill="none" stroke="black" points="596,-1472.5 596,-1501.5 630,-1501.5 630,-1472.5 596,-1472.5"/>
<text text-anchor="start" x="603" y="-1484.3" font-family="Times,serif" font-weight="bold" font-size="14.00">PK</text>
<polygon fill="none" stroke="black" points="630,-1472.5 630,-1501.5 898,-1501.5 898,-1472.5 630,-1472.5"/>
<text text-anchor="start" x="637" y="-1484.3" font-family="Times,serif" font-weight="bold" font-size="14.00">publication:</text>
<text text-anchor="start" x="707" y="-1484.3" font-family="Times,serif" font-size="14.00"> Batavia (NY) Spirit of the Times</text>
<polygon fill="none" stroke="black" points="596,-1443.5 596,-1472.5 630,-1472.5 630,-1443.5 596,-1443.5"/>
<text text-anchor="start" x="603" y="-1455.3" font-family="Times,serif" font-weight="bold" font-size="14.00">FK</text>
<polygon fill="none" stroke="black" points="630,-1443.5 630,-1472.5 898,-1472.5 898,-1443.5 630,-1443.5"/>
<text text-anchor="start" x="637" y="-1455.3" font-family="Times,serif" font-weight="bold" font-size="14.00">publisher_location:</text>
<text text-anchor="start" x="749" y="-1455.3" font-family="Times,serif" font-size="14.00"> Batavia, New York</text>
<polygon fill="none" stroke="black" stroke-width="2" points="595,-1443 595,-1530 899,-1530 899,-1443 595,-1443"/>
</g>
<!-- Article&#45;&gt;Publication -->
<g id="edge1" class="edge">
<title>Article&#45;&gt;Publication</title>
<path fill="none" stroke="black" stroke-width="1.5" d="M327.16,-1166.97C392.35,-1280.04 452,-1383.5 452,-1383.5 452,-1383.5 531.06,-1411.2 607.18,-1437.87"/>
<polygon fill="black" stroke="black" stroke-width="1.5" points="327.05,-1166.78 325.95,-1155.87 324.55,-1162.45 322.06,-1158.12 322.06,-1158.12 322.06,-1158.12 324.55,-1162.45 318.16,-1160.36 327.05,-1166.78 327.05,-1166.78"/>
<text text-anchor="middle" x="408.64" y="-1339.26" font-family="Times,serif" font-size="9.00">published in</text>
<text text-anchor="middle" x="408.64" y="-1329.26" font-family="Times,serif" font-size="9.00">(N:1)</text>
</g>
<!-- Location -->
<g id="node3" class="node">
<title>Location</title>
<polygon fill="#c8e6c9" stroke="transparent" points="1182,-1408.5 1182,-1435.5 1450,-1435.5 1450,-1408.5 1182,-1408.5"/>
<polygon fill="none" stroke="black" points="1182,-1408.5 1182,-1435.5 1450,-1435.5 1450,-1408.5 1182,-1408.5"/>
<text text-anchor="start" x="1293" y="-1419.9" font-family="Times,serif" font-weight="bold" font-size="12.00">Location</text>
<polygon fill="none" stroke="black" points="1182,-1379.5 1182,-1408.5 1216,-1408.5 1216,-1379.5 1182,-1379.5"/>
<text text-anchor="start" x="1189" y="-1391.3" font-family="Times,serif" font-weight="bold" font-size="14.00">PK</text>
<polygon fill="none" stroke="black" points="1216,-1379.5 1216,-1408.5 1450,-1408.5 1450,-1379.5 1216,-1379.5"/>
<text text-anchor="start" x="1223" y="-1391.3" font-family="Times,serif" font-weight="bold" font-size="14.00">publisher_location:</text>
<text text-anchor="start" x="1335" y="-1391.3" font-family="Times,serif" font-size="14.00"> Batavia, New York</text>
<polygon fill="none" stroke="black" stroke-width="2" points="1181,-1378.5 1181,-1436.5 1451,-1436.5 1451,-1378.5 1181,-1378.5"/>
</g>
<!-- Article&#45;&gt;Location -->
<g id="edge2" class="edge">
<title>Article&#45;&gt;Location</title>
<path fill="none" stroke="black" stroke-width="1.5" d="M328.34,-1095.02C393.07,-1178.5 452,-1254.5 452,-1254.5 452,-1254.5 926.13,-1338.56 1171.52,-1382.06"/>
<polygon fill="black" stroke="black" stroke-width="1.5" points="328.18,-1094.82 325.61,-1084.16 325.12,-1090.87 322.06,-1086.92 322.06,-1086.92 322.06,-1086.92 325.12,-1090.87 318.5,-1089.68 328.18,-1094.82 328.18,-1094.82"/>
<text text-anchor="middle" x="690.91" y="-1293.47" font-family="Times,serif" font-size="9.00">published at</text>
<text text-anchor="middle" x="690.91" y="-1283.47" font-family="Times,serif" font-size="9.00">(N:1)</text>
</g>
<!-- Images -->
<g id="node4" class="node">
<title>Images</title>
<polygon fill="#e1bee7" stroke="transparent" points="462,-1185.5 462,-1212.5 1032,-1212.5 1032,-1185.5 462,-1185.5"/>
<polygon fill="none" stroke="black" points="462,-1185.5 462,-1212.5 1032,-1212.5 1032,-1185.5 462,-1185.5"/>
<text text-anchor="start" x="707.5" y="-1196.9" font-family="Times,serif" font-weight="bold" font-size="12.00">Images (8 total)</text>
<polygon fill="none" stroke="black" points="462,-1156.5 462,-1185.5 496,-1185.5 496,-1156.5 462,-1156.5"/>
<text text-anchor="start" x="469" y="-1168.3" font-family="Times,serif" font-weight="bold" font-size="14.00">PK</text>
<polygon fill="none" stroke="black" points="496,-1156.5 496,-1185.5 1032,-1185.5 1032,-1156.5 496,-1156.5"/>
<text text-anchor="start" x="503" y="-1168.3" font-family="Times,serif" font-weight="bold" font-size="14.00">object_id:</text>
<text text-anchor="start" x="561" y="-1168.3" font-family="Times,serif" font-size="14.00"> SpiritOfTheTimes1847_Original</text>
<polygon fill="none" stroke="black" points="462,-1127.5 462,-1156.5 496,-1156.5 496,-1127.5 462,-1127.5"/>
<polygon fill="none" stroke="black" points="496,-1127.5 496,-1156.5 1032,-1156.5 1032,-1127.5 496,-1127.5"/>
<text text-anchor="start" x="503" y="-1139.3" font-family="Times,serif" font-weight="bold" font-size="14.00">image_file:</text>
<text text-anchor="start" x="568" y="-1139.3" font-family="Times,serif" font-size="14.00"> SpiritOfTheTimes1847_DigSur_1.png</text>
<polygon fill="none" stroke="black" points="462,-1098.5 462,-1127.5 496,-1127.5 496,-1098.5 462,-1098.5"/>
<polygon fill="none" stroke="black" points="496,-1098.5 496,-1127.5 1032,-1127.5 1032,-1098.5 496,-1098.5"/>
<text text-anchor="start" x="503" y="-1110.3" font-family="Times,serif" font-weight="bold" font-size="14.00">image_parent_id:</text>
<text text-anchor="start" x="606" y="-1110.3" font-family="Times,serif" font-size="14.00"> </text>
<polygon fill="none" stroke="black" points="462,-1069.5 462,-1098.5 496,-1098.5 496,-1069.5 462,-1069.5"/>
<polygon fill="none" stroke="black" points="496,-1069.5 496,-1098.5 1032,-1098.5 1032,-1069.5 496,-1069.5"/>
<text text-anchor="start" x="503" y="-1081.3" font-family="Times,serif" font-weight="bold" font-size="14.00">image_object_location:</text>
<text text-anchor="start" x="638" y="-1081.3" font-family="Times,serif" font-size="14.00"> objects/SpiritOfTheTimes1847/SpiritOfTheTimes1847_DigSur_1.png</text>
<polygon fill="none" stroke="black" points="462,-1040.5 462,-1069.5 496,-1069.5 496,-1040.5 462,-1040.5"/>
<polygon fill="none" stroke="black" points="496,-1040.5 496,-1069.5 1032,-1069.5 1032,-1040.5 496,-1040.5"/>
<text text-anchor="start" x="503" y="-1052.3" font-family="Times,serif" font-weight="bold" font-size="14.00">image_display_template:</text>
<text text-anchor="start" x="649" y="-1052.3" font-family="Times,serif" font-size="14.00"> compound_object</text>
<polygon fill="none" stroke="black" points="462,-1011.5 462,-1040.5 496,-1040.5 496,-1011.5 462,-1011.5"/>
<polygon fill="none" stroke="black" points="496,-1011.5 496,-1040.5 1032,-1040.5 1032,-1011.5 496,-1011.5"/>
<text text-anchor="start" x="503" y="-1023.3" font-family="Times,serif" font-weight="bold" font-size="14.00">image_description:</text>
<text text-anchor="start" x="615" y="-1023.3" font-family="Times,serif" font-size="14.00"> </text>
<polygon fill="#f0f0f0" stroke="transparent" points="462,-982.5 462,-1011.5 1032,-1011.5 1032,-982.5 462,-982.5"/>
<polygon fill="none" stroke="black" points="462,-982.5 462,-1011.5 1032,-1011.5 1032,-982.5 462,-982.5"/>
<text text-anchor="start" x="740" y="-993.3" font-family="Times,serif" font-size="14.00">&#45;&#45;&#45;</text>
<polygon fill="none" stroke="black" points="462,-953.5 462,-982.5 496,-982.5 496,-953.5 462,-953.5"/>
<text text-anchor="start" x="469" y="-965.3" font-family="Times,serif" font-weight="bold" font-size="14.00">PK</text>
<polygon fill="none" stroke="black" points="496,-953.5 496,-982.5 1032,-982.5 1032,-953.5 496,-953.5"/>
<text text-anchor="start" x="503" y="-965.3" font-family="Times,serif" font-weight="bold" font-size="14.00">object_id:</text>
<text text-anchor="start" x="561" y="-965.3" font-family="Times,serif" font-size="14.00"> SpiritOfTheTimes1847_img1</text>
<polygon fill="none" stroke="black" points="462,-924.5 462,-953.5 496,-953.5 496,-924.5 462,-924.5"/>
<polygon fill="none" stroke="black" points="496,-924.5 496,-953.5 1032,-953.5 1032,-924.5 496,-924.5"/>
<text text-anchor="start" x="503" y="-936.3" font-family="Times,serif" font-weight="bold" font-size="14.00">image_file:</text>
<text text-anchor="start" x="568" y="-936.3" font-family="Times,serif" font-size="14.00"> SpiritOfTheTimes1847_DigSur_1.png</text>
<polygon fill="none" stroke="black" points="462,-895.5 462,-924.5 496,-924.5 496,-895.5 462,-895.5"/>
<polygon fill="none" stroke="black" points="496,-895.5 496,-924.5 1032,-924.5 1032,-895.5 496,-895.5"/>
<text text-anchor="start" x="503" y="-907.3" font-family="Times,serif" font-weight="bold" font-size="14.00">image_parent_id:</text>
<text text-anchor="start" x="606" y="-907.3" font-family="Times,serif" font-size="14.00"> SpiritOfTheTimes1847_Original</text>
<polygon fill="none" stroke="black" points="462,-866.5 462,-895.5 496,-895.5 496,-866.5 462,-866.5"/>
<polygon fill="none" stroke="black" points="496,-866.5 496,-895.5 1032,-895.5 1032,-866.5 496,-866.5"/>
<text text-anchor="start" x="503" y="-878.3" font-family="Times,serif" font-weight="bold" font-size="14.00">image_object_location:</text>
<text text-anchor="start" x="638" y="-878.3" font-family="Times,serif" font-size="14.00"> objects/SpiritOfTheTimes1847/SpiritOfTheTimes1847_DigSur_1.png</text>
<polygon fill="none" stroke="black" points="462,-837.5 462,-866.5 496,-866.5 496,-837.5 462,-837.5"/>
<polygon fill="none" stroke="black" points="496,-837.5 496,-866.5 1032,-866.5 1032,-837.5 496,-837.5"/>
<text text-anchor="start" x="503" y="-849.3" font-family="Times,serif" font-weight="bold" font-size="14.00">image_display_template:</text>
<text text-anchor="start" x="649" y="-849.3" font-family="Times,serif" font-size="14.00"> image</text>
<polygon fill="none" stroke="black" points="462,-808.5 462,-837.5 496,-837.5 496,-808.5 462,-808.5"/>
<polygon fill="none" stroke="black" points="496,-808.5 496,-837.5 1032,-837.5 1032,-808.5 496,-808.5"/>
<text text-anchor="start" x="503" y="-820.3" font-family="Times,serif" font-weight="bold" font-size="14.00">image_description:</text>
<text text-anchor="start" x="615" y="-820.3" font-family="Times,serif" font-size="14.00"> </text>
<polygon fill="#f0f0f0" stroke="transparent" points="462,-779.5 462,-808.5 1032,-808.5 1032,-779.5 462,-779.5"/>
<polygon fill="none" stroke="black" points="462,-779.5 462,-808.5 1032,-808.5 1032,-779.5 462,-779.5"/>
<text text-anchor="start" x="740" y="-790.3" font-family="Times,serif" font-size="14.00">&#45;&#45;&#45;</text>
<polygon fill="none" stroke="black" points="462,-750.5 462,-779.5 496,-779.5 496,-750.5 462,-750.5"/>
<text text-anchor="start" x="469" y="-762.3" font-family="Times,serif" font-weight="bold" font-size="14.00">PK</text>
<polygon fill="none" stroke="black" points="496,-750.5 496,-779.5 1032,-779.5 1032,-750.5 496,-750.5"/>
<text text-anchor="start" x="503" y="-762.3" font-family="Times,serif" font-weight="bold" font-size="14.00">object_id:</text>
<text text-anchor="start" x="561" y="-762.3" font-family="Times,serif" font-size="14.00"> SpiritOfTheTimes1847_img2</text>
<polygon fill="none" stroke="black" points="462,-721.5 462,-750.5 496,-750.5 496,-721.5 462,-721.5"/>
<polygon fill="none" stroke="black" points="496,-721.5 496,-750.5 1032,-750.5 1032,-721.5 496,-721.5"/>
<text text-anchor="start" x="503" y="-733.3" font-family="Times,serif" font-weight="bold" font-size="14.00">image_file:</text>
<text text-anchor="start" x="568" y="-733.3" font-family="Times,serif" font-size="14.00"> SpiritOfTheTimes1847_DigSur_2.png</text>
<polygon fill="none" stroke="black" points="462,-692.5 462,-721.5 496,-721.5 496,-692.5 462,-692.5"/>
<polygon fill="none" stroke="black" points="496,-692.5 496,-721.5 1032,-721.5 1032,-692.5 496,-692.5"/>
<text text-anchor="start" x="503" y="-704.3" font-family="Times,serif" font-weight="bold" font-size="14.00">image_parent_id:</text>
<text text-anchor="start" x="606" y="-704.3" font-family="Times,serif" font-size="14.00"> SpiritOfTheTimes1847_Original</text>
<polygon fill="none" stroke="black" points="462,-663.5 462,-692.5 496,-692.5 496,-663.5 462,-663.5"/>
<polygon fill="none" stroke="black" points="496,-663.5 496,-692.5 1032,-692.5 1032,-663.5 496,-663.5"/>
<text text-anchor="start" x="503" y="-675.3" font-family="Times,serif" font-weight="bold" font-size="14.00">image_object_location:</text>
<text text-anchor="start" x="638" y="-675.3" font-family="Times,serif" font-size="14.00"> objects/SpiritOfTheTimes1847/SpiritOfTheTimes1847_DigSur_2.png</text>
<polygon fill="none" stroke="black" points="462,-634.5 462,-663.5 496,-663.5 496,-634.5 462,-634.5"/>
<polygon fill="none" stroke="black" points="496,-634.5 496,-663.5 1032,-663.5 1032,-634.5 496,-634.5"/>
<text text-anchor="start" x="503" y="-646.3" font-family="Times,serif" font-weight="bold" font-size="14.00">image_display_template:</text>
<text text-anchor="start" x="649" y="-646.3" font-family="Times,serif" font-size="14.00"> image</text>
<polygon fill="none" stroke="black" points="462,-605.5 462,-634.5 496,-634.5 496,-605.5 462,-605.5"/>
<polygon fill="none" stroke="black" points="496,-605.5 496,-634.5 1032,-634.5 1032,-605.5 496,-605.5"/>
<text text-anchor="start" x="503" y="-617.3" font-family="Times,serif" font-weight="bold" font-size="14.00">image_description:</text>
<text text-anchor="start" x="615" y="-617.3" font-family="Times,serif" font-size="14.00"> </text>
<polygon fill="none" stroke="black" points="462,-576.5 462,-605.5 1032,-605.5 1032,-576.5 462,-576.5"/>
<text text-anchor="start" x="687" y="-588.3" font-family="Times,serif" font-style="italic" font-size="14.00">... and 5 more images</text>
<polygon fill="none" stroke="black" points="462,-547.5 462,-576.5 496,-576.5 496,-547.5 462,-547.5"/>
<text text-anchor="start" x="469" y="-559.3" font-family="Times,serif" font-weight="bold" font-size="14.00">FK</text>
<polygon fill="none" stroke="black" points="496,-547.5 496,-576.5 1032,-576.5 1032,-547.5 496,-547.5"/>
<text text-anchor="start" x="503" y="-559.3" font-family="Times,serif" font-weight="bold" font-size="14.00">article_id:</text>
<text text-anchor="start" x="563" y="-559.3" font-family="Times,serif" font-size="14.00"> SpiritOfTheTimes1847</text>
<polygon fill="none" stroke="black" stroke-width="2" points="461,-547 461,-1214 1033,-1214 1033,-547 461,-547"/>
</g>
<!-- Article&#45;&gt;Images -->
<g id="edge4" class="edge">
<title>Article&#45;&gt;Images</title>
<path fill="none" stroke="black" stroke-width="1.5" d="M322.35,-880.5C359.63,-880.5 400.53,-880.5 441.75,-880.5"/>
<polygon fill="black" stroke="black" stroke-width="1.5" points="441.96,-880.5 451.96,-885 446.96,-880.5 451.96,-880.5 451.96,-880.5 451.96,-880.5 446.96,-880.5 451.96,-876 441.96,-880.5 441.96,-880.5"/>
<text text-anchor="middle" x="372.05" y="-873.3" font-family="Times,serif" font-size="9.00">has</text>
<text text-anchor="middle" x="372.05" y="-863.3" font-family="Times,serif" font-size="9.00">(1:N)</text>
</g>
<!-- Reprints -->
<g id="node5" class="node">
<title>Reprints</title>
<polygon fill="#ffecb3" stroke="transparent" points="590,-436.5 590,-463.5 905,-463.5 905,-436.5 590,-436.5"/>
<polygon fill="none" stroke="black" points="590,-436.5 590,-463.5 905,-463.5 905,-436.5 590,-436.5"/>
<text text-anchor="start" x="673.5" y="-447.9" font-family="Times,serif" font-weight="bold" font-size="12.00">Reprints / Document Groups</text>
<polygon fill="none" stroke="black" points="590,-407.5 590,-436.5 624,-436.5 624,-407.5 590,-407.5"/>
<text text-anchor="start" x="597" y="-419.3" font-family="Times,serif" font-weight="bold" font-size="14.00">PK</text>
<polygon fill="none" stroke="black" points="624,-407.5 624,-436.5 905,-436.5 905,-407.5 624,-407.5"/>
<text text-anchor="start" x="631" y="-419.3" font-family="Times,serif" font-weight="bold" font-size="14.00">group_reprint_id:</text>
<text text-anchor="start" x="737" y="-419.3" font-family="Times,serif" font-size="14.00"> TheBostonAtlas1847_reprint</text>
<polygon fill="none" stroke="black" points="590,-378.5 590,-407.5 624,-407.5 624,-378.5 590,-378.5"/>
<polygon fill="none" stroke="black" points="624,-378.5 624,-407.5 905,-407.5 905,-378.5 624,-378.5"/>
<text text-anchor="start" x="631" y="-390.3" font-family="Times,serif" font-weight="bold" font-size="14.00">reprint_type:</text>
<text text-anchor="start" x="709" y="-390.3" font-family="Times,serif" font-size="14.00"> direct</text>
<polygon fill="none" stroke="black" points="590,-349.5 590,-378.5 624,-378.5 624,-349.5 590,-349.5"/>
<polygon fill="none" stroke="black" points="624,-349.5 624,-378.5 905,-378.5 905,-349.5 624,-349.5"/>
<text text-anchor="start" x="631" y="-361.3" font-family="Times,serif" font-weight="bold" font-size="14.00">reprint_order:</text>
<text text-anchor="start" x="716" y="-361.3" font-family="Times,serif" font-size="14.00"> </text>
<polygon fill="none" stroke="black" stroke-width="2" points="588.5,-348.5 588.5,-464.5 905.5,-464.5 905.5,-348.5 588.5,-348.5"/>
</g>
<!-- Article&#45;&gt;Reprints -->
<g id="edge5" class="edge">
<title>Article&#45;&gt;Reprints</title>
<path fill="none" stroke="black" stroke-width="1.5" d="M328.34,-665.41C393.07,-581.7 452,-505.5 452,-505.5 452,-505.5 507.09,-486.95 569.57,-465.91"/>
<polygon fill="black" stroke="black" stroke-width="1.5" points="328.17,-665.62 318.5,-670.78 325.12,-669.58 322.06,-673.53 322.06,-673.53 322.06,-673.53 325.12,-669.58 325.62,-676.28 328.17,-665.62 328.17,-665.62"/>
<polygon fill="black" stroke="black" stroke-width="1.5" points="569.77,-465.84 580.68,-466.92 574.5,-464.25 579.24,-462.65 579.24,-462.65 579.24,-462.65 574.5,-464.25 577.81,-458.39 569.77,-465.84 569.77,-465.84"/>
<text text-anchor="middle" x="409.61" y="-529.19" font-family="Times,serif" font-size="9.00">belongs to</text>
<text text-anchor="middle" x="409.61" y="-519.19" font-family="Times,serif" font-size="9.00">(N:M)</text>
</g>
<!-- Article_Trope -->
<g id="node6" class="node">
<title>Article_Trope</title>
<polygon fill="#ffe0e0" stroke="transparent" points="616,-237.5 616,-264.5 878,-264.5 878,-237.5 616,-237.5"/>
<polygon fill="none" stroke="black" points="616,-237.5 616,-264.5 878,-264.5 878,-237.5 616,-237.5"/>
<text text-anchor="start" x="714.5" y="-248.9" font-family="Times,serif" font-weight="bold" font-size="12.00">article_trope</text>
<polygon fill="none" stroke="black" points="616,-208.5 616,-237.5 673,-237.5 673,-208.5 616,-208.5"/>
<text text-anchor="start" x="623" y="-220.3" font-family="Times,serif" font-weight="bold" font-size="14.00">PK,FK</text>
<polygon fill="none" stroke="black" points="673,-208.5 673,-237.5 878,-237.5 878,-208.5 673,-208.5"/>
<text text-anchor="start" x="680" y="-220.3" font-family="Times,serif" font-weight="bold" font-size="14.00">article_id:</text>
<text text-anchor="start" x="740" y="-220.3" font-family="Times,serif" font-size="14.00"> SpiritOfTheTimes1847</text>
<polygon fill="none" stroke="black" points="616,-179.5 616,-208.5 673,-208.5 673,-179.5 616,-179.5"/>
<text text-anchor="start" x="623" y="-191.3" font-family="Times,serif" font-weight="bold" font-size="14.00">PK,FK</text>
<polygon fill="none" stroke="black" points="673,-179.5 673,-208.5 878,-208.5 878,-179.5 673,-179.5"/>
<text text-anchor="start" x="680" y="-191.3" font-family="Times,serif" font-weight="bold" font-size="14.00">trope_id:</text>
<polygon fill="none" stroke="black" points="616,-150.5 616,-179.5 878,-179.5 878,-150.5 616,-150.5"/>
<text text-anchor="start" x="714" y="-161.3" font-family="Times,serif" font-size="14.00">Lazy Indian</text>
<polygon fill="none" stroke="black" points="616,-121.5 616,-150.5 878,-150.5 878,-121.5 616,-121.5"/>
<text text-anchor="start" x="709" y="-132.3" font-family="Times,serif" font-size="14.00">Noble Savage</text>
<polygon fill="none" stroke="black" points="616,-92.5 616,-121.5 878,-121.5 878,-92.5 616,-92.5"/>
<text text-anchor="start" x="701" y="-103.3" font-family="Times,serif" font-size="14.00">Jump Overboard</text>
<polygon fill="none" stroke="black" points="616,-63.5 616,-92.5 878,-92.5 878,-63.5 616,-63.5"/>
<text text-anchor="start" x="710" y="-74.3" font-family="Times,serif" font-size="14.00">Indian Queen</text>
<polygon fill="none" stroke="black" points="616,-34.5 616,-63.5 878,-63.5 878,-34.5 616,-34.5"/>
<text text-anchor="start" x="715" y="-45.3" font-family="Times,serif" font-size="14.00">Girl Crusoe</text>
<polygon fill="none" stroke="black" points="616,-5.5 616,-34.5 878,-34.5 878,-5.5 616,-5.5"/>
<text text-anchor="start" x="716.5" y="-16.3" font-family="Times,serif" font-size="14.00">Wild Child</text>
<polygon fill="none" stroke="black" stroke-width="2" points="615,-5 615,-266 879,-266 879,-5 615,-5"/>
</g>
<!-- Article&#45;&gt;Article_Trope -->
<g id="edge6" class="edge">
<title>Article&#45;&gt;Article_Trope</title>
<path fill="none" stroke="black" stroke-width="1.5" d="M311.46,-585.19C382.44,-444.93 452,-307.5 452,-307.5 452,-307.5 524.18,-265.27 597.01,-222.67"/>
<polygon fill="black" stroke="black" stroke-width="1.5" points="597.26,-222.52 608.16,-221.35 601.57,-219.99 605.89,-217.47 605.89,-217.47 605.89,-217.47 601.57,-219.99 603.62,-213.59 597.26,-222.52 597.26,-222.52"/>
<text text-anchor="middle" x="409.66" y="-364.2" font-family="Times,serif" font-size="9.00">(1:N)</text>
</g>
<!-- Publication&#45;&gt;Location -->
<g id="edge3" class="edge">
<title>Publication&#45;&gt;Location</title>
<path fill="none" stroke="black" stroke-width="1.5" d="M918.49,-1462.75C999.25,-1451.49 1094.65,-1438.2 1171.63,-1427.48"/>
<polygon fill="black" stroke="black" stroke-width="1.5" points="918.11,-1462.8 907.58,-1459.72 913.16,-1463.49 908.21,-1464.18 908.21,-1464.18 908.21,-1464.18 913.16,-1463.49 908.83,-1468.64 918.11,-1462.8 918.11,-1462.8"/>
<text text-anchor="middle" x="1028.06" y="-1437.91" font-family="Times,serif" font-size="9.00">located at</text>
<text text-anchor="middle" x="1028.06" y="-1427.91" font-family="Times,serif" font-size="9.00">(N:1)</text>
</g>
<!-- Trope -->
<g id="node7" class="node">
<title>Trope</title>
<polygon fill="#ffcdd2" stroke="transparent" points="102,-237.5 102,-264.5 220,-264.5 220,-237.5 102,-237.5"/>
<polygon fill="none" stroke="black" points="102,-237.5 102,-264.5 220,-264.5 220,-237.5 102,-237.5"/>
<text text-anchor="start" x="147" y="-248.9" font-family="Times,serif" font-weight="bold" font-size="12.00">trope</text>
<polygon fill="none" stroke="black" points="102,-208.5 102,-237.5 136,-237.5 136,-208.5 102,-208.5"/>
<text text-anchor="start" x="109" y="-220.3" font-family="Times,serif" font-weight="bold" font-size="14.00">PK</text>
<polygon fill="none" stroke="black" points="136,-208.5 136,-237.5 220,-237.5 220,-208.5 136,-208.5"/>
<text text-anchor="start" x="143" y="-220.3" font-family="Times,serif" font-weight="bold" font-size="14.00">trope_id:</text>
<polygon fill="none" stroke="black" points="102,-179.5 102,-208.5 136,-208.5 136,-179.5 102,-179.5"/>
<polygon fill="none" stroke="black" points="136,-179.5 136,-208.5 220,-208.5 220,-179.5 136,-179.5"/>
<text text-anchor="start" x="143" y="-191.3" font-family="Times,serif" font-weight="bold" font-size="14.00">trope_label:</text>
<polygon fill="none" stroke="black" points="102,-150.5 102,-179.5 220,-179.5 220,-150.5 102,-150.5"/>
<text text-anchor="start" x="128" y="-161.3" font-family="Times,serif" font-size="14.00">Lazy Indian</text>
<polygon fill="none" stroke="black" points="102,-121.5 102,-150.5 220,-150.5 220,-121.5 102,-121.5"/>
<text text-anchor="start" x="123" y="-132.3" font-family="Times,serif" font-size="14.00">Noble Savage</text>
<polygon fill="none" stroke="black" points="102,-92.5 102,-121.5 220,-121.5 220,-92.5 102,-92.5"/>
<text text-anchor="start" x="115" y="-103.3" font-family="Times,serif" font-size="14.00">Jump Overboard</text>
<polygon fill="none" stroke="black" points="102,-63.5 102,-92.5 220,-92.5 220,-63.5 102,-63.5"/>
<text text-anchor="start" x="124" y="-74.3" font-family="Times,serif" font-size="14.00">Indian Queen</text>
<polygon fill="none" stroke="black" points="102,-34.5 102,-63.5 220,-63.5 220,-34.5 102,-34.5"/>
<text text-anchor="start" x="129" y="-45.3" font-family="Times,serif" font-size="14.00">Girl Crusoe</text>
<polygon fill="none" stroke="black" points="102,-5.5 102,-34.5 220,-34.5 220,-5.5 102,-5.5"/>
<text text-anchor="start" x="130.5" y="-16.3" font-family="Times,serif" font-size="14.00">Wild Child</text>
<polygon fill="none" stroke="black" stroke-width="2" points="101,-5 101,-266 221,-266 221,-5 101,-5"/>
</g>
<!-- Trope&#45;&gt;Article_Trope -->
<g id="edge7" class="edge">
<title>Trope&#45;&gt;Article_Trope</title>
<path fill="none" stroke="black" stroke-width="1.5" d="M230.14,-135.5C319.23,-135.5 477.83,-135.5 595.72,-135.5"/>
<polygon fill="black" stroke="black" stroke-width="1.5" points="595.93,-135.5 605.93,-140 600.93,-135.5 605.93,-135.5 605.93,-135.5 605.93,-135.5 600.93,-135.5 605.93,-131 595.93,-135.5 595.93,-135.5"/>
<text text-anchor="middle" x="402.93" y="-128.3" font-family="Times,serif" font-size="9.00">(1:N)</text>
</g>
</g>
</svg>
