<?xml version="1.0" encoding="UTF-8" standalone="no"?>
<!DOCTYPE svg PUBLIC "-//W3C//DTD SVG 1.1//EN"
 "http://www.w3.org/Graphics/SVG/1.1/DTD/svg11.dtd">
<!-- Generated by graphviz version 2.50.0 (0)
 -->
<!-- Title: ERD_TheBostonAtlas1847 Pages: 1 -->
<svg width="1889pt" height="1581pt"
 viewBox="0.00 0.00 1889.00 1581.00" xmlns="http://www.w3.org/2000/svg" xmlns:xlink="http://www.w3.org/1999/xlink">
<g id="graph0" class="graph" transform="scale(1 1) rotate(0) translate(4 1577)">
<title>ERD_TheBostonAtlas1847</title>
<polygon fill="white" stroke="transparent" points="-4,4 -4,-1577 1885,-1577 1885,4 -4,4"/>
<text text-anchor="middle" x="940.5" y="-1557.8" font-family="Arial Bold" font-size="14.00">Entity Relationships for TheBostonAtlas1847</text>
<text text-anchor="middle" x="940.5" y="-1542.8" font-family="Arial Bold" font-size="14.00">(Reprint Type: original)</text>
<!-- Article -->
<g id="node1" class="node">
<title>Article</title>
<polygon fill="#b4d7e5" stroke="transparent" points="10,-1156.5 10,-1183.5 736,-1183.5 736,-1156.5 10,-1156.5"/>
<polygon fill="none" stroke="black" points="10,-1156.5 10,-1183.5 736,-1183.5 736,-1156.5 10,-1156.5"/>
<text text-anchor="start" x="355.5" y="-1167.9" font-family="Times,serif" font-weight="bold" font-size="12.00">Article</text>
<polygon fill="none" stroke="black" points="10,-1127.5 10,-1156.5 44,-1156.5 44,-1127.5 10,-1127.5"/>
<text text-anchor="start" x="17" y="-1139.3" font-family="Times,serif" font-weight="bold" font-size="14.00">PK</text>
<polygon fill="none" stroke="black" points="44,-1127.5 44,-1156.5 736,-1156.5 736,-1127.5 44,-1127.5"/>
<text text-anchor="start" x="51" y="-1139.3" font-family="Times,serif" font-weight="bold" font-size="14.00">article_id:</text>
<text text-anchor="start" x="111" y="-1139.3" font-family="Times,serif" font-size="14.00"> TheBostonAtlas1847</text>
<polygon fill="none" stroke="black" points="10,-1098.5 10,-1127.5 44,-1127.5 44,-1098.5 10,-1098.5"/>
<polygon fill="none" stroke="black" points="44,-1098.5 44,-1127.5 736,-1127.5 736,-1098.5 44,-1098.5"/>
<text text-anchor="start" x="51" y="-1110.3" font-family="Times,serif" font-weight="bold" font-size="14.00">title:</text>
<text text-anchor="start" x="79" y="-1110.3" font-family="Times,serif" font-size="14.00"> &quot;A Female Crusoe&quot;</text>
<polygon fill="none" stroke="black" points="10,-1069.5 10,-1098.5 44,-1098.5 44,-1069.5 10,-1069.5"/>
<polygon fill="none" stroke="black" points="44,-1069.5 44,-1098.5 736,-1098.5 736,-1069.5 44,-1069.5"/>
<text text-anchor="start" x="51" y="-1081.3" font-family="Times,serif" font-weight="bold" font-size="14.00">author:</text>
<text text-anchor="start" x="95" y="-1081.3" font-family="Times,serif" font-size="14.00"> </text>
<polygon fill="none" stroke="black" points="10,-1040.5 10,-1069.5 44,-1069.5 44,-1040.5 10,-1040.5"/>
<polygon fill="none" stroke="black" points="44,-1040.5 44,-1069.5 736,-1069.5 736,-1040.5 44,-1040.5"/>
<text text-anchor="start" x="51" y="-1052.3" font-family="Times,serif" font-weight="bold" font-size="14.00">date:</text>
<text text-anchor="start" x="81" y="-1052.3" font-family="Times,serif" font-size="14.00"> 1847&#45;01&#45;07</text>
<polygon fill="none" stroke="black" points="10,-1011.5 10,-1040.5 44,-1040.5 44,-1011.5 10,-1011.5"/>
<polygon fill="none" stroke="black" points="44,-1011.5 44,-1040.5 736,-1040.5 736,-1011.5 44,-1011.5"/>
<text text-anchor="start" x="51" y="-1023.3" font-family="Times,serif" font-weight="bold" font-size="14.00">monograph_publishers:</text>
<text text-anchor="start" x="190" y="-1023.3" font-family="Times,serif" font-size="14.00"> Wm. Hayden &amp; Thos. M. Brewer</text>
<polygon fill="none" stroke="black" points="10,-982.5 10,-1011.5 44,-1011.5 44,-982.5 10,-982.5"/>
<polygon fill="none" stroke="black" points="44,-982.5 44,-1011.5 736,-1011.5 736,-982.5 44,-982.5"/>
<text text-anchor="start" x="51" y="-994.3" font-family="Times,serif" font-weight="bold" font-size="14.00">volume_number:</text>
<text text-anchor="start" x="152" y="-994.3" font-family="Times,serif" font-size="14.00"> 15</text>
<polygon fill="none" stroke="black" points="10,-953.5 10,-982.5 44,-982.5 44,-953.5 10,-953.5"/>
<polygon fill="none" stroke="black" points="44,-953.5 44,-982.5 736,-982.5 736,-953.5 44,-953.5"/>
<text text-anchor="start" x="51" y="-965.3" font-family="Times,serif" font-weight="bold" font-size="14.00">issue_number:</text>
<text text-anchor="start" x="137" y="-965.3" font-family="Times,serif" font-size="14.00"> no. 163</text>
<polygon fill="none" stroke="black" points="10,-924.5 10,-953.5 44,-953.5 44,-924.5 10,-924.5"/>
<polygon fill="none" stroke="black" points="44,-924.5 44,-953.5 736,-953.5 736,-924.5 44,-924.5"/>
<text text-anchor="start" x="51" y="-936.3" font-family="Times,serif" font-weight="bold" font-size="14.00">pages:</text>
<text text-anchor="start" x="88" y="-936.3" font-family="Times,serif" font-size="14.00"> 2</text>
<polygon fill="none" stroke="black" points="10,-895.5 10,-924.5 44,-924.5 44,-895.5 10,-895.5"/>
<polygon fill="none" stroke="black" points="44,-895.5 44,-924.5 736,-924.5 736,-895.5 44,-895.5"/>
<text text-anchor="start" x="51" y="-907.3" font-family="Times,serif" font-weight="bold" font-size="14.00">archival_holding:</text>
<text text-anchor="start" x="154" y="-907.3" font-family="Times,serif" font-size="14.00"> </text>
<polygon fill="none" stroke="black" points="10,-866.5 10,-895.5 44,-895.5 44,-866.5 10,-866.5"/>
<polygon fill="none" stroke="black" points="44,-866.5 44,-895.5 736,-895.5 736,-866.5 44,-866.5"/>
<text text-anchor="start" x="51" y="-878.3" font-family="Times,serif" font-weight="bold" font-size="14.00">archival_location:</text>
<text text-anchor="start" x="156" y="-878.3" font-family="Times,serif" font-size="14.00"> </text>
<polygon fill="none" stroke="black" points="10,-837.5 10,-866.5 44,-866.5 44,-837.5 10,-837.5"/>
<polygon fill="none" stroke="black" points="44,-837.5 44,-866.5 736,-866.5 736,-837.5 44,-837.5"/>
<text text-anchor="start" x="51" y="-849.3" font-family="Times,serif" font-weight="bold" font-size="14.00">cost:</text>
<text text-anchor="start" x="79" y="-849.3" font-family="Times,serif" font-size="14.00"> </text>
<polygon fill="none" stroke="black" points="10,-808.5 10,-837.5 44,-837.5 44,-808.5 10,-808.5"/>
<polygon fill="none" stroke="black" points="44,-808.5 44,-837.5 736,-837.5 736,-808.5 44,-808.5"/>
<text text-anchor="start" x="51" y="-820.3" font-family="Times,serif" font-weight="bold" font-size="14.00">permission:</text>
<text text-anchor="start" x="120" y="-820.3" font-family="Times,serif" font-size="14.00"> Public domain</text>
<polygon fill="none" stroke="black" points="10,-779.5 10,-808.5 44,-808.5 44,-779.5 10,-779.5"/>
<polygon fill="none" stroke="black" points="44,-779.5 44,-808.5 736,-808.5 736,-779.5 44,-779.5"/>
<text text-anchor="start" x="51" y="-791.3" font-family="Times,serif" font-weight="bold" font-size="14.00">permission_acknowledgement:</text>
<text text-anchor="start" x="231" y="-791.3" font-family="Times,serif" font-size="14.00"> </text>
<polygon fill="none" stroke="black" points="10,-750.5 10,-779.5 44,-779.5 44,-750.5 10,-750.5"/>
<polygon fill="none" stroke="black" points="44,-750.5 44,-779.5 736,-779.5 736,-750.5 44,-750.5"/>
<text text-anchor="start" x="51" y="-762.3" font-family="Times,serif" font-weight="bold" font-size="14.00">permission_statements:</text>
<text text-anchor="start" x="189" y="-762.3" font-family="Times,serif" font-size="14.00"> </text>
<polygon fill="none" stroke="black" points="10,-721.5 10,-750.5 44,-750.5 44,-721.5 10,-721.5"/>
<polygon fill="none" stroke="black" points="44,-721.5 44,-750.5 736,-750.5 736,-721.5 44,-721.5"/>
<text text-anchor="start" x="51" y="-733.3" font-family="Times,serif" font-weight="bold" font-size="14.00">acquisitions:</text>
<text text-anchor="start" x="124" y="-733.3" font-family="Times,serif" font-size="14.00"> </text>
<polygon fill="none" stroke="black" points="10,-692.5 10,-721.5 44,-721.5 44,-692.5 10,-692.5"/>
<polygon fill="none" stroke="black" points="44,-692.5 44,-721.5 736,-721.5 736,-692.5 44,-692.5"/>
<text text-anchor="start" x="51" y="-704.3" font-family="Times,serif" font-weight="bold" font-size="14.00">document_intro:</text>
<text text-anchor="start" x="149" y="-704.3" font-family="Times,serif" font-size="14.00"> The story of the Lone Woman’s isolation on San Nicolas Island was first published in a Boston newspa...</text>
<polygon fill="none" stroke="black" points="10,-663.5 10,-692.5 44,-692.5 44,-663.5 10,-663.5"/>
<polygon fill="none" stroke="black" points="44,-663.5 44,-692.5 736,-692.5 736,-663.5 44,-663.5"/>
<text text-anchor="start" x="51" y="-675.3" font-family="Times,serif" font-weight="bold" font-size="14.00">transcripts:</text>
<text text-anchor="start" x="119" y="-675.3" font-family="Times,serif" font-size="14.00"> A Female Crusoe. [Communicated for the Atlas.] Off the coast of Alta California, about two degrees d...</text>
<polygon fill="none" stroke="black" points="10,-634.5 10,-663.5 44,-663.5 44,-634.5 10,-634.5"/>
<text text-anchor="start" x="17" y="-646.3" font-family="Times,serif" font-weight="bold" font-size="14.00">FK</text>
<polygon fill="none" stroke="black" points="44,-634.5 44,-663.5 736,-663.5 736,-634.5 44,-634.5"/>
<text text-anchor="start" x="51" y="-646.3" font-family="Times,serif" font-weight="bold" font-size="14.00">group_reprint_id:</text>
<text text-anchor="start" x="157" y="-646.3" font-family="Times,serif" font-size="14.00"> TheBostonAtlas1847_reprint</text>
<polygon fill="none" stroke="black" points="10,-605.5 10,-634.5 44,-634.5 44,-605.5 10,-605.5"/>
<text text-anchor="start" x="17" y="-617.3" font-family="Times,serif" font-weight="bold" font-size="14.00">FK</text>
<polygon fill="none" stroke="black" points="44,-605.5 44,-634.5 736,-634.5 736,-605.5 44,-605.5"/>
<text text-anchor="start" x="51" y="-617.3" font-family="Times,serif" font-weight="bold" font-size="14.00">publisher_location:</text>
<text text-anchor="start" x="163" y="-617.3" font-family="Times,serif" font-size="14.00"> Boston, Massachusetts</text>
<polygon fill="none" stroke="black" points="10,-576.5 10,-605.5 44,-605.5 44,-576.5 10,-576.5"/>
<text text-anchor="start" x="17" y="-588.3" font-family="Times,serif" font-weight="bold" font-size="14.00">FK</text>
<polygon fill="none" stroke="black" points="44,-576.5 44,-605.5 736,-605.5 736,-576.5 44,-576.5"/>
<text text-anchor="start" x="51" y="-588.3" font-family="Times,serif" font-weight="bold" font-size="14.00">publication:</text>
<text text-anchor="start" x="121" y="-588.3" font-family="Times,serif" font-size="14.00"> Boston Atlas</text>
<polygon fill="none" stroke="black" stroke-width="2" points="9,-576 9,-1185 737,-1185 737,-576 9,-576"/>
</g>
<!-- Publication -->
<g id="node2" class="node">
<title>Publication</title>
<polygon fill="#f4d9b0" stroke="transparent" points="1015,-1501.5 1015,-1528.5 1304,-1528.5 1304,-1501.5 1015,-1501.5"/>
<polygon fill="none" stroke="black" points="1015,-1501.5 1015,-1528.5 1304,-1528.5 1304,-1501.5 1015,-1501.5"/>
<text text-anchor="start" x="1130.5" y="-1512.9" font-family="Times,serif" font-weight="bold" font-size="12.00">Publication</text>
<polygon fill="none" stroke="black" points="1015,-1472.5 1015,-1501.5 1049,-1501.5 1049,-1472.5 1015,-1472.5"/>
<text text-anchor="start" x="1022" y="-1484.3" font-family="Times,serif" font-weight="bold" font-size="14.00">PK</text>
<polygon fill="none" stroke="black" points="1049,-1472.5 1049,-1501.5 1304,-1501.5 1304,-1472.5 1049,-1472.5"/>
<text text-anchor="start" x="1056" y="-1484.3" font-family="Times,serif" font-weight="bold" font-size="14.00">publication:</text>
<text text-anchor="start" x="1126" y="-1484.3" font-family="Times,serif" font-size="14.00"> Boston Atlas</text>
<polygon fill="none" stroke="black" points="1015,-1443.5 1015,-1472.5 1049,-1472.5 1049,-1443.5 1015,-1443.5"/>
<text text-anchor="start" x="1022" y="-1455.3" font-family="Times,serif" font-weight="bold" font-size="14.00">FK</text>
<polygon fill="none" stroke="black" points="1049,-1443.5 1049,-1472.5 1304,-1472.5 1304,-1443.5 1049,-1443.5"/>
<text text-anchor="start" x="1056" y="-1455.3" font-family="Times,serif" font-weight="bold" font-size="14.00">publisher_location:</text>
<text text-anchor="start" x="1168" y="-1455.3" font-family="Times,serif" font-size="14.00"> Boston, Massachusetts</text>
<polygon fill="none" stroke="black" stroke-width="2" points="1013.5,-1443 1013.5,-1530 1304.5,-1530 1304.5,-1443 1013.5,-1443"/>
</g>
<!-- Article&#45;&gt;Publication -->
<g id="edge1" class="edge">
<title>Article&#45;&gt;Publication</title>
<path fill="none" stroke="black" stroke-width="1.5" d="M690.24,-1197.37C790.6,-1297.93 876,-1383.5 876,-1383.5 876,-1383.5 951.83,-1411.2 1024.85,-1437.87"/>
<polygon fill="black" stroke="black" stroke-width="1.5" points="690.05,-1197.18 686.18,-1186.93 686.52,-1193.65 682.99,-1190.11 682.99,-1190.11 682.99,-1190.11 686.52,-1193.65 679.81,-1193.28 690.05,-1197.18 690.05,-1197.18"/>
<text text-anchor="middle" x="817.09" y="-1339.32" font-family="Times,serif" font-size="9.00">published in</text>
<text text-anchor="middle" x="817.09" y="-1329.32" font-family="Times,serif" font-size="9.00">(N:1)</text>
</g>
<!-- Location -->
<g id="node3" class="node">
<title>Location</title>
<polygon fill="#c8e6c9" stroke="transparent" points="1582.5,-1408.5 1582.5,-1435.5 1871.5,-1435.5 1871.5,-1408.5 1582.5,-1408.5"/>
<polygon fill="none" stroke="black" points="1582.5,-1408.5 1582.5,-1435.5 1871.5,-1435.5 1871.5,-1408.5 1582.5,-1408.5"/>
<text text-anchor="start" x="1704" y="-1419.9" font-family="Times,serif" font-weight="bold" font-size="12.00">Location</text>
<polygon fill="none" stroke="black" points="1582.5,-1379.5 1582.5,-1408.5 1616.5,-1408.5 1616.5,-1379.5 1582.5,-1379.5"/>
<text text-anchor="start" x="1589.5" y="-1391.3" font-family="Times,serif" font-weight="bold" font-size="14.00">PK</text>
<polygon fill="none" stroke="black" points="1616.5,-1379.5 1616.5,-1408.5 1871.5,-1408.5 1871.5,-1379.5 1616.5,-1379.5"/>
<text text-anchor="start" x="1623.5" y="-1391.3" font-family="Times,serif" font-weight="bold" font-size="14.00">publisher_location:</text>
<text text-anchor="start" x="1735.5" y="-1391.3" font-family="Times,serif" font-size="14.00"> Boston, Massachusetts</text>
<polygon fill="none" stroke="black" stroke-width="2" points="1581,-1378.5 1581,-1436.5 1872,-1436.5 1872,-1378.5 1581,-1378.5"/>
</g>
<!-- Article&#45;&gt;Location -->
<g id="edge2" class="edge">
<title>Article&#45;&gt;Location</title>
<path fill="none" stroke="black" stroke-width="1.5" d="M754.26,-1163.8C824.39,-1216.05 876,-1254.5 876,-1254.5 876,-1254.5 1326.86,-1335.7 1571.66,-1379.79"/>
<polygon fill="black" stroke="black" stroke-width="1.5" points="754.09,-1163.67 748.76,-1154.09 750.08,-1160.69 746.07,-1157.7 746.07,-1157.7 746.07,-1157.7 750.08,-1160.69 743.38,-1161.31 754.09,-1163.67 754.09,-1163.67"/>
<text text-anchor="middle" x="1127.63" y="-1296.49" font-family="Times,serif" font-size="9.00">published at</text>
<text text-anchor="middle" x="1127.63" y="-1286.49" font-family="Times,serif" font-size="9.00">(N:1)</text>
</g>
<!-- Images -->
<g id="node4" class="node">
<title>Images</title>
<polygon fill="#e1bee7" stroke="transparent" points="886,-1185.5 886,-1212.5 1432,-1212.5 1432,-1185.5 886,-1185.5"/>
<polygon fill="none" stroke="black" points="886,-1185.5 886,-1212.5 1432,-1212.5 1432,-1185.5 886,-1185.5"/>
<text text-anchor="start" x="1119.5" y="-1196.9" font-family="Times,serif" font-weight="bold" font-size="12.00">Images (7 total)</text>
<polygon fill="none" stroke="black" points="886,-1156.5 886,-1185.5 920,-1185.5 920,-1156.5 886,-1156.5"/>
<text text-anchor="start" x="893" y="-1168.3" font-family="Times,serif" font-weight="bold" font-size="14.00">PK</text>
<polygon fill="none" stroke="black" points="920,-1156.5 920,-1185.5 1432,-1185.5 1432,-1156.5 920,-1156.5"/>
<text text-anchor="start" x="927" y="-1168.3" font-family="Times,serif" font-weight="bold" font-size="14.00">object_id:</text>
<text text-anchor="start" x="985" y="-1168.3" font-family="Times,serif" font-size="14.00"> TheBostonAtlas1847_Original</text>
<polygon fill="none" stroke="black" points="886,-1127.5 886,-1156.5 920,-1156.5 920,-1127.5 886,-1127.5"/>
<polygon fill="none" stroke="black" points="920,-1127.5 920,-1156.5 1432,-1156.5 1432,-1127.5 920,-1127.5"/>
<text text-anchor="start" x="927" y="-1139.3" font-family="Times,serif" font-weight="bold" font-size="14.00">image_file:</text>
<text text-anchor="start" x="992" y="-1139.3" font-family="Times,serif" font-size="14.00"> TheBostonAtlas1847_DigSur_1.png</text>
<polygon fill="none" stroke="black" points="886,-1098.5 886,-1127.5 920,-1127.5 920,-1098.5 886,-1098.5"/>
<polygon fill="none" stroke="black" points="920,-1098.5 920,-1127.5 1432,-1127.5 1432,-1098.5 920,-1098.5"/>
<text text-anchor="start" x="927" y="-1110.3" font-family="Times,serif" font-weight="bold" font-size="14.00">image_parent_id:</text>
<text text-anchor="start" x="1030" y="-1110.3" font-family="Times,serif" font-size="14.00"> </text>
<polygon fill="none" stroke="black" points="886,-1069.5 886,-1098.5 920,-1098.5 920,-1069.5 886,-1069.5"/>
<polygon fill="none" stroke="black" points="920,-1069.5 920,-1098.5 1432,-1098.5 1432,-1069.5 920,-1069.5"/>
<text text-anchor="start" x="927" y="-1081.3" font-family="Times,serif" font-weight="bold" font-size="14.00">image_object_location:</text>
<text text-anchor="start" x="1062" y="-1081.3" font-family="Times,serif" font-size="14.00"> objects/TheBostonAtlas1847/TheBostonAtlas1847_DigSur_1.png</text>
<polygon fill="none" stroke="black" points="886,-1040.5 886,-1069.5 920,-1069.5 920,-1040.5 886,-1040.5"/>
<polygon fill="none" stroke="black" points="920,-1040.5 920,-1069.5 1432,-1069.5 1432,-1040.5 920,-1040.5"/>
<text text-anchor="start" x="927" y="-1052.3" font-family="Times,serif" font-weight="bold" font-size="14.00">image_display_template:</text>
<text text-anchor="start" x="1073" y="-1052.3" font-family="Times,serif" font-size="14.00"> compound_object</text>
<polygon fill="none" stroke="black" points="886,-1011.5 886,-1040.5 920,-1040.5 920,-1011.5 886,-1011.5"/>
<polygon fill="none" stroke="black" points="920,-1011.5 920,-1040.5 1432,-1040.5 1432,-1011.5 920,-1011.5"/>
<text text-anchor="start" x="927" y="-1023.3" font-family="Times,serif" font-weight="bold" font-size="14.00">image_description:</text>
<text text-anchor="start" x="1039" y="-1023.3" font-family="Times,serif" font-size="14.00"> </text>
<polygon fill="#f0f0f0" stroke="transparent" points="886,-982.5 886,-1011.5 1432,-1011.5 1432,-982.5 886,-982.5"/>
<polygon fill="none" stroke="black" points="886,-982.5 886,-1011.5 1432,-1011.5 1432,-982.5 886,-982.5"/>
<text text-anchor="start" x="1152" y="-993.3" font-family="Times,serif" font-size="14.00">&#45;&#45;&#45;</text>
<polygon fill="none" stroke="black" points="886,-953.5 886,-982.5 920,-982.5 920,-953.5 886,-953.5"/>
<text text-anchor="start" x="893" y="-965.3" font-family="Times,serif" font-weight="bold" font-size="14.00">PK</text>
<polygon fill="none" stroke="black" points="920,-953.5 920,-982.5 1432,-982.5 1432,-953.5 920,-953.5"/>
<text text-anchor="start" x="927" y="-965.3" font-family="Times,serif" font-weight="bold" font-size="14.00">object_id:</text>
<text text-anchor="start" x="985" y="-965.3" font-family="Times,serif" font-size="14.00"> TheBostonAtlas1847_img1</text>
<polygon fill="none" stroke="black" points="886,-924.5 886,-953.5 920,-953.5 920,-924.5 886,-924.5"/>
<polygon fill="none" stroke="black" points="920,-924.5 920,-953.5 1432,-953.5 1432,-924.5 920,-924.5"/>
<text text-anchor="start" x="927" y="-936.3" font-family="Times,serif" font-weight="bold" font-size="14.00">image_file:</text>
<text text-anchor="start" x="992" y="-936.3" font-family="Times,serif" font-size="14.00"> TheBostonAtlas1847_DigSur_1.png</text>
<polygon fill="none" stroke="black" points="886,-895.5 886,-924.5 920,-924.5 920,-895.5 886,-895.5"/>
<polygon fill="none" stroke="black" points="920,-895.5 920,-924.5 1432,-924.5 1432,-895.5 920,-895.5"/>
<text text-anchor="start" x="927" y="-907.3" font-family="Times,serif" font-weight="bold" font-size="14.00">image_parent_id:</text>
<text text-anchor="start" x="1030" y="-907.3" font-family="Times,serif" font-size="14.00"> TheBostonAtlas1847_Original</text>
<polygon fill="none" stroke="black" points="886,-866.5 886,-895.5 920,-895.5 920,-866.5 886,-866.5"/>
<polygon fill="none" stroke="black" points="920,-866.5 920,-895.5 1432,-895.5 1432,-866.5 920,-866.5"/>
<text text-anchor="start" x="927" y="-878.3" font-family="Times,serif" font-weight="bold" font-size="14.00">image_object_location:</text>
<text text-anchor="start" x="1062" y="-878.3" font-family="Times,serif" font-size="14.00"> objects/TheBostonAtlas1847/TheBostonAtlas1847_DigSur_1.png</text>
<polygon fill="none" stroke="black" points="886,-837.5 886,-866.5 920,-866.5 920,-837.5 886,-837.5"/>
<polygon fill="none" stroke="black" points="920,-837.5 920,-866.5 1432,-866.5 1432,-837.5 920,-837.5"/>
<text text-anchor="start" x="927" y="-849.3" font-family="Times,serif" font-weight="bold" font-size="14.00">image_display_template:</text>
<text text-anchor="start" x="1073" y="-849.3" font-family="Times,serif" font-size="14.00"> image</text>
<polygon fill="none" stroke="black" points="886,-808.5 886,-837.5 920,-837.5 920,-808.5 886,-808.5"/>
<polygon fill="none" stroke="black" points="920,-808.5 920,-837.5 1432,-837.5 1432,-808.5 920,-808.5"/>
<text text-anchor="start" x="927" y="-820.3" font-family="Times,serif" font-weight="bold" font-size="14.00">image_description:</text>
<text text-anchor="start" x="1039" y="-820.3" font-family="Times,serif" font-size="14.00"> </text>
<polygon fill="#f0f0f0" stroke="transparent" points="886,-779.5 886,-808.5 1432,-808.5 1432,-779.5 886,-779.5"/>
<polygon fill="none" stroke="black" points="886,-779.5 886,-808.5 1432,-808.5 1432,-779.5 886,-779.5"/>
<text text-anchor="start" x="1152" y="-790.3" font-family="Times,serif" font-size="14.00">&#45;&#45;&#45;</text>
<polygon fill="none" stroke="black" points="886,-750.5 886,-779.5 920,-779.5 920,-750.5 886,-750.5"/>
<text text-anchor="start" x="893" y="-762.3" font-family="Times,serif" font-weight="bold" font-size="14.00">PK</text>
<polygon fill="none" stroke="black" points="920,-750.5 920,-779.5 1432,-779.5 1432,-750.5 920,-750.5"/>
<text text-anchor="start" x="927" y="-762.3" font-family="Times,serif" font-weight="bold" font-size="14.00">object_id:</text>
<text text-anchor="start" x="985" y="-762.3" font-family="Times,serif" font-size="14.00"> TheBostonAtlas1847_img2</text>
<polygon fill="none" stroke="black" points="886,-721.5 886,-750.5 920,-750.5 920,-721.5 886,-721.5"/>
<polygon fill="none" stroke="black" points="920,-721.5 920,-750.5 1432,-750.5 1432,-721.5 920,-721.5"/>
<text text-anchor="start" x="927" y="-733.3" font-family="Times,serif" font-weight="bold" font-size="14.00">image_file:</text>
<text text-anchor="start" x="992" y="-733.3" font-family="Times,serif" font-size="14.00"> TheBostonAtlas1847_DigSur_2.png</text>
<polygon fill="none" stroke="black" points="886,-692.5 886,-721.5 920,-721.5 920,-692.5 886,-692.5"/>
<polygon fill="none" stroke="black" points="920,-692.5 920,-721.5 1432,-721.5 1432,-692.5 920,-692.5"/>
<text text-anchor="start" x="927" y="-704.3" font-family="Times,serif" font-weight="bold" font-size="14.00">image_parent_id:</text>
<text text-anchor="start" x="1030" y="-704.3" font-family="Times,serif" font-size="14.00"> TheBostonAtlas1847_Original</text>
<polygon fill="none" stroke="black" points="886,-663.5 886,-692.5 920,-692.5 920,-663.5 886,-663.5"/>
<polygon fill="none" stroke="black" points="920,-663.5 920,-692.5 1432,-692.5 1432,-663.5 920,-663.5"/>
<text text-anchor="start" x="927" y="-675.3" font-family="Times,serif" font-weight="bold" font-size="14.00">image_object_location:</text>
<text text-anchor="start" x="1062" y="-675.3" font-family="Times,serif" font-size="14.00"> objects/TheBostonAtlas1847/TheBostonAtlas1847_DigSur_2.png</text>
<polygon fill="none" stroke="black" points="886,-634.5 886,-663.5 920,-663.5 920,-634.5 886,-634.5"/>
<polygon fill="none" stroke="black" points="920,-634.5 920,-663.5 1432,-663.5 1432,-634.5 920,-634.5"/>
<text text-anchor="start" x="927" y="-646.3" font-family="Times,serif" font-weight="bold" font-size="14.00">image_display_template:</text>
<text text-anchor="start" x="1073" y="-646.3" font-family="Times,serif" font-size="14.00"> image</text>
<polygon fill="none" stroke="black" points="886,-605.5 886,-634.5 920,-634.5 920,-605.5 886,-605.5"/>
<polygon fill="none" stroke="black" points="920,-605.5 920,-634.5 1432,-634.5 1432,-605.5 920,-605.5"/>
<text text-anchor="start" x="927" y="-617.3" font-family="Times,serif" font-weight="bold" font-size="14.00">image_description:</text>
<text text-anchor="start" x="1039" y="-617.3" font-family="Times,serif" font-size="14.00"> </text>
<polygon fill="none" stroke="black" points="886,-576.5 886,-605.5 1432,-605.5 1432,-576.5 886,-576.5"/>
<text text-anchor="start" x="1099" y="-588.3" font-family="Times,serif" font-style="italic" font-size="14.00">... and 4 more images</text>
<polygon fill="none" stroke="black" points="886,-547.5 886,-576.5 920,-576.5 920,-547.5 886,-547.5"/>
<text text-anchor="start" x="893" y="-559.3" font-family="Times,serif" font-weight="bold" font-size="14.00">FK</text>
<polygon fill="none" stroke="black" points="920,-547.5 920,-576.5 1432,-576.5 1432,-547.5 920,-547.5"/>
<text text-anchor="start" x="927" y="-559.3" font-family="Times,serif" font-weight="bold" font-size="14.00">article_id:</text>
<text text-anchor="start" x="987" y="-559.3" font-family="Times,serif" font-size="14.00"> TheBostonAtlas1847</text>
<polygon fill="none" stroke="black" stroke-width="2" points="885,-547 885,-1214 1433,-1214 1433,-547 885,-547"/>
</g>
<!-- Article&#45;&gt;Images -->
<g id="edge4" class="edge">
<title>Article&#45;&gt;Images</title>
<path fill="none" stroke="black" stroke-width="1.5" d="M746.2,-880.5C786.2,-880.5 826.48,-880.5 865.36,-880.5"/>
<polygon fill="black" stroke="black" stroke-width="1.5" points="865.75,-880.5 875.75,-885 870.75,-880.5 875.75,-880.5 875.75,-880.5 875.75,-880.5 870.75,-880.5 875.75,-876 865.75,-880.5 865.75,-880.5"/>
<text text-anchor="middle" x="795.78" y="-873.3" font-family="Times,serif" font-size="9.00">has</text>
<text text-anchor="middle" x="795.78" y="-863.3" font-family="Times,serif" font-size="9.00">(1:N)</text>
</g>
<!-- Reprints -->
<g id="node5" class="node">
<title>Reprints</title>
<polygon fill="#ffecb3" stroke="transparent" points="1002,-436.5 1002,-463.5 1317,-463.5 1317,-436.5 1002,-436.5"/>
<polygon fill="none" stroke="black" points="1002,-436.5 1002,-463.5 1317,-463.5 1317,-436.5 1002,-436.5"/>
<text text-anchor="start" x="1088" y="-447.9" font-family="Times,serif" font-weight="bold" font-size="12.00">Reprints / Document Group</text>
<polygon fill="none" stroke="black" points="1002,-407.5 1002,-436.5 1036,-436.5 1036,-407.5 1002,-407.5"/>
<text text-anchor="start" x="1009" y="-419.3" font-family="Times,serif" font-weight="bold" font-size="14.00">PK</text>
<polygon fill="none" stroke="black" points="1036,-407.5 1036,-436.5 1317,-436.5 1317,-407.5 1036,-407.5"/>
<text text-anchor="start" x="1043" y="-419.3" font-family="Times,serif" font-weight="bold" font-size="14.00">group_reprint_id:</text>
<text text-anchor="start" x="1149" y="-419.3" font-family="Times,serif" font-size="14.00"> TheBostonAtlas1847_reprint</text>
<polygon fill="none" stroke="black" points="1002,-378.5 1002,-407.5 1036,-407.5 1036,-378.5 1002,-378.5"/>
<polygon fill="none" stroke="black" points="1036,-378.5 1036,-407.5 1317,-407.5 1317,-378.5 1036,-378.5"/>
<text text-anchor="start" x="1043" y="-390.3" font-family="Times,serif" font-weight="bold" font-size="14.00">reprint_type:</text>
<text text-anchor="start" x="1121" y="-390.3" font-family="Times,serif" font-size="14.00"> original</text>
<polygon fill="none" stroke="black" points="1002,-349.5 1002,-378.5 1036,-378.5 1036,-349.5 1002,-349.5"/>
<polygon fill="none" stroke="black" points="1036,-349.5 1036,-378.5 1317,-378.5 1317,-349.5 1036,-349.5"/>
<text text-anchor="start" x="1043" y="-361.3" font-family="Times,serif" font-weight="bold" font-size="14.00">reprint_order:</text>
<text text-anchor="start" x="1128" y="-361.3" font-family="Times,serif" font-size="14.00"> </text>
<polygon fill="none" stroke="black" stroke-width="2" points="1000.5,-348.5 1000.5,-464.5 1317.5,-464.5 1317.5,-348.5 1000.5,-348.5"/>
</g>
<!-- Article&#45;&gt;Reprints -->
<g id="edge5" class="edge">
<title>Article&#45;&gt;Reprints</title>
<path fill="none" stroke="black" stroke-width="1.5" d="M754.26,-596.44C824.39,-544.06 876,-505.5 876,-505.5 876,-505.5 930.22,-486.47 991.11,-465.09"/>
<polygon fill="black" stroke="black" stroke-width="1.5" points="754.08,-596.57 743.38,-598.95 750.08,-599.57 746.07,-602.56 746.07,-602.56 746.07,-602.56 750.08,-599.57 748.76,-606.16 754.08,-596.57 754.08,-596.57"/>
<text text-anchor="middle" x="845.5" y="-507.27" font-family="Times,serif" font-size="9.00">belongs to</text>
<text text-anchor="middle" x="845.5" y="-497.27" font-family="Times,serif" font-size="9.00">(N:1)</text>
</g>
<!-- Article_Trope -->
<g id="node6" class="node">
<title>Article_Trope</title>
<polygon fill="#ffe0e0" stroke="transparent" points="1035,-237.5 1035,-264.5 1284,-264.5 1284,-237.5 1035,-237.5"/>
<polygon fill="none" stroke="black" points="1035,-237.5 1035,-264.5 1284,-264.5 1284,-237.5 1035,-237.5"/>
<text text-anchor="start" x="1127" y="-248.9" font-family="Times,serif" font-weight="bold" font-size="12.00">article_trope</text>
<polygon fill="none" stroke="black" points="1035,-208.5 1035,-237.5 1092,-237.5 1092,-208.5 1035,-208.5"/>
<text text-anchor="start" x="1042" y="-220.3" font-family="Times,serif" font-weight="bold" font-size="14.00">PK,FK</text>
<polygon fill="none" stroke="black" points="1092,-208.5 1092,-237.5 1284,-237.5 1284,-208.5 1092,-208.5"/>
<text text-anchor="start" x="1099" y="-220.3" font-family="Times,serif" font-weight="bold" font-size="14.00">article_id:</text>
<text text-anchor="start" x="1159" y="-220.3" font-family="Times,serif" font-size="14.00"> TheBostonAtlas1847</text>
<polygon fill="none" stroke="black" points="1035,-179.5 1035,-208.5 1092,-208.5 1092,-179.5 1035,-179.5"/>
<text text-anchor="start" x="1042" y="-191.3" font-family="Times,serif" font-weight="bold" font-size="14.00">PK,FK</text>
<polygon fill="none" stroke="black" points="1092,-179.5 1092,-208.5 1284,-208.5 1284,-179.5 1092,-179.5"/>
<text text-anchor="start" x="1099" y="-191.3" font-family="Times,serif" font-weight="bold" font-size="14.00">trope_id:</text>
<polygon fill="none" stroke="black" points="1035,-150.5 1035,-179.5 1284,-179.5 1284,-150.5 1035,-150.5"/>
<text text-anchor="start" x="1126.5" y="-161.3" font-family="Times,serif" font-size="14.00">Lazy Indian</text>
<polygon fill="none" stroke="black" points="1035,-121.5 1035,-150.5 1284,-150.5 1284,-121.5 1035,-121.5"/>
<text text-anchor="start" x="1121.5" y="-132.3" font-family="Times,serif" font-size="14.00">Noble Savage</text>
<polygon fill="none" stroke="black" points="1035,-92.5 1035,-121.5 1284,-121.5 1284,-92.5 1035,-92.5"/>
<text text-anchor="start" x="1113.5" y="-103.3" font-family="Times,serif" font-size="14.00">Jump Overboard</text>
<polygon fill="none" stroke="black" points="1035,-63.5 1035,-92.5 1284,-92.5 1284,-63.5 1035,-63.5"/>
<text text-anchor="start" x="1122.5" y="-74.3" font-family="Times,serif" font-size="14.00">Indian Queen</text>
<polygon fill="none" stroke="black" points="1035,-34.5 1035,-63.5 1284,-63.5 1284,-34.5 1035,-34.5"/>
<text text-anchor="start" x="1127.5" y="-45.3" font-family="Times,serif" font-size="14.00">Girl Crusoe</text>
<polygon fill="none" stroke="black" points="1035,-5.5 1035,-34.5 1284,-34.5 1284,-5.5 1035,-5.5"/>
<text text-anchor="start" x="1129" y="-16.3" font-family="Times,serif" font-size="14.00">Wild Child</text>
<polygon fill="none" stroke="black" stroke-width="2" points="1033.5,-5 1033.5,-266 1284.5,-266 1284.5,-5 1033.5,-5"/>
</g>
<!-- Article&#45;&gt;Article_Trope -->
<g id="edge6" class="edge">
<title>Article&#45;&gt;Article_Trope</title>
<path fill="none" stroke="black" stroke-width="1.5" d="M645.2,-570.94C763.62,-435.78 876,-307.5 876,-307.5 876,-307.5 945.76,-264.95 1015.88,-222.18"/>
<polygon fill="black" stroke="black" stroke-width="1.5" points="1015.9,-222.17 1026.78,-220.81 1020.16,-219.57 1024.43,-216.97 1024.43,-216.97 1024.43,-216.97 1020.16,-219.57 1022.09,-213.12 1015.9,-222.17 1015.9,-222.17"/>
<text text-anchor="middle" x="804.59" y="-370.4" font-family="Times,serif" font-size="9.00">(1:N)</text>
</g>
<!-- Publication&#45;&gt;Location -->
<g id="edge3" class="edge">
<title>Publication&#45;&gt;Location</title>
<path fill="none" stroke="black" stroke-width="1.5" d="M1323.72,-1463.63C1401.89,-1452.71 1494.91,-1439.71 1571.75,-1428.98"/>
<polygon fill="black" stroke="black" stroke-width="1.5" points="1323.68,-1463.63 1313.16,-1460.56 1318.73,-1464.33 1313.78,-1465.02 1313.78,-1465.02 1313.78,-1465.02 1318.73,-1464.33 1314.4,-1469.47 1323.68,-1463.63 1323.68,-1463.63"/>
<text text-anchor="middle" x="1430.74" y="-1439.1" font-family="Times,serif" font-size="9.00">located at</text>
<text text-anchor="middle" x="1430.74" y="-1429.1" font-family="Times,serif" font-size="9.00">(N:1)</text>
</g>
<!-- Trope -->
<g id="node7" class="node">
<title>Trope</title>
<polygon fill="#ffcdd2" stroke="transparent" points="314,-237.5 314,-264.5 432,-264.5 432,-237.5 314,-237.5"/>
<polygon fill="none" stroke="black" points="314,-237.5 314,-264.5 432,-264.5 432,-237.5 314,-237.5"/>
<text text-anchor="start" x="359" y="-248.9" font-family="Times,serif" font-weight="bold" font-size="12.00">trope</text>
<polygon fill="none" stroke="black" points="314,-208.5 314,-237.5 348,-237.5 348,-208.5 314,-208.5"/>
<text text-anchor="start" x="321" y="-220.3" font-family="Times,serif" font-weight="bold" font-size="14.00">PK</text>
<polygon fill="none" stroke="black" points="348,-208.5 348,-237.5 432,-237.5 432,-208.5 348,-208.5"/>
<text text-anchor="start" x="355" y="-220.3" font-family="Times,serif" font-weight="bold" font-size="14.00">trope_id:</text>
<polygon fill="none" stroke="black" points="314,-179.5 314,-208.5 348,-208.5 348,-179.5 314,-179.5"/>
<polygon fill="none" stroke="black" points="348,-179.5 348,-208.5 432,-208.5 432,-179.5 348,-179.5"/>
<text text-anchor="start" x="355" y="-191.3" font-family="Times,serif" font-weight="bold" font-size="14.00">trope_label:</text>
<polygon fill="none" stroke="black" points="314,-150.5 314,-179.5 432,-179.5 432,-150.5 314,-150.5"/>
<text text-anchor="start" x="340" y="-161.3" font-family="Times,serif" font-size="14.00">Lazy Indian</text>
<polygon fill="none" stroke="black" points="314,-121.5 314,-150.5 432,-150.5 432,-121.5 314,-121.5"/>
<text text-anchor="start" x="335" y="-132.3" font-family="Times,serif" font-size="14.00">Noble Savage</text>
<polygon fill="none" stroke="black" points="314,-92.5 314,-121.5 432,-121.5 432,-92.5 314,-92.5"/>
<text text-anchor="start" x="327" y="-103.3" font-family="Times,serif" font-size="14.00">Jump Overboard</text>
<polygon fill="none" stroke="black" points="314,-63.5 314,-92.5 432,-92.5 432,-63.5 314,-63.5"/>
<text text-anchor="start" x="336" y="-74.3" font-family="Times,serif" font-size="14.00">Indian Queen</text>
<polygon fill="none" stroke="black" points="314,-34.5 314,-63.5 432,-63.5 432,-34.5 314,-34.5"/>
<text text-anchor="start" x="341" y="-45.3" font-family="Times,serif" font-size="14.00">Girl Crusoe</text>
<polygon fill="none" stroke="black" points="314,-5.5 314,-34.5 432,-34.5 432,-5.5 314,-5.5"/>
<text text-anchor="start" x="342.5" y="-16.3" font-family="Times,serif" font-size="14.00">Wild Child</text>
<polygon fill="none" stroke="black" stroke-width="2" points="313,-5 313,-266 433,-266 433,-5 313,-5"/>
</g>
<!-- Trope&#45;&gt;Article_Trope -->
<g id="edge7" class="edge">
<title>Trope&#45;&gt;Article_Trope</title>
<path fill="none" stroke="black" stroke-width="1.5" d="M442.2,-135.5C569.23,-135.5 844.5,-135.5 1014.25,-135.5"/>
<polygon fill="black" stroke="black" stroke-width="1.5" points="1014.27,-135.5 1024.27,-140 1019.27,-135.5 1024.27,-135.5 1024.27,-135.5 1024.27,-135.5 1019.27,-135.5 1024.27,-131 1014.27,-135.5 1014.27,-135.5"/>
<text text-anchor="middle" x="718.23" y="-128.3" font-family="Times,serif" font-size="9.00">(1:N)</text>
</g>
</g>
</svg>
