<?xml version="1.0" encoding="UTF-8" standalone="no"?>
<!DOCTYPE svg PUBLIC "-//W3C//DTD SVG 1.1//EN"
 "http://www.w3.org/Graphics/SVG/1.1/DTD/svg11.dtd">
<!-- Generated by graphviz version 2.50.0 (0)
 -->
<!-- Title: ERD_TheFriend1847 Pages: 1 -->
<svg width="1808pt" height="1581pt"
 viewBox="0.00 0.00 1808.00 1581.00" xmlns="http://www.w3.org/2000/svg" xmlns:xlink="http://www.w3.org/1999/xlink">
<g id="graph0" class="graph" transform="scale(1 1) rotate(0) translate(4 1577)">
<title>ERD_TheFriend1847</title>
<polygon fill="white" stroke="transparent" points="-4,4 -4,-1577 1804,-1577 1804,4 -4,4"/>
<text text-anchor="middle" x="900" y="-1557.8" font-family="Arial Bold" font-size="14.00">Entity Relationships for TheFriend1847</text>
<text text-anchor="middle" x="900" y="-1542.8" font-family="Arial Bold" font-size="14.00">(Reprint Type: direct)</text>
<!-- Article -->
<g id="node1" class="node">
<title>Article</title>
<polygon fill="#b4d7e5" stroke="transparent" points="10,-1156.5 10,-1183.5 696,-1183.5 696,-1156.5 10,-1156.5"/>
<polygon fill="none" stroke="black" points="10,-1156.5 10,-1183.5 696,-1183.5 696,-1156.5 10,-1156.5"/>
<text text-anchor="start" x="335.5" y="-1167.9" font-family="Times,serif" font-weight="bold" font-size="12.00">Article</text>
<polygon fill="none" stroke="black" points="10,-1127.5 10,-1156.5 44,-1156.5 44,-1127.5 10,-1127.5"/>
<text text-anchor="start" x="17" y="-1139.3" font-family="Times,serif" font-weight="bold" font-size="14.00">PK</text>
<polygon fill="none" stroke="black" points="44,-1127.5 44,-1156.5 696,-1156.5 696,-1127.5 44,-1127.5"/>
<text text-anchor="start" x="51" y="-1139.3" font-family="Times,serif" font-weight="bold" font-size="14.00">article_id:</text>
<text text-anchor="start" x="111" y="-1139.3" font-family="Times,serif" font-size="14.00"> TheFriend1847</text>
<polygon fill="none" stroke="black" points="10,-1098.5 10,-1127.5 44,-1127.5 44,-1098.5 10,-1098.5"/>
<polygon fill="none" stroke="black" points="44,-1098.5 44,-1127.5 696,-1127.5 696,-1098.5 44,-1098.5"/>
<text text-anchor="start" x="51" y="-1110.3" font-family="Times,serif" font-weight="bold" font-size="14.00">title:</text>
<text text-anchor="start" x="79" y="-1110.3" font-family="Times,serif" font-size="14.00"> &quot;A Female Crusoe&quot;</text>
<polygon fill="none" stroke="black" points="10,-1069.5 10,-1098.5 44,-1098.5 44,-1069.5 10,-1069.5"/>
<polygon fill="none" stroke="black" points="44,-1069.5 44,-1098.5 696,-1098.5 696,-1069.5 44,-1069.5"/>
<text text-anchor="start" x="51" y="-1081.3" font-family="Times,serif" font-weight="bold" font-size="14.00">author:</text>
<text text-anchor="start" x="95" y="-1081.3" font-family="Times,serif" font-size="14.00"> </text>
<polygon fill="none" stroke="black" points="10,-1040.5 10,-1069.5 44,-1069.5 44,-1040.5 10,-1040.5"/>
<polygon fill="none" stroke="black" points="44,-1040.5 44,-1069.5 696,-1069.5 696,-1040.5 44,-1040.5"/>
<text text-anchor="start" x="51" y="-1052.3" font-family="Times,serif" font-weight="bold" font-size="14.00">date:</text>
<text text-anchor="start" x="81" y="-1052.3" font-family="Times,serif" font-size="14.00"> 1847&#45;05&#45;08</text>
<polygon fill="none" stroke="black" points="10,-1011.5 10,-1040.5 44,-1040.5 44,-1011.5 10,-1011.5"/>
<polygon fill="none" stroke="black" points="44,-1011.5 44,-1040.5 696,-1040.5 696,-1011.5 44,-1011.5"/>
<text text-anchor="start" x="51" y="-1023.3" font-family="Times,serif" font-weight="bold" font-size="14.00">monograph_publishers:</text>
<text text-anchor="start" x="190" y="-1023.3" font-family="Times,serif" font-size="14.00"> </text>
<polygon fill="none" stroke="black" points="10,-982.5 10,-1011.5 44,-1011.5 44,-982.5 10,-982.5"/>
<polygon fill="none" stroke="black" points="44,-982.5 44,-1011.5 696,-1011.5 696,-982.5 44,-982.5"/>
<text text-anchor="start" x="51" y="-994.3" font-family="Times,serif" font-weight="bold" font-size="14.00">volume_number:</text>
<text text-anchor="start" x="152" y="-994.3" font-family="Times,serif" font-size="14.00"> 20</text>
<polygon fill="none" stroke="black" points="10,-953.5 10,-982.5 44,-982.5 44,-953.5 10,-953.5"/>
<polygon fill="none" stroke="black" points="44,-953.5 44,-982.5 696,-982.5 696,-953.5 44,-953.5"/>
<text text-anchor="start" x="51" y="-965.3" font-family="Times,serif" font-weight="bold" font-size="14.00">issue_number:</text>
<text text-anchor="start" x="137" y="-965.3" font-family="Times,serif" font-size="14.00"> no. 33</text>
<polygon fill="none" stroke="black" points="10,-924.5 10,-953.5 44,-953.5 44,-924.5 10,-924.5"/>
<polygon fill="none" stroke="black" points="44,-924.5 44,-953.5 696,-953.5 696,-924.5 44,-924.5"/>
<text text-anchor="start" x="51" y="-936.3" font-family="Times,serif" font-weight="bold" font-size="14.00">pages:</text>
<text text-anchor="start" x="88" y="-936.3" font-family="Times,serif" font-size="14.00"> 257&#45;58</text>
<polygon fill="none" stroke="black" points="10,-895.5 10,-924.5 44,-924.5 44,-895.5 10,-895.5"/>
<polygon fill="none" stroke="black" points="44,-895.5 44,-924.5 696,-924.5 696,-895.5 44,-895.5"/>
<text text-anchor="start" x="51" y="-907.3" font-family="Times,serif" font-weight="bold" font-size="14.00">archival_holding:</text>
<text text-anchor="start" x="154" y="-907.3" font-family="Times,serif" font-size="14.00"> </text>
<polygon fill="none" stroke="black" points="10,-866.5 10,-895.5 44,-895.5 44,-866.5 10,-866.5"/>
<polygon fill="none" stroke="black" points="44,-866.5 44,-895.5 696,-895.5 696,-866.5 44,-866.5"/>
<text text-anchor="start" x="51" y="-878.3" font-family="Times,serif" font-weight="bold" font-size="14.00">archival_location:</text>
<text text-anchor="start" x="156" y="-878.3" font-family="Times,serif" font-size="14.00"> </text>
<polygon fill="none" stroke="black" points="10,-837.5 10,-866.5 44,-866.5 44,-837.5 10,-837.5"/>
<polygon fill="none" stroke="black" points="44,-837.5 44,-866.5 696,-866.5 696,-837.5 44,-837.5"/>
<text text-anchor="start" x="51" y="-849.3" font-family="Times,serif" font-weight="bold" font-size="14.00">cost:</text>
<text text-anchor="start" x="79" y="-849.3" font-family="Times,serif" font-size="14.00"> </text>
<polygon fill="none" stroke="black" points="10,-808.5 10,-837.5 44,-837.5 44,-808.5 10,-808.5"/>
<polygon fill="none" stroke="black" points="44,-808.5 44,-837.5 696,-837.5 696,-808.5 44,-808.5"/>
<text text-anchor="start" x="51" y="-820.3" font-family="Times,serif" font-weight="bold" font-size="14.00">permission:</text>
<text text-anchor="start" x="120" y="-820.3" font-family="Times,serif" font-size="14.00"> Public domain</text>
<polygon fill="none" stroke="black" points="10,-779.5 10,-808.5 44,-808.5 44,-779.5 10,-779.5"/>
<polygon fill="none" stroke="black" points="44,-779.5 44,-808.5 696,-808.5 696,-779.5 44,-779.5"/>
<text text-anchor="start" x="51" y="-791.3" font-family="Times,serif" font-weight="bold" font-size="14.00">permission_acknowledgement:</text>
<text text-anchor="start" x="231" y="-791.3" font-family="Times,serif" font-size="14.00"> </text>
<polygon fill="none" stroke="black" points="10,-750.5 10,-779.5 44,-779.5 44,-750.5 10,-750.5"/>
<polygon fill="none" stroke="black" points="44,-750.5 44,-779.5 696,-779.5 696,-750.5 44,-750.5"/>
<text text-anchor="start" x="51" y="-762.3" font-family="Times,serif" font-weight="bold" font-size="14.00">permission_statements:</text>
<text text-anchor="start" x="189" y="-762.3" font-family="Times,serif" font-size="14.00"> </text>
<polygon fill="none" stroke="black" points="10,-721.5 10,-750.5 44,-750.5 44,-721.5 10,-721.5"/>
<polygon fill="none" stroke="black" points="44,-721.5 44,-750.5 696,-750.5 696,-721.5 44,-721.5"/>
<text text-anchor="start" x="51" y="-733.3" font-family="Times,serif" font-weight="bold" font-size="14.00">acquisitions:</text>
<text text-anchor="start" x="124" y="-733.3" font-family="Times,serif" font-size="14.00"> </text>
<polygon fill="none" stroke="black" points="10,-692.5 10,-721.5 44,-721.5 44,-692.5 10,-692.5"/>
<polygon fill="none" stroke="black" points="44,-692.5 44,-721.5 696,-721.5 696,-692.5 44,-692.5"/>
<text text-anchor="start" x="51" y="-704.3" font-family="Times,serif" font-weight="bold" font-size="14.00">document_intro:</text>
<text text-anchor="start" x="149" y="-704.3" font-family="Times,serif" font-size="14.00"> </text>
<polygon fill="none" stroke="black" points="10,-663.5 10,-692.5 44,-692.5 44,-663.5 10,-663.5"/>
<polygon fill="none" stroke="black" points="44,-663.5 44,-692.5 696,-692.5 696,-663.5 44,-663.5"/>
<text text-anchor="start" x="51" y="-675.3" font-family="Times,serif" font-weight="bold" font-size="14.00">transcripts:</text>
<text text-anchor="start" x="119" y="-675.3" font-family="Times,serif" font-size="14.00"> From the Boston Atlas. A Femole Crusoe. Off tho coast of Alta California, about two degrees distant,...</text>
<polygon fill="none" stroke="black" points="10,-634.5 10,-663.5 44,-663.5 44,-634.5 10,-634.5"/>
<text text-anchor="start" x="17" y="-646.3" font-family="Times,serif" font-weight="bold" font-size="14.00">FK</text>
<polygon fill="none" stroke="black" points="44,-634.5 44,-663.5 696,-663.5 696,-634.5 44,-634.5"/>
<text text-anchor="start" x="51" y="-646.3" font-family="Times,serif" font-weight="bold" font-size="14.00">group_reprint_id:</text>
<text text-anchor="start" x="157" y="-646.3" font-family="Times,serif" font-size="14.00"> TheBostonAtlas1847_reprint</text>
<polygon fill="none" stroke="black" points="10,-605.5 10,-634.5 44,-634.5 44,-605.5 10,-605.5"/>
<text text-anchor="start" x="17" y="-617.3" font-family="Times,serif" font-weight="bold" font-size="14.00">FK</text>
<polygon fill="none" stroke="black" points="44,-605.5 44,-634.5 696,-634.5 696,-605.5 44,-605.5"/>
<text text-anchor="start" x="51" y="-617.3" font-family="Times,serif" font-weight="bold" font-size="14.00">publisher_location:</text>
<text text-anchor="start" x="163" y="-617.3" font-family="Times,serif" font-size="14.00"> Philadelphia, Pennsylvania</text>
<polygon fill="none" stroke="black" points="10,-576.5 10,-605.5 44,-605.5 44,-576.5 10,-576.5"/>
<text text-anchor="start" x="17" y="-588.3" font-family="Times,serif" font-weight="bold" font-size="14.00">FK</text>
<polygon fill="none" stroke="black" points="44,-576.5 44,-605.5 696,-605.5 696,-576.5 44,-576.5"/>
<text text-anchor="start" x="51" y="-588.3" font-family="Times,serif" font-weight="bold" font-size="14.00">publication:</text>
<text text-anchor="start" x="121" y="-588.3" font-family="Times,serif" font-size="14.00"> Friend</text>
<polygon fill="none" stroke="black" stroke-width="2" points="9,-576 9,-1185 697,-1185 697,-576 9,-576"/>
</g>
<!-- Publication -->
<g id="node2" class="node">
<title>Publication</title>
<polygon fill="#f4d9b0" stroke="transparent" points="932.5,-1501.5 932.5,-1528.5 1243.5,-1528.5 1243.5,-1501.5 932.5,-1501.5"/>
<polygon fill="none" stroke="black" points="932.5,-1501.5 932.5,-1528.5 1243.5,-1528.5 1243.5,-1501.5 932.5,-1501.5"/>
<text text-anchor="start" x="1059" y="-1512.9" font-family="Times,serif" font-weight="bold" font-size="12.00">Publication</text>
<polygon fill="none" stroke="black" points="932.5,-1472.5 932.5,-1501.5 966.5,-1501.5 966.5,-1472.5 932.5,-1472.5"/>
<text text-anchor="start" x="939.5" y="-1484.3" font-family="Times,serif" font-weight="bold" font-size="14.00">PK</text>
<polygon fill="none" stroke="black" points="966.5,-1472.5 966.5,-1501.5 1243.5,-1501.5 1243.5,-1472.5 966.5,-1472.5"/>
<text text-anchor="start" x="973.5" y="-1484.3" font-family="Times,serif" font-weight="bold" font-size="14.00">publication:</text>
<text text-anchor="start" x="1043.5" y="-1484.3" font-family="Times,serif" font-size="14.00"> Friend</text>
<polygon fill="none" stroke="black" points="932.5,-1443.5 932.5,-1472.5 966.5,-1472.5 966.5,-1443.5 932.5,-1443.5"/>
<text text-anchor="start" x="939.5" y="-1455.3" font-family="Times,serif" font-weight="bold" font-size="14.00">FK</text>
<polygon fill="none" stroke="black" points="966.5,-1443.5 966.5,-1472.5 1243.5,-1472.5 1243.5,-1443.5 966.5,-1443.5"/>
<text text-anchor="start" x="973.5" y="-1455.3" font-family="Times,serif" font-weight="bold" font-size="14.00">publisher_location:</text>
<text text-anchor="start" x="1085.5" y="-1455.3" font-family="Times,serif" font-size="14.00"> Philadelphia, Pennsylvania</text>
<polygon fill="none" stroke="black" stroke-width="2" points="931,-1443 931,-1530 1244,-1530 1244,-1443 931,-1443"/>
</g>
<!-- Article&#45;&gt;Publication -->
<g id="edge1" class="edge">
<title>Article&#45;&gt;Publication</title>
<path fill="none" stroke="black" stroke-width="1.5" d="M657.64,-1197.37C754,-1297.93 836,-1383.5 836,-1383.5 836,-1383.5 903.36,-1411.2 968.22,-1437.87"/>
<polygon fill="black" stroke="black" stroke-width="1.5" points="657.6,-1197.33 653.93,-1186.99 654.14,-1193.72 650.68,-1190.11 650.68,-1190.11 650.68,-1190.11 654.14,-1193.72 647.43,-1193.22 657.6,-1197.33 657.6,-1197.33"/>
<text text-anchor="middle" x="774.28" y="-1334.85" font-family="Times,serif" font-size="9.00">published in</text>
<text text-anchor="middle" x="774.28" y="-1324.85" font-family="Times,serif" font-size="9.00">(N:1)</text>
</g>
<!-- Location -->
<g id="node3" class="node">
<title>Location</title>
<polygon fill="#c8e6c9" stroke="transparent" points="1479.5,-1408.5 1479.5,-1435.5 1790.5,-1435.5 1790.5,-1408.5 1479.5,-1408.5"/>
<polygon fill="none" stroke="black" points="1479.5,-1408.5 1479.5,-1435.5 1790.5,-1435.5 1790.5,-1408.5 1479.5,-1408.5"/>
<text text-anchor="start" x="1612" y="-1419.9" font-family="Times,serif" font-weight="bold" font-size="12.00">Location</text>
<polygon fill="none" stroke="black" points="1479.5,-1379.5 1479.5,-1408.5 1513.5,-1408.5 1513.5,-1379.5 1479.5,-1379.5"/>
<text text-anchor="start" x="1486.5" y="-1391.3" font-family="Times,serif" font-weight="bold" font-size="14.00">PK</text>
<polygon fill="none" stroke="black" points="1513.5,-1379.5 1513.5,-1408.5 1790.5,-1408.5 1790.5,-1379.5 1513.5,-1379.5"/>
<text text-anchor="start" x="1520.5" y="-1391.3" font-family="Times,serif" font-weight="bold" font-size="14.00">publisher_location:</text>
<text text-anchor="start" x="1632.5" y="-1391.3" font-family="Times,serif" font-size="14.00"> Philadelphia, Pennsylvania</text>
<polygon fill="none" stroke="black" stroke-width="2" points="1478,-1378.5 1478,-1436.5 1791,-1436.5 1791,-1378.5 1478,-1378.5"/>
</g>
<!-- Article&#45;&gt;Location -->
<g id="edge2" class="edge">
<title>Article&#45;&gt;Location</title>
<path fill="none" stroke="black" stroke-width="1.5" d="M714.34,-1160.1C784.09,-1214.22 836,-1254.5 836,-1254.5 836,-1254.5 1235.22,-1331.09 1468.74,-1375.89"/>
<polygon fill="black" stroke="black" stroke-width="1.5" points="714.1,-1159.91 708.96,-1150.23 710.15,-1156.85 706.2,-1153.78 706.2,-1153.78 706.2,-1153.78 710.15,-1156.85 703.44,-1157.34 714.1,-1159.91 714.1,-1159.91"/>
<text text-anchor="middle" x="1055.26" y="-1293.49" font-family="Times,serif" font-size="9.00">published at</text>
<text text-anchor="middle" x="1055.26" y="-1283.49" font-family="Times,serif" font-size="9.00">(N:1)</text>
</g>
<!-- Images -->
<g id="node4" class="node">
<title>Images</title>
<polygon fill="#e1bee7" stroke="transparent" points="846.5,-1185.5 846.5,-1212.5 1329.5,-1212.5 1329.5,-1185.5 846.5,-1185.5"/>
<polygon fill="none" stroke="black" points="846.5,-1185.5 846.5,-1212.5 1329.5,-1212.5 1329.5,-1185.5 846.5,-1185.5"/>
<text text-anchor="start" x="1048.5" y="-1196.9" font-family="Times,serif" font-weight="bold" font-size="12.00">Images (7 total)</text>
<polygon fill="none" stroke="black" points="846.5,-1156.5 846.5,-1185.5 880.5,-1185.5 880.5,-1156.5 846.5,-1156.5"/>
<text text-anchor="start" x="853.5" y="-1168.3" font-family="Times,serif" font-weight="bold" font-size="14.00">PK</text>
<polygon fill="none" stroke="black" points="880.5,-1156.5 880.5,-1185.5 1329.5,-1185.5 1329.5,-1156.5 880.5,-1156.5"/>
<text text-anchor="start" x="887.5" y="-1168.3" font-family="Times,serif" font-weight="bold" font-size="14.00">object_id:</text>
<text text-anchor="start" x="945.5" y="-1168.3" font-family="Times,serif" font-size="14.00"> TheFriend1847_Original</text>
<polygon fill="none" stroke="black" points="846.5,-1127.5 846.5,-1156.5 880.5,-1156.5 880.5,-1127.5 846.5,-1127.5"/>
<polygon fill="none" stroke="black" points="880.5,-1127.5 880.5,-1156.5 1329.5,-1156.5 1329.5,-1127.5 880.5,-1127.5"/>
<text text-anchor="start" x="887.5" y="-1139.3" font-family="Times,serif" font-weight="bold" font-size="14.00">image_file:</text>
<text text-anchor="start" x="952.5" y="-1139.3" font-family="Times,serif" font-size="14.00"> TheFriend1847_DigSur_1.png</text>
<polygon fill="none" stroke="black" points="846.5,-1098.5 846.5,-1127.5 880.5,-1127.5 880.5,-1098.5 846.5,-1098.5"/>
<polygon fill="none" stroke="black" points="880.5,-1098.5 880.5,-1127.5 1329.5,-1127.5 1329.5,-1098.5 880.5,-1098.5"/>
<text text-anchor="start" x="887.5" y="-1110.3" font-family="Times,serif" font-weight="bold" font-size="14.00">image_parent_id:</text>
<text text-anchor="start" x="990.5" y="-1110.3" font-family="Times,serif" font-size="14.00"> </text>
<polygon fill="none" stroke="black" points="846.5,-1069.5 846.5,-1098.5 880.5,-1098.5 880.5,-1069.5 846.5,-1069.5"/>
<polygon fill="none" stroke="black" points="880.5,-1069.5 880.5,-1098.5 1329.5,-1098.5 1329.5,-1069.5 880.5,-1069.5"/>
<text text-anchor="start" x="887.5" y="-1081.3" font-family="Times,serif" font-weight="bold" font-size="14.00">image_object_location:</text>
<text text-anchor="start" x="1022.5" y="-1081.3" font-family="Times,serif" font-size="14.00"> objects/TheFriend1847/TheFriend1847_DigSur_1.png</text>
<polygon fill="none" stroke="black" points="846.5,-1040.5 846.5,-1069.5 880.5,-1069.5 880.5,-1040.5 846.5,-1040.5"/>
<polygon fill="none" stroke="black" points="880.5,-1040.5 880.5,-1069.5 1329.5,-1069.5 1329.5,-1040.5 880.5,-1040.5"/>
<text text-anchor="start" x="887.5" y="-1052.3" font-family="Times,serif" font-weight="bold" font-size="14.00">image_display_template:</text>
<text text-anchor="start" x="1033.5" y="-1052.3" font-family="Times,serif" font-size="14.00"> compound_object</text>
<polygon fill="none" stroke="black" points="846.5,-1011.5 846.5,-1040.5 880.5,-1040.5 880.5,-1011.5 846.5,-1011.5"/>
<polygon fill="none" stroke="black" points="880.5,-1011.5 880.5,-1040.5 1329.5,-1040.5 1329.5,-1011.5 880.5,-1011.5"/>
<text text-anchor="start" x="887.5" y="-1023.3" font-family="Times,serif" font-weight="bold" font-size="14.00">image_description:</text>
<text text-anchor="start" x="999.5" y="-1023.3" font-family="Times,serif" font-size="14.00"> </text>
<polygon fill="#f0f0f0" stroke="transparent" points="846.5,-982.5 846.5,-1011.5 1329.5,-1011.5 1329.5,-982.5 846.5,-982.5"/>
<polygon fill="none" stroke="black" points="846.5,-982.5 846.5,-1011.5 1329.5,-1011.5 1329.5,-982.5 846.5,-982.5"/>
<text text-anchor="start" x="1081" y="-993.3" font-family="Times,serif" font-size="14.00">&#45;&#45;&#45;</text>
<polygon fill="none" stroke="black" points="846.5,-953.5 846.5,-982.5 880.5,-982.5 880.5,-953.5 846.5,-953.5"/>
<text text-anchor="start" x="853.5" y="-965.3" font-family="Times,serif" font-weight="bold" font-size="14.00">PK</text>
<polygon fill="none" stroke="black" points="880.5,-953.5 880.5,-982.5 1329.5,-982.5 1329.5,-953.5 880.5,-953.5"/>
<text text-anchor="start" x="887.5" y="-965.3" font-family="Times,serif" font-weight="bold" font-size="14.00">object_id:</text>
<text text-anchor="start" x="945.5" y="-965.3" font-family="Times,serif" font-size="14.00"> TheFriend1847_img1</text>
<polygon fill="none" stroke="black" points="846.5,-924.5 846.5,-953.5 880.5,-953.5 880.5,-924.5 846.5,-924.5"/>
<polygon fill="none" stroke="black" points="880.5,-924.5 880.5,-953.5 1329.5,-953.5 1329.5,-924.5 880.5,-924.5"/>
<text text-anchor="start" x="887.5" y="-936.3" font-family="Times,serif" font-weight="bold" font-size="14.00">image_file:</text>
<text text-anchor="start" x="952.5" y="-936.3" font-family="Times,serif" font-size="14.00"> TheFriend1847_DigSur_1.png</text>
<polygon fill="none" stroke="black" points="846.5,-895.5 846.5,-924.5 880.5,-924.5 880.5,-895.5 846.5,-895.5"/>
<polygon fill="none" stroke="black" points="880.5,-895.5 880.5,-924.5 1329.5,-924.5 1329.5,-895.5 880.5,-895.5"/>
<text text-anchor="start" x="887.5" y="-907.3" font-family="Times,serif" font-weight="bold" font-size="14.00">image_parent_id:</text>
<text text-anchor="start" x="990.5" y="-907.3" font-family="Times,serif" font-size="14.00"> TheFriend1847_Original</text>
<polygon fill="none" stroke="black" points="846.5,-866.5 846.5,-895.5 880.5,-895.5 880.5,-866.5 846.5,-866.5"/>
<polygon fill="none" stroke="black" points="880.5,-866.5 880.5,-895.5 1329.5,-895.5 1329.5,-866.5 880.5,-866.5"/>
<text text-anchor="start" x="887.5" y="-878.3" font-family="Times,serif" font-weight="bold" font-size="14.00">image_object_location:</text>
<text text-anchor="start" x="1022.5" y="-878.3" font-family="Times,serif" font-size="14.00"> objects/TheFriend1847/TheFriend1847_DigSur_1.png</text>
<polygon fill="none" stroke="black" points="846.5,-837.5 846.5,-866.5 880.5,-866.5 880.5,-837.5 846.5,-837.5"/>
<polygon fill="none" stroke="black" points="880.5,-837.5 880.5,-866.5 1329.5,-866.5 1329.5,-837.5 880.5,-837.5"/>
<text text-anchor="start" x="887.5" y="-849.3" font-family="Times,serif" font-weight="bold" font-size="14.00">image_display_template:</text>
<text text-anchor="start" x="1033.5" y="-849.3" font-family="Times,serif" font-size="14.00"> image</text>
<polygon fill="none" stroke="black" points="846.5,-808.5 846.5,-837.5 880.5,-837.5 880.5,-808.5 846.5,-808.5"/>
<polygon fill="none" stroke="black" points="880.5,-808.5 880.5,-837.5 1329.5,-837.5 1329.5,-808.5 880.5,-808.5"/>
<text text-anchor="start" x="887.5" y="-820.3" font-family="Times,serif" font-weight="bold" font-size="14.00">image_description:</text>
<text text-anchor="start" x="999.5" y="-820.3" font-family="Times,serif" font-size="14.00"> </text>
<polygon fill="#f0f0f0" stroke="transparent" points="846.5,-779.5 846.5,-808.5 1329.5,-808.5 1329.5,-779.5 846.5,-779.5"/>
<polygon fill="none" stroke="black" points="846.5,-779.5 846.5,-808.5 1329.5,-808.5 1329.5,-779.5 846.5,-779.5"/>
<text text-anchor="start" x="1081" y="-790.3" font-family="Times,serif" font-size="14.00">&#45;&#45;&#45;</text>
<polygon fill="none" stroke="black" points="846.5,-750.5 846.5,-779.5 880.5,-779.5 880.5,-750.5 846.5,-750.5"/>
<text text-anchor="start" x="853.5" y="-762.3" font-family="Times,serif" font-weight="bold" font-size="14.00">PK</text>
<polygon fill="none" stroke="black" points="880.5,-750.5 880.5,-779.5 1329.5,-779.5 1329.5,-750.5 880.5,-750.5"/>
<text text-anchor="start" x="887.5" y="-762.3" font-family="Times,serif" font-weight="bold" font-size="14.00">object_id:</text>
<text text-anchor="start" x="945.5" y="-762.3" font-family="Times,serif" font-size="14.00"> TheFriend1847_img2</text>
<polygon fill="none" stroke="black" points="846.5,-721.5 846.5,-750.5 880.5,-750.5 880.5,-721.5 846.5,-721.5"/>
<polygon fill="none" stroke="black" points="880.5,-721.5 880.5,-750.5 1329.5,-750.5 1329.5,-721.5 880.5,-721.5"/>
<text text-anchor="start" x="887.5" y="-733.3" font-family="Times,serif" font-weight="bold" font-size="14.00">image_file:</text>
<text text-anchor="start" x="952.5" y="-733.3" font-family="Times,serif" font-size="14.00"> TheFriend1847_DigSur_2.png</text>
<polygon fill="none" stroke="black" points="846.5,-692.5 846.5,-721.5 880.5,-721.5 880.5,-692.5 846.5,-692.5"/>
<polygon fill="none" stroke="black" points="880.5,-692.5 880.5,-721.5 1329.5,-721.5 1329.5,-692.5 880.5,-692.5"/>
<text text-anchor="start" x="887.5" y="-704.3" font-family="Times,serif" font-weight="bold" font-size="14.00">image_parent_id:</text>
<text text-anchor="start" x="990.5" y="-704.3" font-family="Times,serif" font-size="14.00"> TheFriend1847_Original</text>
<polygon fill="none" stroke="black" points="846.5,-663.5 846.5,-692.5 880.5,-692.5 880.5,-663.5 846.5,-663.5"/>
<polygon fill="none" stroke="black" points="880.5,-663.5 880.5,-692.5 1329.5,-692.5 1329.5,-663.5 880.5,-663.5"/>
<text text-anchor="start" x="887.5" y="-675.3" font-family="Times,serif" font-weight="bold" font-size="14.00">image_object_location:</text>
<text text-anchor="start" x="1022.5" y="-675.3" font-family="Times,serif" font-size="14.00"> objects/TheFriend1847/TheFriend1847_DigSur_2.png</text>
<polygon fill="none" stroke="black" points="846.5,-634.5 846.5,-663.5 880.5,-663.5 880.5,-634.5 846.5,-634.5"/>
<polygon fill="none" stroke="black" points="880.5,-634.5 880.5,-663.5 1329.5,-663.5 1329.5,-634.5 880.5,-634.5"/>
<text text-anchor="start" x="887.5" y="-646.3" font-family="Times,serif" font-weight="bold" font-size="14.00">image_display_template:</text>
<text text-anchor="start" x="1033.5" y="-646.3" font-family="Times,serif" font-size="14.00"> image</text>
<polygon fill="none" stroke="black" points="846.5,-605.5 846.5,-634.5 880.5,-634.5 880.5,-605.5 846.5,-605.5"/>
<polygon fill="none" stroke="black" points="880.5,-605.5 880.5,-634.5 1329.5,-634.5 1329.5,-605.5 880.5,-605.5"/>
<text text-anchor="start" x="887.5" y="-617.3" font-family="Times,serif" font-weight="bold" font-size="14.00">image_description:</text>
<text text-anchor="start" x="999.5" y="-617.3" font-family="Times,serif" font-size="14.00"> </text>
<polygon fill="none" stroke="black" points="846.5,-576.5 846.5,-605.5 1329.5,-605.5 1329.5,-576.5 846.5,-576.5"/>
<text text-anchor="start" x="1028" y="-588.3" font-family="Times,serif" font-style="italic" font-size="14.00">... and 4 more images</text>
<polygon fill="none" stroke="black" points="846.5,-547.5 846.5,-576.5 880.5,-576.5 880.5,-547.5 846.5,-547.5"/>
<text text-anchor="start" x="853.5" y="-559.3" font-family="Times,serif" font-weight="bold" font-size="14.00">FK</text>
<polygon fill="none" stroke="black" points="880.5,-547.5 880.5,-576.5 1329.5,-576.5 1329.5,-547.5 880.5,-547.5"/>
<text text-anchor="start" x="887.5" y="-559.3" font-family="Times,serif" font-weight="bold" font-size="14.00">article_id:</text>
<text text-anchor="start" x="947.5" y="-559.3" font-family="Times,serif" font-size="14.00"> TheFriend1847</text>
<polygon fill="none" stroke="black" stroke-width="2" points="845,-547 845,-1214 1330,-1214 1330,-547 845,-547"/>
</g>
<!-- Article&#45;&gt;Images -->
<g id="edge4" class="edge">
<title>Article&#45;&gt;Images</title>
<path fill="none" stroke="black" stroke-width="1.5" d="M706.04,-880.5C746.26,-880.5 786.71,-880.5 825.45,-880.5"/>
<polygon fill="black" stroke="black" stroke-width="1.5" points="825.79,-880.5 835.79,-885 830.79,-880.5 835.79,-880.5 835.79,-880.5 835.79,-880.5 830.79,-880.5 835.79,-876 825.79,-880.5 825.79,-880.5"/>
<text text-anchor="middle" x="755.74" y="-873.3" font-family="Times,serif" font-size="9.00">has</text>
<text text-anchor="middle" x="755.74" y="-863.3" font-family="Times,serif" font-size="9.00">(1:N)</text>
</g>
<!-- Reprints -->
<g id="node5" class="node">
<title>Reprints</title>
<polygon fill="#ffecb3" stroke="transparent" points="930.5,-436.5 930.5,-463.5 1245.5,-463.5 1245.5,-436.5 930.5,-436.5"/>
<polygon fill="none" stroke="black" points="930.5,-436.5 930.5,-463.5 1245.5,-463.5 1245.5,-436.5 930.5,-436.5"/>
<text text-anchor="start" x="1016.5" y="-447.9" font-family="Times,serif" font-weight="bold" font-size="12.00">Reprints / Document Group</text>
<polygon fill="none" stroke="black" points="930.5,-407.5 930.5,-436.5 964.5,-436.5 964.5,-407.5 930.5,-407.5"/>
<text text-anchor="start" x="937.5" y="-419.3" font-family="Times,serif" font-weight="bold" font-size="14.00">PK</text>
<polygon fill="none" stroke="black" points="964.5,-407.5 964.5,-436.5 1245.5,-436.5 1245.5,-407.5 964.5,-407.5"/>
<text text-anchor="start" x="971.5" y="-419.3" font-family="Times,serif" font-weight="bold" font-size="14.00">group_reprint_id:</text>
<text text-anchor="start" x="1077.5" y="-419.3" font-family="Times,serif" font-size="14.00"> TheBostonAtlas1847_reprint</text>
<polygon fill="none" stroke="black" points="930.5,-378.5 930.5,-407.5 964.5,-407.5 964.5,-378.5 930.5,-378.5"/>
<polygon fill="none" stroke="black" points="964.5,-378.5 964.5,-407.5 1245.5,-407.5 1245.5,-378.5 964.5,-378.5"/>
<text text-anchor="start" x="971.5" y="-390.3" font-family="Times,serif" font-weight="bold" font-size="14.00">reprint_type:</text>
<text text-anchor="start" x="1049.5" y="-390.3" font-family="Times,serif" font-size="14.00"> direct</text>
<polygon fill="none" stroke="black" points="930.5,-349.5 930.5,-378.5 964.5,-378.5 964.5,-349.5 930.5,-349.5"/>
<polygon fill="none" stroke="black" points="964.5,-349.5 964.5,-378.5 1245.5,-378.5 1245.5,-349.5 964.5,-349.5"/>
<text text-anchor="start" x="971.5" y="-361.3" font-family="Times,serif" font-weight="bold" font-size="14.00">reprint_order:</text>
<text text-anchor="start" x="1056.5" y="-361.3" font-family="Times,serif" font-size="14.00"> </text>
<polygon fill="none" stroke="black" stroke-width="2" points="929,-348.5 929,-464.5 1246,-464.5 1246,-348.5 929,-348.5"/>
</g>
<!-- Article&#45;&gt;Reprints -->
<g id="edge5" class="edge">
<title>Article&#45;&gt;Reprints</title>
<path fill="none" stroke="black" stroke-width="1.5" d="M714.34,-600.15C784.09,-545.89 836,-505.5 836,-505.5 836,-505.5 877.54,-489.08 926.79,-469.62"/>
<polygon fill="black" stroke="black" stroke-width="1.5" points="714.09,-600.35 703.44,-602.93 710.15,-603.42 706.2,-606.49 706.2,-606.49 706.2,-606.49 710.15,-603.42 708.96,-610.04 714.09,-600.35 714.09,-600.35"/>
<text text-anchor="middle" x="795.2" y="-515.65" font-family="Times,serif" font-size="9.00">belongs to</text>
<text text-anchor="middle" x="795.2" y="-505.65" font-family="Times,serif" font-size="9.00">(N:1)</text>
</g>
<!-- Article_Trope -->
<g id="node6" class="node">
<title>Article_Trope</title>
<polygon fill="#ffe0e0" stroke="transparent" points="978.5,-237.5 978.5,-264.5 1196.5,-264.5 1196.5,-237.5 978.5,-237.5"/>
<polygon fill="none" stroke="black" points="978.5,-237.5 978.5,-264.5 1196.5,-264.5 1196.5,-237.5 978.5,-237.5"/>
<text text-anchor="start" x="1055" y="-248.9" font-family="Times,serif" font-weight="bold" font-size="12.00">article_trope</text>
<polygon fill="none" stroke="black" points="978.5,-208.5 978.5,-237.5 1035.5,-237.5 1035.5,-208.5 978.5,-208.5"/>
<text text-anchor="start" x="985.5" y="-220.3" font-family="Times,serif" font-weight="bold" font-size="14.00">PK,FK</text>
<polygon fill="none" stroke="black" points="1035.5,-208.5 1035.5,-237.5 1196.5,-237.5 1196.5,-208.5 1035.5,-208.5"/>
<text text-anchor="start" x="1042.5" y="-220.3" font-family="Times,serif" font-weight="bold" font-size="14.00">article_id:</text>
<text text-anchor="start" x="1102.5" y="-220.3" font-family="Times,serif" font-size="14.00"> TheFriend1847</text>
<polygon fill="none" stroke="black" points="978.5,-179.5 978.5,-208.5 1035.5,-208.5 1035.5,-179.5 978.5,-179.5"/>
<text text-anchor="start" x="985.5" y="-191.3" font-family="Times,serif" font-weight="bold" font-size="14.00">PK,FK</text>
<polygon fill="none" stroke="black" points="1035.5,-179.5 1035.5,-208.5 1196.5,-208.5 1196.5,-179.5 1035.5,-179.5"/>
<text text-anchor="start" x="1042.5" y="-191.3" font-family="Times,serif" font-weight="bold" font-size="14.00">trope_id:</text>
<polygon fill="none" stroke="black" points="978.5,-150.5 978.5,-179.5 1196.5,-179.5 1196.5,-150.5 978.5,-150.5"/>
<text text-anchor="start" x="1054.5" y="-161.3" font-family="Times,serif" font-size="14.00">Lazy Indian</text>
<polygon fill="none" stroke="black" points="978.5,-121.5 978.5,-150.5 1196.5,-150.5 1196.5,-121.5 978.5,-121.5"/>
<text text-anchor="start" x="1049.5" y="-132.3" font-family="Times,serif" font-size="14.00">Noble Savage</text>
<polygon fill="none" stroke="black" points="978.5,-92.5 978.5,-121.5 1196.5,-121.5 1196.5,-92.5 978.5,-92.5"/>
<text text-anchor="start" x="1041.5" y="-103.3" font-family="Times,serif" font-size="14.00">Jump Overboard</text>
<polygon fill="none" stroke="black" points="978.5,-63.5 978.5,-92.5 1196.5,-92.5 1196.5,-63.5 978.5,-63.5"/>
<text text-anchor="start" x="1050.5" y="-74.3" font-family="Times,serif" font-size="14.00">Indian Queen</text>
<polygon fill="none" stroke="black" points="978.5,-34.5 978.5,-63.5 1196.5,-63.5 1196.5,-34.5 978.5,-34.5"/>
<text text-anchor="start" x="1055.5" y="-45.3" font-family="Times,serif" font-size="14.00">Girl Crusoe</text>
<polygon fill="none" stroke="black" points="978.5,-5.5 978.5,-34.5 1196.5,-34.5 1196.5,-5.5 978.5,-5.5"/>
<text text-anchor="start" x="1057" y="-16.3" font-family="Times,serif" font-size="14.00">Wild Child</text>
<polygon fill="none" stroke="black" stroke-width="2" points="977.5,-5 977.5,-266 1197.5,-266 1197.5,-5 977.5,-5"/>
</g>
<!-- Article&#45;&gt;Article_Trope -->
<g id="edge6" class="edge">
<title>Article&#45;&gt;Article_Trope</title>
<path fill="none" stroke="black" stroke-width="1.5" d="M614.4,-570.94C728.1,-435.78 836,-307.5 836,-307.5 836,-307.5 897.69,-265.14 959.85,-222.46"/>
<polygon fill="black" stroke="black" stroke-width="1.5" points="959.97,-222.38 970.77,-220.42 964.1,-219.55 968.22,-216.72 968.22,-216.72 968.22,-216.72 964.1,-219.55 965.67,-213.01 959.97,-222.38 959.97,-222.38"/>
<text text-anchor="middle" x="763.55" y="-374.54" font-family="Times,serif" font-size="9.00">(1:N)</text>
</g>
<!-- Publication&#45;&gt;Location -->
<g id="edge3" class="edge">
<title>Publication&#45;&gt;Location</title>
<path fill="none" stroke="black" stroke-width="1.5" d="M1263.21,-1461.18C1329.14,-1451.62 1403.87,-1440.79 1468.85,-1431.37"/>
<polygon fill="black" stroke="black" stroke-width="1.5" points="1263.02,-1461.2 1252.48,-1458.18 1258.08,-1461.92 1253.13,-1462.64 1253.13,-1462.64 1253.13,-1462.64 1258.08,-1461.92 1253.77,-1467.09 1263.02,-1461.2 1263.02,-1461.2"/>
<text text-anchor="middle" x="1349.03" y="-1439.07" font-family="Times,serif" font-size="9.00">located at</text>
<text text-anchor="middle" x="1349.03" y="-1429.07" font-family="Times,serif" font-size="9.00">(N:1)</text>
</g>
<!-- Trope -->
<g id="node7" class="node">
<title>Trope</title>
<polygon fill="#ffcdd2" stroke="transparent" points="294,-237.5 294,-264.5 412,-264.5 412,-237.5 294,-237.5"/>
<polygon fill="none" stroke="black" points="294,-237.5 294,-264.5 412,-264.5 412,-237.5 294,-237.5"/>
<text text-anchor="start" x="339" y="-248.9" font-family="Times,serif" font-weight="bold" font-size="12.00">trope</text>
<polygon fill="none" stroke="black" points="294,-208.5 294,-237.5 328,-237.5 328,-208.5 294,-208.5"/>
<text text-anchor="start" x="301" y="-220.3" font-family="Times,serif" font-weight="bold" font-size="14.00">PK</text>
<polygon fill="none" stroke="black" points="328,-208.5 328,-237.5 412,-237.5 412,-208.5 328,-208.5"/>
<text text-anchor="start" x="335" y="-220.3" font-family="Times,serif" font-weight="bold" font-size="14.00">trope_id:</text>
<polygon fill="none" stroke="black" points="294,-179.5 294,-208.5 328,-208.5 328,-179.5 294,-179.5"/>
<polygon fill="none" stroke="black" points="328,-179.5 328,-208.5 412,-208.5 412,-179.5 328,-179.5"/>
<text text-anchor="start" x="335" y="-191.3" font-family="Times,serif" font-weight="bold" font-size="14.00">trope_label:</text>
<polygon fill="none" stroke="black" points="294,-150.5 294,-179.5 412,-179.5 412,-150.5 294,-150.5"/>
<text text-anchor="start" x="320" y="-161.3" font-family="Times,serif" font-size="14.00">Lazy Indian</text>
<polygon fill="none" stroke="black" points="294,-121.5 294,-150.5 412,-150.5 412,-121.5 294,-121.5"/>
<text text-anchor="start" x="315" y="-132.3" font-family="Times,serif" font-size="14.00">Noble Savage</text>
<polygon fill="none" stroke="black" points="294,-92.5 294,-121.5 412,-121.5 412,-92.5 294,-92.5"/>
<text text-anchor="start" x="307" y="-103.3" font-family="Times,serif" font-size="14.00">Jump Overboard</text>
<polygon fill="none" stroke="black" points="294,-63.5 294,-92.5 412,-92.5 412,-63.5 294,-63.5"/>
<text text-anchor="start" x="316" y="-74.3" font-family="Times,serif" font-size="14.00">Indian Queen</text>
<polygon fill="none" stroke="black" points="294,-34.5 294,-63.5 412,-63.5 412,-34.5 294,-34.5"/>
<text text-anchor="start" x="321" y="-45.3" font-family="Times,serif" font-size="14.00">Girl Crusoe</text>
<polygon fill="none" stroke="black" points="294,-5.5 294,-34.5 412,-34.5 412,-5.5 294,-5.5"/>
<text text-anchor="start" x="322.5" y="-16.3" font-family="Times,serif" font-size="14.00">Wild Child</text>
<polygon fill="none" stroke="black" stroke-width="2" points="293,-5 293,-266 413,-266 413,-5 293,-5"/>
</g>
<!-- Trope&#45;&gt;Article_Trope -->
<g id="edge7" class="edge">
<title>Trope&#45;&gt;Article_Trope</title>
<path fill="none" stroke="black" stroke-width="1.5" d="M422.25,-135.5C544.41,-135.5 802.21,-135.5 958.27,-135.5"/>
<polygon fill="black" stroke="black" stroke-width="1.5" points="958.41,-135.5 968.41,-140 963.41,-135.5 968.41,-135.5 968.41,-135.5 968.41,-135.5 963.41,-135.5 968.41,-131 958.41,-135.5 958.41,-135.5"/>
<text text-anchor="middle" x="680.26" y="-128.3" font-family="Times,serif" font-size="9.00">(1:N)</text>
</g>
</g>
</svg>
