<?xml version="1.0" encoding="UTF-8" standalone="no"?>
<!DOCTYPE svg PUBLIC "-//W3C//DTD SVG 1.1//EN"
 "http://www.w3.org/Graphics/SVG/1.1/DTD/svg11.dtd">
<!-- Generated by graphviz version 2.50.0 (0)
 -->
<!-- Title: ERD_TheLivingAge1847 Pages: 1 -->
<svg width="1828pt" height="1581pt"
 viewBox="0.00 0.00 1828.00 1581.00" xmlns="http://www.w3.org/2000/svg" xmlns:xlink="http://www.w3.org/1999/xlink">
<g id="graph0" class="graph" transform="scale(1 1) rotate(0) translate(4 1577)">
<title>ERD_TheLivingAge1847</title>
<polygon fill="white" stroke="transparent" points="-4,4 -4,-1577 1824,-1577 1824,4 -4,4"/>
<text text-anchor="middle" x="910" y="-1557.8" font-family="Arial Bold" font-size="14.00">Entity Relationships for TheLivingAge1847</text>
<text text-anchor="middle" x="910" y="-1542.8" font-family="Arial Bold" font-size="14.00">(Reprint Type: direct)</text>
<!-- Article -->
<g id="node1" class="node">
<title>Article</title>
<polygon fill="#b4d7e5" stroke="transparent" points="10.5,-1156.5 10.5,-1183.5 721.5,-1183.5 721.5,-1156.5 10.5,-1156.5"/>
<polygon fill="none" stroke="black" points="10.5,-1156.5 10.5,-1183.5 721.5,-1183.5 721.5,-1156.5 10.5,-1156.5"/>
<text text-anchor="start" x="348.5" y="-1167.9" font-family="Times,serif" font-weight="bold" font-size="12.00">Article</text>
<polygon fill="none" stroke="black" points="10.5,-1127.5 10.5,-1156.5 44.5,-1156.5 44.5,-1127.5 10.5,-1127.5"/>
<text text-anchor="start" x="17.5" y="-1139.3" font-family="Times,serif" font-weight="bold" font-size="14.00">PK</text>
<polygon fill="none" stroke="black" points="44.5,-1127.5 44.5,-1156.5 721.5,-1156.5 721.5,-1127.5 44.5,-1127.5"/>
<text text-anchor="start" x="51.5" y="-1139.3" font-family="Times,serif" font-weight="bold" font-size="14.00">article_id:</text>
<text text-anchor="start" x="111.5" y="-1139.3" font-family="Times,serif" font-size="14.00"> TheLivingAge1847</text>
<polygon fill="none" stroke="black" points="10.5,-1098.5 10.5,-1127.5 44.5,-1127.5 44.5,-1098.5 10.5,-1098.5"/>
<polygon fill="none" stroke="black" points="44.5,-1098.5 44.5,-1127.5 721.5,-1127.5 721.5,-1098.5 44.5,-1098.5"/>
<text text-anchor="start" x="51.5" y="-1110.3" font-family="Times,serif" font-weight="bold" font-size="14.00">title:</text>
<text text-anchor="start" x="79.5" y="-1110.3" font-family="Times,serif" font-size="14.00"> &quot;A Female Crusoe&quot;</text>
<polygon fill="none" stroke="black" points="10.5,-1069.5 10.5,-1098.5 44.5,-1098.5 44.5,-1069.5 10.5,-1069.5"/>
<polygon fill="none" stroke="black" points="44.5,-1069.5 44.5,-1098.5 721.5,-1098.5 721.5,-1069.5 44.5,-1069.5"/>
<text text-anchor="start" x="51.5" y="-1081.3" font-family="Times,serif" font-weight="bold" font-size="14.00">author:</text>
<text text-anchor="start" x="95.5" y="-1081.3" font-family="Times,serif" font-size="14.00"> </text>
<polygon fill="none" stroke="black" points="10.5,-1040.5 10.5,-1069.5 44.5,-1069.5 44.5,-1040.5 10.5,-1040.5"/>
<polygon fill="none" stroke="black" points="44.5,-1040.5 44.5,-1069.5 721.5,-1069.5 721.5,-1040.5 44.5,-1040.5"/>
<text text-anchor="start" x="51.5" y="-1052.3" font-family="Times,serif" font-weight="bold" font-size="14.00">date:</text>
<text text-anchor="start" x="81.5" y="-1052.3" font-family="Times,serif" font-size="14.00"> 1847&#45;03&#45;27</text>
<polygon fill="none" stroke="black" points="10.5,-1011.5 10.5,-1040.5 44.5,-1040.5 44.5,-1011.5 10.5,-1011.5"/>
<polygon fill="none" stroke="black" points="44.5,-1011.5 44.5,-1040.5 721.5,-1040.5 721.5,-1011.5 44.5,-1011.5"/>
<text text-anchor="start" x="51.5" y="-1023.3" font-family="Times,serif" font-weight="bold" font-size="14.00">monograph_publishers:</text>
<text text-anchor="start" x="190.5" y="-1023.3" font-family="Times,serif" font-size="14.00"> </text>
<polygon fill="none" stroke="black" points="10.5,-982.5 10.5,-1011.5 44.5,-1011.5 44.5,-982.5 10.5,-982.5"/>
<polygon fill="none" stroke="black" points="44.5,-982.5 44.5,-1011.5 721.5,-1011.5 721.5,-982.5 44.5,-982.5"/>
<text text-anchor="start" x="51.5" y="-994.3" font-family="Times,serif" font-weight="bold" font-size="14.00">volume_number:</text>
<text text-anchor="start" x="152.5" y="-994.3" font-family="Times,serif" font-size="14.00"> 12</text>
<polygon fill="none" stroke="black" points="10.5,-953.5 10.5,-982.5 44.5,-982.5 44.5,-953.5 10.5,-953.5"/>
<polygon fill="none" stroke="black" points="44.5,-953.5 44.5,-982.5 721.5,-982.5 721.5,-953.5 44.5,-953.5"/>
<text text-anchor="start" x="51.5" y="-965.3" font-family="Times,serif" font-weight="bold" font-size="14.00">issue_number:</text>
<text text-anchor="start" x="137.5" y="-965.3" font-family="Times,serif" font-size="14.00"> no. 150</text>
<polygon fill="none" stroke="black" points="10.5,-924.5 10.5,-953.5 44.5,-953.5 44.5,-924.5 10.5,-924.5"/>
<polygon fill="none" stroke="black" points="44.5,-924.5 44.5,-953.5 721.5,-953.5 721.5,-924.5 44.5,-924.5"/>
<text text-anchor="start" x="51.5" y="-936.3" font-family="Times,serif" font-weight="bold" font-size="14.00">pages:</text>
<text text-anchor="start" x="88.5" y="-936.3" font-family="Times,serif" font-size="14.00"> 594&#45;95</text>
<polygon fill="none" stroke="black" points="10.5,-895.5 10.5,-924.5 44.5,-924.5 44.5,-895.5 10.5,-895.5"/>
<polygon fill="none" stroke="black" points="44.5,-895.5 44.5,-924.5 721.5,-924.5 721.5,-895.5 44.5,-895.5"/>
<text text-anchor="start" x="51.5" y="-907.3" font-family="Times,serif" font-weight="bold" font-size="14.00">archival_holding:</text>
<text text-anchor="start" x="154.5" y="-907.3" font-family="Times,serif" font-size="14.00"> </text>
<polygon fill="none" stroke="black" points="10.5,-866.5 10.5,-895.5 44.5,-895.5 44.5,-866.5 10.5,-866.5"/>
<polygon fill="none" stroke="black" points="44.5,-866.5 44.5,-895.5 721.5,-895.5 721.5,-866.5 44.5,-866.5"/>
<text text-anchor="start" x="51.5" y="-878.3" font-family="Times,serif" font-weight="bold" font-size="14.00">archival_location:</text>
<text text-anchor="start" x="156.5" y="-878.3" font-family="Times,serif" font-size="14.00"> </text>
<polygon fill="none" stroke="black" points="10.5,-837.5 10.5,-866.5 44.5,-866.5 44.5,-837.5 10.5,-837.5"/>
<polygon fill="none" stroke="black" points="44.5,-837.5 44.5,-866.5 721.5,-866.5 721.5,-837.5 44.5,-837.5"/>
<text text-anchor="start" x="51.5" y="-849.3" font-family="Times,serif" font-weight="bold" font-size="14.00">cost:</text>
<text text-anchor="start" x="79.5" y="-849.3" font-family="Times,serif" font-size="14.00"> </text>
<polygon fill="none" stroke="black" points="10.5,-808.5 10.5,-837.5 44.5,-837.5 44.5,-808.5 10.5,-808.5"/>
<polygon fill="none" stroke="black" points="44.5,-808.5 44.5,-837.5 721.5,-837.5 721.5,-808.5 44.5,-808.5"/>
<text text-anchor="start" x="51.5" y="-820.3" font-family="Times,serif" font-weight="bold" font-size="14.00">permission:</text>
<text text-anchor="start" x="120.5" y="-820.3" font-family="Times,serif" font-size="14.00"> Public domain</text>
<polygon fill="none" stroke="black" points="10.5,-779.5 10.5,-808.5 44.5,-808.5 44.5,-779.5 10.5,-779.5"/>
<polygon fill="none" stroke="black" points="44.5,-779.5 44.5,-808.5 721.5,-808.5 721.5,-779.5 44.5,-779.5"/>
<text text-anchor="start" x="51.5" y="-791.3" font-family="Times,serif" font-weight="bold" font-size="14.00">permission_acknowledgement:</text>
<text text-anchor="start" x="231.5" y="-791.3" font-family="Times,serif" font-size="14.00"> </text>
<polygon fill="none" stroke="black" points="10.5,-750.5 10.5,-779.5 44.5,-779.5 44.5,-750.5 10.5,-750.5"/>
<polygon fill="none" stroke="black" points="44.5,-750.5 44.5,-779.5 721.5,-779.5 721.5,-750.5 44.5,-750.5"/>
<text text-anchor="start" x="51.5" y="-762.3" font-family="Times,serif" font-weight="bold" font-size="14.00">permission_statements:</text>
<text text-anchor="start" x="189.5" y="-762.3" font-family="Times,serif" font-size="14.00"> </text>
<polygon fill="none" stroke="black" points="10.5,-721.5 10.5,-750.5 44.5,-750.5 44.5,-721.5 10.5,-721.5"/>
<polygon fill="none" stroke="black" points="44.5,-721.5 44.5,-750.5 721.5,-750.5 721.5,-721.5 44.5,-721.5"/>
<text text-anchor="start" x="51.5" y="-733.3" font-family="Times,serif" font-weight="bold" font-size="14.00">acquisitions:</text>
<text text-anchor="start" x="124.5" y="-733.3" font-family="Times,serif" font-size="14.00"> </text>
<polygon fill="none" stroke="black" points="10.5,-692.5 10.5,-721.5 44.5,-721.5 44.5,-692.5 10.5,-692.5"/>
<polygon fill="none" stroke="black" points="44.5,-692.5 44.5,-721.5 721.5,-721.5 721.5,-692.5 44.5,-692.5"/>
<text text-anchor="start" x="51.5" y="-704.3" font-family="Times,serif" font-weight="bold" font-size="14.00">document_intro:</text>
<text text-anchor="start" x="149.5" y="-704.3" font-family="Times,serif" font-size="14.00"> </text>
<polygon fill="none" stroke="black" points="10.5,-663.5 10.5,-692.5 44.5,-692.5 44.5,-663.5 10.5,-663.5"/>
<polygon fill="none" stroke="black" points="44.5,-663.5 44.5,-692.5 721.5,-692.5 721.5,-663.5 44.5,-663.5"/>
<text text-anchor="start" x="51.5" y="-675.3" font-family="Times,serif" font-weight="bold" font-size="14.00">transcripts:</text>
<text text-anchor="start" x="119.5" y="-675.3" font-family="Times,serif" font-size="14.00"> A FEMALE CRUSOE. OFF the coast of Alta California, about two degrees distant, bearing nearly west fr...</text>
<polygon fill="none" stroke="black" points="10.5,-634.5 10.5,-663.5 44.5,-663.5 44.5,-634.5 10.5,-634.5"/>
<text text-anchor="start" x="17.5" y="-646.3" font-family="Times,serif" font-weight="bold" font-size="14.00">FK</text>
<polygon fill="none" stroke="black" points="44.5,-634.5 44.5,-663.5 721.5,-663.5 721.5,-634.5 44.5,-634.5"/>
<text text-anchor="start" x="51.5" y="-646.3" font-family="Times,serif" font-weight="bold" font-size="14.00">group_reprint_id:</text>
<text text-anchor="start" x="157.5" y="-646.3" font-family="Times,serif" font-size="14.00"> TheBostonAtlas1847_reprint</text>
<polygon fill="none" stroke="black" points="10.5,-605.5 10.5,-634.5 44.5,-634.5 44.5,-605.5 10.5,-605.5"/>
<text text-anchor="start" x="17.5" y="-617.3" font-family="Times,serif" font-weight="bold" font-size="14.00">FK</text>
<polygon fill="none" stroke="black" points="44.5,-605.5 44.5,-634.5 721.5,-634.5 721.5,-605.5 44.5,-605.5"/>
<text text-anchor="start" x="51.5" y="-617.3" font-family="Times,serif" font-weight="bold" font-size="14.00">publisher_location:</text>
<text text-anchor="start" x="163.5" y="-617.3" font-family="Times,serif" font-size="14.00"> Ithaca, New York</text>
<polygon fill="none" stroke="black" points="10.5,-576.5 10.5,-605.5 44.5,-605.5 44.5,-576.5 10.5,-576.5"/>
<text text-anchor="start" x="17.5" y="-588.3" font-family="Times,serif" font-weight="bold" font-size="14.00">FK</text>
<polygon fill="none" stroke="black" points="44.5,-576.5 44.5,-605.5 721.5,-605.5 721.5,-576.5 44.5,-576.5"/>
<text text-anchor="start" x="51.5" y="-588.3" font-family="Times,serif" font-weight="bold" font-size="14.00">publication:</text>
<text text-anchor="start" x="121.5" y="-588.3" font-family="Times,serif" font-size="14.00"> Littell&#39;s Living Age</text>
<polygon fill="none" stroke="black" stroke-width="2" points="9,-576 9,-1185 722,-1185 722,-576 9,-576"/>
</g>
<!-- Publication -->
<g id="node2" class="node">
<title>Publication</title>
<polygon fill="#f4d9b0" stroke="transparent" points="1005.5,-1501.5 1005.5,-1528.5 1265.5,-1528.5 1265.5,-1501.5 1005.5,-1501.5"/>
<polygon fill="none" stroke="black" points="1005.5,-1501.5 1005.5,-1528.5 1265.5,-1528.5 1265.5,-1501.5 1005.5,-1501.5"/>
<text text-anchor="start" x="1106.5" y="-1512.9" font-family="Times,serif" font-weight="bold" font-size="12.00">Publication</text>
<polygon fill="none" stroke="black" points="1005.5,-1472.5 1005.5,-1501.5 1039.5,-1501.5 1039.5,-1472.5 1005.5,-1472.5"/>
<text text-anchor="start" x="1012.5" y="-1484.3" font-family="Times,serif" font-weight="bold" font-size="14.00">PK</text>
<polygon fill="none" stroke="black" points="1039.5,-1472.5 1039.5,-1501.5 1265.5,-1501.5 1265.5,-1472.5 1039.5,-1472.5"/>
<text text-anchor="start" x="1046.5" y="-1484.3" font-family="Times,serif" font-weight="bold" font-size="14.00">publication:</text>
<text text-anchor="start" x="1116.5" y="-1484.3" font-family="Times,serif" font-size="14.00"> Littell&#39;s Living Age</text>
<polygon fill="none" stroke="black" points="1005.5,-1443.5 1005.5,-1472.5 1039.5,-1472.5 1039.5,-1443.5 1005.5,-1443.5"/>
<text text-anchor="start" x="1012.5" y="-1455.3" font-family="Times,serif" font-weight="bold" font-size="14.00">FK</text>
<polygon fill="none" stroke="black" points="1039.5,-1443.5 1039.5,-1472.5 1265.5,-1472.5 1265.5,-1443.5 1039.5,-1443.5"/>
<text text-anchor="start" x="1046.5" y="-1455.3" font-family="Times,serif" font-weight="bold" font-size="14.00">publisher_location:</text>
<text text-anchor="start" x="1158.5" y="-1455.3" font-family="Times,serif" font-size="14.00"> Ithaca, New York</text>
<polygon fill="none" stroke="black" stroke-width="2" points="1004.5,-1443 1004.5,-1530 1266.5,-1530 1266.5,-1443 1004.5,-1443"/>
</g>
<!-- Article&#45;&gt;Publication -->
<g id="edge1" class="edge">
<title>Article&#45;&gt;Publication</title>
<path fill="none" stroke="black" stroke-width="1.5" d="M678.02,-1197.37C776.87,-1297.93 861,-1383.5 861,-1383.5 861,-1383.5 934.54,-1411.2 1005.36,-1437.87"/>
<polygon fill="black" stroke="black" stroke-width="1.5" points="677.88,-1197.24 674.08,-1186.95 674.38,-1193.67 670.87,-1190.11 670.87,-1190.11 670.87,-1190.11 674.38,-1193.67 667.67,-1193.26 677.88,-1197.24 677.88,-1197.24"/>
<text text-anchor="middle" x="801.58" y="-1338.24" font-family="Times,serif" font-size="9.00">published in</text>
<text text-anchor="middle" x="801.58" y="-1328.24" font-family="Times,serif" font-size="9.00">(N:1)</text>
</g>
<!-- Location -->
<g id="node3" class="node">
<title>Location</title>
<polygon fill="#c8e6c9" stroke="transparent" points="1550,-1408.5 1550,-1435.5 1810,-1435.5 1810,-1408.5 1550,-1408.5"/>
<polygon fill="none" stroke="black" points="1550,-1408.5 1550,-1435.5 1810,-1435.5 1810,-1408.5 1550,-1408.5"/>
<text text-anchor="start" x="1657" y="-1419.9" font-family="Times,serif" font-weight="bold" font-size="12.00">Location</text>
<polygon fill="none" stroke="black" points="1550,-1379.5 1550,-1408.5 1584,-1408.5 1584,-1379.5 1550,-1379.5"/>
<text text-anchor="start" x="1557" y="-1391.3" font-family="Times,serif" font-weight="bold" font-size="14.00">PK</text>
<polygon fill="none" stroke="black" points="1584,-1379.5 1584,-1408.5 1810,-1408.5 1810,-1379.5 1584,-1379.5"/>
<text text-anchor="start" x="1591" y="-1391.3" font-family="Times,serif" font-weight="bold" font-size="14.00">publisher_location:</text>
<text text-anchor="start" x="1703" y="-1391.3" font-family="Times,serif" font-size="14.00"> Ithaca, New York</text>
<polygon fill="none" stroke="black" stroke-width="2" points="1549,-1378.5 1549,-1436.5 1811,-1436.5 1811,-1378.5 1549,-1378.5"/>
</g>
<!-- Article&#45;&gt;Location -->
<g id="edge2" class="edge">
<title>Article&#45;&gt;Location</title>
<path fill="none" stroke="black" stroke-width="1.5" d="M739.25,-1162.42C809.26,-1215.37 861,-1254.5 861,-1254.5 861,-1254.5 1306.27,-1337.78 1539.77,-1381.46"/>
<polygon fill="black" stroke="black" stroke-width="1.5" points="739.05,-1162.27 733.79,-1152.65 735.06,-1159.25 731.08,-1156.24 731.08,-1156.24 731.08,-1156.24 735.06,-1159.25 728.36,-1159.82 739.05,-1162.27 739.05,-1162.27"/>
<text text-anchor="middle" x="1103.86" y="-1296.75" font-family="Times,serif" font-size="9.00">published at</text>
<text text-anchor="middle" x="1103.86" y="-1286.75" font-family="Times,serif" font-size="9.00">(N:1)</text>
</g>
<!-- Images -->
<g id="node4" class="node">
<title>Images</title>
<polygon fill="#e1bee7" stroke="transparent" points="871.5,-1185.5 871.5,-1212.5 1400.5,-1212.5 1400.5,-1185.5 871.5,-1185.5"/>
<polygon fill="none" stroke="black" points="871.5,-1185.5 871.5,-1212.5 1400.5,-1212.5 1400.5,-1185.5 871.5,-1185.5"/>
<text text-anchor="start" x="1096.5" y="-1196.9" font-family="Times,serif" font-weight="bold" font-size="12.00">Images (9 total)</text>
<polygon fill="none" stroke="black" points="871.5,-1156.5 871.5,-1185.5 905.5,-1185.5 905.5,-1156.5 871.5,-1156.5"/>
<text text-anchor="start" x="878.5" y="-1168.3" font-family="Times,serif" font-weight="bold" font-size="14.00">PK</text>
<polygon fill="none" stroke="black" points="905.5,-1156.5 905.5,-1185.5 1400.5,-1185.5 1400.5,-1156.5 905.5,-1156.5"/>
<text text-anchor="start" x="912.5" y="-1168.3" font-family="Times,serif" font-weight="bold" font-size="14.00">object_id:</text>
<text text-anchor="start" x="970.5" y="-1168.3" font-family="Times,serif" font-size="14.00"> TheLivingAge1847_Original</text>
<polygon fill="none" stroke="black" points="871.5,-1127.5 871.5,-1156.5 905.5,-1156.5 905.5,-1127.5 871.5,-1127.5"/>
<polygon fill="none" stroke="black" points="905.5,-1127.5 905.5,-1156.5 1400.5,-1156.5 1400.5,-1127.5 905.5,-1127.5"/>
<text text-anchor="start" x="912.5" y="-1139.3" font-family="Times,serif" font-weight="bold" font-size="14.00">image_file:</text>
<text text-anchor="start" x="977.5" y="-1139.3" font-family="Times,serif" font-size="14.00"> TheLivingAge1847_DigSur_1.png</text>
<polygon fill="none" stroke="black" points="871.5,-1098.5 871.5,-1127.5 905.5,-1127.5 905.5,-1098.5 871.5,-1098.5"/>
<polygon fill="none" stroke="black" points="905.5,-1098.5 905.5,-1127.5 1400.5,-1127.5 1400.5,-1098.5 905.5,-1098.5"/>
<text text-anchor="start" x="912.5" y="-1110.3" font-family="Times,serif" font-weight="bold" font-size="14.00">image_parent_id:</text>
<text text-anchor="start" x="1015.5" y="-1110.3" font-family="Times,serif" font-size="14.00"> </text>
<polygon fill="none" stroke="black" points="871.5,-1069.5 871.5,-1098.5 905.5,-1098.5 905.5,-1069.5 871.5,-1069.5"/>
<polygon fill="none" stroke="black" points="905.5,-1069.5 905.5,-1098.5 1400.5,-1098.5 1400.5,-1069.5 905.5,-1069.5"/>
<text text-anchor="start" x="912.5" y="-1081.3" font-family="Times,serif" font-weight="bold" font-size="14.00">image_object_location:</text>
<text text-anchor="start" x="1047.5" y="-1081.3" font-family="Times,serif" font-size="14.00"> objects/TheLivingAge1847/TheLivingAge1847_DigSur_1.png</text>
<polygon fill="none" stroke="black" points="871.5,-1040.5 871.5,-1069.5 905.5,-1069.5 905.5,-1040.5 871.5,-1040.5"/>
<polygon fill="none" stroke="black" points="905.5,-1040.5 905.5,-1069.5 1400.5,-1069.5 1400.5,-1040.5 905.5,-1040.5"/>
<text text-anchor="start" x="912.5" y="-1052.3" font-family="Times,serif" font-weight="bold" font-size="14.00">image_display_template:</text>
<text text-anchor="start" x="1058.5" y="-1052.3" font-family="Times,serif" font-size="14.00"> compound_object</text>
<polygon fill="none" stroke="black" points="871.5,-1011.5 871.5,-1040.5 905.5,-1040.5 905.5,-1011.5 871.5,-1011.5"/>
<polygon fill="none" stroke="black" points="905.5,-1011.5 905.5,-1040.5 1400.5,-1040.5 1400.5,-1011.5 905.5,-1011.5"/>
<text text-anchor="start" x="912.5" y="-1023.3" font-family="Times,serif" font-weight="bold" font-size="14.00">image_description:</text>
<text text-anchor="start" x="1024.5" y="-1023.3" font-family="Times,serif" font-size="14.00"> </text>
<polygon fill="#f0f0f0" stroke="transparent" points="871.5,-982.5 871.5,-1011.5 1400.5,-1011.5 1400.5,-982.5 871.5,-982.5"/>
<polygon fill="none" stroke="black" points="871.5,-982.5 871.5,-1011.5 1400.5,-1011.5 1400.5,-982.5 871.5,-982.5"/>
<text text-anchor="start" x="1129" y="-993.3" font-family="Times,serif" font-size="14.00">&#45;&#45;&#45;</text>
<polygon fill="none" stroke="black" points="871.5,-953.5 871.5,-982.5 905.5,-982.5 905.5,-953.5 871.5,-953.5"/>
<text text-anchor="start" x="878.5" y="-965.3" font-family="Times,serif" font-weight="bold" font-size="14.00">PK</text>
<polygon fill="none" stroke="black" points="905.5,-953.5 905.5,-982.5 1400.5,-982.5 1400.5,-953.5 905.5,-953.5"/>
<text text-anchor="start" x="912.5" y="-965.3" font-family="Times,serif" font-weight="bold" font-size="14.00">object_id:</text>
<text text-anchor="start" x="970.5" y="-965.3" font-family="Times,serif" font-size="14.00"> TheLivingAge1847_img1</text>
<polygon fill="none" stroke="black" points="871.5,-924.5 871.5,-953.5 905.5,-953.5 905.5,-924.5 871.5,-924.5"/>
<polygon fill="none" stroke="black" points="905.5,-924.5 905.5,-953.5 1400.5,-953.5 1400.5,-924.5 905.5,-924.5"/>
<text text-anchor="start" x="912.5" y="-936.3" font-family="Times,serif" font-weight="bold" font-size="14.00">image_file:</text>
<text text-anchor="start" x="977.5" y="-936.3" font-family="Times,serif" font-size="14.00"> TheLivingAge1847_DigSur_1.png</text>
<polygon fill="none" stroke="black" points="871.5,-895.5 871.5,-924.5 905.5,-924.5 905.5,-895.5 871.5,-895.5"/>
<polygon fill="none" stroke="black" points="905.5,-895.5 905.5,-924.5 1400.5,-924.5 1400.5,-895.5 905.5,-895.5"/>
<text text-anchor="start" x="912.5" y="-907.3" font-family="Times,serif" font-weight="bold" font-size="14.00">image_parent_id:</text>
<text text-anchor="start" x="1015.5" y="-907.3" font-family="Times,serif" font-size="14.00"> TheLivingAge1847_Original</text>
<polygon fill="none" stroke="black" points="871.5,-866.5 871.5,-895.5 905.5,-895.5 905.5,-866.5 871.5,-866.5"/>
<polygon fill="none" stroke="black" points="905.5,-866.5 905.5,-895.5 1400.5,-895.5 1400.5,-866.5 905.5,-866.5"/>
<text text-anchor="start" x="912.5" y="-878.3" font-family="Times,serif" font-weight="bold" font-size="14.00">image_object_location:</text>
<text text-anchor="start" x="1047.5" y="-878.3" font-family="Times,serif" font-size="14.00"> objects/TheLivingAge1847/TheLivingAge1847_DigSur_1.png</text>
<polygon fill="none" stroke="black" points="871.5,-837.5 871.5,-866.5 905.5,-866.5 905.5,-837.5 871.5,-837.5"/>
<polygon fill="none" stroke="black" points="905.5,-837.5 905.5,-866.5 1400.5,-866.5 1400.5,-837.5 905.5,-837.5"/>
<text text-anchor="start" x="912.5" y="-849.3" font-family="Times,serif" font-weight="bold" font-size="14.00">image_display_template:</text>
<text text-anchor="start" x="1058.5" y="-849.3" font-family="Times,serif" font-size="14.00"> image</text>
<polygon fill="none" stroke="black" points="871.5,-808.5 871.5,-837.5 905.5,-837.5 905.5,-808.5 871.5,-808.5"/>
<polygon fill="none" stroke="black" points="905.5,-808.5 905.5,-837.5 1400.5,-837.5 1400.5,-808.5 905.5,-808.5"/>
<text text-anchor="start" x="912.5" y="-820.3" font-family="Times,serif" font-weight="bold" font-size="14.00">image_description:</text>
<text text-anchor="start" x="1024.5" y="-820.3" font-family="Times,serif" font-size="14.00"> </text>
<polygon fill="#f0f0f0" stroke="transparent" points="871.5,-779.5 871.5,-808.5 1400.5,-808.5 1400.5,-779.5 871.5,-779.5"/>
<polygon fill="none" stroke="black" points="871.5,-779.5 871.5,-808.5 1400.5,-808.5 1400.5,-779.5 871.5,-779.5"/>
<text text-anchor="start" x="1129" y="-790.3" font-family="Times,serif" font-size="14.00">&#45;&#45;&#45;</text>
<polygon fill="none" stroke="black" points="871.5,-750.5 871.5,-779.5 905.5,-779.5 905.5,-750.5 871.5,-750.5"/>
<text text-anchor="start" x="878.5" y="-762.3" font-family="Times,serif" font-weight="bold" font-size="14.00">PK</text>
<polygon fill="none" stroke="black" points="905.5,-750.5 905.5,-779.5 1400.5,-779.5 1400.5,-750.5 905.5,-750.5"/>
<text text-anchor="start" x="912.5" y="-762.3" font-family="Times,serif" font-weight="bold" font-size="14.00">object_id:</text>
<text text-anchor="start" x="970.5" y="-762.3" font-family="Times,serif" font-size="14.00"> TheLivingAge1847_img2</text>
<polygon fill="none" stroke="black" points="871.5,-721.5 871.5,-750.5 905.5,-750.5 905.5,-721.5 871.5,-721.5"/>
<polygon fill="none" stroke="black" points="905.5,-721.5 905.5,-750.5 1400.5,-750.5 1400.5,-721.5 905.5,-721.5"/>
<text text-anchor="start" x="912.5" y="-733.3" font-family="Times,serif" font-weight="bold" font-size="14.00">image_file:</text>
<text text-anchor="start" x="977.5" y="-733.3" font-family="Times,serif" font-size="14.00"> TheLivingAge1847_DigSur_2.png</text>
<polygon fill="none" stroke="black" points="871.5,-692.5 871.5,-721.5 905.5,-721.5 905.5,-692.5 871.5,-692.5"/>
<polygon fill="none" stroke="black" points="905.5,-692.5 905.5,-721.5 1400.5,-721.5 1400.5,-692.5 905.5,-692.5"/>
<text text-anchor="start" x="912.5" y="-704.3" font-family="Times,serif" font-weight="bold" font-size="14.00">image_parent_id:</text>
<text text-anchor="start" x="1015.5" y="-704.3" font-family="Times,serif" font-size="14.00"> TheLivingAge1847_Original</text>
<polygon fill="none" stroke="black" points="871.5,-663.5 871.5,-692.5 905.5,-692.5 905.5,-663.5 871.5,-663.5"/>
<polygon fill="none" stroke="black" points="905.5,-663.5 905.5,-692.5 1400.5,-692.5 1400.5,-663.5 905.5,-663.5"/>
<text text-anchor="start" x="912.5" y="-675.3" font-family="Times,serif" font-weight="bold" font-size="14.00">image_object_location:</text>
<text text-anchor="start" x="1047.5" y="-675.3" font-family="Times,serif" font-size="14.00"> objects/TheLivingAge1847/TheLivingAge1847_DigSur_2.png</text>
<polygon fill="none" stroke="black" points="871.5,-634.5 871.5,-663.5 905.5,-663.5 905.5,-634.5 871.5,-634.5"/>
<polygon fill="none" stroke="black" points="905.5,-634.5 905.5,-663.5 1400.5,-663.5 1400.5,-634.5 905.5,-634.5"/>
<text text-anchor="start" x="912.5" y="-646.3" font-family="Times,serif" font-weight="bold" font-size="14.00">image_display_template:</text>
<text text-anchor="start" x="1058.5" y="-646.3" font-family="Times,serif" font-size="14.00"> image</text>
<polygon fill="none" stroke="black" points="871.5,-605.5 871.5,-634.5 905.5,-634.5 905.5,-605.5 871.5,-605.5"/>
<polygon fill="none" stroke="black" points="905.5,-605.5 905.5,-634.5 1400.5,-634.5 1400.5,-605.5 905.5,-605.5"/>
<text text-anchor="start" x="912.5" y="-617.3" font-family="Times,serif" font-weight="bold" font-size="14.00">image_description:</text>
<text text-anchor="start" x="1024.5" y="-617.3" font-family="Times,serif" font-size="14.00"> </text>
<polygon fill="none" stroke="black" points="871.5,-576.5 871.5,-605.5 1400.5,-605.5 1400.5,-576.5 871.5,-576.5"/>
<text text-anchor="start" x="1076" y="-588.3" font-family="Times,serif" font-style="italic" font-size="14.00">... and 6 more images</text>
<polygon fill="none" stroke="black" points="871.5,-547.5 871.5,-576.5 905.5,-576.5 905.5,-547.5 871.5,-547.5"/>
<text text-anchor="start" x="878.5" y="-559.3" font-family="Times,serif" font-weight="bold" font-size="14.00">FK</text>
<polygon fill="none" stroke="black" points="905.5,-547.5 905.5,-576.5 1400.5,-576.5 1400.5,-547.5 905.5,-547.5"/>
<text text-anchor="start" x="912.5" y="-559.3" font-family="Times,serif" font-weight="bold" font-size="14.00">article_id:</text>
<text text-anchor="start" x="972.5" y="-559.3" font-family="Times,serif" font-size="14.00"> TheLivingAge1847</text>
<polygon fill="none" stroke="black" stroke-width="2" points="870,-547 870,-1214 1401,-1214 1401,-547 870,-547"/>
</g>
<!-- Article&#45;&gt;Images -->
<g id="edge4" class="edge">
<title>Article&#45;&gt;Images</title>
<path fill="none" stroke="black" stroke-width="1.5" d="M731.1,-880.5C771.18,-880.5 811.53,-880.5 850.42,-880.5"/>
<polygon fill="black" stroke="black" stroke-width="1.5" points="850.81,-880.5 860.81,-885 855.81,-880.5 860.81,-880.5 860.81,-880.5 860.81,-880.5 855.81,-880.5 860.81,-876 850.81,-880.5 850.81,-880.5"/>
<text text-anchor="middle" x="780.76" y="-873.3" font-family="Times,serif" font-size="9.00">has</text>
<text text-anchor="middle" x="780.76" y="-863.3" font-family="Times,serif" font-size="9.00">(1:N)</text>
</g>
<!-- Reprints -->
<g id="node5" class="node">
<title>Reprints</title>
<polygon fill="#ffecb3" stroke="transparent" points="978.5,-436.5 978.5,-463.5 1293.5,-463.5 1293.5,-436.5 978.5,-436.5"/>
<polygon fill="none" stroke="black" points="978.5,-436.5 978.5,-463.5 1293.5,-463.5 1293.5,-436.5 978.5,-436.5"/>
<text text-anchor="start" x="1064.5" y="-447.9" font-family="Times,serif" font-weight="bold" font-size="12.00">Reprints / Document Group</text>
<polygon fill="none" stroke="black" points="978.5,-407.5 978.5,-436.5 1012.5,-436.5 1012.5,-407.5 978.5,-407.5"/>
<text text-anchor="start" x="985.5" y="-419.3" font-family="Times,serif" font-weight="bold" font-size="14.00">PK</text>
<polygon fill="none" stroke="black" points="1012.5,-407.5 1012.5,-436.5 1293.5,-436.5 1293.5,-407.5 1012.5,-407.5"/>
<text text-anchor="start" x="1019.5" y="-419.3" font-family="Times,serif" font-weight="bold" font-size="14.00">group_reprint_id:</text>
<text text-anchor="start" x="1125.5" y="-419.3" font-family="Times,serif" font-size="14.00"> TheBostonAtlas1847_reprint</text>
<polygon fill="none" stroke="black" points="978.5,-378.5 978.5,-407.5 1012.5,-407.5 1012.5,-378.5 978.5,-378.5"/>
<polygon fill="none" stroke="black" points="1012.5,-378.5 1012.5,-407.5 1293.5,-407.5 1293.5,-378.5 1012.5,-378.5"/>
<text text-anchor="start" x="1019.5" y="-390.3" font-family="Times,serif" font-weight="bold" font-size="14.00">reprint_type:</text>
<text text-anchor="start" x="1097.5" y="-390.3" font-family="Times,serif" font-size="14.00"> direct</text>
<polygon fill="none" stroke="black" points="978.5,-349.5 978.5,-378.5 1012.5,-378.5 1012.5,-349.5 978.5,-349.5"/>
<polygon fill="none" stroke="black" points="1012.5,-349.5 1012.5,-378.5 1293.5,-378.5 1293.5,-349.5 1012.5,-349.5"/>
<text text-anchor="start" x="1019.5" y="-361.3" font-family="Times,serif" font-weight="bold" font-size="14.00">reprint_order:</text>
<text text-anchor="start" x="1104.5" y="-361.3" font-family="Times,serif" font-size="14.00"> </text>
<polygon fill="none" stroke="black" stroke-width="2" points="977,-348.5 977,-464.5 1294,-464.5 1294,-348.5 977,-348.5"/>
</g>
<!-- Article&#45;&gt;Reprints -->
<g id="edge5" class="edge">
<title>Article&#45;&gt;Reprints</title>
<path fill="none" stroke="black" stroke-width="1.5" d="M739.25,-597.83C809.26,-544.74 861,-505.5 861,-505.5 861,-505.5 910.81,-487.47 967.92,-466.8"/>
<polygon fill="black" stroke="black" stroke-width="1.5" points="739.04,-597.98 728.36,-600.44 735.06,-601.01 731.08,-604.03 731.08,-604.03 731.08,-604.03 735.06,-601.01 733.8,-607.61 739.04,-597.98 739.04,-597.98"/>
<text text-anchor="middle" x="826.93" y="-510.11" font-family="Times,serif" font-size="9.00">belongs to</text>
<text text-anchor="middle" x="826.93" y="-500.11" font-family="Times,serif" font-size="9.00">(N:1)</text>
</g>
<!-- Article_Trope -->
<g id="node6" class="node">
<title>Article_Trope</title>
<polygon fill="#ffe0e0" stroke="transparent" points="1015.5,-237.5 1015.5,-264.5 1256.5,-264.5 1256.5,-237.5 1015.5,-237.5"/>
<polygon fill="none" stroke="black" points="1015.5,-237.5 1015.5,-264.5 1256.5,-264.5 1256.5,-237.5 1015.5,-237.5"/>
<text text-anchor="start" x="1103.5" y="-248.9" font-family="Times,serif" font-weight="bold" font-size="12.00">article_trope</text>
<polygon fill="none" stroke="black" points="1015.5,-208.5 1015.5,-237.5 1072.5,-237.5 1072.5,-208.5 1015.5,-208.5"/>
<text text-anchor="start" x="1022.5" y="-220.3" font-family="Times,serif" font-weight="bold" font-size="14.00">PK,FK</text>
<polygon fill="none" stroke="black" points="1072.5,-208.5 1072.5,-237.5 1256.5,-237.5 1256.5,-208.5 1072.5,-208.5"/>
<text text-anchor="start" x="1079.5" y="-220.3" font-family="Times,serif" font-weight="bold" font-size="14.00">article_id:</text>
<text text-anchor="start" x="1139.5" y="-220.3" font-family="Times,serif" font-size="14.00"> TheLivingAge1847</text>
<polygon fill="none" stroke="black" points="1015.5,-179.5 1015.5,-208.5 1072.5,-208.5 1072.5,-179.5 1015.5,-179.5"/>
<text text-anchor="start" x="1022.5" y="-191.3" font-family="Times,serif" font-weight="bold" font-size="14.00">PK,FK</text>
<polygon fill="none" stroke="black" points="1072.5,-179.5 1072.5,-208.5 1256.5,-208.5 1256.5,-179.5 1072.5,-179.5"/>
<text text-anchor="start" x="1079.5" y="-191.3" font-family="Times,serif" font-weight="bold" font-size="14.00">trope_id:</text>
<polygon fill="none" stroke="black" points="1015.5,-150.5 1015.5,-179.5 1256.5,-179.5 1256.5,-150.5 1015.5,-150.5"/>
<text text-anchor="start" x="1103" y="-161.3" font-family="Times,serif" font-size="14.00">Lazy Indian</text>
<polygon fill="none" stroke="black" points="1015.5,-121.5 1015.5,-150.5 1256.5,-150.5 1256.5,-121.5 1015.5,-121.5"/>
<text text-anchor="start" x="1098" y="-132.3" font-family="Times,serif" font-size="14.00">Noble Savage</text>
<polygon fill="none" stroke="black" points="1015.5,-92.5 1015.5,-121.5 1256.5,-121.5 1256.5,-92.5 1015.5,-92.5"/>
<text text-anchor="start" x="1090" y="-103.3" font-family="Times,serif" font-size="14.00">Jump Overboard</text>
<polygon fill="none" stroke="black" points="1015.5,-63.5 1015.5,-92.5 1256.5,-92.5 1256.5,-63.5 1015.5,-63.5"/>
<text text-anchor="start" x="1099" y="-74.3" font-family="Times,serif" font-size="14.00">Indian Queen</text>
<polygon fill="none" stroke="black" points="1015.5,-34.5 1015.5,-63.5 1256.5,-63.5 1256.5,-34.5 1015.5,-34.5"/>
<text text-anchor="start" x="1104" y="-45.3" font-family="Times,serif" font-size="14.00">Girl Crusoe</text>
<polygon fill="none" stroke="black" points="1015.5,-5.5 1015.5,-34.5 1256.5,-34.5 1256.5,-5.5 1015.5,-5.5"/>
<text text-anchor="start" x="1105.5" y="-16.3" font-family="Times,serif" font-size="14.00">Wild Child</text>
<polygon fill="none" stroke="black" stroke-width="2" points="1014,-5 1014,-266 1257,-266 1257,-5 1014,-5"/>
</g>
<!-- Article&#45;&gt;Article_Trope -->
<g id="edge6" class="edge">
<title>Article&#45;&gt;Article_Trope</title>
<path fill="none" stroke="black" stroke-width="1.5" d="M633.65,-570.94C750.3,-435.78 861,-307.5 861,-307.5 861,-307.5 928.38,-265.13 996.25,-222.44"/>
<polygon fill="black" stroke="black" stroke-width="1.5" points="996.49,-222.29 1007.35,-220.78 1000.73,-219.63 1004.96,-216.97 1004.96,-216.97 1004.96,-216.97 1000.73,-219.63 1002.56,-213.16 996.49,-222.29 996.49,-222.29"/>
<text text-anchor="middle" x="789.52" y="-371.54" font-family="Times,serif" font-size="9.00">(1:N)</text>
</g>
<!-- Publication&#45;&gt;Location -->
<g id="edge3" class="edge">
<title>Publication&#45;&gt;Location</title>
<path fill="none" stroke="black" stroke-width="1.5" d="M1285.59,-1464.79C1364.99,-1453.23 1462.05,-1439.09 1539.89,-1427.76"/>
<polygon fill="black" stroke="black" stroke-width="1.5" points="1285.4,-1464.82 1274.85,-1461.81 1280.45,-1465.54 1275.5,-1466.26 1275.5,-1466.26 1275.5,-1466.26 1280.45,-1465.54 1276.15,-1470.71 1285.4,-1464.82 1285.4,-1464.82"/>
<text text-anchor="middle" x="1395.74" y="-1439.07" font-family="Times,serif" font-size="9.00">located at</text>
<text text-anchor="middle" x="1395.74" y="-1429.07" font-family="Times,serif" font-size="9.00">(N:1)</text>
</g>
<!-- Trope -->
<g id="node7" class="node">
<title>Trope</title>
<polygon fill="#ffcdd2" stroke="transparent" points="306.5,-237.5 306.5,-264.5 424.5,-264.5 424.5,-237.5 306.5,-237.5"/>
<polygon fill="none" stroke="black" points="306.5,-237.5 306.5,-264.5 424.5,-264.5 424.5,-237.5 306.5,-237.5"/>
<text text-anchor="start" x="351.5" y="-248.9" font-family="Times,serif" font-weight="bold" font-size="12.00">trope</text>
<polygon fill="none" stroke="black" points="306.5,-208.5 306.5,-237.5 340.5,-237.5 340.5,-208.5 306.5,-208.5"/>
<text text-anchor="start" x="313.5" y="-220.3" font-family="Times,serif" font-weight="bold" font-size="14.00">PK</text>
<polygon fill="none" stroke="black" points="340.5,-208.5 340.5,-237.5 424.5,-237.5 424.5,-208.5 340.5,-208.5"/>
<text text-anchor="start" x="347.5" y="-220.3" font-family="Times,serif" font-weight="bold" font-size="14.00">trope_id:</text>
<polygon fill="none" stroke="black" points="306.5,-179.5 306.5,-208.5 340.5,-208.5 340.5,-179.5 306.5,-179.5"/>
<polygon fill="none" stroke="black" points="340.5,-179.5 340.5,-208.5 424.5,-208.5 424.5,-179.5 340.5,-179.5"/>
<text text-anchor="start" x="347.5" y="-191.3" font-family="Times,serif" font-weight="bold" font-size="14.00">trope_label:</text>
<polygon fill="none" stroke="black" points="306.5,-150.5 306.5,-179.5 424.5,-179.5 424.5,-150.5 306.5,-150.5"/>
<text text-anchor="start" x="332.5" y="-161.3" font-family="Times,serif" font-size="14.00">Lazy Indian</text>
<polygon fill="none" stroke="black" points="306.5,-121.5 306.5,-150.5 424.5,-150.5 424.5,-121.5 306.5,-121.5"/>
<text text-anchor="start" x="327.5" y="-132.3" font-family="Times,serif" font-size="14.00">Noble Savage</text>
<polygon fill="none" stroke="black" points="306.5,-92.5 306.5,-121.5 424.5,-121.5 424.5,-92.5 306.5,-92.5"/>
<text text-anchor="start" x="319.5" y="-103.3" font-family="Times,serif" font-size="14.00">Jump Overboard</text>
<polygon fill="none" stroke="black" points="306.5,-63.5 306.5,-92.5 424.5,-92.5 424.5,-63.5 306.5,-63.5"/>
<text text-anchor="start" x="328.5" y="-74.3" font-family="Times,serif" font-size="14.00">Indian Queen</text>
<polygon fill="none" stroke="black" points="306.5,-34.5 306.5,-63.5 424.5,-63.5 424.5,-34.5 306.5,-34.5"/>
<text text-anchor="start" x="333.5" y="-45.3" font-family="Times,serif" font-size="14.00">Girl Crusoe</text>
<polygon fill="none" stroke="black" points="306.5,-5.5 306.5,-34.5 424.5,-34.5 424.5,-5.5 306.5,-5.5"/>
<text text-anchor="start" x="335" y="-16.3" font-family="Times,serif" font-size="14.00">Wild Child</text>
<polygon fill="none" stroke="black" stroke-width="2" points="305.5,-5 305.5,-266 425.5,-266 425.5,-5 305.5,-5"/>
</g>
<!-- Trope&#45;&gt;Article_Trope -->
<g id="edge7" class="edge">
<title>Trope&#45;&gt;Article_Trope</title>
<path fill="none" stroke="black" stroke-width="1.5" d="M434.65,-135.5C559.88,-135.5 828.88,-135.5 994.5,-135.5"/>
<polygon fill="black" stroke="black" stroke-width="1.5" points="994.76,-135.5 1004.76,-140 999.76,-135.5 1004.76,-135.5 1004.76,-135.5 1004.76,-135.5 999.76,-135.5 1004.76,-131 994.76,-135.5 994.76,-135.5"/>
<text text-anchor="middle" x="704.58" y="-128.3" font-family="Times,serif" font-size="9.00">(1:N)</text>
</g>
</g>
</svg>
