<?xml version="1.0" encoding="UTF-8" standalone="no"?>
<!DOCTYPE svg PUBLIC "-//W3C//DTD SVG 1.1//EN"
 "http://www.w3.org/Graphics/SVG/1.1/DTD/svg11.dtd">
<!-- Generated by graphviz version 2.50.0 (0)
 -->
<!-- Title: ERD_ThePolynesian1847 Pages: 1 -->
<svg width="1739pt" height="1581pt"
 viewBox="0.00 0.00 1739.00 1581.00" xmlns="http://www.w3.org/2000/svg" xmlns:xlink="http://www.w3.org/1999/xlink">
<g id="graph0" class="graph" transform="scale(1 1) rotate(0) translate(4 1577)">
<title>ERD_ThePolynesian1847</title>
<polygon fill="white" stroke="transparent" points="-4,4 -4,-1577 1735,-1577 1735,4 -4,4"/>
<text text-anchor="middle" x="865.5" y="-1557.8" font-family="Arial Bold" font-size="14.00">Entity Relationships for ThePolynesian1847</text>
<text text-anchor="middle" x="865.5" y="-1542.8" font-family="Arial Bold" font-size="14.00">(Reprint Type: direct)</text>
<!-- Article -->
<g id="node1" class="node">
<title>Article</title>
<polygon fill="#b4d7e5" stroke="transparent" points="10,-1156.5 10,-1183.5 628,-1183.5 628,-1156.5 10,-1156.5"/>
<polygon fill="none" stroke="black" points="10,-1156.5 10,-1183.5 628,-1183.5 628,-1156.5 10,-1156.5"/>
<text text-anchor="start" x="301.5" y="-1167.9" font-family="Times,serif" font-weight="bold" font-size="12.00">Article</text>
<polygon fill="none" stroke="black" points="10,-1127.5 10,-1156.5 44,-1156.5 44,-1127.5 10,-1127.5"/>
<text text-anchor="start" x="17" y="-1139.3" font-family="Times,serif" font-weight="bold" font-size="14.00">PK</text>
<polygon fill="none" stroke="black" points="44,-1127.5 44,-1156.5 628,-1156.5 628,-1127.5 44,-1127.5"/>
<text text-anchor="start" x="51" y="-1139.3" font-family="Times,serif" font-weight="bold" font-size="14.00">article_id:</text>
<text text-anchor="start" x="111" y="-1139.3" font-family="Times,serif" font-size="14.00"> ThePolynesian1847</text>
<polygon fill="none" stroke="black" points="10,-1098.5 10,-1127.5 44,-1127.5 44,-1098.5 10,-1098.5"/>
<polygon fill="none" stroke="black" points="44,-1098.5 44,-1127.5 628,-1127.5 628,-1098.5 44,-1098.5"/>
<text text-anchor="start" x="51" y="-1110.3" font-family="Times,serif" font-weight="bold" font-size="14.00">title:</text>
<text text-anchor="start" x="79" y="-1110.3" font-family="Times,serif" font-size="14.00"> &quot;A Female Crusoe&quot;</text>
<polygon fill="none" stroke="black" points="10,-1069.5 10,-1098.5 44,-1098.5 44,-1069.5 10,-1069.5"/>
<polygon fill="none" stroke="black" points="44,-1069.5 44,-1098.5 628,-1098.5 628,-1069.5 44,-1069.5"/>
<text text-anchor="start" x="51" y="-1081.3" font-family="Times,serif" font-weight="bold" font-size="14.00">author:</text>
<text text-anchor="start" x="95" y="-1081.3" font-family="Times,serif" font-size="14.00"> </text>
<polygon fill="none" stroke="black" points="10,-1040.5 10,-1069.5 44,-1069.5 44,-1040.5 10,-1040.5"/>
<polygon fill="none" stroke="black" points="44,-1040.5 44,-1069.5 628,-1069.5 628,-1040.5 44,-1040.5"/>
<text text-anchor="start" x="51" y="-1052.3" font-family="Times,serif" font-weight="bold" font-size="14.00">date:</text>
<text text-anchor="start" x="81" y="-1052.3" font-family="Times,serif" font-size="14.00"> 1847&#45;08&#45;07</text>
<polygon fill="none" stroke="black" points="10,-1011.5 10,-1040.5 44,-1040.5 44,-1011.5 10,-1011.5"/>
<polygon fill="none" stroke="black" points="44,-1011.5 44,-1040.5 628,-1040.5 628,-1011.5 44,-1011.5"/>
<text text-anchor="start" x="51" y="-1023.3" font-family="Times,serif" font-weight="bold" font-size="14.00">monograph_publishers:</text>
<text text-anchor="start" x="190" y="-1023.3" font-family="Times,serif" font-size="14.00"> </text>
<polygon fill="none" stroke="black" points="10,-982.5 10,-1011.5 44,-1011.5 44,-982.5 10,-982.5"/>
<polygon fill="none" stroke="black" points="44,-982.5 44,-1011.5 628,-1011.5 628,-982.5 44,-982.5"/>
<text text-anchor="start" x="51" y="-994.3" font-family="Times,serif" font-weight="bold" font-size="14.00">volume_number:</text>
<text text-anchor="start" x="152" y="-994.3" font-family="Times,serif" font-size="14.00"> 4</text>
<polygon fill="none" stroke="black" points="10,-953.5 10,-982.5 44,-982.5 44,-953.5 10,-953.5"/>
<polygon fill="none" stroke="black" points="44,-953.5 44,-982.5 628,-982.5 628,-953.5 44,-953.5"/>
<text text-anchor="start" x="51" y="-965.3" font-family="Times,serif" font-weight="bold" font-size="14.00">issue_number:</text>
<text text-anchor="start" x="137" y="-965.3" font-family="Times,serif" font-size="14.00"> no. 12</text>
<polygon fill="none" stroke="black" points="10,-924.5 10,-953.5 44,-953.5 44,-924.5 10,-924.5"/>
<polygon fill="none" stroke="black" points="44,-924.5 44,-953.5 628,-953.5 628,-924.5 44,-924.5"/>
<text text-anchor="start" x="51" y="-936.3" font-family="Times,serif" font-weight="bold" font-size="14.00">pages:</text>
<text text-anchor="start" x="88" y="-936.3" font-family="Times,serif" font-size="14.00"> 48</text>
<polygon fill="none" stroke="black" points="10,-895.5 10,-924.5 44,-924.5 44,-895.5 10,-895.5"/>
<polygon fill="none" stroke="black" points="44,-895.5 44,-924.5 628,-924.5 628,-895.5 44,-895.5"/>
<text text-anchor="start" x="51" y="-907.3" font-family="Times,serif" font-weight="bold" font-size="14.00">archival_holding:</text>
<text text-anchor="start" x="154" y="-907.3" font-family="Times,serif" font-size="14.00"> </text>
<polygon fill="none" stroke="black" points="10,-866.5 10,-895.5 44,-895.5 44,-866.5 10,-866.5"/>
<polygon fill="none" stroke="black" points="44,-866.5 44,-895.5 628,-895.5 628,-866.5 44,-866.5"/>
<text text-anchor="start" x="51" y="-878.3" font-family="Times,serif" font-weight="bold" font-size="14.00">archival_location:</text>
<text text-anchor="start" x="156" y="-878.3" font-family="Times,serif" font-size="14.00"> </text>
<polygon fill="none" stroke="black" points="10,-837.5 10,-866.5 44,-866.5 44,-837.5 10,-837.5"/>
<polygon fill="none" stroke="black" points="44,-837.5 44,-866.5 628,-866.5 628,-837.5 44,-837.5"/>
<text text-anchor="start" x="51" y="-849.3" font-family="Times,serif" font-weight="bold" font-size="14.00">cost:</text>
<text text-anchor="start" x="79" y="-849.3" font-family="Times,serif" font-size="14.00"> </text>
<polygon fill="none" stroke="black" points="10,-808.5 10,-837.5 44,-837.5 44,-808.5 10,-808.5"/>
<polygon fill="none" stroke="black" points="44,-808.5 44,-837.5 628,-837.5 628,-808.5 44,-808.5"/>
<text text-anchor="start" x="51" y="-820.3" font-family="Times,serif" font-weight="bold" font-size="14.00">permission:</text>
<text text-anchor="start" x="120" y="-820.3" font-family="Times,serif" font-size="14.00"> Public domain</text>
<polygon fill="none" stroke="black" points="10,-779.5 10,-808.5 44,-808.5 44,-779.5 10,-779.5"/>
<polygon fill="none" stroke="black" points="44,-779.5 44,-808.5 628,-808.5 628,-779.5 44,-779.5"/>
<text text-anchor="start" x="51" y="-791.3" font-family="Times,serif" font-weight="bold" font-size="14.00">permission_acknowledgement:</text>
<text text-anchor="start" x="231" y="-791.3" font-family="Times,serif" font-size="14.00"> </text>
<polygon fill="none" stroke="black" points="10,-750.5 10,-779.5 44,-779.5 44,-750.5 10,-750.5"/>
<polygon fill="none" stroke="black" points="44,-750.5 44,-779.5 628,-779.5 628,-750.5 44,-750.5"/>
<text text-anchor="start" x="51" y="-762.3" font-family="Times,serif" font-weight="bold" font-size="14.00">permission_statements:</text>
<text text-anchor="start" x="189" y="-762.3" font-family="Times,serif" font-size="14.00"> </text>
<polygon fill="none" stroke="black" points="10,-721.5 10,-750.5 44,-750.5 44,-721.5 10,-721.5"/>
<polygon fill="none" stroke="black" points="44,-721.5 44,-750.5 628,-750.5 628,-721.5 44,-721.5"/>
<text text-anchor="start" x="51" y="-733.3" font-family="Times,serif" font-weight="bold" font-size="14.00">acquisitions:</text>
<text text-anchor="start" x="124" y="-733.3" font-family="Times,serif" font-size="14.00"> </text>
<polygon fill="none" stroke="black" points="10,-692.5 10,-721.5 44,-721.5 44,-692.5 10,-692.5"/>
<polygon fill="none" stroke="black" points="44,-692.5 44,-721.5 628,-721.5 628,-692.5 44,-692.5"/>
<text text-anchor="start" x="51" y="-704.3" font-family="Times,serif" font-weight="bold" font-size="14.00">document_intro:</text>
<text text-anchor="start" x="149" y="-704.3" font-family="Times,serif" font-size="14.00"> </text>
<polygon fill="none" stroke="black" points="10,-663.5 10,-692.5 44,-692.5 44,-663.5 10,-663.5"/>
<polygon fill="none" stroke="black" points="44,-663.5 44,-692.5 628,-692.5 628,-663.5 44,-663.5"/>
<text text-anchor="start" x="51" y="-675.3" font-family="Times,serif" font-weight="bold" font-size="14.00">transcripts:</text>
<text text-anchor="start" x="119" y="-675.3" font-family="Times,serif" font-size="14.00"> &lt;hi rend=&quot;bold&quot;&gt;MISCELLANEOUS&lt;/hi&gt; A Female Crusoe. Off the coast of Alta Cali...</text>
<polygon fill="none" stroke="black" points="10,-634.5 10,-663.5 44,-663.5 44,-634.5 10,-634.5"/>
<text text-anchor="start" x="17" y="-646.3" font-family="Times,serif" font-weight="bold" font-size="14.00">FK</text>
<polygon fill="none" stroke="black" points="44,-634.5 44,-663.5 628,-663.5 628,-634.5 44,-634.5"/>
<text text-anchor="start" x="51" y="-646.3" font-family="Times,serif" font-weight="bold" font-size="14.00">group_reprint_id:</text>
<text text-anchor="start" x="157" y="-646.3" font-family="Times,serif" font-size="14.00"> TheBostonAtlas1847_reprint</text>
<polygon fill="none" stroke="black" points="10,-605.5 10,-634.5 44,-634.5 44,-605.5 10,-605.5"/>
<text text-anchor="start" x="17" y="-617.3" font-family="Times,serif" font-weight="bold" font-size="14.00">FK</text>
<polygon fill="none" stroke="black" points="44,-605.5 44,-634.5 628,-634.5 628,-605.5 44,-605.5"/>
<text text-anchor="start" x="51" y="-617.3" font-family="Times,serif" font-weight="bold" font-size="14.00">publisher_location:</text>
<text text-anchor="start" x="163" y="-617.3" font-family="Times,serif" font-size="14.00"> Honolulu, Hawaii</text>
<polygon fill="none" stroke="black" points="10,-576.5 10,-605.5 44,-605.5 44,-576.5 10,-576.5"/>
<text text-anchor="start" x="17" y="-588.3" font-family="Times,serif" font-weight="bold" font-size="14.00">FK</text>
<polygon fill="none" stroke="black" points="44,-576.5 44,-605.5 628,-605.5 628,-576.5 44,-576.5"/>
<text text-anchor="start" x="51" y="-588.3" font-family="Times,serif" font-weight="bold" font-size="14.00">publication:</text>
<text text-anchor="start" x="121" y="-588.3" font-family="Times,serif" font-size="14.00"> Honolulu Polynesian</text>
<polygon fill="none" stroke="black" stroke-width="2" points="9,-576 9,-1185 629,-1185 629,-576 9,-576"/>
</g>
<!-- Publication -->
<g id="node2" class="node">
<title>Publication</title>
<polygon fill="#f4d9b0" stroke="transparent" points="912.5,-1501.5 912.5,-1528.5 1174.5,-1528.5 1174.5,-1501.5 912.5,-1501.5"/>
<polygon fill="none" stroke="black" points="912.5,-1501.5 912.5,-1528.5 1174.5,-1528.5 1174.5,-1501.5 912.5,-1501.5"/>
<text text-anchor="start" x="1014.5" y="-1512.9" font-family="Times,serif" font-weight="bold" font-size="12.00">Publication</text>
<polygon fill="none" stroke="black" points="912.5,-1472.5 912.5,-1501.5 946.5,-1501.5 946.5,-1472.5 912.5,-1472.5"/>
<text text-anchor="start" x="919.5" y="-1484.3" font-family="Times,serif" font-weight="bold" font-size="14.00">PK</text>
<polygon fill="none" stroke="black" points="946.5,-1472.5 946.5,-1501.5 1174.5,-1501.5 1174.5,-1472.5 946.5,-1472.5"/>
<text text-anchor="start" x="953.5" y="-1484.3" font-family="Times,serif" font-weight="bold" font-size="14.00">publication:</text>
<text text-anchor="start" x="1023.5" y="-1484.3" font-family="Times,serif" font-size="14.00"> Honolulu Polynesian</text>
<polygon fill="none" stroke="black" points="912.5,-1443.5 912.5,-1472.5 946.5,-1472.5 946.5,-1443.5 912.5,-1443.5"/>
<text text-anchor="start" x="919.5" y="-1455.3" font-family="Times,serif" font-weight="bold" font-size="14.00">FK</text>
<polygon fill="none" stroke="black" points="946.5,-1443.5 946.5,-1472.5 1174.5,-1472.5 1174.5,-1443.5 946.5,-1443.5"/>
<text text-anchor="start" x="953.5" y="-1455.3" font-family="Times,serif" font-weight="bold" font-size="14.00">publisher_location:</text>
<text text-anchor="start" x="1065.5" y="-1455.3" font-family="Times,serif" font-size="14.00"> Honolulu, Hawaii</text>
<polygon fill="none" stroke="black" stroke-width="2" points="911.5,-1443 911.5,-1530 1175.5,-1530 1175.5,-1443 911.5,-1443"/>
</g>
<!-- Article&#45;&gt;Publication -->
<g id="edge1" class="edge">
<title>Article&#45;&gt;Publication</title>
<path fill="none" stroke="black" stroke-width="1.5" d="M602.49,-1197.67C691.94,-1298.1 768,-1383.5 768,-1383.5 768,-1383.5 841.81,-1411.2 912.89,-1437.87"/>
<polygon fill="black" stroke="black" stroke-width="1.5" points="602.4,-1197.57 599.11,-1187.11 599.08,-1193.84 595.75,-1190.11 595.75,-1190.11 595.75,-1190.11 599.08,-1193.84 592.39,-1193.1 602.4,-1197.57 602.4,-1197.57"/>
<text text-anchor="middle" x="714.71" y="-1341.17" font-family="Times,serif" font-size="9.00">published in</text>
<text text-anchor="middle" x="714.71" y="-1331.17" font-family="Times,serif" font-size="9.00">(N:1)</text>
</g>
<!-- Location -->
<g id="node3" class="node">
<title>Location</title>
<polygon fill="#c8e6c9" stroke="transparent" points="1459,-1408.5 1459,-1435.5 1721,-1435.5 1721,-1408.5 1459,-1408.5"/>
<polygon fill="none" stroke="black" points="1459,-1408.5 1459,-1435.5 1721,-1435.5 1721,-1408.5 1459,-1408.5"/>
<text text-anchor="start" x="1567" y="-1419.9" font-family="Times,serif" font-weight="bold" font-size="12.00">Location</text>
<polygon fill="none" stroke="black" points="1459,-1379.5 1459,-1408.5 1493,-1408.5 1493,-1379.5 1459,-1379.5"/>
<text text-anchor="start" x="1466" y="-1391.3" font-family="Times,serif" font-weight="bold" font-size="14.00">PK</text>
<polygon fill="none" stroke="black" points="1493,-1379.5 1493,-1408.5 1721,-1408.5 1721,-1379.5 1493,-1379.5"/>
<text text-anchor="start" x="1500" y="-1391.3" font-family="Times,serif" font-weight="bold" font-size="14.00">publisher_location:</text>
<text text-anchor="start" x="1612" y="-1391.3" font-family="Times,serif" font-size="14.00"> Honolulu, Hawaii</text>
<polygon fill="none" stroke="black" stroke-width="2" points="1458,-1378.5 1458,-1436.5 1722,-1436.5 1722,-1378.5 1458,-1378.5"/>
</g>
<!-- Article&#45;&gt;Location -->
<g id="edge2" class="edge">
<title>Article&#45;&gt;Location</title>
<path fill="none" stroke="black" stroke-width="1.5" d="M646.19,-1152.81C715.37,-1210.56 768,-1254.5 768,-1254.5 768,-1254.5 1214.31,-1337.67 1448.8,-1381.37"/>
<polygon fill="black" stroke="black" stroke-width="1.5" points="645.8,-1152.48 641,-1142.62 641.96,-1149.28 638.12,-1146.07 638.12,-1146.07 638.12,-1146.07 641.96,-1149.28 635.24,-1149.53 645.8,-1152.48 645.8,-1152.48"/>
<text text-anchor="middle" x="1008.9" y="-1296.2" font-family="Times,serif" font-size="9.00">published at</text>
<text text-anchor="middle" x="1008.9" y="-1286.2" font-family="Times,serif" font-size="9.00">(N:1)</text>
</g>
<!-- Images -->
<g id="node4" class="node">
<title>Images</title>
<polygon fill="#e1bee7" stroke="transparent" points="778.5,-1185.5 778.5,-1212.5 1309.5,-1212.5 1309.5,-1185.5 778.5,-1185.5"/>
<polygon fill="none" stroke="black" points="778.5,-1185.5 778.5,-1212.5 1309.5,-1212.5 1309.5,-1185.5 778.5,-1185.5"/>
<text text-anchor="start" x="1001.5" y="-1196.9" font-family="Times,serif" font-weight="bold" font-size="12.00">Images (10 total)</text>
<polygon fill="none" stroke="black" points="778.5,-1156.5 778.5,-1185.5 812.5,-1185.5 812.5,-1156.5 778.5,-1156.5"/>
<text text-anchor="start" x="785.5" y="-1168.3" font-family="Times,serif" font-weight="bold" font-size="14.00">PK</text>
<polygon fill="none" stroke="black" points="812.5,-1156.5 812.5,-1185.5 1309.5,-1185.5 1309.5,-1156.5 812.5,-1156.5"/>
<text text-anchor="start" x="819.5" y="-1168.3" font-family="Times,serif" font-weight="bold" font-size="14.00">object_id:</text>
<text text-anchor="start" x="877.5" y="-1168.3" font-family="Times,serif" font-size="14.00"> ThePolynesian1847_Original</text>
<polygon fill="none" stroke="black" points="778.5,-1127.5 778.5,-1156.5 812.5,-1156.5 812.5,-1127.5 778.5,-1127.5"/>
<polygon fill="none" stroke="black" points="812.5,-1127.5 812.5,-1156.5 1309.5,-1156.5 1309.5,-1127.5 812.5,-1127.5"/>
<text text-anchor="start" x="819.5" y="-1139.3" font-family="Times,serif" font-weight="bold" font-size="14.00">image_file:</text>
<text text-anchor="start" x="884.5" y="-1139.3" font-family="Times,serif" font-size="14.00"> ThePolynesian1847_DigSur_1.png</text>
<polygon fill="none" stroke="black" points="778.5,-1098.5 778.5,-1127.5 812.5,-1127.5 812.5,-1098.5 778.5,-1098.5"/>
<polygon fill="none" stroke="black" points="812.5,-1098.5 812.5,-1127.5 1309.5,-1127.5 1309.5,-1098.5 812.5,-1098.5"/>
<text text-anchor="start" x="819.5" y="-1110.3" font-family="Times,serif" font-weight="bold" font-size="14.00">image_parent_id:</text>
<text text-anchor="start" x="922.5" y="-1110.3" font-family="Times,serif" font-size="14.00"> </text>
<polygon fill="none" stroke="black" points="778.5,-1069.5 778.5,-1098.5 812.5,-1098.5 812.5,-1069.5 778.5,-1069.5"/>
<polygon fill="none" stroke="black" points="812.5,-1069.5 812.5,-1098.5 1309.5,-1098.5 1309.5,-1069.5 812.5,-1069.5"/>
<text text-anchor="start" x="819.5" y="-1081.3" font-family="Times,serif" font-weight="bold" font-size="14.00">image_object_location:</text>
<text text-anchor="start" x="954.5" y="-1081.3" font-family="Times,serif" font-size="14.00"> objects/ThePolynesian1847/ThePolynesian1847_DigSur_1.png</text>
<polygon fill="none" stroke="black" points="778.5,-1040.5 778.5,-1069.5 812.5,-1069.5 812.5,-1040.5 778.5,-1040.5"/>
<polygon fill="none" stroke="black" points="812.5,-1040.5 812.5,-1069.5 1309.5,-1069.5 1309.5,-1040.5 812.5,-1040.5"/>
<text text-anchor="start" x="819.5" y="-1052.3" font-family="Times,serif" font-weight="bold" font-size="14.00">image_display_template:</text>
<text text-anchor="start" x="965.5" y="-1052.3" font-family="Times,serif" font-size="14.00"> compound_object</text>
<polygon fill="none" stroke="black" points="778.5,-1011.5 778.5,-1040.5 812.5,-1040.5 812.5,-1011.5 778.5,-1011.5"/>
<polygon fill="none" stroke="black" points="812.5,-1011.5 812.5,-1040.5 1309.5,-1040.5 1309.5,-1011.5 812.5,-1011.5"/>
<text text-anchor="start" x="819.5" y="-1023.3" font-family="Times,serif" font-weight="bold" font-size="14.00">image_description:</text>
<text text-anchor="start" x="931.5" y="-1023.3" font-family="Times,serif" font-size="14.00"> </text>
<polygon fill="#f0f0f0" stroke="transparent" points="778.5,-982.5 778.5,-1011.5 1309.5,-1011.5 1309.5,-982.5 778.5,-982.5"/>
<polygon fill="none" stroke="black" points="778.5,-982.5 778.5,-1011.5 1309.5,-1011.5 1309.5,-982.5 778.5,-982.5"/>
<text text-anchor="start" x="1037" y="-993.3" font-family="Times,serif" font-size="14.00">&#45;&#45;&#45;</text>
<polygon fill="none" stroke="black" points="778.5,-953.5 778.5,-982.5 812.5,-982.5 812.5,-953.5 778.5,-953.5"/>
<text text-anchor="start" x="785.5" y="-965.3" font-family="Times,serif" font-weight="bold" font-size="14.00">PK</text>
<polygon fill="none" stroke="black" points="812.5,-953.5 812.5,-982.5 1309.5,-982.5 1309.5,-953.5 812.5,-953.5"/>
<text text-anchor="start" x="819.5" y="-965.3" font-family="Times,serif" font-weight="bold" font-size="14.00">object_id:</text>
<text text-anchor="start" x="877.5" y="-965.3" font-family="Times,serif" font-size="14.00"> ThePolynesian1847_img1</text>
<polygon fill="none" stroke="black" points="778.5,-924.5 778.5,-953.5 812.5,-953.5 812.5,-924.5 778.5,-924.5"/>
<polygon fill="none" stroke="black" points="812.5,-924.5 812.5,-953.5 1309.5,-953.5 1309.5,-924.5 812.5,-924.5"/>
<text text-anchor="start" x="819.5" y="-936.3" font-family="Times,serif" font-weight="bold" font-size="14.00">image_file:</text>
<text text-anchor="start" x="884.5" y="-936.3" font-family="Times,serif" font-size="14.00"> ThePolynesian1847_DigSur_1.png</text>
<polygon fill="none" stroke="black" points="778.5,-895.5 778.5,-924.5 812.5,-924.5 812.5,-895.5 778.5,-895.5"/>
<polygon fill="none" stroke="black" points="812.5,-895.5 812.5,-924.5 1309.5,-924.5 1309.5,-895.5 812.5,-895.5"/>
<text text-anchor="start" x="819.5" y="-907.3" font-family="Times,serif" font-weight="bold" font-size="14.00">image_parent_id:</text>
<text text-anchor="start" x="922.5" y="-907.3" font-family="Times,serif" font-size="14.00"> ThePolynesian1847_Original</text>
<polygon fill="none" stroke="black" points="778.5,-866.5 778.5,-895.5 812.5,-895.5 812.5,-866.5 778.5,-866.5"/>
<polygon fill="none" stroke="black" points="812.5,-866.5 812.5,-895.5 1309.5,-895.5 1309.5,-866.5 812.5,-866.5"/>
<text text-anchor="start" x="819.5" y="-878.3" font-family="Times,serif" font-weight="bold" font-size="14.00">image_object_location:</text>
<text text-anchor="start" x="954.5" y="-878.3" font-family="Times,serif" font-size="14.00"> objects/ThePolynesian1847/ThePolynesian1847_DigSur_1.png</text>
<polygon fill="none" stroke="black" points="778.5,-837.5 778.5,-866.5 812.5,-866.5 812.5,-837.5 778.5,-837.5"/>
<polygon fill="none" stroke="black" points="812.5,-837.5 812.5,-866.5 1309.5,-866.5 1309.5,-837.5 812.5,-837.5"/>
<text text-anchor="start" x="819.5" y="-849.3" font-family="Times,serif" font-weight="bold" font-size="14.00">image_display_template:</text>
<text text-anchor="start" x="965.5" y="-849.3" font-family="Times,serif" font-size="14.00"> image</text>
<polygon fill="none" stroke="black" points="778.5,-808.5 778.5,-837.5 812.5,-837.5 812.5,-808.5 778.5,-808.5"/>
<polygon fill="none" stroke="black" points="812.5,-808.5 812.5,-837.5 1309.5,-837.5 1309.5,-808.5 812.5,-808.5"/>
<text text-anchor="start" x="819.5" y="-820.3" font-family="Times,serif" font-weight="bold" font-size="14.00">image_description:</text>
<text text-anchor="start" x="931.5" y="-820.3" font-family="Times,serif" font-size="14.00"> </text>
<polygon fill="#f0f0f0" stroke="transparent" points="778.5,-779.5 778.5,-808.5 1309.5,-808.5 1309.5,-779.5 778.5,-779.5"/>
<polygon fill="none" stroke="black" points="778.5,-779.5 778.5,-808.5 1309.5,-808.5 1309.5,-779.5 778.5,-779.5"/>
<text text-anchor="start" x="1037" y="-790.3" font-family="Times,serif" font-size="14.00">&#45;&#45;&#45;</text>
<polygon fill="none" stroke="black" points="778.5,-750.5 778.5,-779.5 812.5,-779.5 812.5,-750.5 778.5,-750.5"/>
<text text-anchor="start" x="785.5" y="-762.3" font-family="Times,serif" font-weight="bold" font-size="14.00">PK</text>
<polygon fill="none" stroke="black" points="812.5,-750.5 812.5,-779.5 1309.5,-779.5 1309.5,-750.5 812.5,-750.5"/>
<text text-anchor="start" x="819.5" y="-762.3" font-family="Times,serif" font-weight="bold" font-size="14.00">object_id:</text>
<text text-anchor="start" x="877.5" y="-762.3" font-family="Times,serif" font-size="14.00"> ThePolynesian1847_img2</text>
<polygon fill="none" stroke="black" points="778.5,-721.5 778.5,-750.5 812.5,-750.5 812.5,-721.5 778.5,-721.5"/>
<polygon fill="none" stroke="black" points="812.5,-721.5 812.5,-750.5 1309.5,-750.5 1309.5,-721.5 812.5,-721.5"/>
<text text-anchor="start" x="819.5" y="-733.3" font-family="Times,serif" font-weight="bold" font-size="14.00">image_file:</text>
<text text-anchor="start" x="884.5" y="-733.3" font-family="Times,serif" font-size="14.00"> ThePolynesian1847_DigSur_2.png</text>
<polygon fill="none" stroke="black" points="778.5,-692.5 778.5,-721.5 812.5,-721.5 812.5,-692.5 778.5,-692.5"/>
<polygon fill="none" stroke="black" points="812.5,-692.5 812.5,-721.5 1309.5,-721.5 1309.5,-692.5 812.5,-692.5"/>
<text text-anchor="start" x="819.5" y="-704.3" font-family="Times,serif" font-weight="bold" font-size="14.00">image_parent_id:</text>
<text text-anchor="start" x="922.5" y="-704.3" font-family="Times,serif" font-size="14.00"> ThePolynesian1847_Original</text>
<polygon fill="none" stroke="black" points="778.5,-663.5 778.5,-692.5 812.5,-692.5 812.5,-663.5 778.5,-663.5"/>
<polygon fill="none" stroke="black" points="812.5,-663.5 812.5,-692.5 1309.5,-692.5 1309.5,-663.5 812.5,-663.5"/>
<text text-anchor="start" x="819.5" y="-675.3" font-family="Times,serif" font-weight="bold" font-size="14.00">image_object_location:</text>
<text text-anchor="start" x="954.5" y="-675.3" font-family="Times,serif" font-size="14.00"> objects/ThePolynesian1847/ThePolynesian1847_DigSur_2.png</text>
<polygon fill="none" stroke="black" points="778.5,-634.5 778.5,-663.5 812.5,-663.5 812.5,-634.5 778.5,-634.5"/>
<polygon fill="none" stroke="black" points="812.5,-634.5 812.5,-663.5 1309.5,-663.5 1309.5,-634.5 812.5,-634.5"/>
<text text-anchor="start" x="819.5" y="-646.3" font-family="Times,serif" font-weight="bold" font-size="14.00">image_display_template:</text>
<text text-anchor="start" x="965.5" y="-646.3" font-family="Times,serif" font-size="14.00"> image</text>
<polygon fill="none" stroke="black" points="778.5,-605.5 778.5,-634.5 812.5,-634.5 812.5,-605.5 778.5,-605.5"/>
<polygon fill="none" stroke="black" points="812.5,-605.5 812.5,-634.5 1309.5,-634.5 1309.5,-605.5 812.5,-605.5"/>
<text text-anchor="start" x="819.5" y="-617.3" font-family="Times,serif" font-weight="bold" font-size="14.00">image_description:</text>
<text text-anchor="start" x="931.5" y="-617.3" font-family="Times,serif" font-size="14.00"> </text>
<polygon fill="none" stroke="black" points="778.5,-576.5 778.5,-605.5 1309.5,-605.5 1309.5,-576.5 778.5,-576.5"/>
<text text-anchor="start" x="984" y="-588.3" font-family="Times,serif" font-style="italic" font-size="14.00">... and 7 more images</text>
<polygon fill="none" stroke="black" points="778.5,-547.5 778.5,-576.5 812.5,-576.5 812.5,-547.5 778.5,-547.5"/>
<text text-anchor="start" x="785.5" y="-559.3" font-family="Times,serif" font-weight="bold" font-size="14.00">FK</text>
<polygon fill="none" stroke="black" points="812.5,-547.5 812.5,-576.5 1309.5,-576.5 1309.5,-547.5 812.5,-547.5"/>
<text text-anchor="start" x="819.5" y="-559.3" font-family="Times,serif" font-weight="bold" font-size="14.00">article_id:</text>
<text text-anchor="start" x="879.5" y="-559.3" font-family="Times,serif" font-size="14.00"> ThePolynesian1847</text>
<polygon fill="none" stroke="black" stroke-width="2" points="777,-547 777,-1214 1310,-1214 1310,-547 777,-547"/>
</g>
<!-- Article&#45;&gt;Images -->
<g id="edge4" class="edge">
<title>Article&#45;&gt;Images</title>
<path fill="none" stroke="black" stroke-width="1.5" d="M638.21,-880.5C677.9,-880.5 718.3,-880.5 757.44,-880.5"/>
<polygon fill="black" stroke="black" stroke-width="1.5" points="757.9,-880.5 767.9,-885 762.9,-880.5 767.9,-880.5 767.9,-880.5 767.9,-880.5 762.9,-880.5 767.9,-876 757.9,-880.5 757.9,-880.5"/>
<text text-anchor="middle" x="687.83" y="-873.3" font-family="Times,serif" font-size="9.00">has</text>
<text text-anchor="middle" x="687.83" y="-863.3" font-family="Times,serif" font-size="9.00">(1:N)</text>
</g>
<!-- Reprints -->
<g id="node5" class="node">
<title>Reprints</title>
<polygon fill="#ffecb3" stroke="transparent" points="886.5,-436.5 886.5,-463.5 1201.5,-463.5 1201.5,-436.5 886.5,-436.5"/>
<polygon fill="none" stroke="black" points="886.5,-436.5 886.5,-463.5 1201.5,-463.5 1201.5,-436.5 886.5,-436.5"/>
<text text-anchor="start" x="972.5" y="-447.9" font-family="Times,serif" font-weight="bold" font-size="12.00">Reprints / Document Group</text>
<polygon fill="none" stroke="black" points="886.5,-407.5 886.5,-436.5 920.5,-436.5 920.5,-407.5 886.5,-407.5"/>
<text text-anchor="start" x="893.5" y="-419.3" font-family="Times,serif" font-weight="bold" font-size="14.00">PK</text>
<polygon fill="none" stroke="black" points="920.5,-407.5 920.5,-436.5 1201.5,-436.5 1201.5,-407.5 920.5,-407.5"/>
<text text-anchor="start" x="927.5" y="-419.3" font-family="Times,serif" font-weight="bold" font-size="14.00">group_reprint_id:</text>
<text text-anchor="start" x="1033.5" y="-419.3" font-family="Times,serif" font-size="14.00"> TheBostonAtlas1847_reprint</text>
<polygon fill="none" stroke="black" points="886.5,-378.5 886.5,-407.5 920.5,-407.5 920.5,-378.5 886.5,-378.5"/>
<polygon fill="none" stroke="black" points="920.5,-378.5 920.5,-407.5 1201.5,-407.5 1201.5,-378.5 920.5,-378.5"/>
<text text-anchor="start" x="927.5" y="-390.3" font-family="Times,serif" font-weight="bold" font-size="14.00">reprint_type:</text>
<text text-anchor="start" x="1005.5" y="-390.3" font-family="Times,serif" font-size="14.00"> direct</text>
<polygon fill="none" stroke="black" points="886.5,-349.5 886.5,-378.5 920.5,-378.5 920.5,-349.5 886.5,-349.5"/>
<polygon fill="none" stroke="black" points="920.5,-349.5 920.5,-378.5 1201.5,-378.5 1201.5,-349.5 920.5,-349.5"/>
<text text-anchor="start" x="927.5" y="-361.3" font-family="Times,serif" font-weight="bold" font-size="14.00">reprint_order:</text>
<text text-anchor="start" x="1012.5" y="-361.3" font-family="Times,serif" font-size="14.00"> </text>
<polygon fill="none" stroke="black" stroke-width="2" points="885,-348.5 885,-464.5 1202,-464.5 1202,-348.5 885,-348.5"/>
</g>
<!-- Article&#45;&gt;Reprints -->
<g id="edge5" class="edge">
<title>Article&#45;&gt;Reprints</title>
<path fill="none" stroke="black" stroke-width="1.5" d="M646.19,-607.46C715.37,-549.55 768,-505.5 768,-505.5 768,-505.5 818.22,-487.39 875.7,-466.66"/>
<polygon fill="black" stroke="black" stroke-width="1.5" points="645.79,-607.8 635.23,-610.77 641.95,-611.01 638.12,-614.22 638.12,-614.22 638.12,-614.22 641.95,-611.01 641.01,-617.67 645.79,-607.8 645.79,-607.8"/>
<text text-anchor="middle" x="732.49" y="-512.54" font-family="Times,serif" font-size="9.00">belongs to</text>
<text text-anchor="middle" x="732.49" y="-502.54" font-family="Times,serif" font-size="9.00">(N:1)</text>
</g>
<!-- Article_Trope -->
<g id="node6" class="node">
<title>Article_Trope</title>
<polygon fill="#ffe0e0" stroke="transparent" points="922.5,-237.5 922.5,-264.5 1164.5,-264.5 1164.5,-237.5 922.5,-237.5"/>
<polygon fill="none" stroke="black" points="922.5,-237.5 922.5,-264.5 1164.5,-264.5 1164.5,-237.5 922.5,-237.5"/>
<text text-anchor="start" x="1011" y="-248.9" font-family="Times,serif" font-weight="bold" font-size="12.00">article_trope</text>
<polygon fill="none" stroke="black" points="922.5,-208.5 922.5,-237.5 979.5,-237.5 979.5,-208.5 922.5,-208.5"/>
<text text-anchor="start" x="929.5" y="-220.3" font-family="Times,serif" font-weight="bold" font-size="14.00">PK,FK</text>
<polygon fill="none" stroke="black" points="979.5,-208.5 979.5,-237.5 1164.5,-237.5 1164.5,-208.5 979.5,-208.5"/>
<text text-anchor="start" x="986.5" y="-220.3" font-family="Times,serif" font-weight="bold" font-size="14.00">article_id:</text>
<text text-anchor="start" x="1046.5" y="-220.3" font-family="Times,serif" font-size="14.00"> ThePolynesian1847</text>
<polygon fill="none" stroke="black" points="922.5,-179.5 922.5,-208.5 979.5,-208.5 979.5,-179.5 922.5,-179.5"/>
<text text-anchor="start" x="929.5" y="-191.3" font-family="Times,serif" font-weight="bold" font-size="14.00">PK,FK</text>
<polygon fill="none" stroke="black" points="979.5,-179.5 979.5,-208.5 1164.5,-208.5 1164.5,-179.5 979.5,-179.5"/>
<text text-anchor="start" x="986.5" y="-191.3" font-family="Times,serif" font-weight="bold" font-size="14.00">trope_id:</text>
<polygon fill="none" stroke="black" points="922.5,-150.5 922.5,-179.5 1164.5,-179.5 1164.5,-150.5 922.5,-150.5"/>
<text text-anchor="start" x="1005.5" y="-161.3" font-family="Times,serif" font-size="14.00">Noble Savage</text>
<polygon fill="none" stroke="black" points="922.5,-121.5 922.5,-150.5 1164.5,-150.5 1164.5,-121.5 922.5,-121.5"/>
<text text-anchor="start" x="1010.5" y="-132.3" font-family="Times,serif" font-size="14.00">Lazy Indian</text>
<polygon fill="none" stroke="black" points="922.5,-92.5 922.5,-121.5 1164.5,-121.5 1164.5,-92.5 922.5,-92.5"/>
<text text-anchor="start" x="997.5" y="-103.3" font-family="Times,serif" font-size="14.00">Jump Overboard</text>
<polygon fill="none" stroke="black" points="922.5,-63.5 922.5,-92.5 1164.5,-92.5 1164.5,-63.5 922.5,-63.5"/>
<text text-anchor="start" x="1006.5" y="-74.3" font-family="Times,serif" font-size="14.00">Indian Queen</text>
<polygon fill="none" stroke="black" points="922.5,-34.5 922.5,-63.5 1164.5,-63.5 1164.5,-34.5 922.5,-34.5"/>
<text text-anchor="start" x="1011.5" y="-45.3" font-family="Times,serif" font-size="14.00">Girl Crusoe</text>
<polygon fill="none" stroke="black" points="922.5,-5.5 922.5,-34.5 1164.5,-34.5 1164.5,-5.5 922.5,-5.5"/>
<text text-anchor="start" x="1013" y="-16.3" font-family="Times,serif" font-size="14.00">Wild Child</text>
<polygon fill="none" stroke="black" stroke-width="2" points="921.5,-5 921.5,-266 1165.5,-266 1165.5,-5 921.5,-5"/>
</g>
<!-- Article&#45;&gt;Article_Trope -->
<g id="edge6" class="edge">
<title>Article&#45;&gt;Article_Trope</title>
<path fill="none" stroke="black" stroke-width="1.5" d="M562.03,-570.94C667.71,-435.78 768,-307.5 768,-307.5 768,-307.5 835.63,-265.13 903.75,-222.44"/>
<polygon fill="black" stroke="black" stroke-width="1.5" points="904.01,-222.28 914.87,-220.78 908.25,-219.62 912.48,-216.97 912.48,-216.97 912.48,-216.97 908.25,-219.62 910.1,-213.15 904.01,-222.28 904.01,-222.28"/>
<text text-anchor="middle" x="704.35" y="-368.92" font-family="Times,serif" font-size="9.00">(1:N)</text>
</g>
<!-- Publication&#45;&gt;Location -->
<g id="edge3" class="edge">
<title>Publication&#45;&gt;Location</title>
<path fill="none" stroke="black" stroke-width="1.5" d="M1194.81,-1464.69C1274.18,-1453.18 1370.97,-1439.13 1448.78,-1427.84"/>
<polygon fill="black" stroke="black" stroke-width="1.5" points="1194.62,-1464.72 1184.08,-1461.7 1189.67,-1465.44 1184.72,-1466.16 1184.72,-1466.16 1184.72,-1466.16 1189.67,-1465.44 1185.37,-1470.61 1194.62,-1464.72 1194.62,-1464.72"/>
<text text-anchor="middle" x="1304.79" y="-1439.07" font-family="Times,serif" font-size="9.00">located at</text>
<text text-anchor="middle" x="1304.79" y="-1429.07" font-family="Times,serif" font-size="9.00">(N:1)</text>
</g>
<!-- Trope -->
<g id="node7" class="node">
<title>Trope</title>
<polygon fill="#ffcdd2" stroke="transparent" points="260,-237.5 260,-264.5 378,-264.5 378,-237.5 260,-237.5"/>
<polygon fill="none" stroke="black" points="260,-237.5 260,-264.5 378,-264.5 378,-237.5 260,-237.5"/>
<text text-anchor="start" x="305" y="-248.9" font-family="Times,serif" font-weight="bold" font-size="12.00">trope</text>
<polygon fill="none" stroke="black" points="260,-208.5 260,-237.5 294,-237.5 294,-208.5 260,-208.5"/>
<text text-anchor="start" x="267" y="-220.3" font-family="Times,serif" font-weight="bold" font-size="14.00">PK</text>
<polygon fill="none" stroke="black" points="294,-208.5 294,-237.5 378,-237.5 378,-208.5 294,-208.5"/>
<text text-anchor="start" x="301" y="-220.3" font-family="Times,serif" font-weight="bold" font-size="14.00">trope_id:</text>
<polygon fill="none" stroke="black" points="260,-179.5 260,-208.5 294,-208.5 294,-179.5 260,-179.5"/>
<polygon fill="none" stroke="black" points="294,-179.5 294,-208.5 378,-208.5 378,-179.5 294,-179.5"/>
<text text-anchor="start" x="301" y="-191.3" font-family="Times,serif" font-weight="bold" font-size="14.00">trope_label:</text>
<polygon fill="none" stroke="black" points="260,-150.5 260,-179.5 378,-179.5 378,-150.5 260,-150.5"/>
<text text-anchor="start" x="281" y="-161.3" font-family="Times,serif" font-size="14.00">Noble Savage</text>
<polygon fill="none" stroke="black" points="260,-121.5 260,-150.5 378,-150.5 378,-121.5 260,-121.5"/>
<text text-anchor="start" x="286" y="-132.3" font-family="Times,serif" font-size="14.00">Lazy Indian</text>
<polygon fill="none" stroke="black" points="260,-92.5 260,-121.5 378,-121.5 378,-92.5 260,-92.5"/>
<text text-anchor="start" x="273" y="-103.3" font-family="Times,serif" font-size="14.00">Jump Overboard</text>
<polygon fill="none" stroke="black" points="260,-63.5 260,-92.5 378,-92.5 378,-63.5 260,-63.5"/>
<text text-anchor="start" x="282" y="-74.3" font-family="Times,serif" font-size="14.00">Indian Queen</text>
<polygon fill="none" stroke="black" points="260,-34.5 260,-63.5 378,-63.5 378,-34.5 260,-34.5"/>
<text text-anchor="start" x="287" y="-45.3" font-family="Times,serif" font-size="14.00">Girl Crusoe</text>
<polygon fill="none" stroke="black" points="260,-5.5 260,-34.5 378,-34.5 378,-5.5 260,-5.5"/>
<text text-anchor="start" x="288.5" y="-16.3" font-family="Times,serif" font-size="14.00">Wild Child</text>
<polygon fill="none" stroke="black" stroke-width="2" points="259,-5 259,-266 379,-266 379,-5 259,-5"/>
</g>
<!-- Trope&#45;&gt;Article_Trope -->
<g id="edge7" class="edge">
<title>Trope&#45;&gt;Article_Trope</title>
<path fill="none" stroke="black" stroke-width="1.5" d="M388.3,-135.5C505.67,-135.5 747.91,-135.5 902.42,-135.5"/>
<polygon fill="black" stroke="black" stroke-width="1.5" points="902.46,-135.5 912.46,-140 907.46,-135.5 912.46,-135.5 912.46,-135.5 912.46,-135.5 907.46,-135.5 912.46,-131 902.46,-135.5 902.46,-135.5"/>
<text text-anchor="middle" x="635.36" y="-128.3" font-family="Times,serif" font-size="9.00">(1:N)</text>
</g>
</g>
</svg>
