<?xml version="1.0" encoding="UTF-8" standalone="no"?>
<!DOCTYPE svg PUBLIC "-//W3C//DTD SVG 1.1//EN"
 "http://www.w3.org/Graphics/SVG/1.1/DTD/svg11.dtd">
<!-- Generated by graphviz version 2.50.0 (0)
 -->
<!-- Title: ERD_TheVermontJournal1847 Pages: 1 -->
<svg width="1447pt" height="1581pt"
 viewBox="0.00 0.00 1447.00 1581.00" xmlns="http://www.w3.org/2000/svg" xmlns:xlink="http://www.w3.org/1999/xlink">
<g id="graph0" class="graph" transform="scale(1 1) rotate(0) translate(4 1577)">
<title>ERD_TheVermontJournal1847</title>
<polygon fill="white" stroke="transparent" points="-4,4 -4,-1577 1443,-1577 1443,4 -4,4"/>
<text text-anchor="middle" x="719.5" y="-1557.8" font-family="Arial Bold" font-size="14.00">Entity Relationships for TheVermontJournal1847</text>
<text text-anchor="middle" x="719.5" y="-1542.8" font-family="Arial Bold" font-size="14.00">(Reprint Type: direct)</text>
<!-- Article -->
<g id="node1" class="node">
<title>Article</title>
<polygon fill="#b4d7e5" stroke="transparent" points="10.5,-1156.5 10.5,-1183.5 325.5,-1183.5 325.5,-1156.5 10.5,-1156.5"/>
<polygon fill="none" stroke="black" points="10.5,-1156.5 10.5,-1183.5 325.5,-1183.5 325.5,-1156.5 10.5,-1156.5"/>
<text text-anchor="start" x="150.5" y="-1167.9" font-family="Times,serif" font-weight="bold" font-size="12.00">Article</text>
<polygon fill="none" stroke="black" points="10.5,-1127.5 10.5,-1156.5 44.5,-1156.5 44.5,-1127.5 10.5,-1127.5"/>
<text text-anchor="start" x="17.5" y="-1139.3" font-family="Times,serif" font-weight="bold" font-size="14.00">PK</text>
<polygon fill="none" stroke="black" points="44.5,-1127.5 44.5,-1156.5 325.5,-1156.5 325.5,-1127.5 44.5,-1127.5"/>
<text text-anchor="start" x="51.5" y="-1139.3" font-family="Times,serif" font-weight="bold" font-size="14.00">article_id:</text>
<text text-anchor="start" x="111.5" y="-1139.3" font-family="Times,serif" font-size="14.00"> TheVermontJournal1847</text>
<polygon fill="none" stroke="black" points="10.5,-1098.5 10.5,-1127.5 44.5,-1127.5 44.5,-1098.5 10.5,-1098.5"/>
<polygon fill="none" stroke="black" points="44.5,-1098.5 44.5,-1127.5 325.5,-1127.5 325.5,-1098.5 44.5,-1098.5"/>
<text text-anchor="start" x="51.5" y="-1110.3" font-family="Times,serif" font-weight="bold" font-size="14.00">title:</text>
<text text-anchor="start" x="79.5" y="-1110.3" font-family="Times,serif" font-size="14.00"> &quot;A Female Crusoe&quot;</text>
<polygon fill="none" stroke="black" points="10.5,-1069.5 10.5,-1098.5 44.5,-1098.5 44.5,-1069.5 10.5,-1069.5"/>
<polygon fill="none" stroke="black" points="44.5,-1069.5 44.5,-1098.5 325.5,-1098.5 325.5,-1069.5 44.5,-1069.5"/>
<text text-anchor="start" x="51.5" y="-1081.3" font-family="Times,serif" font-weight="bold" font-size="14.00">author:</text>
<text text-anchor="start" x="95.5" y="-1081.3" font-family="Times,serif" font-size="14.00"> </text>
<polygon fill="none" stroke="black" points="10.5,-1040.5 10.5,-1069.5 44.5,-1069.5 44.5,-1040.5 10.5,-1040.5"/>
<polygon fill="none" stroke="black" points="44.5,-1040.5 44.5,-1069.5 325.5,-1069.5 325.5,-1040.5 44.5,-1040.5"/>
<text text-anchor="start" x="51.5" y="-1052.3" font-family="Times,serif" font-weight="bold" font-size="14.00">date:</text>
<text text-anchor="start" x="81.5" y="-1052.3" font-family="Times,serif" font-size="14.00"> 1847&#45;09&#45;10</text>
<polygon fill="none" stroke="black" points="10.5,-1011.5 10.5,-1040.5 44.5,-1040.5 44.5,-1011.5 10.5,-1011.5"/>
<polygon fill="none" stroke="black" points="44.5,-1011.5 44.5,-1040.5 325.5,-1040.5 325.5,-1011.5 44.5,-1011.5"/>
<text text-anchor="start" x="51.5" y="-1023.3" font-family="Times,serif" font-weight="bold" font-size="14.00">monograph_publishers:</text>
<text text-anchor="start" x="190.5" y="-1023.3" font-family="Times,serif" font-size="14.00"> </text>
<polygon fill="none" stroke="black" points="10.5,-982.5 10.5,-1011.5 44.5,-1011.5 44.5,-982.5 10.5,-982.5"/>
<polygon fill="none" stroke="black" points="44.5,-982.5 44.5,-1011.5 325.5,-1011.5 325.5,-982.5 44.5,-982.5"/>
<text text-anchor="start" x="51.5" y="-994.3" font-family="Times,serif" font-weight="bold" font-size="14.00">volume_number:</text>
<text text-anchor="start" x="152.5" y="-994.3" font-family="Times,serif" font-size="14.00"> 4</text>
<polygon fill="none" stroke="black" points="10.5,-953.5 10.5,-982.5 44.5,-982.5 44.5,-953.5 10.5,-953.5"/>
<polygon fill="none" stroke="black" points="44.5,-953.5 44.5,-982.5 325.5,-982.5 325.5,-953.5 44.5,-953.5"/>
<text text-anchor="start" x="51.5" y="-965.3" font-family="Times,serif" font-weight="bold" font-size="14.00">issue_number:</text>
<text text-anchor="start" x="137.5" y="-965.3" font-family="Times,serif" font-size="14.00"> no. 12</text>
<polygon fill="none" stroke="black" points="10.5,-924.5 10.5,-953.5 44.5,-953.5 44.5,-924.5 10.5,-924.5"/>
<polygon fill="none" stroke="black" points="44.5,-924.5 44.5,-953.5 325.5,-953.5 325.5,-924.5 44.5,-924.5"/>
<text text-anchor="start" x="51.5" y="-936.3" font-family="Times,serif" font-weight="bold" font-size="14.00">pages:</text>
<text text-anchor="start" x="88.5" y="-936.3" font-family="Times,serif" font-size="14.00"> 1</text>
<polygon fill="none" stroke="black" points="10.5,-895.5 10.5,-924.5 44.5,-924.5 44.5,-895.5 10.5,-895.5"/>
<polygon fill="none" stroke="black" points="44.5,-895.5 44.5,-924.5 325.5,-924.5 325.5,-895.5 44.5,-895.5"/>
<text text-anchor="start" x="51.5" y="-907.3" font-family="Times,serif" font-weight="bold" font-size="14.00">archival_holding:</text>
<text text-anchor="start" x="154.5" y="-907.3" font-family="Times,serif" font-size="14.00"> </text>
<polygon fill="none" stroke="black" points="10.5,-866.5 10.5,-895.5 44.5,-895.5 44.5,-866.5 10.5,-866.5"/>
<polygon fill="none" stroke="black" points="44.5,-866.5 44.5,-895.5 325.5,-895.5 325.5,-866.5 44.5,-866.5"/>
<text text-anchor="start" x="51.5" y="-878.3" font-family="Times,serif" font-weight="bold" font-size="14.00">archival_location:</text>
<text text-anchor="start" x="156.5" y="-878.3" font-family="Times,serif" font-size="14.00"> </text>
<polygon fill="none" stroke="black" points="10.5,-837.5 10.5,-866.5 44.5,-866.5 44.5,-837.5 10.5,-837.5"/>
<polygon fill="none" stroke="black" points="44.5,-837.5 44.5,-866.5 325.5,-866.5 325.5,-837.5 44.5,-837.5"/>
<text text-anchor="start" x="51.5" y="-849.3" font-family="Times,serif" font-weight="bold" font-size="14.00">cost:</text>
<text text-anchor="start" x="79.5" y="-849.3" font-family="Times,serif" font-size="14.00"> </text>
<polygon fill="none" stroke="black" points="10.5,-808.5 10.5,-837.5 44.5,-837.5 44.5,-808.5 10.5,-808.5"/>
<polygon fill="none" stroke="black" points="44.5,-808.5 44.5,-837.5 325.5,-837.5 325.5,-808.5 44.5,-808.5"/>
<text text-anchor="start" x="51.5" y="-820.3" font-family="Times,serif" font-weight="bold" font-size="14.00">permission:</text>
<text text-anchor="start" x="120.5" y="-820.3" font-family="Times,serif" font-size="14.00"> Public domain</text>
<polygon fill="none" stroke="black" points="10.5,-779.5 10.5,-808.5 44.5,-808.5 44.5,-779.5 10.5,-779.5"/>
<polygon fill="none" stroke="black" points="44.5,-779.5 44.5,-808.5 325.5,-808.5 325.5,-779.5 44.5,-779.5"/>
<text text-anchor="start" x="51.5" y="-791.3" font-family="Times,serif" font-weight="bold" font-size="14.00">permission_acknowledgement:</text>
<text text-anchor="start" x="231.5" y="-791.3" font-family="Times,serif" font-size="14.00"> </text>
<polygon fill="none" stroke="black" points="10.5,-750.5 10.5,-779.5 44.5,-779.5 44.5,-750.5 10.5,-750.5"/>
<polygon fill="none" stroke="black" points="44.5,-750.5 44.5,-779.5 325.5,-779.5 325.5,-750.5 44.5,-750.5"/>
<text text-anchor="start" x="51.5" y="-762.3" font-family="Times,serif" font-weight="bold" font-size="14.00">permission_statements:</text>
<text text-anchor="start" x="189.5" y="-762.3" font-family="Times,serif" font-size="14.00"> </text>
<polygon fill="none" stroke="black" points="10.5,-721.5 10.5,-750.5 44.5,-750.5 44.5,-721.5 10.5,-721.5"/>
<polygon fill="none" stroke="black" points="44.5,-721.5 44.5,-750.5 325.5,-750.5 325.5,-721.5 44.5,-721.5"/>
<text text-anchor="start" x="51.5" y="-733.3" font-family="Times,serif" font-weight="bold" font-size="14.00">acquisitions:</text>
<text text-anchor="start" x="124.5" y="-733.3" font-family="Times,serif" font-size="14.00"> </text>
<polygon fill="none" stroke="black" points="10.5,-692.5 10.5,-721.5 44.5,-721.5 44.5,-692.5 10.5,-692.5"/>
<polygon fill="none" stroke="black" points="44.5,-692.5 44.5,-721.5 325.5,-721.5 325.5,-692.5 44.5,-692.5"/>
<text text-anchor="start" x="51.5" y="-704.3" font-family="Times,serif" font-weight="bold" font-size="14.00">document_intro:</text>
<text text-anchor="start" x="149.5" y="-704.3" font-family="Times,serif" font-size="14.00"> </text>
<polygon fill="none" stroke="black" points="10.5,-663.5 10.5,-692.5 44.5,-692.5 44.5,-663.5 10.5,-663.5"/>
<polygon fill="none" stroke="black" points="44.5,-663.5 44.5,-692.5 325.5,-692.5 325.5,-663.5 44.5,-663.5"/>
<text text-anchor="start" x="51.5" y="-675.3" font-family="Times,serif" font-weight="bold" font-size="14.00">transcripts:</text>
<text text-anchor="start" x="119.5" y="-675.3" font-family="Times,serif" font-size="14.00"> </text>
<polygon fill="none" stroke="black" points="10.5,-634.5 10.5,-663.5 44.5,-663.5 44.5,-634.5 10.5,-634.5"/>
<text text-anchor="start" x="17.5" y="-646.3" font-family="Times,serif" font-weight="bold" font-size="14.00">FK</text>
<polygon fill="none" stroke="black" points="44.5,-634.5 44.5,-663.5 325.5,-663.5 325.5,-634.5 44.5,-634.5"/>
<text text-anchor="start" x="51.5" y="-646.3" font-family="Times,serif" font-weight="bold" font-size="14.00">group_reprint_id:</text>
<text text-anchor="start" x="157.5" y="-646.3" font-family="Times,serif" font-size="14.00"> TheBostonAtlas1847_reprint</text>
<polygon fill="none" stroke="black" points="10.5,-605.5 10.5,-634.5 44.5,-634.5 44.5,-605.5 10.5,-605.5"/>
<text text-anchor="start" x="17.5" y="-617.3" font-family="Times,serif" font-weight="bold" font-size="14.00">FK</text>
<polygon fill="none" stroke="black" points="44.5,-605.5 44.5,-634.5 325.5,-634.5 325.5,-605.5 44.5,-605.5"/>
<text text-anchor="start" x="51.5" y="-617.3" font-family="Times,serif" font-weight="bold" font-size="14.00">publisher_location:</text>
<text text-anchor="start" x="163.5" y="-617.3" font-family="Times,serif" font-size="14.00"> Windsor, Vermont</text>
<polygon fill="none" stroke="black" points="10.5,-576.5 10.5,-605.5 44.5,-605.5 44.5,-576.5 10.5,-576.5"/>
<text text-anchor="start" x="17.5" y="-588.3" font-family="Times,serif" font-weight="bold" font-size="14.00">FK</text>
<polygon fill="none" stroke="black" points="44.5,-576.5 44.5,-605.5 325.5,-605.5 325.5,-576.5 44.5,-576.5"/>
<text text-anchor="start" x="51.5" y="-588.3" font-family="Times,serif" font-weight="bold" font-size="14.00">publication:</text>
<text text-anchor="start" x="121.5" y="-588.3" font-family="Times,serif" font-size="14.00"> Vermont Journal</text>
<polygon fill="none" stroke="black" stroke-width="2" points="9,-576 9,-1185 326,-1185 326,-576 9,-576"/>
</g>
<!-- Publication -->
<g id="node2" class="node">
<title>Publication</title>
<polygon fill="#f4d9b0" stroke="transparent" points="614.5,-1501.5 614.5,-1528.5 877.5,-1528.5 877.5,-1501.5 614.5,-1501.5"/>
<polygon fill="none" stroke="black" points="614.5,-1501.5 614.5,-1528.5 877.5,-1528.5 877.5,-1501.5 614.5,-1501.5"/>
<text text-anchor="start" x="717" y="-1512.9" font-family="Times,serif" font-weight="bold" font-size="12.00">Publication</text>
<polygon fill="none" stroke="black" points="614.5,-1472.5 614.5,-1501.5 648.5,-1501.5 648.5,-1472.5 614.5,-1472.5"/>
<text text-anchor="start" x="621.5" y="-1484.3" font-family="Times,serif" font-weight="bold" font-size="14.00">PK</text>
<polygon fill="none" stroke="black" points="648.5,-1472.5 648.5,-1501.5 877.5,-1501.5 877.5,-1472.5 648.5,-1472.5"/>
<text text-anchor="start" x="655.5" y="-1484.3" font-family="Times,serif" font-weight="bold" font-size="14.00">publication:</text>
<text text-anchor="start" x="725.5" y="-1484.3" font-family="Times,serif" font-size="14.00"> Vermont Journal</text>
<polygon fill="none" stroke="black" points="614.5,-1443.5 614.5,-1472.5 648.5,-1472.5 648.5,-1443.5 614.5,-1443.5"/>
<text text-anchor="start" x="621.5" y="-1455.3" font-family="Times,serif" font-weight="bold" font-size="14.00">FK</text>
<polygon fill="none" stroke="black" points="648.5,-1443.5 648.5,-1472.5 877.5,-1472.5 877.5,-1443.5 648.5,-1443.5"/>
<text text-anchor="start" x="655.5" y="-1455.3" font-family="Times,serif" font-weight="bold" font-size="14.00">publisher_location:</text>
<text text-anchor="start" x="767.5" y="-1455.3" font-family="Times,serif" font-size="14.00"> Windsor, Vermont</text>
<polygon fill="none" stroke="black" stroke-width="2" points="613,-1443 613,-1530 878,-1530 878,-1443 613,-1443"/>
</g>
<!-- Article&#45;&gt;Publication -->
<g id="edge1" class="edge">
<title>Article&#45;&gt;Publication</title>
<path fill="none" stroke="black" stroke-width="1.5" d="M340.3,-1171.95C405.8,-1283.06 465,-1383.5 465,-1383.5 465,-1383.5 540.16,-1411.2 612.53,-1437.87"/>
<polygon fill="black" stroke="black" stroke-width="1.5" points="340.24,-1171.86 339.04,-1160.96 337.71,-1167.55 335.17,-1163.24 335.17,-1163.24 335.17,-1163.24 337.71,-1167.55 331.29,-1165.53 340.24,-1171.86 340.24,-1171.86"/>
<text text-anchor="middle" x="420.57" y="-1338.25" font-family="Times,serif" font-size="9.00">published in</text>
<text text-anchor="middle" x="420.57" y="-1328.25" font-family="Times,serif" font-size="9.00">(N:1)</text>
</g>
<!-- Location -->
<g id="node3" class="node">
<title>Location</title>
<polygon fill="#c8e6c9" stroke="transparent" points="1166.5,-1408.5 1166.5,-1435.5 1429.5,-1435.5 1429.5,-1408.5 1166.5,-1408.5"/>
<polygon fill="none" stroke="black" points="1166.5,-1408.5 1166.5,-1435.5 1429.5,-1435.5 1429.5,-1408.5 1166.5,-1408.5"/>
<text text-anchor="start" x="1275" y="-1419.9" font-family="Times,serif" font-weight="bold" font-size="12.00">Location</text>
<polygon fill="none" stroke="black" points="1166.5,-1379.5 1166.5,-1408.5 1200.5,-1408.5 1200.5,-1379.5 1166.5,-1379.5"/>
<text text-anchor="start" x="1173.5" y="-1391.3" font-family="Times,serif" font-weight="bold" font-size="14.00">PK</text>
<polygon fill="none" stroke="black" points="1200.5,-1379.5 1200.5,-1408.5 1429.5,-1408.5 1429.5,-1379.5 1200.5,-1379.5"/>
<text text-anchor="start" x="1207.5" y="-1391.3" font-family="Times,serif" font-weight="bold" font-size="14.00">publisher_location:</text>
<text text-anchor="start" x="1319.5" y="-1391.3" font-family="Times,serif" font-size="14.00"> Windsor, Vermont</text>
<polygon fill="none" stroke="black" stroke-width="2" points="1165,-1378.5 1165,-1436.5 1430,-1436.5 1430,-1378.5 1165,-1378.5"/>
</g>
<!-- Article&#45;&gt;Location -->
<g id="edge2" class="edge">
<title>Article&#45;&gt;Location</title>
<path fill="none" stroke="black" stroke-width="1.5" d="M341.48,-1098.69C406.5,-1180.72 465,-1254.5 465,-1254.5 465,-1254.5 918.82,-1338 1155.92,-1381.63"/>
<polygon fill="black" stroke="black" stroke-width="1.5" points="341.38,-1098.57 338.69,-1087.93 338.27,-1094.65 335.17,-1090.73 335.17,-1090.73 335.17,-1090.73 338.27,-1094.65 331.64,-1093.53 341.38,-1098.57 341.38,-1098.57"/>
<text text-anchor="middle" x="691.18" y="-1292.88" font-family="Times,serif" font-size="9.00">published at</text>
<text text-anchor="middle" x="691.18" y="-1282.88" font-family="Times,serif" font-size="9.00">(N:1)</text>
</g>
<!-- Images -->
<g id="node4" class="node">
<title>Images</title>
<polygon fill="#e1bee7" stroke="transparent" points="475.5,-1185.5 475.5,-1212.5 1016.5,-1212.5 1016.5,-1185.5 475.5,-1185.5"/>
<polygon fill="none" stroke="black" points="475.5,-1185.5 475.5,-1212.5 1016.5,-1212.5 1016.5,-1185.5 475.5,-1185.5"/>
<text text-anchor="start" x="706.5" y="-1196.9" font-family="Times,serif" font-weight="bold" font-size="12.00">Images (9 total)</text>
<polygon fill="none" stroke="black" points="475.5,-1156.5 475.5,-1185.5 509.5,-1185.5 509.5,-1156.5 475.5,-1156.5"/>
<text text-anchor="start" x="482.5" y="-1168.3" font-family="Times,serif" font-weight="bold" font-size="14.00">PK</text>
<polygon fill="none" stroke="black" points="509.5,-1156.5 509.5,-1185.5 1016.5,-1185.5 1016.5,-1156.5 509.5,-1156.5"/>
<text text-anchor="start" x="516.5" y="-1168.3" font-family="Times,serif" font-weight="bold" font-size="14.00">object_id:</text>
<text text-anchor="start" x="574.5" y="-1168.3" font-family="Times,serif" font-size="14.00"> TheVermontJournal1847_Original</text>
<polygon fill="none" stroke="black" points="475.5,-1127.5 475.5,-1156.5 509.5,-1156.5 509.5,-1127.5 475.5,-1127.5"/>
<polygon fill="none" stroke="black" points="509.5,-1127.5 509.5,-1156.5 1016.5,-1156.5 1016.5,-1127.5 509.5,-1127.5"/>
<text text-anchor="start" x="516.5" y="-1139.3" font-family="Times,serif" font-weight="bold" font-size="14.00">image_file:</text>
<text text-anchor="start" x="581.5" y="-1139.3" font-family="Times,serif" font-size="14.00"> TheVermontJournal1847_1.png</text>
<polygon fill="none" stroke="black" points="475.5,-1098.5 475.5,-1127.5 509.5,-1127.5 509.5,-1098.5 475.5,-1098.5"/>
<polygon fill="none" stroke="black" points="509.5,-1098.5 509.5,-1127.5 1016.5,-1127.5 1016.5,-1098.5 509.5,-1098.5"/>
<text text-anchor="start" x="516.5" y="-1110.3" font-family="Times,serif" font-weight="bold" font-size="14.00">image_parent_id:</text>
<text text-anchor="start" x="619.5" y="-1110.3" font-family="Times,serif" font-size="14.00"> </text>
<polygon fill="none" stroke="black" points="475.5,-1069.5 475.5,-1098.5 509.5,-1098.5 509.5,-1069.5 475.5,-1069.5"/>
<polygon fill="none" stroke="black" points="509.5,-1069.5 509.5,-1098.5 1016.5,-1098.5 1016.5,-1069.5 509.5,-1069.5"/>
<text text-anchor="start" x="516.5" y="-1081.3" font-family="Times,serif" font-weight="bold" font-size="14.00">image_object_location:</text>
<text text-anchor="start" x="651.5" y="-1081.3" font-family="Times,serif" font-size="14.00"> objects/TheVermontJournal1847/TheVermontJournal1847_1.png</text>
<polygon fill="none" stroke="black" points="475.5,-1040.5 475.5,-1069.5 509.5,-1069.5 509.5,-1040.5 475.5,-1040.5"/>
<polygon fill="none" stroke="black" points="509.5,-1040.5 509.5,-1069.5 1016.5,-1069.5 1016.5,-1040.5 509.5,-1040.5"/>
<text text-anchor="start" x="516.5" y="-1052.3" font-family="Times,serif" font-weight="bold" font-size="14.00">image_display_template:</text>
<text text-anchor="start" x="662.5" y="-1052.3" font-family="Times,serif" font-size="14.00"> compound_object</text>
<polygon fill="none" stroke="black" points="475.5,-1011.5 475.5,-1040.5 509.5,-1040.5 509.5,-1011.5 475.5,-1011.5"/>
<polygon fill="none" stroke="black" points="509.5,-1011.5 509.5,-1040.5 1016.5,-1040.5 1016.5,-1011.5 509.5,-1011.5"/>
<text text-anchor="start" x="516.5" y="-1023.3" font-family="Times,serif" font-weight="bold" font-size="14.00">image_description:</text>
<text text-anchor="start" x="628.5" y="-1023.3" font-family="Times,serif" font-size="14.00"> </text>
<polygon fill="#f0f0f0" stroke="transparent" points="475.5,-982.5 475.5,-1011.5 1016.5,-1011.5 1016.5,-982.5 475.5,-982.5"/>
<polygon fill="none" stroke="black" points="475.5,-982.5 475.5,-1011.5 1016.5,-1011.5 1016.5,-982.5 475.5,-982.5"/>
<text text-anchor="start" x="739" y="-993.3" font-family="Times,serif" font-size="14.00">&#45;&#45;&#45;</text>
<polygon fill="none" stroke="black" points="475.5,-953.5 475.5,-982.5 509.5,-982.5 509.5,-953.5 475.5,-953.5"/>
<text text-anchor="start" x="482.5" y="-965.3" font-family="Times,serif" font-weight="bold" font-size="14.00">PK</text>
<polygon fill="none" stroke="black" points="509.5,-953.5 509.5,-982.5 1016.5,-982.5 1016.5,-953.5 509.5,-953.5"/>
<text text-anchor="start" x="516.5" y="-965.3" font-family="Times,serif" font-weight="bold" font-size="14.00">object_id:</text>
<text text-anchor="start" x="574.5" y="-965.3" font-family="Times,serif" font-size="14.00"> TheVermontJournal1847_img1</text>
<polygon fill="none" stroke="black" points="475.5,-924.5 475.5,-953.5 509.5,-953.5 509.5,-924.5 475.5,-924.5"/>
<polygon fill="none" stroke="black" points="509.5,-924.5 509.5,-953.5 1016.5,-953.5 1016.5,-924.5 509.5,-924.5"/>
<text text-anchor="start" x="516.5" y="-936.3" font-family="Times,serif" font-weight="bold" font-size="14.00">image_file:</text>
<text text-anchor="start" x="581.5" y="-936.3" font-family="Times,serif" font-size="14.00"> TheVermontJournal1847_1.png</text>
<polygon fill="none" stroke="black" points="475.5,-895.5 475.5,-924.5 509.5,-924.5 509.5,-895.5 475.5,-895.5"/>
<polygon fill="none" stroke="black" points="509.5,-895.5 509.5,-924.5 1016.5,-924.5 1016.5,-895.5 509.5,-895.5"/>
<text text-anchor="start" x="516.5" y="-907.3" font-family="Times,serif" font-weight="bold" font-size="14.00">image_parent_id:</text>
<text text-anchor="start" x="619.5" y="-907.3" font-family="Times,serif" font-size="14.00"> TheVermontJournal1847_Original</text>
<polygon fill="none" stroke="black" points="475.5,-866.5 475.5,-895.5 509.5,-895.5 509.5,-866.5 475.5,-866.5"/>
<polygon fill="none" stroke="black" points="509.5,-866.5 509.5,-895.5 1016.5,-895.5 1016.5,-866.5 509.5,-866.5"/>
<text text-anchor="start" x="516.5" y="-878.3" font-family="Times,serif" font-weight="bold" font-size="14.00">image_object_location:</text>
<text text-anchor="start" x="651.5" y="-878.3" font-family="Times,serif" font-size="14.00"> objects/TheVermontJournal1847/TheVermontJournal1847_1.png</text>
<polygon fill="none" stroke="black" points="475.5,-837.5 475.5,-866.5 509.5,-866.5 509.5,-837.5 475.5,-837.5"/>
<polygon fill="none" stroke="black" points="509.5,-837.5 509.5,-866.5 1016.5,-866.5 1016.5,-837.5 509.5,-837.5"/>
<text text-anchor="start" x="516.5" y="-849.3" font-family="Times,serif" font-weight="bold" font-size="14.00">image_display_template:</text>
<text text-anchor="start" x="662.5" y="-849.3" font-family="Times,serif" font-size="14.00"> image</text>
<polygon fill="none" stroke="black" points="475.5,-808.5 475.5,-837.5 509.5,-837.5 509.5,-808.5 475.5,-808.5"/>
<polygon fill="none" stroke="black" points="509.5,-808.5 509.5,-837.5 1016.5,-837.5 1016.5,-808.5 509.5,-808.5"/>
<text text-anchor="start" x="516.5" y="-820.3" font-family="Times,serif" font-weight="bold" font-size="14.00">image_description:</text>
<text text-anchor="start" x="628.5" y="-820.3" font-family="Times,serif" font-size="14.00"> </text>
<polygon fill="#f0f0f0" stroke="transparent" points="475.5,-779.5 475.5,-808.5 1016.5,-808.5 1016.5,-779.5 475.5,-779.5"/>
<polygon fill="none" stroke="black" points="475.5,-779.5 475.5,-808.5 1016.5,-808.5 1016.5,-779.5 475.5,-779.5"/>
<text text-anchor="start" x="739" y="-790.3" font-family="Times,serif" font-size="14.00">&#45;&#45;&#45;</text>
<polygon fill="none" stroke="black" points="475.5,-750.5 475.5,-779.5 509.5,-779.5 509.5,-750.5 475.5,-750.5"/>
<text text-anchor="start" x="482.5" y="-762.3" font-family="Times,serif" font-weight="bold" font-size="14.00">PK</text>
<polygon fill="none" stroke="black" points="509.5,-750.5 509.5,-779.5 1016.5,-779.5 1016.5,-750.5 509.5,-750.5"/>
<text text-anchor="start" x="516.5" y="-762.3" font-family="Times,serif" font-weight="bold" font-size="14.00">object_id:</text>
<text text-anchor="start" x="574.5" y="-762.3" font-family="Times,serif" font-size="14.00"> TheVermontJournal1847_img2</text>
<polygon fill="none" stroke="black" points="475.5,-721.5 475.5,-750.5 509.5,-750.5 509.5,-721.5 475.5,-721.5"/>
<polygon fill="none" stroke="black" points="509.5,-721.5 509.5,-750.5 1016.5,-750.5 1016.5,-721.5 509.5,-721.5"/>
<text text-anchor="start" x="516.5" y="-733.3" font-family="Times,serif" font-weight="bold" font-size="14.00">image_file:</text>
<text text-anchor="start" x="581.5" y="-733.3" font-family="Times,serif" font-size="14.00"> TheVermontJournal1847_2.png</text>
<polygon fill="none" stroke="black" points="475.5,-692.5 475.5,-721.5 509.5,-721.5 509.5,-692.5 475.5,-692.5"/>
<polygon fill="none" stroke="black" points="509.5,-692.5 509.5,-721.5 1016.5,-721.5 1016.5,-692.5 509.5,-692.5"/>
<text text-anchor="start" x="516.5" y="-704.3" font-family="Times,serif" font-weight="bold" font-size="14.00">image_parent_id:</text>
<text text-anchor="start" x="619.5" y="-704.3" font-family="Times,serif" font-size="14.00"> TheVermontJournal1847_Original</text>
<polygon fill="none" stroke="black" points="475.5,-663.5 475.5,-692.5 509.5,-692.5 509.5,-663.5 475.5,-663.5"/>
<polygon fill="none" stroke="black" points="509.5,-663.5 509.5,-692.5 1016.5,-692.5 1016.5,-663.5 509.5,-663.5"/>
<text text-anchor="start" x="516.5" y="-675.3" font-family="Times,serif" font-weight="bold" font-size="14.00">image_object_location:</text>
<text text-anchor="start" x="651.5" y="-675.3" font-family="Times,serif" font-size="14.00"> objects/TheVermontJournal1847/TheVermontJournal1847_2.png</text>
<polygon fill="none" stroke="black" points="475.5,-634.5 475.5,-663.5 509.5,-663.5 509.5,-634.5 475.5,-634.5"/>
<polygon fill="none" stroke="black" points="509.5,-634.5 509.5,-663.5 1016.5,-663.5 1016.5,-634.5 509.5,-634.5"/>
<text text-anchor="start" x="516.5" y="-646.3" font-family="Times,serif" font-weight="bold" font-size="14.00">image_display_template:</text>
<text text-anchor="start" x="662.5" y="-646.3" font-family="Times,serif" font-size="14.00"> image</text>
<polygon fill="none" stroke="black" points="475.5,-605.5 475.5,-634.5 509.5,-634.5 509.5,-605.5 475.5,-605.5"/>
<polygon fill="none" stroke="black" points="509.5,-605.5 509.5,-634.5 1016.5,-634.5 1016.5,-605.5 509.5,-605.5"/>
<text text-anchor="start" x="516.5" y="-617.3" font-family="Times,serif" font-weight="bold" font-size="14.00">image_description:</text>
<text text-anchor="start" x="628.5" y="-617.3" font-family="Times,serif" font-size="14.00"> </text>
<polygon fill="none" stroke="black" points="475.5,-576.5 475.5,-605.5 1016.5,-605.5 1016.5,-576.5 475.5,-576.5"/>
<text text-anchor="start" x="686" y="-588.3" font-family="Times,serif" font-style="italic" font-size="14.00">... and 6 more images</text>
<polygon fill="none" stroke="black" points="475.5,-547.5 475.5,-576.5 509.5,-576.5 509.5,-547.5 475.5,-547.5"/>
<text text-anchor="start" x="482.5" y="-559.3" font-family="Times,serif" font-weight="bold" font-size="14.00">FK</text>
<polygon fill="none" stroke="black" points="509.5,-547.5 509.5,-576.5 1016.5,-576.5 1016.5,-547.5 509.5,-547.5"/>
<text text-anchor="start" x="516.5" y="-559.3" font-family="Times,serif" font-weight="bold" font-size="14.00">article_id:</text>
<text text-anchor="start" x="576.5" y="-559.3" font-family="Times,serif" font-size="14.00"> TheVermontJournal1847</text>
<polygon fill="none" stroke="black" stroke-width="2" points="474,-547 474,-1214 1017,-1214 1017,-547 474,-547"/>
</g>
<!-- Article&#45;&gt;Images -->
<g id="edge4" class="edge">
<title>Article&#45;&gt;Images</title>
<path fill="none" stroke="black" stroke-width="1.5" d="M335.1,-880.5C372.7,-880.5 413.68,-880.5 454.71,-880.5"/>
<polygon fill="black" stroke="black" stroke-width="1.5" points="454.86,-880.5 464.86,-885 459.86,-880.5 464.86,-880.5 464.86,-880.5 464.86,-880.5 459.86,-880.5 464.86,-876 454.86,-880.5 454.86,-880.5"/>
<text text-anchor="middle" x="384.91" y="-873.3" font-family="Times,serif" font-size="9.00">has</text>
<text text-anchor="middle" x="384.91" y="-863.3" font-family="Times,serif" font-size="9.00">(1:N)</text>
</g>
<!-- Reprints -->
<g id="node5" class="node">
<title>Reprints</title>
<polygon fill="#ffecb3" stroke="transparent" points="588.5,-436.5 588.5,-463.5 903.5,-463.5 903.5,-436.5 588.5,-436.5"/>
<polygon fill="none" stroke="black" points="588.5,-436.5 588.5,-463.5 903.5,-463.5 903.5,-436.5 588.5,-436.5"/>
<text text-anchor="start" x="674.5" y="-447.9" font-family="Times,serif" font-weight="bold" font-size="12.00">Reprints / Document Group</text>
<polygon fill="none" stroke="black" points="588.5,-407.5 588.5,-436.5 622.5,-436.5 622.5,-407.5 588.5,-407.5"/>
<text text-anchor="start" x="595.5" y="-419.3" font-family="Times,serif" font-weight="bold" font-size="14.00">PK</text>
<polygon fill="none" stroke="black" points="622.5,-407.5 622.5,-436.5 903.5,-436.5 903.5,-407.5 622.5,-407.5"/>
<text text-anchor="start" x="629.5" y="-419.3" font-family="Times,serif" font-weight="bold" font-size="14.00">group_reprint_id:</text>
<text text-anchor="start" x="735.5" y="-419.3" font-family="Times,serif" font-size="14.00"> TheBostonAtlas1847_reprint</text>
<polygon fill="none" stroke="black" points="588.5,-378.5 588.5,-407.5 622.5,-407.5 622.5,-378.5 588.5,-378.5"/>
<polygon fill="none" stroke="black" points="622.5,-378.5 622.5,-407.5 903.5,-407.5 903.5,-378.5 622.5,-378.5"/>
<text text-anchor="start" x="629.5" y="-390.3" font-family="Times,serif" font-weight="bold" font-size="14.00">reprint_type:</text>
<text text-anchor="start" x="707.5" y="-390.3" font-family="Times,serif" font-size="14.00"> direct</text>
<polygon fill="none" stroke="black" points="588.5,-349.5 588.5,-378.5 622.5,-378.5 622.5,-349.5 588.5,-349.5"/>
<polygon fill="none" stroke="black" points="622.5,-349.5 622.5,-378.5 903.5,-378.5 903.5,-349.5 622.5,-349.5"/>
<text text-anchor="start" x="629.5" y="-361.3" font-family="Times,serif" font-weight="bold" font-size="14.00">reprint_order:</text>
<text text-anchor="start" x="714.5" y="-361.3" font-family="Times,serif" font-size="14.00"> </text>
<polygon fill="none" stroke="black" stroke-width="2" points="587,-348.5 587,-464.5 904,-464.5 904,-348.5 587,-348.5"/>
</g>
<!-- Article&#45;&gt;Reprints -->
<g id="edge5" class="edge">
<title>Article&#45;&gt;Reprints</title>
<path fill="none" stroke="black" stroke-width="1.5" d="M341.48,-661.73C406.5,-579.48 465,-505.5 465,-505.5 465,-505.5 518.02,-486.72 577.88,-465.52"/>
<polygon fill="black" stroke="black" stroke-width="1.5" points="341.37,-661.86 331.64,-666.92 338.27,-665.79 335.17,-669.71 335.17,-669.71 335.17,-669.71 338.27,-665.79 338.7,-672.5 341.37,-661.86 341.37,-661.86"/>
<text text-anchor="middle" x="421.87" y="-529.45" font-family="Times,serif" font-size="9.00">belongs to</text>
<text text-anchor="middle" x="421.87" y="-519.45" font-family="Times,serif" font-size="9.00">(N:1)</text>
</g>
<!-- Article_Trope -->
<g id="node6" class="node">
<title>Article_Trope</title>
<polygon fill="#ffe0e0" stroke="transparent" points="610.5,-237.5 610.5,-264.5 880.5,-264.5 880.5,-237.5 610.5,-237.5"/>
<polygon fill="none" stroke="black" points="610.5,-237.5 610.5,-264.5 880.5,-264.5 880.5,-237.5 610.5,-237.5"/>
<text text-anchor="start" x="713" y="-248.9" font-family="Times,serif" font-weight="bold" font-size="12.00">article_trope</text>
<polygon fill="none" stroke="black" points="610.5,-208.5 610.5,-237.5 667.5,-237.5 667.5,-208.5 610.5,-208.5"/>
<text text-anchor="start" x="617.5" y="-220.3" font-family="Times,serif" font-weight="bold" font-size="14.00">PK,FK</text>
<polygon fill="none" stroke="black" points="667.5,-208.5 667.5,-237.5 880.5,-237.5 880.5,-208.5 667.5,-208.5"/>
<text text-anchor="start" x="674.5" y="-220.3" font-family="Times,serif" font-weight="bold" font-size="14.00">article_id:</text>
<text text-anchor="start" x="734.5" y="-220.3" font-family="Times,serif" font-size="14.00"> TheVermontJournal1847</text>
<polygon fill="none" stroke="black" points="610.5,-179.5 610.5,-208.5 667.5,-208.5 667.5,-179.5 610.5,-179.5"/>
<text text-anchor="start" x="617.5" y="-191.3" font-family="Times,serif" font-weight="bold" font-size="14.00">PK,FK</text>
<polygon fill="none" stroke="black" points="667.5,-179.5 667.5,-208.5 880.5,-208.5 880.5,-179.5 667.5,-179.5"/>
<text text-anchor="start" x="674.5" y="-191.3" font-family="Times,serif" font-weight="bold" font-size="14.00">trope_id:</text>
<polygon fill="none" stroke="black" points="610.5,-150.5 610.5,-179.5 880.5,-179.5 880.5,-150.5 610.5,-150.5"/>
<text text-anchor="start" x="712.5" y="-161.3" font-family="Times,serif" font-size="14.00">Lazy Indian</text>
<polygon fill="none" stroke="black" points="610.5,-121.5 610.5,-150.5 880.5,-150.5 880.5,-121.5 610.5,-121.5"/>
<text text-anchor="start" x="707.5" y="-132.3" font-family="Times,serif" font-size="14.00">Noble Savage</text>
<polygon fill="none" stroke="black" points="610.5,-92.5 610.5,-121.5 880.5,-121.5 880.5,-92.5 610.5,-92.5"/>
<text text-anchor="start" x="699.5" y="-103.3" font-family="Times,serif" font-size="14.00">Jump Overboard</text>
<polygon fill="none" stroke="black" points="610.5,-63.5 610.5,-92.5 880.5,-92.5 880.5,-63.5 610.5,-63.5"/>
<text text-anchor="start" x="708.5" y="-74.3" font-family="Times,serif" font-size="14.00">Indian Queen</text>
<polygon fill="none" stroke="black" points="610.5,-34.5 610.5,-63.5 880.5,-63.5 880.5,-34.5 610.5,-34.5"/>
<text text-anchor="start" x="713.5" y="-45.3" font-family="Times,serif" font-size="14.00">Girl Crusoe</text>
<polygon fill="none" stroke="black" points="610.5,-5.5 610.5,-34.5 880.5,-34.5 880.5,-5.5 610.5,-5.5"/>
<text text-anchor="start" x="715" y="-16.3" font-family="Times,serif" font-size="14.00">Wild Child</text>
<polygon fill="none" stroke="black" stroke-width="2" points="609.5,-5 609.5,-266 881.5,-266 881.5,-5 609.5,-5"/>
</g>
<!-- Article&#45;&gt;Article_Trope -->
<g id="edge6" class="edge">
<title>Article&#45;&gt;Article_Trope</title>
<path fill="none" stroke="black" stroke-width="1.5" d="M328.68,-570.94C398.62,-435.78 465,-307.5 465,-307.5 465,-307.5 526.28,-269.79 591.45,-229.68"/>
<polygon fill="black" stroke="black" stroke-width="1.5" points="591.73,-229.51 602.61,-228.1 595.99,-226.89 600.25,-224.27 600.25,-224.27 600.25,-224.27 595.99,-226.89 597.89,-220.44 591.73,-229.51 591.73,-229.51"/>
<text text-anchor="middle" x="420.96" y="-366.09" font-family="Times,serif" font-size="9.00">(1:N)</text>
</g>
<!-- Publication&#45;&gt;Location -->
<g id="edge3" class="edge">
<title>Publication&#45;&gt;Location</title>
<path fill="none" stroke="black" stroke-width="1.5" d="M897.32,-1464.84C977.98,-1453.25 1076.69,-1439.07 1155.77,-1427.71"/>
<polygon fill="black" stroke="black" stroke-width="1.5" points="896.97,-1464.89 886.43,-1461.86 892.02,-1465.6 887.07,-1466.31 887.07,-1466.31 887.07,-1466.31 892.02,-1465.6 887.71,-1470.76 896.97,-1464.89 896.97,-1464.89"/>
<text text-anchor="middle" x="1009.54" y="-1439.08" font-family="Times,serif" font-size="9.00">located at</text>
<text text-anchor="middle" x="1009.54" y="-1429.08" font-family="Times,serif" font-size="9.00">(N:1)</text>
</g>
<!-- Trope -->
<g id="node7" class="node">
<title>Trope</title>
<polygon fill="#ffcdd2" stroke="transparent" points="108.5,-237.5 108.5,-264.5 226.5,-264.5 226.5,-237.5 108.5,-237.5"/>
<polygon fill="none" stroke="black" points="108.5,-237.5 108.5,-264.5 226.5,-264.5 226.5,-237.5 108.5,-237.5"/>
<text text-anchor="start" x="153.5" y="-248.9" font-family="Times,serif" font-weight="bold" font-size="12.00">trope</text>
<polygon fill="none" stroke="black" points="108.5,-208.5 108.5,-237.5 142.5,-237.5 142.5,-208.5 108.5,-208.5"/>
<text text-anchor="start" x="115.5" y="-220.3" font-family="Times,serif" font-weight="bold" font-size="14.00">PK</text>
<polygon fill="none" stroke="black" points="142.5,-208.5 142.5,-237.5 226.5,-237.5 226.5,-208.5 142.5,-208.5"/>
<text text-anchor="start" x="149.5" y="-220.3" font-family="Times,serif" font-weight="bold" font-size="14.00">trope_id:</text>
<polygon fill="none" stroke="black" points="108.5,-179.5 108.5,-208.5 142.5,-208.5 142.5,-179.5 108.5,-179.5"/>
<polygon fill="none" stroke="black" points="142.5,-179.5 142.5,-208.5 226.5,-208.5 226.5,-179.5 142.5,-179.5"/>
<text text-anchor="start" x="149.5" y="-191.3" font-family="Times,serif" font-weight="bold" font-size="14.00">trope_label:</text>
<polygon fill="none" stroke="black" points="108.5,-150.5 108.5,-179.5 226.5,-179.5 226.5,-150.5 108.5,-150.5"/>
<text text-anchor="start" x="134.5" y="-161.3" font-family="Times,serif" font-size="14.00">Lazy Indian</text>
<polygon fill="none" stroke="black" points="108.5,-121.5 108.5,-150.5 226.5,-150.5 226.5,-121.5 108.5,-121.5"/>
<text text-anchor="start" x="129.5" y="-132.3" font-family="Times,serif" font-size="14.00">Noble Savage</text>
<polygon fill="none" stroke="black" points="108.5,-92.5 108.5,-121.5 226.5,-121.5 226.5,-92.5 108.5,-92.5"/>
<text text-anchor="start" x="121.5" y="-103.3" font-family="Times,serif" font-size="14.00">Jump Overboard</text>
<polygon fill="none" stroke="black" points="108.5,-63.5 108.5,-92.5 226.5,-92.5 226.5,-63.5 108.5,-63.5"/>
<text text-anchor="start" x="130.5" y="-74.3" font-family="Times,serif" font-size="14.00">Indian Queen</text>
<polygon fill="none" stroke="black" points="108.5,-34.5 108.5,-63.5 226.5,-63.5 226.5,-34.5 108.5,-34.5"/>
<text text-anchor="start" x="135.5" y="-45.3" font-family="Times,serif" font-size="14.00">Girl Crusoe</text>
<polygon fill="none" stroke="black" points="108.5,-5.5 108.5,-34.5 226.5,-34.5 226.5,-5.5 108.5,-5.5"/>
<text text-anchor="start" x="137" y="-16.3" font-family="Times,serif" font-size="14.00">Wild Child</text>
<polygon fill="none" stroke="black" stroke-width="2" points="107.5,-5 107.5,-266 227.5,-266 227.5,-5 107.5,-5"/>
</g>
<!-- Trope&#45;&gt;Article_Trope -->
<g id="edge7" class="edge">
<title>Trope&#45;&gt;Article_Trope</title>
<path fill="none" stroke="black" stroke-width="1.5" d="M236.55,-135.5C323.03,-135.5 474.88,-135.5 590.09,-135.5"/>
<polygon fill="black" stroke="black" stroke-width="1.5" points="590.42,-135.5 600.42,-140 595.42,-135.5 600.42,-135.5 600.42,-135.5 600.42,-135.5 595.42,-135.5 600.42,-131 590.42,-135.5 590.42,-135.5"/>
<text text-anchor="middle" x="403.32" y="-128.3" font-family="Times,serif" font-size="9.00">(1:N)</text>
</g>
</g>
</svg>
