<?xml version="1.0" encoding="UTF-8" standalone="no"?>
<!DOCTYPE svg PUBLIC "-//W3C//DTD SVG 1.1//EN"
 "http://www.w3.org/Graphics/SVG/1.1/DTD/svg11.dtd">
<!-- Generated by graphviz version 2.50.0 (0)
 -->
<!-- Title: ERD_TheVermontJournal1847 Pages: 1 -->
<svg width="1395pt" height="1581pt"
 viewBox="0.00 0.00 1395.00 1581.00" xmlns="http://www.w3.org/2000/svg" xmlns:xlink="http://www.w3.org/1999/xlink">
<g id="graph0" class="graph" transform="scale(1 1) rotate(0) translate(4 1577)">
<title>ERD_TheVermontJournal1847</title>
<polygon fill="white" stroke="transparent" points="-4,4 -4,-1577 1391,-1577 1391,4 -4,4"/>
<text text-anchor="middle" x="693.5" y="-1557.8" font-family="Arial Bold" font-size="14.00">Entity Relationships for TheVermontJournal1847</text>
<text text-anchor="middle" x="693.5" y="-1542.8" font-family="Arial Bold" font-size="14.00">(Reprint Type: direct)</text>
<!-- Article -->
<g id="node1" class="node">
<title>Article</title>
<polygon fill="#b4d7e5" stroke="transparent" points="10.5,-1142.5 10.5,-1169.5 273.5,-1169.5 273.5,-1142.5 10.5,-1142.5"/>
<polygon fill="none" stroke="black" points="10.5,-1142.5 10.5,-1169.5 273.5,-1169.5 273.5,-1142.5 10.5,-1142.5"/>
<text text-anchor="start" x="124.5" y="-1153.9" font-family="Times,serif" font-weight="bold" font-size="12.00">Article</text>
<polygon fill="none" stroke="black" points="10.5,-1113.5 10.5,-1142.5 44.5,-1142.5 44.5,-1113.5 10.5,-1113.5"/>
<text text-anchor="start" x="17.5" y="-1125.3" font-family="Times,serif" font-weight="bold" font-size="14.00">PK</text>
<polygon fill="none" stroke="black" points="44.5,-1113.5 44.5,-1142.5 273.5,-1142.5 273.5,-1113.5 44.5,-1113.5"/>
<text text-anchor="start" x="51.5" y="-1125.3" font-family="Times,serif" font-weight="bold" font-size="14.00">article_id:</text>
<text text-anchor="start" x="111.5" y="-1125.3" font-family="Times,serif" font-size="14.00"> TheVermontJournal1847</text>
<polygon fill="none" stroke="black" points="10.5,-1084.5 10.5,-1113.5 44.5,-1113.5 44.5,-1084.5 10.5,-1084.5"/>
<polygon fill="none" stroke="black" points="44.5,-1084.5 44.5,-1113.5 273.5,-1113.5 273.5,-1084.5 44.5,-1084.5"/>
<text text-anchor="start" x="51.5" y="-1096.3" font-family="Times,serif" font-weight="bold" font-size="14.00">title:</text>
<text text-anchor="start" x="79.5" y="-1096.3" font-family="Times,serif" font-size="14.00"> &quot;A Female Crusoe&quot;</text>
<polygon fill="none" stroke="black" points="10.5,-1055.5 10.5,-1084.5 44.5,-1084.5 44.5,-1055.5 10.5,-1055.5"/>
<polygon fill="none" stroke="black" points="44.5,-1055.5 44.5,-1084.5 273.5,-1084.5 273.5,-1055.5 44.5,-1055.5"/>
<text text-anchor="start" x="51.5" y="-1067.3" font-family="Times,serif" font-weight="bold" font-size="14.00">author:</text>
<text text-anchor="start" x="95.5" y="-1067.3" font-family="Times,serif" font-size="14.00"> </text>
<polygon fill="none" stroke="black" points="10.5,-1026.5 10.5,-1055.5 44.5,-1055.5 44.5,-1026.5 10.5,-1026.5"/>
<polygon fill="none" stroke="black" points="44.5,-1026.5 44.5,-1055.5 273.5,-1055.5 273.5,-1026.5 44.5,-1026.5"/>
<text text-anchor="start" x="51.5" y="-1038.3" font-family="Times,serif" font-weight="bold" font-size="14.00">date:</text>
<text text-anchor="start" x="81.5" y="-1038.3" font-family="Times,serif" font-size="14.00"> 1847&#45;09&#45;10</text>
<polygon fill="none" stroke="black" points="10.5,-997.5 10.5,-1026.5 44.5,-1026.5 44.5,-997.5 10.5,-997.5"/>
<polygon fill="none" stroke="black" points="44.5,-997.5 44.5,-1026.5 273.5,-1026.5 273.5,-997.5 44.5,-997.5"/>
<text text-anchor="start" x="51.5" y="-1009.3" font-family="Times,serif" font-weight="bold" font-size="14.00">monograph_publishers:</text>
<text text-anchor="start" x="190.5" y="-1009.3" font-family="Times,serif" font-size="14.00"> </text>
<polygon fill="none" stroke="black" points="10.5,-968.5 10.5,-997.5 44.5,-997.5 44.5,-968.5 10.5,-968.5"/>
<polygon fill="none" stroke="black" points="44.5,-968.5 44.5,-997.5 273.5,-997.5 273.5,-968.5 44.5,-968.5"/>
<text text-anchor="start" x="51.5" y="-980.3" font-family="Times,serif" font-weight="bold" font-size="14.00">volume_number:</text>
<text text-anchor="start" x="152.5" y="-980.3" font-family="Times,serif" font-size="14.00"> 4</text>
<polygon fill="none" stroke="black" points="10.5,-939.5 10.5,-968.5 44.5,-968.5 44.5,-939.5 10.5,-939.5"/>
<polygon fill="none" stroke="black" points="44.5,-939.5 44.5,-968.5 273.5,-968.5 273.5,-939.5 44.5,-939.5"/>
<text text-anchor="start" x="51.5" y="-951.3" font-family="Times,serif" font-weight="bold" font-size="14.00">issue_number:</text>
<text text-anchor="start" x="137.5" y="-951.3" font-family="Times,serif" font-size="14.00"> no. 12</text>
<polygon fill="none" stroke="black" points="10.5,-910.5 10.5,-939.5 44.5,-939.5 44.5,-910.5 10.5,-910.5"/>
<polygon fill="none" stroke="black" points="44.5,-910.5 44.5,-939.5 273.5,-939.5 273.5,-910.5 44.5,-910.5"/>
<text text-anchor="start" x="51.5" y="-922.3" font-family="Times,serif" font-weight="bold" font-size="14.00">pages:</text>
<text text-anchor="start" x="88.5" y="-922.3" font-family="Times,serif" font-size="14.00"> 1</text>
<polygon fill="none" stroke="black" points="10.5,-881.5 10.5,-910.5 44.5,-910.5 44.5,-881.5 10.5,-881.5"/>
<polygon fill="none" stroke="black" points="44.5,-881.5 44.5,-910.5 273.5,-910.5 273.5,-881.5 44.5,-881.5"/>
<text text-anchor="start" x="51.5" y="-893.3" font-family="Times,serif" font-weight="bold" font-size="14.00">archival_holding:</text>
<text text-anchor="start" x="154.5" y="-893.3" font-family="Times,serif" font-size="14.00"> </text>
<polygon fill="none" stroke="black" points="10.5,-852.5 10.5,-881.5 44.5,-881.5 44.5,-852.5 10.5,-852.5"/>
<polygon fill="none" stroke="black" points="44.5,-852.5 44.5,-881.5 273.5,-881.5 273.5,-852.5 44.5,-852.5"/>
<text text-anchor="start" x="51.5" y="-864.3" font-family="Times,serif" font-weight="bold" font-size="14.00">archival_location:</text>
<text text-anchor="start" x="156.5" y="-864.3" font-family="Times,serif" font-size="14.00"> </text>
<polygon fill="none" stroke="black" points="10.5,-823.5 10.5,-852.5 44.5,-852.5 44.5,-823.5 10.5,-823.5"/>
<polygon fill="none" stroke="black" points="44.5,-823.5 44.5,-852.5 273.5,-852.5 273.5,-823.5 44.5,-823.5"/>
<text text-anchor="start" x="51.5" y="-835.3" font-family="Times,serif" font-weight="bold" font-size="14.00">cost:</text>
<text text-anchor="start" x="79.5" y="-835.3" font-family="Times,serif" font-size="14.00"> </text>
<polygon fill="none" stroke="black" points="10.5,-794.5 10.5,-823.5 44.5,-823.5 44.5,-794.5 10.5,-794.5"/>
<polygon fill="none" stroke="black" points="44.5,-794.5 44.5,-823.5 273.5,-823.5 273.5,-794.5 44.5,-794.5"/>
<text text-anchor="start" x="51.5" y="-806.3" font-family="Times,serif" font-weight="bold" font-size="14.00">permission:</text>
<text text-anchor="start" x="120.5" y="-806.3" font-family="Times,serif" font-size="14.00"> Public domain</text>
<polygon fill="none" stroke="black" points="10.5,-765.5 10.5,-794.5 44.5,-794.5 44.5,-765.5 10.5,-765.5"/>
<polygon fill="none" stroke="black" points="44.5,-765.5 44.5,-794.5 273.5,-794.5 273.5,-765.5 44.5,-765.5"/>
<text text-anchor="start" x="51.5" y="-777.3" font-family="Times,serif" font-weight="bold" font-size="14.00">permission_acknowledgement:</text>
<text text-anchor="start" x="231.5" y="-777.3" font-family="Times,serif" font-size="14.00"> </text>
<polygon fill="none" stroke="black" points="10.5,-736.5 10.5,-765.5 44.5,-765.5 44.5,-736.5 10.5,-736.5"/>
<polygon fill="none" stroke="black" points="44.5,-736.5 44.5,-765.5 273.5,-765.5 273.5,-736.5 44.5,-736.5"/>
<text text-anchor="start" x="51.5" y="-748.3" font-family="Times,serif" font-weight="bold" font-size="14.00">permission_statements:</text>
<text text-anchor="start" x="189.5" y="-748.3" font-family="Times,serif" font-size="14.00"> </text>
<polygon fill="none" stroke="black" points="10.5,-707.5 10.5,-736.5 44.5,-736.5 44.5,-707.5 10.5,-707.5"/>
<polygon fill="none" stroke="black" points="44.5,-707.5 44.5,-736.5 273.5,-736.5 273.5,-707.5 44.5,-707.5"/>
<text text-anchor="start" x="51.5" y="-719.3" font-family="Times,serif" font-weight="bold" font-size="14.00">acquisitions:</text>
<text text-anchor="start" x="124.5" y="-719.3" font-family="Times,serif" font-size="14.00"> </text>
<polygon fill="none" stroke="black" points="10.5,-678.5 10.5,-707.5 44.5,-707.5 44.5,-678.5 10.5,-678.5"/>
<polygon fill="none" stroke="black" points="44.5,-678.5 44.5,-707.5 273.5,-707.5 273.5,-678.5 44.5,-678.5"/>
<text text-anchor="start" x="51.5" y="-690.3" font-family="Times,serif" font-weight="bold" font-size="14.00">document_intro:</text>
<text text-anchor="start" x="149.5" y="-690.3" font-family="Times,serif" font-size="14.00"> </text>
<polygon fill="none" stroke="black" points="10.5,-649.5 10.5,-678.5 44.5,-678.5 44.5,-649.5 10.5,-649.5"/>
<polygon fill="none" stroke="black" points="44.5,-649.5 44.5,-678.5 273.5,-678.5 273.5,-649.5 44.5,-649.5"/>
<text text-anchor="start" x="51.5" y="-661.3" font-family="Times,serif" font-weight="bold" font-size="14.00">transcripts:</text>
<text text-anchor="start" x="119.5" y="-661.3" font-family="Times,serif" font-size="14.00"> </text>
<polygon fill="none" stroke="black" points="10.5,-620.5 10.5,-649.5 44.5,-649.5 44.5,-620.5 10.5,-620.5"/>
<text text-anchor="start" x="17.5" y="-632.3" font-family="Times,serif" font-weight="bold" font-size="14.00">FK</text>
<polygon fill="none" stroke="black" points="44.5,-620.5 44.5,-649.5 273.5,-649.5 273.5,-620.5 44.5,-620.5"/>
<text text-anchor="start" x="51.5" y="-632.3" font-family="Times,serif" font-weight="bold" font-size="14.00">publisher_location:</text>
<text text-anchor="start" x="163.5" y="-632.3" font-family="Times,serif" font-size="14.00"> Windsor, Vermont</text>
<polygon fill="none" stroke="black" points="10.5,-591.5 10.5,-620.5 44.5,-620.5 44.5,-591.5 10.5,-591.5"/>
<text text-anchor="start" x="17.5" y="-603.3" font-family="Times,serif" font-weight="bold" font-size="14.00">FK</text>
<polygon fill="none" stroke="black" points="44.5,-591.5 44.5,-620.5 273.5,-620.5 273.5,-591.5 44.5,-591.5"/>
<text text-anchor="start" x="51.5" y="-603.3" font-family="Times,serif" font-weight="bold" font-size="14.00">publication:</text>
<text text-anchor="start" x="121.5" y="-603.3" font-family="Times,serif" font-size="14.00"> Vermont Journal</text>
<polygon fill="none" stroke="black" stroke-width="2" points="9,-590.5 9,-1170.5 274,-1170.5 274,-590.5 9,-590.5"/>
</g>
<!-- Publication -->
<g id="node2" class="node">
<title>Publication</title>
<polygon fill="#f4d9b0" stroke="transparent" points="562.5,-1501.5 562.5,-1528.5 825.5,-1528.5 825.5,-1501.5 562.5,-1501.5"/>
<polygon fill="none" stroke="black" points="562.5,-1501.5 562.5,-1528.5 825.5,-1528.5 825.5,-1501.5 562.5,-1501.5"/>
<text text-anchor="start" x="665" y="-1512.9" font-family="Times,serif" font-weight="bold" font-size="12.00">Publication</text>
<polygon fill="none" stroke="black" points="562.5,-1472.5 562.5,-1501.5 596.5,-1501.5 596.5,-1472.5 562.5,-1472.5"/>
<text text-anchor="start" x="569.5" y="-1484.3" font-family="Times,serif" font-weight="bold" font-size="14.00">PK</text>
<polygon fill="none" stroke="black" points="596.5,-1472.5 596.5,-1501.5 825.5,-1501.5 825.5,-1472.5 596.5,-1472.5"/>
<text text-anchor="start" x="603.5" y="-1484.3" font-family="Times,serif" font-weight="bold" font-size="14.00">publication:</text>
<text text-anchor="start" x="673.5" y="-1484.3" font-family="Times,serif" font-size="14.00"> Vermont Journal</text>
<polygon fill="none" stroke="black" points="562.5,-1443.5 562.5,-1472.5 596.5,-1472.5 596.5,-1443.5 562.5,-1443.5"/>
<text text-anchor="start" x="569.5" y="-1455.3" font-family="Times,serif" font-weight="bold" font-size="14.00">FK</text>
<polygon fill="none" stroke="black" points="596.5,-1443.5 596.5,-1472.5 825.5,-1472.5 825.5,-1443.5 596.5,-1443.5"/>
<text text-anchor="start" x="603.5" y="-1455.3" font-family="Times,serif" font-weight="bold" font-size="14.00">publisher_location:</text>
<text text-anchor="start" x="715.5" y="-1455.3" font-family="Times,serif" font-size="14.00"> Windsor, Vermont</text>
<polygon fill="none" stroke="black" stroke-width="2" points="561,-1443 561,-1530 826,-1530 826,-1443 561,-1443"/>
</g>
<!-- Article&#45;&gt;Publication -->
<g id="edge1" class="edge">
<title>Article&#45;&gt;Publication</title>
<path fill="none" stroke="black" stroke-width="1.5" d="M287.91,-1150.9C351.99,-1270.04 413,-1383.5 413,-1383.5 413,-1383.5 488.16,-1411.2 560.53,-1437.87"/>
<polygon fill="black" stroke="black" stroke-width="1.5" points="287.83,-1150.75 287.06,-1139.81 285.47,-1146.35 283.1,-1141.94 283.1,-1141.94 283.1,-1141.94 285.47,-1146.35 279.13,-1144.08 287.83,-1150.75 287.83,-1150.75"/>
<text text-anchor="middle" x="365.69" y="-1329.23" font-family="Times,serif" font-size="9.00">published in</text>
<text text-anchor="middle" x="365.69" y="-1319.23" font-family="Times,serif" font-size="9.00">(N:1)</text>
</g>
<!-- Location -->
<g id="node3" class="node">
<title>Location</title>
<polygon fill="#c8e6c9" stroke="transparent" points="1114.5,-1408.5 1114.5,-1435.5 1377.5,-1435.5 1377.5,-1408.5 1114.5,-1408.5"/>
<polygon fill="none" stroke="black" points="1114.5,-1408.5 1114.5,-1435.5 1377.5,-1435.5 1377.5,-1408.5 1114.5,-1408.5"/>
<text text-anchor="start" x="1223" y="-1419.9" font-family="Times,serif" font-weight="bold" font-size="12.00">Location</text>
<polygon fill="none" stroke="black" points="1114.5,-1379.5 1114.5,-1408.5 1148.5,-1408.5 1148.5,-1379.5 1114.5,-1379.5"/>
<text text-anchor="start" x="1121.5" y="-1391.3" font-family="Times,serif" font-weight="bold" font-size="14.00">PK</text>
<polygon fill="none" stroke="black" points="1148.5,-1379.5 1148.5,-1408.5 1377.5,-1408.5 1377.5,-1379.5 1148.5,-1379.5"/>
<text text-anchor="start" x="1155.5" y="-1391.3" font-family="Times,serif" font-weight="bold" font-size="14.00">publisher_location:</text>
<text text-anchor="start" x="1267.5" y="-1391.3" font-family="Times,serif" font-size="14.00"> Windsor, Vermont</text>
<polygon fill="none" stroke="black" stroke-width="2" points="1113,-1378.5 1113,-1436.5 1378,-1436.5 1378,-1378.5 1113,-1378.5"/>
</g>
<!-- Article&#45;&gt;Location -->
<g id="edge2" class="edge">
<title>Article&#45;&gt;Location</title>
<path fill="none" stroke="black" stroke-width="1.5" d="M289.07,-1083.15C352.72,-1171.15 413,-1254.5 413,-1254.5 413,-1254.5 866.82,-1338 1103.92,-1381.63"/>
<polygon fill="black" stroke="black" stroke-width="1.5" points="288.96,-1083 286.74,-1072.26 286.03,-1078.95 283.1,-1074.89 283.1,-1074.89 283.1,-1074.89 286.03,-1078.95 279.45,-1077.53 288.96,-1083 288.96,-1083"/>
<text text-anchor="middle" x="632.97" y="-1291.73" font-family="Times,serif" font-size="9.00">published at</text>
<text text-anchor="middle" x="632.97" y="-1281.73" font-family="Times,serif" font-size="9.00">(N:1)</text>
</g>
<!-- Images -->
<g id="node4" class="node">
<title>Images</title>
<polygon fill="#e1bee7" stroke="transparent" points="423.5,-1185.5 423.5,-1212.5 964.5,-1212.5 964.5,-1185.5 423.5,-1185.5"/>
<polygon fill="none" stroke="black" points="423.5,-1185.5 423.5,-1212.5 964.5,-1212.5 964.5,-1185.5 423.5,-1185.5"/>
<text text-anchor="start" x="654.5" y="-1196.9" font-family="Times,serif" font-weight="bold" font-size="12.00">Images (9 total)</text>
<polygon fill="none" stroke="black" points="423.5,-1156.5 423.5,-1185.5 457.5,-1185.5 457.5,-1156.5 423.5,-1156.5"/>
<text text-anchor="start" x="430.5" y="-1168.3" font-family="Times,serif" font-weight="bold" font-size="14.00">PK</text>
<polygon fill="none" stroke="black" points="457.5,-1156.5 457.5,-1185.5 964.5,-1185.5 964.5,-1156.5 457.5,-1156.5"/>
<text text-anchor="start" x="464.5" y="-1168.3" font-family="Times,serif" font-weight="bold" font-size="14.00">object_id:</text>
<text text-anchor="start" x="522.5" y="-1168.3" font-family="Times,serif" font-size="14.00"> TheVermontJournal1847_Original</text>
<polygon fill="none" stroke="black" points="423.5,-1127.5 423.5,-1156.5 457.5,-1156.5 457.5,-1127.5 423.5,-1127.5"/>
<polygon fill="none" stroke="black" points="457.5,-1127.5 457.5,-1156.5 964.5,-1156.5 964.5,-1127.5 457.5,-1127.5"/>
<text text-anchor="start" x="464.5" y="-1139.3" font-family="Times,serif" font-weight="bold" font-size="14.00">image_file:</text>
<text text-anchor="start" x="529.5" y="-1139.3" font-family="Times,serif" font-size="14.00"> TheVermontJournal1847_1.png</text>
<polygon fill="none" stroke="black" points="423.5,-1098.5 423.5,-1127.5 457.5,-1127.5 457.5,-1098.5 423.5,-1098.5"/>
<polygon fill="none" stroke="black" points="457.5,-1098.5 457.5,-1127.5 964.5,-1127.5 964.5,-1098.5 457.5,-1098.5"/>
<text text-anchor="start" x="464.5" y="-1110.3" font-family="Times,serif" font-weight="bold" font-size="14.00">image_parent_id:</text>
<text text-anchor="start" x="567.5" y="-1110.3" font-family="Times,serif" font-size="14.00"> </text>
<polygon fill="none" stroke="black" points="423.5,-1069.5 423.5,-1098.5 457.5,-1098.5 457.5,-1069.5 423.5,-1069.5"/>
<polygon fill="none" stroke="black" points="457.5,-1069.5 457.5,-1098.5 964.5,-1098.5 964.5,-1069.5 457.5,-1069.5"/>
<text text-anchor="start" x="464.5" y="-1081.3" font-family="Times,serif" font-weight="bold" font-size="14.00">image_object_location:</text>
<text text-anchor="start" x="599.5" y="-1081.3" font-family="Times,serif" font-size="14.00"> objects/TheVermontJournal1847/TheVermontJournal1847_1.png</text>
<polygon fill="none" stroke="black" points="423.5,-1040.5 423.5,-1069.5 457.5,-1069.5 457.5,-1040.5 423.5,-1040.5"/>
<polygon fill="none" stroke="black" points="457.5,-1040.5 457.5,-1069.5 964.5,-1069.5 964.5,-1040.5 457.5,-1040.5"/>
<text text-anchor="start" x="464.5" y="-1052.3" font-family="Times,serif" font-weight="bold" font-size="14.00">image_display_template:</text>
<text text-anchor="start" x="610.5" y="-1052.3" font-family="Times,serif" font-size="14.00"> compound_object</text>
<polygon fill="none" stroke="black" points="423.5,-1011.5 423.5,-1040.5 457.5,-1040.5 457.5,-1011.5 423.5,-1011.5"/>
<polygon fill="none" stroke="black" points="457.5,-1011.5 457.5,-1040.5 964.5,-1040.5 964.5,-1011.5 457.5,-1011.5"/>
<text text-anchor="start" x="464.5" y="-1023.3" font-family="Times,serif" font-weight="bold" font-size="14.00">image_description:</text>
<text text-anchor="start" x="576.5" y="-1023.3" font-family="Times,serif" font-size="14.00"> </text>
<polygon fill="#f0f0f0" stroke="transparent" points="423.5,-982.5 423.5,-1011.5 964.5,-1011.5 964.5,-982.5 423.5,-982.5"/>
<polygon fill="none" stroke="black" points="423.5,-982.5 423.5,-1011.5 964.5,-1011.5 964.5,-982.5 423.5,-982.5"/>
<text text-anchor="start" x="687" y="-993.3" font-family="Times,serif" font-size="14.00">&#45;&#45;&#45;</text>
<polygon fill="none" stroke="black" points="423.5,-953.5 423.5,-982.5 457.5,-982.5 457.5,-953.5 423.5,-953.5"/>
<text text-anchor="start" x="430.5" y="-965.3" font-family="Times,serif" font-weight="bold" font-size="14.00">PK</text>
<polygon fill="none" stroke="black" points="457.5,-953.5 457.5,-982.5 964.5,-982.5 964.5,-953.5 457.5,-953.5"/>
<text text-anchor="start" x="464.5" y="-965.3" font-family="Times,serif" font-weight="bold" font-size="14.00">object_id:</text>
<text text-anchor="start" x="522.5" y="-965.3" font-family="Times,serif" font-size="14.00"> TheVermontJournal1847_img1</text>
<polygon fill="none" stroke="black" points="423.5,-924.5 423.5,-953.5 457.5,-953.5 457.5,-924.5 423.5,-924.5"/>
<polygon fill="none" stroke="black" points="457.5,-924.5 457.5,-953.5 964.5,-953.5 964.5,-924.5 457.5,-924.5"/>
<text text-anchor="start" x="464.5" y="-936.3" font-family="Times,serif" font-weight="bold" font-size="14.00">image_file:</text>
<text text-anchor="start" x="529.5" y="-936.3" font-family="Times,serif" font-size="14.00"> TheVermontJournal1847_1.png</text>
<polygon fill="none" stroke="black" points="423.5,-895.5 423.5,-924.5 457.5,-924.5 457.5,-895.5 423.5,-895.5"/>
<polygon fill="none" stroke="black" points="457.5,-895.5 457.5,-924.5 964.5,-924.5 964.5,-895.5 457.5,-895.5"/>
<text text-anchor="start" x="464.5" y="-907.3" font-family="Times,serif" font-weight="bold" font-size="14.00">image_parent_id:</text>
<text text-anchor="start" x="567.5" y="-907.3" font-family="Times,serif" font-size="14.00"> TheVermontJournal1847_Original</text>
<polygon fill="none" stroke="black" points="423.5,-866.5 423.5,-895.5 457.5,-895.5 457.5,-866.5 423.5,-866.5"/>
<polygon fill="none" stroke="black" points="457.5,-866.5 457.5,-895.5 964.5,-895.5 964.5,-866.5 457.5,-866.5"/>
<text text-anchor="start" x="464.5" y="-878.3" font-family="Times,serif" font-weight="bold" font-size="14.00">image_object_location:</text>
<text text-anchor="start" x="599.5" y="-878.3" font-family="Times,serif" font-size="14.00"> objects/TheVermontJournal1847/TheVermontJournal1847_1.png</text>
<polygon fill="none" stroke="black" points="423.5,-837.5 423.5,-866.5 457.5,-866.5 457.5,-837.5 423.5,-837.5"/>
<polygon fill="none" stroke="black" points="457.5,-837.5 457.5,-866.5 964.5,-866.5 964.5,-837.5 457.5,-837.5"/>
<text text-anchor="start" x="464.5" y="-849.3" font-family="Times,serif" font-weight="bold" font-size="14.00">image_display_template:</text>
<text text-anchor="start" x="610.5" y="-849.3" font-family="Times,serif" font-size="14.00"> image</text>
<polygon fill="none" stroke="black" points="423.5,-808.5 423.5,-837.5 457.5,-837.5 457.5,-808.5 423.5,-808.5"/>
<polygon fill="none" stroke="black" points="457.5,-808.5 457.5,-837.5 964.5,-837.5 964.5,-808.5 457.5,-808.5"/>
<text text-anchor="start" x="464.5" y="-820.3" font-family="Times,serif" font-weight="bold" font-size="14.00">image_description:</text>
<text text-anchor="start" x="576.5" y="-820.3" font-family="Times,serif" font-size="14.00"> </text>
<polygon fill="#f0f0f0" stroke="transparent" points="423.5,-779.5 423.5,-808.5 964.5,-808.5 964.5,-779.5 423.5,-779.5"/>
<polygon fill="none" stroke="black" points="423.5,-779.5 423.5,-808.5 964.5,-808.5 964.5,-779.5 423.5,-779.5"/>
<text text-anchor="start" x="687" y="-790.3" font-family="Times,serif" font-size="14.00">&#45;&#45;&#45;</text>
<polygon fill="none" stroke="black" points="423.5,-750.5 423.5,-779.5 457.5,-779.5 457.5,-750.5 423.5,-750.5"/>
<text text-anchor="start" x="430.5" y="-762.3" font-family="Times,serif" font-weight="bold" font-size="14.00">PK</text>
<polygon fill="none" stroke="black" points="457.5,-750.5 457.5,-779.5 964.5,-779.5 964.5,-750.5 457.5,-750.5"/>
<text text-anchor="start" x="464.5" y="-762.3" font-family="Times,serif" font-weight="bold" font-size="14.00">object_id:</text>
<text text-anchor="start" x="522.5" y="-762.3" font-family="Times,serif" font-size="14.00"> TheVermontJournal1847_img2</text>
<polygon fill="none" stroke="black" points="423.5,-721.5 423.5,-750.5 457.5,-750.5 457.5,-721.5 423.5,-721.5"/>
<polygon fill="none" stroke="black" points="457.5,-721.5 457.5,-750.5 964.5,-750.5 964.5,-721.5 457.5,-721.5"/>
<text text-anchor="start" x="464.5" y="-733.3" font-family="Times,serif" font-weight="bold" font-size="14.00">image_file:</text>
<text text-anchor="start" x="529.5" y="-733.3" font-family="Times,serif" font-size="14.00"> TheVermontJournal1847_2.png</text>
<polygon fill="none" stroke="black" points="423.5,-692.5 423.5,-721.5 457.5,-721.5 457.5,-692.5 423.5,-692.5"/>
<polygon fill="none" stroke="black" points="457.5,-692.5 457.5,-721.5 964.5,-721.5 964.5,-692.5 457.5,-692.5"/>
<text text-anchor="start" x="464.5" y="-704.3" font-family="Times,serif" font-weight="bold" font-size="14.00">image_parent_id:</text>
<text text-anchor="start" x="567.5" y="-704.3" font-family="Times,serif" font-size="14.00"> TheVermontJournal1847_Original</text>
<polygon fill="none" stroke="black" points="423.5,-663.5 423.5,-692.5 457.5,-692.5 457.5,-663.5 423.5,-663.5"/>
<polygon fill="none" stroke="black" points="457.5,-663.5 457.5,-692.5 964.5,-692.5 964.5,-663.5 457.5,-663.5"/>
<text text-anchor="start" x="464.5" y="-675.3" font-family="Times,serif" font-weight="bold" font-size="14.00">image_object_location:</text>
<text text-anchor="start" x="599.5" y="-675.3" font-family="Times,serif" font-size="14.00"> objects/TheVermontJournal1847/TheVermontJournal1847_2.png</text>
<polygon fill="none" stroke="black" points="423.5,-634.5 423.5,-663.5 457.5,-663.5 457.5,-634.5 423.5,-634.5"/>
<polygon fill="none" stroke="black" points="457.5,-634.5 457.5,-663.5 964.5,-663.5 964.5,-634.5 457.5,-634.5"/>
<text text-anchor="start" x="464.5" y="-646.3" font-family="Times,serif" font-weight="bold" font-size="14.00">image_display_template:</text>
<text text-anchor="start" x="610.5" y="-646.3" font-family="Times,serif" font-size="14.00"> image</text>
<polygon fill="none" stroke="black" points="423.5,-605.5 423.5,-634.5 457.5,-634.5 457.5,-605.5 423.5,-605.5"/>
<polygon fill="none" stroke="black" points="457.5,-605.5 457.5,-634.5 964.5,-634.5 964.5,-605.5 457.5,-605.5"/>
<text text-anchor="start" x="464.5" y="-617.3" font-family="Times,serif" font-weight="bold" font-size="14.00">image_description:</text>
<text text-anchor="start" x="576.5" y="-617.3" font-family="Times,serif" font-size="14.00"> </text>
<polygon fill="none" stroke="black" points="423.5,-576.5 423.5,-605.5 964.5,-605.5 964.5,-576.5 423.5,-576.5"/>
<text text-anchor="start" x="634" y="-588.3" font-family="Times,serif" font-style="italic" font-size="14.00">... and 6 more images</text>
<polygon fill="none" stroke="black" points="423.5,-547.5 423.5,-576.5 457.5,-576.5 457.5,-547.5 423.5,-547.5"/>
<text text-anchor="start" x="430.5" y="-559.3" font-family="Times,serif" font-weight="bold" font-size="14.00">FK</text>
<polygon fill="none" stroke="black" points="457.5,-547.5 457.5,-576.5 964.5,-576.5 964.5,-547.5 457.5,-547.5"/>
<text text-anchor="start" x="464.5" y="-559.3" font-family="Times,serif" font-weight="bold" font-size="14.00">article_id:</text>
<text text-anchor="start" x="524.5" y="-559.3" font-family="Times,serif" font-size="14.00"> TheVermontJournal1847</text>
<polygon fill="none" stroke="black" stroke-width="2" points="422,-547 422,-1214 965,-1214 965,-547 422,-547"/>
</g>
<!-- Article&#45;&gt;Images -->
<g id="edge4" class="edge">
<title>Article&#45;&gt;Images</title>
<path fill="none" stroke="black" stroke-width="1.5" d="M283.07,-880.5C319.97,-880.5 361.16,-880.5 402.8,-880.5"/>
<polygon fill="black" stroke="black" stroke-width="1.5" points="402.82,-880.5 412.82,-885 407.82,-880.5 412.82,-880.5 412.82,-880.5 412.82,-880.5 407.82,-880.5 412.82,-876 402.82,-880.5 402.82,-880.5"/>
<text text-anchor="middle" x="332.93" y="-873.3" font-family="Times,serif" font-size="9.00">has</text>
<text text-anchor="middle" x="332.93" y="-863.3" font-family="Times,serif" font-size="9.00">(1:N)</text>
</g>
<!-- Reprints -->
<g id="node5" class="node">
<title>Reprints</title>
<polygon fill="#ffecb3" stroke="transparent" points="536.5,-436.5 536.5,-463.5 851.5,-463.5 851.5,-436.5 536.5,-436.5"/>
<polygon fill="none" stroke="black" points="536.5,-436.5 536.5,-463.5 851.5,-463.5 851.5,-436.5 536.5,-436.5"/>
<text text-anchor="start" x="620" y="-447.9" font-family="Times,serif" font-weight="bold" font-size="12.00">Reprints / Document Groups</text>
<polygon fill="none" stroke="black" points="536.5,-407.5 536.5,-436.5 570.5,-436.5 570.5,-407.5 536.5,-407.5"/>
<text text-anchor="start" x="543.5" y="-419.3" font-family="Times,serif" font-weight="bold" font-size="14.00">PK</text>
<polygon fill="none" stroke="black" points="570.5,-407.5 570.5,-436.5 851.5,-436.5 851.5,-407.5 570.5,-407.5"/>
<text text-anchor="start" x="577.5" y="-419.3" font-family="Times,serif" font-weight="bold" font-size="14.00">group_reprint_id:</text>
<text text-anchor="start" x="683.5" y="-419.3" font-family="Times,serif" font-size="14.00"> TheBostonAtlas1847_reprint</text>
<polygon fill="none" stroke="black" points="536.5,-378.5 536.5,-407.5 570.5,-407.5 570.5,-378.5 536.5,-378.5"/>
<polygon fill="none" stroke="black" points="570.5,-378.5 570.5,-407.5 851.5,-407.5 851.5,-378.5 570.5,-378.5"/>
<text text-anchor="start" x="577.5" y="-390.3" font-family="Times,serif" font-weight="bold" font-size="14.00">reprint_type:</text>
<text text-anchor="start" x="655.5" y="-390.3" font-family="Times,serif" font-size="14.00"> direct</text>
<polygon fill="none" stroke="black" points="536.5,-349.5 536.5,-378.5 570.5,-378.5 570.5,-349.5 536.5,-349.5"/>
<polygon fill="none" stroke="black" points="570.5,-349.5 570.5,-378.5 851.5,-378.5 851.5,-349.5 570.5,-349.5"/>
<text text-anchor="start" x="577.5" y="-361.3" font-family="Times,serif" font-weight="bold" font-size="14.00">reprint_order:</text>
<text text-anchor="start" x="662.5" y="-361.3" font-family="Times,serif" font-size="14.00"> </text>
<polygon fill="none" stroke="black" stroke-width="2" points="535,-348.5 535,-464.5 852,-464.5 852,-348.5 535,-348.5"/>
</g>
<!-- Article&#45;&gt;Reprints -->
<g id="edge5" class="edge">
<title>Article&#45;&gt;Reprints</title>
<path fill="none" stroke="black" stroke-width="1.5" d="M289.07,-677.31C352.72,-589.07 413,-505.5 413,-505.5 413,-505.5 460.38,-488.72 516.13,-468.97"/>
<polygon fill="black" stroke="black" stroke-width="1.5" points="288.95,-677.48 279.45,-682.95 286.02,-681.53 283.1,-685.59 283.1,-685.59 283.1,-685.59 286.02,-681.53 286.75,-688.22 288.95,-677.48 288.95,-677.48"/>
<polygon fill="black" stroke="black" stroke-width="1.5" points="516.45,-468.86 527.38,-469.76 521.16,-467.19 525.88,-465.52 525.88,-465.52 525.88,-465.52 521.16,-467.19 524.38,-461.28 516.45,-468.86 516.45,-468.86"/>
<text text-anchor="middle" x="364.54" y="-539.84" font-family="Times,serif" font-size="9.00">belongs to</text>
<text text-anchor="middle" x="364.54" y="-529.84" font-family="Times,serif" font-size="9.00">(N:M)</text>
</g>
<!-- Article_Trope -->
<g id="node6" class="node">
<title>Article_Trope</title>
<polygon fill="#ffe0e0" stroke="transparent" points="558.5,-237.5 558.5,-264.5 828.5,-264.5 828.5,-237.5 558.5,-237.5"/>
<polygon fill="none" stroke="black" points="558.5,-237.5 558.5,-264.5 828.5,-264.5 828.5,-237.5 558.5,-237.5"/>
<text text-anchor="start" x="661" y="-248.9" font-family="Times,serif" font-weight="bold" font-size="12.00">article_trope</text>
<polygon fill="none" stroke="black" points="558.5,-208.5 558.5,-237.5 615.5,-237.5 615.5,-208.5 558.5,-208.5"/>
<text text-anchor="start" x="565.5" y="-220.3" font-family="Times,serif" font-weight="bold" font-size="14.00">PK,FK</text>
<polygon fill="none" stroke="black" points="615.5,-208.5 615.5,-237.5 828.5,-237.5 828.5,-208.5 615.5,-208.5"/>
<text text-anchor="start" x="622.5" y="-220.3" font-family="Times,serif" font-weight="bold" font-size="14.00">article_id:</text>
<text text-anchor="start" x="682.5" y="-220.3" font-family="Times,serif" font-size="14.00"> TheVermontJournal1847</text>
<polygon fill="none" stroke="black" points="558.5,-179.5 558.5,-208.5 615.5,-208.5 615.5,-179.5 558.5,-179.5"/>
<text text-anchor="start" x="565.5" y="-191.3" font-family="Times,serif" font-weight="bold" font-size="14.00">PK,FK</text>
<polygon fill="none" stroke="black" points="615.5,-179.5 615.5,-208.5 828.5,-208.5 828.5,-179.5 615.5,-179.5"/>
<text text-anchor="start" x="622.5" y="-191.3" font-family="Times,serif" font-weight="bold" font-size="14.00">trope_id:</text>
<polygon fill="none" stroke="black" points="558.5,-150.5 558.5,-179.5 828.5,-179.5 828.5,-150.5 558.5,-150.5"/>
<text text-anchor="start" x="660.5" y="-161.3" font-family="Times,serif" font-size="14.00">Lazy Indian</text>
<polygon fill="none" stroke="black" points="558.5,-121.5 558.5,-150.5 828.5,-150.5 828.5,-121.5 558.5,-121.5"/>
<text text-anchor="start" x="655.5" y="-132.3" font-family="Times,serif" font-size="14.00">Noble Savage</text>
<polygon fill="none" stroke="black" points="558.5,-92.5 558.5,-121.5 828.5,-121.5 828.5,-92.5 558.5,-92.5"/>
<text text-anchor="start" x="647.5" y="-103.3" font-family="Times,serif" font-size="14.00">Jump Overboard</text>
<polygon fill="none" stroke="black" points="558.5,-63.5 558.5,-92.5 828.5,-92.5 828.5,-63.5 558.5,-63.5"/>
<text text-anchor="start" x="656.5" y="-74.3" font-family="Times,serif" font-size="14.00">Indian Queen</text>
<polygon fill="none" stroke="black" points="558.5,-34.5 558.5,-63.5 828.5,-63.5 828.5,-34.5 558.5,-34.5"/>
<text text-anchor="start" x="661.5" y="-45.3" font-family="Times,serif" font-size="14.00">Girl Crusoe</text>
<polygon fill="none" stroke="black" points="558.5,-5.5 558.5,-34.5 828.5,-34.5 828.5,-5.5 558.5,-5.5"/>
<text text-anchor="start" x="663" y="-16.3" font-family="Times,serif" font-size="14.00">Wild Child</text>
<polygon fill="none" stroke="black" stroke-width="2" points="557.5,-5 557.5,-266 829.5,-266 829.5,-5 557.5,-5"/>
</g>
<!-- Article&#45;&gt;Article_Trope -->
<g id="edge6" class="edge">
<title>Article&#45;&gt;Article_Trope</title>
<path fill="none" stroke="black" stroke-width="1.5" d="M281.91,-585.19C348.12,-444.93 413,-307.5 413,-307.5 413,-307.5 474.28,-269.79 539.45,-229.68"/>
<polygon fill="black" stroke="black" stroke-width="1.5" points="539.73,-229.51 550.61,-228.1 543.99,-226.89 548.25,-224.27 548.25,-224.27 548.25,-224.27 543.99,-226.89 545.89,-220.44 539.73,-229.51 539.73,-229.51"/>
<text text-anchor="middle" x="369.15" y="-372.01" font-family="Times,serif" font-size="9.00">(1:N)</text>
</g>
<!-- Publication&#45;&gt;Location -->
<g id="edge3" class="edge">
<title>Publication&#45;&gt;Location</title>
<path fill="none" stroke="black" stroke-width="1.5" d="M845.32,-1464.84C925.98,-1453.25 1024.69,-1439.07 1103.77,-1427.71"/>
<polygon fill="black" stroke="black" stroke-width="1.5" points="844.97,-1464.89 834.43,-1461.86 840.02,-1465.6 835.07,-1466.31 835.07,-1466.31 835.07,-1466.31 840.02,-1465.6 835.71,-1470.76 844.97,-1464.89 844.97,-1464.89"/>
<text text-anchor="middle" x="957.54" y="-1439.08" font-family="Times,serif" font-size="9.00">located at</text>
<text text-anchor="middle" x="957.54" y="-1429.08" font-family="Times,serif" font-size="9.00">(N:1)</text>
</g>
<!-- Trope -->
<g id="node7" class="node">
<title>Trope</title>
<polygon fill="#ffcdd2" stroke="transparent" points="82.5,-237.5 82.5,-264.5 200.5,-264.5 200.5,-237.5 82.5,-237.5"/>
<polygon fill="none" stroke="black" points="82.5,-237.5 82.5,-264.5 200.5,-264.5 200.5,-237.5 82.5,-237.5"/>
<text text-anchor="start" x="127.5" y="-248.9" font-family="Times,serif" font-weight="bold" font-size="12.00">trope</text>
<polygon fill="none" stroke="black" points="82.5,-208.5 82.5,-237.5 116.5,-237.5 116.5,-208.5 82.5,-208.5"/>
<text text-anchor="start" x="89.5" y="-220.3" font-family="Times,serif" font-weight="bold" font-size="14.00">PK</text>
<polygon fill="none" stroke="black" points="116.5,-208.5 116.5,-237.5 200.5,-237.5 200.5,-208.5 116.5,-208.5"/>
<text text-anchor="start" x="123.5" y="-220.3" font-family="Times,serif" font-weight="bold" font-size="14.00">trope_id:</text>
<polygon fill="none" stroke="black" points="82.5,-179.5 82.5,-208.5 116.5,-208.5 116.5,-179.5 82.5,-179.5"/>
<polygon fill="none" stroke="black" points="116.5,-179.5 116.5,-208.5 200.5,-208.5 200.5,-179.5 116.5,-179.5"/>
<text text-anchor="start" x="123.5" y="-191.3" font-family="Times,serif" font-weight="bold" font-size="14.00">trope_label:</text>
<polygon fill="none" stroke="black" points="82.5,-150.5 82.5,-179.5 200.5,-179.5 200.5,-150.5 82.5,-150.5"/>
<text text-anchor="start" x="108.5" y="-161.3" font-family="Times,serif" font-size="14.00">Lazy Indian</text>
<polygon fill="none" stroke="black" points="82.5,-121.5 82.5,-150.5 200.5,-150.5 200.5,-121.5 82.5,-121.5"/>
<text text-anchor="start" x="103.5" y="-132.3" font-family="Times,serif" font-size="14.00">Noble Savage</text>
<polygon fill="none" stroke="black" points="82.5,-92.5 82.5,-121.5 200.5,-121.5 200.5,-92.5 82.5,-92.5"/>
<text text-anchor="start" x="95.5" y="-103.3" font-family="Times,serif" font-size="14.00">Jump Overboard</text>
<polygon fill="none" stroke="black" points="82.5,-63.5 82.5,-92.5 200.5,-92.5 200.5,-63.5 82.5,-63.5"/>
<text text-anchor="start" x="104.5" y="-74.3" font-family="Times,serif" font-size="14.00">Indian Queen</text>
<polygon fill="none" stroke="black" points="82.5,-34.5 82.5,-63.5 200.5,-63.5 200.5,-34.5 82.5,-34.5"/>
<text text-anchor="start" x="109.5" y="-45.3" font-family="Times,serif" font-size="14.00">Girl Crusoe</text>
<polygon fill="none" stroke="black" points="82.5,-5.5 82.5,-34.5 200.5,-34.5 200.5,-5.5 82.5,-5.5"/>
<text text-anchor="start" x="111" y="-16.3" font-family="Times,serif" font-size="14.00">Wild Child</text>
<polygon fill="none" stroke="black" stroke-width="2" points="81.5,-5 81.5,-266 201.5,-266 201.5,-5 81.5,-5"/>
</g>
<!-- Trope&#45;&gt;Article_Trope -->
<g id="edge7" class="edge">
<title>Trope&#45;&gt;Article_Trope</title>
<path fill="none" stroke="black" stroke-width="1.5" d="M210.77,-135.5C292.08,-135.5 430.41,-135.5 538.04,-135.5"/>
<polygon fill="black" stroke="black" stroke-width="1.5" points="538.36,-135.5 548.36,-140 543.36,-135.5 548.36,-135.5 548.36,-135.5 548.36,-135.5 543.36,-135.5 548.36,-131 538.36,-135.5 538.36,-135.5"/>
<text text-anchor="middle" x="364.4" y="-128.3" font-family="Times,serif" font-size="9.00">(1:N)</text>
</g>
</g>
</svg>
