<?xml version="1.0" encoding="UTF-8" standalone="no"?>
<!DOCTYPE svg PUBLIC "-//W3C//DTD SVG 1.1//EN"
 "http://www.w3.org/Graphics/SVG/1.1/DTD/svg11.dtd">
<!-- Generated by graphviz version 2.50.0 (0)
 -->
<!-- Title: ERD_WisconsinHerald1847 Pages: 1 -->
<svg width="1733pt" height="1581pt"
 viewBox="0.00 0.00 1733.00 1581.00" xmlns="http://www.w3.org/2000/svg" xmlns:xlink="http://www.w3.org/1999/xlink">
<g id="graph0" class="graph" transform="scale(1 1) rotate(0) translate(4 1577)">
<title>ERD_WisconsinHerald1847</title>
<polygon fill="white" stroke="transparent" points="-4,4 -4,-1577 1729,-1577 1729,4 -4,4"/>
<text text-anchor="middle" x="862.5" y="-1557.8" font-family="Arial Bold" font-size="14.00">Entity Relationships for WisconsinHerald1847</text>
<text text-anchor="middle" x="862.5" y="-1542.8" font-family="Arial Bold" font-size="14.00">(Reprint Type: direct)</text>
<!-- Article -->
<g id="node1" class="node">
<title>Article</title>
<polygon fill="#b4d7e5" stroke="transparent" points="10.5,-1156.5 10.5,-1183.5 577.5,-1183.5 577.5,-1156.5 10.5,-1156.5"/>
<polygon fill="none" stroke="black" points="10.5,-1156.5 10.5,-1183.5 577.5,-1183.5 577.5,-1156.5 10.5,-1156.5"/>
<text text-anchor="start" x="276.5" y="-1167.9" font-family="Times,serif" font-weight="bold" font-size="12.00">Article</text>
<polygon fill="none" stroke="black" points="10.5,-1127.5 10.5,-1156.5 44.5,-1156.5 44.5,-1127.5 10.5,-1127.5"/>
<text text-anchor="start" x="17.5" y="-1139.3" font-family="Times,serif" font-weight="bold" font-size="14.00">PK</text>
<polygon fill="none" stroke="black" points="44.5,-1127.5 44.5,-1156.5 577.5,-1156.5 577.5,-1127.5 44.5,-1127.5"/>
<text text-anchor="start" x="51.5" y="-1139.3" font-family="Times,serif" font-weight="bold" font-size="14.00">article_id:</text>
<text text-anchor="start" x="111.5" y="-1139.3" font-family="Times,serif" font-size="14.00"> WisconsinHerald1847</text>
<polygon fill="none" stroke="black" points="10.5,-1098.5 10.5,-1127.5 44.5,-1127.5 44.5,-1098.5 10.5,-1098.5"/>
<polygon fill="none" stroke="black" points="44.5,-1098.5 44.5,-1127.5 577.5,-1127.5 577.5,-1098.5 44.5,-1098.5"/>
<text text-anchor="start" x="51.5" y="-1110.3" font-family="Times,serif" font-weight="bold" font-size="14.00">title:</text>
<text text-anchor="start" x="79.5" y="-1110.3" font-family="Times,serif" font-size="14.00"> &quot;A Female Crusoe&quot;</text>
<polygon fill="none" stroke="black" points="10.5,-1069.5 10.5,-1098.5 44.5,-1098.5 44.5,-1069.5 10.5,-1069.5"/>
<polygon fill="none" stroke="black" points="44.5,-1069.5 44.5,-1098.5 577.5,-1098.5 577.5,-1069.5 44.5,-1069.5"/>
<text text-anchor="start" x="51.5" y="-1081.3" font-family="Times,serif" font-weight="bold" font-size="14.00">author:</text>
<text text-anchor="start" x="95.5" y="-1081.3" font-family="Times,serif" font-size="14.00"> </text>
<polygon fill="none" stroke="black" points="10.5,-1040.5 10.5,-1069.5 44.5,-1069.5 44.5,-1040.5 10.5,-1040.5"/>
<polygon fill="none" stroke="black" points="44.5,-1040.5 44.5,-1069.5 577.5,-1069.5 577.5,-1040.5 44.5,-1040.5"/>
<text text-anchor="start" x="51.5" y="-1052.3" font-family="Times,serif" font-weight="bold" font-size="14.00">date:</text>
<text text-anchor="start" x="81.5" y="-1052.3" font-family="Times,serif" font-size="14.00"> 1847&#45;03&#45;13</text>
<polygon fill="none" stroke="black" points="10.5,-1011.5 10.5,-1040.5 44.5,-1040.5 44.5,-1011.5 10.5,-1011.5"/>
<polygon fill="none" stroke="black" points="44.5,-1011.5 44.5,-1040.5 577.5,-1040.5 577.5,-1011.5 44.5,-1011.5"/>
<text text-anchor="start" x="51.5" y="-1023.3" font-family="Times,serif" font-weight="bold" font-size="14.00">monograph_publishers:</text>
<text text-anchor="start" x="190.5" y="-1023.3" font-family="Times,serif" font-size="14.00"> </text>
<polygon fill="none" stroke="black" points="10.5,-982.5 10.5,-1011.5 44.5,-1011.5 44.5,-982.5 10.5,-982.5"/>
<polygon fill="none" stroke="black" points="44.5,-982.5 44.5,-1011.5 577.5,-1011.5 577.5,-982.5 44.5,-982.5"/>
<text text-anchor="start" x="51.5" y="-994.3" font-family="Times,serif" font-weight="bold" font-size="14.00">volume_number:</text>
<text text-anchor="start" x="152.5" y="-994.3" font-family="Times,serif" font-size="14.00"> 5</text>
<polygon fill="none" stroke="black" points="10.5,-953.5 10.5,-982.5 44.5,-982.5 44.5,-953.5 10.5,-953.5"/>
<polygon fill="none" stroke="black" points="44.5,-953.5 44.5,-982.5 577.5,-982.5 577.5,-953.5 44.5,-953.5"/>
<text text-anchor="start" x="51.5" y="-965.3" font-family="Times,serif" font-weight="bold" font-size="14.00">issue_number:</text>
<text text-anchor="start" x="137.5" y="-965.3" font-family="Times,serif" font-size="14.00"> no. 1</text>
<polygon fill="none" stroke="black" points="10.5,-924.5 10.5,-953.5 44.5,-953.5 44.5,-924.5 10.5,-924.5"/>
<polygon fill="none" stroke="black" points="44.5,-924.5 44.5,-953.5 577.5,-953.5 577.5,-924.5 44.5,-924.5"/>
<text text-anchor="start" x="51.5" y="-936.3" font-family="Times,serif" font-weight="bold" font-size="14.00">pages:</text>
<text text-anchor="start" x="88.5" y="-936.3" font-family="Times,serif" font-size="14.00"> 1</text>
<polygon fill="none" stroke="black" points="10.5,-895.5 10.5,-924.5 44.5,-924.5 44.5,-895.5 10.5,-895.5"/>
<polygon fill="none" stroke="black" points="44.5,-895.5 44.5,-924.5 577.5,-924.5 577.5,-895.5 44.5,-895.5"/>
<text text-anchor="start" x="51.5" y="-907.3" font-family="Times,serif" font-weight="bold" font-size="14.00">archival_holding:</text>
<text text-anchor="start" x="154.5" y="-907.3" font-family="Times,serif" font-size="14.00"> </text>
<polygon fill="none" stroke="black" points="10.5,-866.5 10.5,-895.5 44.5,-895.5 44.5,-866.5 10.5,-866.5"/>
<polygon fill="none" stroke="black" points="44.5,-866.5 44.5,-895.5 577.5,-895.5 577.5,-866.5 44.5,-866.5"/>
<text text-anchor="start" x="51.5" y="-878.3" font-family="Times,serif" font-weight="bold" font-size="14.00">archival_location:</text>
<text text-anchor="start" x="156.5" y="-878.3" font-family="Times,serif" font-size="14.00"> </text>
<polygon fill="none" stroke="black" points="10.5,-837.5 10.5,-866.5 44.5,-866.5 44.5,-837.5 10.5,-837.5"/>
<polygon fill="none" stroke="black" points="44.5,-837.5 44.5,-866.5 577.5,-866.5 577.5,-837.5 44.5,-837.5"/>
<text text-anchor="start" x="51.5" y="-849.3" font-family="Times,serif" font-weight="bold" font-size="14.00">cost:</text>
<text text-anchor="start" x="79.5" y="-849.3" font-family="Times,serif" font-size="14.00"> </text>
<polygon fill="none" stroke="black" points="10.5,-808.5 10.5,-837.5 44.5,-837.5 44.5,-808.5 10.5,-808.5"/>
<polygon fill="none" stroke="black" points="44.5,-808.5 44.5,-837.5 577.5,-837.5 577.5,-808.5 44.5,-808.5"/>
<text text-anchor="start" x="51.5" y="-820.3" font-family="Times,serif" font-weight="bold" font-size="14.00">permission:</text>
<text text-anchor="start" x="120.5" y="-820.3" font-family="Times,serif" font-size="14.00"> Public domain</text>
<polygon fill="none" stroke="black" points="10.5,-779.5 10.5,-808.5 44.5,-808.5 44.5,-779.5 10.5,-779.5"/>
<polygon fill="none" stroke="black" points="44.5,-779.5 44.5,-808.5 577.5,-808.5 577.5,-779.5 44.5,-779.5"/>
<text text-anchor="start" x="51.5" y="-791.3" font-family="Times,serif" font-weight="bold" font-size="14.00">permission_acknowledgement:</text>
<text text-anchor="start" x="231.5" y="-791.3" font-family="Times,serif" font-size="14.00"> </text>
<polygon fill="none" stroke="black" points="10.5,-750.5 10.5,-779.5 44.5,-779.5 44.5,-750.5 10.5,-750.5"/>
<polygon fill="none" stroke="black" points="44.5,-750.5 44.5,-779.5 577.5,-779.5 577.5,-750.5 44.5,-750.5"/>
<text text-anchor="start" x="51.5" y="-762.3" font-family="Times,serif" font-weight="bold" font-size="14.00">permission_statements:</text>
<text text-anchor="start" x="189.5" y="-762.3" font-family="Times,serif" font-size="14.00"> </text>
<polygon fill="none" stroke="black" points="10.5,-721.5 10.5,-750.5 44.5,-750.5 44.5,-721.5 10.5,-721.5"/>
<polygon fill="none" stroke="black" points="44.5,-721.5 44.5,-750.5 577.5,-750.5 577.5,-721.5 44.5,-721.5"/>
<text text-anchor="start" x="51.5" y="-733.3" font-family="Times,serif" font-weight="bold" font-size="14.00">acquisitions:</text>
<text text-anchor="start" x="124.5" y="-733.3" font-family="Times,serif" font-size="14.00"> </text>
<polygon fill="none" stroke="black" points="10.5,-692.5 10.5,-721.5 44.5,-721.5 44.5,-692.5 10.5,-692.5"/>
<polygon fill="none" stroke="black" points="44.5,-692.5 44.5,-721.5 577.5,-721.5 577.5,-692.5 44.5,-692.5"/>
<text text-anchor="start" x="51.5" y="-704.3" font-family="Times,serif" font-weight="bold" font-size="14.00">document_intro:</text>
<text text-anchor="start" x="149.5" y="-704.3" font-family="Times,serif" font-size="14.00"> </text>
<polygon fill="none" stroke="black" points="10.5,-663.5 10.5,-692.5 44.5,-692.5 44.5,-663.5 10.5,-663.5"/>
<polygon fill="none" stroke="black" points="44.5,-663.5 44.5,-692.5 577.5,-692.5 577.5,-663.5 44.5,-663.5"/>
<text text-anchor="start" x="51.5" y="-675.3" font-family="Times,serif" font-weight="bold" font-size="14.00">transcripts:</text>
<text text-anchor="start" x="119.5" y="-675.3" font-family="Times,serif" font-size="14.00"> &lt;emph&gt;From the Boston Atlas.&lt;/emph&gt; &lt;hi rend=&quot;bold&quot;&gt;A Female Crusoe.&lt;...</text>
<polygon fill="none" stroke="black" points="10.5,-634.5 10.5,-663.5 44.5,-663.5 44.5,-634.5 10.5,-634.5"/>
<text text-anchor="start" x="17.5" y="-646.3" font-family="Times,serif" font-weight="bold" font-size="14.00">FK</text>
<polygon fill="none" stroke="black" points="44.5,-634.5 44.5,-663.5 577.5,-663.5 577.5,-634.5 44.5,-634.5"/>
<text text-anchor="start" x="51.5" y="-646.3" font-family="Times,serif" font-weight="bold" font-size="14.00">group_reprint_id:</text>
<text text-anchor="start" x="157.5" y="-646.3" font-family="Times,serif" font-size="14.00"> TheBostonAtlas1847_reprint</text>
<polygon fill="none" stroke="black" points="10.5,-605.5 10.5,-634.5 44.5,-634.5 44.5,-605.5 10.5,-605.5"/>
<text text-anchor="start" x="17.5" y="-617.3" font-family="Times,serif" font-weight="bold" font-size="14.00">FK</text>
<polygon fill="none" stroke="black" points="44.5,-605.5 44.5,-634.5 577.5,-634.5 577.5,-605.5 44.5,-605.5"/>
<text text-anchor="start" x="51.5" y="-617.3" font-family="Times,serif" font-weight="bold" font-size="14.00">publisher_location:</text>
<text text-anchor="start" x="163.5" y="-617.3" font-family="Times,serif" font-size="14.00"> Lancaster, Wisconsin</text>
<polygon fill="none" stroke="black" points="10.5,-576.5 10.5,-605.5 44.5,-605.5 44.5,-576.5 10.5,-576.5"/>
<text text-anchor="start" x="17.5" y="-588.3" font-family="Times,serif" font-weight="bold" font-size="14.00">FK</text>
<polygon fill="none" stroke="black" points="44.5,-576.5 44.5,-605.5 577.5,-605.5 577.5,-576.5 44.5,-576.5"/>
<text text-anchor="start" x="51.5" y="-588.3" font-family="Times,serif" font-weight="bold" font-size="14.00">publication:</text>
<text text-anchor="start" x="121.5" y="-588.3" font-family="Times,serif" font-size="14.00"> Wisconsin Herald</text>
<polygon fill="none" stroke="black" stroke-width="2" points="9,-576 9,-1185 578,-1185 578,-576 9,-576"/>
</g>
<!-- Publication -->
<g id="node2" class="node">
<title>Publication</title>
<polygon fill="#f4d9b0" stroke="transparent" points="866,-1501.5 866,-1528.5 1146,-1528.5 1146,-1501.5 866,-1501.5"/>
<polygon fill="none" stroke="black" points="866,-1501.5 866,-1528.5 1146,-1528.5 1146,-1501.5 866,-1501.5"/>
<text text-anchor="start" x="977" y="-1512.9" font-family="Times,serif" font-weight="bold" font-size="12.00">Publication</text>
<polygon fill="none" stroke="black" points="866,-1472.5 866,-1501.5 900,-1501.5 900,-1472.5 866,-1472.5"/>
<text text-anchor="start" x="873" y="-1484.3" font-family="Times,serif" font-weight="bold" font-size="14.00">PK</text>
<polygon fill="none" stroke="black" points="900,-1472.5 900,-1501.5 1146,-1501.5 1146,-1472.5 900,-1472.5"/>
<text text-anchor="start" x="907" y="-1484.3" font-family="Times,serif" font-weight="bold" font-size="14.00">publication:</text>
<text text-anchor="start" x="977" y="-1484.3" font-family="Times,serif" font-size="14.00"> Wisconsin Herald</text>
<polygon fill="none" stroke="black" points="866,-1443.5 866,-1472.5 900,-1472.5 900,-1443.5 866,-1443.5"/>
<text text-anchor="start" x="873" y="-1455.3" font-family="Times,serif" font-weight="bold" font-size="14.00">FK</text>
<polygon fill="none" stroke="black" points="900,-1443.5 900,-1472.5 1146,-1472.5 1146,-1443.5 900,-1443.5"/>
<text text-anchor="start" x="907" y="-1455.3" font-family="Times,serif" font-weight="bold" font-size="14.00">publisher_location:</text>
<text text-anchor="start" x="1019" y="-1455.3" font-family="Times,serif" font-size="14.00"> Lancaster, Wisconsin</text>
<polygon fill="none" stroke="black" stroke-width="2" points="865,-1443 865,-1530 1147,-1530 1147,-1443 865,-1443"/>
</g>
<!-- Article&#45;&gt;Publication -->
<g id="edge1" class="edge">
<title>Article&#45;&gt;Publication</title>
<path fill="none" stroke="black" stroke-width="1.5" d="M561.17,-1197.97C645.41,-1298.27 717,-1383.5 717,-1383.5 717,-1383.5 794.44,-1411.2 869.01,-1437.87"/>
<polygon fill="black" stroke="black" stroke-width="1.5" points="560.99,-1197.76 558,-1187.21 557.77,-1193.93 554.56,-1190.11 554.56,-1190.11 554.56,-1190.11 557.77,-1193.93 551.11,-1193 560.99,-1197.76 560.99,-1197.76"/>
<text text-anchor="middle" x="669" y="-1345.35" font-family="Times,serif" font-size="9.00">published in</text>
<text text-anchor="middle" x="669" y="-1335.35" font-family="Times,serif" font-size="9.00">(N:1)</text>
</g>
<!-- Location -->
<g id="node3" class="node">
<title>Location</title>
<polygon fill="#c8e6c9" stroke="transparent" points="1435,-1408.5 1435,-1435.5 1715,-1435.5 1715,-1408.5 1435,-1408.5"/>
<polygon fill="none" stroke="black" points="1435,-1408.5 1435,-1435.5 1715,-1435.5 1715,-1408.5 1435,-1408.5"/>
<text text-anchor="start" x="1552" y="-1419.9" font-family="Times,serif" font-weight="bold" font-size="12.00">Location</text>
<polygon fill="none" stroke="black" points="1435,-1379.5 1435,-1408.5 1469,-1408.5 1469,-1379.5 1435,-1379.5"/>
<text text-anchor="start" x="1442" y="-1391.3" font-family="Times,serif" font-weight="bold" font-size="14.00">PK</text>
<polygon fill="none" stroke="black" points="1469,-1379.5 1469,-1408.5 1715,-1408.5 1715,-1379.5 1469,-1379.5"/>
<text text-anchor="start" x="1476" y="-1391.3" font-family="Times,serif" font-weight="bold" font-size="14.00">publisher_location:</text>
<text text-anchor="start" x="1588" y="-1391.3" font-family="Times,serif" font-size="14.00"> Lancaster, Wisconsin</text>
<polygon fill="none" stroke="black" stroke-width="2" points="1434,-1378.5 1434,-1436.5 1716,-1436.5 1716,-1378.5 1434,-1378.5"/>
</g>
<!-- Article&#45;&gt;Location -->
<g id="edge2" class="edge">
<title>Article&#45;&gt;Location</title>
<path fill="none" stroke="black" stroke-width="1.5" d="M594.67,-1146.21C663.55,-1207.18 717,-1254.5 717,-1254.5 717,-1254.5 1179.19,-1337.01 1424.72,-1380.85"/>
<polygon fill="black" stroke="black" stroke-width="1.5" points="594.56,-1146.12 590.06,-1136.12 590.82,-1142.81 587.08,-1139.49 587.08,-1139.49 587.08,-1139.49 590.82,-1142.81 584.09,-1142.86 594.56,-1146.12 594.56,-1146.12"/>
<text text-anchor="middle" x="968.94" y="-1296.12" font-family="Times,serif" font-size="9.00">published at</text>
<text text-anchor="middle" x="968.94" y="-1286.12" font-family="Times,serif" font-size="9.00">(N:1)</text>
</g>
<!-- Images -->
<g id="node4" class="node">
<title>Images</title>
<polygon fill="#e1bee7" stroke="transparent" points="727,-1185.5 727,-1212.5 1285,-1212.5 1285,-1185.5 727,-1185.5"/>
<polygon fill="none" stroke="black" points="727,-1185.5 727,-1212.5 1285,-1212.5 1285,-1185.5 727,-1185.5"/>
<text text-anchor="start" x="963.5" y="-1196.9" font-family="Times,serif" font-weight="bold" font-size="12.00">Images (10 total)</text>
<polygon fill="none" stroke="black" points="727,-1156.5 727,-1185.5 761,-1185.5 761,-1156.5 727,-1156.5"/>
<text text-anchor="start" x="734" y="-1168.3" font-family="Times,serif" font-weight="bold" font-size="14.00">PK</text>
<polygon fill="none" stroke="black" points="761,-1156.5 761,-1185.5 1285,-1185.5 1285,-1156.5 761,-1156.5"/>
<text text-anchor="start" x="768" y="-1168.3" font-family="Times,serif" font-weight="bold" font-size="14.00">object_id:</text>
<text text-anchor="start" x="826" y="-1168.3" font-family="Times,serif" font-size="14.00"> WisconsinHerald1847_Original</text>
<polygon fill="none" stroke="black" points="727,-1127.5 727,-1156.5 761,-1156.5 761,-1127.5 727,-1127.5"/>
<polygon fill="none" stroke="black" points="761,-1127.5 761,-1156.5 1285,-1156.5 1285,-1127.5 761,-1127.5"/>
<text text-anchor="start" x="768" y="-1139.3" font-family="Times,serif" font-weight="bold" font-size="14.00">image_file:</text>
<text text-anchor="start" x="833" y="-1139.3" font-family="Times,serif" font-size="14.00"> WisconsinHerald1847_DigSur_1.png</text>
<polygon fill="none" stroke="black" points="727,-1098.5 727,-1127.5 761,-1127.5 761,-1098.5 727,-1098.5"/>
<polygon fill="none" stroke="black" points="761,-1098.5 761,-1127.5 1285,-1127.5 1285,-1098.5 761,-1098.5"/>
<text text-anchor="start" x="768" y="-1110.3" font-family="Times,serif" font-weight="bold" font-size="14.00">image_parent_id:</text>
<text text-anchor="start" x="871" y="-1110.3" font-family="Times,serif" font-size="14.00"> </text>
<polygon fill="none" stroke="black" points="727,-1069.5 727,-1098.5 761,-1098.5 761,-1069.5 727,-1069.5"/>
<polygon fill="none" stroke="black" points="761,-1069.5 761,-1098.5 1285,-1098.5 1285,-1069.5 761,-1069.5"/>
<text text-anchor="start" x="768" y="-1081.3" font-family="Times,serif" font-weight="bold" font-size="14.00">image_object_location:</text>
<text text-anchor="start" x="903" y="-1081.3" font-family="Times,serif" font-size="14.00"> objects/WisconsinHerald1847/WisconsinHerald1847_DigSur_1.png</text>
<polygon fill="none" stroke="black" points="727,-1040.5 727,-1069.5 761,-1069.5 761,-1040.5 727,-1040.5"/>
<polygon fill="none" stroke="black" points="761,-1040.5 761,-1069.5 1285,-1069.5 1285,-1040.5 761,-1040.5"/>
<text text-anchor="start" x="768" y="-1052.3" font-family="Times,serif" font-weight="bold" font-size="14.00">image_display_template:</text>
<text text-anchor="start" x="914" y="-1052.3" font-family="Times,serif" font-size="14.00"> compound_object</text>
<polygon fill="none" stroke="black" points="727,-1011.5 727,-1040.5 761,-1040.5 761,-1011.5 727,-1011.5"/>
<polygon fill="none" stroke="black" points="761,-1011.5 761,-1040.5 1285,-1040.5 1285,-1011.5 761,-1011.5"/>
<text text-anchor="start" x="768" y="-1023.3" font-family="Times,serif" font-weight="bold" font-size="14.00">image_description:</text>
<text text-anchor="start" x="880" y="-1023.3" font-family="Times,serif" font-size="14.00"> </text>
<polygon fill="#f0f0f0" stroke="transparent" points="727,-982.5 727,-1011.5 1285,-1011.5 1285,-982.5 727,-982.5"/>
<polygon fill="none" stroke="black" points="727,-982.5 727,-1011.5 1285,-1011.5 1285,-982.5 727,-982.5"/>
<text text-anchor="start" x="999" y="-993.3" font-family="Times,serif" font-size="14.00">&#45;&#45;&#45;</text>
<polygon fill="none" stroke="black" points="727,-953.5 727,-982.5 761,-982.5 761,-953.5 727,-953.5"/>
<text text-anchor="start" x="734" y="-965.3" font-family="Times,serif" font-weight="bold" font-size="14.00">PK</text>
<polygon fill="none" stroke="black" points="761,-953.5 761,-982.5 1285,-982.5 1285,-953.5 761,-953.5"/>
<text text-anchor="start" x="768" y="-965.3" font-family="Times,serif" font-weight="bold" font-size="14.00">object_id:</text>
<text text-anchor="start" x="826" y="-965.3" font-family="Times,serif" font-size="14.00"> WisconsinHerald1847_img1</text>
<polygon fill="none" stroke="black" points="727,-924.5 727,-953.5 761,-953.5 761,-924.5 727,-924.5"/>
<polygon fill="none" stroke="black" points="761,-924.5 761,-953.5 1285,-953.5 1285,-924.5 761,-924.5"/>
<text text-anchor="start" x="768" y="-936.3" font-family="Times,serif" font-weight="bold" font-size="14.00">image_file:</text>
<text text-anchor="start" x="833" y="-936.3" font-family="Times,serif" font-size="14.00"> WisconsinHerald1847_DigSur_1.png</text>
<polygon fill="none" stroke="black" points="727,-895.5 727,-924.5 761,-924.5 761,-895.5 727,-895.5"/>
<polygon fill="none" stroke="black" points="761,-895.5 761,-924.5 1285,-924.5 1285,-895.5 761,-895.5"/>
<text text-anchor="start" x="768" y="-907.3" font-family="Times,serif" font-weight="bold" font-size="14.00">image_parent_id:</text>
<text text-anchor="start" x="871" y="-907.3" font-family="Times,serif" font-size="14.00"> WisconsinHerald1847_Original</text>
<polygon fill="none" stroke="black" points="727,-866.5 727,-895.5 761,-895.5 761,-866.5 727,-866.5"/>
<polygon fill="none" stroke="black" points="761,-866.5 761,-895.5 1285,-895.5 1285,-866.5 761,-866.5"/>
<text text-anchor="start" x="768" y="-878.3" font-family="Times,serif" font-weight="bold" font-size="14.00">image_object_location:</text>
<text text-anchor="start" x="903" y="-878.3" font-family="Times,serif" font-size="14.00"> objects/WisconsinHerald1847/WisconsinHerald1847_DigSur_1.png</text>
<polygon fill="none" stroke="black" points="727,-837.5 727,-866.5 761,-866.5 761,-837.5 727,-837.5"/>
<polygon fill="none" stroke="black" points="761,-837.5 761,-866.5 1285,-866.5 1285,-837.5 761,-837.5"/>
<text text-anchor="start" x="768" y="-849.3" font-family="Times,serif" font-weight="bold" font-size="14.00">image_display_template:</text>
<text text-anchor="start" x="914" y="-849.3" font-family="Times,serif" font-size="14.00"> image</text>
<polygon fill="none" stroke="black" points="727,-808.5 727,-837.5 761,-837.5 761,-808.5 727,-808.5"/>
<polygon fill="none" stroke="black" points="761,-808.5 761,-837.5 1285,-837.5 1285,-808.5 761,-808.5"/>
<text text-anchor="start" x="768" y="-820.3" font-family="Times,serif" font-weight="bold" font-size="14.00">image_description:</text>
<text text-anchor="start" x="880" y="-820.3" font-family="Times,serif" font-size="14.00"> </text>
<polygon fill="#f0f0f0" stroke="transparent" points="727,-779.5 727,-808.5 1285,-808.5 1285,-779.5 727,-779.5"/>
<polygon fill="none" stroke="black" points="727,-779.5 727,-808.5 1285,-808.5 1285,-779.5 727,-779.5"/>
<text text-anchor="start" x="999" y="-790.3" font-family="Times,serif" font-size="14.00">&#45;&#45;&#45;</text>
<polygon fill="none" stroke="black" points="727,-750.5 727,-779.5 761,-779.5 761,-750.5 727,-750.5"/>
<text text-anchor="start" x="734" y="-762.3" font-family="Times,serif" font-weight="bold" font-size="14.00">PK</text>
<polygon fill="none" stroke="black" points="761,-750.5 761,-779.5 1285,-779.5 1285,-750.5 761,-750.5"/>
<text text-anchor="start" x="768" y="-762.3" font-family="Times,serif" font-weight="bold" font-size="14.00">object_id:</text>
<text text-anchor="start" x="826" y="-762.3" font-family="Times,serif" font-size="14.00"> WisconsinHerald1847_img2</text>
<polygon fill="none" stroke="black" points="727,-721.5 727,-750.5 761,-750.5 761,-721.5 727,-721.5"/>
<polygon fill="none" stroke="black" points="761,-721.5 761,-750.5 1285,-750.5 1285,-721.5 761,-721.5"/>
<text text-anchor="start" x="768" y="-733.3" font-family="Times,serif" font-weight="bold" font-size="14.00">image_file:</text>
<text text-anchor="start" x="833" y="-733.3" font-family="Times,serif" font-size="14.00"> WisconsinHerald1847_DigSur_2.png</text>
<polygon fill="none" stroke="black" points="727,-692.5 727,-721.5 761,-721.5 761,-692.5 727,-692.5"/>
<polygon fill="none" stroke="black" points="761,-692.5 761,-721.5 1285,-721.5 1285,-692.5 761,-692.5"/>
<text text-anchor="start" x="768" y="-704.3" font-family="Times,serif" font-weight="bold" font-size="14.00">image_parent_id:</text>
<text text-anchor="start" x="871" y="-704.3" font-family="Times,serif" font-size="14.00"> WisconsinHerald1847_Original</text>
<polygon fill="none" stroke="black" points="727,-663.5 727,-692.5 761,-692.5 761,-663.5 727,-663.5"/>
<polygon fill="none" stroke="black" points="761,-663.5 761,-692.5 1285,-692.5 1285,-663.5 761,-663.5"/>
<text text-anchor="start" x="768" y="-675.3" font-family="Times,serif" font-weight="bold" font-size="14.00">image_object_location:</text>
<text text-anchor="start" x="903" y="-675.3" font-family="Times,serif" font-size="14.00"> objects/WisconsinHerald1847/WisconsinHerald1847_DigSur_2.png</text>
<polygon fill="none" stroke="black" points="727,-634.5 727,-663.5 761,-663.5 761,-634.5 727,-634.5"/>
<polygon fill="none" stroke="black" points="761,-634.5 761,-663.5 1285,-663.5 1285,-634.5 761,-634.5"/>
<text text-anchor="start" x="768" y="-646.3" font-family="Times,serif" font-weight="bold" font-size="14.00">image_display_template:</text>
<text text-anchor="start" x="914" y="-646.3" font-family="Times,serif" font-size="14.00"> image</text>
<polygon fill="none" stroke="black" points="727,-605.5 727,-634.5 761,-634.5 761,-605.5 727,-605.5"/>
<polygon fill="none" stroke="black" points="761,-605.5 761,-634.5 1285,-634.5 1285,-605.5 761,-605.5"/>
<text text-anchor="start" x="768" y="-617.3" font-family="Times,serif" font-weight="bold" font-size="14.00">image_description:</text>
<text text-anchor="start" x="880" y="-617.3" font-family="Times,serif" font-size="14.00"> </text>
<polygon fill="none" stroke="black" points="727,-576.5 727,-605.5 1285,-605.5 1285,-576.5 727,-576.5"/>
<text text-anchor="start" x="946" y="-588.3" font-family="Times,serif" font-style="italic" font-size="14.00">... and 7 more images</text>
<polygon fill="none" stroke="black" points="727,-547.5 727,-576.5 761,-576.5 761,-547.5 727,-547.5"/>
<text text-anchor="start" x="734" y="-559.3" font-family="Times,serif" font-weight="bold" font-size="14.00">FK</text>
<polygon fill="none" stroke="black" points="761,-547.5 761,-576.5 1285,-576.5 1285,-547.5 761,-547.5"/>
<text text-anchor="start" x="768" y="-559.3" font-family="Times,serif" font-weight="bold" font-size="14.00">article_id:</text>
<text text-anchor="start" x="828" y="-559.3" font-family="Times,serif" font-size="14.00"> WisconsinHerald1847</text>
<polygon fill="none" stroke="black" stroke-width="2" points="726,-547 726,-1214 1286,-1214 1286,-547 726,-547"/>
</g>
<!-- Article&#45;&gt;Images -->
<g id="edge4" class="edge">
<title>Article&#45;&gt;Images</title>
<path fill="none" stroke="black" stroke-width="1.5" d="M587.08,-880.5C626.57,-880.5 667.13,-880.5 706.72,-880.5"/>
<polygon fill="black" stroke="black" stroke-width="1.5" points="706.76,-880.5 716.76,-885 711.76,-880.5 716.76,-880.5 716.76,-880.5 716.76,-880.5 711.76,-880.5 716.76,-876 706.76,-880.5 706.76,-880.5"/>
<text text-anchor="middle" x="636.9" y="-873.3" font-family="Times,serif" font-size="9.00">has</text>
<text text-anchor="middle" x="636.9" y="-863.3" font-family="Times,serif" font-size="9.00">(1:N)</text>
</g>
<!-- Reprints -->
<g id="node5" class="node">
<title>Reprints</title>
<polygon fill="#ffecb3" stroke="transparent" points="849,-436.5 849,-463.5 1164,-463.5 1164,-436.5 849,-436.5"/>
<polygon fill="none" stroke="black" points="849,-436.5 849,-463.5 1164,-463.5 1164,-436.5 849,-436.5"/>
<text text-anchor="start" x="935" y="-447.9" font-family="Times,serif" font-weight="bold" font-size="12.00">Reprints / Document Group</text>
<polygon fill="none" stroke="black" points="849,-407.5 849,-436.5 883,-436.5 883,-407.5 849,-407.5"/>
<text text-anchor="start" x="856" y="-419.3" font-family="Times,serif" font-weight="bold" font-size="14.00">PK</text>
<polygon fill="none" stroke="black" points="883,-407.5 883,-436.5 1164,-436.5 1164,-407.5 883,-407.5"/>
<text text-anchor="start" x="890" y="-419.3" font-family="Times,serif" font-weight="bold" font-size="14.00">group_reprint_id:</text>
<text text-anchor="start" x="996" y="-419.3" font-family="Times,serif" font-size="14.00"> TheBostonAtlas1847_reprint</text>
<polygon fill="none" stroke="black" points="849,-378.5 849,-407.5 883,-407.5 883,-378.5 849,-378.5"/>
<polygon fill="none" stroke="black" points="883,-378.5 883,-407.5 1164,-407.5 1164,-378.5 883,-378.5"/>
<text text-anchor="start" x="890" y="-390.3" font-family="Times,serif" font-weight="bold" font-size="14.00">reprint_type:</text>
<text text-anchor="start" x="968" y="-390.3" font-family="Times,serif" font-size="14.00"> direct</text>
<polygon fill="none" stroke="black" points="849,-349.5 849,-378.5 883,-378.5 883,-349.5 849,-349.5"/>
<polygon fill="none" stroke="black" points="883,-349.5 883,-378.5 1164,-378.5 1164,-349.5 883,-349.5"/>
<text text-anchor="start" x="890" y="-361.3" font-family="Times,serif" font-weight="bold" font-size="14.00">reprint_order:</text>
<text text-anchor="start" x="975" y="-361.3" font-family="Times,serif" font-size="14.00"> </text>
<polygon fill="none" stroke="black" stroke-width="2" points="847.5,-348.5 847.5,-464.5 1164.5,-464.5 1164.5,-348.5 847.5,-348.5"/>
</g>
<!-- Article&#45;&gt;Reprints -->
<g id="edge5" class="edge">
<title>Article&#45;&gt;Reprints</title>
<path fill="none" stroke="black" stroke-width="1.5" d="M594.67,-614.08C663.55,-552.94 717,-505.5 717,-505.5 717,-505.5 774.61,-485.7 838.3,-463.8"/>
<polygon fill="black" stroke="black" stroke-width="1.5" points="594.56,-614.18 584.09,-617.45 590.82,-617.5 587.08,-620.82 587.08,-620.82 587.08,-620.82 590.82,-617.5 590.06,-624.18 594.56,-614.18 594.56,-614.18"/>
<text text-anchor="middle" x="685.3" y="-510.02" font-family="Times,serif" font-size="9.00">belongs to</text>
<text text-anchor="middle" x="685.3" y="-500.02" font-family="Times,serif" font-size="9.00">(N:1)</text>
</g>
<!-- Article_Trope -->
<g id="node6" class="node">
<title>Article_Trope</title>
<polygon fill="#ffe0e0" stroke="transparent" points="879,-237.5 879,-264.5 1134,-264.5 1134,-237.5 879,-237.5"/>
<polygon fill="none" stroke="black" points="879,-237.5 879,-264.5 1134,-264.5 1134,-237.5 879,-237.5"/>
<text text-anchor="start" x="974" y="-248.9" font-family="Times,serif" font-weight="bold" font-size="12.00">article_trope</text>
<polygon fill="none" stroke="black" points="879,-208.5 879,-237.5 936,-237.5 936,-208.5 879,-208.5"/>
<text text-anchor="start" x="886" y="-220.3" font-family="Times,serif" font-weight="bold" font-size="14.00">PK,FK</text>
<polygon fill="none" stroke="black" points="936,-208.5 936,-237.5 1134,-237.5 1134,-208.5 936,-208.5"/>
<text text-anchor="start" x="943" y="-220.3" font-family="Times,serif" font-weight="bold" font-size="14.00">article_id:</text>
<text text-anchor="start" x="1003" y="-220.3" font-family="Times,serif" font-size="14.00"> WisconsinHerald1847</text>
<polygon fill="none" stroke="black" points="879,-179.5 879,-208.5 936,-208.5 936,-179.5 879,-179.5"/>
<text text-anchor="start" x="886" y="-191.3" font-family="Times,serif" font-weight="bold" font-size="14.00">PK,FK</text>
<polygon fill="none" stroke="black" points="936,-179.5 936,-208.5 1134,-208.5 1134,-179.5 936,-179.5"/>
<text text-anchor="start" x="943" y="-191.3" font-family="Times,serif" font-weight="bold" font-size="14.00">trope_id:</text>
<polygon fill="none" stroke="black" points="879,-150.5 879,-179.5 1134,-179.5 1134,-150.5 879,-150.5"/>
<text text-anchor="start" x="968.5" y="-161.3" font-family="Times,serif" font-size="14.00">Noble Savage</text>
<polygon fill="none" stroke="black" points="879,-121.5 879,-150.5 1134,-150.5 1134,-121.5 879,-121.5"/>
<text text-anchor="start" x="973.5" y="-132.3" font-family="Times,serif" font-size="14.00">Lazy Indian</text>
<polygon fill="none" stroke="black" points="879,-92.5 879,-121.5 1134,-121.5 1134,-92.5 879,-92.5"/>
<text text-anchor="start" x="960.5" y="-103.3" font-family="Times,serif" font-size="14.00">Jump Overboard</text>
<polygon fill="none" stroke="black" points="879,-63.5 879,-92.5 1134,-92.5 1134,-63.5 879,-63.5"/>
<text text-anchor="start" x="969.5" y="-74.3" font-family="Times,serif" font-size="14.00">Indian Queen</text>
<polygon fill="none" stroke="black" points="879,-34.5 879,-63.5 1134,-63.5 1134,-34.5 879,-34.5"/>
<text text-anchor="start" x="974.5" y="-45.3" font-family="Times,serif" font-size="14.00">Girl Crusoe</text>
<polygon fill="none" stroke="black" points="879,-5.5 879,-34.5 1134,-34.5 1134,-5.5 879,-5.5"/>
<text text-anchor="start" x="976" y="-16.3" font-family="Times,serif" font-size="14.00">Wild Child</text>
<polygon fill="none" stroke="black" stroke-width="2" points="877.5,-5 877.5,-266 1134.5,-266 1134.5,-5 877.5,-5"/>
</g>
<!-- Article&#45;&gt;Article_Trope -->
<g id="edge6" class="edge">
<title>Article&#45;&gt;Article_Trope</title>
<path fill="none" stroke="black" stroke-width="1.5" d="M522.75,-570.94C622.42,-435.78 717,-307.5 717,-307.5 717,-307.5 787.97,-265.11 859.45,-222.42"/>
<polygon fill="black" stroke="black" stroke-width="1.5" points="859.58,-222.35 870.48,-221.08 863.88,-219.78 868.17,-217.22 868.17,-217.22 868.17,-217.22 863.88,-219.78 865.86,-213.35 859.58,-222.35 859.58,-222.35"/>
<text text-anchor="middle" x="659.11" y="-365.25" font-family="Times,serif" font-size="9.00">(1:N)</text>
</g>
<!-- Publication&#45;&gt;Location -->
<g id="edge3" class="edge">
<title>Publication&#45;&gt;Location</title>
<path fill="none" stroke="black" stroke-width="1.5" d="M1166.63,-1464.26C1247.58,-1452.98 1345.3,-1439.36 1424.73,-1428.3"/>
<polygon fill="black" stroke="black" stroke-width="1.5" points="1166.25,-1464.31 1155.72,-1461.24 1161.3,-1465 1156.34,-1465.69 1156.34,-1465.69 1156.34,-1465.69 1161.3,-1465 1156.96,-1470.15 1166.25,-1464.31 1166.25,-1464.31"/>
<text text-anchor="middle" x="1278.68" y="-1439.08" font-family="Times,serif" font-size="9.00">located at</text>
<text text-anchor="middle" x="1278.68" y="-1429.08" font-family="Times,serif" font-size="9.00">(N:1)</text>
</g>
<!-- Trope -->
<g id="node7" class="node">
<title>Trope</title>
<polygon fill="#ffcdd2" stroke="transparent" points="234.5,-237.5 234.5,-264.5 352.5,-264.5 352.5,-237.5 234.5,-237.5"/>
<polygon fill="none" stroke="black" points="234.5,-237.5 234.5,-264.5 352.5,-264.5 352.5,-237.5 234.5,-237.5"/>
<text text-anchor="start" x="279.5" y="-248.9" font-family="Times,serif" font-weight="bold" font-size="12.00">trope</text>
<polygon fill="none" stroke="black" points="234.5,-208.5 234.5,-237.5 268.5,-237.5 268.5,-208.5 234.5,-208.5"/>
<text text-anchor="start" x="241.5" y="-220.3" font-family="Times,serif" font-weight="bold" font-size="14.00">PK</text>
<polygon fill="none" stroke="black" points="268.5,-208.5 268.5,-237.5 352.5,-237.5 352.5,-208.5 268.5,-208.5"/>
<text text-anchor="start" x="275.5" y="-220.3" font-family="Times,serif" font-weight="bold" font-size="14.00">trope_id:</text>
<polygon fill="none" stroke="black" points="234.5,-179.5 234.5,-208.5 268.5,-208.5 268.5,-179.5 234.5,-179.5"/>
<polygon fill="none" stroke="black" points="268.5,-179.5 268.5,-208.5 352.5,-208.5 352.5,-179.5 268.5,-179.5"/>
<text text-anchor="start" x="275.5" y="-191.3" font-family="Times,serif" font-weight="bold" font-size="14.00">trope_label:</text>
<polygon fill="none" stroke="black" points="234.5,-150.5 234.5,-179.5 352.5,-179.5 352.5,-150.5 234.5,-150.5"/>
<text text-anchor="start" x="255.5" y="-161.3" font-family="Times,serif" font-size="14.00">Noble Savage</text>
<polygon fill="none" stroke="black" points="234.5,-121.5 234.5,-150.5 352.5,-150.5 352.5,-121.5 234.5,-121.5"/>
<text text-anchor="start" x="260.5" y="-132.3" font-family="Times,serif" font-size="14.00">Lazy Indian</text>
<polygon fill="none" stroke="black" points="234.5,-92.5 234.5,-121.5 352.5,-121.5 352.5,-92.5 234.5,-92.5"/>
<text text-anchor="start" x="247.5" y="-103.3" font-family="Times,serif" font-size="14.00">Jump Overboard</text>
<polygon fill="none" stroke="black" points="234.5,-63.5 234.5,-92.5 352.5,-92.5 352.5,-63.5 234.5,-63.5"/>
<text text-anchor="start" x="256.5" y="-74.3" font-family="Times,serif" font-size="14.00">Indian Queen</text>
<polygon fill="none" stroke="black" points="234.5,-34.5 234.5,-63.5 352.5,-63.5 352.5,-34.5 234.5,-34.5"/>
<text text-anchor="start" x="261.5" y="-45.3" font-family="Times,serif" font-size="14.00">Girl Crusoe</text>
<polygon fill="none" stroke="black" points="234.5,-5.5 234.5,-34.5 352.5,-34.5 352.5,-5.5 234.5,-5.5"/>
<text text-anchor="start" x="263" y="-16.3" font-family="Times,serif" font-size="14.00">Wild Child</text>
<polygon fill="none" stroke="black" stroke-width="2" points="233.5,-5 233.5,-266 353.5,-266 353.5,-5 233.5,-5"/>
</g>
<!-- Trope&#45;&gt;Article_Trope -->
<g id="edge7" class="edge">
<title>Trope&#45;&gt;Article_Trope</title>
<path fill="none" stroke="black" stroke-width="1.5" d="M362.63,-135.5C476.11,-135.5 706.37,-135.5 858.13,-135.5"/>
<polygon fill="black" stroke="black" stroke-width="1.5" points="858.47,-135.5 868.47,-140 863.47,-135.5 868.47,-135.5 868.47,-135.5 868.47,-135.5 863.47,-135.5 868.47,-131 858.47,-135.5 858.47,-135.5"/>
<text text-anchor="middle" x="600.38" y="-128.3" font-family="Times,serif" font-size="9.00">(1:N)</text>
</g>
</g>
</svg>
