<?xml version="1.0" encoding="UTF-8" standalone="no"?>
<!DOCTYPE svg PUBLIC "-//W3C//DTD SVG 1.1//EN"
 "http://www.w3.org/Graphics/SVG/1.1/DTD/svg11.dtd">
<!-- Generated by graphviz version 2.50.0 (0)
 -->
<!-- Title: ERD Pages: 1 -->
<svg width="1144pt" height="991pt"
 viewBox="0.00 0.00 1144.00 991.00" xmlns="http://www.w3.org/2000/svg" xmlns:xlink="http://www.w3.org/1999/xlink">
<g id="graph0" class="graph" transform="scale(1 1) rotate(0) translate(4 987)">
<title>ERD</title>
<polygon fill="white" stroke="transparent" points="-4,4 -4,-987 1140,-987 1140,4 -4,4"/>
<text text-anchor="middle" x="568" y="-928.2" font-family="Arial Bold" font-size="16.00">Entity&#45;Relationship Diagram</text>
<text text-anchor="middle" x="568" y="-910.2" font-family="Arial Bold" font-size="16.00">Lone Woman Historical Newspaper Collection</text>
<text text-anchor="middle" x="568" y="-873.2" font-family="Arial Bold" font-size="16.00">🔑 = Primary Key &#160;&#160;&#160;🔗 = Foreign Key &#160;&#160;&#160;Crow&#39;s Foot = Many &#160;&#160;&#160;Line = One</text>
<!-- Article -->
<g id="node1" class="node">
<title>Article</title>
<polygon fill="#b4d7e5" stroke="transparent" points="10,-742.5 10,-771.5 306,-771.5 306,-742.5 10,-742.5"/>
<polygon fill="none" stroke="black" points="10,-742.5 10,-771.5 306,-771.5 306,-742.5 10,-742.5"/>
<text text-anchor="start" x="138" y="-754.3" font-family="Times,serif" font-weight="bold" font-size="14.00">Article</text>
<polygon fill="none" stroke="black" points="10,-713.5 10,-742.5 43,-742.5 43,-713.5 10,-713.5"/>
<text text-anchor="start" x="17" y="-724.3" font-family="Times,serif" font-size="14.00">🔑 </text>
<polygon fill="none" stroke="black" points="43,-713.5 43,-742.5 232,-742.5 232,-713.5 43,-713.5"/>
<text text-anchor="start" x="50" y="-725.3" font-family="Times,serif" font-weight="bold" font-size="14.00">article_id</text>
<polygon fill="none" stroke="black" points="232,-713.5 232,-742.5 306,-742.5 306,-713.5 232,-713.5"/>
<text text-anchor="start" x="239" y="-725.3" font-family="Times,serif" font-style="italic" font-size="14.00">VARCHAR</text>
<polygon fill="none" stroke="black" points="10,-684.5 10,-713.5 43,-713.5 43,-684.5 10,-684.5"/>
<text text-anchor="start" x="17" y="-695.3" font-family="Times,serif" font-size="14.00"> &#160;&#160;</text>
<polygon fill="none" stroke="black" points="43,-684.5 43,-713.5 232,-713.5 232,-684.5 43,-684.5"/>
<text text-anchor="start" x="50" y="-696.3" font-family="Times,serif" font-weight="bold" font-size="14.00">title</text>
<polygon fill="none" stroke="black" points="232,-684.5 232,-713.5 306,-713.5 306,-684.5 232,-684.5"/>
<text text-anchor="start" x="239" y="-696.3" font-family="Times,serif" font-style="italic" font-size="14.00">VARCHAR</text>
<polygon fill="none" stroke="black" points="10,-655.5 10,-684.5 43,-684.5 43,-655.5 10,-655.5"/>
<text text-anchor="start" x="17" y="-666.3" font-family="Times,serif" font-size="14.00"> &#160;&#160;</text>
<polygon fill="none" stroke="black" points="43,-655.5 43,-684.5 232,-684.5 232,-655.5 43,-655.5"/>
<text text-anchor="start" x="50" y="-667.3" font-family="Times,serif" font-weight="bold" font-size="14.00">author</text>
<polygon fill="none" stroke="black" points="232,-655.5 232,-684.5 306,-684.5 306,-655.5 232,-655.5"/>
<text text-anchor="start" x="239" y="-667.3" font-family="Times,serif" font-style="italic" font-size="14.00">VARCHAR</text>
<polygon fill="none" stroke="black" points="10,-626.5 10,-655.5 43,-655.5 43,-626.5 10,-626.5"/>
<text text-anchor="start" x="17" y="-637.3" font-family="Times,serif" font-size="14.00"> &#160;&#160;</text>
<polygon fill="none" stroke="black" points="43,-626.5 43,-655.5 232,-655.5 232,-626.5 43,-626.5"/>
<text text-anchor="start" x="50" y="-638.3" font-family="Times,serif" font-weight="bold" font-size="14.00">date</text>
<polygon fill="none" stroke="black" points="232,-626.5 232,-655.5 306,-655.5 306,-626.5 232,-626.5"/>
<text text-anchor="start" x="239" y="-638.3" font-family="Times,serif" font-style="italic" font-size="14.00">DATE</text>
<polygon fill="none" stroke="black" points="10,-597.5 10,-626.5 43,-626.5 43,-597.5 10,-597.5"/>
<text text-anchor="start" x="17" y="-608.3" font-family="Times,serif" font-size="14.00"> &#160;&#160;</text>
<polygon fill="none" stroke="black" points="43,-597.5 43,-626.5 232,-626.5 232,-597.5 43,-597.5"/>
<text text-anchor="start" x="50" y="-609.3" font-family="Times,serif" font-weight="bold" font-size="14.00">volume_number</text>
<polygon fill="none" stroke="black" points="232,-597.5 232,-626.5 306,-626.5 306,-597.5 232,-597.5"/>
<text text-anchor="start" x="239" y="-609.3" font-family="Times,serif" font-style="italic" font-size="14.00">INT</text>
<polygon fill="none" stroke="black" points="10,-568.5 10,-597.5 43,-597.5 43,-568.5 10,-568.5"/>
<text text-anchor="start" x="17" y="-579.3" font-family="Times,serif" font-size="14.00"> &#160;&#160;</text>
<polygon fill="none" stroke="black" points="43,-568.5 43,-597.5 232,-597.5 232,-568.5 43,-568.5"/>
<text text-anchor="start" x="50" y="-580.3" font-family="Times,serif" font-weight="bold" font-size="14.00">issue_number</text>
<polygon fill="none" stroke="black" points="232,-568.5 232,-597.5 306,-597.5 306,-568.5 232,-568.5"/>
<text text-anchor="start" x="239" y="-580.3" font-family="Times,serif" font-style="italic" font-size="14.00">VARCHAR</text>
<polygon fill="none" stroke="black" points="10,-539.5 10,-568.5 43,-568.5 43,-539.5 10,-539.5"/>
<text text-anchor="start" x="17" y="-550.3" font-family="Times,serif" font-size="14.00"> &#160;&#160;</text>
<polygon fill="none" stroke="black" points="43,-539.5 43,-568.5 232,-568.5 232,-539.5 43,-539.5"/>
<text text-anchor="start" x="50" y="-551.3" font-family="Times,serif" font-weight="bold" font-size="14.00">pages</text>
<polygon fill="none" stroke="black" points="232,-539.5 232,-568.5 306,-568.5 306,-539.5 232,-539.5"/>
<text text-anchor="start" x="239" y="-551.3" font-family="Times,serif" font-style="italic" font-size="14.00">VARCHAR</text>
<polygon fill="none" stroke="black" points="10,-510.5 10,-539.5 43,-539.5 43,-510.5 10,-510.5"/>
<text text-anchor="start" x="17" y="-521.3" font-family="Times,serif" font-size="14.00"> &#160;&#160;</text>
<polygon fill="none" stroke="black" points="43,-510.5 43,-539.5 232,-539.5 232,-510.5 43,-510.5"/>
<text text-anchor="start" x="50" y="-522.3" font-family="Times,serif" font-weight="bold" font-size="14.00">monograph_publishers</text>
<polygon fill="none" stroke="black" points="232,-510.5 232,-539.5 306,-539.5 306,-510.5 232,-510.5"/>
<text text-anchor="start" x="239" y="-522.3" font-family="Times,serif" font-style="italic" font-size="14.00">VARCHAR</text>
<polygon fill="none" stroke="black" points="10,-481.5 10,-510.5 43,-510.5 43,-481.5 10,-481.5"/>
<text text-anchor="start" x="17" y="-492.3" font-family="Times,serif" font-size="14.00"> &#160;&#160;</text>
<polygon fill="none" stroke="black" points="43,-481.5 43,-510.5 232,-510.5 232,-481.5 43,-481.5"/>
<text text-anchor="start" x="50" y="-493.3" font-family="Times,serif" font-weight="bold" font-size="14.00">archival_holding</text>
<polygon fill="none" stroke="black" points="232,-481.5 232,-510.5 306,-510.5 306,-481.5 232,-481.5"/>
<text text-anchor="start" x="239" y="-493.3" font-family="Times,serif" font-style="italic" font-size="14.00">VARCHAR</text>
<polygon fill="none" stroke="black" points="10,-452.5 10,-481.5 43,-481.5 43,-452.5 10,-452.5"/>
<text text-anchor="start" x="17" y="-463.3" font-family="Times,serif" font-size="14.00"> &#160;&#160;</text>
<polygon fill="none" stroke="black" points="43,-452.5 43,-481.5 232,-481.5 232,-452.5 43,-452.5"/>
<text text-anchor="start" x="50" y="-464.3" font-family="Times,serif" font-weight="bold" font-size="14.00">archival_location</text>
<polygon fill="none" stroke="black" points="232,-452.5 232,-481.5 306,-481.5 306,-452.5 232,-452.5"/>
<text text-anchor="start" x="239" y="-464.3" font-family="Times,serif" font-style="italic" font-size="14.00">VARCHAR</text>
<polygon fill="none" stroke="black" points="10,-423.5 10,-452.5 43,-452.5 43,-423.5 10,-423.5"/>
<text text-anchor="start" x="17" y="-434.3" font-family="Times,serif" font-size="14.00"> &#160;&#160;</text>
<polygon fill="none" stroke="black" points="43,-423.5 43,-452.5 232,-452.5 232,-423.5 43,-423.5"/>
<text text-anchor="start" x="50" y="-435.3" font-family="Times,serif" font-weight="bold" font-size="14.00">cost</text>
<polygon fill="none" stroke="black" points="232,-423.5 232,-452.5 306,-452.5 306,-423.5 232,-423.5"/>
<text text-anchor="start" x="239" y="-435.3" font-family="Times,serif" font-style="italic" font-size="14.00">VARCHAR</text>
<polygon fill="none" stroke="black" points="10,-394.5 10,-423.5 43,-423.5 43,-394.5 10,-394.5"/>
<text text-anchor="start" x="17" y="-405.3" font-family="Times,serif" font-size="14.00"> &#160;&#160;</text>
<polygon fill="none" stroke="black" points="43,-394.5 43,-423.5 232,-423.5 232,-394.5 43,-394.5"/>
<text text-anchor="start" x="50" y="-406.3" font-family="Times,serif" font-weight="bold" font-size="14.00">permission</text>
<polygon fill="none" stroke="black" points="232,-394.5 232,-423.5 306,-423.5 306,-394.5 232,-394.5"/>
<text text-anchor="start" x="239" y="-406.3" font-family="Times,serif" font-style="italic" font-size="14.00">VARCHAR</text>
<polygon fill="none" stroke="black" points="10,-365.5 10,-394.5 43,-394.5 43,-365.5 10,-365.5"/>
<text text-anchor="start" x="17" y="-376.3" font-family="Times,serif" font-size="14.00"> &#160;&#160;</text>
<polygon fill="none" stroke="black" points="43,-365.5 43,-394.5 232,-394.5 232,-365.5 43,-365.5"/>
<text text-anchor="start" x="50" y="-377.3" font-family="Times,serif" font-weight="bold" font-size="14.00">permission_acknowledgement</text>
<polygon fill="none" stroke="black" points="232,-365.5 232,-394.5 306,-394.5 306,-365.5 232,-365.5"/>
<text text-anchor="start" x="239" y="-377.3" font-family="Times,serif" font-style="italic" font-size="14.00">VARCHAR</text>
<polygon fill="none" stroke="black" points="10,-336.5 10,-365.5 43,-365.5 43,-336.5 10,-336.5"/>
<text text-anchor="start" x="17" y="-347.3" font-family="Times,serif" font-size="14.00"> &#160;&#160;</text>
<polygon fill="none" stroke="black" points="43,-336.5 43,-365.5 232,-365.5 232,-336.5 43,-336.5"/>
<text text-anchor="start" x="50" y="-348.3" font-family="Times,serif" font-weight="bold" font-size="14.00">permission_statements</text>
<polygon fill="none" stroke="black" points="232,-336.5 232,-365.5 306,-365.5 306,-336.5 232,-336.5"/>
<text text-anchor="start" x="239" y="-348.3" font-family="Times,serif" font-style="italic" font-size="14.00">VARCHAR</text>
<polygon fill="none" stroke="black" points="10,-307.5 10,-336.5 43,-336.5 43,-307.5 10,-307.5"/>
<text text-anchor="start" x="17" y="-318.3" font-family="Times,serif" font-size="14.00"> &#160;&#160;</text>
<polygon fill="none" stroke="black" points="43,-307.5 43,-336.5 232,-336.5 232,-307.5 43,-307.5"/>
<text text-anchor="start" x="50" y="-319.3" font-family="Times,serif" font-weight="bold" font-size="14.00">acquisitions</text>
<polygon fill="none" stroke="black" points="232,-307.5 232,-336.5 306,-336.5 306,-307.5 232,-307.5"/>
<text text-anchor="start" x="239" y="-319.3" font-family="Times,serif" font-style="italic" font-size="14.00">VARCHAR</text>
<polygon fill="none" stroke="black" points="10,-278.5 10,-307.5 43,-307.5 43,-278.5 10,-278.5"/>
<text text-anchor="start" x="17" y="-289.3" font-family="Times,serif" font-size="14.00"> &#160;&#160;</text>
<polygon fill="none" stroke="black" points="43,-278.5 43,-307.5 232,-307.5 232,-278.5 43,-278.5"/>
<text text-anchor="start" x="50" y="-290.3" font-family="Times,serif" font-weight="bold" font-size="14.00">document_intro</text>
<polygon fill="none" stroke="black" points="232,-278.5 232,-307.5 306,-307.5 306,-278.5 232,-278.5"/>
<text text-anchor="start" x="239" y="-290.3" font-family="Times,serif" font-style="italic" font-size="14.00">TEXT</text>
<polygon fill="none" stroke="black" points="10,-249.5 10,-278.5 43,-278.5 43,-249.5 10,-249.5"/>
<text text-anchor="start" x="17" y="-260.3" font-family="Times,serif" font-size="14.00"> &#160;&#160;</text>
<polygon fill="none" stroke="black" points="43,-249.5 43,-278.5 232,-278.5 232,-249.5 43,-249.5"/>
<text text-anchor="start" x="50" y="-261.3" font-family="Times,serif" font-weight="bold" font-size="14.00">transcripts</text>
<polygon fill="none" stroke="black" points="232,-249.5 232,-278.5 306,-278.5 306,-249.5 232,-249.5"/>
<text text-anchor="start" x="239" y="-261.3" font-family="Times,serif" font-style="italic" font-size="14.00">TEXT</text>
<polygon fill="none" stroke="black" points="10,-220.5 10,-249.5 43,-249.5 43,-220.5 10,-220.5"/>
<text text-anchor="start" x="17" y="-231.3" font-family="Times,serif" font-size="14.00">🔗 </text>
<polygon fill="none" stroke="black" points="43,-220.5 43,-249.5 232,-249.5 232,-220.5 43,-220.5"/>
<text text-anchor="start" x="50" y="-232.3" font-family="Times,serif" font-weight="bold" font-size="14.00">group_reprint_id</text>
<polygon fill="none" stroke="black" points="232,-220.5 232,-249.5 306,-249.5 306,-220.5 232,-220.5"/>
<text text-anchor="start" x="239" y="-232.3" font-family="Times,serif" font-style="italic" font-size="14.00">VARCHAR</text>
<polygon fill="none" stroke="black" points="10,-191.5 10,-220.5 43,-220.5 43,-191.5 10,-191.5"/>
<text text-anchor="start" x="17" y="-202.3" font-family="Times,serif" font-size="14.00">🔗 </text>
<polygon fill="none" stroke="black" points="43,-191.5 43,-220.5 232,-220.5 232,-191.5 43,-191.5"/>
<text text-anchor="start" x="50" y="-203.3" font-family="Times,serif" font-weight="bold" font-size="14.00">publisher_location</text>
<polygon fill="none" stroke="black" points="232,-191.5 232,-220.5 306,-220.5 306,-191.5 232,-191.5"/>
<text text-anchor="start" x="239" y="-203.3" font-family="Times,serif" font-style="italic" font-size="14.00">VARCHAR</text>
<polygon fill="none" stroke="black" points="10,-162.5 10,-191.5 43,-191.5 43,-162.5 10,-162.5"/>
<text text-anchor="start" x="17" y="-173.3" font-family="Times,serif" font-size="14.00">🔗 </text>
<polygon fill="none" stroke="black" points="43,-162.5 43,-191.5 232,-191.5 232,-162.5 43,-162.5"/>
<text text-anchor="start" x="50" y="-174.3" font-family="Times,serif" font-weight="bold" font-size="14.00">publication</text>
<polygon fill="none" stroke="black" points="232,-162.5 232,-191.5 306,-191.5 306,-162.5 232,-162.5"/>
<text text-anchor="start" x="239" y="-174.3" font-family="Times,serif" font-style="italic" font-size="14.00">VARCHAR</text>
<polygon fill="none" stroke="black" stroke-width="2" points="9,-162 9,-773 307,-773 307,-162 9,-162"/>
</g>
<!-- Publication -->
<g id="node2" class="node">
<title>Publication</title>
<polygon fill="#f4d9b0" stroke="transparent" points="487.5,-828.5 487.5,-857.5 716.5,-857.5 716.5,-828.5 487.5,-828.5"/>
<polygon fill="none" stroke="black" points="487.5,-828.5 487.5,-857.5 716.5,-857.5 716.5,-828.5 487.5,-828.5"/>
<text text-anchor="start" x="568.5" y="-840.3" font-family="Times,serif" font-weight="bold" font-size="14.00">Publication</text>
<polygon fill="none" stroke="black" points="487.5,-799.5 487.5,-828.5 520.5,-828.5 520.5,-799.5 487.5,-799.5"/>
<text text-anchor="start" x="494.5" y="-810.3" font-family="Times,serif" font-size="14.00">🔑 </text>
<polygon fill="none" stroke="black" points="520.5,-799.5 520.5,-828.5 642.5,-828.5 642.5,-799.5 520.5,-799.5"/>
<text text-anchor="start" x="527.5" y="-811.3" font-family="Times,serif" font-weight="bold" font-size="14.00">publication</text>
<polygon fill="none" stroke="black" points="642.5,-799.5 642.5,-828.5 716.5,-828.5 716.5,-799.5 642.5,-799.5"/>
<text text-anchor="start" x="649.5" y="-811.3" font-family="Times,serif" font-style="italic" font-size="14.00">VARCHAR</text>
<polygon fill="none" stroke="black" points="487.5,-770.5 487.5,-799.5 520.5,-799.5 520.5,-770.5 487.5,-770.5"/>
<text text-anchor="start" x="494.5" y="-781.3" font-family="Times,serif" font-size="14.00">🔗 </text>
<polygon fill="none" stroke="black" points="520.5,-770.5 520.5,-799.5 642.5,-799.5 642.5,-770.5 520.5,-770.5"/>
<text text-anchor="start" x="527.5" y="-782.3" font-family="Times,serif" font-weight="bold" font-size="14.00">publisher_location</text>
<polygon fill="none" stroke="black" points="642.5,-770.5 642.5,-799.5 716.5,-799.5 716.5,-770.5 642.5,-770.5"/>
<text text-anchor="start" x="649.5" y="-782.3" font-family="Times,serif" font-style="italic" font-size="14.00">VARCHAR</text>
<polygon fill="none" stroke="black" stroke-width="2" points="486,-770 486,-859 717,-859 717,-770 486,-770"/>
</g>
<!-- Article&#45;&gt;Publication -->
<g id="edge1" class="edge">
<title>Article&#45;&gt;Publication</title>
<path fill="none" stroke="black" stroke-width="1.5" d="M323.8,-606.02C393.99,-665.02 460,-720.5 460,-720.5 460,-720.5 492.43,-742.2 526.14,-764.75"/>
<polygon fill="black" stroke="black" stroke-width="1.5" points="323.77,-605.99 319.01,-596.11 319.94,-602.77 316.11,-599.56 316.11,-599.56 316.11,-599.56 319.94,-602.77 313.22,-603 323.77,-605.99 323.77,-605.99"/>
<text text-anchor="middle" x="396.36" y="-680.86" font-family="Arial" font-size="10.00">published in</text>
<text text-anchor="middle" x="396.36" y="-669.86" font-family="Arial" font-size="10.00">(N:1)</text>
</g>
<!-- Location -->
<g id="node3" class="node">
<title>Location</title>
<polygon fill="#c8e6c9" stroke="transparent" points="897.5,-745.5 897.5,-774.5 1126.5,-774.5 1126.5,-745.5 897.5,-745.5"/>
<polygon fill="none" stroke="black" points="897.5,-745.5 897.5,-774.5 1126.5,-774.5 1126.5,-745.5 897.5,-745.5"/>
<text text-anchor="start" x="986" y="-757.3" font-family="Times,serif" font-weight="bold" font-size="14.00">Location</text>
<polygon fill="none" stroke="black" points="897.5,-716.5 897.5,-745.5 930.5,-745.5 930.5,-716.5 897.5,-716.5"/>
<text text-anchor="start" x="904.5" y="-727.3" font-family="Times,serif" font-size="14.00">🔑 </text>
<polygon fill="none" stroke="black" points="930.5,-716.5 930.5,-745.5 1052.5,-745.5 1052.5,-716.5 930.5,-716.5"/>
<text text-anchor="start" x="937.5" y="-728.3" font-family="Times,serif" font-weight="bold" font-size="14.00">publisher_location</text>
<polygon fill="none" stroke="black" points="1052.5,-716.5 1052.5,-745.5 1126.5,-745.5 1126.5,-716.5 1052.5,-716.5"/>
<text text-anchor="start" x="1059.5" y="-728.3" font-family="Times,serif" font-style="italic" font-size="14.00">VARCHAR</text>
<polygon fill="none" stroke="black" stroke-width="2" points="896,-715.5 896,-775.5 1127,-775.5 1127,-715.5 896,-715.5"/>
</g>
<!-- Article&#45;&gt;Location -->
<g id="edge2" class="edge">
<title>Article&#45;&gt;Location</title>
<path fill="none" stroke="black" stroke-width="1.5" d="M325.08,-550.26C394.79,-585 460,-617.5 460,-617.5 460,-617.5 724.65,-679.04 886.96,-716.77"/>
<polygon fill="black" stroke="black" stroke-width="1.5" points="325.06,-550.26 318.12,-541.77 320.59,-548.03 316.11,-545.79 316.11,-545.79 316.11,-545.79 320.59,-548.03 314.1,-549.82 325.06,-550.26 325.06,-550.26"/>
<text text-anchor="middle" x="573.56" y="-642.07" font-family="Arial" font-size="10.00">published at</text>
<text text-anchor="middle" x="573.56" y="-631.07" font-family="Arial" font-size="10.00">(N:1)</text>
</g>
<!-- Images -->
<g id="node4" class="node">
<title>Images</title>
<polygon fill="#e1bee7" stroke="transparent" points="470.5,-553.5 470.5,-582.5 733.5,-582.5 733.5,-553.5 470.5,-553.5"/>
<polygon fill="none" stroke="black" points="470.5,-553.5 470.5,-582.5 733.5,-582.5 733.5,-553.5 470.5,-553.5"/>
<text text-anchor="start" x="580.5" y="-565.3" font-family="Times,serif" font-weight="bold" font-size="14.00">Images</text>
<polygon fill="none" stroke="black" points="470.5,-524.5 470.5,-553.5 503.5,-553.5 503.5,-524.5 470.5,-524.5"/>
<text text-anchor="start" x="477.5" y="-535.3" font-family="Times,serif" font-size="14.00">🔑 </text>
<polygon fill="none" stroke="black" points="503.5,-524.5 503.5,-553.5 659.5,-553.5 659.5,-524.5 503.5,-524.5"/>
<text text-anchor="start" x="510.5" y="-536.3" font-family="Times,serif" font-weight="bold" font-size="14.00">object_id</text>
<polygon fill="none" stroke="black" points="659.5,-524.5 659.5,-553.5 733.5,-553.5 733.5,-524.5 659.5,-524.5"/>
<text text-anchor="start" x="666.5" y="-536.3" font-family="Times,serif" font-style="italic" font-size="14.00">VARCHAR</text>
<polygon fill="none" stroke="black" points="470.5,-495.5 470.5,-524.5 503.5,-524.5 503.5,-495.5 470.5,-495.5"/>
<text text-anchor="start" x="477.5" y="-506.3" font-family="Times,serif" font-size="14.00"> &#160;&#160;</text>
<polygon fill="none" stroke="black" points="503.5,-495.5 503.5,-524.5 659.5,-524.5 659.5,-495.5 503.5,-495.5"/>
<text text-anchor="start" x="510.5" y="-507.3" font-family="Times,serif" font-weight="bold" font-size="14.00">image_file</text>
<polygon fill="none" stroke="black" points="659.5,-495.5 659.5,-524.5 733.5,-524.5 733.5,-495.5 659.5,-495.5"/>
<text text-anchor="start" x="666.5" y="-507.3" font-family="Times,serif" font-style="italic" font-size="14.00">VARCHAR</text>
<polygon fill="none" stroke="black" points="470.5,-466.5 470.5,-495.5 503.5,-495.5 503.5,-466.5 470.5,-466.5"/>
<text text-anchor="start" x="477.5" y="-477.3" font-family="Times,serif" font-size="14.00"> &#160;&#160;</text>
<polygon fill="none" stroke="black" points="503.5,-466.5 503.5,-495.5 659.5,-495.5 659.5,-466.5 503.5,-466.5"/>
<text text-anchor="start" x="510.5" y="-478.3" font-family="Times,serif" font-weight="bold" font-size="14.00">image_parent_id</text>
<polygon fill="none" stroke="black" points="659.5,-466.5 659.5,-495.5 733.5,-495.5 733.5,-466.5 659.5,-466.5"/>
<text text-anchor="start" x="666.5" y="-478.3" font-family="Times,serif" font-style="italic" font-size="14.00">VARCHAR</text>
<polygon fill="none" stroke="black" points="470.5,-437.5 470.5,-466.5 503.5,-466.5 503.5,-437.5 470.5,-437.5"/>
<text text-anchor="start" x="477.5" y="-448.3" font-family="Times,serif" font-size="14.00"> &#160;&#160;</text>
<polygon fill="none" stroke="black" points="503.5,-437.5 503.5,-466.5 659.5,-466.5 659.5,-437.5 503.5,-437.5"/>
<text text-anchor="start" x="510.5" y="-449.3" font-family="Times,serif" font-weight="bold" font-size="14.00">image_object_location</text>
<polygon fill="none" stroke="black" points="659.5,-437.5 659.5,-466.5 733.5,-466.5 733.5,-437.5 659.5,-437.5"/>
<text text-anchor="start" x="666.5" y="-449.3" font-family="Times,serif" font-style="italic" font-size="14.00">VARCHAR</text>
<polygon fill="none" stroke="black" points="470.5,-408.5 470.5,-437.5 503.5,-437.5 503.5,-408.5 470.5,-408.5"/>
<text text-anchor="start" x="477.5" y="-419.3" font-family="Times,serif" font-size="14.00"> &#160;&#160;</text>
<polygon fill="none" stroke="black" points="503.5,-408.5 503.5,-437.5 659.5,-437.5 659.5,-408.5 503.5,-408.5"/>
<text text-anchor="start" x="510.5" y="-420.3" font-family="Times,serif" font-weight="bold" font-size="14.00">image_display_template</text>
<polygon fill="none" stroke="black" points="659.5,-408.5 659.5,-437.5 733.5,-437.5 733.5,-408.5 659.5,-408.5"/>
<text text-anchor="start" x="666.5" y="-420.3" font-family="Times,serif" font-style="italic" font-size="14.00">VARCHAR</text>
<polygon fill="none" stroke="black" points="470.5,-379.5 470.5,-408.5 503.5,-408.5 503.5,-379.5 470.5,-379.5"/>
<text text-anchor="start" x="477.5" y="-390.3" font-family="Times,serif" font-size="14.00"> &#160;&#160;</text>
<polygon fill="none" stroke="black" points="503.5,-379.5 503.5,-408.5 659.5,-408.5 659.5,-379.5 503.5,-379.5"/>
<text text-anchor="start" x="510.5" y="-391.3" font-family="Times,serif" font-weight="bold" font-size="14.00">image_description</text>
<polygon fill="none" stroke="black" points="659.5,-379.5 659.5,-408.5 733.5,-408.5 733.5,-379.5 659.5,-379.5"/>
<text text-anchor="start" x="666.5" y="-391.3" font-family="Times,serif" font-style="italic" font-size="14.00">TEXT</text>
<polygon fill="none" stroke="black" points="470.5,-350.5 470.5,-379.5 503.5,-379.5 503.5,-350.5 470.5,-350.5"/>
<text text-anchor="start" x="477.5" y="-361.3" font-family="Times,serif" font-size="14.00">🔗 </text>
<polygon fill="none" stroke="black" points="503.5,-350.5 503.5,-379.5 659.5,-379.5 659.5,-350.5 503.5,-350.5"/>
<text text-anchor="start" x="510.5" y="-362.3" font-family="Times,serif" font-weight="bold" font-size="14.00">article_id</text>
<polygon fill="none" stroke="black" points="659.5,-350.5 659.5,-379.5 733.5,-379.5 733.5,-350.5 659.5,-350.5"/>
<text text-anchor="start" x="666.5" y="-362.3" font-family="Times,serif" font-style="italic" font-size="14.00">VARCHAR</text>
<polygon fill="none" stroke="black" stroke-width="2" points="469,-349.5 469,-583.5 734,-583.5 734,-349.5 469,-349.5"/>
</g>
<!-- Article&#45;&gt;Images -->
<g id="edge4" class="edge">
<title>Article&#45;&gt;Images</title>
<path fill="none" stroke="black" stroke-width="1.5" d="M316.21,-467.14C359.56,-467.05 406.48,-466.94 449.47,-466.84"/>
<polygon fill="black" stroke="black" stroke-width="1.5" points="449.73,-466.84 459.74,-471.32 454.73,-466.83 459.73,-466.82 459.73,-466.82 459.73,-466.82 454.73,-466.83 459.72,-462.32 449.73,-466.84 449.73,-466.84"/>
<text text-anchor="middle" x="371.84" y="-458.99" font-family="Arial" font-size="10.00">has</text>
<text text-anchor="middle" x="371.84" y="-447.99" font-family="Arial" font-size="10.00">(1:N)</text>
</g>
<!-- Reprints -->
<g id="node5" class="node">
<title>Reprints</title>
<polygon fill="#ffecb3" stroke="transparent" points="490.5,-251.5 490.5,-280.5 712.5,-280.5 712.5,-251.5 490.5,-251.5"/>
<polygon fill="none" stroke="black" points="490.5,-251.5 490.5,-280.5 712.5,-280.5 712.5,-251.5 490.5,-251.5"/>
<text text-anchor="start" x="576" y="-263.3" font-family="Times,serif" font-weight="bold" font-size="14.00">Reprints</text>
<polygon fill="none" stroke="black" points="490.5,-222.5 490.5,-251.5 523.5,-251.5 523.5,-222.5 490.5,-222.5"/>
<text text-anchor="start" x="497.5" y="-233.3" font-family="Times,serif" font-size="14.00">🔑 </text>
<polygon fill="none" stroke="black" points="523.5,-222.5 523.5,-251.5 638.5,-251.5 638.5,-222.5 523.5,-222.5"/>
<text text-anchor="start" x="530.5" y="-234.3" font-family="Times,serif" font-weight="bold" font-size="14.00">group_reprint_id</text>
<polygon fill="none" stroke="black" points="638.5,-222.5 638.5,-251.5 712.5,-251.5 712.5,-222.5 638.5,-222.5"/>
<text text-anchor="start" x="645.5" y="-234.3" font-family="Times,serif" font-style="italic" font-size="14.00">VARCHAR</text>
<polygon fill="none" stroke="black" points="490.5,-193.5 490.5,-222.5 523.5,-222.5 523.5,-193.5 490.5,-193.5"/>
<text text-anchor="start" x="497.5" y="-204.3" font-family="Times,serif" font-size="14.00"> &#160;&#160;</text>
<polygon fill="none" stroke="black" points="523.5,-193.5 523.5,-222.5 638.5,-222.5 638.5,-193.5 523.5,-193.5"/>
<text text-anchor="start" x="530.5" y="-205.3" font-family="Times,serif" font-weight="bold" font-size="14.00">reprint_type</text>
<polygon fill="none" stroke="black" points="638.5,-193.5 638.5,-222.5 712.5,-222.5 712.5,-193.5 638.5,-193.5"/>
<text text-anchor="start" x="645.5" y="-205.3" font-family="Times,serif" font-style="italic" font-size="14.00">VARCHAR</text>
<polygon fill="none" stroke="black" points="490.5,-164.5 490.5,-193.5 523.5,-193.5 523.5,-164.5 490.5,-164.5"/>
<text text-anchor="start" x="497.5" y="-175.3" font-family="Times,serif" font-size="14.00"> &#160;&#160;</text>
<polygon fill="none" stroke="black" points="523.5,-164.5 523.5,-193.5 638.5,-193.5 638.5,-164.5 523.5,-164.5"/>
<text text-anchor="start" x="530.5" y="-176.3" font-family="Times,serif" font-weight="bold" font-size="14.00">reprint_order</text>
<polygon fill="none" stroke="black" points="638.5,-164.5 638.5,-193.5 712.5,-193.5 712.5,-164.5 638.5,-164.5"/>
<text text-anchor="start" x="645.5" y="-176.3" font-family="Times,serif" font-style="italic" font-size="14.00">INT</text>
<polygon fill="none" stroke="black" stroke-width="2" points="489.5,-163.5 489.5,-281.5 713.5,-281.5 713.5,-163.5 489.5,-163.5"/>
</g>
<!-- Article&#45;&gt;Reprints -->
<g id="edge5" class="edge">
<title>Article&#45;&gt;Reprints</title>
<path fill="none" stroke="black" stroke-width="1.5" d="M325.06,-375.35C378.29,-345.81 436.05,-313.76 484.86,-286.67"/>
<polygon fill="black" stroke="black" stroke-width="1.5" points="324.95,-375.41 314.03,-376.32 320.58,-377.83 316.21,-380.26 316.21,-380.26 316.21,-380.26 320.58,-377.83 318.39,-384.19 324.95,-375.41 324.95,-375.41"/>
<text text-anchor="middle" x="381.96" y="-323.01" font-family="Arial" font-size="10.00">belongs to</text>
<text text-anchor="middle" x="381.96" y="-312.01" font-family="Arial" font-size="10.00">(N:1)</text>
</g>
<!-- Article_Trope -->
<g id="node7" class="node">
<title>Article_Trope</title>
<polygon fill="#ffe0e0" stroke="transparent" points="513.5,-64.5 513.5,-93.5 689.5,-93.5 689.5,-64.5 513.5,-64.5"/>
<polygon fill="none" stroke="black" points="513.5,-64.5 513.5,-93.5 689.5,-93.5 689.5,-64.5 513.5,-64.5"/>
<text text-anchor="start" x="560.5" y="-76.3" font-family="Times,serif" font-weight="bold" font-size="14.00">Article_Trope</text>
<polygon fill="none" stroke="black" points="513.5,-35.5 513.5,-64.5 546.5,-64.5 546.5,-35.5 513.5,-35.5"/>
<text text-anchor="start" x="520.5" y="-46.3" font-family="Times,serif" font-size="14.00">🔑 </text>
<polygon fill="none" stroke="black" points="546.5,-35.5 546.5,-64.5 615.5,-64.5 615.5,-35.5 546.5,-35.5"/>
<text text-anchor="start" x="553.5" y="-47.3" font-family="Times,serif" font-weight="bold" font-size="14.00">article_id</text>
<polygon fill="none" stroke="black" points="615.5,-35.5 615.5,-64.5 689.5,-64.5 689.5,-35.5 615.5,-35.5"/>
<text text-anchor="start" x="622.5" y="-47.3" font-family="Times,serif" font-style="italic" font-size="14.00">VARCHAR</text>
<polygon fill="none" stroke="black" points="513.5,-6.5 513.5,-35.5 546.5,-35.5 546.5,-6.5 513.5,-6.5"/>
<text text-anchor="start" x="520.5" y="-17.3" font-family="Times,serif" font-size="14.00">🔑 </text>
<polygon fill="none" stroke="black" points="546.5,-6.5 546.5,-35.5 615.5,-35.5 615.5,-6.5 546.5,-6.5"/>
<text text-anchor="start" x="553.5" y="-18.3" font-family="Times,serif" font-weight="bold" font-size="14.00">trope_id</text>
<polygon fill="none" stroke="black" points="615.5,-6.5 615.5,-35.5 689.5,-35.5 689.5,-6.5 615.5,-6.5"/>
<text text-anchor="start" x="622.5" y="-18.3" font-family="Times,serif" font-style="italic" font-size="14.00">VARCHAR</text>
<polygon fill="none" stroke="black" stroke-width="2" points="512.5,-6 512.5,-95 690.5,-95 690.5,-6 512.5,-6"/>
</g>
<!-- Article&#45;&gt;Article_Trope -->
<g id="edge6" class="edge">
<title>Article&#45;&gt;Article_Trope</title>
<path fill="none" stroke="black" stroke-width="1.5" d="M316.11,-291.08C389.09,-209.12 460,-129.5 460,-129.5 460,-129.5 479.28,-118.66 503.55,-105.01"/>
<polygon fill="black" stroke="black" stroke-width="1.5" points="503.6,-104.98 514.52,-104.01 507.96,-102.53 512.32,-100.08 512.32,-100.08 512.32,-100.08 507.96,-102.53 510.11,-96.16 503.6,-104.98 503.6,-104.98"/>
<text text-anchor="middle" x="393.67" y="-183.63" font-family="Arial" font-size="10.00">(1:N)</text>
</g>
<!-- Publication&#45;&gt;Location -->
<g id="edge3" class="edge">
<title>Publication&#45;&gt;Location</title>
<path fill="none" stroke="black" stroke-width="1.5" d="M735.96,-791.93C784.47,-783.73 839.05,-774.49 886.7,-766.44"/>
<polygon fill="black" stroke="black" stroke-width="1.5" points="735.88,-791.94 725.27,-789.17 730.95,-792.78 726.02,-793.61 726.02,-793.61 726.02,-793.61 730.95,-792.78 726.77,-798.05 735.88,-791.94 735.88,-791.94"/>
<text text-anchor="middle" x="789.83" y="-771.18" font-family="Arial" font-size="10.00">located at</text>
<text text-anchor="middle" x="789.83" y="-760.18" font-family="Arial" font-size="10.00">(N:1)</text>
</g>
<!-- Trope -->
<g id="node6" class="node">
<title>Trope</title>
<polygon fill="#ffcdd2" stroke="transparent" points="65,-63.5 65,-92.5 252,-92.5 252,-63.5 65,-63.5"/>
<polygon fill="none" stroke="black" points="65,-63.5 65,-92.5 252,-92.5 252,-63.5 65,-63.5"/>
<text text-anchor="start" x="141" y="-75.3" font-family="Times,serif" font-weight="bold" font-size="14.00">Trope</text>
<polygon fill="none" stroke="black" points="65,-34.5 65,-63.5 98,-63.5 98,-34.5 65,-34.5"/>
<text text-anchor="start" x="72" y="-45.3" font-family="Times,serif" font-size="14.00">🔑 </text>
<polygon fill="none" stroke="black" points="98,-34.5 98,-63.5 178,-63.5 178,-34.5 98,-34.5"/>
<text text-anchor="start" x="105" y="-46.3" font-family="Times,serif" font-weight="bold" font-size="14.00">trope_id</text>
<polygon fill="none" stroke="black" points="178,-34.5 178,-63.5 252,-63.5 252,-34.5 178,-34.5"/>
<text text-anchor="start" x="185" y="-46.3" font-family="Times,serif" font-style="italic" font-size="14.00">VARCHAR</text>
<polygon fill="none" stroke="black" points="65,-5.5 65,-34.5 98,-34.5 98,-5.5 65,-5.5"/>
<text text-anchor="start" x="72" y="-16.3" font-family="Times,serif" font-size="14.00"> &#160;&#160;</text>
<polygon fill="none" stroke="black" points="98,-5.5 98,-34.5 178,-34.5 178,-5.5 98,-5.5"/>
<text text-anchor="start" x="105" y="-17.3" font-family="Times,serif" font-weight="bold" font-size="14.00">trope_label</text>
<polygon fill="none" stroke="black" points="178,-5.5 178,-34.5 252,-34.5 252,-5.5 178,-5.5"/>
<text text-anchor="start" x="185" y="-17.3" font-family="Times,serif" font-style="italic" font-size="14.00">VARCHAR</text>
<polygon fill="none" stroke="black" stroke-width="2" points="63.5,-5 63.5,-94 252.5,-94 252.5,-5 63.5,-5"/>
</g>
<!-- Trope&#45;&gt;Article_Trope -->
<g id="edge7" class="edge">
<title>Trope&#45;&gt;Article_Trope</title>
<path fill="none" stroke="black" stroke-width="1.5" d="M261.68,-49.73C331.13,-49.89 422.67,-50.1 493.09,-50.26"/>
<polygon fill="black" stroke="black" stroke-width="1.5" points="493.32,-50.26 503.31,-54.78 498.32,-50.27 503.32,-50.28 503.32,-50.28 503.32,-50.28 498.32,-50.27 503.33,-45.78 493.32,-50.26 493.32,-50.26"/>
<text text-anchor="middle" x="366.38" y="-41.99" font-family="Arial" font-size="10.00">(1:N)</text>
</g>
</g>
</svg>
